# Created by FreeCAD <https://www.freecad.org>
v -50.000000 -50.000000 0.000000
v 50.000000 -50.000000 0.000000
v -50.000000 -50.000000 10.000000
v 50.000000 -50.000000 10.000000
v -50.000000 50.000000 0.000000
v -50.000000 50.000000 10.000000
v 50.000000 50.000000 0.000000
v 50.000000 50.000000 10.000000
v 10.000000 -10.000000 10.000000
v -10.000000 -10.000000 10.000000
v -10.000000 10.000000 10.000000
v 10.000000 10.000000 10.000000
v -10.000000 -10.000000 140.000000
v 10.000000 -10.000000 140.000000
v 10.000000 10.000000 160.000000
v 10.000000 -110.000000 160.000000
v 10.000000 -110.000000 140.000000
v -10.000000 10.000000 160.000000
v -10.000000 -90.000000 160.000000
v -10.000000 -90.000000 140.000000
v -110.000000 -90.000000 160.000000
v -110.000000 -90.000000 140.000000
v -110.000000 -110.000000 140.000000
v -110.000000 -110.000000 160.000000
vn 0.000000 -1.000000 0.000000
vn 0.000000 -1.000000 0.000000
vn -1.000000 0.000000 0.000000
vn -1.000000 -0.000000 0.000000
vn 1.000000 0.000000 0.000000
vn 1.000000 -0.000000 0.000000
vn 0.000000 0.000000 -1.000000
vn 0.000000 0.000000 -1.000000
vn 0.000000 0.000000 1.000000
vn 0.000000 0.000000 1.000000
vn 0.000000 0.000000 1.000000
vn 0.000000 0.000000 1.000000
vn 0.000000 0.000000 1.000000
vn 0.000000 0.000000 1.000000
vn 0.000000 0.000000 1.000000
vn 0.000000 0.000000 1.000000
vn 0.000000 1.000000 -0.000000
vn 0.000000 1.000000 0.000000
vn 0.000000 -1.000000 0.000000
vn 0.000000 -1.000000 0.000000
vn 1.000000 0.000000 0.000000
vn 1.000000 0.000000 0.000000
vn 1.000000 0.000000 0.000000
vn 1.000000 -0.000000 0.000000
vn 0.000000 1.000000 -0.000000
vn 0.000000 1.000000 0.000000
vn -1.000000 0.000000 0.000000
vn -1.000000 0.000000 0.000000
vn -1.000000 0.000000 0.000000
vn -1.000000 0.000000 0.000000
vn 0.000000 1.000000 0.000000
vn 0.000000 1.000000 0.000000
vn -1.000000 0.000000 0.000000
vn -1.000000 0.000000 0.000000
vn 0.000000 0.000000 -1.000000
vn 0.000000 0.000000 -1.000000
vn 0.000000 0.000000 -1.000000
vn 0.000000 0.000000 -1.000000
vn 0.000000 0.000000 1.000000
vn 0.000000 0.000000 1.000000
vn 0.000000 0.000000 1.000000
vn 0.000000 0.000000 1.000000
vn 0.000000 -1.000000 0.000000
vn 0.000000 -1.000000 0.000000
f 1//1 2//1 3//1
f 3//2 2//2 4//2
f 5//3 1//3 6//3
f 6//4 1//4 3//4
f 2//5 7//5 4//5
f 4//6 7//6 8//6
f 1//7 7//7 2//7
f 5//8 7//8 1//8
f 9//9 3//9 4//9
f 9//10 10//10 3//10
f 11//11 6//11 3//11
f 11//12 3//12 10//12
f 8//13 11//13 12//13
f 8//14 12//14 9//14
f 8//15 9//15 4//15
f 8//16 6//16 11//16
f 7//17 5//17 8//17
f 8//18 5//18 6//18
f 10//19 9//19 13//19
f 13//20 9//20 14//20
f 14//21 9//21 12//21
f 15//22 14//22 12//22
f 16//23 17//23 14//23
f 16//24 14//24 15//24
f 12//25 11//25 15//25
f 15//26 11//26 18//26
f 19//27 18//27 13//27
f 20//28 19//28 13//28
f 11//29 13//29 18//29
f 10//30 13//30 11//30
f 19//31 20//31 21//31
f 21//32 20//32 22//32
f 23//33 21//33 22//33
f 23//34 24//34 21//34
f 20//35 13//35 14//35
f 20//36 14//36 17//36
f 23//37 22//37 20//37
f 23//38 20//38 17//38
f 19//39 21//39 24//39
f 19//40 24//40 16//40
f 15//41 18//41 19//41
f 15//42 19//42 16//42
f 17//43 16//43 24//43
f 17//44 24//44 23//44