# https://github.com/mikedh/trimesh
v -10.00459671 -109.99999523 140.00000000
v -10.00459671 -109.99999523 160.00000000
v -10.00459671 -89.99308586 140.00195503
v -9.99872208 -10.00460148 140.00195503
v -9.99872208 -89.99308586 140.00000000
v 10.00000000 -109.99999523 140.00000000
v 10.00000000 -109.99999523 160.00000000
v -10.00459671 -89.99308586 160.00000000
v -9.99872208 -10.00460148 160.00000000
v 10.00000000 -10.00460148 140.00000000
v 10.00000000 -10.00460148 160.00000000
f 1 2 8
f 1 8 3
f 1 3 4
f 1 4 5
f 1 5 10
f 1 10 6
f 1 6 7
f 1 7 2
f 2 7 11
f 2 11 9
f 2 9 8
f 3 8 9
f 3 9 4
f 4 9 11
f 4 11 10
f 4 10 5
f 6 10 11
f 6 11 7

