mtllib material.mtl
usemtl object_material
v -50.00000000 -50.00000000 0.00000000
v 50.00000000 -50.00000000 0.00000000
v -50.00000000 -50.00000000 10.00000000
v 50.00000000 -50.00000000 10.00000000
v -50.00000000 50.00000000 0.00000000
v -50.00000000 50.00000000 10.00000000
v 50.00000000 50.00000000 0.00000000
v 50.00000000 50.00000000 10.00000000
v 10.00000000 -10.00000000 10.00000000
v -10.00000000 -10.00000000 10.00000000
v -10.00000000 10.00000000 10.00000000
v 10.00000000 10.00000000 10.00000000
v -10.00000000 -10.00000000 140.00000000
v 10.00000000 -10.00000000 140.00000000
v 10.00000000 10.00000000 160.00000000
v 10.00000000 -110.00000000 160.00000000
v 10.00000000 -110.00000000 140.00000000
v -10.00000000 10.00000000 160.00000000
v -10.00000000 -90.00000000 160.00000000
v -10.00000000 -90.00000000 140.00000000
v -110.00000000 -90.00000000 160.00000000
v -110.00000000 -90.00000000 140.00000000
v -110.00000000 -110.00000000 140.00000000
v -110.00000000 -110.00000000 160.00000000
f 1 2 3
f 3 2 4
f 5 1 6
f 6 1 3
f 2 7 4
f 4 7 8
f 1 7 2
f 5 7 1
f 9 3 4
f 9 10 3
f 11 6 3
f 11 3 10
f 8 11 12
f 8 12 9
f 8 9 4
f 8 6 11
f 7 5 8
f 8 5 6
f 10 9 13
f 13 9 14
f 14 9 12
f 15 14 12
f 16 17 14
f 16 14 15
f 12 11 15
f 15 11 18
f 19 18 13
f 20 19 13
f 11 13 18
f 10 13 11
f 19 20 21
f 21 20 22
f 23 21 22
f 23 24 21
f 20 13 14
f 20 14 17
f 23 22 20
f 23 20 17
f 19 21 24
f 19 24 16
f 15 18 19
f 15 19 16
f 17 16 24
f 17 24 23

