# https://github.com/mikedh/trimesh
v -10.00000000 -10.00459671 139.98843193
v -10.00000000 -9.99872208 10.00866413
v 10.00000000 -10.00459671 139.98843193
v -10.00000000 -10.00459671 160.00000000
v 9.99804258 -9.99872208 10.00866413
v -10.00000000 10.00000000 160.00000000
v -9.99804258 10.00000000 10.00866413
v 10.00000000 9.99804020 10.00866413
v 10.00000000 -10.00459671 160.00000000
v 10.00000000 10.00000000 160.00000000
f 1 2 5
f 1 5 3
f 1 3 9
f 1 9 4
f 1 4 6
f 1 6 2
f 2 6 7
f 2 7 8
f 2 8 5
f 3 5 8
f 3 8 10
f 3 10 9
f 4 9 10
f 4 10 6
f 6 10 7
f 7 10 8

