# https://github.com/mikedh/trimesh
v 50.00000000 50.00000000 9.99985218
v 50.00000000 50.00000000 0.00000000
v -50.00000000 50.00000000 9.99985218
v 9.99412775 9.99412775 10.00866890
v 50.00000000 -50.00000000 9.99985218
v 50.00000000 -50.00000000 0.00000000
v -50.00000000 50.00000000 0.00000000
v -50.00000000 -50.00000000 9.99985218
v -9.99412775 9.99412775 10.00866890
v 9.99412775 -9.99412775 10.00866890
v -50.00000000 -50.00000000 0.00000000
v -9.99412775 -9.99412775 10.00866890
f 1 2 7
f 1 7 3
f 1 3 9
f 1 9 4
f 1 4 10
f 1 10 5
f 1 5 6
f 1 6 2
f 2 6 11
f 2 11 7
f 3 7 11
f 3 11 8
f 3 8 12
f 3 12 9
f 4 9 12
f 4 12 10
f 5 10 12
f 5 12 8
f 5 8 11
f 5 11 6

