# https://github.com/mikedh/trimesh
v -38.72623898 0.00607557 3.44629398
v -31.54003861 0.00607557 3.44629398
v -38.72786549 0.00607557 3.97057284
v -38.72623898 0.80921107 3.44629398
v -22.10275631 22.76780326 3.44629398
v -24.21222800 24.47679997 92.82246566
v -34.43567724 0.00607557 92.01382806
v -38.72786549 0.80921107 3.97057284
v -38.73112140 0.00607557 19.33460061
v -38.68066497 1.90184774 3.44629398
v -22.10275631 31.80151935 3.44629398
v -22.10275631 26.35700907 14.64275640
v -24.21222800 24.58263858 93.07127234
v -34.46497461 0.00607557 92.82246566
v -38.65950591 2.42793366 3.97057284
v -38.72949489 0.80921107 14.64275640
v -38.66275893 2.42482076 16.89981856
v -38.73112140 0.00607557 64.55585043
v -38.65787652 2.42793366 3.44629398
v -23.12656538 31.07309490 3.44629398
v -23.12819334 31.07620925 3.97057284
v -22.10275631 31.80774515 14.64275640
v -24.21222800 25.62858463 94.07540297
v -24.21222800 25.20833876 93.97765646
v -34.74493630 0.00607557 93.43560446
v -38.52277809 4.04042974 3.97057284
v -38.72949489 0.80921107 87.97066316
v -38.52603399 4.04042974 37.90650463
v -38.52440749 4.04042974 13.66528549
v -38.66275893 2.42482076 87.97066316
v -38.72949489 0.00607557 87.97066316
v -38.52115158 4.04042974 3.44629398
v -23.38862247 30.87698074 3.44629398
v -23.93552222 30.46296067 3.97057284
v -23.44884662 30.83340013 14.64275640
v -23.12819334 31.07620925 14.64275640
v -22.67895343 31.39683942 14.64275640
v -24.21222800 30.23571750 87.97066316
v -24.21222800 30.23260316 89.58793258
v -24.21222800 30.17034515 90.11221144
v -24.21222800 30.03648899 91.20519623
v -24.21222800 29.79368277 91.82722160
v -24.21222800 29.47616405 92.47590669
v -24.21222800 28.71038191 93.30231165
v -24.21222800 28.37418579 93.57777805
v -24.21222800 27.92281092 93.84436365
v -24.21222800 27.52746825 93.96876988
v -24.21222800 26.61226979 94.03097011
v -36.35145575 0.00607557 94.11983005
v -35.02978040 0.00607557 94.04874325
v -28.27491389 21.80902131 94.17314948
v -34.73517147 8.88725810 94.22646314
v -38.40232979 5.01788909 14.64275640
v -38.31932008 5.65915233 3.97057284
v -38.72786549 0.00607557 88.78818733
v -38.72623898 0.80921107 89.58793258
v -38.52603399 4.04042974 87.97066316
v -38.32257310 5.65603943 78.28484286
v -38.65787652 2.42482076 89.58793258
v -38.52277809 4.04042974 89.58793258
v -38.31769068 5.65915233 3.44629398
v -23.93389427 30.45673487 3.44629398
v -24.91701174 29.65360081 3.44629398
v -24.91864113 29.65360081 3.97057284
v -23.93552222 30.46296067 14.64275640
v -24.91864113 29.65360081 89.58793258
v -24.80307525 29.55398512 91.20519623
v -24.53776370 29.33296775 92.34261389
v -25.09442827 28.31192779 92.91132560
v -25.64783983 27.26909608 93.48003154
v -24.57194349 27.75471430 93.78215765
v -25.08466344 26.70254245 93.99542382
v -36.35145575 0.80921107 94.11094348
v -37.23040300 0.80921107 93.69329771
v -37.23040300 0.00607557 93.69329771
v -26.70583014 25.08070840 93.99542382
v -29.89119816 20.19341161 94.16426291
v -31.50422942 16.95907932 94.19091685
v -33.11888430 13.73408718 94.20868999
v -34.73517147 10.50286779 94.14648977
v -36.19519826 5.65603943 93.98653725
v -36.35145575 2.42482076 94.08428954
v -38.32094659 5.65603943 14.64275640
v -38.04587021 7.27164840 3.97057284
v -38.15655079 6.63349879 14.64275640
v -38.72623898 0.00607557 89.58793258
v -38.65136470 0.00607557 90.40545098
v -38.57323741 0.80921107 91.20519623
v -38.32257310 5.65603943 87.97066316
v -38.50487494 2.42482076 91.20519623
v -38.36815000 4.04042974 91.20519623
v -38.31769068 5.65603943 89.58793258
v -38.04424081 7.27164840 3.44629398
v -25.72434062 28.96875697 3.44629398
v -25.72596713 28.96875697 3.97057284
v -25.72596713 28.96875697 87.97066316
v -25.72596713 28.96564263 89.58793258
v -25.61203064 28.86602982 91.20519623
v -26.20125139 27.79206911 92.40481989
v -26.19799548 26.19202391 93.79104422
v -26.73838342 26.73367434 92.94686611
v -27.27389183 25.64414769 93.48003154
v -37.19947623 2.42482076 93.65775720
v -37.86519776 0.80921107 92.82246566
v -37.86519776 0.00607557 92.82246566
v -28.28956402 23.41217940 93.95988331
v -27.75894091 24.56707552 93.78215765
v -29.84236824 21.69072965 93.87102337
v -31.57259189 18.59336642 93.98653725
v -33.21817354 15.39016458 94.00431039
v -34.28918747 13.73408718 93.85325023
v -34.77911898 11.98462133 93.91545045
v -35.66783106 10.50286779 93.71995742
v -35.86478015 8.88725810 93.84436365
v -36.03894078 7.27164840 93.93322360
v -37.10344290 4.44199748 93.58666462
v -37.17180536 3.36181097 93.63998406
v -36.47841296 3.95949361 93.95099674
v -37.70242847 8.88725810 50.81797505
v -37.70080196 8.88725810 14.64275640
v -37.69917256 8.88725810 3.97057284
v -37.80985603 8.36428652 3.44629398
v -38.04587021 7.27164840 87.97066316
v -38.57486392 0.00607557 91.20519623
v -37.79846180 2.42482076 92.82246566
v -38.04424081 7.27164840 89.58793258
v -38.16306260 5.65603943 91.20519623
v -37.58523608 5.65603943 92.67139971
v -26.31030546 28.42088074 3.44629398
v -26.59026714 28.15939423 3.97057284
v -26.24845480 28.48313875 14.64275640
v -26.59189365 28.15939423 87.97066316
v -26.58863775 28.15939423 89.58793258
v -26.48121018 28.05666708 91.20519623
v -27.79637661 26.19513537 92.40481989
v -27.28853907 27.28466203 91.20519623
v -28.31560549 25.09004566 92.91132560
v -28.83646377 23.94137678 93.41783131
v -29.27268004 22.86430317 93.73773057
v -30.74898637 21.07748396 93.66664377
v -31.02406275 20.19341161 93.80881737
v -32.75428640 16.95907932 93.87990416
v -32.46944230 18.06728194 93.73773057
v -34.06619403 14.88275750 93.72884400
v -35.55714760 11.35580969 93.63998406
v -36.84626966 7.27164840 93.29342508
v -37.00252715 5.65603943 93.48003154
v -37.58849199 3.95949361 92.95575268
v -37.33620117 10.32543103 52.44412743
v -37.33457466 10.32543103 14.64275640
v -37.70242847 8.88725810 87.97066316
v -37.33294526 10.32854393 5.58784226
v -37.33294526 10.32543103 3.97057284
v -37.69754605 8.88725810 3.44629398
v -37.88798333 7.27164840 91.20519623
v -37.54454448 8.88725810 91.20519623
v -37.69917256 8.88725810 89.58793258
v -37.44688175 7.27164840 92.49367983
v -37.27597702 8.88725810 92.21820766
v -26.85069628 27.91347366 3.44629398
v -26.59189365 28.15939423 14.64275640
v -27.39922254 27.39361498 87.97066316
v -27.39596663 27.39050064 89.58793258
v -29.33616010 24.53283217 92.34261389
v -28.06005877 26.47841363 91.20519623
v -28.86738765 25.60368143 91.20519623
v -29.84236824 23.36548445 92.81357909
v -30.35020290 22.15455613 93.27565194
v -32.15692733 19.14435555 93.49780468
v -31.10544595 21.69072965 92.76914623
v -31.90463652 20.31792907 92.90243903
v -33.82204442 15.95360386 93.54223754
v -35.34717778 12.43288330 93.43560446
v -35.92174839 11.98462133 92.86689274
v -37.17343187 9.75576522 92.04048777
v -36.67210903 8.88725810 93.01795869
v -37.10669880 11.13479233 3.97057284
v -37.33620117 10.32543103 87.97066316
v -37.33457466 10.31920523 89.58793258
v -37.33131875 10.32231813 3.44629398
v -37.25807387 10.04838002 91.20519623
v -27.39759603 27.39361498 3.44629398
v -27.39922254 27.39361498 3.97057284
v -28.16423042 26.58736658 87.97066316
v -28.16097740 26.58425224 89.58793258
v -30.82548716 22.78959357 92.20044029
v -29.55589764 24.79743303 91.20519623
v -28.96993280 25.71886018 89.58793258
v -32.60453784 19.86655419 92.42259303
v -33.07493680 18.50931811 92.79580594
v -33.56161528 16.95907932 93.22233829
v -34.20617487 16.95907932 92.42259303
v -35.55877699 14.58080328 92.04048777
v -35.71991689 13.73408718 92.29818680
v -35.09651636 13.73408718 93.09793206
v -36.62653213 12.11847749 91.20519623
v -37.02531560 10.85462841 91.20519623
v -36.79092793 12.11847749 14.64275640
v -36.78930142 12.12159039 3.97057284
v -37.10507229 11.13167943 3.44629398
v -37.10669880 11.13479233 87.97066316
v -37.10507229 11.12856653 89.58793258
v -27.91519551 26.84885310 3.44629398
v -28.16423042 26.58736658 14.64275640
v -28.97155930 25.72197164 87.97066316
v -32.27411972 20.94362781 91.85388132
v -30.36485303 23.80440773 91.20519623
v -30.98174464 22.99815933 91.20519623
v -29.65355748 24.91260890 89.58793258
v -30.45925985 23.92581228 89.58793258
v -33.98155492 17.86805488 92.10269378
v -34.64890296 16.95907932 91.20519623
v -35.29346544 15.58939164 91.20519623
v -35.64666912 14.78625614 91.20519623
v -36.05521742 13.73408718 91.20519623
v -36.78767491 12.11847749 89.58793258
v -36.21961322 13.73408718 44.36668312
v -36.79092793 12.11847749 87.97066316
v -36.21635732 13.73720008 3.97057284
v -36.21473081 13.73720008 3.44629398
v -36.78604552 12.12159039 3.44629398
v -28.16260391 26.58736658 3.44629398
v -28.97155930 25.72197164 3.97057284
v -29.65518399 24.91572324 87.97066316
v -29.38336351 25.23635630 14.64275640
v -31.86882733 21.71874720 91.26740224
v -32.38968561 21.11795167 90.76977732
v -32.77870136 20.31792907 91.26740224
v -33.64462499 18.87975614 91.20519623
v -31.07289267 23.11956388 89.58793258
v -30.46088636 23.92892518 87.97066316
v -31.07614858 23.12267679 87.97066316
v -34.09060899 18.07350774 91.20519623
v -34.81655467 16.95907932 89.58793258
v -35.37647515 15.77616710 89.58793258
v -35.72479931 14.97303161 89.58793258
v -36.21473081 13.73408718 89.58793258
v -36.21961322 13.73408718 73.43304035
v -35.92174839 14.48430193 14.64275640
v -36.21798671 13.73408718 87.97066316
v -35.72642581 14.97303161 3.97057284
v -35.88268330 14.57769038 3.44629398
v -28.96993280 25.72197164 3.44629398
v -29.65355748 24.91572324 3.97057284
v -29.65518399 24.91572324 23.36888038
v -31.88022155 21.98957097 89.58793258
v -32.43037721 21.18020967 89.58793258
v -33.04563942 20.19341161 89.58793258
v -33.73252001 19.03540259 89.58793258
v -30.46088636 23.92892518 14.64275640
v -31.88185095 21.99268387 87.97066316
v -31.07614858 23.12267679 14.64275640
v -34.17524810 18.22604130 89.58793258
v -34.17850401 18.23226710 87.97066316
v -34.81981058 16.95907932 87.97066316
v -35.37810455 15.77928000 87.97066316
v -35.72642581 14.97614451 87.97066316
v -35.72642581 14.97614451 14.64275640
v -35.37647515 15.78239290 3.97057284
v -35.72642581 14.96991871 3.44629398
v -29.65193097 24.90949744 3.44629398
v -29.91235722 24.59197872 3.44629398
v -30.45600395 23.92892518 3.44629398
v -30.45763046 23.92892518 3.97057284
v -32.43363311 21.18643547 87.97066316
v -33.04889533 20.19341161 87.97066316
v -33.73414941 19.04162840 87.97066316
v -31.88185095 21.99268387 3.97057284
v -32.21552497 21.50706709 14.64275640
v -31.07289267 23.12267679 3.97057284
v -34.17850401 18.23226710 63.73833203
v -34.81981058 16.95907932 45.98394912
v -35.37810455 15.77928000 14.64275640
v -34.81818118 16.95907932 3.97057284
v -34.81655467 16.95907932 3.44629398
v -35.37484864 15.77928000 3.44629398
v -30.87431708 23.38105040 3.44629398
v -32.43363311 21.18643547 28.21179342
v -33.04889533 20.19341161 37.90650463
v -33.73414941 19.04162840 14.64275640
v -31.07289267 23.11956388 3.44629398
v -31.88022155 21.98957097 3.44629398
v -32.25296067 21.44480908 3.44629398
v -32.43200660 21.18332257 3.97057284
v -32.43200660 21.18643547 14.64275640
v -34.17687750 18.23226710 14.64275640
v -34.17524810 18.23226710 3.97057284
v -34.38033550 17.82447427 3.44629398
v -32.67615621 20.79420715 14.64275640
v -33.04726882 20.19341161 14.64275640
v -33.32071869 19.73581094 14.64275640
v -33.73414941 19.03851549 3.97057284
v -32.43037721 21.18020967 3.44629398
v -32.62895569 20.86269095 3.44629398
v -33.04726882 20.19029871 3.97057284
v -34.03201424 18.49375361 3.44629398
v -34.17362159 18.22915420 3.44629398
v -33.26863286 19.81986069 3.44629398
v -33.73252001 19.03540259 3.44629398
v -33.04401291 20.19029871 3.44629398
f 1 2 7
f 1 7 14
f 1 14 25
f 1 25 50
f 1 50 49
f 1 49 75
f 1 75 105
f 1 105 124
f 1 124 87
f 1 87 86
f 1 86 55
f 1 55 31
f 1 31 18
f 1 18 9
f 1 9 3
f 1 3 8
f 1 8 4
f 1 4 10
f 1 10 19
f 1 19 32
f 1 32 61
f 1 61 93
f 1 93 122
f 1 122 154
f 1 154 180
f 1 180 200
f 1 200 221
f 1 221 220
f 1 220 242
f 1 242 260
f 1 260 276
f 1 276 275
f 1 275 288
f 1 288 297
f 1 297 296
f 1 296 299
f 1 299 298
f 1 298 300
f 1 300 294
f 1 294 293
f 1 293 283
f 1 283 282
f 1 282 281
f 1 281 277
f 1 277 263
f 1 263 262
f 1 262 261
f 1 261 243
f 1 243 222
f 1 222 203
f 1 203 182
f 1 182 160
f 1 160 129
f 1 129 94
f 1 94 63
f 1 63 62
f 1 62 33
f 1 33 20
f 1 20 11
f 1 11 5
f 1 5 2
f 2 5 6
f 2 6 7
f 3 9 8
f 4 8 10
f 5 11 22
f 5 22 12
f 5 12 6
f 6 13 14
f 6 14 7
f 6 12 13
f 8 15 10
f 8 9 16
f 8 16 17
f 8 17 15
f 9 18 27
f 9 27 16
f 10 15 19
f 11 20 21
f 11 21 22
f 12 22 23
f 12 23 24
f 12 24 13
f 13 24 14
f 14 24 25
f 15 26 32
f 15 32 19
f 15 17 26
f 16 27 30
f 16 30 17
f 17 28 29
f 17 29 26
f 17 30 57
f 17 57 28
f 18 31 27
f 20 33 21
f 21 33 34
f 21 34 35
f 21 35 36
f 21 36 37
f 21 37 22
f 22 37 38
f 22 38 39
f 22 39 40
f 22 40 41
f 22 41 42
f 22 42 43
f 22 43 44
f 22 44 45
f 22 45 46
f 22 46 47
f 22 47 48
f 22 48 23
f 23 49 50
f 23 50 24
f 23 48 51
f 23 51 52
f 23 52 49
f 24 50 25
f 26 29 53
f 26 53 54
f 26 54 61
f 26 61 32
f 27 31 55
f 27 55 56
f 27 56 30
f 28 53 29
f 28 57 89
f 28 89 58
f 28 58 53
f 30 56 59
f 30 59 60
f 30 60 57
f 33 62 34
f 34 62 63
f 34 63 64
f 34 64 38
f 34 38 65
f 34 65 35
f 35 65 38
f 35 38 36
f 36 38 37
f 38 66 39
f 38 64 66
f 39 66 40
f 40 66 67
f 40 67 41
f 41 67 68
f 41 68 42
f 42 68 43
f 43 68 44
f 44 68 69
f 44 69 70
f 44 70 45
f 45 70 71
f 45 71 46
f 46 71 72
f 46 72 47
f 47 72 48
f 48 72 51
f 49 52 73
f 49 73 74
f 49 74 75
f 51 72 76
f 51 76 77
f 51 77 78
f 51 78 79
f 51 79 52
f 52 79 80
f 52 80 81
f 52 81 82
f 52 82 73
f 53 58 83
f 53 83 54
f 54 84 93
f 54 93 61
f 54 83 85
f 54 85 84
f 55 86 56
f 56 86 87
f 56 87 88
f 56 88 90
f 56 90 59
f 57 60 89
f 58 89 85
f 58 85 83
f 59 90 60
f 60 90 91
f 60 91 127
f 60 127 92
f 60 92 89
f 63 94 95
f 63 95 64
f 64 95 96
f 64 96 66
f 66 96 97
f 66 97 98
f 66 98 67
f 67 98 68
f 68 99 69
f 68 98 99
f 69 99 70
f 70 100 71
f 70 99 101
f 70 101 102
f 70 102 100
f 71 100 72
f 72 100 76
f 73 82 74
f 74 103 104
f 74 104 105
f 74 105 75
f 74 82 103
f 76 106 77
f 76 100 107
f 76 107 106
f 77 106 108
f 77 108 109
f 77 109 110
f 77 110 78
f 78 110 79
f 79 110 80
f 80 110 111
f 80 111 112
f 80 112 113
f 80 113 114
f 80 114 115
f 80 115 81
f 81 115 116
f 81 116 117
f 81 117 118
f 81 118 82
f 82 118 117
f 82 117 103
f 84 119 120
f 84 120 121
f 84 121 122
f 84 122 93
f 84 85 123
f 84 123 151
f 84 151 119
f 85 89 123
f 87 124 88
f 88 124 104
f 88 104 125
f 88 125 90
f 89 92 126
f 89 126 123
f 90 125 91
f 91 125 128
f 91 128 127
f 92 127 126
f 94 129 95
f 95 129 130
f 95 130 131
f 95 131 96
f 96 132 133
f 96 133 97
f 96 131 132
f 97 133 134
f 97 134 98
f 98 134 99
f 99 135 101
f 99 134 136
f 99 136 135
f 100 102 107
f 101 135 102
f 102 135 137
f 102 137 138
f 102 138 107
f 103 117 125
f 103 125 104
f 104 124 105
f 106 107 139
f 106 139 108
f 107 138 139
f 108 139 140
f 108 140 141
f 108 141 109
f 109 142 110
f 109 141 143
f 109 143 142
f 110 142 144
f 110 144 111
f 111 144 145
f 111 145 112
f 112 145 113
f 113 145 146
f 113 146 147
f 113 147 114
f 114 147 116
f 114 116 115
f 116 147 128
f 116 128 148
f 116 148 117
f 117 148 125
f 119 149 150
f 119 150 120
f 119 151 178
f 119 178 149
f 120 150 152
f 120 152 121
f 121 152 153
f 121 153 154
f 121 154 122
f 123 126 151
f 125 148 128
f 126 127 155
f 126 155 156
f 126 156 157
f 126 157 151
f 127 128 158
f 127 158 159
f 127 159 155
f 128 147 158
f 129 160 130
f 130 160 161
f 130 161 131
f 131 161 132
f 132 162 133
f 132 161 183
f 132 183 162
f 133 162 163
f 133 163 134
f 134 163 136
f 135 164 137
f 135 136 165
f 135 165 166
f 135 166 164
f 136 163 165
f 137 164 138
f 138 164 167
f 138 167 168
f 138 168 140
f 138 140 139
f 140 169 143
f 140 143 141
f 140 168 170
f 140 170 171
f 140 171 169
f 142 143 144
f 143 169 172
f 143 172 144
f 144 172 173
f 144 173 145
f 145 173 174
f 145 174 175
f 145 175 159
f 145 159 176
f 145 176 146
f 146 176 159
f 146 159 158
f 146 158 147
f 149 177 150
f 149 178 201
f 149 201 177
f 150 177 152
f 151 157 179
f 151 179 178
f 152 177 153
f 153 177 200
f 153 200 180
f 153 180 154
f 155 159 175
f 155 175 156
f 156 181 157
f 156 175 181
f 157 181 179
f 160 182 183
f 160 183 161
f 162 184 185
f 162 185 163
f 162 183 204
f 162 204 184
f 163 185 165
f 164 186 167
f 164 166 187
f 164 187 186
f 165 185 188
f 165 188 166
f 166 188 187
f 167 186 168
f 168 186 170
f 169 171 189
f 169 189 190
f 169 190 191
f 169 191 172
f 170 186 189
f 170 189 171
f 172 191 192
f 172 192 193
f 172 193 194
f 172 194 195
f 172 195 173
f 173 195 194
f 173 194 174
f 174 194 175
f 175 194 193
f 175 193 196
f 175 196 197
f 175 197 181
f 177 198 199
f 177 199 200
f 177 201 218
f 177 218 198
f 178 179 202
f 178 202 201
f 179 181 202
f 181 197 202
f 182 203 183
f 183 203 204
f 184 205 188
f 184 188 185
f 184 204 223
f 184 223 205
f 186 206 189
f 186 187 207
f 186 207 208
f 186 208 206
f 187 188 209
f 187 209 210
f 187 210 207
f 188 205 224
f 188 224 209
f 189 206 211
f 189 211 190
f 190 211 191
f 191 211 192
f 192 211 193
f 193 211 212
f 193 212 213
f 193 213 214
f 193 214 215
f 193 215 196
f 196 215 216
f 196 216 202
f 196 202 197
f 198 217 199
f 198 218 238
f 198 238 217
f 199 219 220
f 199 220 221
f 199 221 200
f 199 217 219
f 201 202 216
f 201 216 218
f 203 222 204
f 204 222 223
f 205 223 225
f 205 225 224
f 206 226 227
f 206 227 228
f 206 228 229
f 206 229 211
f 206 208 226
f 207 210 208
f 208 210 230
f 208 230 227
f 208 227 226
f 209 224 231
f 209 231 210
f 210 231 232
f 210 232 230
f 211 229 233
f 211 233 212
f 212 233 234
f 212 234 235
f 212 235 213
f 213 235 214
f 214 235 236
f 214 236 237
f 214 237 215
f 215 237 216
f 216 237 240
f 216 240 218
f 217 238 239
f 217 239 219
f 218 240 238
f 219 241 242
f 219 242 220
f 219 239 241
f 222 243 223
f 223 243 244
f 223 244 225
f 224 225 245
f 224 245 250
f 224 250 231
f 225 244 245
f 227 230 246
f 227 246 247
f 227 247 248
f 227 248 249
f 227 249 229
f 227 229 228
f 229 249 233
f 230 232 246
f 231 250 252
f 231 252 232
f 232 251 246
f 232 252 268
f 232 268 251
f 233 249 253
f 233 253 234
f 234 253 254
f 234 254 255
f 234 255 235
f 235 255 256
f 235 256 257
f 235 257 236
f 236 257 240
f 236 240 237
f 238 240 257
f 238 257 239
f 239 257 258
f 239 258 241
f 241 259 260
f 241 260 242
f 241 258 259
f 243 261 244
f 244 261 262
f 244 262 263
f 244 263 264
f 244 264 250
f 244 250 245
f 246 251 265
f 246 265 247
f 247 265 248
f 248 265 266
f 248 266 267
f 248 267 249
f 249 267 254
f 249 254 253
f 250 264 270
f 250 270 252
f 251 268 269
f 251 269 265
f 252 270 268
f 254 267 280
f 254 280 271
f 254 271 272
f 254 272 255
f 255 272 273
f 255 273 256
f 256 273 258
f 256 258 257
f 258 273 259
f 259 274 275
f 259 275 276
f 259 276 260
f 259 273 272
f 259 272 274
f 263 277 264
f 264 277 270
f 265 269 278
f 265 278 279
f 265 279 266
f 266 279 280
f 266 280 267
f 268 270 281
f 268 281 282
f 268 282 283
f 268 283 284
f 268 284 269
f 269 284 285
f 269 285 278
f 270 277 281
f 271 280 286
f 271 286 272
f 272 286 274
f 274 287 288
f 274 288 275
f 274 286 287
f 278 285 289
f 278 289 279
f 279 289 290
f 279 290 291
f 279 291 280
f 280 291 292
f 280 292 287
f 280 287 286
f 283 293 284
f 284 293 294
f 284 294 295
f 284 295 289
f 284 289 285
f 287 292 296
f 287 296 297
f 287 297 288
f 289 295 290
f 290 295 298
f 290 298 291
f 291 298 292
f 292 298 299
f 292 299 296
f 294 300 295
f 295 300 298

