# https://github.com/mikedh/trimesh
v 24.36687053 26.63298394 94.02425029
v 23.41255786 28.28884755 93.96192295
v 21.80931454 28.27473188 94.18006575
v 24.36687053 25.15075516 94.00866701
v 24.36687053 27.85123877 93.81390201
v 21.69479737 29.84307316 93.87622357
v 20.19414253 29.88965544 94.17227123
v 22.86621569 29.27276671 93.74378014
v 16.96379562 31.50599460 94.19564326
v 13.73106528 33.11950833 94.21122654
v 8.88793196 34.73584461 94.22680982
v -0.00386982 35.03229094 94.05541107
v 24.36687053 24.33200027 92.82447640
v 24.36687053 28.64458199 93.23738421
v 23.94458791 28.83656777 93.42436624
v 18.59566896 31.57375327 93.99308373
v 21.07926648 30.75076310 93.66587530
v 20.19414253 31.02603305 93.81390201
v 15.38918232 33.21832377 94.00087826
v 10.50310469 34.73584461 94.14889919
v 5.65520018 36.19548716 93.99308373
v 2.42485471 36.35077105 94.08657185
v 0.80968198 36.35077105 94.11773841
v -0.00386982 36.35077105 94.11773841
v -0.00386982 35.68588444 94.08657185
v -0.00386982 34.74572500 93.43994374
v -0.00386982 34.46480705 92.82447640
v 24.36687053 24.33058755 92.79331562
v 24.36687053 29.19230221 92.65308344
v 24.36687053 29.40969677 92.41156860
v 23.36722941 29.84166044 92.81668765
v 22.15763869 30.34985333 93.28412827
v 18.06841154 32.47015011 93.73599139
v 16.96379562 32.75530333 93.88401810
v 21.69479737 31.10932010 92.77773234
v 20.32297471 31.90690149 92.91017578
v 19.14439888 32.15817538 93.50227108
v 14.87623846 34.06672272 93.73599139
v 13.73106528 34.28835255 93.86064607
v 11.98228846 34.77960433 93.92296764
v 10.50310469 35.66753350 93.72820264
v 8.88793196 35.86516150 93.85285154
v 7.27275922 36.04161888 93.93855092
v 4.43845268 37.10176727 93.58797045
v 3.36008046 37.17093577 93.64250327
v 3.95652516 36.47923055 93.95413420
v 2.42485471 37.20058272 93.66587530
v 0.80968198 37.23163950 93.69703608
v -0.00386982 37.23163950 93.69703608
v -0.00386982 34.43657572 92.01424407
v -0.00386982 34.40975422 91.21180049
v 24.36687053 24.31082388 91.21180049
v 22.79225723 30.82699233 92.20900907
v 24.36687053 29.91083183 91.21180049
v 15.95461213 33.82250666 93.54901514
v 19.86967576 32.60566744 92.42715188
v 18.50978180 33.07574572 92.80889890
v 16.96379562 33.56276511 93.22959546
v 12.42604359 35.34708822 93.43994374
v 11.35244256 35.55601222 93.64250327
v 7.27275922 36.84908066 93.29971155
v 5.65520018 37.00295183 93.48668780
v 5.65520018 37.58596122 92.68424422
v 3.95652516 37.59019650 92.95691984
v 2.42485471 37.79912050 92.82447640
v 0.80968198 37.86405661 92.82447640
v -0.00386982 37.86405661 92.82447640
v -0.00386982 34.40975422 14.63684550
v 24.36687053 24.31082388 14.63684550
v 23.80859822 30.36538172 91.21180049
v 22.99981906 30.98227333 91.21180049
v 20.94566166 32.27675449 91.86621736
v 24.36687053 30.10422744 89.59133005
v 23.93027290 30.46137460 89.59133005
v 16.96379562 34.20788805 92.42715188
v 14.58040171 35.56165733 92.04540486
v 13.73106528 35.72117361 92.30250297
v 13.73106528 35.09581433 93.10494655
v 17.87516327 33.98343566 92.10773220
v 11.98228846 35.92303977 92.87122047
v 9.74919852 37.17376122 92.04540486
v 8.88793196 37.27681194 92.21680360
v 8.88793196 36.67262616 93.02703593
v 7.27275922 37.44903116 92.49726797
v 5.65520018 38.16332550 91.21180049
v 4.04002744 38.36801422 91.21180049
v 2.42485471 38.50635700 91.21180049
v 0.80968198 38.57411566 91.21180049
v -0.00386982 38.57411566 91.21180049
v -0.00386982 38.72939666 14.63684550
v 24.36687053 30.10846272 14.63684550
v 21.72104107 31.87302216 91.28191659
v 23.12388005 31.07544077 89.59133005
v 21.12221006 32.39250816 90.78330941
v 20.32297471 32.78071211 91.28191659
v 18.88673452 33.64605216 91.21180049
v 24.36687053 30.10846272 87.97865414
v 23.93265922 30.46419716 87.97865414
v 16.96379562 34.65255755 91.21180049
v 15.59197297 35.29485794 91.21180049
v 14.78558012 35.64776983 91.21180049
v 13.73106528 36.05714727 91.21180049
v 12.11827814 36.62886355 91.21180049
v 18.07795536 34.09354422 91.21180049
v 10.85381444 37.02836061 91.21180049
v 10.04742087 37.25704827 91.21180049
v 8.88793196 37.54502405 91.21180049
v 7.27275922 37.88946539 91.21180049
v 7.27275922 38.04474639 89.59133005
v 5.65520018 38.31719377 89.59133005
v 4.04002744 38.52329522 89.59133005
v 2.42485471 38.65881255 89.59133005
v 0.80968198 38.72657411 89.59133005
v -0.00386982 38.65034489 90.40935691
v -0.00386982 38.72939666 87.97865414
v 0.80968198 38.73080650 14.63684550
v 23.93265922 30.46419716 14.63684550
v 23.12626637 31.07685349 87.97865414
v 21.99540675 31.88431527 87.97865414
v 21.99302044 31.88149272 89.59133005
v 21.18662615 32.43344533 89.59133005
v 20.19414253 33.04751438 89.59133005
v 19.03942553 33.73498722 89.59133005
v 16.96379562 34.81913166 89.59133005
v 15.77806373 35.37814500 89.59133005
v 14.96928457 35.72682161 89.59133005
v 13.73106528 36.21666355 89.59133005
v 12.11827814 36.78979255 89.59133005
v 11.12817940 37.10741239 89.59133005
v 18.23303124 34.17683127 89.59133005
v 10.32178511 37.33327750 89.59133005
v 8.88793196 37.69889522 89.59133005
v 8.88793196 37.70312761 87.97865414
v 7.27275922 38.04756894 87.97865414
v 5.65520018 38.32142905 87.97865414
v 4.04002744 38.52612066 87.97865414
v 2.42485471 38.66304783 87.97865414
v -0.00386982 38.72657411 89.59133005
v 0.80968198 38.73080650 87.97865414
v -0.00386982 38.72798394 88.78888647
v 2.42485471 38.66304783 37.89992493
v 2.42485471 38.66163800 14.63684550
v 23.12626637 31.07685349 14.63684550
v 21.18901246 32.43485805 87.97865414
v 21.99540675 31.88431527 79.89967974
v 20.19414253 33.05174966 87.97865414
v 19.04181040 33.73639705 87.97865414
v 16.96379562 34.82195422 87.97865414
v 15.78045005 35.37955483 87.97865414
v 14.97166944 35.72682161 87.97865414
v 13.73106528 36.21807338 87.97865414
v 12.11827814 36.79261511 87.97865414
v 11.13533618 37.10882511 87.97865414
v 10.32655702 37.33610005 87.97865414
v 18.23541611 34.17824399 87.97865414
v 8.88793196 37.70312761 14.63684550
v 7.27275922 38.04756894 14.63684550
v 5.65520018 38.32142905 20.12930166
v 4.04002744 38.52612066 14.63684550
v 3.06662930 38.60799500 14.63684550
v 21.99302044 31.88431527 14.63684550
v 21.18901246 32.43485805 86.36597245
v 20.19414253 33.05174966 83.13282609
v 19.04181040 33.73639705 14.63684550
v 16.96379562 34.82195422 14.63684550
v 15.78045005 35.37955483 14.63684550
v 15.45836960 35.51789761 14.63684550
v 14.97166944 35.72682161 14.63684550
v 14.22492150 36.02326794 14.63684550
v 13.73106528 36.21807338 14.63684550
v 12.11827814 36.79261511 68.58755899
v 11.13533618 37.10882511 86.36597245
v 10.32655702 37.33610005 76.66653339
v 18.23541611 34.17824399 20.12930166
v 9.45574736 37.55772989 14.63684550
v 6.29697549 38.21273322 14.63684550
v 5.65520018 38.32001922 14.63684550
v 4.68180203 38.44424344 14.63684550
v 21.18424127 32.43344533 14.63684550
v 20.58779513 32.80471105 14.63684550
v 20.19414253 33.04892422 14.63684550
v 18.72211626 33.91144172 14.63684550
v 18.23303124 34.17824399 14.63684550
v 12.75766642 36.56392744 14.63684550
v 11.13295059 37.10882511 60.50858459
v 12.11827814 36.79120527 23.36244657
v 10.32178511 37.33610005 23.36244657
v 10.31939952 37.33610005 14.63684550
v 12.11827814 36.78979255 14.63684550
v 11.52183273 36.98177544 14.63684550
v 11.12817940 37.10741239 14.63684550
f 1 2 3
f 1 3 4
f 1 4 13
f 1 13 28
f 1 28 52
f 1 52 69
f 1 69 91
f 1 91 97
f 1 97 73
f 1 73 54
f 1 54 30
f 1 30 29
f 1 29 14
f 1 14 5
f 1 5 2
f 2 6 7
f 2 7 3
f 2 5 8
f 2 8 6
f 3 7 9
f 3 9 10
f 3 10 11
f 3 11 12
f 3 12 4
f 4 12 13
f 5 14 15
f 5 15 8
f 6 16 7
f 6 8 17
f 6 17 18
f 6 18 16
f 7 16 9
f 8 15 17
f 9 16 19
f 9 19 10
f 10 19 20
f 10 20 11
f 11 20 21
f 11 21 22
f 11 22 23
f 11 23 24
f 11 24 25
f 11 25 12
f 12 25 24
f 12 24 49
f 12 49 67
f 12 67 89
f 12 89 114
f 12 114 138
f 12 138 140
f 12 140 115
f 12 115 90
f 12 90 68
f 12 68 51
f 12 51 50
f 12 50 27
f 12 27 26
f 12 26 13
f 13 26 27
f 13 27 28
f 14 29 15
f 15 29 30
f 15 30 31
f 15 31 32
f 15 32 17
f 16 18 33
f 16 33 34
f 16 34 19
f 17 33 18
f 17 32 35
f 17 35 36
f 17 36 37
f 17 37 33
f 19 34 38
f 19 38 39
f 19 39 20
f 20 39 40
f 20 40 41
f 20 41 42
f 20 42 43
f 20 43 21
f 21 43 44
f 21 44 45
f 21 45 46
f 21 46 22
f 22 46 45
f 22 45 47
f 22 47 48
f 22 48 23
f 23 48 49
f 23 49 24
f 27 50 28
f 28 50 51
f 28 51 52
f 30 53 31
f 30 54 53
f 31 53 32
f 32 53 35
f 33 38 34
f 33 37 55
f 33 55 38
f 35 53 56
f 35 56 36
f 36 56 37
f 37 56 57
f 37 57 58
f 37 58 55
f 38 55 59
f 38 59 60
f 38 60 39
f 39 60 40
f 40 60 41
f 41 60 61
f 41 61 62
f 41 62 42
f 42 62 44
f 42 44 43
f 44 62 63
f 44 63 64
f 44 64 45
f 45 64 65
f 45 65 47
f 47 65 66
f 47 66 48
f 48 66 67
f 48 67 49
f 51 68 69
f 51 69 52
f 53 54 70
f 53 70 71
f 53 71 72
f 53 72 56
f 54 73 74
f 54 74 70
f 55 58 75
f 55 75 76
f 55 76 77
f 55 77 78
f 55 78 59
f 56 72 79
f 56 79 57
f 57 79 58
f 58 79 75
f 59 78 77
f 59 77 80
f 59 80 60
f 60 80 81
f 60 81 82
f 60 82 83
f 60 83 61
f 61 83 84
f 61 84 62
f 62 84 63
f 63 65 64
f 63 84 85
f 63 85 86
f 63 86 87
f 63 87 65
f 65 87 88
f 65 88 66
f 66 88 89
f 66 89 67
f 68 90 116
f 68 116 142
f 68 142 160
f 68 160 159
f 68 159 178
f 68 178 177
f 68 177 176
f 68 176 157
f 68 157 156
f 68 156 175
f 68 175 188
f 68 188 191
f 68 191 190
f 68 190 189
f 68 189 184
f 68 184 170
f 68 170 169
f 68 169 168
f 68 168 167
f 68 167 166
f 68 166 165
f 68 165 183
f 68 183 182
f 68 182 164
f 68 164 181
f 68 181 180
f 68 180 179
f 68 179 161
f 68 161 143
f 68 143 117
f 68 117 91
f 68 91 69
f 70 74 71
f 71 92 72
f 71 74 93
f 71 93 94
f 71 94 92
f 72 92 94
f 72 94 95
f 72 95 96
f 72 96 79
f 73 97 98
f 73 98 74
f 74 98 93
f 75 79 76
f 76 79 99
f 76 99 100
f 76 100 101
f 76 101 102
f 76 102 103
f 76 103 81
f 76 81 77
f 77 81 80
f 79 96 104
f 79 104 99
f 81 103 105
f 81 105 106
f 81 106 107
f 81 107 108
f 81 108 82
f 82 108 85
f 82 85 84
f 82 84 83
f 85 109 110
f 85 110 111
f 85 111 86
f 85 108 109
f 86 111 87
f 87 111 112
f 87 112 113
f 87 113 88
f 88 113 114
f 88 114 89
f 90 115 139
f 90 139 116
f 91 117 98
f 91 98 97
f 93 98 118
f 93 118 119
f 93 119 120
f 93 120 94
f 94 120 121
f 94 121 122
f 94 122 123
f 94 123 96
f 94 96 95
f 96 123 104
f 98 117 143
f 98 143 118
f 99 104 124
f 99 124 125
f 99 125 100
f 100 125 101
f 101 125 126
f 101 126 127
f 101 127 102
f 102 127 128
f 102 128 103
f 103 128 129
f 103 129 105
f 104 123 130
f 104 130 124
f 105 129 106
f 106 129 131
f 106 131 132
f 106 132 107
f 107 132 109
f 107 109 108
f 109 132 133
f 109 133 134
f 109 134 135
f 109 135 110
f 110 135 111
f 111 135 136
f 111 136 137
f 111 137 112
f 112 137 139
f 112 139 113
f 113 138 114
f 113 139 138
f 115 140 139
f 116 141 142
f 116 139 137
f 116 137 141
f 118 143 145
f 118 145 119
f 119 144 121
f 119 121 120
f 119 145 162
f 119 162 144
f 121 144 146
f 121 146 122
f 122 146 123
f 123 146 147
f 123 147 155
f 123 155 130
f 124 130 148
f 124 148 125
f 125 148 149
f 125 149 126
f 126 149 150
f 126 150 151
f 126 151 127
f 127 151 152
f 127 152 128
f 128 152 153
f 128 153 129
f 129 153 154
f 129 154 131
f 130 155 148
f 131 154 133
f 131 133 132
f 133 154 173
f 133 173 156
f 133 156 157
f 133 157 134
f 134 157 158
f 134 158 135
f 135 158 159
f 135 159 136
f 136 159 141
f 136 141 137
f 138 139 140
f 141 159 160
f 141 160 142
f 143 161 145
f 144 162 163
f 144 163 146
f 145 161 162
f 146 163 164
f 146 164 147
f 147 164 174
f 147 174 155
f 148 155 174
f 148 174 165
f 148 165 166
f 148 166 149
f 149 166 167
f 149 167 150
f 150 167 168
f 150 168 169
f 150 169 151
f 151 169 170
f 151 170 171
f 151 171 152
f 152 171 172
f 152 172 153
f 153 172 173
f 153 173 154
f 156 173 175
f 157 176 158
f 158 176 177
f 158 177 178
f 158 178 159
f 161 179 162
f 162 179 180
f 162 180 181
f 162 181 163
f 163 181 164
f 164 182 174
f 165 174 183
f 170 184 171
f 171 185 172
f 171 184 186
f 171 186 185
f 172 185 187
f 172 187 173
f 173 187 175
f 174 182 183
f 175 187 188
f 184 189 186
f 185 186 190
f 185 190 191
f 185 191 187
f 186 189 190
f 187 191 188

