# https://github.com/mikedh/trimesh
v -22.92952241 -21.82217638 3.44738314
v -21.89240803 -21.89666353 3.44738314
v -32.00035784 -21.82217638 3.44738314
v -26.59232122 -21.82217638 14.63572168
v 0.00606257 -31.54210714 3.44738314
v -31.88129337 -21.99432627 3.44738314
v -31.88129337 -21.99598167 3.96879032
v -32.00349241 -21.82217638 13.66191691
v -32.00349241 -21.82217638 14.63572168
v 0.00606257 -34.40908975 14.63572168
v 0.00606257 -38.72777304 3.44738314
v -31.62123114 -22.36014911 3.44738314
v -31.07604168 -23.12489843 5.58449391
v -31.56170035 -22.44456865 14.63572168
v -31.88129337 -21.99598167 14.63572168
v 0.00606257 -38.72942844 14.63572168
v 0.00606257 -38.72942844 3.96879032
v -0.80858849 -38.72777304 3.44738314
v -31.07291000 -23.12324303 3.44738314
v -31.07604168 -23.12324303 3.96879032
v -31.07604168 -23.12489843 14.63572168
v -30.45878606 -23.93268522 3.96879032
v -0.80858849 -38.72942844 14.63572168
v -0.80858849 -38.72942844 3.96879032
v -1.33184608 -38.70625575 3.44738314
v -30.45878606 -23.93102982 3.44738314
v -30.45878606 -23.93268522 14.63572168
v -30.13919015 -24.32333615 14.63572168
v -29.65039980 -24.91758954 3.96879032
v -1.45091055 -38.70294496 14.63572168
v -2.42535956 -38.66156288 3.96879032
v -2.42535956 -38.65990460 3.44738314
v -29.65039980 -24.91593414 3.44738314
v -29.65039980 -24.91758954 14.63572168
v -29.23994187 -25.40590320 14.63572168
v -29.18980901 -25.46383926 3.44738314
v -28.97047882 -25.72537777 5.58449391
v -2.42535956 -38.66156288 14.63572168
v -4.04212991 -38.52582599 3.96879032
v -4.04212991 -38.52251519 3.44738314
v -28.97047882 -25.72537777 14.63572168
v -28.96734714 -25.72372237 3.44738314
v -28.96734714 -25.72537777 3.96879032
v -28.16209545 -26.59110206 3.96879032
v -4.04212991 -38.52582599 14.63572168
v -4.68131885 -38.44471724 14.63572168
v -5.65576786 -38.32056813 3.96879032
v -5.65576786 -38.31891562 3.44738314
v -4.56225438 -38.45796043 3.44738314
v -28.16209545 -26.59110206 14.63572168
v -28.70728490 -26.00346738 3.44738314
v -28.15896088 -26.58944378 3.44738314
v -27.39757580 -27.39888741 3.96879032
v -5.65576786 -38.32056813 14.63572168
v -6.29808920 -38.21297590 14.63572168
v -7.27253822 -38.04744471 3.96879032
v -6.17902473 -38.23118239 3.44738314
v -27.39757580 -27.39888741 14.63572168
v -27.39444124 -27.39723201 3.44738314
v -27.13437900 -27.64387194 3.44738314
v -26.58918955 -28.16363818 3.96879032
v -7.27253822 -38.04744471 14.63572168
v -7.27253822 -38.04578932 3.44738314
v -8.88617617 -37.70148665 3.96879032
v -26.58918955 -28.16363818 14.63572168
v -26.58605787 -28.16198278 3.44738314
v -25.72440418 -28.97142352 3.96879032
v -8.88617617 -37.70148665 14.63572168
v -8.88617617 -37.69983126 3.44738314
v -9.45643277 -37.55582025 14.63572168
v -10.32435054 -37.33400841 3.96879032
v -10.32121670 -37.33400841 3.44738314
v -25.72440418 -28.97142352 14.63572168
v -25.72127250 -28.96976812 3.44738314
v -25.46121026 -29.18992457 3.44738314
v -24.91601792 -29.65341014 3.96879032
v -10.32435054 -37.33400841 14.63572168
v -11.13273536 -37.10888867 3.96879032
v -11.12646911 -37.10723327 3.44738314
v -24.91601792 -29.65341014 14.63572168
v -24.91288624 -29.65175474 3.44738314
v -23.92903785 -30.45788469 3.44738314
v -23.92903785 -30.45954009 3.96879032
v -24.32069849 -30.14006840 14.63572168
v -11.13273536 -37.10888867 14.63572168
v -12.11971831 -36.79106949 3.96879032
v -11.45232982 -37.00294894 3.44738314
v -23.12065304 -31.07365826 3.44738314
v -23.12065304 -31.07531365 3.96879032
v -23.60944339 -30.70452462 14.63572168
v -23.92903785 -30.45954009 14.63572168
v -12.11971831 -36.79106949 14.63572168
v -12.11971831 -36.78776158 3.44738314
v -12.75890580 -36.56429434 14.63572168
v -13.73335482 -36.21833628 3.96879032
v -13.73335482 -36.21668089 3.44738314
v -12.63984134 -36.60402102 3.44738314
v -21.99267231 -31.88144649 3.44738314
v -21.99580544 -31.88310189 3.96879032
v -23.12065304 -31.07531365 14.63572168
v -13.73335482 -36.21833628 14.63572168
v -14.22527973 -36.02466622 14.63572168
v -14.97413232 -35.72836722 3.96879032
v -14.13128170 -36.05942670 3.44738314
v -21.73261008 -32.06021797 3.44738314
v -21.99580544 -31.88310189 14.63572168
v -21.18742062 -32.43431492 3.96879032
v -14.97413232 -35.72836722 14.63572168
v -14.97099919 -35.72671182 3.44738314
v -15.78251858 -35.37744297 3.96879032
v -15.77938545 -35.37744297 3.44738314
v -15.51932322 -35.49000429 3.44738314
v -21.18428750 -32.43265952 3.44738314
v -21.18742062 -32.43431492 14.63572168
v -20.19417142 -33.04677769 3.44738314
v -20.19417142 -33.04843309 3.96879032
v -20.58896518 -32.80510395 14.63572168
v -15.78251858 -35.37744297 14.63572168
v -16.24937706 -35.15728653 14.63572168
v -16.96376384 -34.81960546 3.96879032
v -16.96376384 -34.81795006 3.44738314
v -19.04112571 -33.73372761 3.44738314
v -20.19417142 -33.04843309 14.63572168
v -19.04112571 -33.73538301 3.96879032
v -16.96376384 -34.81960546 14.63572168
v -17.46822125 -34.56468854 14.63572168
v -18.23274089 -34.17734840 3.96879032
v -18.23274089 -34.17569301 3.44738314
v -19.04112571 -33.73538301 14.63572168
v -18.72153124 -33.91084658 14.63572168
v -18.23274089 -34.17734840 14.63572168
f 1 2 5
f 1 5 11
f 1 11 18
f 1 18 25
f 1 25 32
f 1 32 40
f 1 40 49
f 1 49 48
f 1 48 57
f 1 57 63
f 1 63 69
f 1 69 72
f 1 72 79
f 1 79 87
f 1 87 93
f 1 93 97
f 1 97 96
f 1 96 104
f 1 104 109
f 1 109 112
f 1 112 111
f 1 111 121
f 1 121 128
f 1 128 122
f 1 122 115
f 1 115 113
f 1 113 105
f 1 105 98
f 1 98 88
f 1 88 82
f 1 82 81
f 1 81 75
f 1 75 74
f 1 74 66
f 1 66 60
f 1 60 59
f 1 59 52
f 1 52 51
f 1 51 42
f 1 42 36
f 1 36 33
f 1 33 26
f 1 26 19
f 1 19 12
f 1 12 6
f 1 6 3
f 1 3 8
f 1 8 9
f 1 9 4
f 1 4 2
f 2 4 5
f 3 6 7
f 3 7 8
f 4 9 15
f 4 15 14
f 4 14 21
f 4 21 27
f 4 27 28
f 4 28 34
f 4 34 35
f 4 35 41
f 4 41 50
f 4 50 58
f 4 58 65
f 4 65 73
f 4 73 80
f 4 80 84
f 4 84 91
f 4 91 90
f 4 90 100
f 4 100 106
f 4 106 114
f 4 114 117
f 4 117 123
f 4 123 129
f 4 129 130
f 4 130 131
f 4 131 126
f 4 126 125
f 4 125 119
f 4 119 118
f 4 118 108
f 4 108 102
f 4 102 101
f 4 101 94
f 4 94 92
f 4 92 85
f 4 85 77
f 4 77 70
f 4 70 68
f 4 68 62
f 4 62 55
f 4 55 54
f 4 54 46
f 4 46 45
f 4 45 38
f 4 38 30
f 4 30 23
f 4 23 16
f 4 16 10
f 4 10 5
f 5 10 16
f 5 16 17
f 5 17 11
f 6 12 7
f 7 12 13
f 7 13 14
f 7 14 15
f 7 15 9
f 7 9 8
f 11 17 24
f 11 24 18
f 12 19 20
f 12 20 13
f 13 21 14
f 13 20 22
f 13 22 27
f 13 27 21
f 16 23 24
f 16 24 17
f 18 24 25
f 19 26 20
f 20 26 22
f 22 28 27
f 22 26 33
f 22 33 29
f 22 29 28
f 23 30 24
f 24 30 31
f 24 31 25
f 25 31 32
f 28 29 34
f 29 35 34
f 29 33 36
f 29 36 37
f 29 37 35
f 30 38 31
f 31 38 45
f 31 45 39
f 31 39 32
f 32 39 40
f 35 37 41
f 36 42 43
f 36 43 37
f 37 43 44
f 37 44 50
f 37 50 41
f 39 45 46
f 39 46 47
f 39 47 48
f 39 48 49
f 39 49 40
f 42 51 43
f 43 51 44
f 44 51 52
f 44 52 59
f 44 59 53
f 44 53 58
f 44 58 50
f 46 54 47
f 47 54 55
f 47 55 56
f 47 56 57
f 47 57 48
f 53 59 60
f 53 60 61
f 53 61 65
f 53 65 58
f 55 62 56
f 56 63 57
f 56 62 68
f 56 68 64
f 56 64 69
f 56 69 63
f 60 66 61
f 61 66 74
f 61 74 67
f 61 67 73
f 61 73 65
f 64 68 70
f 64 70 71
f 64 71 72
f 64 72 69
f 67 74 75
f 67 75 76
f 67 76 80
f 67 80 73
f 70 77 71
f 71 77 85
f 71 85 78
f 71 78 72
f 72 78 79
f 75 81 76
f 76 81 82
f 76 82 83
f 76 83 84
f 76 84 80
f 78 85 92
f 78 92 86
f 78 86 87
f 78 87 79
f 82 88 89
f 82 89 83
f 83 89 90
f 83 90 91
f 83 91 84
f 86 93 87
f 86 92 94
f 86 94 95
f 86 95 96
f 86 96 97
f 86 97 93
f 88 98 99
f 88 99 89
f 89 99 106
f 89 106 100
f 89 100 90
f 94 101 95
f 95 101 102
f 95 102 103
f 95 103 96
f 96 103 104
f 98 105 99
f 99 105 107
f 99 107 114
f 99 114 106
f 102 108 103
f 103 109 104
f 103 108 118
f 103 118 110
f 103 110 111
f 103 111 112
f 103 112 109
f 105 113 107
f 107 113 115
f 107 115 116
f 107 116 117
f 107 117 114
f 110 118 119
f 110 119 120
f 110 120 111
f 111 120 121
f 115 122 124
f 115 124 116
f 116 123 117
f 116 124 129
f 116 129 123
f 119 125 120
f 120 125 126
f 120 126 127
f 120 127 128
f 120 128 121
f 122 128 127
f 122 127 124
f 124 130 129
f 124 127 130
f 126 131 127
f 127 131 130

