# https://github.com/mikedh/trimesh
v -38.72961045 -0.80793485 3.96879032
v -38.70332053 -1.45102466 14.63572168
v -38.72961045 -0.80793485 14.63572168
v -38.72961045 0.00607557 3.96879032
v -38.72806483 -0.80793485 3.44738314
v -38.66311139 -2.42527361 3.96879032
v -38.66311139 -2.42527361 14.63572168
v -38.72961045 0.00607557 14.63572168
v -38.72806483 0.00607557 3.44738314
v -38.70641176 -1.33138023 3.44738314
v -38.61671401 -2.94658258 3.44738314
v -38.52392502 -4.04047596 3.44738314
v -38.52547353 -4.04047596 3.96879032
v -38.66001727 -2.42527361 3.44738314
v -38.52547353 -4.04047596 14.63572168
v -34.41022224 0.00607557 14.63572168
v -31.54145711 0.00607557 3.44738314
v -38.31978810 -5.65567867 3.44738314
v -38.44505525 -4.68142935 14.63572168
v -38.32133372 -5.65567867 3.96879032
v -26.59573603 -21.82052098 14.63572168
v -23.06197306 -21.44449418 3.44738314
v -23.49963384 -20.26727763 3.44738314
v -38.04605510 -7.27088137 3.44738314
v -38.04914923 -7.27088137 3.96879032
v -38.32133372 -5.65567867 14.63572168
v -32.00231658 -21.82052098 14.63572168
v -22.93206762 -21.82052098 3.44738314
v -37.93470717 -7.79432603 3.44738314
v -38.04914923 -7.27088137 14.63572168
v -37.69963769 -8.88608300 3.44738314
v -37.70118331 -8.88608300 3.96879032
v -32.00231658 -21.82052098 3.85596610
v -32.43379201 -21.18597757 14.63572168
v -32.00076808 -21.82052098 3.44738314
v -37.70118331 -8.88608300 14.63572168
v -37.58210440 -9.34756938 3.44738314
v -37.33466422 -10.32395547 3.96879032
v -37.55581448 -9.45653172 14.63572168
v -32.43379201 -21.18597757 3.96879032
v -33.04929979 -20.19463655 14.63572168
v -32.43224350 -21.18384115 3.44738314
v -37.33311860 -10.31968192 3.44738314
v -37.19857197 -10.81107959 14.63572168
v -37.33466422 -10.32395547 14.63572168
v -37.18155864 -10.86662933 3.44738314
v -37.10887422 -11.12941951 3.96879032
v -33.04929979 -20.19463655 3.96879032
v -33.46376188 -19.50027056 14.63572168
v -33.04620567 -20.19463655 3.44738314
v -37.10887422 -11.12941951 14.63572168
v -37.10732572 -11.12728309 3.44738314
v -36.78874673 -12.11648769 3.44738314
v -36.79029235 -12.11648769 3.96879032
v -33.73594637 -19.04305701 3.96879032
v -33.51170487 -19.41480953 3.44738314
v -33.73594637 -19.04305701 14.63572168
v -36.79029235 -12.11648769 14.63572168
v -36.21654221 -13.73169075 3.44738314
v -36.21808783 -13.73169075 3.96879032
v -34.17824688 -18.23545656 3.96879032
v -33.73440075 -19.04092059 3.44738314
v -34.17824688 -18.23545656 14.63572168
v -36.21808783 -13.73169075 14.63572168
v -36.05879689 -14.13121814 3.44738314
v -35.72784431 -14.97300272 3.96879032
v -34.82004748 -16.96423186 3.96879032
v -34.81850186 -16.96423186 3.44738314
v -34.17670127 -18.23331869 3.44738314
v -34.82004748 -16.96423186 14.63572168
v -35.72784431 -14.97300272 14.63572168
v -35.72784431 -14.96872988 3.44738314
v -35.49122922 -15.51567730 3.44738314
v -35.37833567 -15.78060461 3.96879032
v -35.51751915 -15.46012755 14.63572168
v -35.37833567 -15.77633178 3.44738314
v -35.37833567 -15.78060461 14.63572168
f 1 2 3
f 1 3 8
f 1 8 4
f 1 4 9
f 1 9 5
f 1 5 6
f 1 6 2
f 2 6 7
f 2 7 15
f 2 15 19
f 2 19 26
f 2 26 30
f 2 30 36
f 2 36 39
f 2 39 45
f 2 45 44
f 2 44 51
f 2 51 58
f 2 58 64
f 2 64 71
f 2 71 75
f 2 75 77
f 2 77 70
f 2 70 63
f 2 63 57
f 2 57 49
f 2 49 41
f 2 41 34
f 2 34 27
f 2 27 21
f 2 21 16
f 2 16 8
f 2 8 3
f 4 8 16
f 4 16 17
f 4 17 9
f 5 10 6
f 5 9 17
f 5 17 23
f 5 23 22
f 5 22 28
f 5 28 35
f 5 35 42
f 5 42 50
f 5 50 56
f 5 56 62
f 5 62 69
f 5 69 68
f 5 68 76
f 5 76 73
f 5 73 72
f 5 72 65
f 5 65 59
f 5 59 53
f 5 53 52
f 5 52 46
f 5 46 43
f 5 43 37
f 5 37 31
f 5 31 29
f 5 29 24
f 5 24 18
f 5 18 12
f 5 12 11
f 5 11 14
f 5 14 10
f 6 11 12
f 6 12 13
f 6 13 15
f 6 15 7
f 6 10 14
f 6 14 11
f 12 18 20
f 12 20 13
f 13 19 15
f 13 20 19
f 16 21 22
f 16 22 23
f 16 23 17
f 18 24 25
f 18 25 20
f 19 20 26
f 20 25 30
f 20 30 26
f 21 27 33
f 21 33 35
f 21 35 28
f 21 28 22
f 24 29 25
f 25 29 31
f 25 31 32
f 25 32 36
f 25 36 30
f 27 34 40
f 27 40 33
f 31 37 32
f 32 37 38
f 32 38 39
f 32 39 36
f 33 40 35
f 34 41 48
f 34 48 40
f 35 40 42
f 37 43 38
f 38 44 45
f 38 45 39
f 38 43 46
f 38 46 47
f 38 47 44
f 40 48 42
f 41 49 48
f 42 48 50
f 44 47 51
f 46 52 47
f 47 53 54
f 47 54 58
f 47 58 51
f 47 52 53
f 48 49 55
f 48 55 56
f 48 56 50
f 49 57 55
f 53 59 60
f 53 60 54
f 54 60 64
f 54 64 58
f 55 57 63
f 55 63 61
f 55 61 69
f 55 69 62
f 55 62 56
f 59 65 60
f 60 65 66
f 60 66 71
f 60 71 64
f 61 63 70
f 61 70 67
f 61 67 68
f 61 68 69
f 65 72 66
f 66 73 74
f 66 74 75
f 66 75 71
f 66 72 73
f 67 70 77
f 67 77 74
f 67 74 68
f 68 74 76
f 73 76 74
f 74 77 75

