# https://github.com/mikedh/trimesh
v 23.97855247 -23.10151340 3.89384093
v 23.97855247 -24.67748453 14.63576502
v 23.97855247 -28.62659217 3.89384093
v 0.00841061 -33.23362971 3.89384093
v 0.00841061 -34.40872284 14.63576502
v 23.97855247 -30.42289309 14.63576502
v 23.97855247 -30.42136192 3.89804732
v 23.92927475 -30.46114348 3.89384093
v 0.00841061 -38.72963645 3.89384093
v 0.00841061 -38.72963645 14.63576502
v 23.92927475 -30.46114348 14.63576502
v 23.97855247 -30.42289309 10.43048374
v 23.44353663 -30.83295234 14.63576502
v 23.12205709 -31.07623236 3.89384093
v 0.80858849 -38.72963645 3.89384093
v 0.80858849 -38.73116473 3.96850142
v 0.80858849 -38.73116473 14.63576502
v 23.12205709 -31.07623236 14.63576502
v 21.99335990 -31.88410726 3.89384093
v 2.42537040 -38.66231402 3.89384093
v 1.78241204 -38.68985489 14.63576502
v 21.99335990 -31.88410726 14.63576502
v 21.18614224 -32.43340199 3.89384093
v 4.03980571 -38.52460683 3.89384093
v 4.03980571 -38.52613800 7.20001838
v 2.42537040 -38.66231402 14.63576502
v 21.18614224 -32.43340199 14.63576502
v 20.79192050 -32.67821318 14.63576502
v 20.14192092 -33.08062235 3.89384093
v 5.65658762 -38.32110837 3.89384093
v 5.65658762 -38.32263666 13.66200069
v 4.03980571 -38.52613800 14.63576502
v 20.19354595 -33.04849087 14.63576502
v 19.73831281 -33.32084292 14.63576502
v 19.04373014 -33.73549279 14.63576502
v 19.04373014 -33.73549279 3.96850142
v 19.04138427 -33.73549279 3.89384093
v 7.27102293 -38.04875632 3.89384093
v 5.65658762 -38.32263666 14.63576502
v 18.23416517 -34.17768064 14.63576502
v 18.23416517 -34.17768064 3.89384093
v 8.88780556 -37.70142887 3.89384093
v 8.24719380 -37.83913607 14.63576502
v 7.27102293 -38.04875632 14.63576502
v 17.72965576 -34.43320425 14.63576502
v 16.96232801 -34.82031037 3.89384093
v 10.25819816 -37.35104486 3.89384093
v 8.88780556 -37.70142887 14.63576502
v 16.96232801 -34.82031037 14.63576502
v 16.90835855 -34.84632295 3.89384093
v 10.32390203 -37.33421353 3.89384093
v 10.32390203 -37.33421353 14.63576502
v 16.49301676 -35.04217133 14.63576502
v 15.77966135 -35.37878635 14.63576502
v 15.77966135 -35.37878635 3.89384093
v 11.13111968 -37.10929313 3.89384093
v 11.13346628 -37.10929313 3.96850142
v 10.64538084 -37.24546915 14.63576502
v 15.29157592 -35.58993489 14.63576502
v 15.00998917 -35.71234193 3.89384093
v 12.06974507 -36.80634076 3.89384093
v 11.13346628 -37.10929313 14.63576502
v 14.97244369 -35.72764208 14.63576502
v 14.97244369 -35.72764208 3.89384093
v 12.11667619 -36.79103771 14.63576502
v 12.11667619 -36.79103771 3.89384093
v 14.47966508 -35.92349046 14.63576502
v 13.73111151 -36.21879275 3.89384093
v 13.65836787 -36.24480533 3.89384093
v 13.73111151 -36.21879275 14.63576502
f 1 2 6
f 1 6 12
f 1 12 7
f 1 7 3
f 1 3 8
f 1 8 14
f 1 14 19
f 1 19 23
f 1 23 29
f 1 29 37
f 1 37 41
f 1 41 46
f 1 46 50
f 1 50 55
f 1 55 60
f 1 60 64
f 1 64 68
f 1 68 69
f 1 69 66
f 1 66 61
f 1 61 56
f 1 56 51
f 1 51 47
f 1 47 42
f 1 42 38
f 1 38 30
f 1 30 24
f 1 24 20
f 1 20 15
f 1 15 9
f 1 9 4
f 1 4 5
f 1 5 2
f 2 5 10
f 2 10 17
f 2 17 21
f 2 21 26
f 2 26 32
f 2 32 39
f 2 39 44
f 2 44 43
f 2 43 48
f 2 48 52
f 2 52 58
f 2 58 62
f 2 62 65
f 2 65 70
f 2 70 67
f 2 67 63
f 2 63 59
f 2 59 54
f 2 54 53
f 2 53 49
f 2 49 45
f 2 45 40
f 2 40 35
f 2 35 34
f 2 34 33
f 2 33 28
f 2 28 27
f 2 27 22
f 2 22 18
f 2 18 13
f 2 13 11
f 2 11 6
f 3 7 8
f 4 9 10
f 4 10 5
f 6 11 8
f 6 8 12
f 7 12 8
f 8 13 14
f 8 11 13
f 9 15 16
f 9 16 17
f 9 17 10
f 13 18 14
f 14 18 22
f 14 22 19
f 15 20 16
f 16 21 17
f 16 20 21
f 19 22 27
f 19 27 23
f 20 24 25
f 20 25 32
f 20 32 26
f 20 26 21
f 23 28 29
f 23 27 28
f 24 30 25
f 25 30 31
f 25 31 39
f 25 39 32
f 28 33 29
f 29 33 34
f 29 34 35
f 29 35 36
f 29 36 37
f 30 38 31
f 31 38 44
f 31 44 39
f 35 40 41
f 35 41 36
f 36 41 37
f 38 42 43
f 38 43 44
f 40 45 41
f 41 45 46
f 42 47 48
f 42 48 43
f 45 49 46
f 46 49 50
f 47 51 52
f 47 52 48
f 49 53 50
f 50 53 54
f 50 54 55
f 51 56 57
f 51 57 58
f 51 58 52
f 54 59 60
f 54 60 55
f 56 61 57
f 57 62 58
f 57 61 62
f 59 63 60
f 60 63 64
f 61 65 62
f 61 66 65
f 63 67 64
f 64 67 68
f 65 69 70
f 65 66 69
f 67 70 68
f 68 70 69

