# https://github.com/mikedh/trimesh
v 0.80829526 38.73080939 14.63684262
v 0.80829526 38.73080939 3.96879899
v -0.00322702 38.72931577 14.63684262
v 2.42530612 38.66208290 14.63684262
v 0.80829526 38.72782216 3.44629687
v -0.00322702 38.72782216 3.44629687
v -0.00322702 38.72931577 3.96879899
v 2.42530612 38.66208290 3.96879899
v -0.00322702 34.41006912 14.63684262
v 3.06487062 38.60829834 14.63684262
v 2.42530612 38.65909567 3.44629687
v -0.00322702 31.54152934 3.44629687
v 4.03930086 38.52612644 3.96879899
v 2.94721455 38.61576930 3.44629687
v 25.15396484 23.46778114 14.63684262
v 4.03930086 38.52612644 14.63684262
v 20.26673017 23.50064933 3.44629687
v 4.56422613 38.45740285 3.44629687
v 4.03930086 38.52313921 3.44629687
v 5.65631172 38.31994988 3.96879899
v 5.65631172 38.31845627 3.44629687
v 20.77657123 23.46778114 3.44629687
v 30.81048745 23.46778114 14.63684262
v 5.65631172 38.31994988 14.63684262
v 7.27332258 38.04803696 3.96879899
v 6.17822015 38.23030991 3.44629687
v 30.81048745 23.46778114 3.44629687
v 30.70489730 23.61120857 14.63684262
v 7.27332258 38.04803696 14.63684262
v 7.27332258 38.04504973 3.44629687
v 8.88731732 37.70291671 3.96879899
v 8.88731732 37.70142021 3.44629687
v 7.79523101 37.93449049 3.44629687
v 30.45752067 23.93093159 3.44629687
v 30.46053679 23.93242521 3.96879899
v 30.46053679 23.93242521 14.63684262
v 8.88731732 37.70291671 14.63684262
v 9.45749448 37.55799278 14.63684262
v 10.32030305 37.33538358 3.96879899
v 9.34888893 37.58339290 3.44629687
v 30.19807380 24.24916101 3.44629687
v 30.14075599 24.32236833 14.63684262
v 29.65203209 24.91549790 3.44629687
v 29.65203209 24.91699151 3.96879899
v 10.32030305 37.33538358 14.63684262
v 10.31728549 37.33388997 3.44629687
v 11.12880776 37.10679703 7.20021194
v 11.12579164 37.10679703 3.96879899
v 10.86332864 37.18000435 3.44629687
v 29.65203209 24.91699151 14.63684262
v 28.96721424 25.72376860 3.44629687
v 28.96721424 25.72526221 3.96879899
v 11.12880776 37.10679703 14.63684262
v 11.52099347 36.98129876 14.63684262
v 12.11832292 36.79006123 3.96879899
v 11.12579164 37.10530341 3.44629687
v 28.96721424 25.72526221 14.63684262
v 28.15870954 26.58881397 3.44629687
v 28.16172566 26.59030759 3.96879899
v 28.64743344 26.06889174 14.63684262
v 12.11832292 36.79006123 14.63684262
v 12.11832292 36.78856761 3.44629687
v 13.73533378 36.21934166 3.96879899
v 27.64283479 27.13562994 3.44629687
v 27.39545817 27.39708467 3.44629687
v 27.39545817 27.39857829 3.96879899
v 27.70015549 27.07736165 14.63684262
v 28.16172566 26.59030759 14.63684262
v 13.73533378 36.21934166 14.63684262
v 13.73533378 36.21635443 3.44629687
v 14.97524314 35.72780676 3.96879899
v 14.13355246 36.05948159 3.44629687
v 26.58695057 28.16053539 3.44629687
v 26.58996958 28.16053539 3.96879899
v 27.39545817 27.39857829 14.63684262
v 14.97524314 35.72780676 14.63684262
v 14.97222557 35.72631025 3.44629687
v 15.78073173 35.37969639 3.96879899
v 15.51525261 35.49174924 3.44629687
v 25.71810904 28.96731247 3.44629687
v 25.72112516 28.96880609 3.96879899
v 26.58996958 28.16053539 14.63684262
v 15.78073173 35.37969639 14.63684262
v 15.77771416 35.37820278 3.44629687
v 16.96332182 34.82092862 3.96879899
v 16.96332182 34.81943501 3.44629687
v 25.45866505 29.18992168 3.44629687
v 24.91262045 29.65456574 3.44629687
v 24.91262045 29.65605935 3.96879899
v 25.40134435 29.24221262 14.63684262
v 25.72112516 28.96880609 14.63684262
v 16.96332182 34.82092862 14.63684262
v 18.23339959 34.17700172 3.96879899
v 18.23038347 34.17700172 3.44629687
v 23.93215653 30.46283644 3.44629687
v 24.91262045 29.65605935 14.63684262
v 23.93215653 30.46433294 3.96879899
v 18.23339959 34.17700172 14.63684262
v 18.72212349 33.91106326 14.63684262
v 19.04190429 33.73626127 3.96879899
v 18.77944274 33.87670146 3.44629687
v 23.12365182 31.07688527 3.44629687
v 23.12666794 31.07688527 3.96879899
v 23.93215653 30.46433294 14.63684262
v 23.61237572 30.70785853 14.63684262
v 19.04190429 33.73626127 14.63684262
v 19.41297357 33.51215556 3.44629687
v 19.03888818 33.73476765 3.44629687
v 20.19432743 33.04900800 5.58450547
v 20.19432743 33.04751149 3.96879899
v 20.19432743 33.04601788 3.44629687
v 21.99234730 31.88216874 3.44629687
v 23.12666794 31.07688527 14.63684262
v 21.99234730 31.88366236 3.96879899
v 20.19432743 33.04900800 14.63684262
v 21.18384115 32.43197194 3.44629687
v 20.51410968 32.84880590 3.44629687
v 21.99234730 31.88366236 14.63684262
v 21.67256505 32.10179072 14.63684262
v 21.18384115 32.43197194 14.63684262
f 1 2 7
f 1 7 3
f 1 3 9
f 1 9 15
f 1 15 23
f 1 23 28
f 1 28 36
f 1 36 42
f 1 42 50
f 1 50 57
f 1 57 60
f 1 60 68
f 1 68 67
f 1 67 75
f 1 75 82
f 1 82 91
f 1 91 90
f 1 90 96
f 1 96 104
f 1 104 105
f 1 105 113
f 1 113 118
f 1 118 119
f 1 119 120
f 1 120 115
f 1 115 106
f 1 106 99
f 1 99 98
f 1 98 92
f 1 92 83
f 1 83 76
f 1 76 69
f 1 69 61
f 1 61 54
f 1 54 53
f 1 53 45
f 1 45 38
f 1 38 37
f 1 37 29
f 1 29 24
f 1 24 16
f 1 16 10
f 1 10 4
f 1 4 8
f 1 8 2
f 2 5 6
f 2 6 7
f 2 8 11
f 2 11 5
f 3 7 6
f 3 6 12
f 3 12 9
f 4 10 8
f 5 11 14
f 5 14 19
f 5 19 18
f 5 18 21
f 5 21 26
f 5 26 30
f 5 30 33
f 5 33 32
f 5 32 40
f 5 40 46
f 5 46 49
f 5 49 56
f 5 56 62
f 5 62 70
f 5 70 72
f 5 72 77
f 5 77 79
f 5 79 84
f 5 84 86
f 5 86 94
f 5 94 101
f 5 101 108
f 5 108 107
f 5 107 111
f 5 111 117
f 5 117 116
f 5 116 112
f 5 112 102
f 5 102 95
f 5 95 88
f 5 88 87
f 5 87 80
f 5 80 73
f 5 73 65
f 5 65 64
f 5 64 58
f 5 58 51
f 5 51 43
f 5 43 41
f 5 41 34
f 5 34 27
f 5 27 22
f 5 22 17
f 5 17 12
f 5 12 6
f 8 10 13
f 8 13 14
f 8 14 11
f 9 12 15
f 10 16 13
f 12 17 15
f 13 18 19
f 13 19 14
f 13 16 24
f 13 24 20
f 13 20 21
f 13 21 18
f 15 17 22
f 15 22 27
f 15 27 23
f 20 24 29
f 20 29 25
f 20 25 21
f 21 25 26
f 23 27 28
f 25 30 26
f 25 29 37
f 25 37 31
f 25 31 32
f 25 32 33
f 25 33 30
f 27 34 35
f 27 35 28
f 28 35 36
f 31 37 38
f 31 38 39
f 31 39 40
f 31 40 32
f 34 41 35
f 35 42 36
f 35 41 43
f 35 43 44
f 35 44 42
f 38 45 39
f 39 46 40
f 39 45 53
f 39 53 47
f 39 47 48
f 39 48 49
f 39 49 46
f 42 44 50
f 43 51 52
f 43 52 44
f 44 52 57
f 44 57 50
f 47 53 54
f 47 54 55
f 47 55 48
f 48 55 62
f 48 62 56
f 48 56 49
f 51 58 59
f 51 59 52
f 52 60 57
f 52 59 60
f 54 61 55
f 55 61 69
f 55 69 63
f 55 63 62
f 58 64 59
f 59 64 65
f 59 65 66
f 59 66 67
f 59 67 68
f 59 68 60
f 62 63 70
f 63 69 76
f 63 76 71
f 63 71 72
f 63 72 70
f 65 73 74
f 65 74 66
f 66 75 67
f 66 74 82
f 66 82 75
f 71 77 72
f 71 76 83
f 71 83 78
f 71 78 79
f 71 79 77
f 73 80 81
f 73 81 74
f 74 81 91
f 74 91 82
f 78 84 79
f 78 83 92
f 78 92 85
f 78 85 86
f 78 86 84
f 80 87 81
f 81 87 88
f 81 88 89
f 81 89 90
f 81 90 91
f 85 92 98
f 85 98 93
f 85 93 86
f 86 93 94
f 88 95 97
f 88 97 89
f 89 96 90
f 89 97 104
f 89 104 96
f 93 98 99
f 93 99 100
f 93 100 94
f 94 100 101
f 95 102 103
f 95 103 97
f 97 103 105
f 97 105 104
f 99 106 100
f 100 107 108
f 100 108 101
f 100 106 115
f 100 115 109
f 100 109 110
f 100 110 111
f 100 111 107
f 102 112 103
f 103 113 105
f 103 112 114
f 103 114 118
f 103 118 113
f 109 115 120
f 109 120 116
f 109 116 117
f 109 117 110
f 110 117 111
f 112 116 114
f 114 116 119
f 114 119 118
f 116 120 119

