# https://github.com/mikedh/trimesh
v 23.97999841 -30.42152659 14.63721819
v 24.52728818 -29.97178400 14.63721819
v 26.20959194 -28.51831236 86.35700787
v 26.20959194 -28.51533379 88.87705883
v 26.20959194 -28.51235523 89.58444267
v 26.20959194 -28.38428286 90.61898872
v 26.20959194 -28.30982171 91.21142203
v 26.20959194 -27.80051366 92.37860508
v 26.20959194 -27.77668517 92.41397514
v 26.20959194 -26.99633668 93.20977979
v 26.20959194 -26.18918402 93.79336698
v 26.20959194 -26.17131265 93.80221311
v 26.20959194 -25.57562632 93.99674121
v 26.20959194 -25.03653266 94.02327381
v 26.20959194 -23.61284374 94.06748132
v 23.97999841 -24.67614403 14.63721819
v 23.97999841 -30.41854803 3.90268128
v 24.87385870 -29.68883509 3.90268128
v 24.92006830 -29.64713523 14.63721819
v 25.72584001 -28.96805494 14.63721819
v 26.24858192 -28.48257250 14.63721819
v 26.55183185 -28.19962070 3.90268128
v 26.59226344 -28.16089940 87.97514689
v 26.59081894 -28.15792373 89.58444267
v 26.48251601 -28.05665841 91.21142203
v 27.79659040 -26.19811682 92.40513190
v 27.29117962 -27.28822417 91.21142203
v 26.73955635 -26.73423481 92.94451157
v 27.27529299 -25.64413035 93.48389125
v 27.76048942 -24.56594014 93.78452663
v 26.70634438 -25.08120820 93.99674121
v 28.27457010 -21.80791771 94.17358861
v 35.03122490 0.00607557 94.04979485
v 26.20959194 -23.41031166 94.02327381
v 23.97999841 -23.09459857 3.90268128
v 26.20959194 -22.44530102 93.11251574
v 26.20959194 -22.30531584 92.82071781
v 24.95616928 -29.62033106 3.90268128
v 25.72584001 -28.96805494 3.90268128
v 27.39948255 -27.39544661 3.90268128
v 27.39948255 -27.39544661 87.97514689
v 27.39803804 -27.39246516 89.58444267
v 28.06085035 -26.48106862 91.21142203
v 28.86806945 -25.60541194 91.21142203
v 29.33449314 -24.53317885 92.34323502
v 28.31644619 -25.09014388 92.90914151
v 28.83774359 -23.94047108 93.42199436
v 29.27239981 -22.86525943 93.74031334
v 28.28900933 -23.41031166 93.96137404
v 29.89044702 -20.19063239 94.16474249
v 31.50632684 -16.96201888 94.19127508
v 33.11931765 -13.73638249 94.20895578
v 34.73519747 -8.88750511 94.21780191
v 35.69692621 0.00607557 94.09400815
v 34.74963959 0.00607557 93.43967795
v 34.46516240 0.00607557 92.82071781
v 33.23484309 0.00607557 3.90268128
v 34.40884418 0.00607557 91.21142203
v 34.43628104 0.00607557 92.01606992
v 28.13016619 -26.62701237 3.90268128
v 28.16482267 -26.58531250 87.97514689
v 28.16193366 -26.58531250 89.58444267
v 28.96914988 -25.72157007 89.58444267
v 29.55687412 -24.79528072 91.21142203
v 29.84279582 -23.36563468 92.81187746
v 30.82762791 -22.78781972 92.20176056
v 30.34965110 -22.15341497 93.28051702
v 30.75109534 -21.07820332 93.66957900
v 29.84424032 -21.69473814 93.87295322
v 31.57419818 -18.59419556 93.98790086
v 33.21751196 -15.38643054 94.00558155
v 34.73519747 -10.50479042 94.14706179
v 36.19512026 -5.65889088 93.98790086
v 36.35107729 -2.42729808 94.08516780
v 36.35107729 -0.81001277 94.11168884
v 36.35107729 0.00607557 94.11168884
v 38.72796372 0.00607557 3.90268128
v 28.97059438 -25.72454863 3.90268128
v 28.97203888 -25.72454863 3.97342139
v 28.97203888 -25.72454863 87.97514689
v 29.65362681 -24.91441741 89.58444267
v 30.36409322 -23.80346302 91.21142203
v 30.46084303 -23.92855683 89.58444267
v 30.98214043 -22.99928893 91.21142203
v 32.27600046 -20.94417383 91.85690899
v 32.60379825 -19.86598362 92.42281549
v 31.10921610 -21.69473814 92.77650741
v 32.46950008 -18.06701471 93.74031334
v 31.02690553 -20.19063239 93.81105923
v 31.90632658 -20.31870477 92.90914151
v 32.15903342 -19.14520492 93.50157483
v 32.75542178 -16.96201888 93.88179357
v 34.06660716 -14.87711961 93.73147299
v 34.28754652 -13.73638249 93.85526675
v 34.77996256 -11.98506840 93.91716652
v 35.66660324 -10.50479042 93.72263264
v 35.86443636 -8.88750511 93.84642062
v 36.03916323 -7.27319835 93.93484722
v 36.47815295 -3.95820944 93.95252791
v 37.10341978 -4.44071477 93.58115530
v 37.17129112 -3.36252456 93.63420894
v 37.20017248 -2.42729808 93.66073865
v 37.23049545 -0.81001277 93.69610582
v 37.23049545 0.00607557 93.69610582
v 38.72796372 -0.81001277 3.90268128
v 38.72940822 0.00607557 14.63721819
v 29.62185645 -24.95015726 3.90268128
v 29.65506843 -24.91441741 14.63721819
v 29.65506843 -24.91441741 87.97514689
v 30.46228753 -23.93153540 87.97514689
v 31.07600413 -23.12140418 89.58444267
v 32.39007851 -21.11990174 90.76930930
v 31.87022561 -21.71856519 91.27331891
v 32.77852513 -20.31870477 91.27331891
v 33.64494856 -18.88012593 91.21142203
v 33.98141047 -17.87043830 92.10449362
v 33.82256444 -15.95233270 93.54578813
v 33.56408249 -16.96201888 93.22746338
v 35.55541131 -11.35364150 93.63420894
v 35.34746957 -12.43183171 93.43967795
v 36.84782684 -7.27319835 93.29820349
v 37.00378386 -5.65889088 93.48389125
v 37.58573010 -5.65889088 92.67924336
v 37.58861910 -3.95820944 92.95335481
v 37.79800534 -2.42729808 92.82071781
v 37.86442929 -0.81001277 92.82071781
v 37.55107362 0.00607557 93.25399020
v 38.66153977 -2.42431952 3.90268128
v 38.72940822 -0.81001277 14.63721819
v 38.72940822 0.00607557 88.77979478
v 30.46084303 -23.92557827 3.90268128
v 29.97420210 -24.52424317 14.63721819
v 30.46228753 -23.93153540 33.05570172
v 31.07744863 -23.12140418 87.97514689
v 31.07889313 -23.12140418 14.63721819
v 31.88177873 -21.98960275 89.58444267
v 31.88466484 -21.99258131 87.97514689
v 32.43195749 -21.17947009 89.58444267
v 33.04567120 -20.19063239 89.58444267
v 33.73303425 -19.03500247 89.58444267
v 34.09115790 -18.07297183 91.21142203
v 34.65000078 -16.96201888 91.21142203
v 35.55974481 -14.57927789 92.04259674
v 34.20523595 -16.96201888 92.42281549
v 35.72147695 -13.73638249 92.29902461
v 35.09620723 -13.73638249 93.10367250
v 35.92219907 -11.98506840 92.86493111
v 37.17418012 -9.75422755 92.04259674
v 37.27670505 -8.88750511 92.21944415
v 36.67309707 -8.88750511 93.02409204
v 37.44854581 -7.27319835 92.49355560
v 38.16190122 -5.65889088 91.21142203
v 38.36695396 -4.04160556 91.21142203
v 38.50413824 -2.42729808 91.21142203
v 38.57634020 -0.81001277 91.21142203
v 37.86442929 0.00607557 92.82071781
v 38.52579998 -4.04160556 3.97342139
v 38.52435548 -4.04160556 3.90268128
v 38.68897663 -1.78693621 14.63721819
v 38.66153977 -2.42729808 14.63721819
v 38.72940822 -0.81001277 87.97514689
v 38.72651922 0.00607557 89.58444267
v 38.72651922 -0.81001277 89.58444267
v 31.07889313 -23.12140418 3.90268128
v 30.46084303 -23.92855683 14.63721819
v 32.43484360 -21.18542721 87.97514689
v 31.88466484 -21.99258131 14.63721819
v 33.04856020 -20.19063239 87.97514689
v 33.73592325 -19.04095959 87.97514689
v 34.17491009 -18.22784981 89.58444267
v 34.81606354 -16.96201888 89.58444267
v 35.29259585 -15.58598551 91.21142203
v 35.37635092 -15.77362623 89.58444267
v 36.62833198 -12.11909718 91.21142203
v 35.64638600 -14.78180997 91.21142203
v 36.05504986 -13.73638249 91.21142203
v 37.02688722 -10.85624481 91.21142203
v 37.25793231 -10.04909143 91.21142203
v 37.54529851 -8.88750511 91.21142203
v 37.88753553 -7.27319835 91.21142203
v 38.31785825 -5.65889088 89.58444267
v 38.52146648 -4.04160556 89.58444267
v 38.65720627 -2.42729808 89.58444267
v 38.57489569 0.00607557 91.21142203
v 38.32219175 -5.65591231 13.66456613
v 38.32074725 -5.65591231 3.90268128
v 38.52579998 -4.04160556 87.97514689
v 38.66153977 -2.42729808 87.97514689
v 31.88177873 -21.99258131 3.90268128
v 31.88177873 -21.99555987 3.97342139
v 32.43484360 -21.18542721 14.63721819
v 33.04856020 -20.19063239 14.63721819
v 33.32148428 -19.73791124 14.63721819
v 33.73592325 -19.04095959 14.63721819
v 34.17779909 -18.23380694 87.97514689
v 34.82039705 -16.96201888 87.97514689
v 35.37779543 -15.77660479 87.97514689
v 35.72869657 -14.97242925 87.97514689
v 35.72580757 -14.96945069 89.58444267
v 36.21533750 -13.73638249 89.58444267
v 36.78717800 -12.11909718 89.58444267
v 37.10630879 -11.12728164 89.58444267
v 37.33446777 -10.32012827 89.58444267
v 37.69980814 -8.88750511 89.58444267
v 38.04348967 -7.27319835 89.58444267
v 38.04782317 -7.27319835 87.97514689
v 38.32074725 -5.65889088 87.97514689
v 38.04782317 -7.27617619 3.90268128
v 38.32219175 -5.65591231 14.63721819
v 32.40596225 -21.22414707 3.90268128
v 32.43195749 -21.18542721 3.90268128
v 33.04711570 -20.19063239 3.90268128
v 33.73592325 -19.03798103 3.97342139
v 34.17779909 -18.23380694 3.97342139
v 34.20668045 -18.17721715 3.90268128
v 34.82039705 -16.96201888 3.90268128
v 34.84638940 -16.90840766 3.90268128
v 35.37923993 -15.77958335 14.63721819
v 35.72869657 -14.97540781 14.63721819
v 35.92364069 -14.48396825 14.63721819
v 36.21822650 -13.73638249 87.97514689
v 36.79006412 -12.11909718 87.97514689
v 37.10919779 -11.13621661 87.97514689
v 37.33591227 -10.32608539 87.97514689
v 37.70269715 -8.88750511 87.97514689
v 38.04782317 -7.27617619 14.63721819
v 37.69980814 -8.88750511 3.90268128
v 37.83988143 -8.24714324 14.63721819
v 33.73303425 -19.03798103 3.90268128
v 35.37779543 -15.77958335 3.90268128
v 35.37923993 -15.77958335 3.97342139
v 35.72869657 -14.97540781 3.97342139
v 36.21822650 -13.73340393 3.90268128
v 36.21822650 -13.73638249 14.63721819
v 36.44638259 -13.09602207 14.63721819
v 36.80595074 -12.07442092 3.90268128
v 37.10919779 -11.13621661 63.73843748
v 37.33591227 -10.32608539 37.90127553
v 37.70269715 -8.88750511 62.12029991
v 37.33446777 -10.32608539 3.90268128
v 37.70125265 -8.88750511 23.36455699
v 37.48031617 -9.75720539 14.63721819
v 35.71281283 -15.01114911 3.90268128
v 35.72869657 -14.97242925 3.90268128
v 37.10630879 -11.13323804 3.90268128
v 37.10919779 -11.13323804 3.97342139
v 37.33446777 -10.32906323 10.43713133
f 1 2 3
f 1 3 4
f 1 4 5
f 1 5 6
f 1 6 7
f 1 7 8
f 1 8 9
f 1 9 10
f 1 10 11
f 1 11 12
f 1 12 13
f 1 13 14
f 1 14 15
f 1 15 16
f 1 16 35
f 1 35 17
f 1 17 18
f 1 18 2
f 2 19 3
f 2 18 19
f 3 19 20
f 3 20 21
f 3 21 22
f 3 22 23
f 3 23 4
f 4 24 5
f 4 23 24
f 5 24 6
f 6 25 7
f 6 24 25
f 7 25 8
f 8 26 9
f 8 25 27
f 8 27 26
f 9 26 28
f 9 28 10
f 10 28 29
f 10 29 11
f 11 30 12
f 11 29 30
f 12 30 31
f 12 31 13
f 13 31 32
f 13 32 14
f 14 32 15
f 15 32 33
f 15 33 34
f 15 34 16
f 16 34 36
f 16 36 37
f 16 37 35
f 17 35 57
f 17 57 77
f 17 77 105
f 17 105 128
f 17 128 158
f 17 158 186
f 17 186 208
f 17 208 227
f 17 227 240
f 17 240 245
f 17 245 236
f 17 236 233
f 17 233 244
f 17 244 243
f 17 243 230
f 17 230 217
f 17 217 216
f 17 216 215
f 17 215 229
f 17 229 212
f 17 212 211
f 17 211 210
f 17 210 189
f 17 189 164
f 17 164 131
f 17 131 107
f 17 107 78
f 17 78 60
f 17 60 40
f 17 40 22
f 17 22 39
f 17 39 38
f 17 38 18
f 18 38 19
f 19 38 20
f 20 38 39
f 20 39 21
f 21 39 22
f 22 40 41
f 22 41 23
f 23 41 42
f 23 42 24
f 24 42 25
f 25 42 27
f 26 27 43
f 26 43 44
f 26 44 45
f 26 45 46
f 26 46 29
f 26 29 28
f 27 42 43
f 29 46 47
f 29 47 30
f 30 47 48
f 30 48 49
f 30 49 31
f 31 49 50
f 31 50 32
f 32 50 51
f 32 51 52
f 32 52 53
f 32 53 54
f 32 54 33
f 33 55 34
f 33 54 76
f 33 76 104
f 33 104 127
f 33 127 156
f 33 156 184
f 33 184 162
f 33 162 130
f 33 130 106
f 33 106 77
f 33 77 57
f 33 57 58
f 33 58 59
f 33 59 56
f 33 56 55
f 34 55 56
f 34 56 36
f 35 37 58
f 35 58 57
f 36 56 37
f 37 56 59
f 37 59 58
f 40 60 41
f 41 61 62
f 41 62 42
f 41 60 61
f 42 62 43
f 43 62 63
f 43 63 44
f 44 63 64
f 44 64 45
f 45 65 47
f 45 47 46
f 45 64 66
f 45 66 65
f 47 65 67
f 47 67 68
f 47 68 48
f 48 68 69
f 48 69 49
f 49 69 50
f 50 69 70
f 50 70 51
f 51 70 71
f 51 71 52
f 52 71 72
f 52 72 53
f 53 72 73
f 53 73 74
f 53 74 75
f 53 75 76
f 53 76 54
f 60 78 79
f 60 79 80
f 60 80 61
f 61 80 62
f 62 80 63
f 63 81 64
f 63 80 81
f 64 82 66
f 64 81 83
f 64 83 82
f 65 66 67
f 66 82 84
f 66 84 85
f 66 85 86
f 66 86 87
f 66 87 67
f 67 87 68
f 68 88 89
f 68 89 69
f 68 87 90
f 68 90 91
f 68 91 88
f 69 89 70
f 70 89 88
f 70 88 92
f 70 92 71
f 71 92 93
f 71 93 94
f 71 94 72
f 72 94 95
f 72 95 96
f 72 96 97
f 72 97 98
f 72 98 73
f 73 99 74
f 73 98 100
f 73 100 101
f 73 101 99
f 74 99 101
f 74 101 102
f 74 102 103
f 74 103 75
f 75 103 104
f 75 104 76
f 77 106 129
f 77 129 105
f 78 107 79
f 79 107 108
f 79 108 109
f 79 109 80
f 80 109 81
f 81 109 110
f 81 110 83
f 82 83 84
f 83 111 84
f 83 110 111
f 84 111 112
f 84 112 113
f 84 113 85
f 85 113 112
f 85 112 114
f 85 114 115
f 85 115 116
f 85 116 86
f 86 91 90
f 86 90 87
f 86 116 91
f 88 91 117
f 88 117 93
f 88 93 92
f 91 118 117
f 91 116 118
f 93 119 94
f 93 117 120
f 93 120 119
f 94 119 95
f 95 119 96
f 96 119 121
f 96 121 122
f 96 122 97
f 97 122 100
f 97 100 98
f 100 122 123
f 100 123 124
f 100 124 101
f 101 124 125
f 101 125 102
f 102 125 126
f 102 126 103
f 103 126 127
f 103 127 104
f 105 129 128
f 106 130 161
f 106 161 129
f 107 131 108
f 108 131 132
f 108 132 133
f 108 133 110
f 108 110 109
f 110 134 111
f 110 133 164
f 110 164 135
f 110 135 134
f 111 136 112
f 111 134 137
f 111 137 136
f 112 115 114
f 112 136 138
f 112 138 139
f 112 139 140
f 112 140 115
f 115 140 141
f 115 141 116
f 116 141 142
f 116 142 143
f 116 143 144
f 116 144 118
f 117 145 146
f 117 146 120
f 117 118 144
f 117 144 143
f 117 143 145
f 119 120 147
f 119 147 148
f 119 148 149
f 119 149 150
f 119 150 121
f 120 146 145
f 120 145 147
f 121 150 149
f 121 149 151
f 121 151 122
f 122 151 123
f 123 151 152
f 123 152 153
f 123 153 154
f 123 154 125
f 123 125 124
f 125 154 155
f 125 155 126
f 126 156 127
f 126 155 156
f 128 157 158
f 128 129 159
f 128 159 160
f 128 160 157
f 129 161 159
f 130 162 163
f 130 163 161
f 131 164 165
f 131 165 132
f 132 165 133
f 133 165 164
f 134 135 137
f 135 164 167
f 135 167 137
f 136 137 166
f 136 166 138
f 137 167 191
f 137 191 166
f 138 166 139
f 139 166 168
f 139 168 169
f 139 169 140
f 140 170 141
f 140 169 195
f 140 195 170
f 141 170 171
f 141 171 142
f 142 172 143
f 142 171 173
f 142 173 172
f 143 174 148
f 143 148 145
f 143 172 175
f 143 175 176
f 143 176 174
f 145 148 147
f 148 174 177
f 148 177 178
f 148 178 179
f 148 179 180
f 148 180 149
f 149 180 152
f 149 152 151
f 152 180 205
f 152 205 181
f 152 181 153
f 153 181 182
f 153 182 154
f 154 182 183
f 154 183 155
f 155 183 163
f 155 163 162
f 155 162 184
f 155 184 156
f 157 185 186
f 157 186 158
f 157 160 188
f 157 188 187
f 157 187 209
f 157 209 185
f 159 161 188
f 159 188 160
f 161 163 188
f 163 183 188
f 164 189 190
f 164 190 167
f 166 191 192
f 166 192 168
f 167 190 191
f 168 192 193
f 168 193 169
f 169 193 194
f 169 194 214
f 169 214 195
f 170 195 171
f 171 195 196
f 171 196 173
f 172 173 175
f 173 196 197
f 173 197 198
f 173 198 199
f 173 199 175
f 174 176 200
f 174 200 201
f 174 201 202
f 174 202 177
f 175 199 200
f 175 200 176
f 177 202 178
f 178 202 203
f 178 203 204
f 178 204 179
f 179 204 205
f 179 205 180
f 181 205 206
f 181 206 207
f 181 207 187
f 181 187 182
f 182 187 188
f 182 188 183
f 185 208 186
f 185 209 226
f 185 226 208
f 187 207 209
f 189 210 190
f 190 210 191
f 191 210 211
f 191 211 212
f 191 212 192
f 192 212 193
f 193 212 213
f 193 213 194
f 194 213 214
f 195 214 215
f 195 215 196
f 196 215 216
f 196 216 217
f 196 217 218
f 196 218 197
f 197 218 198
f 198 218 219
f 198 219 220
f 198 220 221
f 198 221 200
f 198 200 199
f 200 221 222
f 200 222 201
f 201 222 223
f 201 223 202
f 202 223 203
f 203 223 224
f 203 224 204
f 204 224 225
f 204 225 206
f 204 206 205
f 206 225 226
f 206 226 209
f 206 209 207
f 208 226 228
f 208 228 227
f 212 229 213
f 213 229 215
f 213 215 214
f 217 230 231
f 217 231 218
f 218 231 232
f 218 232 219
f 219 232 220
f 220 232 233
f 220 233 234
f 220 234 221
f 221 234 235
f 221 235 222
f 222 235 236
f 222 236 223
f 223 236 237
f 223 237 238
f 223 238 224
f 224 238 239
f 224 239 225
f 225 239 228
f 225 228 226
f 227 228 241
f 227 241 242
f 227 242 240
f 228 239 241
f 230 243 231
f 231 243 232
f 232 243 244
f 232 244 233
f 233 236 235
f 233 235 234
f 236 245 246
f 236 246 237
f 237 246 238
f 238 242 239
f 238 246 247
f 238 247 242
f 239 242 241
f 240 242 247
f 240 247 246
f 240 246 245

