# https://github.com/mikedh/trimesh
v -0.00624313 38.72923199 14.64277952
v -0.00624313 34.40781281 14.64277952
v -0.00624313 38.72923199 3.97057862
v -0.01098182 38.73079494 87.97084228
v -0.01098182 38.72610898 89.58811170
v -0.01098182 38.64955330 90.40563010
v -0.01098182 38.57299762 91.20538113
v -0.01098182 37.86369837 92.82265056
v -0.01098182 37.23095191 93.69348838
v -0.01098182 36.35135752 94.11113415
v -0.00624313 31.54249137 3.44629976
v -0.01098182 35.68580355 94.08447444
v -0.01098182 35.03118445 94.04893393
v -0.01098182 34.74527720 93.43578935
v -0.01098182 34.46405880 92.82265056
v -0.00624313 38.72766904 3.44629976
v -0.80934830 38.72923199 3.97057862
v -0.01098182 38.73079494 14.64277952
v -0.81171728 38.72923199 87.97084228
v -0.81171728 38.72610898 89.58811170
v -0.81171728 38.57299762 91.20538113
v -0.81171728 37.86369837 92.82265056
v -0.81171728 37.23095191 93.69348838
v -0.81171728 36.35135752 94.11113415
v -8.88777523 34.73434232 94.22665381
v -22.10228252 22.76998013 3.44629976
v -0.01098182 34.43593436 92.01401295
v -0.01098182 34.40937576 91.20538113
v -24.20835962 24.47917473 92.82265056
v -21.80852151 28.27564769 94.17333438
v -24.20835962 25.63061560 94.07558787
v -24.20835962 25.21347251 93.97784135
v -24.20835962 24.58853792 93.07146301
v -0.80934830 38.72766904 3.44629976
v -1.90384476 38.68236370 3.44629976
v -2.42503383 38.66205112 3.97057862
v -0.81171728 38.72923199 14.64277952
v -2.42740281 38.66205112 87.97084228
v -2.42740281 38.65892811 89.58811170
v -2.42740281 38.50581675 91.20538113
v -2.42740281 37.79964341 92.82265056
v -2.42740281 37.19970735 93.65794210
v -2.42740281 36.35135752 94.08447444
v -13.73009458 33.12045014 94.20888067
v -5.65877387 36.19512604 93.98672792
v -10.50346148 34.73434232 94.14668044
v -24.20835962 24.46198805 14.64277952
v -22.10228252 31.80340009 3.44629976
v -24.20835962 24.46198805 91.20538113
v -16.96146420 31.50499501 94.19110752
v -20.19283670 29.89110283 94.16444781
v -24.20835962 27.53354093 93.96895478
v -24.20835962 26.61645017 94.03116078
v -2.42503383 38.66048817 3.44629976
v -4.04071936 38.52612933 3.97057862
v -3.40107830 38.58080948 14.64277952
v -2.42740281 38.66205112 14.64277952
v -4.04308834 38.52612933 87.97084228
v -4.04308834 38.52144048 89.58811170
v -4.04308834 38.36676906 91.20538113
v -5.65877387 37.58404003 92.68047118
v -3.95780282 37.58872888 92.95594336
v -3.36317386 37.17158291 93.64016895
v -3.95780282 36.47790739 93.95118164
v -15.38605353 33.21731551 93.99561450
v -18.59373332 31.57530178 93.98672792
v -4.43871774 37.10127903 93.58685530
v -7.27209042 36.03889167 93.93341427
v -8.88777523 35.86547351 93.84454855
v -10.50346148 35.66705681 93.72014810
v -11.98174244 34.77965055 93.91564113
v -13.73009458 34.28751474 93.85343512
v -24.20835962 30.23794203 14.64277952
v -23.93118149 30.46448028 14.64277952
v -22.10228252 31.80652599 3.97057862
v -21.99093747 31.88308167 3.44629976
v -21.69243850 29.84423454 93.87120827
v -23.41236141 28.28970847 93.96006821
v -24.20835962 27.92412253 93.84454855
v -4.04071936 38.52456638 3.44629976
v -5.65640489 38.31990077 3.97057862
v -5.65877387 38.32146372 15.29146460
v -4.04308834 38.52612933 14.64277952
v -5.65877387 38.32146372 87.97084228
v -5.65877387 38.31677776 89.58811170
v -5.65877387 38.16210634 91.20538113
v -7.27209042 37.44811824 92.49386473
v -5.65877387 37.00129065 93.48022221
v -14.87670937 34.06566245 93.72902889
v -16.96146420 32.75486420 93.88009484
v -18.06780629 32.46895695 93.72902889
v -20.19283670 31.02535991 93.80900804
v -7.27209042 36.84818218 93.29361576
v -11.35394629 35.55613067 93.64016895
v -24.20835962 30.23794203 88.42403433
v -23.93118149 30.46448028 87.97084228
v -23.44552860 30.83319213 14.64277952
v -23.12333981 31.07691416 14.64277952
v -22.67559063 31.39719477 14.64277952
v -22.10228252 31.80652599 14.64277952
v -21.99330645 31.88308167 49.20969150
v -21.18546332 32.43302353 3.97057862
v -21.18309434 32.43146058 3.44629976
v -21.07885624 30.75038753 93.66682867
v -22.86511354 29.27398010 93.73791546
v -24.20835962 28.38032493 93.57796873
v -5.65640489 38.31677776 3.44629976
v -6.75090135 38.13398190 3.44629976
v -7.27209042 38.04649134 3.97057862
v -7.27209042 38.04805429 10.43076975
v -7.27209042 38.04805429 14.64277952
v -7.27209042 38.04649134 87.97084228
v -7.27209042 38.04336833 89.58811170
v -7.27209042 37.88869691 91.20538113
v -8.88777523 37.27626014 92.21839255
v -12.42475221 35.34677621 93.43578935
v -15.95225470 33.82193753 93.54242244
v -19.14335162 32.15805116 93.49799536
v -8.88777523 36.67163812 93.01814358
v -9.75247537 37.17314586 92.04067267
v -11.98174244 35.92171661 92.86707764
v -24.20835962 30.23481613 89.58811170
v -23.92881251 30.46448028 89.58811170
v -23.12333981 31.07691416 87.97084228
v -21.99330645 31.88308167 87.97084228
v -21.18546332 32.43458359 54.05261357
v -20.19283670 33.04858331 3.97057862
v -20.19283670 33.04702036 3.44629976
v -20.19283670 33.05014338 29.82911629
v -20.32076463 31.90651437 92.90262392
v -21.69243850 31.10816161 92.76933112
v -22.15440157 30.35043113 93.27584261
v -23.94302785 28.83652732 93.41801621
v -24.20835962 28.71622637 93.30249655
v -7.27209042 38.04492839 3.44629976
v -8.36658688 37.81214123 3.44629976
v -8.88777523 37.70277804 3.97057862
v -8.24813489 37.84026278 14.64277952
v -8.88777523 37.70121509 87.97084228
v -8.88777523 37.69809208 89.58811170
v -8.88777523 37.54342066 91.20538113
v -13.73009458 35.09524231 93.09811695
v -13.73009458 35.72017401 92.29837170
v -15.26760153 34.69372006 92.79599084
v -16.96146420 34.20627310 92.42277793
v -16.96146420 33.56259177 93.22252318
v -18.50844852 33.07514191 92.80487741
v -19.86590850 32.60487874 92.42277793
v -14.58057938 35.56081663 92.04067267
v -10.04860536 37.25595045 91.20538113
v -10.85644848 37.02784925 91.20538113
v -12.11440833 36.62789285 91.20538113
v -24.20835962 30.17544713 90.11239056
v -23.12097083 31.07535410 89.58811170
v -23.80562255 30.36605196 91.20538113
v -22.99777943 30.98317470 91.20538113
v -21.99093747 31.87995577 89.58811170
v -21.18309434 32.43302353 89.58811170
v -21.18546332 32.43458359 87.97084228
v -20.19283670 33.05170633 83.12792057
v -19.04148250 33.73600992 3.97057862
v -19.03911352 33.73288402 3.44629976
v -22.79167365 30.82694321 92.20062519
v -23.36735075 29.84423454 92.81376398
v -24.20835962 29.47864571 92.47609158
v -8.88777523 37.70121509 3.44629976
v -10.32104480 37.33562914 3.97057862
v -10.32815247 37.33406619 86.36245942
v -8.88777523 37.70277804 14.64277952
v -10.32815247 37.33406619 87.97084228
v -10.32341378 37.33250613 89.58811170
v -17.87354542 33.98285786 92.10287867
v -20.94382137 32.27522621 91.85406621
v -13.73009458 36.05607834 91.20538113
v -14.78431762 35.64674423 91.20538113
v -15.58979032 35.29365611 91.20538113
v -16.96146420 34.65153773 91.20538113
v -11.13125691 37.10596788 89.58811170
v -12.11440833 36.78881318 89.58811170
v -24.20835962 30.04108829 91.20538113
v -21.11913038 32.39083832 90.77884879
v -21.71849875 31.87058095 91.26758135
v -20.19283670 33.04702036 89.58811170
v -20.19283670 33.05170633 87.97084228
v -18.23127039 34.17815155 8.82238689
v -18.23127039 34.17658860 3.97057862
v -18.22890141 34.17658860 3.44629976
v -19.04148250 33.73600992 87.97084228
v -24.20835962 29.79892631 91.82740650
v -10.31867582 37.33250613 3.44629976
v -10.57690137 37.26063930 3.44629976
v -11.12178026 37.10596788 3.44629976
v -11.12414996 37.10596788 3.97057862
v -10.64086533 37.24501558 14.64277952
v -11.13599488 37.10752795 87.97084228
v -18.07491468 34.09222105 91.20538113
v -18.88275636 33.64539347 91.20538113
v -20.32076463 32.77985985 91.26758135
v -13.73009458 36.21543573 89.58811170
v -14.96673358 35.72642292 89.58811170
v -15.77457526 35.37802366 89.58811170
v -16.96146420 34.81714403 89.58811170
v -12.11440833 36.79037324 87.97084228
v -19.03674454 33.73288402 89.58811170
v -16.96146420 34.82183288 3.97057862
v -18.23127039 34.17815155 14.64277952
v -16.96146420 34.81870698 3.44629976
v -18.22890141 34.17658860 89.58811170
v -18.23363937 34.17658860 87.97084228
v -11.79458779 36.89192746 3.44629976
v -11.12651895 37.10596788 14.64277952
v -11.72351689 36.91536305 14.64277952
v -12.11440833 36.78881318 3.97057862
v -12.11440833 36.79037324 81.51065114
v -13.73009458 36.21699868 87.97084228
v -14.97147154 35.72642292 87.97084228
v -15.77931323 35.37802366 86.36245942
v -16.96146420 34.82183288 87.97084228
v -13.09045352 36.44509988 14.64277952
v -13.73009458 36.21855874 84.74518999
v -15.77694424 35.37802366 3.44629976
v -15.77931323 35.37958661 3.97057862
v -12.11440833 36.78725023 3.44629976
v -13.73009458 36.21855874 3.97057862
v -14.97147154 35.72798587 50.81807472
v -15.77931323 35.37958661 14.64277952
v -14.47871026 35.92327956 14.64277952
v -14.97147154 35.72798587 3.44629976
v -13.73009458 36.21699868 3.44629976
f 1 2 11
f 1 11 16
f 1 16 3
f 1 3 18
f 1 18 4
f 1 4 5
f 1 5 6
f 1 6 7
f 1 7 8
f 1 8 9
f 1 9 10
f 1 10 2
f 2 10 12
f 2 12 13
f 2 13 14
f 2 14 15
f 2 15 11
f 3 16 34
f 3 34 17
f 3 17 18
f 4 19 20
f 4 20 5
f 4 18 37
f 4 37 19
f 5 20 6
f 6 20 21
f 6 21 7
f 7 21 22
f 7 22 8
f 8 22 23
f 8 23 9
f 9 23 24
f 9 24 10
f 10 24 25
f 10 25 12
f 11 26 48
f 11 48 76
f 11 76 103
f 11 103 128
f 11 128 162
f 11 162 187
f 11 187 207
f 11 207 221
f 11 221 228
f 11 228 229
f 11 229 223
f 11 223 210
f 11 210 192
f 11 192 191
f 11 191 190
f 11 190 166
f 11 166 136
f 11 136 135
f 11 135 108
f 11 108 107
f 11 107 80
f 11 80 54
f 11 54 35
f 11 35 34
f 11 34 16
f 11 15 27
f 11 27 28
f 11 28 29
f 11 29 26
f 12 25 30
f 12 30 13
f 13 30 31
f 13 31 32
f 13 32 33
f 13 33 14
f 14 33 15
f 15 33 29
f 15 29 27
f 17 34 35
f 17 35 36
f 17 36 57
f 17 57 37
f 17 37 18
f 19 37 57
f 19 57 38
f 19 38 39
f 19 39 20
f 20 39 40
f 20 40 21
f 21 40 41
f 21 41 22
f 22 41 42
f 22 42 23
f 23 43 24
f 23 42 43
f 24 43 25
f 25 44 30
f 25 43 45
f 25 45 46
f 25 46 44
f 26 47 73
f 26 73 48
f 26 29 49
f 26 49 47
f 27 29 28
f 29 33 32
f 29 32 31
f 29 31 53
f 29 53 52
f 29 52 79
f 29 79 106
f 29 106 134
f 29 134 165
f 29 165 189
f 29 189 180
f 29 180 153
f 29 153 122
f 29 122 95
f 29 95 73
f 29 73 47
f 29 47 49
f 30 44 50
f 30 50 51
f 30 51 52
f 30 52 53
f 30 53 31
f 35 54 36
f 36 54 80
f 36 80 55
f 36 55 56
f 36 56 57
f 38 57 56
f 38 56 58
f 38 58 39
f 39 58 59
f 39 59 40
f 40 59 60
f 40 60 61
f 40 61 41
f 41 61 62
f 41 62 63
f 41 63 42
f 42 63 43
f 43 63 64
f 43 64 45
f 44 46 65
f 44 65 66
f 44 66 50
f 45 64 63
f 45 63 67
f 45 67 68
f 45 68 46
f 46 68 69
f 46 69 70
f 46 70 71
f 46 71 72
f 46 72 65
f 48 73 74
f 48 74 75
f 48 75 76
f 50 66 51
f 51 66 77
f 51 77 78
f 51 78 52
f 52 78 79
f 55 80 81
f 55 81 82
f 55 82 83
f 55 83 56
f 56 83 58
f 58 83 82
f 58 82 84
f 58 84 85
f 58 85 59
f 59 85 86
f 59 86 60
f 60 86 61
f 61 86 87
f 61 87 88
f 61 88 67
f 61 67 62
f 62 67 63
f 65 72 89
f 65 89 90
f 65 90 66
f 66 90 91
f 66 91 92
f 66 92 77
f 67 88 69
f 67 69 68
f 69 88 70
f 70 88 93
f 70 93 94
f 70 94 71
f 71 94 72
f 72 94 89
f 73 95 96
f 73 96 74
f 74 96 97
f 74 97 75
f 75 97 98
f 75 98 99
f 75 99 100
f 75 100 125
f 75 125 101
f 75 101 76
f 76 102 103
f 76 101 102
f 77 92 104
f 77 104 105
f 77 105 78
f 78 105 79
f 79 105 106
f 80 107 81
f 81 107 108
f 81 108 109
f 81 109 110
f 81 110 82
f 82 110 111
f 82 111 84
f 84 111 112
f 84 112 113
f 84 113 85
f 85 113 114
f 85 114 86
f 86 114 115
f 86 115 87
f 87 93 88
f 87 115 93
f 89 91 90
f 89 94 116
f 89 116 117
f 89 117 91
f 91 117 118
f 91 118 104
f 91 104 92
f 93 115 119
f 93 119 94
f 94 119 115
f 94 115 120
f 94 120 121
f 94 121 116
f 95 122 123
f 95 123 96
f 96 124 97
f 96 123 124
f 97 124 98
f 98 124 99
f 99 124 100
f 100 124 125
f 101 125 159
f 101 159 126
f 101 126 102
f 102 127 128
f 102 128 103
f 102 126 129
f 102 129 127
f 104 118 130
f 104 130 131
f 104 131 132
f 104 132 133
f 104 133 105
f 105 133 106
f 106 133 134
f 108 135 109
f 109 135 136
f 109 136 137
f 109 137 110
f 110 137 138
f 110 138 111
f 111 138 112
f 112 138 139
f 112 139 140
f 112 140 113
f 113 140 141
f 113 141 114
f 114 141 120
f 114 120 115
f 116 142 117
f 116 121 143
f 116 143 142
f 117 142 144
f 117 144 145
f 117 145 146
f 117 146 118
f 118 146 147
f 118 147 148
f 118 148 130
f 120 149 143
f 120 143 121
f 120 141 150
f 120 150 151
f 120 151 152
f 120 152 149
f 122 153 123
f 123 154 124
f 123 153 155
f 123 155 156
f 123 156 154
f 124 154 125
f 125 154 157
f 125 157 158
f 125 158 159
f 126 159 184
f 126 184 160
f 126 160 129
f 127 161 128
f 127 129 161
f 128 161 162
f 129 160 161
f 130 148 131
f 131 148 163
f 131 163 132
f 132 163 164
f 132 164 133
f 133 164 165
f 133 165 134
f 136 166 137
f 137 167 168
f 137 168 170
f 137 170 169
f 137 169 138
f 137 166 167
f 138 169 139
f 139 169 170
f 139 170 171
f 139 171 140
f 140 171 150
f 140 150 141
f 142 143 144
f 143 149 144
f 144 149 145
f 145 149 172
f 145 172 146
f 146 172 147
f 147 172 148
f 148 172 173
f 148 173 163
f 149 152 174
f 149 174 175
f 149 175 176
f 149 176 177
f 149 177 172
f 150 171 178
f 150 178 151
f 151 178 152
f 152 178 179
f 152 179 174
f 153 180 155
f 154 156 181
f 154 181 157
f 155 180 163
f 155 163 156
f 156 163 173
f 156 173 182
f 156 182 181
f 157 181 158
f 158 181 183
f 158 183 184
f 158 184 159
f 160 184 188
f 160 188 161
f 161 185 186
f 161 186 187
f 161 187 162
f 161 188 206
f 161 206 185
f 163 180 189
f 163 189 165
f 163 165 164
f 166 190 167
f 167 190 191
f 167 191 192
f 167 192 193
f 167 193 194
f 167 194 195
f 167 195 168
f 168 195 170
f 170 195 178
f 170 178 171
f 172 177 196
f 172 196 197
f 172 197 173
f 173 198 181
f 173 181 182
f 173 197 198
f 174 179 199
f 174 199 175
f 175 199 200
f 175 200 201
f 175 201 176
f 176 201 177
f 177 201 202
f 177 202 196
f 178 195 179
f 179 195 203
f 179 203 215
f 179 215 199
f 181 198 197
f 181 197 204
f 181 204 183
f 183 204 188
f 183 188 184
f 185 205 186
f 185 206 218
f 185 218 205
f 186 205 187
f 187 205 207
f 188 204 208
f 188 208 209
f 188 209 206
f 192 210 193
f 193 210 211
f 193 211 194
f 194 211 195
f 195 211 212
f 195 212 213
f 195 213 214
f 195 214 203
f 196 202 208
f 196 208 204
f 196 204 197
f 199 215 216
f 199 216 200
f 200 216 201
f 201 216 217
f 201 217 218
f 201 218 202
f 202 218 208
f 203 214 219
f 203 219 220
f 203 220 215
f 205 221 207
f 205 218 226
f 205 226 222
f 205 222 221
f 206 209 218
f 208 218 209
f 210 223 213
f 210 213 212
f 210 212 211
f 213 223 229
f 213 229 224
f 213 224 219
f 213 219 214
f 215 220 216
f 216 220 225
f 216 225 217
f 217 225 226
f 217 226 218
f 219 224 220
f 220 224 227
f 220 227 225
f 221 222 228
f 222 226 225
f 222 225 228
f 224 229 228
f 224 228 227
f 225 227 228

