# https://github.com/mikedh/trimesh
v -22.68396007 -31.39252036 39.52033759
v -23.12539534 -31.07595501 26.58776228
v -23.12382516 -31.07595501 14.64460537
v -22.68396007 -31.38944646 14.64460537
v -22.68396007 -31.39252036 87.97854147
v -23.93286145 -30.46125904 31.44137186
v -23.12539534 -31.07595501 87.97854147
v -23.61081711 -30.70406527 14.64460537
v -22.68396007 -25.88178548 14.64460537
v -22.68396007 -31.38637256 89.59122027
v -23.12225355 -31.07288111 89.59122027
v -24.91784377 -29.65293634 20.12926411
v -23.93286145 -30.45818515 18.51658819
v -23.93286145 -30.46125904 87.97854147
v -23.93128983 -30.45818515 89.59122027
v -23.93128983 -30.45818515 14.64460537
v -34.40948843 0.00607702 14.64460537
v -22.68396007 -25.88178548 91.21168493
v -22.99971939 -30.97760181 91.21168493
v -22.68396007 -31.19889363 91.22726821
v -25.72530844 -28.96754937 14.64460537
v -24.91784377 -29.64986244 14.64460537
v -24.32245500 -30.13854301 14.64460537
v -24.91784377 -29.65293634 87.97854147
v -23.80718550 -30.35983483 91.21168493
v -24.80002158 -29.55458314 91.21168493
v -24.91470053 -29.64986244 89.59122027
v -38.72958445 0.00607702 14.64460537
v -34.40948843 0.00607702 91.21168493
v -22.68396007 -25.89715209 92.82436373
v -22.79235545 -30.82392998 92.20889640
v -22.68396007 -30.85158929 92.26343210
v -26.06934531 -28.64791012 14.64460537
v -25.72530844 -28.96754937 87.97854147
v -25.72373682 -28.96754937 89.59122027
v -24.53767414 -29.33329421 92.34912859
v -25.60748624 -28.86612804 91.21168493
v -38.73115607 -0.80839348 14.64460537
v -38.72958445 0.00607702 87.97854147
v -34.46447193 0.00607702 92.82436373
v -22.68396007 -26.73621089 94.00076270
v -23.36889203 -29.84041528 92.81657209
v -22.68396007 -30.12625030 93.08145607
v -26.59089983 -28.16230346 14.64460537
v -26.59089983 -28.16230346 57.28315188
v -26.59089983 -28.15922956 87.97854147
v -26.48250446 -28.05780245 91.21168493
v -26.58932822 -28.15922956 89.59122027
v -23.94542861 -28.83231805 93.42424779
v -25.09221819 -28.31290138 92.91785186
v -26.20130339 -27.79348472 92.41145593
v -38.66203379 -2.42504033 14.64460537
v -38.73115607 -0.80839348 63.74164861
v -38.72958445 -0.80839348 87.97854147
v -38.72801283 0.00607702 89.59122027
v -34.74567010 0.00607702 93.43982818
v -35.03158313 0.00607702 94.05529551
v -23.29191600 -26.52106686 94.07087301
v -22.68396007 -28.27909427 94.06308426
v -22.68396007 -29.36095641 93.76704239
v -22.86933148 -29.26875100 93.74366458
v -27.39836450 -27.39700667 14.64460537
v -27.39836450 -27.39700667 87.97854147
v -27.28996912 -27.28636076 91.21168493
v -27.39679288 -27.39393277 89.59122027
v -25.64833096 -27.27099416 93.48657224
v -24.57066366 -27.75660371 93.79040864
v -26.73856831 -26.73621089 92.94901553
v -27.79581325 -26.19835372 92.41145593
v -38.60862191 -3.06739705 14.64460537
v -38.66203379 -2.42504033 87.97854147
v -38.72801283 -0.80839348 89.59122027
v -38.57563239 0.00607702 91.21168493
v -35.68666447 0.00607702 94.08645629
v -36.35117551 0.00607702 94.11761707
v -34.73624329 -8.88855381 94.21889973
v -28.27495144 -21.80943299 94.17995019
v -25.08279137 -26.70240089 94.00076270
v -23.41602033 -28.28524207 93.96180739
v -28.16341283 -26.58868397 14.64460537
v -28.16341283 -26.58868397 87.97854147
v -28.05973231 -26.48111196 91.21168493
v -28.16184122 -26.58561007 89.59122027
v -27.27583035 -25.64512706 93.48657224
v -26.19816304 -26.19527982 93.79819739
v -28.31579616 -25.09190040 92.91785186
v -29.33533673 -24.53560273 92.34912859
v -28.86876859 -25.60824605 91.21168493
v -38.52536086 -4.04168717 14.64460537
v -38.52536086 -4.04168717 87.97854147
v -38.65889344 -2.42504033 89.59122027
v -38.57563239 -0.80839348 91.21168493
v -37.86556467 0.00607702 92.82436373
v -37.23247442 0.00607702 93.69692052
v -36.35117551 -0.80839348 94.11761707
v -36.35117551 -2.42504033 94.08645629
v -36.19565184 -5.65526012 93.99296817
v -34.73624329 -10.50212676 94.14878363
v -33.11974234 -13.73542045 94.21110520
v -31.50481300 -16.96256635 94.19552770
v -29.88988078 -20.19278614 94.17215567
v -26.70557590 -25.08268159 94.00076270
v -28.97087750 -25.72503687 14.64460537
v -28.97244912 -25.72503687 65.36211616
v -28.97244912 -25.72503687 87.97854147
v -28.96930877 -25.72196297 89.59122027
v -28.83734780 -23.94549650 93.42424779
v -27.75968050 -24.56941272 93.79040864
v -30.82616318 -22.78987091 92.20889640
v -29.55684234 -24.79992046 91.21168493
v -29.84275248 -23.36768298 92.81657209
v -38.44524304 -4.68096928 14.64460537
v -38.32270888 -5.65526012 87.97854147
v -38.52222051 -4.04168717 89.59122027
v -38.50493850 -2.42504033 91.21168493
v -37.79958563 -2.42504033 92.82436373
v -37.86556467 -0.80839348 92.82436373
v -37.23247442 -0.80839348 93.69692052
v -36.47999325 -3.95563029 93.95401864
v -37.20105652 -2.42504033 93.66575974
v -37.17120734 -3.36244944 93.64238771
v -37.10365668 -4.44123840 93.58785200
v -36.04012816 -7.27190697 93.93843536
v -33.21871090 -15.39202221 94.00076270
v -35.86575374 -8.88855381 93.85273598
v -35.66781373 -10.50212676 93.72808708
v -34.78023124 -11.98354084 93.92285208
v -34.28852589 -13.73542045 93.86053051
v -31.57393239 -18.59458125 93.99296817
v -29.84275248 -21.69571463 93.87610801
v -28.28909022 -23.41378569 93.96180739
v -29.65423928 -24.91671417 36.28719268
v -29.65266767 -24.91671417 14.64460537
v -29.65266767 -24.91364027 89.59122027
v -29.65423928 -24.91671417 87.97854147
v -30.35016823 -22.15673588 93.28401560
v -29.27250093 -22.86670682 93.74366458
v -30.74918860 -21.08102010 93.67355427
v -31.10579263 -21.69571463 92.77761967
v -32.60447428 -19.86699766 92.42703632
v -32.27457330 -20.94271344 91.85831594
v -30.98011524 -22.99886713 91.21168493
v -30.36430701 -23.80718984 91.21168493
v -30.46013522 -23.93012845 89.59122027
v -38.32114015 -5.65526012 14.64460537
v -38.32270888 -5.65526012 18.51658819
v -38.04779428 -7.27190697 87.97854147
v -38.04465105 -7.27190697 89.59122027
v -38.31799692 -5.65526012 89.59122027
v -38.36826556 -4.04168717 91.21168493
v -37.58593522 -5.65526012 92.68412866
v -37.59065007 -3.95563029 92.95680428
v -37.00311650 -5.65526012 93.48657224
v -34.06545156 -14.88182579 93.73587583
v -32.75528310 -16.96256635 93.88389677
v -36.84916444 -7.27190697 93.29959599
v -35.55627801 -11.35347899 93.64238771
v -32.46937296 -18.06901678 93.74366458
v -31.02410320 -20.19278614 93.81378645
v -30.46170395 -23.93012845 14.64460537
v -30.46170395 -23.93012845 87.97854147
v -32.15832561 -19.14473256 93.50215552
v -31.90540210 -20.32187256 92.91006022
v -33.07575727 -18.50852364 92.80878045
v -33.98219050 -17.87231471 92.10761664
v -33.64600883 -18.88348728 91.21168493
v -32.77884870 -20.32187256 91.27401227
v -32.39082387 -21.12097501 90.77540510
v -31.87084096 -21.72030293 91.27401227
v -31.07280311 -23.12180575 89.59122027
v -31.07594346 -23.12180575 87.97854147
v -38.21274478 -6.29761612 14.64460537
v -38.04779428 -7.27190697 14.64460537
v -37.70218579 -8.88855381 87.97854147
v -37.91112135 -7.91426297 14.64460537
v -37.69904545 -8.88855381 89.59122027
v -37.54509050 -8.88855381 91.21168493
v -37.88913026 -7.27190697 91.21168493
v -38.16404486 -5.65526012 91.21168493
v -37.44769356 -7.27190697 92.48936366
v -35.34891118 -12.42919405 93.43982818
v -33.82352648 -15.95446768 93.54889958
v -36.67321841 -8.88855381 93.02692037
v -37.27803110 -8.88855381 92.22447968
v -37.17591930 -9.75527337 92.04529218
v -35.92230597 -11.98354084 92.87110780
v -30.70520064 -23.61048921 14.64460537
v -33.56431939 -16.96256635 93.22947990
v -34.20683645 -16.96256635 92.42703632
v -35.55941835 -14.58062561 92.04529218
v -34.64984189 -16.96256635 91.21168493
v -34.09215750 -18.07516314 91.21168493
v -33.73398184 -19.03716055 89.59122027
v -33.04590810 -20.19278614 89.59122027
v -32.43166859 -21.18244431 89.59122027
v -31.88026778 -21.99076702 89.59122027
v -31.88340812 -21.99384091 87.97854147
v -31.56293685 -22.44256946 14.64460537
v -31.07594346 -23.12180575 14.64460537
v -37.33458621 -10.32386519 87.97854147
v -37.33458621 -10.32079201 89.59122027
v -37.70218579 -8.88855381 15.28344473
v -37.70061706 -8.88855381 14.64460537
v -37.25918036 -10.04725330 91.21168493
v -35.72122561 -13.73542045 92.30238452
v -35.09756218 -13.73542045 93.10482810
v -34.69382984 -15.26908359 92.79320006
v -37.02668210 -10.85557601 91.21168493
v -36.62766173 -12.11877361 91.21168493
v -36.05583856 -13.73542045 91.21168493
v -35.64739137 -14.78347404 91.21168493
v -35.29392768 -15.59179818 91.21168493
v -35.37718874 -15.77620610 89.59122027
v -34.81636111 -16.96256635 89.59122027
v -34.17541566 -18.22883785 89.59122027
v -33.73555346 -19.04330835 87.97854147
v -33.04905133 -20.19278614 87.97854147
v -32.43324021 -21.18551821 87.97854147
v -32.10177050 -21.67420022 14.64460537
v -31.88340812 -21.99384091 14.64460537
v -37.10837153 -11.13218934 87.97854147
v -37.33458621 -10.32386519 14.64460537
v -37.19791328 -10.81254720 14.64460537
v -37.10679992 -11.12604154 89.59122027
v -37.55608893 -9.45714636 14.64460537
v -36.78789737 -12.11877361 89.59122027
v -36.21607419 -13.73542045 89.59122027
v -35.72593757 -14.97095586 89.59122027
v -35.72908081 -14.97402976 87.97854147
v -35.37876035 -15.77928000 87.97854147
v -34.81950434 -16.96256635 87.97854147
v -34.17698728 -18.23498420 87.97854147
v -33.73555346 -19.04330835 14.64460537
v -33.04905133 -20.19278614 14.64460537
v -32.80398302 -20.58926419 14.64460537
v -32.43324021 -21.18551821 14.64460537
v -36.79103771 -12.11877361 87.97854147
v -37.10837153 -11.13218934 14.64460537
v -36.98269414 -11.52559349 14.64460537
v -36.21921454 -13.73542045 87.97854147
v -35.72908081 -14.97402976 14.64460537
v -35.51700490 -15.46271177 14.64460537
v -34.82107596 -16.96256635 84.74539800
v -35.37876035 -15.77928000 14.64460537
v -35.15725764 -16.24952151 14.64460537
v -34.17698728 -18.23498420 14.64460537
v -36.79103771 -12.11877361 14.64460537
v -36.21921454 -13.73542045 29.82090575
v -36.02441776 -14.22717636 14.64460537
v -34.82107596 -16.96256635 14.64460537
v -36.56325141 -12.76112889 14.64460537
v -36.21764581 -13.73542045 14.64460537
f 1 2 3
f 1 3 4
f 1 4 9
f 1 9 18
f 1 18 30
f 1 30 41
f 1 41 59
f 1 59 60
f 1 60 43
f 1 43 32
f 1 32 20
f 1 20 10
f 1 10 5
f 1 5 7
f 1 7 2
f 2 6 3
f 2 7 14
f 2 14 6
f 3 8 16
f 3 16 23
f 3 23 22
f 3 22 21
f 3 21 33
f 3 33 44
f 3 44 62
f 3 62 80
f 3 80 103
f 3 103 133
f 3 133 160
f 3 160 187
f 3 187 199
f 3 199 198
f 3 198 220
f 3 220 219
f 3 219 236
f 3 236 235
f 3 235 234
f 3 234 233
f 3 233 246
f 3 246 250
f 3 250 245
f 3 245 244
f 3 244 242
f 3 242 241
f 3 241 249
f 3 249 252
f 3 252 251
f 3 251 247
f 3 247 239
f 3 239 238
f 3 238 223
f 3 223 222
f 3 222 225
f 3 225 203
f 3 203 175
f 3 175 173
f 3 173 172
f 3 172 145
f 3 145 112
f 3 112 89
f 3 89 70
f 3 70 52
f 3 52 38
f 3 38 28
f 3 28 17
f 3 17 9
f 3 9 4
f 3 6 8
f 5 10 11
f 5 11 7
f 6 12 13
f 6 13 8
f 6 14 24
f 6 24 12
f 7 11 15
f 7 15 14
f 8 13 16
f 9 17 29
f 9 29 18
f 10 19 11
f 10 20 19
f 11 19 15
f 12 21 22
f 12 22 23
f 12 23 13
f 12 24 34
f 12 34 21
f 13 23 16
f 14 15 24
f 15 19 25
f 15 25 26
f 15 26 27
f 15 27 24
f 17 28 39
f 17 39 55
f 17 55 73
f 17 73 93
f 17 93 94
f 17 94 75
f 17 75 74
f 17 74 57
f 17 57 56
f 17 56 40
f 17 40 29
f 18 29 30
f 19 20 31
f 19 31 25
f 20 32 31
f 21 34 33
f 24 27 35
f 24 35 34
f 25 31 26
f 26 31 36
f 26 36 37
f 26 37 35
f 26 35 27
f 28 38 53
f 28 53 39
f 29 40 30
f 30 40 41
f 31 42 36
f 31 32 43
f 31 43 42
f 33 34 45
f 33 45 44
f 34 35 48
f 34 48 46
f 34 46 45
f 35 37 47
f 35 47 48
f 36 42 49
f 36 49 50
f 36 50 51
f 36 51 37
f 37 51 47
f 38 52 71
f 38 71 53
f 39 53 54
f 39 54 72
f 39 72 55
f 40 56 41
f 41 56 57
f 41 57 58
f 41 58 59
f 42 43 49
f 43 60 61
f 43 61 49
f 44 45 63
f 44 63 62
f 45 46 63
f 46 48 63
f 47 51 64
f 47 64 65
f 47 65 48
f 48 65 63
f 49 66 50
f 49 61 67
f 49 67 66
f 50 66 51
f 51 66 68
f 51 68 69
f 51 69 64
f 52 70 71
f 53 71 54
f 54 71 72
f 55 72 92
f 55 92 73
f 57 74 58
f 58 74 75
f 58 75 76
f 58 76 77
f 58 77 59
f 59 77 78
f 59 78 79
f 59 79 60
f 60 79 61
f 61 79 67
f 62 63 81
f 62 81 80
f 63 65 83
f 63 83 81
f 64 69 82
f 64 82 65
f 65 82 83
f 66 84 68
f 66 67 85
f 66 85 84
f 67 79 78
f 67 78 85
f 68 84 69
f 69 84 86
f 69 86 87
f 69 87 88
f 69 88 82
f 70 89 90
f 70 90 71
f 71 90 114
f 71 114 91
f 71 91 72
f 72 91 92
f 73 92 117
f 73 117 93
f 75 94 118
f 75 118 95
f 75 95 76
f 76 95 96
f 76 96 97
f 76 97 98
f 76 98 99
f 76 99 77
f 77 99 100
f 77 100 101
f 77 101 102
f 77 102 78
f 78 102 85
f 80 81 105
f 80 105 104
f 80 104 103
f 81 83 105
f 82 88 106
f 82 106 83
f 83 106 105
f 84 107 86
f 84 85 108
f 84 108 107
f 85 102 108
f 86 107 87
f 87 109 110
f 87 110 88
f 87 107 111
f 87 111 109
f 88 110 106
f 89 112 90
f 90 113 114
f 90 112 113
f 91 114 150
f 91 150 115
f 91 115 92
f 92 115 116
f 92 116 117
f 93 117 118
f 93 118 94
f 95 118 96
f 96 119 97
f 96 118 120
f 96 120 121
f 96 121 119
f 97 119 121
f 97 121 122
f 97 122 123
f 97 123 98
f 98 124 99
f 98 123 125
f 98 125 126
f 98 126 127
f 98 127 128
f 98 128 124
f 99 124 100
f 100 124 129
f 100 129 101
f 101 129 130
f 101 130 131
f 101 131 102
f 102 131 108
f 103 132 133
f 103 104 132
f 104 105 135
f 104 135 132
f 105 106 134
f 105 134 135
f 106 110 134
f 107 136 111
f 107 108 137
f 107 137 138
f 107 138 136
f 108 131 137
f 109 111 136
f 109 136 139
f 109 139 140
f 109 140 141
f 109 141 142
f 109 142 143
f 109 143 110
f 110 143 144
f 110 144 134
f 112 145 146
f 112 146 113
f 113 147 148
f 113 148 149
f 113 149 114
f 113 146 173
f 113 173 147
f 114 149 179
f 114 179 150
f 115 150 116
f 116 150 151
f 116 151 152
f 116 152 121
f 116 121 120
f 116 120 117
f 117 120 118
f 121 152 122
f 122 152 151
f 122 151 153
f 122 153 125
f 122 125 123
f 124 128 154
f 124 154 155
f 124 155 129
f 125 153 126
f 126 153 156
f 126 156 157
f 126 157 127
f 127 157 128
f 128 157 154
f 129 155 158
f 129 158 159
f 129 159 130
f 130 159 138
f 130 138 137
f 130 137 131
f 132 160 133
f 132 135 161
f 132 161 160
f 134 144 135
f 135 144 161
f 136 138 139
f 138 162 163
f 138 163 139
f 138 159 158
f 138 158 162
f 139 163 140
f 140 163 162
f 140 162 164
f 140 164 165
f 140 165 141
f 141 166 167
f 141 167 168
f 141 168 169
f 141 169 142
f 141 165 166
f 142 169 168
f 142 168 170
f 142 170 144
f 142 144 143
f 144 170 171
f 144 171 161
f 145 172 146
f 146 172 173
f 147 174 176
f 147 176 148
f 147 173 175
f 147 175 174
f 148 176 177
f 148 177 178
f 148 178 179
f 148 179 149
f 150 179 151
f 151 179 180
f 151 180 153
f 153 180 156
f 154 157 181
f 154 181 182
f 154 182 158
f 154 158 155
f 156 183 157
f 156 180 184
f 156 184 183
f 157 183 184
f 157 184 185
f 157 185 186
f 157 186 181
f 158 182 162
f 160 161 187
f 161 171 187
f 162 182 188
f 162 188 164
f 164 188 165
f 165 188 189
f 165 189 190
f 165 190 191
f 165 191 192
f 165 192 166
f 166 192 193
f 166 193 168
f 166 168 167
f 168 193 194
f 168 194 195
f 168 195 196
f 168 196 170
f 170 196 197
f 170 197 171
f 171 197 198
f 171 198 199
f 171 199 187
f 174 200 201
f 174 201 176
f 174 175 202
f 174 202 222
f 174 222 200
f 175 203 202
f 176 201 204
f 176 204 177
f 177 204 185
f 177 185 178
f 178 185 184
f 178 184 179
f 179 184 180
f 181 186 205
f 181 205 206
f 181 206 182
f 182 206 205
f 182 205 207
f 182 207 189
f 182 189 188
f 185 204 208
f 185 208 209
f 185 209 190
f 185 190 205
f 185 205 186
f 189 207 190
f 190 207 205
f 190 209 210
f 190 210 211
f 190 211 212
f 190 212 191
f 191 212 213
f 191 213 214
f 191 214 192
f 192 214 215
f 192 215 193
f 193 215 232
f 193 232 216
f 193 216 194
f 194 216 217
f 194 217 218
f 194 218 195
f 195 218 197
f 195 197 196
f 197 218 219
f 197 219 220
f 197 220 198
f 200 221 201
f 200 222 223
f 200 223 221
f 201 221 224
f 201 224 204
f 202 203 225
f 202 225 222
f 204 224 208
f 208 224 209
f 209 224 226
f 209 226 227
f 209 227 210
f 210 227 211
f 211 227 228
f 211 228 213
f 211 213 212
f 213 228 229
f 213 229 230
f 213 230 231
f 213 231 214
f 214 231 232
f 214 232 215
f 216 232 246
f 216 246 233
f 216 233 234
f 216 234 217
f 217 234 235
f 217 235 218
f 218 235 236
f 218 236 219
f 221 237 226
f 221 226 224
f 221 223 238
f 221 238 239
f 221 239 237
f 226 237 240
f 226 240 227
f 227 240 229
f 227 229 228
f 229 240 248
f 229 248 241
f 229 241 242
f 229 242 230
f 230 243 231
f 230 242 244
f 230 244 245
f 230 245 243
f 231 243 232
f 232 243 250
f 232 250 246
f 237 239 247
f 237 247 248
f 237 248 240
f 241 248 249
f 243 245 250
f 247 251 248
f 248 251 252
f 248 252 249

