# https://github.com/mikedh/trimesh
v 5.46888262 -36.22714774 93.99276016
v 3.95329886 -36.47993836 93.95381063
v 3.36084388 -37.17165802 93.64217970
v 4.43553117 -37.10374335 93.58764400
v 5.46888262 -36.33404950 93.93043282
v 5.46888262 -34.66763814 93.96938813
v 4.03872378 -34.92671812 94.03171547
v 2.42118206 -36.35165509 94.08624828
v 2.42118206 -37.20058272 93.66555173
v 2.42118206 -37.79923606 92.82415861
v 3.95329886 -37.59046228 92.95659916
v 5.46888262 -37.01822310 93.50194751
v 5.46888262 -37.58668925 92.70729846
v -22.68239135 -26.73928767 94.00055469
v -21.80886386 -28.27490233 94.17973641
v 5.46888262 -34.00861910 92.97997119
v -22.68239135 -25.90042244 92.82415861
v -8.88507040 -34.73554993 94.22648047
v 0.80639718 -36.35165509 94.12520360
v 0.80639718 -37.23202662 93.69671251
v 0.80639718 -37.86589112 92.82415861
v 0.80639718 -38.57647598 91.21148559
v 2.42118206 -38.50604498 91.21148559
v 4.03872378 -38.36895892 91.21148559
v 5.46888262 -37.67598254 92.51253057
v -22.68239135 -28.28244841 94.06287625
v -20.19407897 -29.88975077 94.17194766
v -16.96175310 -31.50585593 94.19531969
v -13.73218188 -33.12070437 94.21089719
v 5.46888262 -34.00107302 92.82415861
v 5.46888262 -33.97591848 91.54648566
v -22.68239135 -25.88407068 91.21148559
v -10.49985528 -34.73554993 94.14857563
v -5.65549991 -36.19570673 93.99276016
v -2.42592942 -36.35165509 94.08624828
v -0.80838843 -36.35165509 94.11740907
v -0.80838843 -37.23202662 93.69671251
v -0.80838843 -37.86589112 92.82415861
v -0.80838843 -38.57521637 91.21148559
v -0.80838843 -38.72739459 89.59102382
v 0.80639718 -38.72739459 89.59102382
v 2.42118206 -38.65822320 89.59102382
v 4.03872378 -38.52239385 89.59102382
v 5.46888262 -38.34254766 89.59102382
v 5.46888262 -38.18785313 91.21148559
v -21.69588363 -29.84195800 93.87590001
v -22.68239135 -29.36278515 93.76683438
v -18.59582641 -31.57502732 93.99276016
v -15.38830117 -33.21880046 94.00834344
v -22.68239135 -25.88281397 89.59102382
v 5.46888262 -33.97591848 14.63681661
v -13.73218188 -34.28907769 93.86032250
v -11.97961613 -34.77956966 93.92264407
v -10.49985528 -35.66748438 93.72787907
v -8.88507040 -35.86493904 93.85252798
v -7.27304090 -36.04101219 93.93822735
v -4.44027744 -37.10374335 93.58764400
v -3.36283512 -37.17165802 93.64217970
v -3.95804622 -36.47993836 93.95381063
v -2.42592942 -37.20058272 93.66555173
v -2.42592942 -37.79797645 92.82415861
v -2.42592942 -38.50478827 91.21148559
v -2.42592942 -38.65822320 89.59102382
v -2.42592942 -38.66199623 87.97835079
v -0.80838843 -38.72991091 87.97835079
v 0.80639718 -38.72991091 87.97835079
v 2.42118206 -38.66199623 87.97835079
v 4.03872378 -38.52616689 87.97835079
v 5.46888262 -38.34506398 87.97835079
v -21.07862801 -30.74999463 93.67334626
v -20.19407897 -31.02542636 93.81357844
v -22.68239135 -30.12996556 93.08125095
v -22.15606997 -30.34879884 93.28380759
v -18.06675036 -32.46923140 93.74345657
v -16.96175310 -32.75597935 93.88368876
v -14.87851355 -34.06647137 93.73566782
v -22.68239135 -25.88281397 14.63681661
v 5.46888262 -38.34506398 14.63681661
v -11.35133752 -35.55680958 93.64217970
v -7.27304090 -36.84843642 93.29939087
v -5.65549991 -37.00313095 93.48636712
v -5.65549991 -37.58542964 92.67613479
v -3.95804622 -37.59046228 92.95659916
v -4.04071430 -38.36895892 91.21148559
v -4.04071430 -38.52239385 89.59102382
v -4.04071430 -38.52616689 87.97835079
v -2.42592942 -38.66199623 14.63681661
v -1.45044469 -38.70349964 14.63681661
v 0.80639718 -38.73116762 60.50838525
v -0.80838843 -38.72991091 14.63681661
v 1.78188190 -38.68966421 14.63681661
v 2.42118206 -38.66199623 14.63681661
v 3.39666679 -38.58024902 14.63681661
v 4.03872378 -38.52616689 14.63681661
v -21.69588363 -31.10717358 92.77741455
v -20.32083685 -31.90705172 92.90985510
v -19.14419232 -32.15858562 93.50194751
v -22.68239135 -30.85438296 92.26322987
v -15.95595551 -33.82248355 93.54869157
v -12.42877948 -35.34803581 93.43962306
v -22.68239135 -31.39266481 14.63681661
v -11.97961613 -35.92279132 92.87090268
v -9.75033029 -37.17543106 92.04508995
v -8.88507040 -37.27730307 92.22427456
v -8.88507040 -36.67361998 93.02671525
v -7.27304090 -37.44834358 92.49695018
v -5.65549991 -38.16395819 91.21148559
v -5.65549991 -38.31865272 89.59102382
v -5.65549991 -38.32242576 87.97835079
v -4.04071430 -38.52616689 21.74192268
v -3.06522994 -38.60791699 14.63681661
v 0.80639718 -38.73116762 14.63681661
v -19.86616129 -32.60505786 92.42683409
v -18.50764682 -33.07542793 92.80078658
v -16.96175310 -33.56340358 93.22927478
v -22.68239135 -31.20149951 91.22706598
v -20.94360469 -32.27554978 91.85811371
v -16.96175310 -34.20733047 92.42683409
v -14.57815262 -35.56058262 92.04508995
v -13.73218188 -35.72156362 92.30218229
v -13.73218188 -35.09650191 93.10462299
v -21.99348846 -31.88441350 14.63681661
v -22.68239135 -31.39266481 87.97835079
v -12.11464089 -36.62834353 91.21148559
v -10.85257289 -37.02702589 91.21148559
v -10.04518045 -37.25843788 91.21148559
v -8.88507040 -37.54518584 91.21148559
v -7.27304090 -37.88852935 91.21148559
v -7.27304090 -38.04448060 89.59102382
v -7.27304090 -38.04825363 87.97835079
v -5.65549991 -38.32242576 28.20819228
v -4.68277057 -38.44441967 14.63681661
v -4.04071430 -38.52491017 14.63681661
v -17.87110133 -33.98220784 92.10741441
v -21.71792961 -31.87183767 91.27381004
v -22.68239135 -31.38889177 89.59102382
v -21.11996097 -32.38999762 90.77520575
v -20.32083685 -32.77987429 91.27381004
v -18.88240968 -33.64515079 91.21148559
v -16.96175310 -34.65002967 91.21148559
v -15.58945953 -35.29395657 91.21148559
v -14.77931098 -35.64610287 91.21148559
v -13.73218188 -36.05610434 91.21148559
v -21.67383765 -32.10324967 14.63681661
v -21.99348846 -31.88441350 87.97835079
v -22.68239135 -31.39140810 88.60939563
v -12.11464089 -36.78806782 89.59102382
v -11.12262240 -37.10625967 89.59102382
v -10.31522996 -37.33515535 89.59102382
v -8.88507040 -37.69987748 89.59102382
v -8.88507040 -37.70365052 87.97835079
v -7.27304090 -38.04825363 14.63681661
v -6.29755618 -38.21300767 14.63681661
v -5.65549991 -38.32116615 14.63681661
v -18.07501724 -34.09162303 91.21148559
v -21.99073235 -31.88189718 89.59102382
v -21.18333991 -32.43150103 89.59102382
v -20.19407897 -33.04524363 89.59102382
v -19.03672431 -33.73318737 89.59102382
v -16.96175310 -34.81730003 89.59102382
v -15.77408558 -35.37696339 89.59102382
v -14.96669313 -35.72659626 89.59102382
v -13.73218188 -36.21582863 89.59102382
v -21.18609601 -32.43401446 14.63681661
v -21.18609601 -32.43401446 87.97835079
v -12.11464089 -36.79058414 87.97835079
v -11.13088929 -37.10877311 87.97835079
v -10.32349684 -37.33641206 87.97835079
v -8.88507040 -37.70365052 55.66257743
v -7.91234106 -37.91116757 14.63681661
v -18.22933187 -34.17588946 89.59102382
v -20.19407897 -33.04901666 87.97835079
v -19.04223509 -33.73570369 87.97835079
v -18.23484264 -34.17840289 87.97835079
v -16.96175310 -34.82107307 87.97835079
v -15.77959635 -35.37822011 87.97835079
v -14.97220391 -35.72910970 87.97835079
v -13.73218188 -36.21834495 87.97835079
v -20.58813026 -32.80502884 14.63681661
v -13.73218188 -36.21960167 71.82046267
v -12.75669716 -36.56420190 14.63681661
v -12.11464089 -36.79058414 14.63681661
v -11.13088929 -37.10877311 28.20819228
v -10.32349684 -37.33641206 42.74561719
v -8.88507040 -37.70239380 21.74192268
v -8.88507040 -37.70113709 14.63681661
v -20.19407897 -33.04901666 14.63681661
v -19.04223509 -33.73570369 14.63681661
v -18.23484264 -34.17840289 50.82456017
v -16.96175310 -34.82107307 49.21188787
v -15.77959635 -35.37822011 14.63681661
v -14.97220391 -35.72910970 14.63681661
v -13.73218188 -36.21960167 42.74561719
v -13.73218188 -36.21834495 14.63681661
v -11.51942980 -36.98300616 14.63681661
v -11.12813390 -37.10877311 14.63681661
v -10.32074073 -37.33515535 14.63681661
v -9.45548085 -37.55650495 14.63681661
v -18.72258573 -33.91052013 14.63681661
v -18.23484264 -34.17714617 14.63681661
v -17.46878461 -34.56450653 14.63681661
v -16.96175310 -34.81981347 14.63681661
f 1 2 3
f 1 3 4
f 1 4 5
f 1 5 12
f 1 12 13
f 1 13 25
f 1 25 45
f 1 45 44
f 1 44 69
f 1 69 78
f 1 78 51
f 1 51 31
f 1 31 30
f 1 30 16
f 1 16 6
f 1 6 7
f 1 7 8
f 1 8 2
f 2 8 3
f 3 9 10
f 3 10 11
f 3 11 4
f 3 8 9
f 4 12 5
f 4 11 13
f 4 13 12
f 6 14 15
f 6 15 7
f 6 16 17
f 6 17 14
f 7 15 18
f 7 18 19
f 7 19 8
f 8 19 20
f 8 20 9
f 9 20 21
f 9 21 10
f 10 21 22
f 10 22 23
f 10 23 24
f 10 24 25
f 10 25 13
f 10 13 11
f 14 26 15
f 14 17 32
f 14 32 50
f 14 50 77
f 14 77 101
f 14 101 123
f 14 123 146
f 14 146 136
f 14 136 116
f 14 116 98
f 14 98 72
f 14 72 47
f 14 47 26
f 15 27 28
f 15 28 29
f 15 29 18
f 15 26 27
f 16 30 17
f 17 30 31
f 17 31 32
f 18 29 33
f 18 33 34
f 18 34 35
f 18 35 36
f 18 36 19
f 19 36 37
f 19 37 20
f 20 37 38
f 20 38 21
f 21 38 22
f 22 39 40
f 22 40 41
f 22 41 42
f 22 42 23
f 22 38 39
f 23 42 43
f 23 43 24
f 24 43 44
f 24 44 45
f 24 45 25
f 26 46 27
f 26 47 46
f 27 46 48
f 27 48 49
f 27 49 28
f 28 49 29
f 29 49 33
f 31 50 32
f 31 51 77
f 31 77 50
f 33 49 52
f 33 52 53
f 33 53 54
f 33 54 55
f 33 55 56
f 33 56 34
f 34 56 57
f 34 57 58
f 34 58 59
f 34 59 35
f 35 59 58
f 35 58 60
f 35 60 37
f 35 37 36
f 37 60 38
f 38 61 39
f 38 60 61
f 39 62 63
f 39 63 40
f 39 61 62
f 40 63 64
f 40 64 65
f 40 65 66
f 40 66 41
f 41 66 67
f 41 67 42
f 42 67 68
f 42 68 43
f 43 68 44
f 44 68 69
f 46 47 70
f 46 70 71
f 46 71 48
f 47 72 73
f 47 73 70
f 48 71 74
f 48 74 75
f 48 75 49
f 49 75 76
f 49 76 52
f 51 78 94
f 51 94 93
f 51 93 92
f 51 92 91
f 51 91 112
f 51 112 90
f 51 90 88
f 51 88 87
f 51 87 111
f 51 111 133
f 51 133 132
f 51 132 154
f 51 154 153
f 51 153 152
f 51 152 170
f 51 170 186
f 51 186 198
f 51 198 197
f 51 197 196
f 51 196 195
f 51 195 182
f 51 182 181
f 51 181 194
f 51 194 192
f 51 192 191
f 51 191 202
f 51 202 201
f 51 201 200
f 51 200 199
f 51 199 188
f 51 188 187
f 51 187 179
f 51 179 164
f 51 164 144
f 51 144 122
f 51 122 101
f 51 101 77
f 52 76 79
f 52 79 53
f 53 79 54
f 54 79 80
f 54 80 81
f 54 81 55
f 55 81 57
f 55 57 56
f 57 81 82
f 57 82 83
f 57 83 58
f 58 83 61
f 58 61 60
f 61 82 84
f 61 84 62
f 61 83 82
f 62 84 85
f 62 85 63
f 63 85 86
f 63 86 64
f 64 86 110
f 64 110 87
f 64 87 88
f 64 88 65
f 65 89 66
f 65 88 90
f 65 90 112
f 65 112 89
f 66 89 67
f 67 89 91
f 67 91 92
f 67 92 93
f 67 93 68
f 68 93 94
f 68 94 78
f 68 78 69
f 70 74 71
f 70 73 95
f 70 95 96
f 70 96 97
f 70 97 74
f 72 98 73
f 73 98 95
f 74 97 99
f 74 99 76
f 74 76 75
f 76 99 100
f 76 100 79
f 79 100 102
f 79 102 103
f 79 103 104
f 79 104 105
f 79 105 80
f 80 105 104
f 80 104 106
f 80 106 81
f 81 106 82
f 82 106 107
f 82 107 84
f 84 107 108
f 84 108 85
f 85 108 109
f 85 109 86
f 86 109 131
f 86 131 110
f 87 110 111
f 89 112 91
f 95 98 113
f 95 113 96
f 96 113 97
f 97 113 114
f 97 114 115
f 97 115 99
f 98 116 117
f 98 117 113
f 99 115 118
f 99 118 119
f 99 119 120
f 99 120 121
f 99 121 100
f 100 121 120
f 100 120 102
f 101 122 145
f 101 145 123
f 102 120 103
f 103 120 119
f 103 119 124
f 103 124 125
f 103 125 126
f 103 126 127
f 103 127 128
f 103 128 104
f 104 128 107
f 104 107 106
f 107 128 129
f 107 129 108
f 108 129 130
f 108 130 109
f 109 130 152
f 109 152 131
f 110 131 132
f 110 132 133
f 110 133 111
f 113 117 134
f 113 134 114
f 114 134 115
f 115 134 118
f 116 135 117
f 116 136 137
f 116 137 135
f 117 135 137
f 117 137 138
f 117 138 139
f 117 139 134
f 118 134 119
f 119 134 140
f 119 140 141
f 119 141 142
f 119 142 143
f 119 143 124
f 122 144 145
f 123 145 146
f 124 143 163
f 124 163 147
f 124 147 148
f 124 148 125
f 125 148 126
f 126 148 149
f 126 149 150
f 126 150 127
f 127 150 129
f 127 129 128
f 129 150 151
f 129 151 130
f 130 151 169
f 130 169 152
f 131 152 153
f 131 153 154
f 131 154 132
f 134 139 155
f 134 155 140
f 136 146 145
f 136 145 156
f 136 156 137
f 137 156 157
f 137 157 158
f 137 158 159
f 137 159 139
f 137 139 138
f 139 159 155
f 140 155 160
f 140 160 161
f 140 161 141
f 141 161 142
f 142 161 162
f 142 162 163
f 142 163 143
f 144 164 165
f 144 165 145
f 145 165 157
f 145 157 156
f 147 163 178
f 147 178 166
f 147 166 167
f 147 167 148
f 148 167 149
f 149 167 168
f 149 168 151
f 149 151 150
f 151 168 184
f 151 184 169
f 152 169 170
f 155 159 171
f 155 171 160
f 157 165 158
f 158 165 172
f 158 172 173
f 158 173 159
f 159 173 174
f 159 174 171
f 160 171 174
f 160 174 175
f 160 175 176
f 160 176 161
f 161 176 177
f 161 177 162
f 162 177 163
f 163 177 178
f 164 179 165
f 165 179 172
f 166 178 180
f 166 180 181
f 166 181 182
f 166 182 183
f 166 183 167
f 167 183 184
f 167 184 168
f 169 184 185
f 169 185 170
f 170 185 186
f 172 179 187
f 172 187 188
f 172 188 173
f 173 188 189
f 173 189 174
f 174 189 190
f 174 190 175
f 175 190 191
f 175 191 176
f 176 191 192
f 176 192 177
f 177 180 178
f 177 192 193
f 177 193 180
f 180 193 181
f 181 193 194
f 182 195 183
f 183 195 196
f 183 196 184
f 184 196 197
f 184 197 198
f 184 198 185
f 185 198 186
f 188 199 189
f 189 199 200
f 189 200 201
f 189 201 190
f 190 201 202
f 190 202 191
f 192 194 193

