# https://github.com/mikedh/trimesh
v 34.40785903 0.00607557 14.64273907
v 31.53979593 0.00902236 3.44629976
v 38.72928688 0.00607557 14.64273907
v 34.40785903 0.00607557 89.58779391
v 20.77752749 23.46646520 3.44629976
v 38.72577097 0.00902236 3.44629976
v 34.40961555 0.00607557 91.20505756
v 34.43597769 0.00607557 92.01368938
v 38.72928688 0.00902236 3.97057862
v 38.73104340 0.81048223 3.97057862
v 38.72928688 0.00607557 87.97053026
v 24.36787879 30.10797736 77.56494963
v 24.36787879 30.10797736 76.65857130
v 24.36787879 30.10503058 14.64273907
v 30.81047879 23.46646520 3.44629976
v 34.46409636 0.00607557 92.82231543
v 24.36787879 24.32980463 92.82231543
v 24.36787879 25.14599408 94.00416594
v 24.36787879 26.62810730 94.02193909
v 24.36787879 27.85092387 93.81755949
v 24.36787879 28.64354484 93.23107463
v 24.36787879 29.40670087 92.41356201
v 24.36787879 29.90761348 91.20505756
v 24.36787879 30.09913701 89.58779391
v 24.36787879 30.10503058 88.87690860
v 38.72577097 0.81048223 3.44629976
v 38.70644065 1.33202087 3.44629976
v 38.66250470 2.42518911 3.97057862
v 38.73104340 0.81048223 87.97053026
v 38.72577097 0.00607557 89.58779391
v 24.91794199 29.65126072 87.97053026
v 24.91794199 29.65126072 41.14097776
v 24.91618548 29.65126072 14.64273907
v 31.07232932 23.11877230 3.44629976
v 25.72282967 28.96766493 14.64273907
v 26.06727678 28.64649162 14.64273907
v 26.59273724 28.15441648 14.64273907
v 27.39938143 27.39715690 14.64273907
v 28.16208967 26.58685523 14.64273907
v 28.97048748 25.72057047 14.64273907
v 29.65587157 24.91321848 14.64273907
v 30.81223530 23.46646520 3.97057862
v 35.03173336 0.00607557 94.05747960
v 24.93375928 24.92795239 94.08413931
v 25.08313805 26.69882430 93.99527937
v 28.27456143 21.81050770 94.17299925
v 24.57173548 27.75663549 93.78201320
v 25.64901854 27.26751002 93.47988709
v 25.09368291 28.31058440 92.91118115
v 24.53834728 29.33303709 92.34246944
v 24.80195432 29.55402845 91.20505756
v 24.91618548 29.64831683 89.58779391
v 38.65899167 2.42518911 3.44629976
v 38.52367079 4.04284205 3.44629976
v 38.52542730 4.03989527 14.64273907
v 38.66250470 2.42518911 14.64273907
v 38.66074818 2.42518911 87.97053026
v 38.65723227 2.42518911 89.58779391
v 38.72577097 0.81048223 89.58779391
v 38.65195984 0.00607557 90.38753916
v 25.72458618 28.96766493 89.58779391
v 25.72634270 28.96766493 87.97053026
v 25.72634270 28.96766493 57.27806723
v 25.72458618 28.96766493 23.36885149
v 31.88073002 21.99319378 3.44629976
v 31.07232932 23.12171908 8.82236956
v 26.59273724 28.15736326 18.51705910
v 28.16384618 26.58685523 24.97723001
v 27.39938143 27.39715690 87.97053026
v 28.97048748 25.72057047 87.97053026
v 30.46075636 23.92612718 14.64273907
v 29.65587157 24.91321848 87.97053026
v 30.46075636 23.92907252 47.59225903
v 30.81223530 23.46646520 14.64273907
v 31.07584523 23.11877230 29.82901951
v 36.35153375 0.00607557 94.11968560
v 34.73473523 8.88990803 94.22631869
v 26.70521189 25.07822386 93.99527937
v 26.19732523 26.19201814 93.79089977
v 29.88960344 20.18990725 94.16411268
v 33.11793382 13.73697474 94.20854554
v 31.50464833 16.96049494 94.19077240
v 27.27460541 25.64396279 93.47988709
v 26.73860009 26.73123602 92.94672166
v 26.20083826 27.78904432 92.40467544
v 25.60859851 28.86158942 91.20505756
v 38.31629818 5.65754893 3.44629976
v 38.32157061 5.65754893 3.97057862
v 38.32157061 5.66049499 14.64273907
v 38.52542730 4.03989527 87.97053026
v 38.52191428 4.03989527 89.58779391
v 38.50434047 2.42518911 91.20505756
v 38.57463568 0.81048223 91.20505756
v 38.57463568 0.00607557 91.20505756
v 26.58922421 28.15736326 89.58779391
v 26.59273724 28.15736326 87.97053026
v 26.48026548 28.05423743 91.20505756
v 32.43430914 21.18583889 3.97057862
v 32.43079322 21.18289211 3.44629976
v 31.88073002 21.99319378 87.97053026
v 28.16384618 26.58685523 87.97053026
v 27.39586551 27.39421012 89.58779391
v 28.16208967 26.58390845 89.58779391
v 28.97048748 25.71762369 89.58779391
v 29.65235565 24.91027169 89.58779391
v 30.45899984 23.92612718 89.58779391
v 30.46075636 23.92907252 87.97053026
v 31.07584523 23.11877230 87.97053026
v 36.35153375 0.81048223 94.11968560
v 37.23198618 0.00607557 93.69315326
v 36.35153375 2.42518911 94.08413931
v 36.19336952 5.66049499 93.98639280
v 34.73473523 10.50756098 94.14633954
v 28.28861932 23.41342745 93.95973308
v 27.75964583 24.56847380 93.78201320
v 33.21634769 15.38704012 94.00416594
v 31.57142762 18.59288107 93.98639280
v 29.84039794 21.69559184 93.87087314
v 28.83692601 23.94085821 93.41768686
v 28.31673798 25.08706421 92.91118115
v 27.79654995 26.19496492 92.40467544
v 27.28866330 27.28518783 91.20505756
v 38.04390280 7.27520188 3.44629976
v 38.04741871 7.27520188 3.97057862
v 38.32157061 5.66049499 87.97053026
v 38.31629818 5.66049499 89.58779391
v 38.36901959 4.03989527 91.20505756
v 37.79786667 2.42518911 92.82231543
v 37.86464885 0.81048223 92.82231543
v 38.22315674 0.00607557 92.01368938
v 33.04939512 20.19285404 3.97057862
v 33.04412269 20.19285404 3.44629976
v 32.43430914 21.18583889 14.64273907
v 31.88073002 21.99024700 89.58779391
v 32.43430914 21.18289211 87.97053026
v 28.06015988 26.47488905 91.20505756
v 28.86856058 25.60565750 91.20505756
v 29.55570118 24.79535584 91.20505756
v 30.36234248 23.80237098 91.20505756
v 30.97918787 22.99501898 91.20505756
v 31.07232932 23.11877230 89.58779391
v 37.23198618 0.81048223 93.69315326
v 37.55007692 0.00607557 93.25773434
v 37.20035449 2.42518911 93.65760697
v 37.17047931 3.36808372 93.63983383
v 36.47806628 3.96033864 93.95973308
v 36.04047484 7.27225509 93.93307337
v 37.10194061 4.44357199 93.58652017
v 35.86473681 8.88990803 93.84421343
v 35.66790907 10.50756098 93.71981297
v 34.77866829 11.98672669 93.91530600
v 34.28835544 13.73697474 93.85310000
v 29.27276094 22.86242388 93.73758034
v 34.06692495 14.88318074 93.72869377
v 32.75415350 16.96049494 93.87975971
v 32.46945674 18.06839565 93.73758034
v 31.02312093 20.18990725 93.80867292
v 30.74896903 21.07681660 93.66649354
v 30.34828460 22.15230560 93.27550749
v 29.84039794 23.36333648 92.81343464
v 29.33602720 24.53311529 92.34246944
v 37.93318755 7.79379373 3.44629976
v 37.69945569 8.88696197 3.44629976
v 37.70121220 8.88696197 3.97057862
v 37.70296871 8.88696197 7.20510591
v 37.70296871 8.88990803 14.64273907
v 38.04741871 7.27520188 14.64273907
v 38.04741871 7.27225509 87.97053026
v 38.04214628 7.27225509 89.58779391
v 38.16164988 5.66049499 91.20505756
v 37.44814713 7.27225509 92.49353538
v 37.58346801 5.66049499 92.67125526
v 37.59049406 3.96033864 92.95560823
v 37.86464885 0.00607557 92.82231543
v 33.73477921 19.04075447 3.97057862
v 33.51158931 19.41202019 3.44629976
v 33.04939512 20.19285404 14.64273907
v 33.46238093 19.50041645 14.64273907
v 32.39037319 21.11806867 90.76963865
v 32.43079322 21.17994677 89.58779391
v 33.04412269 20.18990725 89.58779391
v 33.04763861 20.18990725 87.97053026
v 30.82453667 22.78876009 92.20029584
v 32.27438551 20.94127616 91.85373687
v 31.86842865 21.71621788 91.26725779
v 37.00177023 5.66049499 93.47988709
v 36.84711903 7.27225509 93.29328063
v 35.55719382 11.35911327 93.63983383
v 35.34806470 12.43460226 93.43545423
v 33.82088882 15.95572295 93.54208731
v 32.15664132 19.14093786 93.49766023
v 31.90357625 20.31955558 92.90229458
v 31.10572041 21.69559184 92.76900178
v 37.58346801 9.34956929 3.44629976
v 37.33391597 10.32487562 3.97057862
v 37.33567248 10.32782168 14.64273907
v 37.70296871 8.88990803 87.97053026
v 37.69769628 8.88990803 89.58779391
v 37.54480449 8.88990803 91.20505756
v 37.88749509 7.27225509 91.20505756
v 37.27592213 8.88990803 92.21806321
v 34.17588368 18.23340248 3.97057862
v 34.17588368 18.23045569 3.44629976
v 33.73126329 19.03780769 3.44629976
v 33.73477921 19.04075447 14.64273907
v 34.17764019 18.23340248 14.64273907
v 33.73477921 19.03780769 87.97053026
v 33.73301981 19.03486235 89.58779391
v 32.77875625 20.31955558 91.26725779
v 33.64515079 18.87869587 91.20505756
v 32.60477474 19.86284038 92.42244280
v 33.98256896 17.87097710 92.10254933
v 36.67138100 8.88990803 93.01781424
v 37.17399234 9.75029923 92.04034332
v 35.92273065 11.98672669 92.86674829
v 35.09499963 13.73697474 93.09778761
v 35.72063047 13.73697474 92.29804235
v 35.55895033 14.58263346 92.04034332
v 34.20575886 16.96049494 92.42244280
v 33.56079769 16.96049494 93.22219383
v 33.07575727 18.50448337 92.79566149
v 37.33391597 10.32192956 3.44629976
v 37.10721304 11.13517512 3.97057862
v 37.19859797 10.81400181 14.64273907
v 37.33567248 10.32782168 87.97053026
v 37.33391597 10.32192956 89.58779391
v 37.25659181 10.04495366 91.20505756
v 34.82084773 16.96344027 3.97057862
v 34.81733181 16.96344027 3.44629976
v 34.17764019 18.23340248 87.97053026
v 34.09152769 18.07134099 91.20505756
v 34.17588368 18.23045569 89.58779391
v 34.65037924 16.96049494 91.20505756
v 37.02637297 10.85525388 91.20505756
v 36.62744505 12.11932107 91.20505756
v 36.05453562 13.73697474 91.20505756
v 35.64506283 14.78299735 91.20505756
v 35.29358389 15.58445867 91.20505756
v 37.10721304 11.12928228 3.44629976
v 36.78912519 12.11637501 3.44629976
v 36.98243991 11.52411937 14.64273907
v 37.10721304 11.13517512 14.64273907
v 37.10721304 11.13222834 87.97053026
v 37.10545653 11.12928228 89.58779391
v 35.37793988 15.77598365 3.97057862
v 35.37618336 15.77598365 3.44629976
v 34.82084773 16.96344027 14.64273907
v 35.37793988 15.77893043 18.51705910
v 34.81733181 16.96049494 89.58779391
v 34.81908833 16.96049494 87.97053026
v 35.37618336 15.77598365 89.58779391
v 36.78736868 12.11932107 89.58779391
v 36.21445635 13.73697474 89.58779391
v 35.72590290 14.97452378 89.58779391
v 36.60459882 12.63791293 3.44629976
v 36.21973167 13.73402796 3.97057862
v 36.21973167 13.73697474 14.64273907
v 36.78912519 12.11932107 14.64273907
v 36.78912519 12.11932107 87.97053026
v 35.72590290 14.97157699 3.97057862
v 35.72590290 14.96863021 3.44629976
v 35.72765942 14.97746911 14.64273907
v 35.37793988 15.77893043 71.81566692
v 35.37618336 15.77893043 87.97053026
v 35.72765942 14.97746911 87.97053026
v 36.21797227 13.73697474 87.97053026
v 36.21621576 13.73402796 3.44629976
v 36.05980805 14.13181183 3.44629976
v 36.21973167 13.73697474 34.67192389
f 1 2 6
f 1 6 3
f 1 3 11
f 1 11 30
f 1 30 60
f 1 60 94
f 1 94 130
f 1 130 174
f 1 174 143
f 1 143 110
f 1 110 76
f 1 76 43
f 1 43 16
f 1 16 8
f 1 8 7
f 1 7 4
f 1 4 2
f 2 5 15
f 2 15 34
f 2 34 65
f 2 65 99
f 2 99 132
f 2 132 176
f 2 176 204
f 2 204 203
f 2 203 229
f 2 229 246
f 2 246 261
f 2 261 268
f 2 268 267
f 2 267 255
f 2 255 240
f 2 240 239
f 2 239 222
f 2 222 194
f 2 194 163
f 2 163 162
f 2 162 123
f 2 123 87
f 2 87 54
f 2 54 53
f 2 53 27
f 2 27 26
f 2 26 6
f 2 4 7
f 2 7 8
f 2 8 5
f 3 6 9
f 3 9 10
f 3 10 29
f 3 29 11
f 5 12 13
f 5 13 14
f 5 14 15
f 5 8 16
f 5 16 17
f 5 17 18
f 5 18 19
f 5 19 20
f 5 20 21
f 5 21 22
f 5 22 23
f 5 23 24
f 5 24 25
f 5 25 12
f 6 26 10
f 6 10 9
f 10 26 27
f 10 27 28
f 10 28 56
f 10 56 29
f 11 29 30
f 12 25 31
f 12 31 32
f 12 32 13
f 13 32 14
f 14 32 33
f 14 33 15
f 15 33 35
f 15 35 36
f 15 36 37
f 15 37 38
f 15 38 39
f 15 39 40
f 15 40 41
f 15 41 42
f 15 42 34
f 16 43 18
f 16 18 17
f 18 43 44
f 18 44 19
f 19 45 20
f 19 44 46
f 19 46 45
f 20 45 47
f 20 47 21
f 21 48 49
f 21 49 50
f 21 50 22
f 21 47 48
f 22 50 23
f 23 51 24
f 23 50 51
f 24 52 25
f 24 51 52
f 25 52 31
f 27 53 28
f 28 53 54
f 28 54 55
f 28 55 90
f 28 90 56
f 29 57 58
f 29 58 59
f 29 59 30
f 29 56 57
f 30 59 60
f 31 52 61
f 31 61 62
f 31 62 63
f 31 63 32
f 32 63 64
f 32 64 33
f 33 64 35
f 34 42 66
f 34 66 65
f 35 64 67
f 35 67 36
f 36 67 37
f 37 67 38
f 38 68 39
f 38 67 96
f 38 96 69
f 38 69 101
f 38 101 68
f 39 68 40
f 40 68 101
f 40 101 70
f 40 70 72
f 40 72 41
f 41 71 42
f 41 72 107
f 41 107 73
f 41 73 71
f 42 71 73
f 42 73 107
f 42 107 74
f 42 74 108
f 42 108 75
f 42 75 66
f 43 76 77
f 43 77 44
f 44 77 46
f 45 46 78
f 45 78 79
f 45 79 47
f 46 80 78
f 46 77 81
f 46 81 82
f 46 82 80
f 47 79 48
f 48 83 84
f 48 84 85
f 48 85 49
f 48 79 83
f 49 85 50
f 50 85 86
f 50 86 51
f 51 86 61
f 51 61 52
f 54 87 88
f 54 88 55
f 55 88 89
f 55 89 125
f 55 125 90
f 56 90 57
f 57 90 91
f 57 91 58
f 58 91 127
f 58 127 92
f 58 92 93
f 58 93 59
f 59 93 60
f 60 93 94
f 61 95 96
f 61 96 62
f 61 86 97
f 61 97 95
f 62 96 67
f 62 67 63
f 63 67 64
f 65 98 99
f 65 66 75
f 65 75 108
f 65 108 100
f 65 100 133
f 65 133 98
f 69 96 95
f 69 95 102
f 69 102 103
f 69 103 101
f 70 101 104
f 70 104 72
f 72 104 105
f 72 105 106
f 72 106 107
f 74 107 108
f 76 109 77
f 76 110 142
f 76 142 109
f 77 109 111
f 77 111 112
f 77 112 113
f 77 113 81
f 78 114 115
f 78 115 79
f 78 80 114
f 79 115 83
f 80 82 116
f 80 116 117
f 80 117 118
f 80 118 114
f 81 113 116
f 81 116 82
f 83 119 120
f 83 120 121
f 83 121 84
f 83 115 119
f 84 121 85
f 85 121 122
f 85 122 97
f 85 97 86
f 87 123 88
f 88 123 124
f 88 124 89
f 89 124 167
f 89 167 125
f 90 125 91
f 91 126 127
f 91 125 126
f 92 127 128
f 92 128 93
f 93 128 129
f 93 129 130
f 93 130 94
f 95 97 102
f 97 122 102
f 98 131 132
f 98 132 99
f 98 133 177
f 98 177 131
f 100 108 134
f 100 134 135
f 100 135 133
f 101 103 104
f 102 122 136
f 102 136 103
f 103 136 104
f 104 136 137
f 104 137 138
f 104 138 105
f 105 138 106
f 106 138 139
f 106 139 140
f 106 140 141
f 106 141 107
f 107 141 108
f 108 141 134
f 109 142 111
f 110 143 142
f 111 142 144
f 111 144 145
f 111 145 146
f 111 146 112
f 112 147 113
f 112 146 145
f 112 145 148
f 112 148 147
f 113 147 149
f 113 149 150
f 113 150 151
f 113 151 152
f 113 152 116
f 114 118 153
f 114 153 115
f 115 153 119
f 116 152 154
f 116 154 155
f 116 155 117
f 117 155 156
f 117 156 157
f 117 157 118
f 118 157 158
f 118 158 153
f 119 159 160
f 119 160 161
f 119 161 120
f 119 153 158
f 119 158 159
f 120 161 121
f 121 161 137
f 121 137 136
f 121 136 122
f 123 162 124
f 124 162 163
f 124 163 164
f 124 164 165
f 124 165 166
f 124 166 197
f 124 197 167
f 125 168 169
f 125 169 126
f 125 167 168
f 126 169 200
f 126 200 170
f 126 170 127
f 127 170 171
f 127 171 172
f 127 172 128
f 128 172 173
f 128 173 145
f 128 145 144
f 128 144 129
f 129 144 142
f 129 142 143
f 129 143 174
f 129 174 130
f 131 175 176
f 131 176 132
f 131 177 178
f 131 178 175
f 133 135 177
f 134 141 179
f 134 179 180
f 134 180 135
f 135 180 181
f 135 181 182
f 135 182 177
f 137 161 138
f 138 161 183
f 138 183 139
f 139 183 140
f 140 183 184
f 140 184 185
f 140 185 179
f 140 179 141
f 145 173 148
f 147 148 149
f 148 173 172
f 148 172 186
f 148 186 149
f 149 186 150
f 150 186 187
f 150 187 188
f 150 188 151
f 151 188 152
f 152 188 154
f 154 156 155
f 154 188 189
f 154 189 190
f 154 190 156
f 156 190 191
f 156 191 158
f 156 158 157
f 158 191 192
f 158 192 193
f 158 193 159
f 159 193 183
f 159 183 160
f 160 183 161
f 163 194 164
f 164 194 165
f 165 194 195
f 165 195 196
f 165 196 166
f 166 196 225
f 166 225 197
f 167 197 168
f 168 197 198
f 168 198 169
f 169 198 199
f 169 199 200
f 170 200 201
f 170 201 171
f 171 187 186
f 171 186 172
f 171 201 187
f 175 202 203
f 175 203 204
f 175 204 176
f 175 178 205
f 175 205 230
f 175 230 206
f 175 206 202
f 177 182 207
f 177 207 178
f 178 207 205
f 179 208 181
f 179 181 180
f 179 185 184
f 179 184 209
f 179 209 210
f 179 210 208
f 181 208 207
f 181 207 182
f 183 193 211
f 183 211 184
f 184 211 212
f 184 212 210
f 184 210 209
f 187 213 188
f 187 201 213
f 188 213 201
f 188 201 214
f 188 214 215
f 188 215 189
f 189 216 190
f 189 215 217
f 189 217 216
f 190 216 217
f 190 217 218
f 190 218 219
f 190 219 220
f 190 220 191
f 191 220 221
f 191 221 211
f 191 211 192
f 192 211 193
f 194 222 195
f 195 223 196
f 195 222 223
f 196 224 225
f 196 223 224
f 197 225 226
f 197 226 198
f 198 226 227
f 198 227 199
f 199 227 214
f 199 214 200
f 200 214 201
f 202 228 203
f 202 206 228
f 203 228 229
f 205 207 230
f 206 230 247
f 206 247 228
f 207 208 232
f 207 232 230
f 208 210 231
f 208 231 232
f 210 212 231
f 211 221 212
f 212 218 233
f 212 233 231
f 212 221 220
f 212 220 219
f 212 219 218
f 214 218 217
f 214 217 215
f 214 227 234
f 214 234 235
f 214 235 218
f 218 235 236
f 218 236 237
f 218 237 238
f 218 238 233
f 222 239 223
f 223 239 240
f 223 240 241
f 223 241 242
f 223 242 224
f 224 242 243
f 224 243 225
f 225 243 244
f 225 244 226
f 226 244 227
f 227 244 234
f 228 245 246
f 228 246 229
f 228 247 263
f 228 263 248
f 228 248 245
f 230 232 249
f 230 249 250
f 230 250 247
f 231 233 249
f 231 249 232
f 233 238 251
f 233 251 249
f 234 244 235
f 235 244 252
f 235 252 253
f 235 253 236
f 236 253 237
f 237 253 254
f 237 254 251
f 237 251 238
f 240 255 256
f 240 256 257
f 240 257 258
f 240 258 241
f 241 258 259
f 241 259 243
f 241 243 242
f 243 259 252
f 243 252 244
f 245 260 261
f 245 261 246
f 245 248 262
f 245 262 260
f 247 250 263
f 248 263 265
f 248 265 262
f 249 251 250
f 250 251 264
f 250 264 263
f 251 254 265
f 251 265 264
f 252 259 266
f 252 266 253
f 253 266 254
f 254 266 265
f 255 267 256
f 256 267 268
f 256 268 261
f 256 261 260
f 256 260 262
f 256 262 257
f 257 262 265
f 257 265 269
f 257 269 259
f 257 259 258
f 259 269 266
f 263 264 265
f 265 266 269

