# https://github.com/mikedh/trimesh
v 26.20868479 -23.61513328 94.07083834
v 7.27163685 -34.73578972 94.13316569
v 8.88761994 -34.73578972 94.22665381
v 21.80939399 -28.27402119 94.17990975
v 26.20868479 -25.04077661 94.02409428
v 26.20868479 -23.41551042 94.03188303
v 5.46888190 -34.66662988 93.96956147
v 5.46888190 -36.22587947 93.99293350
v 13.73353827 -33.11995612 94.21107053
v 5.65565375 -36.19601585 93.99293350
v 10.50360304 -34.73578972 94.14874897
v 16.96347494 -31.50411964 94.19549303
v 20.19544114 -29.88985767 94.17212100
v 25.08196223 -26.70533901 94.00072803
v 26.20868479 -25.57991360 94.00072803
v 25.39460431 -23.73930694 93.92281741
v 6.23018030 -33.88857815 93.69688585
v 26.20868479 -22.44726698 93.11258508
v 5.46888190 -34.00803552 92.98014164
v 5.46888190 -36.33433552 93.93060616
v 7.27163685 -36.04040550 93.93839491
v 15.39215510 -33.21897958 94.00072803
v 8.88761994 -35.86593286 93.85270132
v 10.50360304 -35.66788307 93.72805241
v 11.98153732 -34.77980078 93.92281741
v 13.73353827 -34.28939259 93.86049584
v 18.59569929 -31.57327947 93.99293350
v 21.69570740 -29.84270048 93.87607335
v 23.41522730 -28.28816574 93.96177272
v 24.57037187 -27.76003296 93.79037397
v 26.20868479 -26.17249137 93.80595725
v 26.20868479 -22.30737570 92.82432907
v 5.46888190 -34.00017743 92.82432907
v 5.46888190 -37.01807865 93.50211796
v 16.96347494 -32.75686339 93.88386210
v 14.88056186 -34.06619403 93.73584116
v 5.65565375 -37.00393409 93.48653757
v 7.27163685 -36.84832374 93.29956132
v 11.35219699 -35.55628378 93.64235304
v 18.06989504 -32.46921985 93.74362991
v 20.19544114 -31.02471277 93.81375178
v 21.08057808 -30.74964506 93.67351382
v 22.86709106 -29.27212825 93.74362991
v 23.94509060 -28.83673533 93.42421312
v 25.64836852 -27.27591124 93.48653757
v 26.20868479 -26.19292528 93.79816272
v 26.20868479 -22.29637149 91.91281697
v 5.46888190 -33.97502866 91.54665323
v 5.46888190 -37.58550765 92.70746891
v 5.65565375 -37.58550765 92.68409399
v 12.43019653 -35.34880140 93.43979351
v 15.95653042 -33.82413317 93.54886491
v 7.27163685 -37.44875960 92.49711774
v 8.88761994 -36.67385110 93.02688570
v 8.88761994 -37.27743019 92.22444501
v 9.75448539 -37.17526350 92.04525752
v 11.98153732 -35.92251686 92.87107313
v 19.14586505 -32.15799915 93.50211796
v 20.32130920 -31.90650570 92.91002555
v 21.69570740 -31.10644844 92.77758500
v 22.15857618 -30.34882773 93.28398093
v 23.36853379 -29.84270048 92.81653743
v 24.53585985 -29.33500161 92.34909392
v 25.09211418 -28.31646063 92.91781719
v 26.20868479 -26.99927191 93.21386195
v 26.20868479 -27.78046687 92.41921001
v 26.20868479 -22.29008502 91.21165315
v 26.20868479 -22.28851340 89.59118560
v 5.46888190 -33.97502866 14.63681661
v 5.46888190 -37.67510139 92.51270102
v 5.46888190 -38.18751800 91.21165315
v 5.65565375 -38.16394085 91.21165315
v 13.73353827 -35.09731083 93.10479344
v 13.73353827 -35.72132383 92.30234986
v 15.27034753 -34.69492188 92.79316539
v 16.96347494 -34.20765693 92.42700165
v 16.96347494 -33.56321001 93.22944523
v 7.27163685 -37.88887025 91.21165315
v 14.58213367 -35.55942702 92.04525752
v 8.88761994 -37.54621143 91.21165315
v 10.04885381 -37.25857078 91.21165315
v 10.85684572 -37.02751124 91.21165315
v 12.11755589 -36.62826842 91.21165315
v 18.51043327 -33.07594506 92.80874579
v 19.86655997 -32.60439628 92.42700165
v 22.79197699 -30.82509136 92.20886173
v 24.79977601 -29.55662855 91.21165315
v 25.60776648 -28.86817057 91.21165315
v 26.20868479 -27.80404402 92.38025759
v 26.20868479 -27.79304270 92.40362962
v 26.19853284 -27.79618594 92.41142126
v 26.20868479 -22.28851340 14.63681661
v 5.46888190 -38.34469997 14.63681661
v 5.46888190 -38.34155673 89.59118560
v 5.65565375 -38.31797958 89.59118560
v 7.27163685 -38.04448060 89.59118560
v 17.87297340 -33.98288675 92.10758197
v 13.73353827 -36.05612457 91.21165315
v 14.78311580 -35.64744915 91.21165315
v 15.59110771 -35.29378901 91.21165315
v 16.96347494 -34.64933920 91.21165315
v 8.88761994 -37.69868143 89.59118560
v 10.31886144 -37.33401708 89.59118560
v 11.12685335 -37.10610078 89.59118560
v 12.11755589 -36.78859362 89.59118560
v 20.94455951 -32.27431329 91.85828127
v 22.99904914 -30.98070171 91.21165315
v 23.80704250 -30.36297518 91.21165315
v 23.92884862 -30.45885539 89.59118560
v 24.91346115 -29.65251166 89.59118560
v 25.72145451 -28.97034015 89.59118560
v 26.20868479 -28.31331740 91.21165315
v 26.20868479 -28.51922528 14.63681661
v 5.65565375 -38.32112282 14.63681661
v 5.65565375 -38.32269444 16.89612064
v 5.46888190 -38.34627159 61.94197478
v 5.46888190 -38.34312835 89.40420935
v 5.65565375 -38.32269444 87.97850969
v 7.27163685 -38.04919834 87.97850969
v 18.07395553 -34.09134280 91.21165315
v 18.88194744 -33.64494567 91.21165315
v 13.73353827 -36.21644977 89.59118560
v 14.96988837 -35.72604158 89.59118560
v 15.77787884 -35.37709629 89.59118560
v 16.96347494 -34.81752538 89.59118560
v 8.88761994 -37.70182467 87.97850969
v 10.32495146 -37.33401708 87.97850969
v 11.13294337 -37.10924401 87.97850969
v 12.11755589 -36.79173685 87.97850969
v 20.32130920 -32.77886892 91.27397761
v 21.12118013 -32.39063031 90.77537332
v 21.72006892 -31.87035561 91.27397761
v 23.12085816 -31.07343869 89.59118560
v 23.12288768 -31.07658482 87.97850969
v 23.93087959 -30.46042990 87.97850969
v 24.91549212 -29.65408328 87.97850969
v 26.20868479 -28.51765366 89.59118560
v 26.20868479 -28.38719208 90.62734949
v 25.72348259 -28.97191176 87.97850969
v 26.20868479 -28.51922528 88.88223014
v 25.72348259 -28.97191176 14.63681661
v 26.20868479 -28.52079690 45.26986659
v 6.63011577 -38.15765150 14.63681661
v 7.27163685 -38.04919834 14.63681661
v 5.46888190 -38.34627159 87.97850969
v 18.23027657 -34.17465008 89.59118560
v 19.03826704 -33.73296780 89.59118560
v 13.73353827 -36.21802138 87.97850969
v 14.97394886 -35.72761319 87.97850969
v 15.78193933 -35.37866791 87.97850969
v 16.96347494 -34.82066861 87.97850969
v 18.23433562 -34.17779331 87.97850969
v 8.88761994 -37.70182467 14.63681661
v 9.75448539 -37.48019772 14.63681661
v 10.32495146 -37.33401708 14.63681661
v 11.13294337 -37.10924401 14.63681661
v 11.72777166 -36.91748358 14.63681661
v 12.11755589 -36.79173685 14.63681661
v 13.09201791 -36.44593480 14.63681661
v 20.19544114 -33.04607855 89.59118560
v 21.18411416 -32.43149525 89.59118560
v 21.99007654 -31.88135693 89.59118560
v 21.99413559 -31.88292855 87.97850969
v 23.12288768 -31.07658482 14.63681661
v 23.93087959 -30.46042990 28.20822406
v 24.91549212 -29.65408328 23.36240468
v 26.20868479 -28.52079690 87.97850969
v 24.91549212 -29.65251166 14.63681661
v 19.04232753 -33.73611104 87.97850969
v 13.73353827 -36.21802138 14.63681661
v 14.48265664 -35.92251686 14.63681661
v 14.97394886 -35.72761319 14.63681661
v 15.29470904 -35.58929064 14.63681661
v 15.78193933 -35.37866791 14.63681661
v 16.49451471 -35.04229556 14.63681661
v 16.96347494 -34.82066861 14.63681661
v 18.23433562 -34.17779331 14.63681661
v 20.19544114 -33.04922467 87.97850969
v 21.18614513 -32.43306687 87.97850969
v 21.99413559 -31.88292855 14.63681661
v 23.44364931 -30.83137783 14.63681661
v 23.93087959 -30.45885539 14.63681661
v 24.52570789 -29.97316206 14.63681661
v 19.04232753 -33.73611104 14.63681661
v 20.19544114 -33.04922467 14.63681661
v 20.79229896 -32.67827385 14.63681661
v 21.18614513 -32.43306687 14.63681661
f 1 2 3
f 1 3 4
f 1 4 5
f 1 5 15
f 1 15 31
f 1 31 46
f 1 46 65
f 1 65 66
f 1 66 90
f 1 90 89
f 1 89 112
f 1 112 138
f 1 138 137
f 1 137 140
f 1 140 167
f 1 167 142
f 1 142 113
f 1 113 92
f 1 92 68
f 1 68 67
f 1 67 47
f 1 47 32
f 1 32 18
f 1 18 6
f 1 6 7
f 1 7 2
f 2 7 8
f 2 8 3
f 3 9 4
f 3 8 10
f 3 10 11
f 3 11 9
f 4 12 13
f 4 13 14
f 4 14 15
f 4 15 5
f 4 9 12
f 6 16 17
f 6 17 7
f 6 18 16
f 7 17 19
f 7 19 33
f 7 33 48
f 7 48 69
f 7 69 93
f 7 93 116
f 7 116 145
f 7 145 117
f 7 117 94
f 7 94 71
f 7 71 70
f 7 70 49
f 7 49 34
f 7 34 20
f 7 20 8
f 8 20 21
f 8 21 10
f 9 11 22
f 9 22 12
f 10 21 11
f 11 21 23
f 11 23 24
f 11 24 25
f 11 25 26
f 11 26 22
f 12 22 27
f 12 27 13
f 13 27 28
f 13 28 29
f 13 29 14
f 14 29 30
f 14 30 31
f 14 31 15
f 16 18 17
f 17 18 32
f 17 32 19
f 19 32 33
f 20 34 21
f 21 34 23
f 22 35 27
f 22 26 36
f 22 36 35
f 23 34 37
f 23 37 24
f 24 37 38
f 24 38 39
f 24 39 25
f 25 39 26
f 26 39 36
f 27 35 40
f 27 40 41
f 27 41 28
f 28 41 42
f 28 42 43
f 28 43 29
f 29 43 30
f 30 43 44
f 30 44 45
f 30 45 46
f 30 46 31
f 32 47 48
f 32 48 33
f 34 49 50
f 34 50 37
f 35 36 40
f 36 39 51
f 36 51 52
f 36 52 40
f 37 50 53
f 37 53 38
f 38 54 39
f 38 53 55
f 38 55 54
f 39 54 55
f 39 55 56
f 39 56 57
f 39 57 51
f 40 52 58
f 40 58 42
f 40 42 41
f 42 58 59
f 42 59 60
f 42 60 61
f 42 61 44
f 42 44 43
f 44 61 62
f 44 62 63
f 44 63 64
f 44 64 45
f 45 65 46
f 45 64 66
f 45 66 65
f 47 67 48
f 48 67 68
f 48 68 92
f 48 92 69
f 49 70 50
f 50 70 71
f 50 71 72
f 50 72 53
f 51 73 52
f 51 57 74
f 51 74 73
f 52 73 74
f 52 74 75
f 52 75 76
f 52 76 77
f 52 77 58
f 53 72 55
f 55 72 78
f 55 78 56
f 56 79 74
f 56 74 57
f 56 78 80
f 56 80 81
f 56 81 82
f 56 82 83
f 56 83 79
f 58 77 84
f 58 84 85
f 58 85 59
f 59 85 60
f 60 85 86
f 60 86 61
f 61 86 62
f 62 86 63
f 63 86 87
f 63 87 88
f 63 88 89
f 63 89 90
f 63 90 91
f 63 91 66
f 63 66 64
f 66 91 90
f 69 92 113
f 69 113 141
f 69 141 168
f 69 168 183
f 69 183 182
f 69 182 181
f 69 181 164
f 69 164 180
f 69 180 187
f 69 187 186
f 69 186 185
f 69 185 184
f 69 184 177
f 69 177 176
f 69 176 175
f 69 175 174
f 69 174 173
f 69 173 172
f 69 172 171
f 69 171 170
f 69 170 159
f 69 159 158
f 69 158 157
f 69 157 156
f 69 156 155
f 69 155 154
f 69 154 153
f 69 153 144
f 69 144 143
f 69 143 114
f 69 114 93
f 71 94 95
f 71 95 72
f 72 95 96
f 72 96 78
f 74 79 75
f 75 79 76
f 76 79 97
f 76 97 77
f 77 97 84
f 78 96 80
f 79 83 98
f 79 98 99
f 79 99 100
f 79 100 101
f 79 101 97
f 80 96 102
f 80 102 81
f 81 102 103
f 81 103 104
f 81 104 82
f 82 104 83
f 83 104 105
f 83 105 122
f 83 122 98
f 84 97 85
f 85 97 106
f 85 106 86
f 86 106 107
f 86 107 108
f 86 108 87
f 87 108 109
f 87 109 110
f 87 110 111
f 87 111 88
f 88 111 112
f 88 112 89
f 93 114 115
f 93 115 116
f 94 117 95
f 95 117 118
f 95 118 119
f 95 119 96
f 96 119 102
f 97 101 120
f 97 120 121
f 97 121 106
f 98 122 99
f 99 122 123
f 99 123 124
f 99 124 100
f 100 124 101
f 101 124 125
f 101 125 120
f 102 119 126
f 102 126 103
f 103 126 127
f 103 127 128
f 103 128 104
f 104 128 105
f 105 128 129
f 105 129 122
f 106 130 131
f 106 131 132
f 106 132 107
f 106 121 130
f 107 132 131
f 107 131 133
f 107 133 109
f 107 109 108
f 109 133 134
f 109 134 135
f 109 135 136
f 109 136 110
f 110 136 139
f 110 139 111
f 111 137 138
f 111 138 112
f 111 139 140
f 111 140 137
f 113 142 141
f 114 143 115
f 115 143 144
f 115 144 119
f 115 119 118
f 115 118 145
f 115 145 116
f 117 145 118
f 119 144 153
f 119 153 126
f 120 125 146
f 120 146 147
f 120 147 121
f 121 147 131
f 121 131 130
f 122 129 148
f 122 148 149
f 122 149 123
f 123 149 150
f 123 150 124
f 124 150 125
f 125 150 151
f 125 151 152
f 125 152 146
f 126 153 154
f 126 154 127
f 127 154 155
f 127 155 156
f 127 156 128
f 128 156 157
f 128 157 129
f 129 157 158
f 129 158 159
f 129 159 148
f 131 147 160
f 131 160 161
f 131 161 162
f 131 162 133
f 133 162 134
f 134 162 163
f 134 163 180
f 134 180 164
f 134 164 165
f 134 165 135
f 135 165 166
f 135 166 136
f 136 166 141
f 136 141 139
f 139 167 140
f 139 141 142
f 139 142 167
f 141 166 168
f 146 152 169
f 146 169 147
f 147 169 160
f 148 159 170
f 148 170 171
f 148 171 149
f 149 171 172
f 149 172 173
f 149 173 150
f 150 173 174
f 150 174 175
f 150 175 151
f 151 175 176
f 151 176 177
f 151 177 152
f 152 177 184
f 152 184 169
f 160 169 178
f 160 178 161
f 161 178 179
f 161 179 163
f 161 163 162
f 163 179 187
f 163 187 180
f 164 181 165
f 165 181 182
f 165 182 183
f 165 183 166
f 166 183 168
f 169 184 185
f 169 185 178
f 178 185 186
f 178 186 179
f 179 186 187

