# https://github.com/mikedh/trimesh
v 24.90904957 16.70480333 -0.00000006
v 15.08908078 25.91707297 -0.00000006
v 25.51018514 16.70480333 -0.00000006
v 24.90904957 16.70480333 20.00000006
v 15.08908078 26.49672106 -0.00000006
v 15.08908078 25.91707297 20.00000006
v 24.87326797 17.65018180 -0.00000006
v 25.09368408 17.76576564 0.00587314
v 25.80645934 16.70480333 0.00587314
v 25.51018514 16.70480333 20.00000006
v 16.04087681 25.94122551 -0.00000006
v 15.08908078 26.76066756 0.00587314
v 16.30995788 26.06198564 0.00587314
v 15.08908078 26.49672106 20.00000006
v 23.96011550 18.87158304 -0.00000006
v 24.18482520 18.98371819 0.00587314
v 24.37804818 19.13553085 0.01761889
v 25.29406261 17.90722832 0.01761889
v 26.10130191 16.70480333 0.01761889
v 25.60178593 16.70480333 19.99804232
v 24.87326797 17.65018180 20.00000006
v 17.31757440 25.10798089 -0.00000006
v 15.08908078 27.06774287 0.01761889
v 15.12200043 27.05049291 0.01761889
v 17.57949732 25.22528842 0.00587314
v 16.44020222 26.27072707 0.01761889
v 16.04087681 25.94122551 20.00000006
v 16.36005186 26.14134066 19.99021204
v 15.08908078 26.87625140 19.99021204
v 22.98828058 20.04468180 -0.00000006
v 23.21585353 20.15681565 0.00587314
v 23.40191837 20.31725459 0.01761889
v 24.64283306 19.34427358 0.05090035
v 25.56886759 18.10216978 0.05090035
v 26.43192478 16.81693718 0.05090035
v 26.49919569 16.70480333 0.05090035
v 25.91809772 16.70480333 19.99021204
v 25.16954217 17.81924572 19.99021204
v 23.96011550 18.87158304 20.00000006
v 24.25782003 19.04237196 19.99021204
v 18.54989931 24.21262860 -0.00000006
v 15.08908078 27.44899951 0.05090035
v 15.28659604 27.34549195 0.05090035
v 18.80466670 24.32648875 0.00587314
v 17.71976307 25.42713247 0.01761889
v 16.61911152 26.55537613 0.05090035
v 17.31757440 25.10798089 20.00000006
v 17.63245456 25.30291975 19.99021204
v 16.53896116 26.42771602 19.96671924
v 15.08908078 26.99356154 19.98433884
v 21.95919484 21.16947547 -0.00000006
v 22.19392333 21.27988562 0.00587314
v 22.36997068 21.44894823 0.01761889
v 23.65668576 20.53807229 0.05090035
v 23.91002022 20.75889129 0.09788530
v 24.90618762 19.55129132 0.09788530
v 25.84224094 18.29538494 0.09788530
v 26.71531692 16.99635237 0.09788530
v 26.53783925 16.70480333 0.05481582
v 25.95960453 16.70480333 19.98825431
v 25.44434585 18.01418718 19.96671924
v 24.52403784 19.25111599 19.96671924
v 23.28741673 20.21719571 19.99021204
v 22.98828058 20.04468180 20.00000006
v 19.73642513 23.25517386 -0.00000006
v 15.08908078 27.73882486 0.08613890
v 15.44976264 27.63704099 0.09788530
v 16.79802082 26.84002519 0.09788530
v 18.95495124 24.51970652 0.01761889
v 20.14290869 23.55362549 0.01761889
v 19.98403698 23.36731032 0.00587314
v 17.91155182 25.70142895 0.05090035
v 19.16105367 24.78710301 0.05090035
v 18.54989931 24.21262860 20.00000006
v 18.86191882 24.39894639 19.99021204
v 19.06802125 24.66634288 19.96671924
v 17.82567494 25.57721883 19.96671924
v 15.21216959 27.21265554 19.96671924
v 16.71787046 26.71236508 19.92560750
v 15.37676781 27.50593089 19.92560750
v 15.08908078 27.27821060 19.96671924
v 20.87428860 22.23906405 -0.00000006
v 21.11474361 22.35119790 0.00587314
v 21.28220249 22.52888940 0.01761889
v 21.51406903 22.77385965 0.05090035
v 22.61185601 21.68356851 0.05090035
v 22.85374135 21.91473879 0.09788530
v 23.09419505 22.14590646 0.16248984
v 24.16049402 20.97625900 0.16248984
v 25.16811054 19.75658275 0.16248984
v 26.11418266 18.48860141 0.16248984
v 26.99584711 17.17404127 0.16248984
v 27.27923926 16.70480333 0.16248984
v 26.89136427 16.70480333 0.09788530
v 26.32744193 16.70480333 19.96671924
v 25.71915083 18.20912734 19.92560750
v 23.54218412 20.43973971 19.96671924
v 24.78739239 19.45813242 19.92560750
v 22.25976262 21.34371437 19.99021204
v 21.95919484 21.16947547 20.00000006
v 15.08908078 27.82680616 0.09788530
v 15.61292663 27.92859003 0.16248984
v 16.97406948 27.12294795 0.16248984
v 18.10334317 25.97745173 0.09788530
v 20.36189318 23.80894572 0.05090035
v 19.36572708 25.05277582 0.09788530
v 20.58087766 24.06426854 0.09788530
v 19.73642513 23.25517386 20.00000006
v 20.04414976 23.43803905 19.99021204
v 20.26456587 23.69508557 19.96671924
v 19.27412629 24.93373938 19.92560750
v 18.01746629 25.85324161 19.92560750
v 15.08908078 27.31616311 19.96280378
v 16.89534813 26.99528784 19.86883324
v 15.53993180 27.79747993 19.86883324
v 15.08908078 28.03555019 19.86883324
v 15.08908078 27.65774354 19.92560750
v 21.74450394 23.01710621 0.09788530
v 21.97350722 23.26035015 0.16248984
v 23.33178680 22.37362675 0.24275625
v 24.40953620 21.19190171 0.24275625
v 25.42717151 19.96015050 0.24275625
v 26.38326243 18.67836788 0.24275625
v 27.27351405 17.35173147 0.24275625
v 27.43095413 16.70480333 0.19381357
v 26.68382891 16.70480333 19.92952231
v 26.58793453 16.91527106 19.92560750
v 25.99252418 18.40234511 19.86883324
v 23.79551858 20.65883242 19.92560750
v 22.74639525 21.81122862 19.92560750
v 22.50307828 21.57833464 19.96671924
v 25.05074564 19.66342516 19.86883324
v 24.04885434 20.87792642 19.86883324
v 21.17771965 22.41847925 19.99021204
v 20.87428860 22.23906405 20.00000006
v 15.08908078 28.20288911 0.16248984
v 15.08908078 28.41335684 0.20751705
v 15.77322997 28.21496539 0.24275625
v 18.29370290 26.25002451 0.16248984
v 17.14868389 27.40069702 0.24275625
v 18.48263100 26.52087361 0.24275625
v 19.56896886 25.31499602 0.16248984
v 20.79700019 24.31786247 0.16248984
v 21.40958618 22.66344950 19.96671924
v 21.64145142 22.90841974 19.92560750
v 20.48212133 23.95040840 19.92560750
v 20.69967419 24.20400493 19.86883324
v 19.47736546 25.19768849 19.86883324
v 18.20782602 26.12754069 19.86883324
v 18.39818574 26.39838718 19.79444068
v 17.06996255 27.27648690 19.79444068
v 15.70166677 28.08730267 19.79444068
v 15.08908078 28.26154418 19.82380603
v 21.01025946 24.56800900 0.24275625
v 22.19964854 23.49842042 0.24275625
v 23.56651530 22.59789445 0.33868387
v 24.65428349 21.40582073 0.33868387
v 25.68193760 20.16026564 0.33868387
v 26.64804731 18.86640806 0.33868387
v 27.54831903 17.52597168 0.33868387
v 27.66282067 16.70480333 0.24275625
v 26.74537461 16.70480333 19.92169203
v 26.86989505 17.09468495 19.86883324
v 27.14899361 17.27237515 19.79444068
v 26.26160394 18.59383527 19.79444068
v 25.31123824 19.86871660 19.79444068
v 22.98684895 22.04239890 19.86883324
v 21.87045600 23.15166630 19.86883324
v 24.29789651 21.09529413 19.79444068
v 15.08908078 28.57551947 0.24275625
v 15.93210168 28.49961445 0.33868387
v 17.32043505 27.67671980 0.33868387
v 18.66726421 26.78654380 0.33868387
v 19.96972330 25.83081536 0.33868387
v 19.77077641 25.57376884 0.24275625
v 20.91436509 24.45587516 19.79444068
v 19.68060724 25.45990869 19.79444068
v 18.58425058 26.66750997 19.70634334
v 17.24314794 27.55250968 19.70634334
v 15.86053848 28.37195173 19.70634334
v 15.08908078 28.40818055 19.79444068
v 15.08908078 28.77736092 19.70634334
v 21.22208841 24.81470555 0.33868387
v 22.42006466 23.73476438 0.33868387
v 22.64048077 23.96765836 0.45027401
v 23.79695021 22.81871215 0.45027401
v 24.89616882 21.61456347 0.45027401
v 25.93384173 20.35693340 0.45027401
v 26.90853991 19.05099824 0.45027401
v 28.04210849 16.70480333 0.33868387
v 27.81739879 17.69676059 0.45027401
v 28.41567110 16.70480333 0.45027401
v 27.04737272 16.70480333 19.87666417
v 27.15901241 16.70480333 19.85904522
v 27.40805458 16.70480333 19.81205963
v 27.56692499 16.70480333 19.77877881
v 27.42523022 17.44834036 19.70634334
v 26.52925208 18.78187545 19.70634334
v 25.56743596 20.07055804 19.70634334
v 24.54550706 21.30921185 19.70634334
v 23.22587233 22.27011658 19.79444068
v 22.09802765 23.39146025 19.79444068
v 15.08908078 28.94297615 0.33868387
v 15.08908078 29.30353023 0.45027401
v 16.08811013 28.77736092 0.45027401
v 17.49075718 27.94756629 0.45027401
v 18.85046840 27.04876661 0.45027401
v 20.16437791 26.08441189 0.45027401
v 21.42962378 25.05794950 0.45027401
v 21.12762436 24.70429540 19.70634334
v 19.87955414 25.71695521 19.70634334
v 18.76888640 26.93145648 19.60062705
v 17.41490170 27.82680616 19.60062705
v 16.01797596 28.65315080 19.60062705
v 15.08908078 28.92744988 19.66327386
v 22.85660330 24.19537865 0.57752537
v 24.02452316 23.03608246 0.57752537
v 25.13376057 21.81985490 0.57752537
v 26.18145227 20.55187356 0.57752537
v 27.16473762 19.23213843 0.57752537
v 28.08218367 17.86582451 0.57752537
v 28.70908204 16.70480333 0.55207483
v 27.76587188 16.70480333 19.73179387
v 27.96911366 16.70480333 19.68089281
v 27.69717194 17.62085427 19.60062705
v 26.79260664 18.96819193 19.60062705
v 25.82220204 20.26895080 19.60062705
v 24.78882272 21.52140457 19.60062705
v 23.46203245 22.49611057 19.70634334
v 22.32273865 23.62953052 19.70634334
v 15.08908078 29.65891063 0.57752537
v 16.24125533 29.05166000 0.57752537
v 17.65678704 28.21323909 0.57752537
v 19.03080933 27.30753943 0.57752537
v 20.35616927 26.33283213 0.57752537
v 21.63286425 25.29601976 0.57752537
v 21.33659005 24.94926564 19.60062705
v 20.07706940 25.97055174 19.60062705
v 20.27029239 26.22242197 19.48120598
v 18.94922733 27.19195299 19.48120598
v 17.58235797 28.09420526 19.48120598
v 16.17255539 28.92917357 19.48120598
v 15.08908078 29.14136760 19.60062705
v 15.08908078 29.50019538 19.48120598
v 23.06700062 24.41964634 0.72043793
v 24.24636960 23.25000018 0.72043793
v 25.36562711 22.02169634 0.72043793
v 26.42333761 20.74164003 0.72043793
v 27.41664175 19.40982863 0.72043793
v 28.34124465 18.03143844 0.72043793
v 29.14132580 16.70480333 0.72043793
v 28.78207687 16.70480333 0.57752537
v 28.12082853 16.70480333 19.63782333
v 28.36414419 16.70480333 19.56538785
v 27.96338845 17.78991818 19.48120598
v 27.05023598 19.15105712 19.48120598
v 26.07124422 20.46561725 19.48120598
v 23.69389899 22.72038087 19.60062705
v 25.02784610 21.72842231 19.48120598
v 23.92290227 22.93947488 19.48120598
v 22.54172314 23.86415079 19.60062705
v 15.08908078 30.00566475 0.72043793
v 16.39010824 29.32078280 0.72043793
v 17.81995103 28.47546190 0.72043793
v 19.20542374 27.55940966 0.72043793
v 20.54509737 26.57607868 0.72043793
v 21.83324277 25.52719004 0.72043793
v 21.54269379 25.18906221 19.48120598
v 21.74450394 25.42540617 19.34612369
v 20.46065211 26.46739222 19.34612369
v 19.12670240 27.44554952 19.34612369
v 17.74695620 28.35815176 19.34612369
v 16.32426895 29.20002267 19.34612369
v 15.08908078 29.85040210 19.34612369
v 22.02789608 25.75663403 0.87705528
v 23.27310435 24.63701665 0.87705528
v 24.46249213 23.45701791 0.87705528
v 25.59176713 22.21836410 0.87705528
v 26.65949773 20.92623021 0.87705528
v 27.66138904 19.58406754 0.87705528
v 28.59601073 18.19187738 0.87705528
v 29.48912561 16.70480333 0.87509755
v 28.47005866 16.70480333 19.53014931
v 28.75202049 16.70480333 19.43226330
v 28.22531138 17.95725711 19.34612369
v 27.30357043 19.33047101 19.34612369
v 26.31456118 20.65710742 19.34612369
v 25.26114296 21.93198875 19.34612369
v 24.14618164 23.15339260 19.34612369
v 22.97253657 24.31958877 19.34612369
v 22.75927730 24.09359477 19.48120598
v 15.08908078 30.34551889 0.87705528
v 16.53752953 29.58300300 0.87705528
v 17.97882274 28.72905843 0.87705528
v 19.37717751 27.80610621 0.87705528
v 20.72829895 26.81414634 0.87705528
v 23.18150226 24.54040647 19.19538019
v 21.94201920 25.65485016 19.19538019
v 20.64671695 26.70718879 19.19538019
v 19.30131942 27.69569606 19.19538019
v 17.90869117 28.61519828 19.19538019
v 16.47169024 29.46569286 19.19538019
v 15.08908078 29.90043089 19.32458928
v 22.21825581 25.97917803 1.04933385
v 23.47348288 24.85093437 1.04933385
v 24.67432108 23.65885936 1.04933385
v 25.81361488 22.41157927 1.04933385
v 26.88993264 21.10737041 1.04933385
v 27.90041242 19.75313276 1.04933385
v 28.84219095 18.34886502 1.04933385
v 29.71097335 16.70480333 0.98472930
v 28.81499652 16.70480333 19.40877115
v 29.12987668 16.70480333 19.28347688
v 28.48150909 18.11941974 19.19538019
v 27.55118228 19.50643621 19.19538019
v 26.55358326 20.84342390 19.19538019
v 25.49157917 22.13038020 19.19538019
v 24.36659776 23.36385772 19.19538019
v 15.08908078 30.43522388 0.92404023
v 15.18497646 30.62671535 1.04933385
v 16.68065593 29.83832583 1.04933385
v 18.13483119 28.97747867 1.04933385
v 19.54463638 28.04590017 1.04933385
v 20.90720825 27.04531662 1.04933385
v 23.38474404 24.75605048 19.02897418
v 22.13381056 25.87912045 19.02897418
v 20.82705658 26.94180906 19.02897418
v 19.47020993 27.93894261 19.02897418
v 18.06469962 28.86706851 19.02897418
v 16.61625087 29.72446568 19.02897418
v 15.08908078 30.19370362 19.19538019
v 15.08908078 30.43522388 19.07595977
v 15.08908078 30.21440618 19.18559153
v 21.08039234 27.26958431 1.23335946
v 22.40145870 26.19481944 1.23335946
v 23.66956651 25.05622581 1.23335946
v 24.87899318 23.85552451 1.23335946
v 26.02687545 22.59617075 1.23335946
v 27.11178038 21.28333561 1.23335946
v 28.13084733 19.91702169 1.23335946
v 29.08121303 18.50067768 1.23335946
v 29.71097335 16.89974349 1.04737611
v 29.71097335 17.45696533 1.23335946
v 29.71097335 16.70480333 19.01527070
v 29.15277623 16.70480333 19.27368887
v 29.48912561 16.70480333 19.12490245
v 28.73198159 18.27985868 19.02897418
v 27.79306632 19.67722513 19.02897418
v 26.78688142 21.02628909 19.02897418
v 25.71485724 22.32532166 19.02897418
v 24.57985703 23.56915176 19.02897418
v 15.08908078 30.66984415 1.04933385
v 15.08908078 30.98209575 1.23335946
v 15.31092852 30.88031188 1.23335946
v 16.81805842 30.08501977 1.23335946
v 18.28511573 29.21727262 1.23335946
v 19.70636874 28.27879414 1.23335946
v 23.58225930 24.96479191 18.85082241
v 22.32130703 26.09821185 18.85082241
v 21.00310393 27.16952674 18.85082241
v 19.63480555 28.17356028 18.85082241
v 18.21784481 29.11031507 18.85082241
v 15.12629271 30.50940521 19.02897418
v 16.75651401 29.97461222 18.85082241
v 15.25510803 30.76645173 18.85082241
v 15.08908078 30.52665778 19.02897418
v 21.24785122 27.48695463 1.43304564
v 22.58036800 26.40183717 1.43304564
v 23.85706428 25.25634095 1.43304564
v 25.07650845 24.04529229 1.43304564
v 26.23440951 22.77730964 1.43304564
v 27.32790291 21.45239953 1.43304564
v 28.35555702 20.07400934 1.43304564
v 29.31307957 18.64903904 1.43304564
v 29.71097335 17.98830964 1.43304564
v 29.71097335 16.90836977 18.95066615
v 28.97386692 18.43339764 18.85082241
v 28.02779481 19.84284036 18.85082241
v 27.01302275 21.20397799 18.85082241
v 25.93241140 22.51336314 18.85082241
v 24.78739239 23.76754321 18.85082241
v 15.08908078 31.22361600 1.39193390
v 15.43258570 31.12528212 1.43304564
v 16.95259765 30.32481633 1.43304564
v 18.43110539 29.45016660 1.43304564
v 19.86380883 28.50306444 1.43304564
v 23.77404936 25.16663596 18.65896652
v 22.50021633 26.31040588 18.65896652
v 21.17342606 27.39034444 18.65896652
v 19.79367726 28.40300426 18.65896652
v 18.36526610 29.34665903 18.65896652
v 16.89248487 30.21785617 18.65896652
v 15.08908078 30.84408306 18.85082241
v 15.37819684 31.01659827 18.65896652
v 20.01552500 28.72043215 1.64447887
v 21.40958618 27.69569606 1.64447887
v 22.75212046 26.60367861 1.64447887
v 24.03883554 25.44783242 1.64447887
v 25.26686817 24.22815748 1.64447887
v 26.43478803 22.94982485 1.64447887
v 27.53686860 21.61456347 1.64447887
v 28.57167955 20.22754699 1.64447887
v 29.53635894 18.79050173 1.64447887
v 29.71097335 18.17117482 1.50743885
v 29.71097335 17.39486028 18.78817560
v 29.21002835 18.58348399 18.65896652
v 28.25536907 20.00500299 18.65896652
v 27.23200724 21.37649320 18.65896652
v 26.14280872 22.69622833 18.65896652
v 24.98776961 23.96075837 18.65896652
v 15.08908078 31.28572106 1.43304564
v 15.54995060 31.36335239 1.64447887
v 17.08141297 30.55598401 1.64447887
v 18.57136853 29.67443690 1.64447887
v 23.95868387 25.36330111 18.45144875
v 22.67483205 26.51397102 18.45144875
v 21.33802168 27.60253847 18.45144875
v 19.94825408 28.62382457 18.45144875
v 18.50839250 29.57437932 18.45144875
v 17.02416345 30.45247644 18.45144875
v 15.49699336 31.25811853 18.45144875
v 15.08908078 30.87858558 18.82928735
v 15.08908078 31.37542866 18.50234982
v 15.08908078 31.15115836 18.65896652
v 18.70591037 29.89007831 1.86961623
v 20.16008303 28.92917357 1.86961623
v 21.56559464 27.89581381 1.86961623
v 22.91671738 26.79689638 1.86961623
v 24.21345126 25.63069761 1.86961623
v 25.45150269 24.40412007 1.86961623
v 26.62657939 23.11716378 1.86961623
v 27.73581550 21.77155111 1.86961623
v 29.71097335 18.90091188 1.82654610
v 28.77778329 20.37418336 1.86961623
v 29.71097335 18.50067768 1.64447887
v 29.71097335 18.57830901 1.67971807
v 29.71097335 17.55529791 18.72944426
v 29.71097335 17.87099950 18.61198157
v 29.71097335 18.17117482 18.49256115
v 29.43616837 18.72667167 18.45144875
v 28.47435355 20.16026564 18.45144875
v 27.44383618 21.54210713 18.45144875
v 26.34604920 22.87219353 18.45144875
v 25.18242292 24.14707355 18.45144875
v 15.08908078 31.57727011 1.64447887
v 15.08908078 31.66525140 1.71495661
v 15.66302061 31.59107268 1.86961623
v 17.20450178 30.77680431 1.86961623
v 25.36992069 24.32648875 18.23414298
v 24.13616285 25.54961629 18.23414298
v 22.84372255 26.71063878 18.23414298
v 21.49689339 27.80782990 18.23414298
v 20.09567536 28.83601598 18.23414298
v 18.64579499 29.79347073 18.23414298
v 17.15011552 30.67847043 18.23414298
v 15.08908078 31.44788370 18.45144875
v 15.61292663 31.48928881 18.23414298
v 17.32329831 30.98899573 2.10454160
v 18.83472309 30.09537235 2.10454160
v 20.29891714 29.12756503 2.10454160
v 21.71444625 28.08902897 2.10454160
v 23.07415746 26.98148526 2.10454160
v 24.37947851 25.80666281 2.10454160
v 25.62611841 24.57318529 2.10454160
v 26.80978097 23.27587642 2.10454160
v 27.92760685 21.92163877 2.10454160
v 29.71097335 18.97164192 1.86178530
v 29.71097335 18.98716819 1.86961623
v 28.97673018 20.51392104 2.10454160
v 29.71097335 18.33506376 18.42599887
v 29.65515416 18.86640806 18.23414298
v 28.68618250 20.30862831 18.23414298
v 27.64707666 21.70254476 18.23414298
v 26.54070251 23.04298244 18.23414298
v 15.08908078 31.85674287 1.86961623
v 15.08908078 32.12414198 2.10454160
v 15.77036671 31.80844039 2.10454160
v 26.72819898 23.20514508 18.00313242
v 25.54882869 24.49727766 18.00313242
v 24.30648368 25.72903149 18.00313242
v 23.00402459 26.89868025 18.00313242
v 21.64860826 28.00277136 18.00313242
v 20.23737274 29.03958373 18.00313242
v 18.77747357 30.00393845 18.00313242
v 17.27034107 30.89583814 18.00313242
v 15.08908078 31.73253275 18.23414298
v 15.72313339 31.71183020 18.00313242
v 17.43636832 31.19083717 2.35317111
v 18.95638287 30.29203750 2.35317111
v 20.43059312 29.31733280 2.35317111
v 21.85471199 28.27189416 2.35317111
v 23.22444070 27.15572678 2.35317111
v 24.53835022 25.97572803 2.35317111
v 25.79214565 24.73189794 2.35317111
v 26.98439669 23.42768908 2.35317111
v 28.10937811 22.06482515 2.35317111
v 29.16565828 20.64848244 2.35317111
v 29.71097335 19.42190491 2.10454160
v 29.71097335 18.78705174 18.22826978
v 29.71097335 18.90091188 18.17149617
v 29.71097335 19.22868844 18.00313242
v 28.88799135 20.45181599 18.00313242
v 27.84172997 21.85608372 18.00313242
v 15.08908078 32.37946220 2.35317111
v 15.87341793 32.01545551 2.35317111
v 28.02779481 22.00099379 17.76037611
v 26.90567665 23.36040772 17.76037611
v 25.71915083 24.66116659 17.76037611
v 24.46821734 25.90154670 17.76037611
v 23.15860271 27.07809545 17.76037611
v 21.79316759 28.19081284 17.76037611
v 20.37191197 29.23279889 17.76037611
v 18.90199400 30.20405620 17.76037611
v 17.38627434 31.10113218 17.76037611
v 15.08908078 32.00510554 18.00313242
v 15.82761884 31.92229792 17.76037611
v 15.08908078 32.26732835 17.76037611
v 15.08908078 32.15346821 17.86609240
v 17.54371442 31.38232864 2.61158928
v 19.07231614 30.47662899 2.61158928
v 20.55654518 29.49674539 2.61158928
v 21.98925123 28.44440937 2.61158928
v 23.36756840 27.32306570 2.61158928
v 24.68863346 26.13444068 2.61158928
v 25.95101736 24.88371059 2.61158928
v 27.14899361 23.57087545 2.61158928
v 28.28113057 22.19938785 2.61158928
v 29.71097335 19.83593907 2.35317111
v 29.34313595 20.77441756 2.61158928
v 29.71097335 20.22754699 2.61158928
v 29.71097335 19.65307388 17.76037611
v 29.08121303 20.58810238 17.76037611
v 15.08908078 32.62098245 2.61158928
v 15.97074524 32.21039698 2.61158928
v 29.26441722 20.71921378 17.50587340
v 28.20527378 22.13900648 17.50587340
v 27.07599878 23.50704670 17.50587340
v 25.88088579 24.81642924 17.50587340
v 24.62279547 26.06370933 17.50587340
v 23.30459237 27.24888436 17.50587340
v 21.93056878 28.36850174 17.50587340
v 20.50072730 29.41739038 17.50587340
v 19.02222216 30.39382137 17.50587340
v 17.49648370 31.29779734 17.50587340
v 15.92780679 32.12414198 17.50587340
v 15.08908078 32.51402229 17.50587340
v 16.06234603 32.39498846 2.88175385
v 17.64390498 31.56174384 2.88175385
v 19.18252289 30.65086789 2.88175385
v 20.67391139 29.66581061 2.88175385
v 22.11520329 28.60829830 2.88175385
v 23.50067601 27.48005204 2.88175385
v 24.83032953 26.28452703 2.88175385
v 26.09987028 25.02689697 2.88175385
v 27.30500206 23.70543815 2.88175385
v 28.44286554 22.32704796 2.88175385
v 29.51202646 20.89345269 2.88175385
v 29.71097335 20.34485713 2.69577116
v 29.71097335 20.05503178 17.50587340
v 15.08908078 32.84697644 2.88175385
v 29.43760000 20.84169760 17.24158203
v 28.37130234 22.27011658 17.24158203
v 27.23630082 23.64505678 17.24158203
v 26.03403099 24.96306822 17.24158203
v 24.76735350 26.21724829 17.24158203
v 23.44199486 27.40932330 17.24158203
v 22.05938410 28.53584066 17.24158203
v 20.62238447 29.59162928 17.24158203
v 19.13386054 30.57323657 17.24158203
v 17.59953491 31.48238882 17.24158203
v 16.02083921 32.31390715 17.24158203
v 15.08908078 32.74691887 17.24158203
v 15.08908078 33.06089416 3.15974936
v 16.14679128 32.56750368 3.15974936
v 17.73693740 31.73080906 3.15974936
v 19.28414509 30.81475683 3.15974936
v 20.78411944 29.82452326 3.15974936
v 22.23256819 28.76011096 3.15974936
v 23.62662807 27.62496471 3.15974936
v 24.96343844 26.42426342 3.15974936
v 26.23870309 25.15973337 3.15974936
v 27.44956139 23.83137196 3.15974936
v 28.59458040 22.44608179 3.15974936
v 29.66946654 21.00558653 3.15974936
v 29.71097335 20.59845366 2.88175385
v 29.71097335 20.65710742 2.92873880
v 29.71097335 20.43456472 17.24158203
v 29.71097335 20.79166882 16.96750199
v 29.59933497 20.95555775 16.96750199
v 28.52731079 22.39260301 16.96750199
v 27.38515373 23.77616949 16.96750199
v 26.17715869 25.10107830 16.96750199
v 24.90475599 26.36215836 16.96750199
v 23.57080888 27.56113596 16.96750199
v 22.18104258 28.69282961 16.96750199
v 20.73545579 29.75379191 16.96750199
v 19.23977502 30.74230179 16.96750199
v 17.69543059 31.65662773 16.96750199
v 16.10957935 32.49159604 16.96750199
v 15.08908078 32.83490017 17.13195028
v 15.08908078 33.25756192 3.44753288
v 16.22694165 32.72794262 3.44753288
v 17.82567494 31.88607171 3.44753288
v 19.38004076 30.96656948 3.44753288
v 20.88717066 29.97116223 3.44753288
v 22.34277625 28.90157104 3.44753288
v 23.74256134 27.76125111 3.44753288
v 25.08509692 26.55364983 3.44753288
v 26.36751842 25.28394349 3.44753288
v 27.58553226 23.94868210 3.44753288
v 28.73484485 22.55649194 3.44753288
v 29.71097335 21.03491407 3.24001577
v 29.71097335 20.94348148 3.15974936
v 29.71097335 20.95555775 3.16953802
v 29.71097335 21.03491407 16.75998423
v 28.67330045 22.50818685 16.68363394
v 27.52541818 23.89692962 16.68363394
v 26.31026760 25.22874102 16.68363394
v 25.03213968 26.49672106 16.68363394
v 23.69103573 27.70259604 16.68363394
v 22.29411259 28.83946598 16.68363394
v 20.84137026 29.90560457 16.68363394
v 19.33710232 30.89928813 16.68363394
v 17.78703138 31.81706667 16.68363394
v 16.19259298 32.65721127 16.68363394
v 15.08908078 32.96601027 16.96750199
v 15.08908078 33.17130432 16.68363394
v 15.08908078 33.31104070 3.53367249
v 16.29993647 32.87630528 3.74314798
v 17.90582791 32.03098178 3.74314798
v 19.46734667 31.10630587 3.74314798
v 20.98020308 30.10572232 3.74314798
v 22.44153388 29.03268375 3.74314798
v 23.84990744 27.88718753 3.74314798
v 25.19959856 26.67440996 3.74314798
v 26.48631364 25.39780363 3.74314798
v 27.71005269 24.05736595 3.74314798
v 28.86509180 22.65827581 3.74314798
v 29.71097335 21.24883179 3.44753288
v 29.71097335 21.11772168 16.68363394
v 29.71097335 21.36096694 16.43500378
v 28.80783968 22.61342071 16.38997657
v 27.65566513 24.00906347 16.38997657
v 26.43478803 25.34777485 16.38997657
v 25.14950328 26.62093118 16.38997657
v 23.80267542 27.83198245 16.38997657
v 22.39859544 28.97402868 16.38997657
v 20.93869627 30.04706725 16.38997657
v 19.42870311 31.04420081 16.38997657
v 17.87004501 31.96715303 16.38997657
v 16.26845106 32.81074762 16.38997657
v 15.08908078 33.35934579 16.38997657
v 15.08908078 33.43870081 3.74314798
v 15.08908078 33.48182961 3.81949892
v 15.08908078 33.60603973 4.04659336
v 16.36720739 33.01086538 4.04659336
v 17.97882274 32.16209449 4.04659336
v 19.54606801 31.23396598 4.04659336
v 21.06607996 30.22993244 4.04659336
v 22.53313597 29.15171757 4.04659336
v 23.94723475 28.00104767 4.04659336
v 25.30265108 26.78309381 4.04659336
v 26.59509137 25.50131381 4.04659336
v 27.82312401 24.15569983 4.04659336
v 28.98388572 22.75143340 4.04659336
v 29.71097335 21.52485587 3.74314798
v 29.71097335 21.40409574 16.38997657
v 29.71097335 21.66631725 16.09044665
v 28.93092979 22.71002829 16.09044665
v 27.77302872 24.11257103 16.09044665
v 26.54785804 25.45645870 16.09044665
v 25.25684938 26.73479132 16.09044665
v 23.90429631 27.95101628 16.09044665
v 22.49305949 29.09823880 16.09044665
v 21.02886673 30.17472737 16.09044665
v 19.51171674 31.17703721 16.09044665
v 17.94733472 32.10343942 16.09044665
v 16.33715101 32.95221031 16.09044665
v 15.08908078 33.40592459 16.30971016
v 15.08908078 33.72507617 4.29522287
v 16.42732278 33.13162550 4.35786968
v 18.04466203 32.27940463 4.35786968
v 19.61906284 31.34782612 4.35786968
v 21.14480000 30.34034260 4.35786968
v 22.61614960 29.25867774 4.35786968
v 24.03597359 28.10455523 4.35786968
v 25.39568350 26.88142769 4.35786968
v 26.69241738 25.59447140 4.35786968
v 27.92617522 24.24540743 4.35786968
v 29.08980019 22.83423841 4.35786968
v 29.71097335 22.00272009 4.35786968
v 29.71097335 21.77672610 4.04659336
v 29.71097335 21.90438621 15.78308580
v 29.04399980 22.79801220 15.78308580
v 27.88037352 24.20572862 15.78308580
v 26.65091056 25.55306628 15.78308580
v 25.35417669 26.83829889 15.78308580
v 23.99732873 28.05970013 15.78308580
v 22.58036800 29.21209633 15.78308580
v 21.11045003 30.29203750 15.78308580
v 19.58757482 31.29779734 15.78308580
v 18.01603466 32.22764954 15.78308580
v 16.40155867 33.07987042 15.78308580
v 15.08908078 33.65606852 15.84964808
v 15.08908078 33.53185840 16.09044665
v 15.08908078 33.75440240 4.35786968
v 15.08908078 33.78027864 4.41660102
v 16.48028001 33.24030936 4.67501952
v 18.10334317 32.38463849 4.67501952
v 19.68203887 31.45133629 4.67501952
v 21.21350124 30.43867648 4.67501952
v 22.69057605 29.35355902 4.67501952
v 24.11326200 28.19598913 4.67501952
v 25.47726549 26.96940899 4.67501952
v 26.77972458 25.67727640 4.67501952
v 28.01634569 24.32303876 4.67501952
v 29.18426424 22.90841974 4.67501952
v 29.71097335 22.20456153 4.67501952
v 29.71097335 22.09760398 4.50665610
v 29.71097335 22.11658023 15.46985110
v 29.14275743 22.87736721 15.46985110
v 27.97770083 24.28853624 15.46985110
v 26.74251135 25.64105019 15.46985110
v 25.44148389 26.93145648 15.46985110
v 24.07891072 28.15631032 15.46985110
v 22.65765641 29.31215651 15.46985110
v 21.18344486 30.39554767 15.46985110
v 19.65484314 31.40648119 15.46985110
v 18.07757907 32.33978339 15.46985110
v 16.45737916 33.19373056 15.46985110
v 15.08908078 33.83030742 15.46985110
v 15.08908078 33.68884735 15.78308580
v 15.08908078 33.88723880 4.67501952
v 15.08908078 33.90621506 4.72591993
v 16.52751073 33.33346695 4.99608451
v 18.15486878 32.47606978 4.99608451
v 19.73785676 31.53931759 4.99608451
v 21.27361402 30.52493148 4.99608451
v 22.75498241 29.43636663 4.99608451
v 24.18196324 28.27534415 4.99608451
v 25.55026032 27.04531662 4.99608451
v 26.85558267 25.74973404 4.99608451
v 28.09506573 24.39204380 4.99608451
v 29.26727787 22.97397740 4.99608451
v 29.71097335 22.28219286 4.81793242
v 29.71097335 22.20628783 15.31714987
v 29.23149757 22.94637486 15.14878645
v 28.06214608 24.36271757 15.14878645
v 26.82266302 25.71868151 15.14878645
v 25.51877230 27.01253779 15.14878645
v 24.15190555 28.24084163 15.14878645
v 22.72635765 29.40013781 15.14878645
v 21.24642089 30.48870526 15.14878645
v 19.71352689 31.50136247 15.14878645
v 18.13339956 32.43639097 15.14878645
v 16.50747314 33.29378814 15.14878645
v 15.08908078 33.95279385 15.14878645
v 15.08908078 34.00282264 4.99608451
v 15.08908078 34.01662521 5.04111172
v 16.56615429 33.41454826 5.32302269
v 18.19780722 32.55370110 5.32302269
v 19.78509009 31.61522262 5.32302269
v 21.32370930 30.59911281 5.32302269
v 22.80937128 29.50709797 5.32302269
v 24.23921406 28.34262550 5.32302269
v 25.61180472 27.11087167 5.32302269
v 26.91999033 25.81183910 5.32302269
v 28.16233534 24.45069887 5.32302269
v 29.33741204 23.02917987 5.32302269
v 29.71097335 22.52888940 5.32302269
v 29.71097335 22.43573181 5.11942039
v 29.71097335 22.37880304 4.99608451
v 29.71097335 22.30289541 15.14878645
v 29.71097335 22.40122929 14.95301508
v 29.71097335 22.46505804 14.82380600
v 29.30735435 23.00502993 14.82380600
v 28.13370928 24.42654893 14.82380600
v 26.89279590 25.78423657 14.82380600
v 25.58461159 27.08326913 14.82380600
v 24.21488158 28.31502296 14.82380600
v 22.78504010 29.47604544 14.82380600
v 21.30224008 30.56633659 14.82380600
v 19.76505250 31.58244640 14.82380600
v 18.17920126 32.52092488 14.82380600
v 16.55041158 33.38004574 14.82380600
v 15.08908078 34.05975401 14.82380600
v 15.08908078 33.96832012 15.10180118
v 15.08908078 34.10115652 5.32302269
v 15.08908078 34.18223783 5.65387601
v 16.59907393 33.48010331 5.65387601
v 18.23359013 32.61753246 5.65387601
v 19.82373364 31.67733029 5.65387601
v 21.36521611 30.65776788 5.65387601
v 22.85374135 29.56402674 5.65387601
v 24.28787772 28.39955427 5.65387601
v 25.66190001 27.16435045 5.65387601
v 26.97294757 25.86186789 5.65387601
v 28.21815453 24.49900396 5.65387601
v 29.39466156 23.07403497 5.65387601
v 29.71097335 22.65137583 5.65387601
v 29.71097335 22.51163684 14.71025845
v 29.71097335 22.59962074 14.49491008
v 29.37033039 23.05505872 14.49491008
v 28.19525499 24.47830141 14.49491008
v 26.95004672 25.84116533 14.49491008
v 25.64043079 27.14192420 14.49491008
v 24.26783882 28.37540172 14.49491008
v 22.83513408 29.53987420 14.49491008
v 21.34804048 30.63361794 14.49491008
v 19.80799094 31.65145144 14.49491008
v 18.21927644 32.59165362 14.49491008
v 16.58619188 33.45250338 14.49491008
v 15.08908078 34.13910903 14.53014895
v 15.08908078 34.24434289 5.98864513
v 16.62483804 33.53013471 5.98864513
v 18.26221488 32.66756125 5.98864513
v 19.85379003 31.72563277 5.98864513
v 21.39813576 30.70607297 5.98864513
v 22.88809132 29.61060554 5.98864513
v 24.32509094 28.44268307 5.98864513
v 25.70054486 27.20575556 5.98864513
v 27.01445438 25.90154670 5.98864513
v 28.26109298 24.53695647 5.98864513
v 29.43903163 23.10853750 5.98864513
v 29.71097335 22.74625711 5.98864513
v 29.71097335 22.70657830 14.16209870
v 29.42042567 23.09473753 14.16209870
v 28.24391864 24.52143021 14.16209870
v 26.99727874 25.88429414 14.16209870
v 25.68480086 27.18850300 14.16209870
v 24.30934563 28.42370681 14.16209870
v 22.87377894 29.59162928 14.16209870
v 21.38525371 30.68537042 14.16209870
v 19.84233961 31.70493022 14.16209870
v 18.25076446 32.64685869 14.16209870
v 16.61481924 33.50943215 14.16209870
v 15.08908078 34.14773531 14.49491008
v 15.08908078 34.21846665 14.16209870
v 15.08908078 34.28747170 6.29796371
v 16.64344400 33.56808722 6.32341424
v 18.28225248 32.70379007 6.32341424
v 19.87669088 31.76013529 6.32341424
v 21.42246693 30.73884919 6.32341424
v 22.91385412 29.64165807 6.32341424
v 24.35085375 28.47373560 6.32341424
v 25.72916962 27.23508179 6.32341424
v 27.04307914 25.92914924 6.32341424
v 28.29258099 24.56283532 6.32341424
v 29.47195128 23.13441373 6.32341424
v 29.71097335 22.81526215 6.32341424
v 29.71097335 22.72728086 14.07791715
v 29.45906922 23.12406376 13.82732991
v 28.27969894 24.55248274 13.82732991
v 27.03162871 25.91879666 13.82732991
v 25.71771920 27.22300552 13.82732991
v 24.34083365 28.46165933 13.82732991
v 22.90383533 29.62958179 13.82732991
v 21.41244814 30.72504923 13.82732991
v 19.86810371 31.74633533 13.82732991
v 18.27366531 32.68998750 13.82732991
v 16.63628846 33.55256096 13.82732991
v 15.08908078 34.22364295 14.13273303
v 15.08908078 34.29092169 6.32341424
v 15.08908078 34.31680053 6.66209850
v 16.65346280 33.58878717 6.66209850
v 18.29370290 32.72449002 6.66209850
v 19.88957293 31.78083785 6.66209850
v 21.43534899 30.75955175 6.66209850
v 22.92816650 29.66236062 6.66209850
v 24.36659776 28.49271186 6.66209850
v 25.74491363 27.25233436 6.66209850
v 27.06168510 25.94639920 6.66209850
v 28.31118695 24.57836159 6.66209850
v 29.49055724 23.14994000 6.66209850
v 29.71097335 22.82388844 6.39584939
v 29.71097335 22.78765962 13.82732991
v 29.71097335 22.84114100 13.49060306
v 29.48340170 23.14476632 13.49060306
v 27.05452956 25.94122551 13.49060306
v 28.30403142 24.57318529 13.49060306
v 25.73918842 27.24543437 13.49060306
v 24.36087254 28.48581187 13.49060306
v 22.92387292 29.65546064 13.49060306
v 21.43105410 30.75092547 13.49060306
v 19.88384902 31.77393526 13.49060306
v 18.28940801 32.71759003 13.49060306
v 16.64916791 33.58188719 13.49060306
v 15.08908078 34.27194543 13.82732991
v 15.08908078 34.32715051 7.00078308
v 16.65775508 33.59741345 7.00078308
v 18.29799518 32.73311630 7.00078308
v 19.89386782 31.78773783 7.00078308
v 21.44107420 30.76645173 7.00078308
v 22.93389171 29.66753691 7.00078308
v 24.37232167 28.49788815 7.00078308
v 25.75063884 27.25923434 7.00078308
v 27.06741162 25.95329918 7.00078308
v 28.31691347 24.58526157 7.00078308
v 29.49771408 23.15511629 7.00078308
v 29.71097335 22.85494097 6.66209850
v 29.71097335 22.85839096 6.72866077
v 29.71097335 22.86184095 13.24393129
v 29.49485213 23.15166630 13.24393129
v 27.06454836 25.94984919 13.24393129
v 25.74777689 27.25578435 13.24393129
v 28.31405021 24.58181158 13.24393129
v 24.36945971 28.49443816 13.24393129
v 22.93102976 29.66408432 13.24393129
v 21.43821094 30.76300174 13.24393129
v 19.89100456 31.78428784 13.24393129
v 18.29513453 32.72794262 13.24393129
v 16.65489443 33.59223977 13.24393129
v 15.08908078 34.32197422 13.24393129
v 15.08908078 34.30644795 13.49060306
v 15.08908078 34.30472426 13.51409554
v 15.08908078 34.32715051 12.99921692
v 16.65775508 33.59741345 12.99921692
v 18.29799518 32.73311630 12.99921692
v 19.89386782 31.78773783 12.99921692
v 21.44107420 30.76645173 12.99921692
v 22.93389171 29.66753691 12.99921692
v 24.37232167 28.49788815 12.99921692
v 25.75063884 27.25923434 12.99921692
v 27.06741162 25.95329918 12.99921692
v 28.31691347 24.58526157 12.99921692
v 29.71097335 22.86874354 7.00078308
v 29.49771408 23.15511629 12.99921692
v 29.71097335 22.86356725 13.19694602
v 29.71097335 22.86874354 12.99921692
f 1 2 5
f 1 5 11
f 1 11 22
f 1 22 41
f 1 41 65
f 1 65 82
f 1 82 51
f 1 51 30
f 1 30 15
f 1 15 7
f 1 7 3
f 1 3 9
f 1 9 19
f 1 19 36
f 1 36 59
f 1 59 94
f 1 94 93
f 1 93 125
f 1 125 161
f 1 161 190
f 1 190 192
f 1 192 222
f 1 222 252
f 1 252 251
f 1 251 282
f 1 282 311
f 1 311 344
f 1 344 346
f 1 346 345
f 1 345 313
f 1 313 312
f 1 312 284
f 1 284 283
f 1 283 254
f 1 254 253
f 1 253 224
f 1 224 223
f 1 223 196
f 1 196 195
f 1 195 194
f 1 194 193
f 1 193 162
f 1 162 126
f 1 126 95
f 1 95 60
f 1 60 37
f 1 37 20
f 1 20 10
f 1 10 4
f 1 4 6
f 1 6 2
f 2 6 14
f 2 14 29
f 2 29 50
f 2 50 81
f 2 81 113
f 2 113 117
f 2 117 116
f 2 116 153
f 2 153 181
f 2 181 182
f 2 182 215
f 2 215 243
f 2 243 244
f 2 244 274
f 2 274 303
f 2 303 331
f 2 331 333
f 2 333 332
f 2 332 366
f 2 366 393
f 2 393 422
f 2 422 424
f 2 424 423
f 2 423 456
f 2 456 486
f 2 486 515
f 2 515 518
f 2 518 517
f 2 517 546
f 2 546 572
f 2 572 600
f 2 600 626
f 2 626 627
f 2 627 652
f 2 652 679
f 2 679 705
f 2 705 704
f 2 704 732
f 2 732 731
f 2 731 757
f 2 757 787
f 2 787 786
f 2 786 813
f 2 813 837
f 2 837 838
f 2 838 862
f 2 862 888
f 2 888 915
f 2 915 914
f 2 914 913
f 2 913 916
f 2 916 889
f 2 889 864
f 2 864 863
f 2 863 839
f 2 839 814
f 2 814 789
f 2 789 788
f 2 788 759
f 2 759 758
f 2 758 734
f 2 734 733
f 2 733 707
f 2 707 706
f 2 706 680
f 2 680 655
f 2 655 654
f 2 654 653
f 2 653 628
f 2 628 601
f 2 601 573
f 2 573 560
f 2 560 533
f 2 533 504
f 2 504 476
f 2 476 475
f 2 475 446
f 2 446 445
f 2 445 411
f 2 411 382
f 2 382 353
f 2 353 352
f 2 352 319
f 2 319 292
f 2 292 262
f 2 262 231
f 2 231 204
f 2 204 203
f 2 203 170
f 2 170 137
f 2 137 136
f 2 136 101
f 2 101 66
f 2 66 42
f 2 42 23
f 2 23 12
f 2 12 5
f 3 7 8
f 3 8 9
f 4 10 21
f 4 21 39
f 4 39 64
f 4 64 100
f 4 100 135
f 4 135 108
f 4 108 74
f 4 74 47
f 4 47 27
f 4 27 14
f 4 14 6
f 5 12 13
f 5 13 11
f 7 15 16
f 7 16 8
f 8 16 17
f 8 17 18
f 8 18 9
f 9 18 19
f 10 20 21
f 11 13 22
f 12 23 24
f 12 24 13
f 13 25 22
f 13 24 26
f 13 26 25
f 14 27 28
f 14 28 29
f 15 30 31
f 15 31 16
f 16 31 17
f 17 32 33
f 17 33 18
f 17 31 32
f 18 33 34
f 18 34 35
f 18 35 19
f 19 35 36
f 20 37 38
f 20 38 21
f 21 38 40
f 21 40 39
f 22 25 41
f 23 42 43
f 23 43 24
f 24 43 26
f 25 44 41
f 25 26 45
f 25 45 44
f 26 43 46
f 26 46 45
f 27 47 28
f 28 48 49
f 28 49 50
f 28 50 29
f 28 47 48
f 30 51 52
f 30 52 31
f 31 52 32
f 32 53 54
f 32 54 33
f 32 52 53
f 33 54 55
f 33 55 56
f 33 56 34
f 34 56 57
f 34 57 58
f 34 58 35
f 35 58 59
f 35 59 36
f 37 60 38
f 38 60 61
f 38 61 62
f 38 62 40
f 39 40 63
f 39 63 64
f 40 62 63
f 41 44 65
f 42 66 43
f 43 66 67
f 43 67 68
f 43 68 46
f 44 45 69
f 44 69 70
f 44 70 71
f 44 71 65
f 45 46 72
f 45 72 73
f 45 73 69
f 46 68 72
f 47 74 48
f 48 75 76
f 48 76 77
f 48 77 49
f 48 74 75
f 49 78 50
f 49 77 79
f 49 79 80
f 49 80 78
f 50 78 81
f 51 82 83
f 51 83 52
f 52 83 84
f 52 84 53
f 53 84 85
f 53 85 86
f 53 86 54
f 54 86 55
f 55 87 88
f 55 88 89
f 55 89 90
f 55 90 56
f 55 86 87
f 56 90 91
f 56 91 57
f 57 91 58
f 58 91 92
f 58 92 93
f 58 93 94
f 58 94 59
f 60 95 61
f 61 95 96
f 61 96 62
f 62 97 63
f 62 96 98
f 62 98 97
f 63 99 64
f 63 97 99
f 64 99 100
f 65 71 82
f 66 101 67
f 67 101 102
f 67 102 68
f 68 102 103
f 68 103 104
f 68 104 72
f 69 73 70
f 70 73 105
f 70 105 85
f 70 85 84
f 70 84 83
f 70 83 71
f 71 83 82
f 72 104 73
f 73 104 106
f 73 106 107
f 73 107 105
f 74 108 75
f 75 109 110
f 75 110 76
f 75 108 109
f 76 110 111
f 76 111 77
f 77 111 112
f 77 112 79
f 78 80 113
f 78 113 81
f 79 112 114
f 79 114 115
f 79 115 80
f 80 115 116
f 80 116 117
f 80 117 113
f 85 105 107
f 85 107 118
f 85 118 86
f 86 118 87
f 87 118 119
f 87 119 88
f 88 119 120
f 88 120 121
f 88 121 89
f 89 121 122
f 89 122 90
f 90 122 91
f 91 122 123
f 91 123 124
f 91 124 92
f 92 124 125
f 92 125 93
f 95 126 127
f 95 127 96
f 96 127 128
f 96 128 98
f 97 98 129
f 97 129 130
f 97 130 131
f 97 131 99
f 98 128 132
f 98 132 133
f 98 133 129
f 99 131 134
f 99 134 100
f 100 134 135
f 101 136 102
f 102 136 137
f 102 137 138
f 102 138 103
f 103 139 104
f 103 138 140
f 103 140 141
f 103 141 139
f 104 139 106
f 106 139 142
f 106 142 143
f 106 143 107
f 107 143 119
f 107 119 118
f 108 135 109
f 109 134 110
f 109 135 134
f 110 144 145
f 110 145 146
f 110 146 111
f 110 134 144
f 111 146 147
f 111 147 148
f 111 148 149
f 111 149 112
f 112 149 114
f 114 149 150
f 114 150 151
f 114 151 152
f 114 152 115
f 115 152 116
f 116 152 153
f 119 143 154
f 119 154 155
f 119 155 120
f 120 155 156
f 120 156 157
f 120 157 121
f 121 157 122
f 122 157 158
f 122 158 159
f 122 159 123
f 123 159 160
f 123 160 124
f 124 160 161
f 124 161 125
f 126 162 127
f 127 162 163
f 127 163 128
f 128 163 164
f 128 164 165
f 128 165 166
f 128 166 132
f 129 133 130
f 130 133 167
f 130 167 168
f 130 168 145
f 130 145 131
f 131 145 144
f 131 144 134
f 132 166 133
f 133 166 169
f 133 169 167
f 137 170 138
f 138 170 171
f 138 171 140
f 139 141 142
f 140 171 172
f 140 172 141
f 141 172 173
f 141 173 174
f 141 174 175
f 141 175 142
f 142 175 154
f 142 154 143
f 145 168 147
f 145 147 146
f 147 168 176
f 147 176 177
f 147 177 148
f 148 177 149
f 149 177 150
f 150 177 178
f 150 178 151
f 151 178 179
f 151 179 180
f 151 180 152
f 152 181 153
f 152 180 182
f 152 182 181
f 154 175 183
f 154 183 155
f 155 183 184
f 155 184 156
f 156 184 185
f 156 185 186
f 156 186 187
f 156 187 157
f 157 187 188
f 157 188 158
f 158 188 159
f 159 188 189
f 159 189 160
f 160 190 161
f 160 189 191
f 160 191 192
f 160 192 190
f 162 193 163
f 163 194 195
f 163 195 164
f 163 193 194
f 164 195 196
f 164 196 197
f 164 197 165
f 165 197 198
f 165 198 166
f 166 198 199
f 166 199 200
f 166 200 169
f 167 169 201
f 167 201 202
f 167 202 168
f 168 202 176
f 169 200 201
f 170 203 171
f 171 203 204
f 171 204 205
f 171 205 206
f 171 206 172
f 172 206 173
f 173 206 207
f 173 207 174
f 174 183 175
f 174 207 208
f 174 208 209
f 174 209 183
f 176 202 210
f 176 210 177
f 177 210 211
f 177 211 178
f 178 211 212
f 178 212 213
f 178 213 179
f 179 213 180
f 180 213 214
f 180 214 215
f 180 215 182
f 183 209 185
f 183 185 184
f 185 209 216
f 185 216 217
f 185 217 186
f 186 217 187
f 187 217 218
f 187 218 219
f 187 219 188
f 188 219 189
f 189 219 220
f 189 220 221
f 189 221 191
f 191 221 222
f 191 222 192
f 196 223 197
f 197 224 225
f 197 225 226
f 197 226 198
f 197 223 224
f 198 226 227
f 198 227 199
f 199 227 200
f 200 227 228
f 200 228 229
f 200 229 201
f 201 229 230
f 201 230 202
f 202 230 210
f 204 231 205
f 205 231 232
f 205 232 206
f 206 232 233
f 206 233 234
f 206 234 207
f 207 234 208
f 208 234 235
f 208 235 209
f 209 235 236
f 209 236 216
f 210 230 237
f 210 237 211
f 211 237 238
f 211 238 212
f 212 238 239
f 212 239 240
f 212 240 213
f 213 240 241
f 213 241 242
f 213 242 214
f 214 243 215
f 214 242 244
f 214 244 243
f 216 236 245
f 216 245 246
f 216 246 217
f 217 246 218
f 218 246 247
f 218 247 248
f 218 248 219
f 219 248 249
f 219 249 220
f 220 249 221
f 221 249 250
f 221 250 251
f 221 251 252
f 221 252 222
f 224 253 225
f 225 253 254
f 225 254 255
f 225 255 256
f 225 256 226
f 226 256 257
f 226 257 227
f 227 257 228
f 228 258 229
f 228 257 259
f 228 259 260
f 228 260 258
f 229 258 230
f 230 258 261
f 230 261 237
f 231 262 263
f 231 263 232
f 232 263 264
f 232 264 233
f 233 264 234
f 234 264 265
f 234 265 266
f 234 266 235
f 235 266 236
f 236 266 267
f 236 267 245
f 237 261 268
f 237 268 239
f 237 239 238
f 239 268 269
f 239 269 270
f 239 270 240
f 240 270 271
f 240 271 272
f 240 272 241
f 241 272 242
f 242 272 273
f 242 273 244
f 244 273 274
f 245 267 275
f 245 275 276
f 245 276 246
f 246 276 277
f 246 277 278
f 246 278 247
f 247 278 279
f 247 279 248
f 248 279 280
f 248 280 249
f 249 280 281
f 249 281 250
f 250 281 282
f 250 282 251
f 254 283 255
f 255 284 285
f 255 285 256
f 255 283 284
f 256 285 286
f 256 286 257
f 257 286 287
f 257 287 259
f 258 260 261
f 259 287 288
f 259 288 260
f 260 288 289
f 260 289 290
f 260 290 291
f 260 291 261
f 261 291 268
f 262 292 263
f 263 292 293
f 263 293 264
f 264 293 294
f 264 294 295
f 264 295 265
f 265 295 266
f 266 295 296
f 266 296 275
f 266 275 267
f 268 291 269
f 269 291 290
f 269 290 297
f 269 297 298
f 269 298 299
f 269 299 270
f 270 299 300
f 270 300 271
f 271 300 272
f 272 300 301
f 272 301 302
f 272 302 273
f 273 302 303
f 273 303 274
f 275 296 304
f 275 304 305
f 275 305 276
f 276 305 277
f 277 305 306
f 277 306 307
f 277 307 278
f 278 307 279
f 279 307 308
f 279 308 280
f 280 308 309
f 280 309 281
f 281 309 310
f 281 310 311
f 281 311 282
f 284 312 285
f 285 312 313
f 285 313 314
f 285 314 315
f 285 315 286
f 286 315 287
f 287 315 316
f 287 316 317
f 287 317 288
f 288 317 318
f 288 318 289
f 289 318 290
f 290 318 297
f 292 319 320
f 292 320 293
f 293 320 321
f 293 321 322
f 293 322 294
f 294 322 295
f 295 322 323
f 295 323 296
f 296 323 324
f 296 324 304
f 297 318 325
f 297 325 298
f 298 325 326
f 298 326 327
f 298 327 299
f 299 327 328
f 299 328 300
f 300 328 329
f 300 329 301
f 301 329 330
f 301 330 302
f 302 331 303
f 302 330 332
f 302 332 333
f 302 333 331
f 304 324 334
f 304 334 335
f 304 335 336
f 304 336 305
f 305 336 306
f 306 336 337
f 306 337 307
f 307 337 338
f 307 338 339
f 307 339 308
f 308 339 309
f 309 339 340
f 309 340 341
f 309 341 310
f 310 342 311
f 310 341 343
f 310 343 342
f 311 342 343
f 311 343 375
f 311 375 404
f 311 404 435
f 311 435 436
f 311 436 433
f 311 433 467
f 311 467 468
f 311 468 498
f 311 498 528
f 311 528 530
f 311 530 558
f 311 558 585
f 311 585 586
f 311 586 613
f 311 613 614
f 311 614 612
f 311 612 639
f 311 639 666
f 311 666 692
f 311 692 691
f 311 691 719
f 311 719 718
f 311 718 745
f 311 745 772
f 311 772 771
f 311 771 770
f 311 770 800
f 311 800 825
f 311 825 850
f 311 850 875
f 311 875 900
f 311 900 901
f 311 901 926
f 311 926 929
f 311 929 928
f 311 928 902
f 311 902 877
f 311 877 876
f 311 876 851
f 311 851 826
f 311 826 802
f 311 802 801
f 311 801 775
f 311 775 774
f 311 774 773
f 311 773 746
f 311 746 720
f 311 720 693
f 311 693 668
f 311 668 667
f 311 667 641
f 311 641 640
f 311 640 615
f 311 615 588
f 311 588 587
f 311 587 559
f 311 559 531
f 311 531 501
f 311 501 500
f 311 500 499
f 311 499 470
f 311 470 439
f 311 439 438
f 311 438 437
f 311 437 405
f 311 405 376
f 311 376 344
f 313 345 314
f 314 346 347
f 314 347 315
f 314 345 346
f 315 347 348
f 315 348 349
f 315 349 316
f 316 349 317
f 317 349 350
f 317 350 318
f 318 350 351
f 318 351 325
f 319 352 320
f 320 352 353
f 320 353 354
f 320 354 321
f 321 354 355
f 321 355 356
f 321 356 322
f 322 356 357
f 322 357 323
f 323 357 324
f 324 357 334
f 325 351 358
f 325 358 359
f 325 359 326
f 326 359 327
f 327 359 360
f 327 360 328
f 328 360 361
f 328 361 362
f 328 362 329
f 329 362 330
f 330 363 332
f 330 362 364
f 330 364 365
f 330 365 363
f 332 363 366
f 334 357 367
f 334 367 335
f 335 367 368
f 335 368 369
f 335 369 336
f 336 369 337
f 337 369 370
f 337 370 371
f 337 371 338
f 338 371 339
f 339 371 372
f 339 372 340
f 340 372 373
f 340 373 374
f 340 374 341
f 341 374 343
f 343 374 375
f 344 376 347
f 344 347 346
f 347 376 377
f 347 377 378
f 347 378 348
f 348 378 379
f 348 379 349
f 349 379 350
f 350 379 380
f 350 380 351
f 351 380 381
f 351 381 358
f 353 382 354
f 354 382 383
f 354 383 384
f 354 384 355
f 355 384 356
f 356 384 385
f 356 385 357
f 357 385 386
f 357 386 367
f 358 381 387
f 358 387 359
f 359 387 388
f 359 388 389
f 359 389 360
f 360 389 390
f 360 390 361
f 361 390 362
f 362 390 391
f 362 391 392
f 362 392 364
f 363 365 393
f 363 393 366
f 364 392 394
f 364 394 365
f 365 394 393
f 367 386 395
f 367 395 396
f 367 396 397
f 367 397 368
f 368 397 369
f 369 397 398
f 369 398 370
f 370 398 399
f 370 399 400
f 370 400 371
f 371 400 401
f 371 401 372
f 372 401 402
f 372 402 373
f 373 402 374
f 374 402 403
f 374 403 404
f 374 404 375
f 376 405 377
f 377 405 406
f 377 406 378
f 378 406 407
f 378 407 379
f 379 407 408
f 379 408 380
f 380 408 409
f 380 409 381
f 381 409 410
f 381 410 387
f 382 411 383
f 383 411 412
f 383 412 384
f 384 412 413
f 384 413 385
f 385 413 414
f 385 414 395
f 385 395 386
f 387 410 415
f 387 415 388
f 388 415 416
f 388 416 417
f 388 417 389
f 389 417 418
f 389 418 390
f 390 418 391
f 391 418 419
f 391 419 420
f 391 420 392
f 392 420 421
f 392 421 394
f 393 394 422
f 394 421 423
f 394 423 424
f 394 424 422
f 395 414 425
f 395 425 426
f 395 426 396
f 396 426 427
f 396 427 428
f 396 428 397
f 397 428 398
f 398 428 429
f 398 429 430
f 398 430 399
f 399 430 400
f 400 430 431
f 400 431 401
f 401 431 432
f 401 432 402
f 402 433 403
f 402 432 434
f 402 434 433
f 403 435 404
f 403 433 436
f 403 436 435
f 405 437 406
f 406 438 439
f 406 439 440
f 406 440 441
f 406 441 407
f 406 437 438
f 407 441 442
f 407 442 408
f 408 442 409
f 409 442 443
f 409 443 444
f 409 444 410
f 410 444 415
f 411 445 412
f 412 445 446
f 412 446 447
f 412 447 413
f 413 447 448
f 413 448 425
f 413 425 414
f 415 444 449
f 415 449 450
f 415 450 451
f 415 451 416
f 416 451 452
f 416 452 417
f 417 452 418
f 418 452 453
f 418 453 454
f 418 454 419
f 419 454 455
f 419 455 420
f 420 455 421
f 421 456 423
f 421 455 457
f 421 457 456
f 425 448 458
f 425 458 459
f 425 459 426
f 426 459 460
f 426 460 461
f 426 461 427
f 427 461 428
f 428 461 462
f 428 462 429
f 429 462 463
f 429 463 464
f 429 464 430
f 430 464 431
f 431 464 465
f 431 465 466
f 431 466 432
f 432 466 434
f 433 434 467
f 434 468 467
f 434 466 469
f 434 469 468
f 439 470 440
f 440 470 471
f 440 471 441
f 441 471 472
f 441 472 473
f 441 473 442
f 442 473 443
f 443 473 474
f 443 474 449
f 443 449 444
f 446 475 447
f 447 475 476
f 447 476 477
f 447 477 458
f 447 458 448
f 449 474 478
f 449 478 479
f 449 479 480
f 449 480 450
f 450 480 451
f 451 480 481
f 451 481 452
f 452 481 482
f 452 482 483
f 452 483 453
f 453 483 484
f 453 484 454
f 454 484 485
f 454 485 455
f 455 485 457
f 456 457 486
f 457 485 487
f 457 487 486
f 458 477 488
f 458 488 459
f 459 488 489
f 459 489 460
f 460 489 490
f 460 490 461
f 461 490 491
f 461 491 462
f 462 491 492
f 462 492 493
f 462 493 463
f 463 493 464
f 464 493 494
f 464 494 495
f 464 495 465
f 465 495 496
f 465 496 466
f 466 496 497
f 466 497 469
f 468 469 498
f 469 497 498
f 470 499 471
f 471 499 500
f 471 500 501
f 471 501 472
f 472 501 502
f 472 502 503
f 472 503 473
f 473 503 474
f 474 503 478
f 476 504 477
f 477 504 505
f 477 505 488
f 478 503 506
f 478 506 507
f 478 507 508
f 478 508 479
f 479 508 509
f 479 509 480
f 480 509 510
f 480 510 481
f 481 510 511
f 481 511 482
f 482 511 483
f 483 511 512
f 483 512 513
f 483 513 484
f 484 513 514
f 484 514 485
f 485 514 487
f 486 487 515
f 487 514 516
f 487 516 517
f 487 517 518
f 487 518 515
f 488 505 519
f 488 519 489
f 489 519 520
f 489 520 521
f 489 521 490
f 490 521 491
f 491 521 522
f 491 522 523
f 491 523 492
f 492 523 493
f 493 523 524
f 493 524 525
f 493 525 494
f 494 525 495
f 495 525 526
f 495 526 527
f 495 527 496
f 496 527 497
f 497 528 498
f 497 527 529
f 497 529 530
f 497 530 528
f 501 531 502
f 502 531 532
f 502 532 503
f 503 532 506
f 504 533 505
f 505 533 534
f 505 534 519
f 506 532 535
f 506 535 536
f 506 536 507
f 507 536 537
f 507 537 508
f 508 537 538
f 508 538 509
f 509 538 539
f 509 539 540
f 509 540 510
f 510 540 511
f 511 540 541
f 511 541 542
f 511 542 512
f 512 542 513
f 513 542 543
f 513 543 544
f 513 544 514
f 514 544 516
f 516 544 545
f 516 545 517
f 517 545 546
f 519 534 547
f 519 547 548
f 519 548 549
f 519 549 520
f 520 549 521
f 521 549 550
f 521 550 551
f 521 551 522
f 522 551 523
f 523 551 552
f 523 552 553
f 523 553 524
f 524 553 554
f 524 554 525
f 525 554 526
f 526 554 555
f 526 555 556
f 526 556 527
f 527 556 557
f 527 557 529
f 529 557 558
f 529 558 530
f 531 559 535
f 531 535 532
f 533 560 547
f 533 547 534
f 535 559 561
f 535 561 536
f 536 561 562
f 536 562 537
f 537 562 563
f 537 563 564
f 537 564 538
f 538 564 539
f 539 564 565
f 539 565 566
f 539 566 540
f 540 566 541
f 541 566 567
f 541 567 568
f 541 568 542
f 542 568 543
f 543 568 569
f 543 569 570
f 543 570 544
f 544 570 545
f 545 570 571
f 545 571 546
f 546 571 572
f 547 560 573
f 547 573 574
f 547 574 575
f 547 575 548
f 548 575 549
f 549 575 576
f 549 576 577
f 549 577 550
f 550 577 551
f 551 577 578
f 551 578 579
f 551 579 552
f 552 579 580
f 552 580 553
f 553 580 554
f 554 580 581
f 554 581 555
f 555 581 582
f 555 582 583
f 555 583 556
f 556 583 584
f 556 584 557
f 557 585 558
f 557 584 586
f 557 586 585
f 559 587 561
f 561 587 588
f 561 588 589
f 561 589 590
f 561 590 562
f 562 590 563
f 563 590 591
f 563 591 592
f 563 592 564
f 564 592 593
f 564 593 565
f 565 593 566
f 566 593 594
f 566 594 567
f 567 594 595
f 567 595 568
f 568 595 596
f 568 596 597
f 568 597 569
f 569 597 570
f 570 597 598
f 570 598 571
f 571 598 599
f 571 599 600
f 571 600 572
f 573 601 602
f 573 602 574
f 574 602 575
f 575 602 603
f 575 603 604
f 575 604 576
f 576 604 577
f 577 604 605
f 577 605 606
f 577 606 578
f 578 606 579
f 579 606 607
f 579 607 580
f 580 607 608
f 580 608 609
f 580 609 581
f 581 609 610
f 581 610 582
f 582 610 583
f 583 610 611
f 583 611 612
f 583 612 584
f 584 613 586
f 584 612 614
f 584 614 613
f 588 615 589
f 589 615 590
f 590 615 616
f 590 616 591
f 591 616 617
f 591 617 592
f 592 617 618
f 592 618 619
f 592 619 593
f 593 619 620
f 593 620 594
f 594 620 595
f 595 620 621
f 595 621 596
f 596 621 622
f 596 622 597
f 597 622 623
f 597 623 624
f 597 624 598
f 598 624 625
f 598 625 599
f 599 626 600
f 599 625 627
f 599 627 626
f 601 628 602
f 602 628 629
f 602 629 630
f 602 630 603
f 603 630 604
f 604 630 631
f 604 631 605
f 605 631 632
f 605 632 633
f 605 633 606
f 606 633 634
f 606 634 607
f 607 634 635
f 607 635 608
f 608 635 609
f 609 635 636
f 609 636 637
f 609 637 610
f 610 637 638
f 610 638 611
f 611 638 639
f 611 639 612
f 615 640 616
f 616 640 641
f 616 641 642
f 616 642 643
f 616 643 617
f 617 643 644
f 617 644 618
f 618 644 619
f 619 644 645
f 619 645 646
f 619 646 620
f 620 646 621
f 621 646 647
f 621 647 648
f 621 648 622
f 622 648 623
f 623 648 649
f 623 649 650
f 623 650 624
f 624 650 625
f 625 650 651
f 625 651 627
f 627 651 652
f 628 653 629
f 629 653 654
f 629 654 655
f 629 655 656
f 629 656 630
f 630 656 657
f 630 657 631
f 631 657 658
f 631 658 659
f 631 659 632
f 632 659 633
f 633 659 660
f 633 660 634
f 634 660 661
f 634 661 635
f 635 661 662
f 635 662 663
f 635 663 636
f 636 663 637
f 637 663 664
f 637 664 665
f 637 665 638
f 638 665 666
f 638 666 639
f 641 667 642
f 642 667 668
f 642 668 669
f 642 669 643
f 643 669 670
f 643 670 671
f 643 671 644
f 644 671 645
f 645 671 672
f 645 672 673
f 645 673 646
f 646 673 647
f 647 673 674
f 647 674 675
f 647 675 648
f 648 675 676
f 648 676 649
f 649 676 677
f 649 677 650
f 650 677 678
f 650 678 651
f 651 678 679
f 651 679 652
f 655 680 656
f 656 680 681
f 656 681 657
f 657 681 682
f 657 682 683
f 657 683 658
f 658 683 684
f 658 684 659
f 659 684 660
f 660 684 685
f 660 685 686
f 660 686 661
f 661 686 662
f 662 686 687
f 662 687 663
f 663 687 688
f 663 688 689
f 663 689 664
f 664 689 665
f 665 689 690
f 665 690 691
f 665 691 692
f 665 692 666
f 668 693 694
f 668 694 669
f 669 694 670
f 670 694 695
f 670 695 671
f 671 695 696
f 671 696 697
f 671 697 672
f 672 697 698
f 672 698 673
f 673 698 699
f 673 699 674
f 674 699 675
f 675 699 700
f 675 700 676
f 676 700 701
f 676 701 677
f 677 701 702
f 677 702 703
f 677 703 678
f 678 703 704
f 678 704 705
f 678 705 679
f 680 706 681
f 681 706 707
f 681 707 708
f 681 708 682
f 682 708 709
f 682 709 710
f 682 710 683
f 683 710 684
f 684 710 711
f 684 711 712
f 684 712 685
f 685 712 686
f 686 712 713
f 686 713 714
f 686 714 687
f 687 714 715
f 687 715 688
f 688 715 689
f 689 715 716
f 689 716 717
f 689 717 690
f 690 717 718
f 690 718 719
f 690 719 691
f 693 720 694
f 694 720 721
f 694 721 722
f 694 722 695
f 695 722 696
f 696 722 723
f 696 723 724
f 696 724 697
f 697 724 698
f 698 724 725
f 698 725 699
f 699 725 726
f 699 726 727
f 699 727 700
f 700 727 728
f 700 728 701
f 701 728 729
f 701 729 702
f 702 729 703
f 703 729 730
f 703 730 731
f 703 731 732
f 703 732 704
f 707 733 708
f 708 733 734
f 708 734 735
f 708 735 736
f 708 736 709
f 709 736 710
f 710 736 737
f 710 737 738
f 710 738 711
f 711 738 712
f 712 738 739
f 712 739 740
f 712 740 713
f 713 740 741
f 713 741 714
f 714 741 715
f 715 741 742
f 715 742 716
f 716 742 743
f 716 743 744
f 716 744 717
f 717 744 718
f 718 744 745
f 720 746 721
f 721 746 747
f 721 747 722
f 722 747 748
f 722 748 723
f 723 748 749
f 723 749 750
f 723 750 724
f 724 750 725
f 725 750 751
f 725 751 726
f 726 751 752
f 726 752 753
f 726 753 727
f 727 753 728
f 728 753 754
f 728 754 755
f 728 755 729
f 729 755 756
f 729 756 730
f 730 756 731
f 731 756 757
f 734 758 735
f 735 758 759
f 735 759 760
f 735 760 736
f 736 760 761
f 736 761 762
f 736 762 737
f 737 762 763
f 737 763 738
f 738 763 739
f 739 763 764
f 739 764 740
f 740 764 765
f 740 765 766
f 740 766 741
f 741 766 742
f 742 766 767
f 742 767 743
f 743 767 768
f 743 768 769
f 743 769 744
f 744 769 770
f 744 770 771
f 744 771 772
f 744 772 745
f 746 773 747
f 747 773 774
f 747 774 775
f 747 775 776
f 747 776 748
f 748 776 777
f 748 777 778
f 748 778 749
f 749 778 779
f 749 779 750
f 750 779 780
f 750 780 751
f 751 780 752
f 752 780 781
f 752 781 753
f 753 781 782
f 753 782 783
f 753 783 754
f 754 783 784
f 754 784 755
f 755 784 785
f 755 785 756
f 756 785 786
f 756 786 787
f 756 787 757
f 759 788 760
f 760 788 789
f 760 789 790
f 760 790 761
f 761 790 791
f 761 791 762
f 762 791 792
f 762 792 763
f 763 792 793
f 763 793 794
f 763 794 764
f 764 794 795
f 764 795 765
f 765 795 766
f 766 795 796
f 766 796 767
f 767 796 797
f 767 797 798
f 767 798 768
f 768 798 769
f 769 798 799
f 769 799 800
f 769 800 770
f 775 801 776
f 776 801 802
f 776 802 803
f 776 803 777
f 777 803 804
f 777 804 805
f 777 805 778
f 778 805 806
f 778 806 779
f 779 806 780
f 780 806 807
f 780 807 808
f 780 808 781
f 781 808 809
f 781 809 782
f 782 809 783
f 783 809 810
f 783 810 811
f 783 811 784
f 784 811 785
f 785 811 812
f 785 812 786
f 786 812 813
f 789 814 790
f 790 814 815
f 790 815 816
f 790 816 791
f 791 816 792
f 792 816 817
f 792 817 818
f 792 818 793
f 793 818 794
f 794 818 819
f 794 819 795
f 795 819 820
f 795 820 796
f 796 820 821
f 796 821 822
f 796 822 797
f 797 822 798
f 798 822 823
f 798 823 799
f 799 823 824
f 799 824 825
f 799 825 800
f 802 826 803
f 803 826 827
f 803 827 828
f 803 828 804
f 804 828 805
f 805 828 829
f 805 829 830
f 805 830 806
f 806 830 807
f 807 830 831
f 807 831 832
f 807 832 808
f 808 832 809
f 809 832 833
f 809 833 810
f 810 833 834
f 810 834 835
f 810 835 811
f 811 835 836
f 811 836 812
f 812 837 813
f 812 836 838
f 812 838 837
f 814 839 815
f 815 839 840
f 815 840 816
f 816 840 841
f 816 841 817
f 817 841 842
f 817 842 818
f 818 842 843
f 818 843 819
f 819 843 844
f 819 844 845
f 819 845 820
f 820 845 846
f 820 846 821
f 821 846 822
f 822 846 847
f 822 847 848
f 822 848 823
f 823 848 849
f 823 849 824
f 824 849 825
f 825 849 850
f 826 851 827
f 827 851 852
f 827 852 828
f 828 852 853
f 828 853 854
f 828 854 829
f 829 854 830
f 830 854 855
f 830 855 856
f 830 856 831
f 831 856 832
f 832 856 857
f 832 857 833
f 833 857 858
f 833 858 859
f 833 859 834
f 834 859 860
f 834 860 835
f 835 860 836
f 836 860 861
f 836 861 862
f 836 862 838
f 839 863 840
f 840 863 864
f 840 864 865
f 840 865 866
f 840 866 841
f 841 866 867
f 841 867 842
f 842 867 868
f 842 868 843
f 843 868 869
f 843 869 844
f 844 869 845
f 845 869 870
f 845 870 846
f 846 870 871
f 846 871 872
f 846 872 847
f 847 872 848
f 848 872 873
f 848 873 874
f 848 874 849
f 849 874 850
f 850 874 875
f 851 876 852
f 852 876 877
f 852 877 878
f 852 878 880
f 852 880 853
f 853 879 854
f 853 880 879
f 854 879 855
f 855 879 881
f 855 881 882
f 855 882 856
f 856 882 883
f 856 883 857
f 857 883 858
f 858 883 884
f 858 884 859
f 859 884 885
f 859 885 886
f 859 886 860
f 860 886 887
f 860 887 861
f 861 887 888
f 861 888 862
f 864 889 890
f 864 890 865
f 865 890 891
f 865 891 866
f 866 891 867
f 867 891 892
f 867 892 893
f 867 893 868
f 868 893 869
f 869 893 894
f 869 894 895
f 869 895 870
f 870 895 896
f 870 896 871
f 871 896 897
f 871 897 872
f 872 897 898
f 872 898 873
f 873 898 899
f 873 899 874
f 874 900 875
f 874 899 901
f 874 901 900
f 877 902 903
f 877 903 878
f 878 903 880
f 879 880 906
f 879 906 904
f 879 904 905
f 879 905 881
f 880 903 906
f 881 905 882
f 882 905 907
f 882 907 883
f 883 907 908
f 883 908 909
f 883 909 884
f 884 909 885
f 885 909 910
f 885 910 886
f 886 910 911
f 886 911 912
f 886 912 887
f 887 912 913
f 887 913 914
f 887 914 915
f 887 915 888
f 889 916 917
f 889 917 890
f 890 917 918
f 890 918 891
f 891 918 919
f 891 919 892
f 892 919 920
f 892 920 893
f 893 920 921
f 893 921 894
f 894 921 922
f 894 922 895
f 895 922 923
f 895 923 896
f 896 923 924
f 896 924 897
f 897 924 925
f 897 925 898
f 898 925 927
f 898 927 899
f 899 926 901
f 899 927 929
f 899 929 926
f 902 928 903
f 903 928 927
f 903 927 925
f 903 925 906
f 904 906 925
f 904 925 924
f 904 924 923
f 904 923 905
f 905 923 922
f 905 922 907
f 907 922 921
f 907 921 908
f 908 921 920
f 908 920 909
f 909 920 919
f 909 919 910
f 910 919 918
f 910 918 911
f 911 918 917
f 911 917 912
f 912 917 913
f 913 917 916
f 927 928 929

