# https://github.com/mikedh/trimesh
v 33.56720444 14.92192447 20.00000006
v 33.56720444 16.81122892 15.01370416
v 30.47504865 21.57030683 14.49491008
v 30.40936191 21.52553648 14.82380600
v 29.71097466 22.46123515 14.82380600
v 29.71097466 22.39855640 14.95301508
v 29.71097466 22.30006084 15.14878645
v 29.71097466 22.20156789 15.31714987
v 29.71097466 22.11202718 15.46985110
v 29.71097466 21.90160640 15.78308580
v 29.71097466 21.66432366 16.09044665
v 29.71097466 21.59716878 16.16679760
v 29.71097466 21.40017897 16.38997657
v 29.71097466 21.35988604 16.43500378
v 29.71097466 21.11364976 16.68363394
v 29.71097466 21.03306390 16.75998423
v 29.71097466 20.78682762 16.96750199
v 29.71097466 20.74205726 17.00274119
v 29.71097466 20.43314222 17.24158203
v 29.71097466 20.05259488 17.50587340
v 29.71097466 19.64966301 17.76037611
v 29.71097466 19.22434531 18.00313242
v 29.71097466 18.89752317 18.17149617
v 29.71097466 18.78559664 18.22826978
v 29.71097466 18.33341699 18.42599887
v 29.71097466 18.16776786 18.49256115
v 29.71097466 17.86780637 18.61198157
v 33.38147143 14.89058509 20.00000006
v 33.56720444 -14.48765323 20.00000006
v 33.56720444 16.85152184 14.90602981
v 30.52752215 21.61059976 14.16209870
v 29.71097466 22.59554490 14.49491008
v 33.56720444 16.96344838 14.60258443
v 33.56720444 17.07089618 14.29913872
v 29.71097466 17.39324220 18.78817560
v 33.04888822 14.81447536 20.00000006
v 29.71097466 -13.91011607 20.00000006
v 33.56720444 -14.51899260 19.99804232
v 30.56678243 21.63746171 13.82732991
v 29.71097466 22.72537984 14.07791715
v 29.71097466 22.70299271 14.16209870
v 33.56720444 17.08880458 14.23061871
v 29.71097466 13.81162181 20.00000006
v 32.65439358 14.70255014 20.00000006
v 29.71097466 -13.99965677 19.99216912
v 29.71097466 -14.03995100 19.98825431
v 29.71097466 -14.10710588 19.97455018
v 29.71097466 -14.17873818 19.95888831
v 33.56720444 -14.54137713 19.99216912
v 31.59926275 20.09736523 13.82732991
v 31.62606603 20.11527363 13.49060306
v 30.59283078 21.65537011 13.49060306
v 29.71097466 22.82835022 13.56108081
v 29.71097466 22.78358117 13.82732991
v 33.56720444 17.19625369 13.35552078
v 29.71097466 -14.51451518 19.85708749
v 33.56720444 -14.56823908 19.98042338
v 29.71097466 -17.74692759 18.65896652
v 29.71097466 -17.98420902 18.56499663
v 29.71097466 -18.27073954 18.45144875
v 29.71097466 -18.77216566 18.23414298
v 31.63701382 20.12422718 13.24393129
v 30.60340110 21.66432366 13.24393129
v 29.71097466 22.83730507 13.49060306
v 33.56720444 17.21863821 12.99921692
v 33.56720444 -14.59510103 19.96280378
v 29.71097466 -18.91990770 18.16170750
v 29.71097466 -19.22434531 18.00313242
v 29.71097466 -19.64966301 17.76037611
v 29.71097466 -20.05259488 17.50587340
v 31.64003354 20.12422718 12.99921692
v 30.60679764 21.66432366 12.99921692
v 29.71097466 22.86864445 12.99921692
v 29.71097466 22.85968959 13.24393129
v 33.56720444 17.21863821 7.00078308
v 33.56720444 -14.65330236 19.91777657
v 29.71097466 -20.42866480 17.24158203
v 29.71097466 -20.78682762 16.96750199
v 31.64003354 20.12422718 7.00078308
v 30.60679764 21.66432366 7.00078308
v 29.71097466 22.86864445 7.00078308
v 33.56720444 17.19625369 6.64447922
v 31.63361598 20.11974975 6.66209850
v 33.56720444 -14.67568818 19.89819923
v 29.71097466 -21.07783426 16.71691475
v 30.60038008 21.65984754 6.66209850
v 29.71097466 22.85521217 6.72866077
v 33.56720444 17.08880458 5.76938129
v 31.61285345 20.10631878 6.32341424
v 30.58037248 21.64641526 6.32341424
v 33.56720444 -14.76075146 19.80422869
v 29.71097466 -21.12260461 16.67776074
v 29.71097466 -21.40017897 16.38997657
v 29.71097466 -21.44494932 16.34299163
v 29.71097466 22.81939536 6.39584939
v 29.71097466 22.85073474 6.66209850
v 33.56720444 17.07089618 5.70086128
v 30.54677483 21.62403073 5.98864513
v 29.71097466 22.76119404 6.06695380
v 29.71097466 22.81044312 6.32341424
v 33.56720444 -14.85924572 19.69459694
v 29.71097466 -21.66432366 16.09044665
v 33.56720444 16.96344838 5.39741557
v 30.50034076 21.58821393 5.65387601
v 29.71097466 22.64926881 5.65387601
v 29.71097466 22.74328694 5.98864513
v 33.56720444 -15.02937358 19.49099464
v 29.71097466 -21.90160640 15.78308580
v 33.56720444 -15.19950014 19.27760433
v 33.56720444 16.85152184 5.09397019
v 30.44031795 21.54792100 5.32302269
v 33.56720444 16.81122892 4.98629584
v 33.56720444 14.92192447 -0.00000006
v 29.71097466 22.56420553 5.42873898
v 29.71097466 -21.98666967 15.65779218
v 33.56720444 -15.40096607 19.01331296
v 29.71097466 22.43437320 5.11942039
v 29.71097466 22.52391391 5.32302269
v 33.38147143 14.89058509 -0.00000006
v 29.71097466 17.98420902 1.43304564
v 29.71097466 18.16776786 1.50743885
v 29.71097466 18.49906743 1.64447887
v 29.71097466 18.89752317 1.82654610
v 29.71097466 18.96915548 1.86178530
v 29.71097466 19.32731699 2.05559893
v 29.71097466 19.41685770 2.10454160
v 29.71097466 19.83322054 2.35317111
v 29.71097466 20.22719886 2.61158928
v 29.71097466 20.34360152 2.69577116
v 29.71097466 20.59431523 2.88175385
v 29.71097466 20.95247675 3.16953802
v 29.71097466 21.03306390 3.24001577
v 29.71097466 21.24796081 3.44753288
v 29.71097466 21.46733515 3.68441664
v 29.71097466 21.52105905 3.74314798
v 29.71097466 21.77177276 4.04659336
v 29.71097466 21.91056125 4.23453379
v 29.71097466 22.00010195 4.35786968
v 29.71097466 22.20156789 4.67501952
v 29.71097466 22.37617187 4.99608451
v 33.56720444 -14.92192447 -0.00000006
v 29.71097466 -22.11202718 15.46985110
v 33.56720444 -15.76808244 18.46515289
v 33.04888822 14.81447536 -0.00000006
v 29.71097466 17.45144352 1.23335946
v 33.56720444 -16.81122892 4.98629584
v 30.47693532 -21.62403073 5.65387601
v 30.41728932 -21.57926038 5.32302269
v 30.34443140 -21.53001260 4.99608451
v 29.71097466 -22.37617187 4.99608451
v 29.71097466 -22.29558341 4.84534035
v 29.71097466 -22.20156789 4.67501952
v 29.71097466 -22.00010195 4.35786968
v 29.71097466 -21.85235862 4.15230965
v 29.71097466 -21.77177276 4.04659336
v 29.71097466 -21.57926038 3.80971026
v 29.71097466 -21.52105905 3.74314798
v 29.71097466 -21.24796081 3.44753288
v 29.71097466 -21.07783426 3.28504298
v 29.71097466 -20.93904577 3.15974936
v 29.71097466 -20.59431523 2.88175385
v 29.71097466 -20.49582098 2.80931838
v 29.71097466 -20.22272144 2.61158928
v 29.71097466 -20.03916390 2.48825340
v 29.71097466 -19.83322054 2.35317111
v 29.71097466 -19.41685770 2.10454160
v 29.71097466 -19.00049355 1.87744716
v 29.71097466 -18.91990770 1.83829250
v 29.71097466 -18.49906743 1.64447887
v 29.71097466 -17.98420902 1.43304564
v 33.38147143 -14.89058509 -0.00000006
v 29.71097466 -22.20604531 15.31127667
v 29.71097466 -22.30006084 15.14878645
v 33.56720444 -16.20235369 17.68010970
v 32.65439358 14.70255014 -0.00000006
v 29.71097466 17.33056344 1.19224707
v 33.56720444 -16.85152184 5.09397019
v 30.52336939 -21.65537011 5.98864513
v 29.71097466 -22.74328694 5.98864513
v 29.71097466 -22.67613076 5.75567716
v 29.71097466 -22.64479138 5.65387601
v 29.71097466 -22.52391391 5.32302269
v 33.56720444 -16.96344838 5.39741557
v 33.56720444 -17.07089618 5.70086128
v 29.71097466 -22.46571258 5.19381360
v 29.71097466 -17.75588114 1.34690668
v 33.04888822 -14.81447536 -0.00000006
v 29.71097466 -17.45144352 1.23335946
v 29.71097466 -22.39407897 14.96280375
v 33.56720444 -16.64110236 16.68754941
v 29.71097466 -22.46123515 14.82380600
v 29.71097466 13.81162181 -0.00000006
v 30.55696703 -21.67775463 6.32341424
v 33.56720444 -17.08880458 5.76938129
v 29.71097466 -22.81044312 6.32341424
v 32.65439358 -14.70255014 -0.00000006
v 29.71097466 -17.33056344 1.19224707
v 33.56720444 -16.95449352 15.77525487
v 29.71097466 -22.59554490 14.49491008
v 30.45164321 -21.60612233 14.49491008
v 29.71097466 -13.81162181 -0.00000006
v 30.57697464 -21.69118561 6.66209850
v 29.71097466 -22.84178250 6.58379015
v 31.60228312 -20.12422718 6.32341424
v 31.62266819 -20.13765816 6.66209850
v 33.56720444 -17.19625369 6.64447922
v 33.56720444 -17.00821742 15.56969484
v 30.50411671 -21.64193913 14.16209870
v 29.71097466 -22.70299271 14.16209870
v 30.60679764 -21.66432366 7.00078308
v 29.71097466 -22.86864445 7.00078308
v 29.71097466 -22.85073474 6.66209850
v 31.64003354 -20.12422718 7.00078308
v 33.56720444 -17.21863821 7.00078308
v 33.56720444 -17.11566653 15.14878645
v 29.71097466 -22.78358117 13.82732991
v 30.54337699 -21.66880108 13.82732991
v 30.60679764 -21.66432366 12.99921692
v 29.71097466 -22.86864445 12.99921692
v 31.64003354 -20.12422718 12.99921692
v 33.56720444 -17.21863821 14.55559916
v 29.71097466 -22.83730507 13.49060306
v 30.56942534 -21.68670949 13.49060306
v 30.57999566 -21.69566303 13.24393129
v 31.62606603 -20.14213558 13.24393129
v 29.71097466 -22.85968959 13.24393129
f 1 2 3
f 1 3 4
f 1 4 5
f 1 5 6
f 1 6 7
f 1 7 8
f 1 8 9
f 1 9 10
f 1 10 11
f 1 11 12
f 1 12 13
f 1 13 14
f 1 14 15
f 1 15 16
f 1 16 17
f 1 17 18
f 1 18 19
f 1 19 20
f 1 20 21
f 1 21 22
f 1 22 23
f 1 23 24
f 1 24 25
f 1 25 26
f 1 26 27
f 1 27 28
f 1 28 36
f 1 36 44
f 1 44 43
f 1 43 37
f 1 37 29
f 1 29 38
f 1 38 49
f 1 49 57
f 1 57 66
f 1 66 76
f 1 76 84
f 1 84 91
f 1 91 101
f 1 101 107
f 1 107 109
f 1 109 116
f 1 116 143
f 1 143 174
f 1 174 190
f 1 190 198
f 1 198 207
f 1 207 215
f 1 215 221
f 1 221 214
f 1 214 206
f 1 206 194
f 1 194 184
f 1 184 183
f 1 183 177
f 1 177 146
f 1 146 141
f 1 141 113
f 1 113 112
f 1 112 110
f 1 110 103
f 1 103 97
f 1 97 88
f 1 88 82
f 1 82 75
f 1 75 65
f 1 65 55
f 1 55 42
f 1 42 34
f 1 34 33
f 1 33 30
f 1 30 2
f 2 30 3
f 3 31 32
f 3 32 4
f 3 30 33
f 3 33 34
f 3 34 31
f 4 32 5
f 5 32 41
f 5 41 40
f 5 40 54
f 5 54 53
f 5 53 64
f 5 64 74
f 5 74 73
f 5 73 81
f 5 81 87
f 5 87 96
f 5 96 95
f 5 95 100
f 5 100 99
f 5 99 106
f 5 106 105
f 5 105 114
f 5 114 118
f 5 118 117
f 5 117 140
f 5 140 139
f 5 139 138
f 5 138 137
f 5 137 136
f 5 136 135
f 5 135 134
f 5 134 133
f 5 133 132
f 5 132 131
f 5 131 130
f 5 130 129
f 5 129 128
f 5 128 127
f 5 127 126
f 5 126 125
f 5 125 124
f 5 124 123
f 5 123 122
f 5 122 121
f 5 121 120
f 5 120 145
f 5 145 176
f 5 176 192
f 5 192 201
f 5 201 197
f 5 197 188
f 5 188 186
f 5 186 170
f 5 170 169
f 5 169 168
f 5 168 167
f 5 167 166
f 5 166 165
f 5 165 164
f 5 164 163
f 5 163 162
f 5 162 161
f 5 161 160
f 5 160 159
f 5 159 158
f 5 158 157
f 5 157 156
f 5 156 155
f 5 155 154
f 5 154 153
f 5 153 152
f 5 152 151
f 5 151 150
f 5 150 185
f 5 185 182
f 5 182 181
f 5 181 180
f 5 180 179
f 5 179 195
f 5 195 203
f 5 203 212
f 5 212 211
f 5 211 219
f 5 219 226
f 5 226 222
f 5 222 216
f 5 216 209
f 5 209 199
f 5 199 191
f 5 191 189
f 5 189 173
f 5 173 172
f 5 172 142
f 5 142 115
f 5 115 108
f 5 108 102
f 5 102 94
f 5 94 93
f 5 93 92
f 5 92 85
f 5 85 78
f 5 78 77
f 5 77 70
f 5 70 69
f 5 69 68
f 5 68 67
f 5 67 61
f 5 61 60
f 5 60 59
f 5 59 58
f 5 58 56
f 5 56 48
f 5 48 47
f 5 47 46
f 5 46 45
f 5 45 37
f 5 37 43
f 5 43 35
f 5 35 27
f 5 27 26
f 5 26 25
f 5 25 24
f 5 24 23
f 5 23 22
f 5 22 21
f 5 21 20
f 5 20 19
f 5 19 18
f 5 18 17
f 5 17 16
f 5 16 15
f 5 15 14
f 5 14 13
f 5 13 12
f 5 12 11
f 5 11 10
f 5 10 9
f 5 9 8
f 5 8 7
f 5 7 6
f 27 35 28
f 28 35 36
f 29 37 38
f 31 39 40
f 31 40 41
f 31 41 32
f 31 34 42
f 31 42 39
f 35 43 44
f 35 44 36
f 37 45 38
f 38 45 46
f 38 46 47
f 38 47 48
f 38 48 49
f 39 50 51
f 39 51 52
f 39 52 53
f 39 53 54
f 39 54 40
f 39 42 50
f 42 55 51
f 42 51 50
f 48 56 49
f 49 56 58
f 49 58 59
f 49 59 60
f 49 60 61
f 49 61 57
f 51 62 52
f 51 55 62
f 52 63 64
f 52 64 53
f 52 62 63
f 55 65 62
f 57 61 67
f 57 67 68
f 57 68 69
f 57 69 70
f 57 70 66
f 62 71 72
f 62 72 63
f 62 65 71
f 63 72 73
f 63 73 74
f 63 74 64
f 65 75 79
f 65 79 71
f 66 70 77
f 66 77 78
f 66 78 76
f 71 79 80
f 71 80 72
f 72 80 81
f 72 81 73
f 75 82 83
f 75 83 79
f 76 78 85
f 76 85 92
f 76 92 84
f 79 83 86
f 79 86 80
f 80 86 81
f 81 86 87
f 82 88 83
f 83 89 90
f 83 90 86
f 83 88 89
f 84 92 93
f 84 93 94
f 84 94 91
f 86 90 95
f 86 95 96
f 86 96 87
f 88 97 98
f 88 98 90
f 88 90 89
f 90 99 100
f 90 100 95
f 90 98 99
f 91 94 101
f 94 102 101
f 97 103 104
f 97 104 98
f 98 104 105
f 98 105 106
f 98 106 99
f 101 102 107
f 102 108 109
f 102 109 107
f 103 110 104
f 104 111 105
f 104 110 112
f 104 112 113
f 104 113 111
f 105 111 114
f 108 115 116
f 108 116 109
f 111 117 118
f 111 118 114
f 111 113 117
f 113 119 120
f 113 120 121
f 113 121 122
f 113 122 123
f 113 123 124
f 113 124 125
f 113 125 126
f 113 126 127
f 113 127 128
f 113 128 129
f 113 129 130
f 113 130 131
f 113 131 132
f 113 132 133
f 113 133 134
f 113 134 135
f 113 135 136
f 113 136 137
f 113 137 138
f 113 138 139
f 113 139 140
f 113 140 117
f 113 141 171
f 113 171 187
f 113 187 196
f 113 196 201
f 113 201 192
f 113 192 175
f 113 175 144
f 113 144 119
f 115 142 143
f 115 143 116
f 119 144 145
f 119 145 120
f 141 146 147
f 141 147 148
f 141 148 149
f 141 149 150
f 141 150 151
f 141 151 152
f 141 152 153
f 141 153 154
f 141 154 155
f 141 155 156
f 141 156 157
f 141 157 158
f 141 158 159
f 141 159 160
f 141 160 161
f 141 161 162
f 141 162 163
f 141 163 164
f 141 164 165
f 141 165 166
f 141 166 167
f 141 167 168
f 141 168 169
f 141 169 170
f 141 170 171
f 142 172 143
f 143 172 173
f 143 173 174
f 144 175 145
f 145 175 176
f 146 177 147
f 147 178 179
f 147 179 180
f 147 180 181
f 147 181 182
f 147 182 148
f 147 177 183
f 147 183 184
f 147 184 178
f 148 182 149
f 149 182 185
f 149 185 150
f 170 186 171
f 171 186 188
f 171 188 187
f 173 189 174
f 174 189 191
f 174 191 190
f 175 192 176
f 178 193 179
f 178 184 194
f 178 194 193
f 179 193 195
f 187 188 196
f 188 197 196
f 190 191 199
f 190 199 200
f 190 200 198
f 193 202 203
f 193 203 195
f 193 194 204
f 193 204 205
f 193 205 202
f 194 206 205
f 194 205 204
f 196 197 201
f 198 200 208
f 198 208 207
f 199 209 200
f 200 209 208
f 202 205 210
f 202 210 211
f 202 211 212
f 202 212 203
f 205 213 210
f 205 206 214
f 205 214 213
f 207 208 215
f 208 209 216
f 208 216 217
f 208 217 215
f 210 218 219
f 210 219 211
f 210 213 220
f 210 220 218
f 213 214 221
f 213 221 220
f 215 217 221
f 216 222 217
f 217 222 223
f 217 223 221
f 218 224 219
f 218 220 225
f 218 225 221
f 218 221 224
f 219 224 226
f 220 221 225
f 221 223 224
f 222 226 224
f 222 224 223

