# https://github.com/mikedh/trimesh
v 29.71097466 -4.13285494 20.00000006
v 29.71097466 -13.91208097 20.00000006
v 29.71097466 -4.13285494 -0.00000006
v 25.20539027 -16.26788136 19.88057964
v 25.20539027 -16.27712827 20.00000006
v 29.71097466 -14.00224492 19.99216912
v 25.20539027 -17.15564001 20.00000006
v 25.20539027 -17.76366383 19.99021204
v 25.20539027 -17.88388025 19.98629658
v 25.20539027 -18.33469607 19.96671924
v 25.20539027 -18.89648139 19.92560750
v 29.71097466 -13.81498314 -0.00000006
v 25.20539027 -16.27712827 -0.00000006
v 29.71097466 -14.04617038 19.98825431
v 25.20539027 -19.30337176 19.88449510
v 25.20539027 -19.14847549 0.09788530
v 25.20539027 -18.87336280 0.07439250
v 25.20539027 -18.58900189 0.05090035
v 25.20539027 -18.02490484 0.01761889
v 25.20539027 -17.88388025 0.01370342
v 25.20539027 -17.59720892 0.00587314
v 25.20539027 -17.15564001 -0.00000006
v 29.71097466 -17.45387260 1.23335946
v 29.07191917 -18.51502266 1.23335946
v 28.83243814 -18.36243812 1.04933385
v 28.58590197 -18.20523143 0.87705528
v 27.64032923 -19.61085126 0.87705528
v 27.39599656 -19.43745986 0.72043793
v 26.39044404 -20.78297082 0.72043793
v 26.14875820 -20.59108559 0.57752537
v 25.90222072 -20.39688732 0.45027401
v 25.20539027 -21.23841010 0.45027401
v 25.20539027 -20.73673364 0.33868387
v 25.20539027 -20.22812068 0.24275625
v 25.20539027 -19.84897368 0.18402491
v 25.20539027 -19.70332563 0.16248984
v 29.71097466 -14.11090270 19.97455018
v 25.20539027 -19.45364326 19.86883324
v 25.20539027 -19.84897368 19.81597509
v 25.20539027 -19.99693345 19.79444068
v 25.20539027 -20.04548237 19.78660975
v 25.20539027 -20.50785813 19.70634334
v 25.20539027 -21.01415806 19.60062705
v 29.71097466 -17.98560284 1.43304564
v 29.30346105 -18.66298243 1.43304564
v 28.11046943 -19.94376108 1.23335946
v 27.87892755 -19.77961659 1.04933385
v 26.62639555 -20.96792087 0.87705528
v 25.31917609 -22.07530811 0.72043793
v 25.20539027 -21.73083834 0.57752537
v 29.70700573 -14.17794675 19.96084604
v 29.71097466 -14.18025848 19.95888831
v 25.20539027 -21.50889933 19.48120598
v 29.71097466 -18.35781466 1.58574753
v 29.52618238 -18.80400702 1.64447887
v 28.54973704 -20.25586404 1.64447887
v 28.33407216 -20.10327950 1.43304564
v 27.29455952 -21.49502765 1.43304564
v 27.07889464 -21.32394928 1.23335946
v 26.85617331 -21.14824615 1.04933385
v 25.54542564 -22.27181681 0.87705528
v 25.20539027 -22.64171690 0.87705528
v 25.20539027 -22.19783887 0.72043793
v 25.20539027 -21.97589725 0.65191858
v 26.03850059 -20.50554641 19.48120598
v 29.71097466 -14.52010479 19.85708749
v 26.28239125 -20.69743164 19.34612369
v 25.20539027 -21.59443852 19.45771383
v 29.71097466 -18.49883925 1.64447887
v 29.71097466 -18.92191172 1.83829250
v 28.75702206 -20.40382382 1.86961623
v 27.50184454 -21.65685911 1.64447887
v 26.38559241 -23.00468050 1.64447887
v 26.18624523 -22.83129171 1.43304564
v 25.97940221 -22.65096381 1.23335946
v 25.76550145 -22.46370204 1.04933385
v 25.20539027 -23.07403758 1.04933385
v 25.21553423 -21.98514417 19.34612369
v 28.96518979 -18.44797730 18.85082241
v 29.20025989 -18.59593838 18.65896652
v 29.71097466 -17.74979215 18.65896652
v 26.52098957 -20.88469341 19.19538019
v 27.53095303 -19.53455899 19.19538019
v 27.77263887 -19.70563736 19.02897418
v 28.00726697 -19.87209227 18.85082241
v 25.20539027 -21.99901715 19.34416661
v 29.71097466 -19.00051571 1.87744716
v 28.95460382 -20.54484710 2.10454160
v 27.89215773 -21.96433730 2.10454160
v 27.70119172 -21.81406580 1.86961623
v 26.57700043 -23.17113541 1.86961623
v 25.38577292 -24.47041050 1.86961623
v 25.20539027 -24.29701909 1.64839434
v 25.20539027 -23.90168868 1.43304564
v 25.20539027 -23.49479832 1.23335946
v 25.20539027 -22.44520821 19.19538019
v 25.44442929 -22.18396589 19.19538019
v 29.42695014 -18.74158643 18.45144875
v 28.23439922 -20.03161199 18.65896652
v 28.45359232 -20.18881869 18.45144875
v 29.71097466 -17.98560284 18.56499663
v 26.75341286 -21.06733173 19.02897418
v 26.97966240 -21.24534529 18.85082241
v 27.19841480 -21.41873538 18.65896652
v 29.71097466 -19.41896472 2.10454160
v 29.71097466 -19.68483049 2.26311669
v 29.14336633 -20.67662477 2.35317111
v 28.07342179 -22.10767493 2.35317111
v 26.93423621 -23.48323837 2.35317111
v 26.76002860 -23.33065644 2.10454160
v 25.56086194 -24.63917583 2.10454160
v 25.20539027 -24.70621988 1.90877024
v 25.20539027 -24.64842275 1.86961623
v 25.66715062 -22.37816416 19.02897418
v 25.20539027 -22.88215235 19.02897418
v 29.64526054 -18.88029799 18.23414298
v 29.71097466 -18.77164021 18.23414298
v 29.71097466 -18.39711666 18.39663288
v 29.71097466 -18.26996375 18.45144875
v 28.66484627 -20.33909149 18.23414298
v 27.40966875 -21.58519030 18.45144875
v 25.88413890 -22.56773636 18.85082241
v 26.09406944 -22.75037467 18.65896652
v 26.29694484 -22.92838953 18.45144875
v 29.71097466 -19.83279027 2.35317111
v 29.71097466 -20.03854718 2.48825340
v 29.71097466 -20.22580896 2.61158928
v 29.32154287 -20.80377769 2.61158928
v 28.24542459 -22.24407345 2.61158928
v 27.09918257 -23.62657599 2.61158928
v 25.88457961 -24.95127879 2.61158928
v 25.72713170 -24.79869425 2.35317111
v 25.20539027 -24.99058209 2.10454160
v 25.20539027 -23.09022099 18.94283522
v 29.71097466 -19.22707949 18.00313242
v 29.71097466 -18.92191172 18.16170750
v 27.61254415 -21.74471002 18.23414298
v 28.86683896 -20.48242651 18.00313242
v 25.20539027 -23.30753654 18.85082241
v 25.20539027 -23.71905036 18.65896652
v 25.20539027 -24.08201396 18.47102609
v 26.49188109 -23.09715748 18.23414298
v 25.20539027 -24.29701909 18.34964793
v 25.30462250 -24.39180650 18.23414298
v 29.71097466 -20.49629819 2.80931838
v 29.48957674 -20.92399541 2.88175385
v 28.40728343 -22.37122767 2.88175385
v 27.25442566 -23.76297712 2.88175385
v 26.03276625 -25.09461641 2.88175385
v 25.20539027 -25.62172189 2.61158928
v 25.20539027 -25.45758002 2.47259153
v 25.20539027 -25.31424239 2.35317111
v 29.71097466 -19.65015195 17.76037611
v 26.67887818 -23.26129936 18.00313242
v 27.80748039 -21.89729325 18.00313242
v 29.05957039 -20.61882764 17.76037611
v 27.99315408 -22.04525433 17.76037611
v 25.48324104 -24.56519529 18.00313242
v 25.20539027 -24.49121475 18.23414298
v 29.71097466 -20.59339732 2.88175385
v 29.71097466 -20.91474719 3.13821429
v 29.64702465 -21.03496492 3.15974936
v 28.55855759 -22.48913497 3.15974936
v 27.39952479 -23.88781831 3.15974936
v 26.17169164 -25.22870451 3.15974936
v 25.20539027 -25.91070756 2.88175385
v 29.71097466 -19.82123032 17.65270209
v 25.65303773 -24.72933978 17.76037611
v 26.85705602 -23.41619432 17.76037611
v 29.24259856 -20.74829228 17.50587340
v 28.16912580 -22.18396589 17.50587340
v 27.02597130 -23.56415540 17.50587340
v 25.20539027 -24.83799756 18.00313242
v 25.20539027 -25.17090738 17.76037611
v 29.71097466 -20.94017752 3.15974936
v 29.71097466 -21.08120210 3.28504298
v 28.69924709 -22.60010317 3.44753288
v 27.53404055 -24.00572300 3.44753288
v 26.30047306 -25.35354570 3.44753288
v 25.20539027 -26.43318959 3.44753288
v 25.20539027 -26.18119679 3.15974936
v 29.71097466 -20.05241886 17.50587340
v 25.81489656 -24.88423474 17.50587340
v 29.41548277 -20.87082174 17.24158203
v 28.33583627 -22.31343053 17.24158203
v 27.18562402 -23.70286696 17.24158203
v 25.96705213 -25.03219582 17.24158203
v 25.20539027 -25.48532337 17.50587340
v 29.71097466 -21.24765702 3.44753288
v 29.71097466 -21.47422079 3.69028984
v 28.82890992 -22.70182446 3.74314798
v 27.65841104 -24.11438078 3.74314798
v 26.41911052 -25.46682693 3.74314798
v 25.20539027 -26.66437812 3.74314798
v 29.71097466 -20.43156587 17.24158203
v 25.20539027 -25.78355335 17.24158203
v 29.57734160 -20.98641600 16.96750199
v 29.71097466 -20.73210888 17.01057212
v 28.49196207 -22.43827172 16.96750199
v 27.33557608 -23.83233160 16.96750199
v 26.11038845 -25.16859695 16.96750199
v 25.20539027 -25.88527724 17.14173894
v 29.71097466 -21.52276970 3.74314798
v 29.71097466 -21.57825511 3.80971026
v 28.94710667 -22.79661186 4.04659336
v 27.77175616 -24.21379164 4.04659336
v 26.52760401 -25.57086125 4.04659336
v 25.21641564 -26.86551027 4.04659336
v 25.20539027 -26.85395032 4.01527029
v 29.71097466 -21.08120210 16.71691475
v 29.71097466 -20.78759428 16.96750199
v 28.63750190 -22.55155295 16.68363394
v 27.47450016 -23.95486236 16.68363394
v 26.24357950 -25.29805899 16.68363394
v 25.20539027 -26.06097907 16.96750199
v 25.20539027 -26.32222138 16.68363394
v 29.71097466 -21.77476510 4.04659336
v 29.71097466 -22.00132757 4.35786968
v 29.05339535 -22.87983932 4.35786968
v 27.87363522 -24.30164255 4.35786968
v 26.62507214 -25.66564865 4.35786968
v 25.30903213 -26.96260810 4.35786968
v 25.20539027 -26.87707022 4.04855110
v 29.71097466 -21.12281583 16.67776074
v 28.77201766 -22.65790030 16.38997657
v 27.60372359 -24.06814359 16.38997657
v 26.36706859 -25.41596629 16.38997657
v 25.20539027 -26.36614554 16.63077515
v 29.71097466 -22.20245972 4.67501952
v 29.14777726 -22.95381986 4.67501952
v 27.96448760 -24.38255697 4.67501952
v 26.71151489 -25.74887611 4.67501952
v 25.39150596 -27.05046162 4.67501952
v 25.20539027 -27.06895545 4.38332021
v 25.20539027 -27.05508508 4.35786968
v 29.71097466 -21.40255328 16.38997657
v 28.89506474 -22.75499813 16.09044665
v 29.71097466 -21.44416571 16.34299163
v 26.47997301 -25.52462406 16.09044665
v 27.72191904 -24.16986749 16.09044665
v 25.20539027 -26.56265423 16.38997657
v 29.71097466 -22.29493670 4.84534035
v 29.23024978 -23.01855348 4.99608451
v 28.04343190 -24.45191406 4.99608451
v 26.78693097 -25.82054362 4.99608451
v 25.46339381 -27.12675259 4.99608451
v 25.20539027 -27.23772079 4.72004673
v 25.20539027 -27.21691653 4.67501952
v 29.00708776 -22.84284905 15.78308580
v 29.71097466 -21.73315138 16.00234931
v 29.71097466 -21.66379429 16.09044665
v 27.82909043 -24.26465228 15.78308580
v 26.58229277 -25.62403493 15.78308580
v 25.20539027 -26.78228281 16.09044665
v 25.20539027 -26.85395032 15.98277198
v 29.71097466 -22.37585112 4.99608451
v 29.71097466 -22.52612263 5.32302269
v 29.30037353 -23.07403758 5.32302269
v 28.11091013 -24.50971119 5.32302269
v 26.85132168 -25.88296421 5.32302269
v 25.52425630 -27.19379663 5.32302269
v 25.20539027 -27.35794112 4.99608451
v 29.10676070 -22.92145304 15.46985110
v 29.71097466 -22.11461142 15.46985110
v 29.71097466 -21.98745720 15.65779218
v 29.71097466 -21.90191671 15.78308580
v 27.92523514 -24.34787974 15.46985110
v 26.67402785 -25.71188584 15.46985110
v 25.26889957 -26.92099437 15.78308580
v 25.20539027 -26.97648108 15.78308580
v 29.71097466 -22.60703966 5.54424426
v 29.35770780 -23.12027477 5.65387601
v 28.16603959 -24.55826141 5.65387601
v 26.90380562 -25.93382485 5.65387601
v 25.57453413 -27.24697031 5.65387601
v 25.20539027 -27.47815624 5.32302269
v 25.20539027 -27.38105841 5.05873132
v 29.19496756 -22.99081013 15.14878645
v 29.71097466 -22.30187058 15.14878645
v 26.75429557 -25.79048984 15.14878645
v 28.00947309 -24.42186028 15.14878645
v 25.35578173 -27.01347135 15.46985110
v 25.20539027 -26.98572800 15.76742394
v 25.20539027 -27.14755945 15.46985110
v 29.71097466 -22.64634036 5.65387601
v 29.71097466 -22.67639413 5.75567716
v 29.71097466 -22.74343818 5.98864513
v 29.40269329 -23.15495461 5.98864513
v 28.20881896 -24.59525168 5.98864513
v 26.94526158 -25.97312815 5.98864513
v 25.61334457 -27.28858404 5.98864513
v 25.20539027 -27.63074078 5.89271718
v 25.20539027 -27.57525668 5.65387601
v 25.20539027 -27.50127614 5.40133104
v 29.27038364 -23.05091769 14.82380600
v 29.71097466 -22.39434756 14.96280375
v 25.43252252 -27.09438577 15.14878645
v 25.49823534 -27.16605589 14.82380600
v 26.82397861 -25.85753389 14.82380600
v 28.08180165 -24.48428087 14.82380600
v 25.20539027 -27.29783095 15.14878645
v 29.71097466 -22.79430144 6.23923237
v 29.43488799 -23.18038493 6.32341424
v 28.23969156 -24.62299243 6.32341424
v 26.97437007 -26.00318193 6.32341424
v 25.64157166 -27.31863782 6.32341424
v 25.20539027 -27.70703435 6.32341424
v 25.20539027 -27.65154764 5.98864513
v 29.33345094 -23.09946790 14.49491008
v 29.71097466 -22.59547971 14.49491008
v 29.71097466 -22.46139161 14.82380600
v 28.14266413 -24.53745455 14.49491008
v 25.20539027 -27.42729560 14.82380600
v 25.20539027 -27.50821263 14.57517649
v 25.55336479 -27.22385302 14.49491008
v 26.88175358 -25.91301799 14.49491008
v 29.71097466 -22.81048484 6.32341424
v 29.45429452 -23.19425531 6.66209850
v 28.25821538 -24.63917583 6.66209850
v 29.71097466 -22.84284905 6.58379015
v 29.71097466 -22.85209857 6.66209850
v 26.99245319 -26.01936534 6.66209850
v 25.65833006 -27.33482122 6.66209850
v 25.20539027 -27.73939855 6.66209850
v 29.38416947 -23.14108163 14.16209870
v 29.71097466 -22.70413749 14.16209870
v 28.19117785 -24.57906827 14.16209870
v 25.20539027 -27.53364295 14.49491008
v 25.20539027 -27.55676284 14.40877080
v 25.59746757 -27.27008760 14.16209870
v 26.92806117 -25.95694475 14.16209870
v 29.71097466 -22.86596894 6.93422080
v 29.49795660 -23.15264158 7.00078308
v 28.31731245 -24.58137870 7.00078308
v 27.06830997 -25.95232129 7.00078308
v 25.75226996 -27.25853026 7.00078308
v 25.20539027 -27.75095850 7.00078308
v 25.20539027 -27.74402201 6.78151924
v 29.71097466 -22.76193462 13.91738466
v 28.22734278 -24.61143509 13.82732991
v 29.42209851 -23.16882499 13.82732991
v 26.96290269 -25.99162199 13.82732991
v 25.20539027 -27.61918083 14.16209870
v 25.20539027 -27.68391445 13.82732991
v 25.63010428 -27.30476744 13.82732991
v 29.71097466 -22.86827937 7.00078308
v 29.49795660 -23.15264158 12.99921692
v 28.31731245 -24.58137870 12.99921692
v 27.06830997 -25.95232129 12.99921692
v 25.75226996 -27.25853026 12.99921692
v 25.20539027 -27.75095850 12.99921692
v 29.71097466 -22.78274149 13.82732991
v 28.25159963 -24.63223934 13.49060306
v 29.44723807 -23.18963185 13.49060306
v 29.71097466 -22.83822559 13.49060306
v 25.65215632 -27.32788473 13.49060306
v 26.98583744 -26.01242885 13.49060306
v 25.20539027 -27.72783861 13.49060306
v 29.71097466 -22.86827937 12.99921692
v 29.71097466 -22.85903245 13.24393129
v 29.45738073 -23.19656834 13.24393129
v 28.26130159 -24.64148887 13.24393129
v 26.99509870 -26.02167577 13.24393129
v 25.66097688 -27.33944468 13.24393129
v 25.20539027 -27.74864808 13.15779168
v 29.71097466 -22.85440899 13.30070490
f 1 2 6
f 1 6 14
f 1 14 37
f 1 37 52
f 1 52 66
f 1 66 81
f 1 81 101
f 1 101 119
f 1 119 118
f 1 118 117
f 1 117 136
f 1 136 135
f 1 135 153
f 1 153 167
f 1 167 182
f 1 182 195
f 1 195 198
f 1 198 211
f 1 211 210
f 1 210 224
f 1 224 236
f 1 236 238
f 1 238 251
f 1 251 250
f 1 250 266
f 1 266 265
f 1 265 264
f 1 264 279
f 1 279 296
f 1 296 311
f 1 311 310
f 1 310 326
f 1 326 339
f 1 339 352
f 1 352 355
f 1 355 366
f 1 366 360
f 1 360 359
f 1 359 346
f 1 346 332
f 1 332 321
f 1 321 320
f 1 320 317
f 1 317 302
f 1 302 287
f 1 287 286
f 1 286 285
f 1 285 271
f 1 271 257
f 1 257 256
f 1 256 242
f 1 242 229
f 1 229 218
f 1 218 217
f 1 217 204
f 1 204 203
f 1 203 190
f 1 190 189
f 1 189 176
f 1 176 175
f 1 175 161
f 1 161 160
f 1 160 145
f 1 145 127
f 1 127 126
f 1 126 125
f 1 125 106
f 1 106 105
f 1 105 87
f 1 87 70
f 1 70 69
f 1 69 54
f 1 54 44
f 1 44 23
f 1 23 12
f 1 12 3
f 1 3 4
f 1 4 5
f 1 5 7
f 1 7 2
f 2 7 8
f 2 8 9
f 2 9 10
f 2 10 11
f 2 11 6
f 3 12 22
f 3 22 13
f 3 13 4
f 4 13 22
f 4 22 21
f 4 21 20
f 4 20 19
f 4 19 18
f 4 18 17
f 4 17 16
f 4 16 36
f 4 36 35
f 4 35 34
f 4 34 33
f 4 33 32
f 4 32 50
f 4 50 64
f 4 64 63
f 4 63 62
f 4 62 77
f 4 77 95
f 4 95 94
f 4 94 93
f 4 93 113
f 4 113 112
f 4 112 133
f 4 133 152
f 4 152 151
f 4 151 150
f 4 150 166
f 4 166 181
f 4 181 180
f 4 180 194
f 4 194 209
f 4 209 223
f 4 223 235
f 4 235 234
f 4 234 248
f 4 248 247
f 4 247 262
f 4 262 277
f 4 277 276
f 4 276 294
f 4 294 293
f 4 293 292
f 4 292 308
f 4 308 307
f 4 307 324
f 4 324 338
f 4 338 337
f 4 337 351
f 4 351 365
f 4 365 358
f 4 358 344
f 4 344 343
f 4 343 329
f 4 329 328
f 4 328 314
f 4 314 313
f 4 313 301
f 4 301 284
f 4 284 283
f 4 283 270
f 4 270 255
f 4 255 254
f 4 254 241
f 4 241 228
f 4 228 216
f 4 216 215
f 4 215 202
f 4 202 196
f 4 196 188
f 4 188 174
f 4 174 173
f 4 173 159
f 4 159 143
f 4 143 141
f 4 141 140
f 4 140 139
f 4 139 134
f 4 134 115
f 4 115 96
f 4 96 86
f 4 86 68
f 4 68 53
f 4 53 43
f 4 43 42
f 4 42 41
f 4 41 40
f 4 40 39
f 4 39 38
f 4 38 15
f 4 15 11
f 4 11 10
f 4 10 9
f 4 9 8
f 4 8 7
f 4 7 5
f 6 11 14
f 11 15 14
f 12 16 17
f 12 17 18
f 12 18 19
f 12 19 20
f 12 20 21
f 12 21 22
f 12 23 24
f 12 24 25
f 12 25 26
f 12 26 27
f 12 27 28
f 12 28 29
f 12 29 30
f 12 30 31
f 12 31 32
f 12 32 33
f 12 33 34
f 12 34 35
f 12 35 36
f 12 36 16
f 14 15 38
f 14 38 39
f 14 39 40
f 14 40 41
f 14 41 42
f 14 42 43
f 14 43 37
f 23 44 45
f 23 45 24
f 24 45 46
f 24 46 47
f 24 47 25
f 25 47 27
f 25 27 26
f 27 47 48
f 27 48 28
f 28 48 29
f 29 48 49
f 29 49 50
f 29 50 30
f 30 50 31
f 31 50 32
f 37 51 52
f 37 43 51
f 43 53 51
f 44 54 45
f 45 54 55
f 45 55 56
f 45 56 57
f 45 57 46
f 46 57 58
f 46 58 59
f 46 59 60
f 46 60 47
f 47 60 48
f 48 60 61
f 48 61 49
f 49 61 62
f 49 62 63
f 49 63 64
f 49 64 50
f 51 53 65
f 51 65 52
f 52 65 67
f 52 67 66
f 53 68 65
f 54 69 55
f 55 69 70
f 55 70 71
f 55 71 56
f 56 71 72
f 56 72 58
f 56 58 57
f 58 72 73
f 58 73 74
f 58 74 75
f 58 75 59
f 59 75 60
f 60 75 76
f 60 76 61
f 61 76 77
f 61 77 62
f 65 68 78
f 65 78 67
f 66 79 80
f 66 80 81
f 66 67 82
f 66 82 83
f 66 83 84
f 66 84 85
f 66 85 79
f 67 78 82
f 68 86 78
f 70 87 71
f 71 88 89
f 71 89 90
f 71 90 72
f 71 87 88
f 72 90 73
f 73 90 91
f 73 91 92
f 73 92 93
f 73 93 94
f 73 94 74
f 74 94 75
f 75 94 95
f 75 95 76
f 76 95 77
f 78 86 96
f 78 96 97
f 78 97 82
f 79 85 80
f 80 98 81
f 80 85 99
f 80 99 100
f 80 100 98
f 81 98 101
f 82 102 84
f 82 84 83
f 82 97 102
f 84 102 103
f 84 103 85
f 85 103 104
f 85 104 99
f 87 105 88
f 88 105 106
f 88 106 107
f 88 107 108
f 88 108 89
f 89 108 109
f 89 109 110
f 89 110 91
f 89 91 90
f 91 110 111
f 91 111 92
f 92 111 112
f 92 112 113
f 92 113 93
f 96 114 97
f 96 115 114
f 97 114 102
f 98 116 117
f 98 117 118
f 98 118 119
f 98 119 101
f 98 100 120
f 98 120 116
f 99 104 100
f 100 104 121
f 100 121 120
f 102 114 122
f 102 122 103
f 103 122 104
f 104 122 123
f 104 123 124
f 104 124 121
f 106 125 107
f 107 125 126
f 107 126 127
f 107 127 128
f 107 128 129
f 107 129 108
f 108 129 109
f 109 130 131
f 109 131 132
f 109 132 111
f 109 111 110
f 109 129 130
f 111 132 133
f 111 133 112
f 114 115 134
f 114 134 122
f 116 135 136
f 116 136 117
f 116 120 135
f 120 121 137
f 120 137 138
f 120 138 135
f 121 124 137
f 122 134 139
f 122 139 140
f 122 140 123
f 123 140 141
f 123 141 124
f 124 142 137
f 124 141 143
f 124 143 144
f 124 144 142
f 127 145 146
f 127 146 128
f 128 146 129
f 129 146 147
f 129 147 148
f 129 148 130
f 130 148 131
f 131 149 150
f 131 150 151
f 131 151 132
f 131 148 149
f 132 151 152
f 132 152 133
f 135 138 153
f 137 142 154
f 137 154 155
f 137 155 138
f 138 156 153
f 138 155 157
f 138 157 156
f 142 144 158
f 142 158 154
f 143 159 144
f 144 159 158
f 145 160 146
f 146 160 161
f 146 161 162
f 146 162 147
f 147 162 163
f 147 163 148
f 148 164 165
f 148 165 149
f 148 163 164
f 149 165 166
f 149 166 150
f 153 156 167
f 154 158 168
f 154 168 169
f 154 169 157
f 154 157 155
f 156 170 167
f 156 157 170
f 157 171 170
f 157 169 172
f 157 172 171
f 158 159 173
f 158 173 174
f 158 174 168
f 161 175 162
f 162 175 176
f 162 176 163
f 163 176 177
f 163 177 164
f 164 178 179
f 164 179 165
f 164 177 178
f 165 179 180
f 165 180 181
f 165 181 166
f 167 170 182
f 168 174 183
f 168 183 172
f 168 172 169
f 170 184 182
f 170 171 184
f 171 185 184
f 171 172 186
f 171 186 185
f 172 183 187
f 172 187 186
f 174 188 183
f 176 189 177
f 177 189 190
f 177 190 191
f 177 191 192
f 177 192 178
f 178 192 179
f 179 192 193
f 179 193 194
f 179 194 180
f 182 184 195
f 183 188 196
f 183 196 187
f 184 197 198
f 184 198 195
f 184 185 199
f 184 199 197
f 185 186 199
f 186 187 200
f 186 200 199
f 187 201 200
f 187 196 202
f 187 202 201
f 190 203 191
f 191 203 204
f 191 204 205
f 191 205 192
f 192 206 193
f 192 205 206
f 193 206 207
f 193 207 208
f 193 208 194
f 194 208 209
f 197 210 211
f 197 211 198
f 197 199 210
f 199 212 210
f 199 200 213
f 199 213 212
f 200 201 214
f 200 214 213
f 201 202 215
f 201 215 216
f 201 216 214
f 204 217 205
f 205 217 218
f 205 218 219
f 205 219 206
f 206 220 221
f 206 221 207
f 206 219 220
f 207 221 208
f 208 222 223
f 208 223 209
f 208 221 222
f 210 212 224
f 212 225 224
f 212 213 226
f 212 226 225
f 213 214 226
f 214 227 226
f 214 216 228
f 214 228 227
f 218 229 219
f 219 229 230
f 219 230 231
f 219 231 220
f 220 231 221
f 221 231 232
f 221 232 233
f 221 233 222
f 222 233 234
f 222 234 235
f 222 235 223
f 224 225 236
f 225 237 238
f 225 238 236
f 225 226 237
f 226 227 239
f 226 239 240
f 226 240 237
f 227 228 241
f 227 241 239
f 229 242 243
f 229 243 230
f 230 243 244
f 230 244 231
f 231 244 232
f 232 245 246
f 232 246 233
f 232 244 245
f 233 246 247
f 233 247 248
f 233 248 234
f 237 249 250
f 237 250 251
f 237 251 238
f 237 240 252
f 237 252 249
f 239 253 252
f 239 252 240
f 239 241 254
f 239 254 255
f 239 255 253
f 242 256 243
f 243 256 257
f 243 257 258
f 243 258 244
f 244 259 260
f 244 260 245
f 244 258 259
f 245 260 261
f 245 261 246
f 246 261 262
f 246 262 247
f 249 263 264
f 249 264 265
f 249 265 266
f 249 266 250
f 249 252 267
f 249 267 263
f 252 253 267
f 253 268 267
f 253 255 269
f 253 269 268
f 255 270 269
f 257 271 272
f 257 272 258
f 258 272 259
f 259 273 260
f 259 272 273
f 260 274 275
f 260 275 261
f 260 273 274
f 261 275 276
f 261 276 277
f 261 277 262
f 263 278 279
f 263 279 264
f 263 267 278
f 267 268 280
f 267 280 281
f 267 281 278
f 268 269 282
f 268 282 280
f 269 270 283
f 269 283 284
f 269 284 282
f 271 285 272
f 272 285 286
f 272 286 287
f 272 287 288
f 272 288 273
f 273 288 289
f 273 289 290
f 273 290 274
f 274 290 275
f 275 291 292
f 275 292 293
f 275 293 294
f 275 294 276
f 275 290 291
f 278 295 296
f 278 296 279
f 278 281 295
f 280 282 297
f 280 297 298
f 280 298 299
f 280 299 281
f 281 299 300
f 281 300 295
f 282 284 301
f 282 301 297
f 287 302 303
f 287 303 288
f 288 303 304
f 288 304 289
f 289 304 305
f 289 305 290
f 290 305 291
f 291 306 307
f 291 307 308
f 291 308 292
f 291 305 306
f 295 309 310
f 295 310 311
f 295 311 296
f 295 300 312
f 295 312 309
f 297 301 298
f 298 301 313
f 298 313 314
f 298 314 315
f 298 315 316
f 298 316 299
f 299 316 312
f 299 312 300
f 302 317 303
f 303 318 319
f 303 319 304
f 303 317 320
f 303 320 321
f 303 321 318
f 304 319 305
f 305 322 306
f 305 319 322
f 306 323 324
f 306 324 307
f 306 322 323
f 309 325 310
f 309 312 325
f 310 325 326
f 312 316 327
f 312 327 325
f 314 328 315
f 315 328 329
f 315 329 330
f 315 330 316
f 316 330 331
f 316 331 327
f 318 321 332
f 318 332 333
f 318 333 334
f 318 334 319
f 319 334 335
f 319 335 322
f 322 335 336
f 322 336 323
f 323 336 337
f 323 337 338
f 323 338 324
f 325 339 326
f 325 327 340
f 325 340 341
f 325 341 339
f 327 331 342
f 327 342 340
f 329 343 330
f 330 343 344
f 330 344 345
f 330 345 342
f 330 342 331
f 332 346 333
f 333 346 359
f 333 359 347
f 333 347 348
f 333 348 334
f 334 348 349
f 334 349 335
f 335 349 350
f 335 350 336
f 336 350 351
f 336 351 337
f 339 341 352
f 340 353 354
f 340 354 341
f 340 342 353
f 341 354 355
f 341 355 352
f 342 345 356
f 342 356 357
f 342 357 353
f 344 358 345
f 345 358 356
f 347 359 360
f 347 360 361
f 347 361 348
f 348 361 362
f 348 362 349
f 349 363 350
f 349 362 363
f 350 364 351
f 350 363 364
f 351 364 365
f 353 362 354
f 353 357 362
f 354 362 361
f 354 361 366
f 354 366 355
f 356 358 364
f 356 364 357
f 357 364 363
f 357 363 362
f 358 365 364
f 360 366 361

