# https://github.com/mikedh/trimesh
v 14.35703591 -26.34121068 20.00000006
v 0.29889226 -29.99348938 20.00000006
v 14.35703591 -26.90133490 20.00000006
v 14.35703591 -26.34121068 -0.00000006
v 0.29889226 -30.49465343 20.00000006
v 0.29889226 -29.99348938 -0.00000006
v 13.37038010 -27.41342001 20.00000006
v 14.35703591 -27.15027928 19.99412686
v 14.35703591 -26.90133490 -0.00000006
v 0.29889226 -30.83422333 19.99021204
v 1.64333276 -30.45643754 20.00000006
v 0.29889226 -30.49465343 -0.00000006
v 11.98328018 -28.04779075 20.00000006
v 13.51899572 -27.71804929 19.99021204
v 14.35703591 -27.28348859 19.99021204
v 13.37038010 -27.41342001 -0.00000006
v 14.35703591 -27.08695382 0.00391541
v 0.29889226 -31.17160797 19.96671924
v 1.67911306 -31.13229945 19.96671924
v 1.66122161 -30.79491481 19.99021204
v 3.16253632 -30.33633456 20.00000006
v 1.64333276 -30.45643754 -0.00000006
v 0.29889226 -30.76871000 0.00587314
v 10.56728169 -28.61119285 20.00000006
v 12.11676069 -28.35897058 19.99021204
v 12.24886432 -28.67015302 19.96671924
v 13.66623968 -28.02158594 19.96671924
v 14.35703591 -27.44835801 19.98042338
v 11.98328018 -28.04779075 -0.00000006
v 13.47771317 -27.63397433 0.00587314
v 12.07960613 -28.27380560 0.00587314
v 14.35703591 -27.17866935 0.00587314
v 0.29889226 -31.50789998 19.92560750
v 1.69700190 -31.46750145 19.92560750
v 3.26849774 -31.34412058 19.92560750
v 3.23271744 -31.00892119 19.96671924
v 3.19831662 -30.67262657 19.99021204
v 4.72715303 -30.47499917 19.99021204
v 4.67486076 -30.13979718 20.00000006
v 3.16253632 -30.33633456 -0.00000006
v 3.18868376 -30.58091104 0.00587314
v 1.65571675 -30.70101403 0.00587314
v 1.66948020 -30.94668314 0.01761889
v 0.29889226 -30.98599166 0.01761889
v 9.12376150 -29.10362110 20.00000006
v 9.22559232 -29.42681201 19.99021204
v 10.68425022 -28.92892323 19.99021204
v 10.80121614 -29.24556360 19.96671924
v 10.91818467 -29.56111133 19.92560750
v 12.38097057 -28.97915021 19.92560750
v 13.81348103 -28.32403257 19.92560750
v 14.35703591 -28.04233283 19.92560750
v 14.35703591 -27.66345441 19.96671924
v 10.56728169 -28.61119285 -0.00000006
v 14.35703591 -27.45491117 0.01761889
v 13.58504884 -27.85453126 0.01761889
v 12.17593208 -28.49873044 0.01761889
v 10.73653989 -29.07195836 0.01761889
v 10.65260053 -28.84157561 0.00587314
v 0.29889226 -31.54502325 19.91973430
v 1.71626762 -31.80161081 19.86883324
v 3.30289856 -31.67604730 19.86883324
v 4.83036071 -31.14103526 19.92560750
v 4.77806844 -30.80910854 19.96671924
v 6.24360546 -30.20094261 19.99021204
v 6.17480122 -29.86901589 20.00000006
v 4.67486076 -30.13979718 -0.00000006
v 4.71201532 -30.38328364 0.00587314
v 4.75054674 -30.62567748 0.01761889
v 3.21345173 -30.82439490 0.01761889
v 3.24923202 -31.15959689 0.05090035
v 1.68736905 -31.28297776 0.05090035
v 0.29889226 -31.32337630 0.05090035
v 7.65822709 -29.52289544 20.00000006
v 7.74354331 -29.85154688 19.99021204
v 7.82886215 -30.17801307 19.96671924
v 9.32604887 -29.74891290 19.96671924
v 9.42650281 -30.06991856 19.92560750
v 9.52695675 -30.38874157 19.86883324
v 11.03377633 -29.87447642 19.86883324
v 12.51307420 -29.28596213 19.86883324
v 13.96072239 -28.62429395 19.86883324
v 14.35703591 -28.41902338 19.86883324
v 9.12376150 -29.10362110 -0.00000006
v 9.19807062 -29.33837175 0.00587314
v 14.35703591 -27.64161751 0.03328076
v 13.73229019 -28.15806791 0.05090035
v 12.30941258 -28.80881764 0.05090035
v 9.27100286 -29.57202978 0.01761889
v 10.85350841 -29.38859612 0.05090035
v 0.29889226 -31.84201196 19.86883324
v 0.29889226 -32.17175342 19.79444068
v 1.73277959 -32.13026226 19.79444068
v 3.33730198 -32.00360611 19.79444068
v 4.93218891 -31.79833554 19.79444068
v 4.88127351 -31.47077672 19.86883324
v 6.37983710 -30.86151816 19.92560750
v 6.31240971 -30.53177670 19.96671924
v 6.17480122 -29.86901589 -0.00000006
v 6.22433975 -30.10922708 0.00587314
v 6.27387829 -30.34943566 0.01761889
v 6.34268254 -30.68026975 0.05090035
v 4.80146214 -30.95869422 0.05090035
v 3.28363284 -31.49370626 0.09788530
v 1.70525789 -31.61817975 0.09788530
v 0.29889226 -31.62145503 0.09201210
v 7.91280150 -30.50338924 19.92560750
v 7.99674347 -30.82658015 19.86883324
v 8.07930857 -31.14758581 19.79444068
v 9.62603644 -30.70429191 19.79444068
v 11.14799112 -30.18565625 19.79444068
v 12.64242671 -29.59059142 19.79444068
v 14.10521001 -28.92128006 19.79444068
v 14.35703591 -28.71710211 19.81010189
v 7.65822709 -29.52289544 -0.00000006
v 7.78207473 -29.99785729 0.01761889
v 7.72014961 -29.76092137 0.00587314
v 14.35703591 -27.83487700 0.05090035
v 14.35703591 -28.21266279 0.09788530
v 13.87953155 -28.45942192 0.09788530
v 12.44014196 -29.11781482 0.09788530
v 9.37145941 -29.89412807 0.05090035
v 10.97047694 -29.70305383 0.09788530
v 0.29889226 -32.46327899 19.71613200
v 1.75066844 -32.45672844 19.70634334
v 3.37032855 -32.32898228 19.70634334
v 4.98173006 -32.12043643 19.70634334
v 6.58074759 -31.83218352 19.70634334
v 6.51469447 -31.51226789 19.79444068
v 6.44726709 -31.18798435 19.86883324
v 7.86601670 -30.32432348 0.05090035
v 7.94995606 -30.64969704 0.09788530
v 6.41011253 -31.00892119 0.09788530
v 4.85375181 -31.28952831 0.09788530
v 4.90466721 -31.61926977 0.16248984
v 3.31803627 -31.82454035 0.16248984
v 0.29889226 -31.65857829 0.09788530
v 1.72314674 -31.94901384 0.16248984
v 0.29889226 -31.99050501 0.16248984
v 8.16187628 -31.46313354 19.70634334
v 9.72373925 -31.01656437 19.70634334
v 11.26083165 -30.49137816 19.70634334
v 12.77040236 -29.89085279 19.70634334
v 14.24832597 -29.21499088 19.70634334
v 14.35703591 -29.12873328 19.71417427
v 14.35703591 -28.79134864 19.79444068
v 14.35703591 -28.32621522 0.11746263
v 14.02539864 -28.75859328 0.16248984
v 12.57086873 -29.42353673 0.16248984
v 9.47191335 -30.21404371 0.09788530
v 11.08469173 -30.01532629 0.16248984
v 9.57099304 -30.53177670 0.16248984
v 0.29889226 -32.49931224 19.70634334
v 0.29889226 -32.78756253 19.61237280
v 1.76855728 -32.77882934 19.60062705
v 3.40472937 -32.64889792 19.60062705
v 5.03126860 -32.43816681 19.60062705
v 6.64542384 -32.14664124 19.60062705
v 8.24306451 -31.77540600 19.60062705
v 8.03389803 -30.97179793 0.16248984
v 6.47753991 -31.33429475 0.16248984
v 6.54496729 -31.65639304 0.24275625
v 4.95420836 -31.94246329 0.24275625
v 3.35243709 -32.15100653 0.24275625
v 1.74103558 -32.27766268 0.24275625
v 0.29889226 -32.31915385 0.24275625
v 9.82006520 -31.32337630 19.60062705
v 11.37367219 -30.79382218 19.60062705
v 12.89700374 -30.18674888 19.60062705
v 14.35703591 -29.52835597 19.59866932
v 14.35703591 -29.43664044 19.62607693
v 14.35703591 -29.15930599 19.70634334
v 14.35703591 -28.58717069 0.16248984
v 14.35703591 -28.90381105 0.23100985
v 14.16988626 -29.05448675 0.24275625
v 12.70022124 -29.72598337 0.24275625
v 11.19890653 -30.32323085 0.24275625
v 9.67007011 -30.84514178 0.24275625
v 0.29889226 -32.82141052 19.60062705
v 0.29889226 -32.85416588 19.58888065
v 1.78506926 -33.09437707 19.48120598
v 3.43637906 -32.96444565 19.48120598
v 5.07943287 -32.75153190 19.48120598
v 6.71010010 -32.45672844 19.48120598
v 8.32287848 -32.08112791 19.48120598
v 9.91501428 -31.62582293 19.48120598
v 8.11646312 -31.28952831 0.24275625
v 8.19765396 -31.60398602 0.33868387
v 6.60964355 -31.97412603 0.33868387
v 5.00374690 -32.26346895 0.33868387
v 3.38546365 -32.47420006 0.33868387
v 1.75892442 -32.60194622 0.33868387
v 0.29889226 -32.64453001 0.33868387
v 11.48238212 -31.09081089 19.48120598
v 13.02222826 -30.47827445 19.48120598
v 14.35703591 -29.86792326 19.48120598
v 14.35703591 -28.95731069 0.24275625
v 14.31300223 -29.34601493 0.33868387
v 12.82819949 -30.02515212 0.33868387
v 11.31174706 -30.62786013 0.33868387
v 9.76777293 -31.15522899 0.33868387
v 0.29889226 -33.13805088 19.48120598
v 0.29889226 -33.16971362 19.46750250
v 1.80158384 -33.40446427 19.34612369
v 3.46940562 -33.27344283 19.34612369
v 5.12759455 -33.05834383 19.34612369
v 6.77339949 -32.76135772 19.34612369
v 8.39993872 -32.38138929 19.34612369
v 10.00721224 -31.92171641 19.34612369
v 11.59109205 -31.38233647 19.34612369
v 8.27884220 -31.91407323 0.45027401
v 6.67431980 -32.28639849 0.45027401
v 5.05328543 -32.58010931 0.45027401
v 3.41849022 -32.79193044 0.45027401
v 1.77543640 -32.92186186 0.45027401
v 0.29889226 -32.96444565 0.45027401
v 13.14469904 -30.76434210 19.34612369
v 14.35703591 -30.20967841 19.34612369
v 14.35703591 -29.32308540 0.33868387
v 14.35703591 -29.43664044 0.37392307
v 14.35703591 -29.67794165 0.45027401
v 12.95342401 -30.31886294 0.45027401
v 11.42321073 -30.92812151 0.45027401
v 9.86272201 -31.46095090 0.45027401
v 0.29889226 -33.44814070 19.34612369
v 1.81809582 -33.70800354 19.19538019
v 3.50105532 -33.57479423 19.19538019
v 5.17438196 -33.35860781 19.19538019
v 6.83394775 -33.05834383 19.19538019
v 8.47699896 -32.67510012 19.19538019
v 10.09803593 -32.21105933 19.19538019
v 11.69567659 -31.66731410 19.19538019
v 9.95629683 -31.76012225 0.57752537
v 8.35727930 -32.21651986 0.57752537
v 6.73899606 -32.59430304 0.57752537
v 5.10144971 -32.89019912 0.57752537
v 3.45151678 -33.10420290 0.57752537
v 1.79332785 -33.23522694 0.57752537
v 0.29889226 -33.27780813 0.57752537
v 13.26304443 -31.04276918 19.19538019
v 14.35703591 -30.54378778 19.19538019
v 14.35703591 -30.02296947 0.57752537
v 13.07727166 -30.60711585 0.57752537
v 11.53192066 -31.22292496 0.57752537
v 0.29889226 -33.75167735 19.19538019
v 0.29889226 -34.01918337 19.04659377
v 1.83461040 -34.00389701 19.02897418
v 3.53133075 -33.86959769 19.02897418
v 5.21979250 -33.65122601 19.02897418
v 6.89449601 -33.34768936 19.02897418
v 8.55130807 -32.96226040 19.02897418
v 10.18748015 -32.49385171 19.02897418
v 11.79750741 -31.94355331 19.02897418
v 13.38001035 -31.31573312 19.02897418
v 11.63787946 -31.51117787 0.72043793
v 10.04849479 -32.05274045 0.72043793
v 8.43434215 -32.51459859 0.72043793
v 6.80092119 -32.89565705 0.72043793
v 5.14823712 -33.19373578 0.72043793
v 3.48316647 -33.40992481 0.72043793
v 1.80983983 -33.54203887 0.72043793
v 0.29889226 -33.58571529 0.72043793
v 14.35703591 -30.86916134 19.02897418
v 14.35703591 -30.36035411 0.72043793
v 13.19836818 -30.88990822 0.72043793
v 0.29889226 -34.07596089 19.01331296
v 1.84974551 -34.29105729 18.85082241
v 3.56160358 -34.15566534 18.85082241
v 5.26382878 -33.93511102 18.85082241
v 6.95229053 -33.62938911 18.85082241
v 8.62286605 -33.24068487 18.85082241
v 10.27279899 -32.76791088 18.85082241
v 11.89796135 -32.21324459 18.85082241
v 13.49285088 -31.57996386 18.85082241
v 14.35703591 -30.99472485 18.95849643
v 13.31671096 -31.16614744 0.87705528
v 11.74246401 -31.79287761 0.87705528
v 10.13931848 -32.33880810 0.87705528
v 8.51002552 -32.80503415 0.87705528
v 6.86146945 -33.18936788 0.87705528
v 5.19502454 -33.49072188 0.87705528
v 3.51481616 -33.70909356 0.87705528
v 1.82635441 -33.84230286 0.87705528
v 0.29889226 -33.85649659 0.86139342
v 14.35703591 -30.44770434 0.76155033
v 0.29889226 -34.33582373 18.85082241
v 0.29889226 -34.36202854 18.83320281
v 1.86488323 -34.56948176 18.65896652
v 3.59050214 -34.43299979 18.65896652
v 5.30648559 -34.21026021 18.65896652
v 7.00871080 -33.90235305 18.65896652
v 8.69304717 -33.51037614 18.65896652
v 10.35674095 -33.03432427 18.65896652
v 11.99428730 -32.47529007 18.65896652
v 13.60156082 -31.83655143 18.65896652
v 14.35703591 -31.49152361 18.65896652
v 14.35703591 -31.33211210 18.75881026
v 14.35703591 -31.18470907 18.85082241
v 14.35703591 -30.69118820 0.87705528
v 13.43092576 -31.43583871 1.04933385
v 11.84291795 -32.06584156 1.04933385
v 10.22601157 -32.61832520 1.04933385
v 8.58295776 -33.08782391 1.04933385
v 6.92064084 -33.47543553 1.04933385
v 5.23905821 -33.78006481 1.04933385
v 3.54509160 -33.99952911 1.04933385
v 0.29889226 -33.88597667 0.87705528
v 1.84148952 -34.13382843 1.04933385
v 0.29889226 -34.15020742 1.03171490
v 0.29889226 -34.61424820 18.65896652
v 0.29889226 -34.88393687 18.45144875
v 1.88002095 -34.83808041 18.45144875
v 3.61802384 -34.70050581 18.45144875
v 5.34777075 -34.47667360 18.45144875
v 7.06375420 -34.16658379 18.45144875
v 8.76047455 -33.77023898 18.45144875
v 10.43655232 -33.29091184 18.45144875
v 12.08786212 -32.72750974 18.45144875
v 13.70751962 -32.08222054 18.45144875
v 14.35703591 -31.78741708 18.45144875
v 14.35703591 -31.65639304 18.54346156
v 14.35703591 -31.01219647 1.04933385
v 14.35703591 -31.14867844 1.12960026
v 14.35703591 -31.32446893 1.23335946
v 13.54238942 -31.69570155 1.23335946
v 11.94199502 -32.33225755 1.23335946
v 10.31132780 -32.88910650 1.23335946
v 8.65451574 -33.36297572 1.23335946
v 6.97843798 -33.75386000 1.23335946
v 5.28309450 -34.06067453 1.23335946
v 3.57398756 -34.28123146 1.23335946
v 1.85662724 -34.41771343 1.23335946
v 0.29889226 -34.17859487 1.04933385
v 0.29889226 -35.14270969 18.23414298
v 1.89378180 -35.09575799 18.23414298
v 3.64416867 -34.95818339 18.23414298
v 5.38767643 -34.73216854 18.23414298
v 7.11604647 -34.41989608 18.23414298
v 8.82515080 -34.02136602 18.23414298
v 10.51498942 -33.53767097 18.23414298
v 12.17730895 -32.96990357 18.23414298
v 13.80935043 -32.32024647 18.23414298
v 14.35703591 -32.07020946 18.23414298
v 14.35703591 -31.46968670 1.32928709
v 13.64972509 -31.94792122 1.43304564
v 12.03694671 -32.58993514 1.43304564
v 10.39251864 -33.15006196 1.43304564
v 8.72331999 -33.62829648 1.43304564
v 7.03348137 -34.02245864 1.43304564
v 5.32437705 -34.33145583 1.43304564
v 3.60288613 -34.55419540 1.43304564
v 1.87176496 -34.69177000 1.43304564
v 0.29889226 -34.46247987 1.23335946
v 0.29889226 -35.39056145 18.00313242
v 1.90616578 -35.34361236 18.00313242
v 5.42483099 -34.97674502 18.00313242
v 3.67031351 -35.20385250 18.00313242
v 7.16558501 -34.66228992 18.00313242
v 8.88707593 -34.26048458 18.00313242
v 10.58929853 -33.77351426 18.00313242
v 12.26262517 -33.20247158 18.00313242
v 13.90705325 -32.54844658 18.00313242
v 14.35703591 -32.34317601 18.00313242
v 14.35703591 -31.62582293 1.43304564
v 14.35703591 -31.91625848 1.64447887
v 13.75430703 -32.19031505 1.64447887
v 12.12776780 -32.83778951 1.64447887
v 10.47233000 -33.40228163 1.64447887
v 8.79074737 -33.88488404 1.64447887
v 7.08714791 -34.28123146 1.64447887
v 5.36565959 -34.59241129 1.64447887
v 3.63040783 -34.81733352 1.64447887
v 1.88552581 -34.95490812 1.64447887
v 0.29889226 -34.97674502 1.62490219
v 0.29889226 -34.73653644 1.43304564
v 0.29889226 -35.62640473 17.76037611
v 1.91992663 -35.57945304 17.76037611
v 3.69508408 -35.43969579 17.76037611
v 5.46060868 -35.21040566 17.76037611
v 7.21374929 -34.89376530 17.76037611
v 8.94762158 -34.48977470 17.76037611
v 10.65947965 -33.99952911 17.76037611
v 12.34519027 -33.42411853 17.76037611
v 13.99925120 -32.76572563 17.76037611
v 14.35703591 -32.60303885 17.76037611
v 14.35703591 -32.10078217 1.79326529
v 13.85338672 -32.42397308 1.86961623
v 10.54801598 -33.64467546 1.86961623
v 12.21583776 -33.07581544 1.86961623
v 8.85404937 -34.13055316 1.86961623
v 7.13806331 -34.53017585 1.86961623
v 5.40418841 -34.84353833 1.86961623
v 3.65655527 -35.06955579 1.86961623
v 1.89928666 -35.20931304 1.86961623
v 0.29889226 -35.00076719 1.64447887
v 0.29889226 -35.85132696 17.50587340
v 1.93093635 -35.80328524 17.50587340
v 3.71847779 -35.66243537 17.50587340
v 5.49501210 -35.43205261 17.50587340
v 7.25915983 -35.11322960 17.50587340
v 9.00404185 -34.70705636 17.50587340
v 10.72690964 -34.21353549 17.50587340
v 12.42225312 -33.63484703 17.50587340
v 14.08732116 -32.97208883 17.50587340
v 14.35703591 -32.80612417 17.55090062
v 14.35703591 -32.19468296 1.86961623
v 13.94971266 -32.64780529 2.10454160
v 10.62094823 -33.87724087 2.10454160
v 12.29977973 -33.30401294 2.10454160
v 8.91459763 -34.36530381 2.10454160
v 7.18760185 -34.76819918 2.10454160
v 5.44134296 -35.08374952 2.10454160
v 3.68132323 -35.31194702 2.10454160
v 1.91304751 -35.45170687 2.10454160
v 0.29889226 -35.47572643 2.08300654
v 0.29889226 -35.25517210 1.86961623
v 0.29889226 -35.23114994 1.84808116
v 0.29889226 -36.06314808 17.24158203
v 1.94332033 -36.01510637 17.24158203
v 3.74049462 -35.87316386 17.24158203
v 5.52803606 -35.64169109 17.24158203
v 7.30181925 -35.32068282 17.24158203
v 9.05633412 -34.91123430 17.24158203
v 10.79020903 -34.41552818 17.24158203
v 12.49655962 -33.83356705 17.24158203
v 14.35703591 -32.84870796 17.50587340
v 14.17126313 -33.16643834 17.24158203
v 14.35703591 -33.08236599 17.24158203
v 14.35703591 -32.46109635 2.10454160
v 14.35703591 -32.71550126 2.35317111
v 14.04053375 -32.85962641 2.35317111
v 12.38097057 -33.52020197 2.35317111
v 10.68975508 -34.09670517 2.35317111
v 8.97239216 -34.58913602 2.35317111
v 7.23438926 -34.99421664 2.35317111
v 5.47712326 -35.31194702 2.35317111
v 3.70609380 -35.54123975 2.35317111
v 1.92543149 -35.68208963 2.35317111
v 0.29889226 -35.49756333 2.10454160
v 0.29889226 -35.72903872 2.35317111
v 0.29889226 -36.26186810 16.96750199
v 1.95295319 -36.21382639 16.96750199
v 3.76113720 -36.07079126 16.96750199
v 5.55831149 -35.83822586 16.96750199
v 7.34034806 -35.51503494 16.96750199
v 9.10587266 -35.10449380 16.96750199
v 10.84938042 -34.60551240 16.96750199
v 12.56536648 -34.02027600 16.96750199
v 14.24970023 -33.34987201 16.96750199
v 14.35703591 -33.30073766 16.96750199
v 14.35703591 -32.91967921 2.57243527
v 14.12585258 -33.06052908 2.61158928
v 12.45665394 -33.72547254 2.61158928
v 10.75580560 -34.30634364 2.61158928
v 9.02743556 -34.80095714 2.61158928
v 7.27842554 -35.20822041 2.61158928
v 5.51014721 -35.52813604 2.61158928
v 3.72811064 -35.75851880 2.61158928
v 1.93644121 -35.90046130 2.61158928
v 0.29889226 -35.92775874 2.58809714
v 0.29889226 -36.44639179 16.68363394
v 1.96396291 -36.39835007 16.68363394
v 3.78040291 -36.25531495 16.68363394
v 5.58721006 -36.02056690 16.68363394
v 7.37887949 -35.69628336 16.68363394
v 9.15266007 -35.28355956 16.68363394
v 10.90442382 -34.78239551 16.68363394
v 12.62866586 -34.19388123 16.68363394
v 14.32263248 -33.52020197 16.68363394
v 14.35703591 -33.50382559 16.68363394
v 14.35703591 -32.95570984 2.61158928
v 14.35703591 -33.15988779 2.85434559
v 14.20704082 -33.25051330 2.88175385
v 12.52821192 -33.91873203 2.88175385
v 10.81773072 -34.50287841 2.88175385
v 9.07972783 -34.99967456 2.88175385
v 7.32108235 -35.41021571 2.88175385
v 5.54179952 -35.73122397 2.88175385
v 3.75012748 -35.96378937 2.88175385
v 1.94744833 -36.10573187 2.88175385
v 0.29889226 -36.13521196 2.85630332
v 0.29889226 -35.94741039 2.61158928
v 0.29889226 -36.60362065 16.41542710
v 1.97221890 -36.56977266 16.38997657
v 3.79829176 -36.42564751 16.38997657
v 5.61335489 -36.18980423 16.38997657
v 7.41328292 -35.86443067 16.38997657
v 9.19669636 -35.44952162 16.38997657
v 10.95533922 -34.94508229 16.38997657
v 12.68783726 -34.35438536 16.38997657
v 14.35703591 -33.59990902 16.53484752
v 14.35703591 -33.18172470 2.88175385
v 14.35703591 -33.20028633 2.90524665
v 14.28272679 -33.42739381 3.15974936
v 12.59426244 -34.09998044 3.15974936
v 10.87415099 -34.68631208 3.15974936
v 9.12789211 -35.18638350 3.15974936
v 7.35823691 -35.59910730 3.15974936
v 5.57207234 -35.92229821 3.15974936
v 3.76939319 -36.15486622 3.15974936
v 1.95845805 -36.29899137 3.15974936
v 0.29889226 -36.15377359 2.88175385
v 0.29889226 -36.61781438 16.38997657
v 0.29889226 -36.76193953 16.11589653
v 1.98185176 -36.72590889 16.09044665
v 3.81342947 -36.58178374 16.09044665
v 5.63674860 -36.34484783 16.09044665
v 7.44493261 -36.01838164 16.09044665
v 9.23522517 -35.60129255 16.09044665
v 11.00350350 -35.09466797 16.09044665
v 12.74288066 -34.50178578 16.09044665
v 14.35703591 -33.69053192 16.38997657
v 14.35703591 -33.39354582 3.15974936
v 14.35703591 -33.59117322 3.44753288
v 12.65618756 -34.26703513 3.44753288
v 10.92781752 -34.85664204 3.44753288
v 9.17330265 -35.35998873 3.44753288
v 7.39401720 -35.77380516 3.44753288
v 5.59959404 -36.09918132 3.44753288
v 3.78865890 -36.33392937 3.44753288
v 0.29889226 -36.50971986 3.42208300
v 0.29889226 -36.34594046 3.15974936
v 1.96809091 -36.47696450 3.44753288
v 0.29889226 -36.77504323 16.09044665
v 1.98873088 -36.86894402 15.78308580
v 3.82856458 -36.72263362 15.78308580
v 5.65876544 -36.48570031 15.78308580
v 7.47382857 -36.15704887 15.78308580
v 9.27100286 -35.73886454 15.78308580
v 11.04616031 -35.23114994 15.78308580
v 12.79241920 -34.63499248 15.78308580
v 14.35703591 -33.85977186 16.09044665
v 14.35703591 -33.76259580 3.73335931
v 12.71398470 -34.42208134 3.74314798
v 10.97735606 -35.01496091 3.74314798
v 9.21458520 -35.51940024 3.74314798
v 7.42841803 -35.93540192 3.74314798
v 5.62436461 -36.26186810 3.74314798
v 3.80517088 -36.49770878 3.74314798
v 1.97634690 -36.64183654 3.74314798
v 0.29889226 -36.52500622 3.44753288
v 0.29889226 -36.67677455 3.71769745
v 0.29889226 -36.91698574 15.78308580
v 0.29889226 -37.04473190 15.46985110
v 1.99561261 -36.99559756 15.46985110
v 3.84232543 -36.84928976 15.46985110
v 5.67803115 -36.61126383 15.46985110
v 7.49997601 -36.28261238 15.46985110
v 9.30265516 -35.86224541 15.46985110
v 11.08331487 -35.35234556 15.46985110
v 12.83645548 -34.75400545 15.46985110
v 14.35703591 -34.02464390 15.75567754
v 14.35703591 -34.01263282 15.78308580
v 14.35703591 -33.77460688 3.75489438
v 12.76627436 -34.56293121 4.04659336
v 11.02276661 -35.15799604 4.04659336
v 9.25173976 -35.66461802 4.04659336
v 7.45869346 -36.08280234 4.04659336
v 5.64775832 -36.41036116 4.04659336
v 3.82030860 -36.64729446 4.04659336
v 1.98460288 -36.79251224 4.04659336
v 0.29889226 -36.70297936 3.76859786
v 0.29889226 -37.14736849 15.17619438
v 2.00111747 -37.10696995 15.14878645
v 3.85333516 -36.96065955 15.14878645
v 5.69591999 -36.72154099 15.14878645
v 7.52199285 -36.39179952 15.14878645
v 9.33155112 -35.97033992 15.14878645
v 11.11634143 -35.45935005 15.14878645
v 12.87498429 -34.85882469 15.14878645
v 14.35703591 -34.25284140 15.19381366
v 14.35703591 -34.14911479 15.46985110
v 14.35703591 -33.92965049 4.04659336
v 12.81306177 -34.69067737 4.35786968
v 11.06267489 -35.28683484 4.35786968
v 9.28614058 -35.79564206 4.35786968
v 7.48621516 -36.21491641 4.35786968
v 5.66839829 -36.54466048 4.35786968
v 3.83544631 -36.78159378 4.35786968
v 1.99148461 -36.92790419 4.35786968
v 0.29889226 -36.84055395 4.04659336
v 0.29889226 -36.96502745 4.33046207
v 0.29889226 -37.15610169 15.14878645
v 0.29889226 -37.24454194 14.85121394
v 2.00661972 -37.20305339 14.82380600
v 3.86296801 -37.05674298 14.82380600
v 5.71105771 -36.81762442 14.82380600
v 7.54125856 -36.48570031 14.82380600
v 9.35494483 -36.06314808 14.82380600
v 11.14523999 -35.55106558 14.82380600
v 12.90801346 -34.94945019 14.82380600
v 14.35703591 -34.35656801 14.87666414
v 14.35703591 -34.26922038 15.14878645
v 14.35703591 -34.07596089 4.35786968
v 11.09982945 -35.40257253 4.67501952
v 14.35703591 -34.20589231 4.67501952
v 12.85434432 -34.80313979 4.67501952
v 9.31641601 -35.91247238 4.67501952
v 7.50960886 -36.33283935 4.67501952
v 5.68628713 -36.66367345 4.67501952
v 3.84783030 -36.90169938 4.67501952
v 1.99836373 -37.04800718 4.67501952
v 0.29889226 -37.09714152 4.67501952
v 0.29889226 -36.97594590 4.35786968
v 0.29889226 -37.25218512 14.82380600
v 0.29889226 -37.32643425 14.52231802
v 2.01075032 -37.28385046 14.49491008
v 3.87122400 -37.13644743 14.49491008
v 5.72206482 -36.89623885 14.49491008
v 7.55777054 -36.56431213 14.49491008
v 9.37558740 -36.14176251 14.49491008
v 11.17001057 -35.62749475 14.49491008
v 12.93553516 -35.02478674 14.49491008
v 14.35703591 -34.44391824 14.55364143
v 14.35703591 -34.37294699 14.82380600
v 12.89012201 -34.90140848 4.99608451
v 11.13010228 -35.50193124 4.99608451
v 9.34256084 -36.01401374 4.99608451
v 14.35703591 -34.31835473 4.99608451
v 7.53162570 -36.43547334 4.99608451
v 5.70280172 -36.76630743 4.99608451
v 3.85884002 -37.00542599 4.99608451
v 2.00386859 -37.15282641 4.99608451
v 0.29889226 -37.19322495 4.96867657
v 0.29889226 -37.33298481 14.49491008
v 2.01487832 -37.34827116 14.16209870
v 3.87810573 -37.20086813 14.16209870
v 5.73307455 -36.96065955 14.16209870
v 7.57153139 -36.62764020 14.16209870
v 9.39209938 -36.20399795 14.16209870
v 11.18927367 -35.68864018 14.16209870
v 12.95892626 -35.08483954 14.16209870
v 14.35703591 -34.52908322 14.16209870
v 14.35703591 -34.47230570 14.43422101
v 14.35703591 -34.45920460 14.49491008
v 12.92177171 -34.98548083 5.32302269
v 11.15762398 -35.58709621 5.32302269
v 9.36457768 -36.10027134 5.32302269
v 7.54951455 -36.52282357 5.32302269
v 14.35703591 -34.41443816 5.32302269
v 5.71656257 -36.85474768 5.32302269
v 3.86709601 -37.09495887 5.32302269
v 0.29889226 -37.20196076 4.99608451
v 2.00937346 -37.24126667 5.32302269
v 0.29889226 -37.28385046 5.29561442
v 0.29889226 -37.39740290 14.16209870
v 2.01762944 -37.39631288 13.82732991
v 3.88360798 -37.24890985 13.82732991
v 5.73995627 -37.00760864 13.82732991
v 7.58116424 -36.67459190 13.82732991
v 9.40448597 -36.24985702 13.82732991
v 11.20303452 -35.73449925 13.82732991
v 12.97544084 -35.13069861 13.82732991
v 14.35703591 -34.58040021 13.82732991
v 12.94654228 -35.05426943 5.65387601
v 11.17964342 -35.65697744 5.65387601
v 9.38384339 -36.17124259 5.65387601
v 7.56465226 -36.59488484 5.65387601
v 14.35703591 -34.49304998 5.65387601
v 5.72756968 -36.92681156 5.65387601
v 3.87535200 -37.16702014 5.65387601
v 2.01350145 -37.31442317 5.65387601
v 0.29889226 -37.29695156 5.35043063
v 0.29889226 -37.44544461 13.82732991
v 2.01900631 -37.42797561 13.49060306
v 3.88636172 -37.28057519 13.49060306
v 5.74545853 -37.03927398 13.49060306
v 7.58666910 -36.70625463 13.49060306
v 9.41136509 -36.28152236 13.49060306
v 11.21266738 -35.76506935 13.49060306
v 12.98644796 -35.16017869 13.49060306
v 14.35703591 -34.61534083 13.49060306
v 14.35703591 -34.58804339 13.75685217
v 12.96718486 -35.10776907 5.98864513
v 11.19615540 -35.71156971 5.98864513
v 9.39760424 -36.22692749 5.98864513
v 7.57565938 -36.65056974 5.98864513
v 5.73582828 -36.98358908 5.98864513
v 14.35703591 -34.54218432 5.92208285
v 3.88085686 -37.22379766 5.98864513
v 0.29889226 -37.36355752 5.65387601
v 2.01625258 -37.37119809 5.98864513
v 0.29889226 -37.42142506 5.98864513
v 0.29889226 -37.36901544 5.68128427
v 0.29889226 -37.48693578 13.31245130
v 2.02038318 -37.44107932 13.24393129
v 2.42357582 -37.42142506 12.99921692
v 3.88773859 -37.29258627 13.24393129
v 4.27029125 -37.25546300 12.99921692
v 5.74683540 -37.05237508 13.24393129
v 7.58942023 -36.71935834 13.24393129
v 9.41549309 -36.29353084 13.24393129
v 11.21679798 -35.77817306 13.24393129
v 12.99057856 -35.17218977 13.24393129
v 14.35703591 -34.63171721 13.18128448
v 14.35703591 -34.55419540 5.98864513
v 14.35703591 -34.56293121 6.05520740
v 12.98094571 -35.14598496 6.32341424
v 11.20853938 -35.75087562 6.32341424
v 9.40861396 -36.26623601 6.32341424
v 7.58391798 -36.69096828 6.32341424
v 5.74270740 -37.02398762 6.32341424
v 3.88498485 -37.26528883 6.32341424
v 2.01762944 -37.41268925 6.32341424
v 0.29889226 -37.45854832 6.29600630
v 0.29889226 -37.49457896 13.15583395
v 0.56998387 -37.49567159 12.99921692
v 0.56998387 -37.49567159 7.00078308
v 2.42357582 -37.42142506 7.00078308
v 4.27029125 -37.25546300 7.00078308
v 6.10599436 -36.99887544 7.00078308
v 6.10599436 -36.99887544 12.99921692
v 7.92656235 -36.65166236 7.00078308
v 7.92656235 -36.65166236 12.99921692
v 9.72924151 -36.21491641 7.00078308
v 9.72924151 -36.21491641 12.99921692
v 11.50715269 -35.68973280 7.00078308
v 11.50715269 -35.68973280 12.99921692
v 13.25753957 -35.07719636 7.00078308
v 13.25753957 -35.07719636 12.99921692
v 14.35703591 -34.63062719 7.00078308
v 14.35703591 -34.59786922 6.32341424
v 12.98920169 -35.16891450 6.66209850
v 11.21542111 -35.77380516 6.66209850
v 9.41411883 -36.29025556 6.66209850
v 7.58942023 -36.71499044 6.66209850
v 5.74683540 -37.04800718 6.66209850
v 3.88773859 -37.28930838 6.66209850
v 2.01900631 -37.43671142 6.66209850
v 0.29889226 -37.46182360 6.32341424
v 0.29889226 -37.49239631 6.78543438
v 14.35703591 -34.62844193 6.74823810
f 1 2 5
f 1 5 11
f 1 11 21
f 1 21 39
f 1 39 66
f 1 66 74
f 1 74 45
f 1 45 24
f 1 24 13
f 1 13 7
f 1 7 3
f 1 3 8
f 1 8 15
f 1 15 28
f 1 28 53
f 1 53 52
f 1 52 83
f 1 83 114
f 1 114 146
f 1 146 145
f 1 145 172
f 1 172 171
f 1 171 170
f 1 170 196
f 1 196 218
f 1 218 241
f 1 241 263
f 1 263 275
f 1 275 298
f 1 298 297
f 1 297 296
f 1 296 321
f 1 321 320
f 1 320 343
f 1 343 363
f 1 363 385
f 1 385 405
f 1 405 426
f 1 426 428
f 1 428 450
f 1 450 470
f 1 470 491
f 1 491 512
f 1 512 532
f 1 532 553
f 1 553 552
f 1 552 572
f 1 572 571
f 1 571 593
f 1 593 592
f 1 592 615
f 1 615 614
f 1 614 635
f 1 635 634
f 1 634 633
f 1 633 654
f 1 654 673
f 1 673 672
f 1 672 695
f 1 695 721
f 1 721 732
f 1 732 722
f 1 722 697
f 1 697 696
f 1 696 679
f 1 679 659
f 1 659 640
f 1 640 619
f 1 619 596
f 1 596 594
f 1 594 573
f 1 573 554
f 1 554 533
f 1 533 514
f 1 514 513
f 1 513 493
f 1 493 492
f 1 492 472
f 1 472 471
f 1 471 451
f 1 451 430
f 1 430 429
f 1 429 406
f 1 406 386
f 1 386 365
f 1 365 364
f 1 364 344
f 1 344 324
f 1 324 323
f 1 323 322
f 1 322 299
f 1 299 285
f 1 285 264
f 1 264 242
f 1 242 221
f 1 221 220
f 1 220 219
f 1 219 197
f 1 197 174
f 1 174 173
f 1 173 147
f 1 147 119
f 1 119 118
f 1 118 86
f 1 86 55
f 1 55 32
f 1 32 17
f 1 17 9
f 1 9 4
f 1 4 6
f 1 6 2
f 2 6 12
f 2 12 23
f 2 23 44
f 2 44 73
f 2 73 106
f 2 106 137
f 2 137 139
f 2 139 166
f 2 166 193
f 2 193 216
f 2 216 239
f 2 239 262
f 2 262 284
f 2 284 307
f 2 307 309
f 2 309 333
f 2 333 353
f 2 353 375
f 2 375 374
f 2 374 395
f 2 395 417
f 2 417 416
f 2 416 415
f 2 415 439
f 2 439 440
f 2 440 460
f 2 460 482
f 2 482 481
f 2 481 502
f 2 502 522
f 2 522 521
f 2 521 541
f 2 541 542
f 2 542 562
f 2 562 581
f 2 581 582
f 2 582 604
f 2 604 603
f 2 603 624
f 2 624 643
f 2 643 645
f 2 645 663
f 2 663 681
f 2 681 684
f 2 684 683
f 2 683 705
f 2 705 730
f 2 730 731
f 2 731 706
f 2 706 685
f 2 685 664
f 2 664 646
f 2 646 625
f 2 625 606
f 2 606 605
f 2 605 584
f 2 584 583
f 2 583 563
f 2 563 544
f 2 544 543
f 2 543 524
f 2 524 504
f 2 504 503
f 2 503 483
f 2 483 461
f 2 461 441
f 2 441 418
f 2 418 396
f 2 396 376
f 2 376 354
f 2 354 334
f 2 334 311
f 2 311 310
f 2 310 287
f 2 287 286
f 2 286 266
f 2 266 246
f 2 246 245
f 2 245 225
f 2 225 203
f 2 203 202
f 2 202 180
f 2 180 179
f 2 179 154
f 2 154 153
f 2 153 124
f 2 124 92
f 2 92 91
f 2 91 60
f 2 60 33
f 2 33 18
f 2 18 10
f 2 10 5
f 3 7 8
f 4 9 16
f 4 16 29
f 4 29 54
f 4 54 84
f 4 84 115
f 4 115 99
f 4 99 67
f 4 67 40
f 4 40 22
f 4 22 12
f 4 12 6
f 5 10 11
f 7 13 14
f 7 14 8
f 8 14 15
f 9 17 16
f 10 18 19
f 10 19 20
f 10 20 11
f 11 20 21
f 12 22 23
f 13 24 25
f 13 25 14
f 14 25 26
f 14 26 27
f 14 27 28
f 14 28 15
f 16 17 30
f 16 30 31
f 16 31 29
f 17 32 30
f 18 33 19
f 19 33 34
f 19 34 35
f 19 35 36
f 19 36 20
f 20 36 37
f 20 37 21
f 21 37 38
f 21 38 39
f 22 40 41
f 22 41 42
f 22 42 23
f 23 42 43
f 23 43 44
f 24 45 46
f 24 46 47
f 24 47 25
f 25 47 26
f 26 48 49
f 26 49 50
f 26 50 51
f 26 51 27
f 26 47 48
f 27 51 52
f 27 52 53
f 27 53 28
f 29 31 54
f 30 32 55
f 30 55 56
f 30 56 31
f 31 56 57
f 31 57 58
f 31 58 59
f 31 59 54
f 33 60 34
f 34 60 61
f 34 61 35
f 35 61 62
f 35 62 63
f 35 63 64
f 35 64 36
f 36 64 38
f 36 38 37
f 38 64 65
f 38 65 66
f 38 66 39
f 40 67 68
f 40 68 41
f 41 68 69
f 41 69 70
f 41 70 43
f 41 43 42
f 43 70 71
f 43 71 72
f 43 72 73
f 43 73 44
f 45 74 75
f 45 75 46
f 46 75 76
f 46 76 77
f 46 77 48
f 46 48 47
f 48 77 49
f 49 78 79
f 49 79 80
f 49 80 81
f 49 81 50
f 49 77 78
f 50 81 82
f 50 82 51
f 51 82 83
f 51 83 52
f 54 59 85
f 54 85 84
f 55 86 56
f 56 86 87
f 56 87 88
f 56 88 57
f 57 88 58
f 58 89 85
f 58 85 59
f 58 88 90
f 58 90 89
f 60 91 61
f 61 91 92
f 61 92 93
f 61 93 94
f 61 94 62
f 62 94 95
f 62 95 96
f 62 96 63
f 63 96 97
f 63 97 64
f 64 97 98
f 64 98 65
f 65 98 75
f 65 75 66
f 66 75 74
f 67 99 68
f 68 100 69
f 68 99 100
f 69 100 101
f 69 101 102
f 69 102 103
f 69 103 71
f 69 71 70
f 71 103 104
f 71 104 72
f 72 104 105
f 72 105 106
f 72 106 73
f 75 98 76
f 76 98 97
f 76 97 107
f 76 107 78
f 76 78 77
f 78 107 79
f 79 108 109
f 79 109 110
f 79 110 111
f 79 111 80
f 79 107 108
f 80 111 81
f 81 111 112
f 81 112 82
f 82 112 113
f 82 113 114
f 82 114 83
f 84 85 115
f 85 89 116
f 85 116 117
f 85 117 115
f 86 118 87
f 87 118 119
f 87 119 120
f 87 120 121
f 87 121 88
f 88 121 90
f 89 90 122
f 89 122 116
f 90 121 123
f 90 123 122
f 92 124 93
f 93 124 125
f 93 125 126
f 93 126 94
f 94 126 95
f 95 126 127
f 95 127 128
f 95 128 129
f 95 129 130
f 95 130 96
f 96 130 97
f 97 130 108
f 97 108 107
f 99 115 117
f 99 117 100
f 100 117 101
f 101 117 116
f 101 116 102
f 102 131 132
f 102 132 133
f 102 133 103
f 102 116 131
f 103 133 134
f 103 134 104
f 104 134 135
f 104 135 136
f 104 136 105
f 105 137 106
f 105 136 138
f 105 138 139
f 105 139 137
f 108 130 109
f 109 129 128
f 109 128 140
f 109 140 141
f 109 141 110
f 109 130 129
f 110 141 111
f 111 141 142
f 111 142 143
f 111 143 112
f 112 143 144
f 112 144 113
f 113 144 145
f 113 145 146
f 113 146 114
f 116 122 131
f 119 147 120
f 120 147 148
f 120 148 121
f 121 148 149
f 121 149 123
f 122 123 150
f 122 150 132
f 122 132 131
f 123 149 151
f 123 151 152
f 123 152 150
f 124 153 125
f 125 153 154
f 125 154 155
f 125 155 126
f 126 155 156
f 126 156 127
f 127 156 157
f 127 157 128
f 128 157 158
f 128 158 159
f 128 159 140
f 132 150 160
f 132 160 133
f 133 160 161
f 133 161 135
f 133 135 134
f 135 161 162
f 135 162 163
f 135 163 164
f 135 164 136
f 136 164 165
f 136 165 138
f 138 165 139
f 139 165 166
f 140 159 141
f 141 159 167
f 141 167 168
f 141 168 142
f 142 168 143
f 143 168 169
f 143 169 170
f 143 170 171
f 143 171 144
f 144 171 172
f 144 172 145
f 147 173 148
f 148 173 174
f 148 174 175
f 148 175 149
f 149 175 176
f 149 176 151
f 150 152 160
f 151 176 177
f 151 177 178
f 151 178 152
f 152 178 160
f 154 179 155
f 155 179 180
f 155 180 181
f 155 181 182
f 155 182 156
f 156 182 157
f 157 182 183
f 157 183 158
f 158 183 184
f 158 184 159
f 159 184 185
f 159 185 186
f 159 186 167
f 160 178 187
f 160 187 162
f 160 162 161
f 162 187 188
f 162 188 189
f 162 189 190
f 162 190 163
f 163 190 191
f 163 191 164
f 164 191 165
f 165 191 192
f 165 192 193
f 165 193 166
f 167 186 168
f 168 186 194
f 168 194 195
f 168 195 169
f 169 195 170
f 170 195 196
f 174 197 175
f 175 197 198
f 175 198 199
f 175 199 176
f 176 199 177
f 177 199 200
f 177 200 201
f 177 201 178
f 178 201 187
f 180 202 181
f 181 202 203
f 181 203 204
f 181 204 205
f 181 205 182
f 182 205 183
f 183 205 206
f 183 206 207
f 183 207 184
f 184 207 185
f 185 207 208
f 185 208 186
f 186 208 209
f 186 209 210
f 186 210 194
f 187 201 188
f 188 201 211
f 188 211 189
f 189 211 212
f 189 212 213
f 189 213 190
f 190 213 191
f 191 213 214
f 191 214 215
f 191 215 192
f 192 215 193
f 193 215 216
f 194 210 217
f 194 217 195
f 195 217 196
f 196 217 218
f 197 219 198
f 198 219 220
f 198 220 221
f 198 221 199
f 199 221 222
f 199 222 223
f 199 223 200
f 200 223 201
f 201 223 224
f 201 224 211
f 203 225 204
f 204 225 226
f 204 226 205
f 205 226 227
f 205 227 228
f 205 228 206
f 206 228 207
f 207 228 229
f 207 229 230
f 207 230 208
f 208 230 209
f 209 230 231
f 209 231 232
f 209 232 210
f 210 232 217
f 211 224 233
f 211 233 234
f 211 234 235
f 211 235 212
f 212 235 213
f 213 235 236
f 213 236 237
f 213 237 214
f 214 237 215
f 215 237 238
f 215 238 216
f 216 238 239
f 217 232 240
f 217 240 241
f 217 241 218
f 221 242 222
f 222 242 243
f 222 243 244
f 222 244 223
f 223 244 224
f 224 244 233
f 225 245 226
f 226 245 246
f 226 246 247
f 226 247 227
f 227 247 248
f 227 248 228
f 228 248 249
f 228 249 229
f 229 249 250
f 229 250 251
f 229 251 230
f 230 251 231
f 231 251 252
f 231 252 232
f 232 252 253
f 232 253 254
f 232 254 240
f 233 244 255
f 233 255 256
f 233 256 257
f 233 257 234
f 234 257 235
f 235 257 258
f 235 258 236
f 236 258 259
f 236 259 260
f 236 260 237
f 237 260 238
f 238 260 261
f 238 261 262
f 238 262 239
f 240 254 241
f 241 254 263
f 242 264 265
f 242 265 243
f 243 265 244
f 244 265 255
f 246 266 247
f 247 266 267
f 247 267 268
f 247 268 248
f 248 268 249
f 249 268 269
f 249 269 270
f 249 270 250
f 250 270 251
f 251 270 271
f 251 271 252
f 252 271 272
f 252 272 273
f 252 273 253
f 253 273 254
f 254 273 274
f 254 274 275
f 254 275 263
f 255 265 276
f 255 276 277
f 255 277 256
f 256 277 278
f 256 278 279
f 256 279 257
f 257 279 258
f 258 279 280
f 258 280 281
f 258 281 259
f 259 281 282
f 259 282 260
f 260 282 261
f 261 282 283
f 261 283 284
f 261 284 262
f 264 285 265
f 265 285 276
f 266 286 267
f 267 286 287
f 267 287 288
f 267 288 268
f 268 288 289
f 268 289 269
f 269 289 290
f 269 290 291
f 269 291 270
f 270 291 271
f 271 291 292
f 271 292 293
f 271 293 272
f 272 293 273
f 273 293 294
f 273 294 274
f 274 294 295
f 274 295 296
f 274 296 297
f 274 297 298
f 274 298 275
f 276 285 299
f 276 299 300
f 276 300 277
f 277 300 301
f 277 301 302
f 277 302 278
f 278 302 279
f 279 302 303
f 279 303 304
f 279 304 280
f 280 304 305
f 280 305 281
f 281 305 282
f 282 305 306
f 282 306 283
f 283 307 284
f 283 306 308
f 283 308 309
f 283 309 307
f 287 310 288
f 288 310 311
f 288 311 312
f 288 312 289
f 289 312 313
f 289 313 314
f 289 314 290
f 290 314 315
f 290 315 291
f 291 315 292
f 292 315 316
f 292 316 317
f 292 317 293
f 293 317 318
f 293 318 294
f 294 318 295
f 295 318 319
f 295 319 320
f 295 320 321
f 295 321 296
f 299 322 300
f 300 322 323
f 300 323 324
f 300 324 325
f 300 325 326
f 300 326 301
f 301 326 302
f 302 326 327
f 302 327 328
f 302 328 303
f 303 328 329
f 303 329 304
f 304 329 305
f 305 329 330
f 305 330 306
f 306 330 331
f 306 331 332
f 306 332 308
f 308 332 333
f 308 333 309
f 311 334 312
f 312 334 335
f 312 335 336
f 312 336 313
f 313 336 314
f 314 336 337
f 314 337 338
f 314 338 315
f 315 338 339
f 315 339 316
f 316 339 317
f 317 339 340
f 317 340 318
f 318 340 341
f 318 341 342
f 318 342 319
f 319 342 320
f 320 342 343
f 324 344 325
f 325 344 345
f 325 345 346
f 325 346 326
f 326 346 327
f 327 346 347
f 327 347 348
f 327 348 328
f 328 348 349
f 328 349 329
f 329 349 330
f 330 349 350
f 330 350 351
f 330 351 331
f 331 351 332
f 332 351 352
f 332 352 353
f 332 353 333
f 334 354 355
f 334 355 335
f 335 355 336
f 336 356 337
f 336 355 357
f 336 357 356
f 337 356 358
f 337 358 338
f 338 358 339
f 339 358 359
f 339 359 360
f 339 360 340
f 340 360 361
f 340 361 341
f 341 361 362
f 341 362 342
f 342 362 363
f 342 363 343
f 344 364 345
f 345 364 365
f 345 365 366
f 345 366 346
f 346 366 367
f 346 367 368
f 346 368 347
f 347 368 369
f 347 369 348
f 348 369 349
f 349 369 370
f 349 370 350
f 350 370 371
f 350 371 372
f 350 372 351
f 351 372 352
f 352 372 373
f 352 373 374
f 352 374 375
f 352 375 353
f 354 376 377
f 354 377 355
f 355 378 357
f 355 377 378
f 356 357 378
f 356 378 379
f 356 379 380
f 356 380 358
f 358 380 381
f 358 381 359
f 359 381 360
f 360 381 382
f 360 382 361
f 361 382 383
f 361 383 362
f 362 383 384
f 362 384 385
f 362 385 363
f 365 386 366
f 366 386 387
f 366 387 367
f 367 388 368
f 367 387 389
f 367 389 388
f 368 388 369
f 369 388 390
f 369 390 391
f 369 391 370
f 370 391 371
f 371 391 392
f 371 392 372
f 372 392 393
f 372 393 394
f 372 394 373
f 373 394 395
f 373 395 374
f 376 396 377
f 377 396 397
f 377 397 378
f 378 397 398
f 378 398 399
f 378 399 379
f 379 399 380
f 380 399 400
f 380 400 401
f 380 401 381
f 381 401 382
f 382 401 402
f 382 402 403
f 382 403 383
f 383 403 404
f 383 404 384
f 384 404 405
f 384 405 385
f 386 406 387
f 387 406 407
f 387 407 389
f 388 389 408
f 388 408 390
f 389 407 409
f 389 409 408
f 390 408 410
f 390 410 411
f 390 411 391
f 391 411 392
f 392 411 412
f 392 412 413
f 392 413 393
f 393 413 394
f 394 413 414
f 394 414 415
f 394 415 416
f 394 416 417
f 394 417 395
f 396 418 419
f 396 419 397
f 397 419 398
f 398 419 420
f 398 420 421
f 398 421 399
f 399 421 400
f 400 421 422
f 400 422 401
f 401 422 423
f 401 423 424
f 401 424 402
f 402 424 425
f 402 425 403
f 403 425 404
f 404 426 405
f 404 425 427
f 404 427 428
f 404 428 426
f 406 429 407
f 407 429 430
f 407 430 431
f 407 431 432
f 407 432 409
f 408 409 432
f 408 432 433
f 408 433 434
f 408 434 410
f 410 434 411
f 411 434 435
f 411 435 436
f 411 436 412
f 412 436 413
f 413 436 437
f 413 437 438
f 413 438 414
f 414 439 415
f 414 438 440
f 414 440 439
f 418 441 442
f 418 442 419
f 419 442 420
f 420 442 443
f 420 443 444
f 420 444 421
f 421 444 422
f 422 444 445
f 422 445 446
f 422 446 423
f 423 446 424
f 424 446 447
f 424 447 448
f 424 448 425
f 425 448 449
f 425 449 427
f 427 449 428
f 428 449 450
f 430 451 431
f 431 451 452
f 431 452 453
f 431 453 432
f 432 453 454
f 432 454 433
f 433 454 434
f 434 454 455
f 434 455 435
f 435 455 456
f 435 456 457
f 435 457 436
f 436 457 437
f 437 457 458
f 437 458 459
f 437 459 438
f 438 459 440
f 440 459 460
f 441 461 462
f 441 462 442
f 442 462 463
f 442 463 443
f 443 463 444
f 444 463 464
f 444 464 465
f 444 465 445
f 445 465 446
f 446 465 466
f 446 466 467
f 446 467 447
f 447 467 448
f 448 467 468
f 448 468 469
f 448 469 449
f 449 469 450
f 450 469 470
f 451 471 452
f 452 471 472
f 452 472 473
f 452 473 453
f 453 473 474
f 453 474 454
f 454 474 475
f 454 475 455
f 455 475 476
f 455 476 477
f 455 477 456
f 456 477 457
f 457 477 478
f 457 478 479
f 457 479 458
f 458 479 459
f 459 479 480
f 459 480 481
f 459 481 482
f 459 482 460
f 461 483 462
f 462 483 484
f 462 484 463
f 463 484 485
f 463 485 464
f 464 485 486
f 464 486 487
f 464 487 465
f 465 487 488
f 465 488 466
f 466 488 467
f 467 488 489
f 467 489 490
f 467 490 468
f 468 491 469
f 468 490 491
f 469 491 470
f 472 492 473
f 473 492 493
f 473 493 494
f 473 494 495
f 473 495 474
f 474 495 475
f 475 495 496
f 475 496 497
f 475 497 476
f 476 497 477
f 477 497 498
f 477 498 499
f 477 499 478
f 478 499 479
f 479 499 500
f 479 500 501
f 479 501 480
f 480 502 481
f 480 501 502
f 483 503 484
f 484 503 504
f 484 504 505
f 484 505 506
f 484 506 485
f 485 506 486
f 486 506 507
f 486 507 508
f 486 508 487
f 487 508 488
f 488 508 509
f 488 509 510
f 488 510 489
f 489 510 511
f 489 511 490
f 490 511 512
f 490 512 491
f 493 513 494
f 494 513 514
f 494 514 495
f 495 514 515
f 495 515 516
f 495 516 496
f 496 516 517
f 496 517 497
f 497 517 498
f 498 517 518
f 498 518 519
f 498 519 499
f 499 519 520
f 499 520 500
f 500 520 501
f 501 521 522
f 501 522 502
f 501 520 523
f 501 523 521
f 504 524 505
f 505 524 525
f 505 525 506
f 506 525 526
f 506 526 527
f 506 527 507
f 507 527 508
f 508 527 528
f 508 528 529
f 508 529 509
f 509 529 530
f 509 530 510
f 510 530 511
f 511 530 531
f 511 531 532
f 511 532 512
f 514 533 534
f 514 534 515
f 515 534 535
f 515 535 516
f 516 535 517
f 517 535 536
f 517 536 537
f 517 537 518
f 518 537 519
f 519 537 538
f 519 538 539
f 519 539 520
f 520 539 540
f 520 540 523
f 521 523 541
f 523 540 542
f 523 542 541
f 524 543 525
f 525 543 544
f 525 544 545
f 525 545 546
f 525 546 526
f 526 546 527
f 527 546 547
f 527 547 548
f 527 548 528
f 528 548 529
f 529 548 549
f 529 549 530
f 530 549 550
f 530 550 551
f 530 551 531
f 531 551 552
f 531 552 553
f 531 553 532
f 533 554 534
f 534 554 555
f 534 555 535
f 535 555 556
f 535 556 536
f 536 556 557
f 536 557 558
f 536 558 537
f 537 558 538
f 538 558 559
f 538 559 560
f 538 560 539
f 539 560 561
f 539 561 540
f 540 561 562
f 540 562 542
f 544 563 545
f 545 563 564
f 545 564 565
f 545 565 546
f 546 565 547
f 547 565 566
f 547 566 548
f 548 566 567
f 548 567 568
f 548 568 549
f 549 568 569
f 549 569 550
f 550 569 551
f 551 569 570
f 551 570 571
f 551 571 572
f 551 572 552
f 554 573 555
f 555 573 574
f 555 574 556
f 556 574 575
f 556 575 576
f 556 576 557
f 557 576 558
f 558 576 577
f 558 577 578
f 558 578 559
f 559 578 560
f 560 578 579
f 560 579 580
f 560 580 561
f 561 581 562
f 561 580 582
f 561 582 581
f 563 583 564
f 564 583 584
f 564 584 585
f 564 585 586
f 564 586 565
f 565 586 587
f 565 587 566
f 566 587 567
f 567 587 588
f 567 588 568
f 568 588 589
f 568 589 590
f 568 590 569
f 569 590 591
f 569 591 570
f 570 591 592
f 570 592 593
f 570 593 571
f 573 594 574
f 574 595 575
f 574 594 596
f 574 596 597
f 574 597 595
f 575 595 576
f 576 595 598
f 576 598 577
f 577 598 599
f 577 599 600
f 577 600 578
f 578 600 601
f 578 601 579
f 579 601 580
f 580 601 602
f 580 602 603
f 580 603 604
f 580 604 582
f 584 605 585
f 585 605 606
f 585 606 607
f 585 607 586
f 586 607 608
f 586 608 587
f 587 608 609
f 587 609 610
f 587 610 588
f 588 610 611
f 588 611 589
f 589 611 590
f 590 611 612
f 590 612 591
f 591 612 613
f 591 613 614
f 591 614 615
f 591 615 592
f 595 597 616
f 595 616 617
f 595 617 618
f 595 618 598
f 596 619 616
f 596 616 597
f 598 618 620
f 598 620 599
f 599 620 600
f 600 620 621
f 600 621 622
f 600 622 601
f 601 622 623
f 601 623 602
f 602 623 624
f 602 624 603
f 606 625 607
f 607 625 626
f 607 626 627
f 607 627 608
f 608 627 628
f 608 628 609
f 609 628 610
f 610 628 629
f 610 629 611
f 611 629 630
f 611 630 612
f 612 630 631
f 612 631 632
f 612 632 613
f 613 632 633
f 613 633 634
f 613 634 635
f 613 635 614
f 616 619 636
f 616 636 617
f 617 636 637
f 617 637 618
f 618 637 638
f 618 638 639
f 618 639 620
f 619 640 636
f 620 639 641
f 620 641 621
f 621 641 642
f 621 642 622
f 622 642 623
f 623 643 624
f 623 642 644
f 623 644 645
f 623 645 643
f 625 646 626
f 626 646 647
f 626 647 648
f 626 648 627
f 627 648 628
f 628 648 649
f 628 649 650
f 628 650 629
f 629 650 630
f 630 650 651
f 630 651 652
f 630 652 631
f 631 652 653
f 631 653 632
f 632 653 633
f 633 653 654
f 636 640 655
f 636 655 656
f 636 656 637
f 637 656 657
f 637 657 638
f 638 657 658
f 638 658 639
f 639 658 641
f 640 659 655
f 641 658 660
f 641 660 642
f 642 660 661
f 642 661 662
f 642 662 644
f 644 662 663
f 644 663 645
f 646 664 647
f 647 664 665
f 647 665 666
f 647 666 648
f 648 666 667
f 648 667 649
f 649 667 668
f 649 668 650
f 650 668 669
f 650 669 651
f 651 669 652
f 652 669 670
f 652 670 653
f 653 670 671
f 653 671 672
f 653 672 673
f 653 673 654
f 655 659 674
f 655 674 656
f 656 674 675
f 656 675 676
f 656 676 657
f 657 676 658
f 658 676 677
f 658 677 678
f 658 678 660
f 659 679 674
f 660 678 661
f 661 678 680
f 661 680 662
f 662 681 663
f 662 680 682
f 662 682 683
f 662 683 684
f 662 684 681
f 664 685 665
f 665 685 686
f 665 686 666
f 666 686 687
f 666 687 688
f 666 688 689
f 666 689 690
f 666 690 667
f 667 690 691
f 667 691 668
f 668 691 669
f 669 691 692
f 669 692 693
f 669 693 670
f 670 693 671
f 671 693 694
f 671 694 672
f 672 694 695
f 674 679 696
f 674 696 697
f 674 697 698
f 674 698 699
f 674 699 675
f 675 699 676
f 676 699 700
f 676 700 701
f 676 701 677
f 677 701 678
f 678 701 702
f 678 702 703
f 678 703 680
f 680 703 682
f 682 703 704
f 682 704 683
f 683 704 705
f 685 706 707
f 685 707 686
f 686 707 708
f 686 708 709
f 686 709 687
f 687 709 688
f 688 709 710
f 688 710 689
f 689 710 690
f 690 710 711
f 690 711 712
f 690 712 691
f 691 712 711
f 691 711 713
f 691 713 714
f 691 714 692
f 692 714 713
f 692 713 715
f 692 715 716
f 692 716 693
f 693 716 715
f 693 715 717
f 693 717 718
f 693 718 694
f 694 718 717
f 694 717 719
f 694 719 720
f 694 720 695
f 695 720 719
f 695 719 721
f 697 722 698
f 698 722 723
f 698 723 699
f 699 723 724
f 699 724 725
f 699 725 700
f 700 725 726
f 700 726 701
f 701 726 702
f 702 726 727
f 702 727 703
f 703 727 728
f 703 728 704
f 704 728 729
f 704 729 730
f 704 730 705
f 706 731 708
f 706 708 707
f 708 731 729
f 708 729 709
f 709 729 728
f 709 728 710
f 710 728 727
f 710 727 711
f 711 727 726
f 711 726 713
f 713 726 725
f 713 725 715
f 715 725 724
f 715 724 717
f 717 724 723
f 717 723 719
f 719 723 732
f 719 732 721
f 722 732 723
f 729 731 730

