# https://github.com/mikedh/trimesh
v 14.35809724 -34.63240825 13.18128448
v 14.73294675 -34.47961770 13.24393129
v 14.72869880 -34.46703553 13.49060306
v 14.35809724 -34.61443335 13.49060306
v 14.35809724 -34.63061154 7.00078308
v 14.97612290 -34.37895514 7.00078308
v 14.97612290 -34.37895514 12.99921692
v 16.43835597 -33.69948938 13.24393129
v 16.43198535 -33.68870392 13.49060306
v 14.71595757 -34.43827517 13.82732991
v 14.35809724 -34.58746970 13.75685217
v 14.35809724 -34.62881222 6.74823810
v 14.73188542 -34.47602168 6.66209850
v 16.65710837 -33.59703012 7.00078308
v 16.43623330 -33.69589597 6.66209850
v 18.10128830 -32.83667341 13.24393129
v 16.65710837 -33.59703012 12.99921692
v 18.09491768 -32.82589056 13.49060306
v 16.41818017 -33.65994357 13.82732991
v 16.39694303 -33.61680433 14.16209870
v 14.69684310 -34.39333662 14.16209870
v 14.35809724 -34.53893512 14.09553642
v 14.35809724 -34.58028026 13.82732991
v 14.35809724 -34.59825516 6.32341424
v 14.72232819 -34.45265405 6.32341424
v 16.42561212 -33.67432505 6.32341424
v 18.29773962 -32.73241743 7.00078308
v 18.09916563 -32.83307999 6.66209850
v 18.29773962 -32.73241743 12.99921692
v 19.71962109 -31.89117238 13.24393129
v 19.71325047 -31.88038953 13.49060306
v 19.69626129 -31.85342588 13.82732991
v 18.08005117 -32.79713020 13.82732991
v 18.05668876 -32.75578767 14.16209870
v 16.36933267 -33.55748430 14.49491008
v 14.67135802 -34.33401659 14.49491008
v 14.35809724 -34.45984349 14.49491008
v 14.35809724 -34.47242826 14.43422101
v 14.35809724 -34.52814966 14.16209870
v 14.35809724 -34.56230536 6.05520740
v 14.70640033 -34.41490754 5.98864513
v 16.40756160 -33.63837264 5.98864513
v 18.08748573 -32.81150907 6.32341424
v 19.89271261 -31.78871572 7.00078308
v 19.71749842 -31.88757896 6.66209850
v 19.89271261 -31.78871572 12.99921692
v 21.28698371 -30.86658232 13.24393129
v 21.28061309 -30.85579686 13.49060306
v 21.26149863 -30.82883321 13.82732991
v 21.23495091 -30.78928739 14.16209870
v 19.67077620 -31.81208335 14.16209870
v 19.63679522 -31.75635934 14.49491008
v 18.02483305 -32.69826435 14.49491008
v 17.98660412 -32.62816146 14.82380600
v 16.33322902 -33.48558471 14.82380600
v 14.63949971 -34.26031768 14.82380600
v 14.35809724 -34.37356502 14.82380600
v 14.35809724 -34.55331661 5.98864513
v 14.35809724 -34.54253115 5.92208285
v 14.68409926 -34.36277956 5.65387601
v 18.06730732 -32.77555928 5.98864513
v 16.38207652 -33.58624466 5.65387601
v 18.04076090 -32.72522800 5.65387601
v 19.68351744 -31.83185495 5.98864513
v 19.70475458 -31.86600804 6.32341424
v 21.43883549 -30.76591976 7.00078308
v 21.28486104 -30.86298630 6.66209850
v 21.43883549 -30.76591976 12.99921692
v 22.80337486 -29.76289801 13.24393129
v 22.79488027 -29.75390926 13.49060306
v 22.77576581 -29.72694822 13.82732991
v 22.74709411 -29.68919910 14.16209870
v 22.70780385 -29.63886783 14.49491008
v 21.19778462 -30.73536269 14.49491008
v 21.15212373 -30.67064993 14.82380600
v 19.59431835 -31.68805316 14.82380600
v 19.54334818 -31.60716482 15.14878645
v 17.93987930 -32.54367709 15.14878645
v 16.29181348 -33.39930102 15.14878645
v 14.60233472 -34.17223990 15.14878645
v 14.35809724 -34.26930644 15.14878645
v 14.35809724 -34.49219987 5.65387601
v 14.65436623 -34.29627009 5.32302269
v 16.35021821 -33.51973519 5.32302269
v 18.00465725 -32.66231455 5.32302269
v 19.65272307 -31.78332299 5.65387601
v 21.21583775 -30.76232374 5.65387601
v 21.24769345 -30.80906160 5.98864513
v 21.27105586 -30.84141538 6.32341424
v 22.93398820 -29.66762818 7.00078308
v 22.80125089 -29.76110131 6.66209850
v 22.78638437 -29.74132709 6.32341424
v 22.93398820 -29.66762818 12.99921692
v 24.26242393 -28.58731411 13.24393129
v 24.25392803 -28.57652865 13.49060306
v 24.23269089 -28.55316103 13.82732991
v 24.20189522 -28.51541191 14.16209870
v 24.16048098 -28.46687734 14.49491008
v 24.10844818 -28.40576321 14.82380600
v 22.65895635 -29.57415767 14.82380600
v 22.60055292 -29.49866205 15.14878645
v 21.09796695 -30.59156090 15.14878645
v 19.48494345 -31.51189499 15.46985110
v 17.88572252 -32.44661056 15.46985110
v 16.24190465 -33.29864107 15.46985110
v 14.55773517 -34.06978063 15.46985110
v 14.35809724 -34.25312825 15.19381366
v 14.35809724 -34.42748971 5.38175403
v 14.35809724 -34.41310823 5.32302269
v 14.35809724 -34.31783840 4.99608451
v 14.61932391 -34.21358243 4.99608451
v 16.31092794 -33.44064616 4.99608451
v 17.96218038 -32.58322291 4.99608451
v 19.56777193 -31.64491132 4.99608451
v 19.61449414 -31.72040954 5.32302269
v 21.17442351 -30.70120960 5.32302269
v 22.68125743 -29.60471474 5.32302269
v 22.72585697 -29.66223545 5.65387601
v 22.76089929 -29.70897332 5.98864513
v 24.25923862 -28.58371809 6.66209850
v 24.37286146 -28.49923372 7.00078308
v 24.24330946 -28.56574319 6.32341424
v 24.37286146 -28.49923372 12.99921692
v 25.20538896 -27.74786577 13.15779168
v 25.20538896 -27.72809416 13.49060306
v 25.20538896 -27.68495232 13.82732991
v 25.20538896 -27.62024216 14.16209870
v 25.20538896 -27.53396109 14.49491008
v 25.20538896 -27.50879414 14.57517649
v 25.20538896 -27.42610909 14.82380600
v 25.20538896 -27.32005380 15.09397024
v 24.04579680 -28.33206430 15.14878645
v 23.97358689 -28.24757993 15.46985110
v 22.53152963 -29.40878496 15.46985110
v 21.03425294 -30.49808778 15.46985110
v 20.96204303 -30.39383180 15.78308580
v 19.41804282 -31.40404299 15.78308580
v 17.82413378 -32.33516514 15.78308580
v 16.18668653 -33.18539634 15.78308580
v 14.50782374 -33.95294249 15.78308580
v 14.35809724 -34.02484208 15.75567754
v 14.35809724 -34.14887227 15.46985110
v 14.35809724 -34.20459628 4.67501952
v 14.57897231 -34.11651589 4.67501952
v 16.26526706 -33.34537633 4.67501952
v 17.91121021 -32.49154910 4.67501952
v 19.51255120 -31.55683354 4.67501952
v 21.12345204 -30.62751070 4.99608451
v 22.62710065 -29.53461185 4.99608451
v 24.13287193 -28.43452357 5.32302269
v 24.18065809 -28.49024758 5.65387601
v 24.21676174 -28.53338681 5.98864513
v 25.20538896 -27.74067633 6.66209850
v 25.20538896 -27.74966508 7.00078308
v 25.20538896 -27.74606906 6.78151924
v 25.20538896 -27.65259854 5.98864513
v 25.20538896 -27.66877413 6.08848854
v 25.20538896 -27.70652324 6.32341424
v 25.20538896 -27.74966508 12.99921692
v 25.20538896 -27.29668617 15.14878645
v 25.20538896 -27.16546655 15.43265482
v 25.20538896 -27.14749165 15.46985110
v 25.20538896 -26.98571235 15.76742394
v 23.89075972 -28.15051340 15.78308580
v 22.45507307 -29.30812240 15.78308580
v 20.88133983 -30.27699105 16.09044665
v 19.34371024 -31.28181212 16.09044665
v 17.75617182 -32.20933825 16.09044665
v 16.12403385 -33.05777013 16.09044665
v 14.45260562 -33.82172287 16.09044665
v 14.35809724 -33.86845812 16.07282706
v 14.35809724 -34.01225992 15.78308580
v 14.35809724 -34.08955485 4.39115115
v 14.53118615 -34.00686719 4.35786968
v 16.21217161 -33.23752433 4.35786968
v 17.85280548 -32.38549381 4.35786968
v 19.44883719 -31.45437427 4.35786968
v 20.99602401 -30.44236377 4.35786968
v 21.06398597 -30.54122962 4.67501952
v 22.56338663 -29.45012748 4.67501952
v 24.00756788 -28.28712575 4.67501952
v 24.07552984 -28.36621739 4.99608451
v 25.20538896 -27.47823708 5.32302269
v 25.20538896 -27.50160471 5.40133104
v 25.20538896 -27.57530361 5.65387601
v 25.20538896 -27.63102762 5.89271718
v 25.20538896 -26.97672620 15.78308580
v 25.20538896 -26.85269602 15.98277198
v 23.79943535 -28.04086469 16.09044665
v 22.36799665 -29.19487767 16.09044665
v 22.27242563 -29.07084748 16.38997657
v 20.79213943 -30.14756814 16.38997657
v 19.26088177 -31.14879318 16.38997657
v 17.67971657 -32.07272589 16.38997657
v 16.05501056 -32.91576505 16.38997657
v 14.39101689 -33.67612176 16.38997657
v 14.35809724 -33.69050324 16.38997657
v 14.35809724 -33.85946937 16.09044665
v 14.35809724 -34.07517336 4.35786968
v 14.35809724 -33.92957225 4.04659336
v 14.47809070 -33.88104029 4.04659336
v 16.15270555 -33.11529085 4.04659336
v 17.78803013 -32.26685897 4.04659336
v 19.37769122 -31.33753613 4.04659336
v 20.91850612 -30.33091836 4.04659336
v 22.49011539 -29.35485765 4.35786968
v 22.40834955 -29.24700826 4.04659336
v 25.20538896 -27.21759453 4.67501952
v 25.20538896 -27.23736875 4.72004673
v 25.20538896 -27.35780291 4.99608451
v 23.92898735 -28.19545195 4.35786968
v 25.20538896 -27.05581784 4.35786968
v 25.20538896 -27.38117054 5.05873132
v 25.20538896 -26.78259313 16.09044665
v 25.17034665 -26.81674622 16.09044665
v 25.06309442 -26.70350149 16.38997657
v 23.69749371 -27.92222723 16.38997657
v 23.58705617 -27.79100761 16.68363394
v 22.16836002 -28.93423513 16.68363394
v 20.69444574 -30.00736237 16.68363394
v 19.17062134 -31.00319467 16.68363394
v 17.59794943 -31.92173205 16.68363394
v 15.98067798 -32.76117779 16.68363394
v 14.35809724 -33.60062614 16.53484752
v 14.35809724 -33.76779556 3.74314798
v 14.41862464 -33.74442793 3.74314798
v 16.08686887 -32.98047781 3.74314798
v 17.71475889 -32.13563934 3.74314798
v 19.29911070 -31.20990992 3.74314798
v 20.83355367 -30.20688817 3.74314798
v 22.31702648 -29.12837081 3.74314798
v 23.84191222 -28.09119597 4.04659336
v 25.20538896 -26.87606364 4.04855110
v 25.20538896 -26.56329311 16.38997657
v 25.20538896 -26.32242478 16.68363394
v 24.94628627 -26.57767460 16.68363394
v 24.81885824 -26.44285895 16.96750199
v 23.46706141 -27.64900252 16.96750199
v 22.05579851 -28.78863662 16.96750199
v 20.58931619 -29.85457182 16.96750199
v 19.07292634 -30.84501140 16.96750199
v 17.50768900 -31.75995275 16.96750199
v 15.89891084 -32.59580508 16.96750199
v 14.35809724 -33.50355960 16.68363394
v 14.35809724 -33.76240283 3.73335931
v 14.35809724 -33.60062614 3.46319474
v 16.01465896 -32.83307999 3.44753288
v 17.63511702 -31.99183494 3.44753288
v 19.21203427 -31.06970415 3.44753288
v 20.74010663 -30.07207252 3.44753288
v 22.21614487 -28.99715118 3.44753288
v 23.63802765 -27.85032503 3.44753288
v 23.74421723 -27.97615193 3.74314798
v 25.11300456 -26.75562948 3.74314798
v 25.20538896 -26.66395567 3.74314798
v 25.20538896 -26.06178224 16.96750199
v 25.20538896 -25.88562407 17.14173894
v 24.68293563 -26.29726045 17.24158203
v 23.33857205 -27.49800868 17.24158203
v 21.93474241 -28.63045335 17.24158203
v 20.47675468 -29.69099581 17.24158203
v 18.96886073 -30.67604266 17.24158203
v 17.41211668 -31.58559389 17.24158203
v 14.35809724 -33.30043778 16.96750199
v 15.81183702 -32.41605349 17.24158203
v 14.35809724 -33.08114037 17.24158203
v 14.35809724 -33.39390829 3.15974936
v 15.93607843 -32.67130330 3.15974936
v 17.54910193 -31.83545098 3.15974936
v 19.11752589 -30.91871031 3.15974936
v 20.63816499 -29.92467470 3.15974936
v 22.10783131 -28.85514610 3.15974936
v 23.52228083 -27.71551199 3.15974936
v 25.00044305 -26.63519531 3.44753288
v 25.20538896 -26.43387280 3.44753288
v 25.20538896 -26.64598078 3.71965518
v 25.20538896 -25.78316480 17.24158203
v 24.53851711 -26.14267319 17.50587340
v 23.20158679 -27.33623199 17.50587340
v 21.80625305 -28.46148461 17.50587340
v 20.35676122 -29.51663695 17.50587340
v 18.85736056 -30.49629107 17.50587340
v 17.31017374 -31.40044957 17.50587340
v 15.71945131 -32.22551383 17.50587340
v 14.35809724 -32.84925818 17.50587340
v 14.35809724 -33.05417672 17.27290576
v 14.35809724 -33.19977522 2.90524665
v 15.85218862 -32.49873854 2.88175385
v 17.45565489 -31.66648224 2.88175385
v 19.01664689 -30.75333759 2.88175385
v 20.52878879 -29.76469472 2.88175385
v 21.98996052 -28.70235555 2.88175385
v 23.39697678 -27.56811418 2.88175385
v 24.74558700 -26.36376731 2.88175385
v 24.87726297 -26.50397569 3.15974936
v 25.20538896 -26.18221641 3.15974936
v 25.20538896 -25.64655244 17.36296019
v 25.20538896 -25.48477575 17.50587340
v 25.20538896 -25.35355613 17.61354743
v 25.20538896 -25.17200522 17.76037611
v 24.38454136 -25.97909719 17.76037611
v 23.05610694 -27.16546655 17.76037611
v 21.66926779 -28.28352973 17.76037611
v 20.22933319 -29.33149002 17.76037611
v 18.73948976 -30.30575141 17.76037611
v 17.20186017 -31.20451719 17.76037611
v 15.62069498 -32.02419132 17.76037611
v 14.35809724 -32.80611634 17.55090062
v 14.35809724 -33.18180032 2.88175385
v 14.35809724 -33.16023201 2.85434559
v 15.76192558 -32.31359422 2.61158928
v 17.35689856 -31.48493133 2.61158928
v 18.90833072 -30.57897612 2.61158928
v 20.41197933 -29.59572859 2.61158928
v 21.86465777 -28.53877954 2.61158928
v 23.26423947 -27.40993090 2.61158928
v 24.60435510 -26.21457279 2.61158928
v 25.20538896 -25.79395026 2.77212210
v 25.20538896 -25.91079101 2.88175385
v 25.20538896 -24.83946308 18.00313242
v 24.22313366 -25.80653243 18.00313242
v 22.90319383 -26.98571235 18.00313242
v 21.52591191 -28.09658870 18.00313242
v 20.09553455 -29.13735695 18.00313242
v 18.61524835 -30.10442890 18.00313242
v 17.08717600 -30.99780194 18.00313242
v 15.51769070 -31.81208335 18.00313242
v 14.35809724 -32.60299712 17.76037611
v 14.35809724 -32.95531347 2.61158928
v 14.35809724 -32.91936107 2.57243527
v 15.66529453 -32.11766183 2.35317111
v 17.25070767 -31.29439428 2.35317111
v 18.79364654 -30.39203510 2.35317111
v 20.28773792 -29.41597439 2.35317111
v 21.73192047 -28.36442068 2.35317111
v 23.12194493 -27.24455819 2.35317111
v 24.45462730 -26.05459280 2.35317111
v 25.20538896 -25.31580701 2.35317111
v 25.20538896 -25.45781210 2.47259153
v 25.20538896 -25.62138811 2.61158928
v 25.20538896 -24.52489585 18.21260791
v 24.05323006 -25.62678084 18.23414298
v 22.74284746 -26.79697201 18.23414298
v 21.37512147 -27.89885961 18.23414298
v 19.95430134 -28.93243842 18.23414298
v 18.48463371 -29.89411764 18.23414298
v 16.96824387 -30.78030124 18.23414298
v 15.40831581 -31.58918992 18.23414298
v 14.35809724 -32.26146623 18.07165243
v 14.35809724 -32.34235458 18.00313242
v 14.35809724 -32.71444254 2.35317111
v 14.35809724 -32.46099204 2.10454160
v 15.56441292 -31.90914989 2.10454160
v 17.13921010 -31.09127246 2.10454160
v 18.67152780 -30.19610271 2.10454160
v 20.15606195 -29.22543734 2.10454160
v 21.59174860 -28.18107046 2.10454160
v 22.97327846 -27.06840001 2.10454160
v 24.29640491 -25.88562407 2.10454160
v 25.20538896 -24.99225363 2.10454160
v 25.20538896 -24.49253947 18.23414298
v 23.87589321 -25.43983720 18.45144875
v 22.57506654 -26.59924552 18.45144875
v 21.21796042 -27.69394107 18.45144875
v 19.80775885 -28.72033045 18.45144875
v 18.34871240 -29.67302091 18.45144875
v 16.84293851 -30.55381179 18.45144875
v 15.29469296 -31.35730773 18.45144875
v 14.35809724 -31.96487129 18.31440873
v 14.35809724 -32.06912987 18.23414298
v 14.35809724 -32.19495676 1.86961623
v 15.45822464 -31.69164658 1.86961623
v 17.02240065 -30.87916449 1.86961623
v 18.54409978 -29.98938747 1.86961623
v 20.01801535 -29.02591154 1.86961623
v 21.44414477 -27.98873670 1.86961623
v 22.81611741 -26.88325569 1.86961623
v 24.13074795 -25.70946589 1.86961623
v 25.20538896 -24.65072274 1.86961623
v 25.20538896 -24.29840639 18.34964793
v 25.11725120 -24.21571873 18.45144875
v 23.69218443 -25.24390742 18.65896652
v 22.40091629 -26.39432698 18.65896652
v 21.05442874 -27.48003379 18.65896652
v 19.65590969 -28.49923372 18.65896652
v 18.20747919 -29.44473475 18.65896652
v 16.71338782 -30.31833619 18.65896652
v 14.35809724 -31.78511970 18.45144875
v 15.17681956 -31.11464009 18.65896652
v 14.35809724 -31.65569678 18.54346156
v 15.34672447 -31.46336302 1.64447887
v 14.35809724 -31.91454262 1.64447887
v 16.90028191 -30.65627106 1.64447887
v 18.41030113 -29.77368347 1.64447887
v 19.87465948 -28.81739698 1.64447887
v 21.28910769 -27.78741159 1.64447887
v 22.65152439 -26.68912001 1.64447887
v 23.95659640 -25.52432157 1.64447887
v 25.20220365 -24.29660708 1.64447887
v 25.20538896 -24.29840639 1.64839434
v 25.20538896 -24.12045151 18.45144875
v 25.20538896 -24.08449911 18.47102609
v 24.92398649 -24.02877510 18.65896652
v 23.50104239 -25.04078560 18.85082241
v 22.22039282 -26.18221641 18.85082241
v 20.88452514 -27.25893706 18.85082241
v 19.49768469 -28.26915085 18.85082241
v 18.06093670 -29.20745984 18.85082241
v 16.57852784 -30.07387184 18.85082241
v 15.05470343 -30.86478561 18.85082241
v 14.35809724 -31.49032407 18.65896652
v 14.35809724 -31.62513971 1.43304564
v 15.23097634 -31.22428879 1.43304564
v 16.77179255 -30.42438887 1.43304564
v 18.27119321 -29.54899073 1.43304564
v 19.72493298 -28.59989628 1.43304564
v 21.12876132 -27.57710032 1.43304564
v 22.48055816 -26.48779750 1.43304564
v 23.77607424 -25.33198521 1.43304564
v 25.01212426 -24.11325946 1.43304564
v 25.20538896 -23.90294820 1.43304564
v 25.20538896 -23.72139730 18.65896652
v 25.20538896 -23.30976352 18.85082241
v 24.72328722 -23.83464202 18.85082241
v 24.51621734 -23.63511622 19.02897418
v 23.30459107 -24.83047433 19.02897418
v 22.03456137 -25.96291900 19.02897418
v 20.71037360 -27.03065090 19.02897418
v 19.33415301 -28.03187594 19.02897418
v 17.90908493 -28.96299809 19.02897418
v 16.43941730 -29.82221544 19.02897418
v 14.92939807 -30.60593978 19.02897418
v 14.35809724 -30.99420592 18.95849643
v 14.35809724 -31.18294626 18.85082241
v 14.35809724 -31.46875575 1.32928709
v 15.11098288 -30.97802773 1.23335946
v 16.64011657 -30.18531725 1.23335946
v 18.12677339 -29.31531183 1.23335946
v 19.56989460 -28.37340683 1.23335946
v 20.96204303 -27.35959962 1.23335946
v 22.30322130 -26.27748623 1.23335946
v 23.58811751 -25.13245940 1.23335946
v 24.81461160 -23.92272241 1.23335946
v 25.20538896 -23.49670716 1.23335946
v 25.20538896 -23.09226282 18.94283522
v 25.20538896 -22.88374826 19.02897418
v 25.20538896 -22.44695015 19.19538019
v 24.30277552 -23.43019769 19.19538019
v 23.10176913 -24.61477034 19.19538019
v 21.84341934 -25.73642954 19.19538019
v 20.52985013 -26.79697201 19.19538019
v 19.16637339 -27.78921090 19.19538019
v 17.75404915 -28.71134169 19.19538019
v 16.29712276 -29.56337221 19.19538019
v 14.35809724 -30.86658232 19.02897418
v 14.79878604 -30.33990450 19.19538019
v 14.35809724 -30.54122962 19.19538019
v 14.35809724 -31.32315464 1.23335946
v 14.35809724 -31.14699647 1.12960026
v 14.98568013 -30.72278053 1.04933385
v 16.50313132 -29.93546017 1.04933385
v 17.97810823 -29.07444350 1.04933385
v 19.40848559 -28.13972794 1.04933385
v 20.78895412 -27.13490948 1.04933385
v 22.11951252 -26.06178224 1.04933385
v 23.39379147 -24.92574416 1.04933385
v 24.60966438 -23.72499332 1.04933385
v 25.20538896 -23.07788134 1.04933385
v 25.20538896 -22.00296000 19.34416661
v 24.08508707 -23.21988642 19.34612369
v 22.89469793 -24.39367361 19.34612369
v 21.64696801 -25.50454736 19.34612369
v 20.34508131 -26.55430697 19.34612369
v 18.99434581 -27.53935382 19.34612369
v 17.59370148 -28.45249847 19.34612369
v 16.15058288 -29.29733694 19.34612369
v 14.66604874 -30.06667979 19.34612369
v 14.35809724 -30.20868488 19.34612369
v 14.35809724 -30.28238378 19.31284288
v 14.35809724 -31.01038411 1.04933385
v 14.85825211 -30.46034127 0.87705528
v 16.36190072 -29.68021035 0.87705528
v 17.82413378 -28.82638574 0.87705528
v 19.24282864 -27.89885961 0.87705528
v 20.61161727 -26.90302730 0.87705528
v 21.93049446 -25.83888881 0.87705528
v 23.19415353 -24.71363619 0.87705528
v 24.39940788 -23.52367081 0.87705528
v 25.20538896 -22.80285992 0.93970209
v 25.20538896 -21.51223328 19.48120598
v 24.98026725 -21.78186327 19.48120598
v 23.86102669 -23.00418504 19.48120598
v 22.68125743 -24.16718677 19.48120598
v 21.44626874 -25.27086847 19.48120598
v 20.15606195 -26.30804591 19.48120598
v 18.81807029 -27.28230730 19.48120598
v 17.43123114 -28.19005921 19.48120598
v 16.00085378 -29.02411222 19.48120598
v 14.53012481 -29.78806235 19.48120598
v 14.35809724 -29.86715399 19.48120598
v 14.35809724 -30.68862483 0.87705528
v 14.35809724 -30.35967872 0.72043793
v 14.72657613 -30.19070998 0.72043793
v 16.21641956 -29.41777110 0.72043793
v 17.66591139 -28.57113592 0.72043793
v 19.07186501 -27.65259854 0.72043793
v 20.42897113 -26.66395567 0.72043793
v 21.73616711 -25.61060265 0.72043793
v 22.98814498 -24.49433617 0.72043793
v 24.18384340 -23.31515625 0.72043793
v 25.20538896 -22.64467664 0.87705528
v 25.20538896 -21.01611514 19.60062705
v 24.74240169 -21.57514673 19.60062705
v 23.63271836 -22.78308831 19.60062705
v 22.46463031 -23.93530458 19.60062705
v 21.24132283 -25.02820343 19.60062705
v 19.96385857 -26.05638951 19.60062705
v 18.63754682 -27.02166475 19.60062705
v 17.26451285 -27.92043053 19.60062705
v 15.84794067 -28.74729410 19.60062705
v 14.35809724 -29.52742241 19.59866932
v 14.35809724 -30.02174124 0.57752537
v 14.59171355 -29.91389185 0.57752537
v 16.06775440 -29.14814241 0.57752537
v 17.50450239 -28.30869667 0.57752537
v 18.89771216 -27.39914544 0.57752537
v 20.24207704 -26.41949132 0.57752537
v 21.53653048 -25.37692375 0.57752537
v 22.77788978 -24.26964603 0.57752537
v 23.96190569 -23.10125157 0.57752537
v 25.08645684 -21.87533379 0.57752537
v 25.20538896 -22.20068648 0.72043793
v 25.20538896 -20.51100954 19.70634334
v 24.49922685 -21.36303876 19.70634334
v 23.40122342 -22.56019488 19.70634334
v 22.24481657 -23.70162569 19.70634334
v 21.03212897 -24.78373908 19.70634334
v 19.76846859 -25.80114231 19.70634334
v 18.45490068 -26.75742619 19.70634334
v 17.09461056 -27.64540650 19.70634334
v 15.69184095 -28.46508063 19.70634334
v 14.35809724 -29.15892787 19.70634334
v 14.39101689 -29.50405478 19.60062705
v 14.35809724 -29.43394929 19.62607693
v 14.35809724 -29.67661694 0.45027401
v 14.45366696 -29.63167839 0.45027401
v 15.91696396 -28.87312099 0.45027401
v 17.33990937 -28.04086469 0.45027401
v 18.71931396 -27.14030221 0.45027401
v 20.05093500 -26.17143355 0.45027401
v 21.33370854 -25.13785213 0.45027401
v 22.56338663 -24.04135987 0.45027401
v 23.73572133 -22.88374826 0.45027401
v 25.20538896 -21.73153199 0.57752537
v 25.20538896 -21.97779305 0.65191858
v 24.84965391 -21.66861854 0.45027401
v 25.20538896 -21.24080658 0.45027401
v 25.20538896 -20.04724648 19.78660975
v 24.25286669 -21.14733476 19.79444068
v 23.16548184 -22.33370543 19.79444068
v 22.02075619 -23.46255407 19.79444068
v 20.82081113 -24.53388199 19.79444068
v 19.56989460 -25.54229647 19.79444068
v 18.26906793 -26.48779750 19.79444068
v 16.92258298 -27.36858837 19.79444068
v 15.53361855 -28.17927375 19.79444068
v 14.35809724 -29.12657149 19.71417427
v 14.35809724 -29.32250388 0.33868387
v 15.76192558 -28.59270684 0.33868387
v 17.17106581 -27.76943669 0.33868387
v 18.53772916 -26.87606364 0.33868387
v 19.85660635 -25.91618374 0.33868387
v 21.12663735 -24.89338778 0.33868387
v 22.34463554 -23.80768098 0.33868387
v 23.50529034 -22.66085483 0.33868387
v 24.60860305 -21.45830728 0.33868387
v 25.20538896 -20.73929571 0.33868387
v 25.20538896 -19.99871321 19.79444068
v 25.20538896 -19.85131539 19.81597509
v 24.00332123 -20.92983406 19.86883324
v 22.92761758 -22.10362256 19.86883324
v 21.79457184 -23.22168574 19.86883324
v 20.60736932 -24.28222820 19.86883324
v 19.36919533 -25.28165393 19.86883324
v 18.08111250 -26.21636949 19.86883324
v 16.74843013 -27.08637491 19.86883324
v 15.37433483 -27.88987085 19.86883324
v 14.35809724 -28.71673442 19.81010189
v 14.35809724 -28.79043333 19.79444068
v 14.35809724 -28.95580605 0.24275625
v 15.60582846 -28.30869667 0.24275625
v 17.00009957 -27.49261595 0.24275625
v 18.35296035 -26.61003098 0.24275625
v 19.66015503 -25.65913722 0.24275625
v 20.91638215 -24.64712672 0.24275625
v 22.12163649 -23.57040606 0.24275625
v 23.27167273 -22.43616469 0.24275625
v 24.36436556 -21.24440130 0.24275625
v 25.20538896 -20.23059409 0.24275625
v 25.20538896 -19.45585981 19.86883324
v 25.01955751 -19.70391758 19.86883324
v 24.75726821 -19.49899904 19.92560750
v 23.75165049 -20.71053535 19.92560750
v 22.68656671 -21.87174037 19.92560750
v 21.56626351 -22.97901809 19.92560750
v 20.39074220 -24.02697839 19.92560750
v 19.16531205 -25.01562126 19.92560750
v 17.89209574 -25.94134808 19.92560750
v 16.57321855 -26.80236474 19.92560750
v 15.21292582 -27.59687454 19.92560750
v 14.35809724 -28.04086469 19.92560750
v 14.35809724 -28.41654867 19.86883324
v 14.35809724 -28.90188135 0.23100985
v 14.35809724 -28.58551480 0.16248984
v 15.44654213 -28.01929377 0.16248984
v 16.82701066 -27.21400112 0.16248984
v 18.16606626 -26.33860298 0.16248984
v 19.45945837 -25.40029138 0.16248984
v 20.70294034 -24.39547293 0.16248984
v 21.89651348 -23.33133444 0.16248984
v 23.03486980 -22.20787853 0.16248984
v 24.11588144 -21.02869861 0.16248984
v 25.13636567 -19.79738940 0.16248984
v 25.20538896 -19.85131539 0.18402491
v 25.20538896 -19.30486597 19.88449510
v 25.20538896 -18.89862493 19.92560750
v 25.20538896 -18.33779402 19.96671924
v 24.49285492 -19.29048579 19.96671924
v 23.49785708 -20.48943862 19.96671924
v 22.44445320 -21.63806148 19.96671924
v 21.33583121 -22.73275703 19.96671924
v 20.17305374 -23.76993187 19.96671924
v 18.96142617 -24.74958599 19.96671924
v 17.70095371 -25.66452995 19.96671924
v 16.39587909 -26.51655786 19.96671924
v 15.05045548 -27.30207890 19.96671924
v 14.35809724 -27.66158469 19.96671924
v 14.35809724 -28.32487486 0.11746263
v 15.28619707 -27.72809416 0.09788530
v 16.65286042 -26.92999095 0.09788530
v 17.97704689 -26.06537826 0.09788530
v 19.25769776 -25.13605542 0.09788530
v 20.48843719 -24.14201982 0.09788530
v 21.66926779 -23.08866680 0.09788530
v 22.79594161 -21.97599635 0.09788530
v 23.86527333 -20.80939859 0.09788530
v 25.20538896 -19.70571559 0.16248984
v 24.87513900 -19.59067285 0.09788530
v 25.20538896 -17.88481772 19.98629658
v 24.22738031 -19.08017583 19.99021204
v 23.24300103 -20.26834190 19.99021204
v 22.20127836 -21.40438259 19.99021204
v 21.10433757 -22.48649597 19.99021204
v 19.95430134 -23.51288535 19.99021204
v 18.75541762 -24.48175400 19.99021204
v 17.50875033 -25.38770922 19.99021204
v 16.21854223 -26.22895427 19.99021204
v 14.88798514 -27.00728327 19.99021204
v 14.35809724 -27.44768001 19.98042338
v 14.35809724 -28.20983082 0.09788530
v 15.12372673 -27.43509524 0.05090035
v 16.47552356 -26.64598078 0.05090035
v 17.78696619 -25.78855753 0.05090035
v 19.05381188 -24.87002015 0.05090035
v 20.27074873 -23.88677001 0.05090035
v 21.43989813 -22.84420244 0.05090035
v 22.55382940 -21.74411546 0.05090035
v 23.61254126 -20.59010118 0.05090035
v 25.20538896 -19.15027872 0.09788530
v 24.61178835 -19.38395761 0.05090035
v 25.20538896 -18.87705401 0.07439250
v 25.20538896 -17.76618026 19.99021204
v 25.15017085 -17.84706861 19.99021204
v 23.96084435 -18.87166128 20.00000006
v 22.98814498 -20.04544847 20.00000006
v 21.95810482 -21.16890568 20.00000006
v 20.87284394 -22.24023230 20.00000006
v 19.73661289 -23.25403951 20.00000006
v 18.54940906 -24.21212532 20.00000006
v 17.31654696 -25.10909177 20.00000006
v 16.04014404 -25.94134808 20.00000006
v 14.72445086 -26.71069093 20.00000006
v 14.35809724 -27.14749165 19.99412686
v 14.35809724 -27.28230730 19.99021204
v 14.35809724 -27.83235013 0.05090035
v 14.35809724 -27.64001377 0.03328076
v 14.96125638 -27.14030221 0.01761889
v 16.29818670 -26.35837458 0.01761889
v 17.59582415 -25.51173940 0.01761889
v 18.84780332 -24.60218817 0.01761889
v 20.05305767 -23.62972349 0.01761889
v 21.20840319 -22.59794138 0.01761889
v 22.31065456 -21.50863856 0.01761889
v 23.35768651 -20.36720645 0.01761889
v 24.34631374 -19.17544436 0.01761889
v 25.20538896 -18.59124713 0.05090035
v 25.20538896 -17.15861410 20.00000006
v 24.87407766 -17.65113883 20.00000006
v 14.35809724 -26.89943127 20.00000006
v 14.35809724 -27.45307013 0.01761889
v 14.35809724 -27.17625201 0.00587314
v 14.84232426 -26.92459822 0.00587314
v 16.16969734 -26.14986263 0.00587314
v 17.45565489 -25.31041428 0.00587314
v 18.69913816 -24.40625839 0.00587314
v 19.89377394 -23.44278246 0.00587314
v 21.04062356 -22.41818979 0.00587314
v 22.13437904 -21.33967113 0.00587314
v 23.17291640 -20.20722646 0.00587314
v 25.20538896 -18.02682281 0.01761889
v 24.15411036 -19.02265381 0.00587314
v 25.07477563 -17.79314391 0.00587314
v 25.20538896 -16.27782583 20.00000006
v 14.35809724 -26.34039968 20.00000006
v 14.35809724 -27.08637491 0.00391541
v 14.72445086 -26.71069093 -0.00000006
v 16.04014404 -25.94134808 -0.00000006
v 17.31654696 -25.10909177 -0.00000006
v 18.54940906 -24.21212532 -0.00000006
v 19.73661289 -23.25403951 -0.00000006
v 20.87284394 -22.24023230 -0.00000006
v 21.95810482 -21.16890568 -0.00000006
v 22.98814498 -20.04544847 -0.00000006
v 23.96084435 -18.87166128 -0.00000006
v 25.20538896 -17.88481772 0.01370342
v 25.20538896 -17.59901084 0.00587314
v 24.87407766 -17.65113883 -0.00000006
v 25.20007968 -16.27782583 20.00000006
v 25.20538896 -16.27063509 19.88057964
v 14.35809724 -26.34039968 -0.00000006
v 14.35809724 -26.89943127 -0.00000006
v 25.20538896 -17.15861410 -0.00000006
v 25.20007968 -16.27782583 -0.00000006
v 25.20538896 -16.27782583 -0.00000006
f 1 2 3
f 1 3 4
f 1 4 11
f 1 11 23
f 1 23 22
f 1 22 39
f 1 39 38
f 1 38 37
f 1 37 57
f 1 57 81
f 1 81 107
f 1 107 142
f 1 142 141
f 1 141 172
f 1 172 171
f 1 171 198
f 1 198 197
f 1 197 224
f 1 224 244
f 1 244 264
f 1 264 266
f 1 266 286
f 1 286 285
f 1 285 308
f 1 308 328
f 1 328 350
f 1 350 349
f 1 349 370
f 1 370 369
f 1 369 388
f 1 388 390
f 1 390 411
f 1 411 434
f 1 434 433
f 1 433 455
f 1 455 457
f 1 457 479
f 1 479 478
f 1 478 500
f 1 500 521
f 1 521 544
f 1 544 542
f 1 542 567
f 1 567 589
f 1 589 588
f 1 588 612
f 1 612 611
f 1 611 637
f 1 637 659
f 1 659 684
f 1 684 683
f 1 683 699
f 1 699 714
f 1 714 730
f 1 730 731
f 1 731 715
f 1 715 701
f 1 701 700
f 1 700 686
f 1 686 685
f 1 685 660
f 1 660 638
f 1 638 614
f 1 614 613
f 1 613 590
f 1 590 568
f 1 568 545
f 1 545 522
f 1 522 502
f 1 502 501
f 1 501 480
f 1 480 459
f 1 459 458
f 1 458 435
f 1 435 412
f 1 412 392
f 1 392 371
f 1 371 352
f 1 352 351
f 1 351 330
f 1 330 329
f 1 329 310
f 1 310 309
f 1 309 287
f 1 287 267
f 1 267 246
f 1 246 245
f 1 245 225
f 1 225 200
f 1 200 199
f 1 199 173
f 1 173 143
f 1 143 110
f 1 110 109
f 1 109 108
f 1 108 82
f 1 82 59
f 1 59 58
f 1 58 40
f 1 40 24
f 1 24 12
f 1 12 5
f 1 5 6
f 1 6 2
f 2 7 8
f 2 8 9
f 2 9 3
f 2 6 7
f 3 9 10
f 3 10 4
f 4 10 11
f 5 12 13
f 5 13 6
f 6 14 8
f 6 8 7
f 6 13 15
f 6 15 14
f 8 16 18
f 8 18 9
f 8 14 17
f 8 17 16
f 9 18 19
f 9 19 10
f 10 19 20
f 10 20 21
f 10 21 22
f 10 22 23
f 10 23 11
f 12 24 13
f 13 24 25
f 13 25 26
f 13 26 15
f 14 27 16
f 14 16 17
f 14 15 28
f 14 28 27
f 15 26 28
f 16 27 29
f 16 29 30
f 16 30 31
f 16 31 18
f 18 31 32
f 18 32 33
f 18 33 19
f 19 33 34
f 19 34 20
f 20 34 35
f 20 35 36
f 20 36 21
f 21 36 37
f 21 37 38
f 21 38 39
f 21 39 22
f 24 40 41
f 24 41 25
f 25 42 26
f 25 41 42
f 26 43 28
f 26 42 43
f 27 44 30
f 27 30 29
f 27 28 45
f 27 45 44
f 28 43 45
f 30 44 46
f 30 46 47
f 30 47 48
f 30 48 31
f 31 48 32
f 32 48 49
f 32 49 50
f 32 50 51
f 32 51 34
f 32 34 33
f 34 51 52
f 34 52 53
f 34 53 35
f 35 53 54
f 35 54 55
f 35 55 56
f 35 56 36
f 36 56 57
f 36 57 37
f 40 58 41
f 41 58 59
f 41 59 60
f 41 60 42
f 42 61 43
f 42 60 62
f 42 62 63
f 42 63 61
f 43 61 64
f 43 64 65
f 43 65 45
f 44 66 47
f 44 47 46
f 44 45 67
f 44 67 66
f 45 65 67
f 47 66 68
f 47 68 69
f 47 69 70
f 47 70 48
f 48 70 71
f 48 71 49
f 49 71 72
f 49 72 50
f 50 72 73
f 50 73 74
f 50 74 52
f 50 52 51
f 52 74 75
f 52 75 76
f 52 76 54
f 52 54 53
f 54 76 77
f 54 77 78
f 54 78 79
f 54 79 55
f 55 79 80
f 55 80 56
f 56 80 57
f 57 80 81
f 59 82 60
f 60 82 83
f 60 83 62
f 61 63 64
f 62 83 84
f 62 84 85
f 62 85 63
f 63 85 86
f 63 86 64
f 64 86 87
f 64 87 88
f 64 88 65
f 65 89 67
f 65 88 89
f 66 90 93
f 66 93 68
f 66 67 91
f 66 91 90
f 67 89 92
f 67 92 91
f 68 93 69
f 69 93 94
f 69 94 70
f 70 94 95
f 70 95 96
f 70 96 71
f 71 96 72
f 72 96 97
f 72 97 98
f 72 98 73
f 73 98 99
f 73 99 100
f 73 100 75
f 73 75 74
f 75 100 101
f 75 101 102
f 75 102 77
f 75 77 76
f 77 102 103
f 77 103 104
f 77 104 78
f 78 104 79
f 79 104 105
f 79 105 106
f 79 106 80
f 80 106 107
f 80 107 81
f 82 108 83
f 83 108 109
f 83 109 110
f 83 110 111
f 83 111 112
f 83 112 84
f 84 112 85
f 85 112 113
f 85 113 114
f 85 114 115
f 85 115 86
f 86 115 87
f 87 115 116
f 87 116 117
f 87 117 118
f 87 118 119
f 87 119 88
f 88 119 92
f 88 92 89
f 90 91 120
f 90 120 121
f 90 121 123
f 90 123 93
f 91 92 122
f 91 122 120
f 92 119 122
f 93 123 94
f 94 123 124
f 94 124 125
f 94 125 95
f 95 125 96
f 96 125 126
f 96 126 127
f 96 127 97
f 97 127 98
f 98 127 128
f 98 128 129
f 98 129 99
f 99 129 130
f 99 130 131
f 99 131 132
f 99 132 101
f 99 101 100
f 101 132 133
f 101 133 134
f 101 134 135
f 101 135 102
f 102 135 103
f 103 135 136
f 103 136 137
f 103 137 104
f 104 137 138
f 104 138 139
f 104 139 105
f 105 139 106
f 106 139 140
f 106 140 141
f 106 141 142
f 106 142 107
f 110 143 144
f 110 144 111
f 111 144 112
f 112 144 145
f 112 145 146
f 112 146 113
f 113 146 147
f 113 147 114
f 114 148 116
f 114 116 115
f 114 147 148
f 116 148 149
f 116 149 117
f 117 149 150
f 117 150 151
f 117 151 118
f 118 151 119
f 119 151 152
f 119 152 122
f 120 153 121
f 120 122 153
f 121 154 159
f 121 159 123
f 121 153 155
f 121 155 154
f 122 152 156
f 122 156 157
f 122 157 158
f 122 158 153
f 123 159 124
f 124 159 154
f 124 154 155
f 124 155 153
f 124 153 158
f 124 158 157
f 124 157 156
f 124 156 186
f 124 186 185
f 124 185 184
f 124 184 183
f 124 183 213
f 124 213 210
f 124 210 209
f 124 209 208
f 124 208 212
f 124 212 233
f 124 233 255
f 124 255 276
f 124 276 275
f 124 275 296
f 124 296 319
f 124 319 318
f 124 318 340
f 124 340 339
f 124 339 338
f 124 338 360
f 124 360 379
f 124 379 400
f 124 400 421
f 124 421 444
f 124 444 468
f 124 468 489
f 124 489 511
f 124 511 532
f 124 532 555
f 124 555 554
f 124 554 557
f 124 557 577
f 124 577 599
f 124 599 624
f 124 624 647
f 124 647 669
f 124 669 671
f 124 671 696
f 124 696 710
f 124 710 725
f 124 725 726
f 124 726 732
f 124 732 734
f 124 734 729
f 124 729 713
f 124 713 697
f 124 697 672
f 124 672 649
f 124 649 627
f 124 627 626
f 124 626 625
f 124 625 600
f 124 600 579
f 124 579 578
f 124 578 558
f 124 558 533
f 124 533 512
f 124 512 490
f 124 490 469
f 124 469 447
f 124 447 446
f 124 446 445
f 124 445 423
f 124 423 422
f 124 422 402
f 124 402 401
f 124 401 380
f 124 380 361
f 124 361 341
f 124 341 320
f 124 320 300
f 124 300 299
f 124 299 298
f 124 298 297
f 124 297 277
f 124 277 257
f 124 257 256
f 124 256 235
f 124 235 234
f 124 234 214
f 124 214 188
f 124 188 187
f 124 187 163
f 124 163 162
f 124 162 161
f 124 161 160
f 124 160 131
f 124 131 130
f 124 130 129
f 124 129 128
f 124 128 127
f 124 127 126
f 124 126 125
f 131 160 132
f 132 160 161
f 132 161 133
f 133 162 163
f 133 163 164
f 133 164 165
f 133 165 134
f 133 161 162
f 134 165 135
f 135 165 136
f 136 165 166
f 136 166 137
f 137 166 167
f 137 167 168
f 137 168 138
f 138 168 169
f 138 169 139
f 139 169 140
f 140 169 170
f 140 170 171
f 140 171 172
f 140 172 141
f 143 173 144
f 144 173 174
f 144 174 145
f 145 174 175
f 145 175 146
f 146 175 176
f 146 176 177
f 146 177 147
f 147 177 178
f 147 178 179
f 147 179 148
f 148 179 149
f 149 179 180
f 149 180 181
f 149 181 182
f 149 182 150
f 150 183 184
f 150 184 151
f 150 182 183
f 151 185 186
f 151 186 152
f 151 184 185
f 152 186 156
f 163 187 164
f 164 187 188
f 164 188 189
f 164 189 165
f 165 189 190
f 165 190 166
f 166 190 191
f 166 191 192
f 166 192 193
f 166 193 167
f 167 193 194
f 167 194 168
f 168 194 169
f 169 194 195
f 169 195 170
f 170 195 196
f 170 196 197
f 170 197 198
f 170 198 171
f 173 199 174
f 174 199 200
f 174 200 201
f 174 201 202
f 174 202 175
f 175 203 176
f 175 202 203
f 176 203 177
f 177 203 204
f 177 204 205
f 177 205 178
f 178 206 180
f 178 180 179
f 178 205 207
f 178 207 206
f 180 206 181
f 181 208 209
f 181 209 210
f 181 210 182
f 181 206 211
f 181 211 212
f 181 212 208
f 182 210 213
f 182 213 183
f 188 214 215
f 188 215 189
f 189 215 216
f 189 216 217
f 189 217 190
f 190 217 191
f 191 217 218
f 191 218 219
f 191 219 220
f 191 220 192
f 192 220 193
f 193 220 221
f 193 221 194
f 194 221 222
f 194 222 223
f 194 223 195
f 195 223 224
f 195 224 196
f 196 224 197
f 200 225 226
f 200 226 201
f 201 226 202
f 202 226 227
f 202 227 203
f 203 227 228
f 203 228 229
f 203 229 204
f 204 229 205
f 205 229 230
f 205 230 231
f 205 231 207
f 206 207 211
f 207 231 232
f 207 232 211
f 211 232 233
f 211 233 212
f 214 234 216
f 214 216 215
f 216 218 217
f 216 234 235
f 216 235 236
f 216 236 218
f 218 236 237
f 218 237 238
f 218 238 239
f 218 239 219
f 219 239 220
f 220 239 240
f 220 240 221
f 221 240 241
f 221 241 242
f 221 242 222
f 222 242 243
f 222 243 223
f 223 243 244
f 223 244 224
f 225 245 226
f 226 245 246
f 226 246 247
f 226 247 227
f 227 247 228
f 228 247 248
f 228 248 229
f 229 248 249
f 229 249 250
f 229 250 230
f 230 250 231
f 231 250 251
f 231 251 252
f 231 252 253
f 231 253 232
f 232 253 254
f 232 254 233
f 233 254 255
f 235 256 237
f 235 237 236
f 237 256 257
f 237 257 258
f 237 258 259
f 237 259 238
f 238 259 239
f 239 259 260
f 239 260 261
f 239 261 240
f 240 261 262
f 240 262 241
f 241 262 242
f 242 262 263
f 242 263 243
f 243 264 244
f 243 263 265
f 243 265 266
f 243 266 264
f 246 267 247
f 247 267 268
f 247 268 269
f 247 269 248
f 248 269 270
f 248 270 249
f 249 270 250
f 250 270 271
f 250 271 272
f 250 272 251
f 251 272 273
f 251 273 252
f 252 273 274
f 252 274 254
f 252 254 253
f 254 274 275
f 254 275 276
f 254 276 255
f 257 277 258
f 258 277 278
f 258 278 259
f 259 278 279
f 259 279 260
f 260 279 280
f 260 280 281
f 260 281 261
f 261 281 282
f 261 282 262
f 262 282 283
f 262 283 263
f 263 283 265
f 265 283 284
f 265 284 285
f 265 285 286
f 265 286 266
f 267 287 288
f 267 288 268
f 268 288 269
f 269 288 289
f 269 289 270
f 270 289 290
f 270 290 271
f 271 290 291
f 271 291 292
f 271 292 272
f 272 292 273
f 273 292 293
f 273 293 294
f 273 294 295
f 273 295 274
f 274 295 296
f 274 296 275
f 277 297 278
f 278 298 299
f 278 299 300
f 278 300 301
f 278 301 302
f 278 302 279
f 278 297 298
f 279 302 280
f 280 302 303
f 280 303 281
f 281 303 304
f 281 304 305
f 281 305 282
f 282 305 306
f 282 306 283
f 283 306 284
f 284 306 307
f 284 307 308
f 284 308 285
f 287 309 288
f 288 309 310
f 288 310 311
f 288 311 289
f 289 311 312
f 289 312 313
f 289 313 290
f 290 313 291
f 291 313 314
f 291 314 292
f 292 314 315
f 292 315 293
f 293 315 316
f 293 316 317
f 293 317 294
f 294 318 319
f 294 319 296
f 294 296 295
f 294 317 318
f 300 320 321
f 300 321 301
f 301 321 322
f 301 322 302
f 302 322 323
f 302 323 303
f 303 323 304
f 304 323 324
f 304 324 305
f 305 324 325
f 305 325 326
f 305 326 306
f 306 326 327
f 306 327 307
f 307 327 328
f 307 328 308
f 310 329 311
f 311 329 330
f 311 330 331
f 311 331 332
f 311 332 312
f 312 332 313
f 313 332 333
f 313 333 334
f 313 334 314
f 314 334 315
f 315 334 335
f 315 335 336
f 315 336 316
f 316 336 317
f 317 336 337
f 317 337 338
f 317 338 339
f 317 339 340
f 317 340 318
f 320 341 321
f 321 341 342
f 321 342 322
f 322 342 343
f 322 343 323
f 323 343 344
f 323 344 324
f 324 344 345
f 324 345 346
f 324 346 325
f 325 346 326
f 326 346 347
f 326 347 327
f 327 347 348
f 327 348 349
f 327 349 350
f 327 350 328
f 330 351 331
f 331 351 352
f 331 352 353
f 331 353 332
f 332 353 354
f 332 354 355
f 332 355 333
f 333 355 334
f 334 355 356
f 334 356 357
f 334 357 335
f 335 357 358
f 335 358 336
f 336 358 337
f 337 358 359
f 337 359 360
f 337 360 338
f 341 361 342
f 342 361 362
f 342 362 343
f 343 362 363
f 343 363 364
f 343 364 344
f 344 364 365
f 344 365 345
f 345 365 346
f 346 365 366
f 346 366 367
f 346 367 347
f 347 367 368
f 347 368 348
f 348 368 369
f 348 369 370
f 348 370 349
f 352 371 353
f 353 371 372
f 353 372 354
f 354 372 373
f 354 373 355
f 355 373 374
f 355 374 375
f 355 375 356
f 356 375 376
f 356 376 357
f 357 376 358
f 358 376 377
f 358 377 378
f 358 378 359
f 359 378 360
f 360 378 379
f 361 380 381
f 361 381 362
f 362 381 382
f 362 382 363
f 363 382 383
f 363 383 364
f 364 383 384
f 364 384 385
f 364 385 365
f 365 385 366
f 366 385 386
f 366 386 367
f 367 386 387
f 367 387 368
f 368 388 369
f 368 387 389
f 368 389 390
f 368 390 388
f 371 391 372
f 371 392 391
f 372 391 373
f 373 391 393
f 373 393 394
f 373 394 374
f 374 394 395
f 374 395 375
f 375 395 376
f 376 395 396
f 376 396 377
f 377 396 397
f 377 397 398
f 377 398 378
f 378 398 379
f 379 398 399
f 379 399 400
f 380 401 381
f 381 401 402
f 381 402 403
f 381 403 382
f 382 403 404
f 382 404 405
f 382 405 383
f 383 405 384
f 384 405 406
f 384 406 385
f 385 406 407
f 385 407 408
f 385 408 386
f 386 408 387
f 387 408 409
f 387 409 410
f 387 410 389
f 389 411 390
f 389 410 411
f 391 392 412
f 391 412 413
f 391 413 414
f 391 414 393
f 393 414 415
f 393 415 394
f 394 415 416
f 394 416 395
f 395 416 396
f 396 416 417
f 396 417 418
f 396 418 397
f 397 418 419
f 397 419 398
f 398 419 399
f 399 419 420
f 399 420 421
f 399 421 400
f 402 422 403
f 403 422 423
f 403 423 424
f 403 424 404
f 404 424 425
f 404 425 426
f 404 426 427
f 404 427 405
f 405 427 428
f 405 428 406
f 406 428 407
f 407 428 429
f 407 429 430
f 407 430 408
f 408 430 431
f 408 431 409
f 409 431 410
f 410 431 432
f 410 432 433
f 410 433 434
f 410 434 411
f 412 435 413
f 413 435 436
f 413 436 437
f 413 437 414
f 414 437 415
f 415 437 438
f 415 438 439
f 415 439 416
f 416 439 440
f 416 440 417
f 417 440 418
f 418 440 441
f 418 441 442
f 418 442 419
f 419 442 420
f 420 442 443
f 420 443 421
f 421 443 444
f 423 445 424
f 424 445 425
f 425 445 446
f 425 446 447
f 425 447 448
f 425 448 426
f 426 448 449
f 426 449 427
f 427 449 450
f 427 450 451
f 427 451 428
f 428 451 452
f 428 452 429
f 429 452 430
f 430 452 453
f 430 453 454
f 430 454 431
f 431 454 432
f 432 455 433
f 432 454 456
f 432 456 457
f 432 457 455
f 435 458 436
f 436 458 459
f 436 459 460
f 436 460 437
f 437 460 461
f 437 461 462
f 437 462 438
f 438 462 439
f 439 462 463
f 439 463 464
f 439 464 440
f 440 464 465
f 440 465 441
f 441 465 442
f 442 465 466
f 442 466 443
f 443 466 467
f 443 467 468
f 443 468 444
f 447 469 470
f 447 470 448
f 448 470 449
f 449 470 471
f 449 471 450
f 450 471 472
f 450 472 451
f 451 472 473
f 451 473 474
f 451 474 452
f 452 474 453
f 453 474 475
f 453 475 476
f 453 476 454
f 454 476 456
f 456 476 477
f 456 477 478
f 456 478 479
f 456 479 457
f 459 480 460
f 460 480 481
f 460 481 482
f 460 482 461
f 461 482 462
f 462 482 483
f 462 483 463
f 463 483 484
f 463 484 485
f 463 485 464
f 464 485 465
f 465 485 486
f 465 486 487
f 465 487 466
f 466 487 488
f 466 488 467
f 467 488 468
f 468 488 489
f 469 490 491
f 469 491 470
f 470 491 492
f 470 492 471
f 471 492 493
f 471 493 494
f 471 494 472
f 472 494 473
f 473 494 495
f 473 495 474
f 474 495 496
f 474 496 497
f 474 497 475
f 475 497 476
f 476 497 498
f 476 498 499
f 476 499 477
f 477 499 478
f 478 499 500
f 480 501 481
f 481 501 502
f 481 502 503
f 481 503 504
f 481 504 482
f 482 504 483
f 483 504 505
f 483 505 506
f 483 506 484
f 484 506 485
f 485 506 507
f 485 507 508
f 485 508 486
f 486 508 487
f 487 508 509
f 487 509 510
f 487 510 488
f 488 511 489
f 488 510 511
f 490 512 513
f 490 513 491
f 491 513 492
f 492 513 514
f 492 514 515
f 492 515 493
f 493 515 494
f 494 515 516
f 494 516 517
f 494 517 495
f 495 517 496
f 496 517 518
f 496 518 519
f 496 519 497
f 497 519 520
f 497 520 498
f 498 520 521
f 498 521 499
f 499 521 500
f 502 522 503
f 503 522 523
f 503 523 524
f 503 524 504
f 504 524 505
f 505 524 525
f 505 525 526
f 505 526 506
f 506 526 507
f 507 526 527
f 507 527 528
f 507 528 508
f 508 528 509
f 509 528 529
f 509 529 510
f 510 529 530
f 510 530 531
f 510 531 532
f 510 532 511
f 512 533 513
f 513 533 534
f 513 534 535
f 513 535 514
f 514 535 536
f 514 536 515
f 515 536 516
f 516 536 537
f 516 537 538
f 516 538 517
f 517 538 539
f 517 539 518
f 518 539 519
f 519 539 540
f 519 540 541
f 519 541 520
f 520 541 542
f 520 542 543
f 520 543 521
f 521 543 544
f 522 545 523
f 523 545 546
f 523 546 547
f 523 547 524
f 524 547 525
f 525 547 548
f 525 548 526
f 526 548 549
f 526 549 550
f 526 550 527
f 527 550 528
f 528 550 551
f 528 551 552
f 528 552 529
f 529 552 530
f 530 552 553
f 530 553 531
f 531 554 555
f 531 555 532
f 531 553 556
f 531 556 557
f 531 557 554
f 533 558 534
f 534 558 559
f 534 559 560
f 534 560 535
f 535 560 536
f 536 560 561
f 536 561 562
f 536 562 537
f 537 562 563
f 537 563 538
f 538 563 539
f 539 563 564
f 539 564 565
f 539 565 540
f 540 565 541
f 541 565 566
f 541 566 567
f 541 567 542
f 542 544 543
f 545 568 546
f 546 568 547
f 547 568 569
f 547 569 570
f 547 570 548
f 548 570 549
f 549 570 571
f 549 571 550
f 550 571 572
f 550 572 573
f 550 573 551
f 551 573 574
f 551 574 552
f 552 574 553
f 553 574 575
f 553 575 576
f 553 576 556
f 556 576 557
f 557 576 577
f 558 578 559
f 559 578 579
f 559 579 580
f 559 580 581
f 559 581 560
f 560 581 582
f 560 582 561
f 561 582 583
f 561 583 562
f 562 583 584
f 562 584 563
f 563 584 564
f 564 584 585
f 564 585 565
f 565 585 586
f 565 586 587
f 565 587 566
f 566 588 589
f 566 589 567
f 566 587 588
f 568 590 591
f 568 591 569
f 569 591 570
f 570 591 592
f 570 592 593
f 570 593 571
f 571 593 594
f 571 594 572
f 572 594 573
f 573 594 595
f 573 595 574
f 574 595 596
f 574 596 597
f 574 597 575
f 575 597 576
f 576 597 598
f 576 598 577
f 577 598 599
f 579 600 601
f 579 601 580
f 580 601 602
f 580 602 603
f 580 603 581
f 581 603 604
f 581 604 605
f 581 605 582
f 582 605 583
f 583 605 606
f 583 606 584
f 584 606 607
f 584 607 608
f 584 608 585
f 585 608 609
f 585 609 586
f 586 609 587
f 587 609 610
f 587 610 611
f 587 611 612
f 587 612 588
f 590 613 591
f 591 613 614
f 591 614 615
f 591 615 616
f 591 616 592
f 592 616 593
f 593 616 617
f 593 617 618
f 593 618 594
f 594 618 595
f 595 618 619
f 595 619 620
f 595 620 596
f 596 620 597
f 597 620 621
f 597 621 598
f 598 621 622
f 598 622 599
f 599 622 623
f 599 623 624
f 600 625 601
f 601 625 602
f 602 625 626
f 602 626 627
f 602 627 628
f 602 628 629
f 602 629 603
f 603 629 630
f 603 630 604
f 604 630 605
f 605 630 631
f 605 631 632
f 605 632 606
f 606 632 633
f 606 633 607
f 607 633 608
f 608 633 634
f 608 634 635
f 608 635 609
f 609 635 610
f 610 635 636
f 610 636 611
f 611 636 637
f 614 638 615
f 615 638 639
f 615 639 616
f 616 639 640
f 616 640 641
f 616 641 617
f 617 641 618
f 618 641 642
f 618 642 643
f 618 643 619
f 619 643 620
f 620 643 644
f 620 644 621
f 621 644 645
f 621 645 622
f 622 645 646
f 622 646 623
f 623 647 624
f 623 646 648
f 623 648 647
f 627 649 628
f 628 649 650
f 628 650 651
f 628 651 629
f 629 651 652
f 629 652 630
f 630 652 631
f 631 652 653
f 631 653 654
f 631 654 632
f 632 654 633
f 633 654 655
f 633 655 656
f 633 656 634
f 634 656 635
f 635 656 657
f 635 657 658
f 635 658 636
f 636 658 659
f 636 659 637
f 638 660 639
f 639 660 661
f 639 661 662
f 639 662 640
f 640 662 641
f 641 662 663
f 641 663 664
f 641 664 642
f 642 664 643
f 643 664 665
f 643 665 666
f 643 666 644
f 644 666 645
f 645 666 667
f 645 667 668
f 645 668 646
f 646 668 648
f 647 648 669
f 648 668 670
f 648 670 671
f 648 671 669
f 649 672 673
f 649 673 650
f 650 673 674
f 650 674 651
f 651 674 675
f 651 675 676
f 651 676 652
f 652 676 677
f 652 677 653
f 653 677 654
f 654 677 678
f 654 678 655
f 655 678 679
f 655 679 680
f 655 680 656
f 656 680 681
f 656 681 657
f 657 681 658
f 658 681 682
f 658 682 683
f 658 683 684
f 658 684 659
f 660 685 661
f 661 685 686
f 661 686 687
f 661 687 662
f 662 687 688
f 662 688 689
f 662 689 663
f 663 689 664
f 664 689 690
f 664 690 691
f 664 691 665
f 665 691 666
f 666 691 692
f 666 692 667
f 667 692 693
f 667 693 668
f 668 693 694
f 668 694 695
f 668 695 670
f 670 696 671
f 670 695 696
f 672 697 698
f 672 698 673
f 673 698 674
f 674 698 697
f 674 697 713
f 674 713 728
f 674 728 714
f 674 714 699
f 674 699 682
f 674 682 681
f 674 681 680
f 674 680 679
f 674 679 678
f 674 678 677
f 674 677 676
f 674 676 675
f 682 699 683
f 686 700 687
f 687 700 701
f 687 701 702
f 687 702 703
f 687 703 688
f 688 703 689
f 689 703 704
f 689 704 690
f 690 704 705
f 690 705 706
f 690 706 691
f 691 706 692
f 692 706 707
f 692 707 708
f 692 708 693
f 693 708 694
f 694 708 709
f 694 709 695
f 695 710 696
f 695 709 711
f 695 711 712
f 695 712 710
f 701 715 702
f 702 715 716
f 702 716 703
f 703 716 717
f 703 717 718
f 703 718 704
f 704 718 705
f 705 718 719
f 705 719 706
f 706 719 720
f 706 720 721
f 706 721 707
f 707 721 708
f 708 721 722
f 708 722 709
f 709 722 723
f 709 723 724
f 709 724 711
f 710 712 725
f 711 724 712
f 712 726 725
f 712 724 727
f 712 727 726
f 713 729 728
f 714 728 729
f 714 729 730
f 715 731 716
f 716 731 730
f 716 730 733
f 716 733 734
f 716 734 732
f 716 732 727
f 716 727 724
f 716 724 723
f 716 723 722
f 716 722 721
f 716 721 720
f 716 720 719
f 716 719 718
f 716 718 717
f 726 727 732
f 729 733 730
f 729 734 733

