# https://github.com/mikedh/trimesh
v 2.26403654 30.40741012 20.00000006
v 1.64215408 30.45630194 20.00000006
v 2.26403654 29.90533859 20.00000006
v 2.26403654 30.67255095 19.99216912
v 1.99212611 30.77503368 19.99021204
v 0.11736743 30.50049208 20.00000006
v 0.46733946 30.83520904 19.99021204
v -11.02579951 27.89046280 20.00000006
v 2.26403654 29.90533859 -0.00000006
v 2.26403654 31.08906373 19.96671924
v 2.01294340 31.11163080 19.96671924
v 0.47254443 31.17368370 19.96671924
v -1.40611798 30.46852425 20.00000006
v -1.05744459 30.82110398 19.99021204
v -11.02579951 28.42732370 20.00000006
v -11.02579951 27.89046280 -0.00000006
v 2.26403654 30.40741012 -0.00000006
v 2.26403654 31.42660223 19.92560750
v 2.03505933 31.44728653 19.92560750
v -1.06785454 31.15863986 19.96671924
v 0.47774941 31.50933944 19.92560750
v -1.07956313 31.49523698 19.92560750
v -2.92699829 30.35945967 20.00000006
v -2.57963136 30.73084354 19.99021204
v -2.60694966 31.06837943 19.96671924
v -10.34406766 28.69246453 20.00000006
v -11.02579951 28.65673639 19.99412686
v -11.02579951 28.42732370 -0.00000006
v 2.26403654 30.60015589 0.00391541
v 1.64215408 30.45630194 -0.00000006
v 2.26403654 31.47549145 19.91777657
v 2.05717787 31.78106211 19.86883324
v 0.48295178 31.84405640 19.86883324
v -2.63557181 31.40309639 19.92560750
v -1.09127171 31.82901256 19.86883324
v -4.43877250 30.17517850 20.00000006
v -4.09530669 30.56630790 19.99021204
v -4.13954377 30.90102226 19.96671924
v -4.18507949 31.23479784 19.92560750
v -8.89734000 29.17385176 20.00000006
v -10.02011791 29.16538976 19.99021204
v -11.02579951 29.15316746 19.96671924
v -10.34406766 28.69246453 -0.00000006
v -11.02579951 28.60032395 0.00391541
v 0.46604082 30.74212708 0.00587314
v 1.98562250 30.68195432 0.00587314
v 2.00123221 30.92640825 0.01761889
v 2.26403654 30.79289906 0.01370342
v 0.11736743 30.50049208 -0.00000006
v 2.26403654 31.76225796 19.86883324
v 2.07799256 32.11107478 19.79444068
v 0.48815675 32.17406906 19.79444068
v -1.10298030 32.15902783 19.79444068
v -2.66289532 31.73593059 19.86883324
v -2.69151747 32.06594586 19.79444068
v -5.94144583 29.91568074 20.00000006
v -5.59927866 30.32655306 19.99021204
v -5.66042408 30.65844849 19.96671924
v -5.72157472 30.98940253 19.92560750
v -4.22931135 31.56575188 19.86883324
v -7.42849901 29.58190516 20.00000006
v -8.56688663 29.62515391 19.99021204
v -10.13070017 29.48506288 19.96671924
v -10.23998901 29.80285585 19.92560750
v -11.02579951 29.51138765 19.92560750
v -8.89734000 29.17385176 -0.00000006
v -9.99019191 29.07795087 0.00587314
v -11.02579951 28.74135375 0.01174569
v -10.06955475 29.30924371 0.01761889
v -1.05354086 30.72802462 0.00587314
v -1.06264956 30.97341992 0.01761889
v 0.46994194 30.98752238 0.01761889
v 0.47514692 31.32505827 0.05090035
v 2.02335075 31.26300536 0.05090035
v 2.26403654 31.24137968 0.05090035
v -1.40611798 30.46852425 -0.00000006
v 2.26403654 32.09415078 19.79444068
v 2.26403654 32.38749914 19.71613200
v 2.09880985 32.43732974 19.70634334
v 0.49336173 32.50126280 19.70634334
v -1.11338764 32.48622157 19.70634334
v -2.71883577 32.39125945 19.70634334
v -4.31648165 32.21732043 19.70634334
v -4.27224457 31.89294562 19.79444068
v -7.09153682 30.01252301 19.99021204
v -7.16960102 30.34159690 19.96671924
v -7.24636137 30.66879064 19.92560750
v -5.78272015 31.31753765 19.86883324
v -7.32311651 30.99410422 19.86883324
v -5.84256694 31.64285123 19.79444068
v -8.66056055 29.94952872 19.96671924
v -8.75422925 30.27295955 19.92560750
v -10.34796879 30.11876605 19.86883324
v -11.02579951 29.86773029 19.86883324
v -7.42849901 29.58190516 -0.00000006
v -8.54086697 29.53583486 0.00587314
v -8.60851601 29.77182679 0.01761889
v -11.02579951 29.31394279 0.05090035
v -10.18014222 29.62891422 0.05090035
v -2.57182389 30.63870296 0.00587314
v -2.59133995 30.88315949 0.01761889
v -2.61996210 31.21881522 0.05090035
v -1.07305691 31.31001443 0.05090035
v -1.08476549 31.64567016 0.09788530
v 0.48035190 31.66071400 0.09788530
v 2.04546928 31.59771971 0.09788530
v 2.26403654 31.29309043 0.05677355
v -2.92699829 30.35945967 -0.00000006
v 2.26403654 32.42228590 19.70634334
v 2.11962715 32.75794163 19.60062705
v 0.49856409 32.82281607 19.60062705
v -1.12509884 32.80683346 19.60062705
v -2.74485543 32.71092996 19.60062705
v -4.35941488 32.53699094 19.60062705
v -5.90241373 31.96440190 19.70634334
v -8.84660453 30.59357405 19.86883324
v -7.39987686 31.31565750 19.79444068
v -8.93897459 30.91136441 19.79444068
v -10.45595378 30.43185733 19.79444068
v -11.02579951 30.07363454 19.82576376
v -5.94144583 29.91568074 -0.00000006
v -7.07072213 29.92226258 0.00587314
v -8.70218992 30.09526022 0.05090035
v -7.20472679 30.48920855 0.05090035
v -7.12666780 30.16107604 0.01761889
v -11.02579951 29.67216559 0.09788530
v -10.28812200 29.94576581 0.09788530
v -8.79586384 30.41775227 0.09788530
v -4.08229947 30.47416732 0.00587314
v -4.11482275 30.71674109 0.01761889
v -4.16035846 31.05145544 0.05090035
v -2.64858425 31.55352958 0.09788530
v -1.09647669 31.97756559 0.16248984
v 0.48555426 31.99260943 0.16248984
v 2.06628397 31.92961514 0.16248984
v 2.26403654 31.57797419 0.09788530
v -4.43877250 30.17517850 -0.00000006
v 2.26403654 32.74477795 19.60062705
v 2.26403654 32.77298547 19.59083838
v 2.14044183 33.07385445 19.48120598
v 0.50246783 33.13966766 19.48120598
v -1.13550618 33.12368505 19.48120598
v -2.77217895 33.02684277 19.48120598
v -4.39974561 32.85008222 19.48120598
v -6.01820096 32.59340599 19.48120598
v -5.96095666 32.28125349 19.60062705
v -7.47533858 31.63344786 19.70634334
v -7.54949644 31.94747791 19.60062705
v -9.02874738 31.22539446 19.70634334
v -10.56133628 30.74118569 19.70634334
v -11.02579951 30.22031002 19.79444068
v -11.02579951 30.56912683 19.70634334
v -5.58236510 30.23441248 0.00587314
v -5.62659696 30.47604747 0.01761889
v -7.28148714 30.81546351 0.09788530
v -5.74889302 31.13795556 0.09788530
v -5.68774760 30.80794290 0.05090035
v -11.02579951 30.02662547 0.16248984
v -10.39610699 30.25979847 0.16248984
v -8.88823390 30.73742539 0.16248984
v -4.20459554 31.38335086 0.09788530
v -4.24882740 31.71336614 0.16248984
v -2.67590255 31.88448362 0.16248984
v -1.10818528 32.30663948 0.24275625
v 0.49075924 32.32168332 0.24275625
v 2.08710127 32.25868903 0.24275625
v 2.26403654 31.95217960 0.17227851
v 2.26403654 31.91174977 0.16248984
v 2.26403654 33.06257091 19.48120598
v 2.26403654 33.37472081 19.34612369
v 2.15995789 33.38412419 19.34612369
v 0.50767280 33.44993740 19.34612369
v -1.14591353 33.43395479 19.34612369
v -2.79819861 33.33617114 19.34612369
v -4.44137499 33.15753303 19.34612369
v -6.07414663 32.89709389 19.34612369
v -7.69260719 32.55767785 19.34612369
v -7.62235045 32.25586750 19.48120598
v -9.20698389 31.83935471 19.48120598
v -9.11851496 31.53472543 19.60062705
v -10.66671878 31.04581498 19.60062705
v -11.02579951 30.91230579 19.60062705
v -7.35824749 31.13889694 0.16248984
v -5.81004366 31.46421053 0.16248984
v -11.02579951 30.37732504 0.24275625
v -10.50409198 30.57194836 0.24275625
v -8.97930533 31.05333820 0.24275625
v -7.43370399 31.45950884 0.24275625
v -5.86989045 31.78858273 0.24275625
v -4.29176062 32.03961849 0.24275625
v -2.70322606 32.21261874 0.24275625
v -1.11859262 32.63195306 0.33868387
v 0.49596161 32.64699690 0.33868387
v 2.26403654 32.24270642 0.24275625
v 2.10921720 32.58212246 0.33868387
v 2.26403654 33.67935009 19.19538019
v 2.18077257 33.68687071 19.19538019
v 0.51287517 33.75362791 19.19538019
v -1.15632087 33.73764269 19.19538019
v -2.82291964 33.63892026 19.19538019
v -4.48171094 33.45839940 19.19538019
v -6.13009229 33.19608010 19.19538019
v -7.76285872 32.85196237 19.19538019
v -9.37741816 32.42980652 19.19538019
v -9.29285035 32.13740215 19.34612369
v -10.87097496 31.63908832 19.34612369
v -10.76949880 31.34574257 19.48120598
v -11.02579951 31.25078045 19.48120598
v -11.02579951 30.72426170 0.33868387
v -10.60947448 30.87845780 0.33868387
v -9.07037675 31.36548810 0.33868387
v -7.50786185 31.77541904 0.33868387
v -5.92843339 32.10731447 0.33868387
v -4.33599770 32.36117177 0.33868387
v -2.73054436 32.53605217 0.33868387
v -2.75656924 32.85384253 0.45027401
v -1.13030121 32.94974603 0.45027401
v 0.49986534 32.96572864 0.45027401
v 2.12873325 32.90085420 0.45027401
v 2.26403654 32.56802000 0.33868387
v 2.26403654 32.88863190 0.45027401
v 2.26403654 33.69345255 19.18754926
v 2.26403654 33.97645615 19.02897418
v 2.19898738 33.98209922 19.02897418
v 0.51677890 34.04885381 19.02897418
v -1.16673082 34.03286859 19.02897418
v -2.84763545 33.93414617 19.02897418
v -4.52073783 33.75174515 19.02897418
v -6.18343025 33.48660693 19.02897418
v -7.83051297 33.14060904 19.02897418
v -9.45937827 32.71281272 19.02897418
v -11.02579951 32.08945170 19.09945192
v -10.96855521 31.92585483 19.19538019
v -11.02579951 31.89294562 19.20125339
v -11.02579951 31.58173710 19.34612369
v -11.02579951 31.06556050 0.45027401
v -10.71355313 31.18120693 0.45027401
v -9.15884569 31.67293631 0.45027401
v -7.58201972 32.08663017 0.45027401
v -5.98698154 32.42228590 0.45027401
v -4.37762707 32.67896473 0.45027401
v -2.78388754 33.16693380 0.57752537
v -1.14071116 33.26377608 0.57752537
v 0.50507031 33.27975869 0.57752537
v 2.14954793 33.21394548 0.57752537
v 2.26403654 33.20360333 0.57752537
v 2.26403654 33.98679830 19.02310098
v 2.21850343 34.26886313 18.85082241
v 0.52068263 34.33655910 18.85082241
v -1.17713816 34.32057388 18.85082241
v -2.87235647 34.22091268 18.85082241
v -4.55846608 34.03663151 18.85082241
v -6.23547480 33.76961052 18.85082241
v -7.89686337 33.42079110 18.85082241
v -9.54004496 32.98923448 18.85082241
v -11.02579951 32.22672120 19.02505871
v -11.02579951 31.90517053 19.19538019
v -11.02579951 31.40027486 0.57752537
v -10.81503451 31.47831298 0.57752537
v -9.24601600 31.97474405 0.57752537
v -7.65357509 32.39219822 0.57752537
v -6.04422584 32.72973672 0.57752537
v -4.41795781 32.98923448 0.57752537
v -2.80860856 33.47344324 0.72043793
v -1.15111850 33.57122429 0.72043793
v 0.51027268 33.58720951 0.72043793
v 2.16906399 33.52045491 0.72043793
v 2.26403654 33.51199292 0.72043793
v 2.26403654 34.27262343 18.84494921
v 2.23541439 34.54716504 18.65896652
v 0.52588500 34.61580239 18.65896652
v -1.18624687 34.59887840 18.65896652
v -2.89577365 34.49827582 18.65896652
v -4.59619954 34.31305327 18.65896652
v -6.28621027 34.04415213 18.65896652
v -7.96191514 33.69157240 18.65896652
v -9.61680010 33.25719424 18.65896652
v -11.02579951 32.54545294 18.83516055
v -11.02579951 32.52006695 18.85082241
v -11.02579951 31.72840998 0.72043793
v -10.91521204 31.76883981 0.72043793
v -9.33188245 32.26997256 0.72043793
v -7.72513047 32.69118704 0.72043793
v -6.09886765 33.03248324 0.72043793
v -4.45959240 33.29386376 0.72043793
v -2.83462822 33.77243206 0.87705528
v -1.16152585 33.87115449 0.87705528
v 0.51417641 33.88713710 0.87705528
v 2.18858004 33.82038251 0.87705528
v 2.26403654 33.81380066 0.87705528
v 2.26403654 34.54904519 18.65505105
v 2.25362919 34.81606618 18.45144875
v 0.52978873 34.88470092 18.45144875
v -1.19535297 34.86777693 18.45144875
v -2.91789219 34.76623558 18.45144875
v -4.63132530 34.58007425 18.45144875
v -6.33565232 34.30835158 18.45144875
v -8.02306056 33.95295292 18.45144875
v -11.02579951 32.81153515 18.65896652
v -9.69226182 33.51481184 18.45144875
v -11.02579951 33.09359737 18.45144875
v -11.02579951 31.74909428 0.73022660
v -11.01278707 32.05278218 0.87705528
v -9.41514641 32.55861662 0.87705528
v -7.79408336 32.98265263 0.87705528
v -6.15350947 33.32771175 0.87705528
v -4.49861929 33.59096982 0.87705528
v -4.53765139 33.88149664 1.04933385
v -2.85934925 34.06389765 1.04933385
v -1.17193580 34.16355886 1.04933385
v 0.51938139 34.17954147 1.04933385
v 2.20809348 34.11184810 1.04933385
v 2.26403654 34.10714641 1.04933385
v 2.26403654 34.81418602 18.45144875
v 2.26403654 34.99188535 18.30266299
v 2.26403654 35.07368378 18.23414298
v 0.53369246 35.14325991 18.23414298
v -1.20445907 35.12633592 18.23414298
v -2.93870687 35.02385318 18.23414298
v -4.66515243 34.83581170 18.23414298
v -6.38248667 34.56315026 18.23414298
v -8.08290735 34.20492746 18.23414298
v -9.76381719 33.76397006 18.23414298
v -11.02579951 33.36532004 18.23414298
v -11.02579951 32.04808049 0.87705528
v -11.02579951 32.35553131 1.04933385
v -9.49580789 32.83785991 1.04933385
v -7.86173761 33.26753639 1.04933385
v -6.20685264 33.61541443 1.04933385
v -6.25889197 33.89465772 1.23335946
v -4.57537964 34.16262008 1.23335946
v -2.88276643 34.34690125 1.23335946
v -1.18104190 34.44750383 1.23335946
v 0.52328512 34.46348645 1.23335946
v 2.22630829 34.39579047 1.23335946
v 2.26403654 34.11654979 1.05520705
v 2.26403654 35.32190062 18.00313242
v 0.53759620 35.39053537 18.00313242
v -1.21226653 35.37455276 18.00313242
v -2.95952678 35.27112864 18.00313242
v -4.69897956 35.08214578 18.00313242
v -6.42671853 34.80666541 18.00313242
v -8.14015165 34.44656245 18.00313242
v -9.83277008 34.00184214 18.00313242
v -11.02579951 33.62481780 18.00313242
v -11.02579951 32.37151392 1.05912251
v -9.57517073 33.11052136 1.23335946
v -7.92678937 33.54301937 1.23335946
v -6.30832881 34.16450024 1.43304564
v -4.61180925 34.43434015 1.43304564
v -2.90487975 34.62050147 1.43304564
v -1.19014800 34.72110406 1.43304564
v 0.52718624 34.73802805 1.43304564
v 2.24322185 34.66939330 1.43304564
v 2.26403654 34.66751315 1.43304564
v 2.26403654 34.39767323 1.23923201
v 2.26403654 35.55883393 17.76037611
v 0.54019868 35.62746868 17.76037611
v -1.22137263 35.61054468 17.76037611
v -2.98034146 35.50712317 17.76037611
v -4.73020419 35.31626016 17.76037611
v -6.46965697 35.03889702 17.76037611
v -8.19349483 34.67597514 17.76037611
v -9.89782184 34.22843330 17.76037611
v -11.02579951 33.87209326 17.76037611
v -11.02579951 32.65263736 1.23335946
v -9.65062723 33.37378204 1.43304564
v -7.98923865 33.81004035 1.43304564
v -8.05038407 34.06765796 1.64447887
v -6.35646701 34.42399800 1.64447887
v -4.64693502 34.69665945 1.64447887
v -2.92699829 34.88376215 1.64447887
v -1.19925670 34.98530611 1.64447887
v 0.53108998 35.00222750 1.64447887
v 2.26403654 34.93265398 1.64447887
v 2.26403654 35.78260615 17.50587340
v 0.54409981 35.85124090 17.50587340
v -1.22918010 35.83431691 17.50587340
v -2.99855366 35.72995402 17.50587340
v -4.76012498 35.53814963 17.50587340
v -6.51128635 35.25984772 17.50587340
v -8.24553415 34.89504308 17.50587340
v -9.96027112 34.44468230 17.50587340
v -11.02579951 34.10808779 17.50587340
v -11.02579951 32.93940388 1.43304564
v -11.02579951 32.98641294 1.46828484
v -9.72478509 33.62857811 1.64447887
v -8.10892701 34.31493342 1.86961623
v -6.40200272 34.67409499 1.86961623
v -4.68076214 34.94769521 1.86961623
v -2.94911683 35.13667807 1.86961623
v -1.20836280 35.23916081 1.86961623
v 0.53499371 35.25608480 1.86961623
v 2.26403654 35.18651128 1.86961623
v 2.26403654 35.98757163 17.25137070
v 0.54800354 36.06372699 17.24158203
v -1.23568371 36.04680300 17.24158203
v -3.01677108 35.94150133 17.24158203
v -4.78744850 35.74875817 17.24158203
v -6.54901460 35.46763472 17.24158203
v -8.29497620 35.10094993 17.24158203
v -10.01881406 34.64776762 17.24158203
v -11.02579951 34.32997726 17.24158203
v -11.02579951 33.21676441 1.64447887
v -11.02579951 33.41703080 1.81284262
v -9.79504183 33.87209326 1.86961623
v -9.86269087 34.10526626 2.10454160
v -8.16487268 34.55092534 2.10454160
v -6.44623458 34.91290845 2.10454160
v -4.71329063 35.18839143 2.10454160
v -2.96863288 35.37831306 2.10454160
v -1.21616766 35.48173718 2.10454160
v 0.53889483 35.49866118 2.10454160
v 2.26403654 35.43378673 2.10845707
v 2.26403654 35.99509224 17.24158203
v 0.55060603 36.26211323 16.96750199
v -1.24218993 36.24518923 16.96750199
v -3.03238079 36.13894619 16.96750199
v -4.81476679 35.94526164 16.96750199
v -6.58544421 35.66319682 16.96750199
v -8.34051192 35.29463448 16.96750199
v -10.07475972 34.83863063 16.96750199
v -11.02579951 34.53776427 16.96750199
v -11.02579951 33.48284662 1.86961623
v -11.02579951 33.55242014 1.93226304
v -11.02579951 33.73764269 2.10454160
v -11.02579951 33.98021907 2.35317111
v -9.92644399 34.32715572 2.35317111
v -8.21821585 34.77563635 2.35317111
v -6.48916781 35.13949960 2.35317111
v -4.74321142 35.41780151 2.35317111
v -2.98814893 35.60866453 2.35317111
v -1.22397512 35.71303003 2.35317111
v 0.54279856 35.72995402 2.35317111
v 2.26403654 35.66131666 2.35317111
v 2.26403654 36.18501648 16.97924839
v 0.55320591 36.44733578 16.68363394
v -1.24869354 36.43041179 16.68363394
v 2.26403654 36.19347848 16.96750199
v -3.04799572 36.32416613 16.68363394
v -4.83948782 36.12860404 16.68363394
v -6.61927134 35.84559783 16.68363394
v -8.38214129 35.47421396 16.68363394
v -10.12549520 35.01633257 16.68363394
v -11.02579951 34.73238759 16.68363394
v -11.02579951 34.20962915 2.61158928
v -9.98758942 34.53776427 2.61158928
v -8.26765269 34.98906642 2.61158928
v -6.52819991 35.35480723 2.61158928
v -4.77313742 35.63405052 2.61158928
v -3.00636113 35.82679369 2.61158928
v -1.23177998 35.93115918 2.61158928
v 0.54540105 35.94808318 2.61158928
v 2.26403654 35.87944582 2.61158928
v 2.26403654 36.37869842 16.68363394
v 2.26403654 36.55075729 16.38997657
v 0.55580840 36.61845326 16.38997657
v -1.25519976 36.60152927 16.38997657
v -3.06230679 36.49434485 16.38997657
v -4.86160636 36.29878014 16.38997657
v -6.65049598 36.01389639 16.38997657
v -8.42247203 35.64157374 16.38997657
v -10.17363340 35.18086821 16.38997657
v -11.02579951 34.82076786 16.54072072
v -11.02579951 34.29612927 2.71926396
v -10.04483372 34.73520912 2.88175385
v -8.31579089 35.18933021 2.88175385
v -6.56592816 35.55789515 2.88175385
v -4.80045572 35.83901860 2.88175385
v -3.02327469 36.03176177 2.88175385
v -1.23958744 36.13706604 2.88175385
v 0.54930478 36.15492880 2.88175385
v 2.26403654 36.07783206 2.87000746
v 2.26403654 36.55921929 16.37431471
v 0.55841088 36.77546829 16.09044665
v -1.26040474 36.75854430 16.09044665
v -3.07531402 36.65135987 16.09044665
v -4.88242105 36.45391762 16.09044665
v -6.67911813 36.16809249 16.09044665
v -8.45760301 35.79388708 16.09044665
v -10.21656662 35.33224277 16.09044665
v -11.02579951 34.91196707 16.38997657
v -11.02579951 34.99752842 16.23531761
v -11.02579951 34.42493938 2.88175385
v -11.02579951 34.51425843 3.00313201
v -10.09817690 34.92042907 3.15974936
v -8.36002275 35.37737429 3.15974936
v -6.60105914 35.74687541 3.15974936
v -4.82517675 36.02988161 3.15974936
v -3.04018825 36.22450493 3.15974936
v -1.24609105 36.32980920 3.15974936
v 0.55190727 36.34673320 3.15974936
v 2.26403654 36.27903722 3.15974936
v 2.26403654 36.09381467 2.89154252
v 2.26403654 36.70777231 16.09044665
v 0.56101337 36.91744208 15.78308580
v -1.26560450 36.90051809 15.78308580
v -3.08832645 36.79239228 15.78308580
v -4.90193710 36.59494743 15.78308580
v -6.70383915 36.30818352 15.78308580
v -8.49142492 35.93209796 15.78308580
v -11.02579951 35.07650532 16.09044665
v -10.25690258 35.46857350 15.78308580
v -11.02579951 35.22599973 15.78308580
v -11.02579951 34.62708332 3.15974936
v -11.02579951 34.72580574 3.31049286
v -10.14761373 35.09248793 3.44753288
v -8.40035349 35.55131331 3.44753288
v -6.63358241 35.92269719 3.44753288
v -4.84989256 36.20663956 3.44753288
v -3.05449933 36.40220426 3.44753288
v -1.25129342 36.50938869 3.44753288
v 0.55450976 36.52631268 3.44753288
v 2.26403654 36.45767793 3.44753288
v 2.26403654 36.84974611 15.78308580
v 0.56231461 37.04531081 15.46985110
v -1.26951084 37.02744544 15.46985110
v -3.09873119 36.91932224 15.46985110
v -4.91885066 36.72093600 15.46985110
v -6.72725633 36.43323071 15.46985110
v -8.52004707 36.05620638 15.46985110
v -10.29202834 35.59080176 15.46985110
v -11.02579951 35.30215509 15.60493339
v -11.02579951 34.81512740 3.44753288
v -11.02579951 34.90256630 3.59631930
v -10.19314945 35.25044434 3.74314798
v -8.43808696 35.71208864 3.74314798
v -6.66350320 36.08535267 3.74314798
v -4.87071246 36.37023643 3.74314798
v -3.06881040 36.56674251 3.74314798
v -1.25780225 36.67392693 3.74314798
v 0.55710964 36.69085093 3.74314798
v 2.26403654 36.62315495 3.74314798
v 2.26403654 36.96821146 15.49138617
v 2.26403654 36.97667345 15.46985110
v 2.26403654 36.98513545 15.44635896
v 0.56361586 37.15719432 15.14878645
v -1.27341196 37.13933155 15.14878645
v -3.10784250 37.03120574 15.14878645
v -4.93316174 36.83188073 15.14878645
v -6.74807101 36.54323667 15.14878645
v -8.54607195 36.16527095 15.14878645
v -10.32325298 35.69798619 15.14878645
v -11.02579951 35.35950892 15.46985110
v -11.02579951 34.98812504 3.74314798
v -10.23608267 35.39523706 4.04659336
v -8.47321272 35.85782275 4.04659336
v -6.69082671 36.23296693 4.04659336
v -4.89152715 36.51973084 4.04659336
v -3.08181763 36.71623692 4.04659336
v -1.26300722 36.82436012 4.04659336
v 0.55971213 36.84128411 4.04659336
v 2.26403654 36.77358814 4.04659336
v 2.26403654 37.08855957 15.14878645
v 2.26403654 37.17787862 14.84925620
v 2.26403654 37.18540184 14.82380600
v 0.56491710 37.25309782 14.82380600
v -1.27601445 37.23523244 14.82380600
v -3.11564475 37.12710924 14.82380600
v -4.94616896 36.92778423 14.82380600
v -6.76498458 36.63819879 14.82380600
v -8.56818527 36.25835292 14.82380600
v -10.34927264 35.79106554 14.82380600
v -11.02579951 35.53814963 14.95105735
v -11.02579951 35.47609672 15.14878645
v -11.02579951 35.14514007 4.04659336
v -11.02579951 35.28805263 4.35786968
v -10.27251229 35.52498594 4.35786968
v -8.50443736 35.98945178 4.35786968
v -6.71554774 36.36647612 4.35786968
v -4.90973935 36.65418141 4.35786968
v -3.09222758 36.85162626 4.35786968
v -1.26690835 36.95974946 4.35786968
v 0.56101337 36.97667345 4.35786968
v 2.26403654 36.90898009 4.35786968
v 2.26403654 37.25967705 14.52231802
v 0.56621835 37.33301610 14.49491008
v -1.27991557 37.31609210 14.49491008
v -3.12215358 37.20702752 14.49491008
v -4.95657891 37.00676113 14.49491008
v -6.77929565 36.71717569 14.49491008
v -8.58640268 36.33732982 14.49491008
v -11.02579951 35.57763807 14.82380600
v -10.37268981 35.86816490 14.49491008
v -11.02579951 35.41404121 4.67501952
v -10.30633941 35.64063236 4.67501952
v -8.53176087 36.10697836 4.67501952
v -6.73636243 36.48494408 4.67501952
v -4.92535427 36.77264936 4.67501952
v -3.10263753 36.97197437 4.67501952
v -1.27080947 37.08009757 4.67501952
v 0.56361586 37.09702156 4.67501952
v 2.26403654 36.91744208 4.37940475
v 2.26403654 37.27096058 14.46945988
v 0.56751959 37.39789054 14.16209870
v -1.28121942 37.38002516 14.16209870
v -3.12735334 37.27096058 14.16209870
v -4.96568501 37.07069680 14.16209870
v -6.79100424 36.78016998 14.16209870
v -8.60071376 36.39938533 14.16209870
v -10.38960338 35.93021780 14.16209870
v -11.02579951 35.66131666 14.49491008
v -11.02579951 35.70456803 14.28347718
v -11.02579951 35.47985703 4.86687542
v -10.33626020 35.74217632 4.99608451
v -8.55647668 36.20946109 4.99608451
v -6.75587848 36.58742681 4.99608451
v -4.93966535 36.87701225 4.99608451
v -3.11174363 37.07633726 4.99608451
v -1.27471581 37.18446046 4.99608451
v 0.56491710 37.20232584 4.99608451
v 2.26403654 37.03684881 4.69655426
v 2.26403654 37.02932559 4.67501952
v 2.26403654 37.33019456 14.16209870
v 2.26403654 37.37438470 13.85473785
v 0.56882083 37.44584098 13.82732991
v -1.28382191 37.42797561 13.82732991
v -3.13125968 37.31891103 13.82732991
v -4.97088999 37.11864725 13.82732991
v -6.80011034 36.82812043 13.82732991
v -8.61242235 36.44639440 13.82732991
v -11.02579951 35.76191925 13.94675033
v -11.02579951 35.72901264 14.16209870
v -10.40391445 35.97628810 13.82732991
v -11.02579951 35.52404717 4.99608451
v -10.36098123 35.82773507 5.32302269
v -8.57729137 36.29596122 5.32302269
v -6.77148819 36.67580709 5.32302269
v -4.95137393 36.96539253 5.32302269
v -3.11955109 37.16471754 5.32302269
v -1.27861694 37.27378212 5.32302269
v 0.56621835 37.29164489 5.32302269
v 2.26403654 37.21642829 5.29757216
v 2.26403654 37.13368848 4.99608451
v 2.26403654 37.37814501 13.82732991
v 0.56882083 37.47780621 13.49060306
v -1.28382191 37.45994344 13.49060306
v -3.13516080 37.35087886 13.49060306
v -4.97609496 37.15061247 13.49060306
v -6.80661917 36.85914688 13.49060306
v -8.62022460 36.47742085 13.49060306
v -11.02579951 35.77978462 13.82732991
v -10.41172192 36.00731455 13.49060306
v -11.02579951 35.61712652 5.32302269
v -11.02579951 35.69422588 5.65387601
v -10.38049728 35.89731120 5.65387601
v -8.59420493 36.36741750 5.65387601
v -6.78579926 36.74726337 5.65387601
v -4.96048003 37.03778759 5.65387601
v -3.12475085 37.23805398 5.65387601
v -1.27991557 37.34711856 5.65387601
v 2.26403654 37.22301014 5.32302269
v 0.56751959 37.36404255 5.65387601
v 2.26403654 37.29634658 5.65387601
v 2.26403654 37.41011284 13.49060306
v 2.26403654 37.42233515 13.26546603
v 0.56882083 37.49096990 13.24393129
v -1.28512055 37.47310713 13.24393129
v -3.13516080 37.36404255 13.24393129
v -4.97739360 37.16283739 13.24393129
v -6.80791780 36.87136918 13.24393129
v -8.62282708 36.49058454 13.24393129
v -11.02579951 35.81269123 13.49060306
v -10.41562304 36.01953685 13.24393129
v -11.02579951 35.82679369 13.24393129
v -11.02579951 35.82209460 13.33007057
v -11.02579951 35.71584895 5.77525449
v -10.39610699 35.95278226 5.98864513
v -8.60721737 36.42288856 5.98864513
v -6.79620922 36.80367582 5.98864513
v -4.96828750 37.09420003 5.98864513
v -3.12995583 37.29446642 5.98864513
v -1.28251806 37.40353100 5.98864513
v 0.56751959 37.42139377 5.98864513
v 2.26403654 37.35370040 5.98864513
v 2.26403654 37.42327392 13.24393129
v 0.56882083 37.49567159 12.99921692
v -1.28512055 37.47780621 12.99921692
v -3.13646466 37.36780286 12.99921692
v -4.97739360 37.16753647 12.99921692
v -6.80921644 36.87607087 12.99921692
v -8.62413093 36.49434485 12.99921692
v -10.41692168 36.02329977 12.99921692
v -11.02579951 35.83149537 12.99921692
v -11.02579951 35.75345725 5.98864513
v -11.02579951 35.78166477 6.20595123
v -10.40781558 35.99227071 6.32341424
v -8.61632347 36.46237701 6.32341424
v -6.80271283 36.84410304 6.32341424
v -4.97349247 37.13462986 6.32341424
v -3.13386217 37.33583502 6.32341424
v -1.28382191 37.44489960 6.32341424
v 0.56882083 37.46276498 6.32341424
v 2.26403654 37.35746071 6.01605306
v 2.26403654 37.42703684 13.02075199
v 0.56882083 37.49567159 7.00078308
v -1.28512055 37.47780621 7.00078308
v -3.13646466 37.36780286 7.00078308
v -4.97739360 37.16753647 7.00078308
v -6.80921644 36.87607087 7.00078308
v -8.62413093 36.49434485 7.00078308
v -10.41692168 36.02329977 7.00078308
v -11.02579951 35.83149537 7.00078308
v -11.02579951 35.79670861 6.32341424
v -11.02579951 35.82303338 6.66209850
v -10.41432440 36.01577654 6.66209850
v -8.62152845 36.48682423 6.66209850
v -6.80791780 36.86760888 6.66209850
v -4.97739360 37.15907447 6.66209850
v -3.13516080 37.36028224 6.66209850
v -1.28512055 37.46934682 6.66209850
v 0.56882083 37.48720959 6.66209850
v 2.26403654 37.39506900 6.32341424
v 2.26403654 37.42703684 6.97141740
v 2.26403654 37.41951361 6.66209850
f 1 2 6
f 1 6 13
f 1 13 23
f 1 23 36
f 1 36 56
f 1 56 61
f 1 61 40
f 1 40 26
f 1 26 15
f 1 15 8
f 1 8 3
f 1 3 9
f 1 9 17
f 1 17 29
f 1 29 48
f 1 48 75
f 1 75 107
f 1 107 136
f 1 136 168
f 1 168 167
f 1 167 194
f 1 194 220
f 1 220 221
f 1 221 246
f 1 246 268
f 1 268 290
f 1 290 313
f 1 313 336
f 1 336 356
f 1 356 355
f 1 355 375
f 1 375 394
f 1 394 414
f 1 414 435
f 1 435 454
f 1 454 473
f 1 473 494
f 1 494 493
f 1 493 514
f 1 514 533
f 1 533 553
f 1 553 575
f 1 575 593
f 1 593 613
f 1 613 612
f 1 612 634
f 1 634 633
f 1 633 652
f 1 652 654
f 1 654 675
f 1 675 694
f 1 694 713
f 1 713 715
f 1 715 714
f 1 714 695
f 1 695 676
f 1 676 656
f 1 656 655
f 1 655 635
f 1 635 615
f 1 615 614
f 1 614 594
f 1 594 576
f 1 576 556
f 1 556 555
f 1 555 554
f 1 554 536
f 1 536 535
f 1 535 534
f 1 534 515
f 1 515 495
f 1 495 474
f 1 474 456
f 1 456 455
f 1 455 439
f 1 439 436
f 1 436 415
f 1 415 395
f 1 395 376
f 1 376 357
f 1 357 337
f 1 337 316
f 1 316 315
f 1 315 314
f 1 314 291
f 1 291 269
f 1 269 247
f 1 247 223
f 1 223 222
f 1 222 196
f 1 196 170
f 1 170 169
f 1 169 139
f 1 139 138
f 1 138 109
f 1 109 78
f 1 78 77
f 1 77 50
f 1 50 31
f 1 31 18
f 1 18 10
f 1 10 4
f 1 4 5
f 1 5 2
f 2 5 7
f 2 7 6
f 3 8 16
f 3 16 9
f 4 10 5
f 5 10 11
f 5 11 12
f 5 12 7
f 6 7 14
f 6 14 13
f 7 12 14
f 8 15 27
f 8 27 42
f 8 42 65
f 8 65 94
f 8 94 120
f 8 120 151
f 8 151 152
f 8 152 182
f 8 182 208
f 8 208 235
f 8 235 234
f 8 234 257
f 8 257 232
f 8 232 256
f 8 256 279
f 8 279 278
f 8 278 299
f 8 299 301
f 8 301 324
f 8 324 345
f 8 345 365
f 8 365 384
f 8 384 403
f 8 403 423
f 8 423 445
f 8 445 464
f 8 464 482
f 8 482 483
f 8 483 502
f 8 502 504
f 8 504 523
f 8 523 544
f 8 544 565
f 8 565 564
f 8 564 583
f 8 583 602
f 8 602 603
f 8 603 623
f 8 623 622
f 8 622 642
f 8 642 663
f 8 663 666
f 8 666 665
f 8 665 684
f 8 684 703
f 8 703 705
f 8 705 704
f 8 704 686
f 8 686 685
f 8 685 667
f 8 667 645
f 8 645 644
f 8 644 625
f 8 625 604
f 8 604 585
f 8 585 567
f 8 567 566
f 8 566 545
f 8 545 525
f 8 525 524
f 8 524 506
f 8 506 505
f 8 505 485
f 8 485 484
f 8 484 465
f 8 465 446
f 8 446 427
f 8 427 426
f 8 426 425
f 8 425 424
f 8 424 405
f 8 405 404
f 8 404 386
f 8 386 385
f 8 385 366
f 8 366 346
f 8 346 326
f 8 326 325
f 8 325 302
f 8 302 280
f 8 280 258
f 8 258 236
f 8 236 209
f 8 209 185
f 8 185 158
f 8 158 126
f 8 126 98
f 8 98 68
f 8 68 44
f 8 44 28
f 8 28 16
f 9 16 28
f 9 28 43
f 9 43 66
f 9 66 95
f 9 95 121
f 9 121 137
f 9 137 108
f 9 108 76
f 9 76 49
f 9 49 30
f 9 30 17
f 10 18 19
f 10 19 11
f 11 19 12
f 12 20 14
f 12 19 21
f 12 21 22
f 12 22 20
f 13 14 24
f 13 24 23
f 14 20 25
f 14 25 24
f 15 26 27
f 17 30 29
f 18 31 19
f 19 31 32
f 19 32 33
f 19 33 21
f 20 22 25
f 21 33 22
f 22 34 25
f 22 33 35
f 22 35 34
f 23 24 37
f 23 37 36
f 24 25 37
f 25 38 37
f 25 34 39
f 25 39 38
f 26 40 41
f 26 41 27
f 27 41 42
f 28 44 43
f 29 30 45
f 29 45 46
f 29 46 47
f 29 47 48
f 30 49 45
f 31 50 32
f 32 50 51
f 32 51 33
f 33 51 52
f 33 52 53
f 33 53 35
f 34 35 54
f 34 54 39
f 35 53 55
f 35 55 54
f 36 37 57
f 36 57 56
f 37 38 57
f 38 58 57
f 38 39 58
f 39 59 58
f 39 54 60
f 39 60 59
f 40 61 62
f 40 62 41
f 41 62 63
f 41 63 42
f 42 63 64
f 42 64 65
f 43 44 67
f 43 67 66
f 44 68 69
f 44 69 67
f 45 49 70
f 45 70 71
f 45 71 72
f 45 72 46
f 46 72 47
f 47 72 73
f 47 73 74
f 47 74 75
f 47 75 48
f 49 76 70
f 50 77 51
f 51 77 78
f 51 78 79
f 51 79 80
f 51 80 52
f 52 80 81
f 52 81 53
f 53 81 55
f 54 55 60
f 55 81 82
f 55 82 83
f 55 83 84
f 55 84 60
f 56 57 85
f 56 85 61
f 57 58 86
f 57 86 85
f 58 59 86
f 59 87 86
f 59 60 88
f 59 88 89
f 59 89 87
f 60 84 90
f 60 90 88
f 61 85 62
f 62 85 86
f 62 86 91
f 62 91 63
f 63 91 92
f 63 92 64
f 64 92 93
f 64 93 94
f 64 94 65
f 66 67 96
f 66 96 95
f 67 69 97
f 67 97 96
f 68 98 69
f 69 98 99
f 69 99 97
f 70 76 100
f 70 100 71
f 71 100 101
f 71 101 102
f 71 102 103
f 71 103 73
f 71 73 72
f 73 103 104
f 73 104 105
f 73 105 74
f 74 105 106
f 74 106 107
f 74 107 75
f 76 108 100
f 78 109 79
f 79 109 110
f 79 110 111
f 79 111 80
f 80 111 81
f 81 111 112
f 81 112 82
f 82 112 113
f 82 113 114
f 82 114 83
f 83 115 90
f 83 90 84
f 83 114 115
f 86 87 92
f 86 92 91
f 87 89 92
f 88 90 89
f 89 116 92
f 89 90 117
f 89 117 118
f 89 118 116
f 90 115 117
f 92 116 93
f 93 116 119
f 93 119 120
f 93 120 94
f 95 96 122
f 95 122 121
f 96 97 122
f 97 99 123
f 97 123 124
f 97 124 125
f 97 125 122
f 98 126 99
f 99 126 127
f 99 127 128
f 99 128 123
f 100 108 129
f 100 129 101
f 101 129 130
f 101 130 131
f 101 131 102
f 102 131 132
f 102 132 103
f 103 132 104
f 104 132 133
f 104 133 105
f 105 133 134
f 105 134 135
f 105 135 106
f 106 136 107
f 106 135 168
f 106 168 136
f 108 137 129
f 109 138 110
f 110 138 139
f 110 139 140
f 110 140 141
f 110 141 111
f 111 141 142
f 111 142 112
f 112 142 143
f 112 143 113
f 113 143 114
f 114 143 144
f 114 144 145
f 114 145 146
f 114 146 115
f 115 147 117
f 115 146 148
f 115 148 147
f 116 118 119
f 117 147 118
f 118 147 149
f 118 149 150
f 118 150 119
f 119 151 120
f 119 150 152
f 119 152 151
f 121 122 153
f 121 153 137
f 122 125 154
f 122 154 153
f 123 128 124
f 124 128 155
f 124 155 156
f 124 156 157
f 124 157 125
f 125 157 154
f 126 158 127
f 127 158 159
f 127 159 160
f 127 160 128
f 128 160 155
f 129 137 153
f 129 153 154
f 129 154 130
f 130 154 131
f 131 154 157
f 131 157 156
f 131 156 161
f 131 161 132
f 132 161 162
f 132 162 163
f 132 163 133
f 133 163 164
f 133 164 134
f 134 164 165
f 134 165 166
f 134 166 135
f 135 166 167
f 135 167 168
f 139 169 140
f 140 169 170
f 140 170 171
f 140 171 141
f 141 171 172
f 141 172 173
f 141 173 142
f 142 173 143
f 143 173 174
f 143 174 144
f 144 174 175
f 144 175 145
f 145 175 176
f 145 176 177
f 145 177 178
f 145 178 148
f 145 148 146
f 147 148 149
f 148 178 179
f 148 179 180
f 148 180 149
f 149 180 181
f 149 181 150
f 150 181 152
f 152 181 182
f 155 160 183
f 155 183 156
f 156 183 184
f 156 184 162
f 156 162 161
f 158 185 186
f 158 186 159
f 159 186 160
f 160 186 187
f 160 187 188
f 160 188 183
f 162 184 189
f 162 189 190
f 162 190 191
f 162 191 163
f 163 191 164
f 164 191 192
f 164 192 165
f 165 192 193
f 165 193 166
f 166 194 167
f 166 193 195
f 166 195 194
f 170 196 197
f 170 197 171
f 171 197 198
f 171 198 172
f 172 198 199
f 172 199 173
f 173 199 174
f 174 199 200
f 174 200 175
f 175 200 201
f 175 201 202
f 175 202 176
f 176 202 177
f 177 202 203
f 177 203 204
f 177 204 205
f 177 205 178
f 178 205 179
f 179 205 206
f 179 206 207
f 179 207 181
f 179 181 180
f 181 207 208
f 181 208 182
f 183 188 189
f 183 189 184
f 185 209 186
f 186 209 210
f 186 210 211
f 186 211 187
f 187 211 188
f 188 211 212
f 188 212 189
f 189 212 213
f 189 213 214
f 189 214 190
f 190 214 215
f 190 215 191
f 191 215 192
f 192 215 216
f 192 216 217
f 192 217 218
f 192 218 193
f 193 218 219
f 193 219 195
f 194 195 220
f 195 219 221
f 195 221 220
f 196 222 197
f 197 222 223
f 197 223 224
f 197 224 198
f 198 224 225
f 198 225 226
f 198 226 199
f 199 226 227
f 199 227 200
f 200 227 201
f 201 227 228
f 201 228 202
f 202 228 229
f 202 229 230
f 202 230 203
f 203 230 204
f 204 230 231
f 204 231 232
f 204 232 233
f 204 233 206
f 204 206 205
f 206 233 234
f 206 234 235
f 206 235 207
f 207 235 208
f 209 236 237
f 209 237 210
f 210 237 211
f 211 237 238
f 211 238 239
f 211 239 212
f 212 239 240
f 212 240 213
f 213 240 241
f 213 241 214
f 214 241 215
f 215 241 216
f 216 241 242
f 216 242 217
f 217 242 243
f 217 243 218
f 218 243 244
f 218 244 219
f 219 244 245
f 219 245 246
f 219 246 221
f 223 247 224
f 224 247 248
f 224 248 249
f 224 249 225
f 225 249 250
f 225 250 226
f 226 250 227
f 227 250 251
f 227 251 228
f 228 251 252
f 228 252 253
f 228 253 229
f 229 253 254
f 229 254 230
f 230 254 231
f 231 254 255
f 231 255 256
f 231 256 232
f 232 257 233
f 233 257 234
f 236 258 237
f 237 258 259
f 237 259 260
f 237 260 238
f 238 260 239
f 239 260 261
f 239 261 240
f 240 261 262
f 240 262 263
f 240 263 241
f 241 263 242
f 242 263 264
f 242 264 265
f 242 265 243
f 243 265 244
f 244 265 266
f 244 266 245
f 245 266 267
f 245 267 268
f 245 268 246
f 247 269 248
f 248 269 270
f 248 270 271
f 248 271 249
f 249 271 250
f 250 271 272
f 250 272 251
f 251 272 273
f 251 273 274
f 251 274 252
f 252 274 275
f 252 275 253
f 253 275 254
f 254 275 276
f 254 276 277
f 254 277 255
f 255 277 278
f 255 278 279
f 255 279 256
f 258 280 259
f 259 280 281
f 259 281 282
f 259 282 260
f 260 282 283
f 260 283 261
f 261 283 284
f 261 284 262
f 262 284 263
f 263 284 285
f 263 285 264
f 264 285 286
f 264 286 287
f 264 287 265
f 265 287 266
f 266 287 288
f 266 288 289
f 266 289 267
f 267 289 290
f 267 290 268
f 269 291 270
f 270 291 292
f 270 292 271
f 271 292 293
f 271 293 294
f 271 294 272
f 272 294 273
f 273 294 295
f 273 295 296
f 273 296 274
f 274 296 275
f 275 296 297
f 275 297 276
f 276 297 298
f 276 298 277
f 277 299 278
f 277 298 300
f 277 300 301
f 277 301 299
f 280 302 281
f 281 302 303
f 281 303 304
f 281 304 282
f 282 304 283
f 283 304 305
f 283 305 306
f 283 306 284
f 284 306 285
f 285 306 307
f 285 307 286
f 286 307 308
f 286 308 309
f 286 309 310
f 286 310 287
f 287 310 288
f 288 310 311
f 288 311 289
f 289 311 312
f 289 312 313
f 289 313 290
f 291 314 292
f 292 314 315
f 292 315 316
f 292 316 317
f 292 317 293
f 293 317 318
f 293 318 294
f 294 318 295
f 295 318 319
f 295 319 296
f 296 319 320
f 296 320 321
f 296 321 297
f 297 321 298
f 298 321 322
f 298 322 323
f 298 323 300
f 300 323 301
f 301 323 324
f 302 325 303
f 303 326 304
f 303 325 326
f 304 326 327
f 304 327 328
f 304 328 305
f 305 328 306
f 306 328 329
f 306 329 308
f 306 308 307
f 308 329 330
f 308 330 331
f 308 331 332
f 308 332 309
f 309 332 333
f 309 333 310
f 310 333 311
f 311 333 334
f 311 334 335
f 311 335 312
f 312 335 336
f 312 336 313
f 316 337 317
f 317 337 338
f 317 338 339
f 317 339 318
f 318 339 319
f 319 339 340
f 319 340 341
f 319 341 320
f 320 341 321
f 321 341 342
f 321 342 343
f 321 343 322
f 322 343 323
f 323 343 344
f 323 344 324
f 324 344 345
f 326 346 327
f 327 346 347
f 327 347 328
f 328 347 348
f 328 348 330
f 328 330 329
f 330 348 349
f 330 349 331
f 331 349 350
f 331 350 351
f 331 351 332
f 332 351 333
f 333 351 352
f 333 352 353
f 333 353 334
f 334 353 335
f 335 353 354
f 335 354 355
f 335 355 356
f 335 356 336
f 337 357 358
f 337 358 338
f 338 358 339
f 339 358 359
f 339 359 360
f 339 360 340
f 340 360 341
f 341 360 361
f 341 361 342
f 342 361 362
f 342 362 343
f 343 362 363
f 343 363 364
f 343 364 344
f 344 364 365
f 344 365 345
f 346 366 347
f 347 367 368
f 347 368 348
f 347 366 367
f 348 368 349
f 349 369 370
f 349 370 371
f 349 371 350
f 349 368 369
f 350 371 351
f 351 371 372
f 351 372 373
f 351 373 352
f 352 373 353
f 353 373 374
f 353 374 354
f 354 374 375
f 354 375 355
f 357 376 377
f 357 377 358
f 358 377 378
f 358 378 359
f 359 378 360
f 360 378 379
f 360 379 380
f 360 380 361
f 361 380 381
f 361 381 362
f 362 381 382
f 362 382 363
f 363 382 364
f 364 382 383
f 364 383 384
f 364 384 365
f 366 385 367
f 367 385 386
f 367 386 387
f 367 387 368
f 368 387 369
f 369 387 388
f 369 388 389
f 369 389 370
f 370 389 371
f 371 389 390
f 371 390 391
f 371 391 372
f 372 391 392
f 372 392 373
f 373 392 374
f 374 392 393
f 374 393 375
f 375 393 394
f 376 395 377
f 377 395 396
f 377 396 397
f 377 397 378
f 378 397 379
f 379 397 398
f 379 398 399
f 379 399 380
f 380 399 381
f 381 399 400
f 381 400 401
f 381 401 382
f 382 401 383
f 383 401 402
f 383 402 403
f 383 403 384
f 386 404 387
f 387 404 405
f 387 405 406
f 387 406 388
f 388 406 407
f 388 407 408
f 388 408 409
f 388 409 389
f 389 409 410
f 389 410 390
f 390 410 391
f 391 410 411
f 391 411 412
f 391 412 392
f 392 412 393
f 393 412 413
f 393 413 414
f 393 414 394
f 395 415 396
f 396 415 416
f 396 416 417
f 396 417 397
f 397 417 398
f 398 417 418
f 398 418 419
f 398 419 399
f 399 419 420
f 399 420 400
f 400 420 421
f 400 421 401
f 401 421 402
f 402 421 422
f 402 422 403
f 403 422 423
f 405 424 406
f 406 424 425
f 406 425 407
f 407 425 426
f 407 426 427
f 407 427 428
f 407 428 429
f 407 429 408
f 408 429 409
f 409 429 430
f 409 430 431
f 409 431 410
f 410 431 411
f 411 431 432
f 411 432 433
f 411 433 412
f 412 433 413
f 413 433 434
f 413 434 414
f 414 434 435
f 415 436 416
f 416 437 438
f 416 438 417
f 416 436 439
f 416 439 437
f 417 438 440
f 417 440 418
f 418 440 419
f 419 440 441
f 419 441 442
f 419 442 420
f 420 442 421
f 421 442 443
f 421 443 444
f 421 444 422
f 422 444 445
f 422 445 423
f 427 446 447
f 427 447 428
f 428 447 429
f 429 447 448
f 429 448 430
f 430 448 449
f 430 449 431
f 431 449 450
f 431 450 451
f 431 451 432
f 432 451 433
f 433 451 452
f 433 452 434
f 434 452 453
f 434 453 435
f 435 453 454
f 437 439 455
f 437 455 456
f 437 456 457
f 437 457 458
f 437 458 438
f 438 458 440
f 440 458 459
f 440 459 460
f 440 460 441
f 441 460 442
f 442 460 461
f 442 461 462
f 442 462 443
f 443 462 444
f 444 462 463
f 444 463 464
f 444 464 445
f 446 465 447
f 447 465 466
f 447 466 467
f 447 467 448
f 448 467 468
f 448 468 449
f 449 468 469
f 449 469 450
f 450 469 451
f 451 469 470
f 451 470 471
f 451 471 452
f 452 471 472
f 452 472 453
f 453 473 454
f 453 472 473
f 456 474 457
f 457 474 475
f 457 475 476
f 457 476 458
f 458 476 477
f 458 477 459
f 459 477 460
f 460 477 478
f 460 478 479
f 460 479 461
f 461 479 462
f 462 479 480
f 462 480 481
f 462 481 463
f 463 482 464
f 463 481 483
f 463 483 482
f 465 484 466
f 466 484 485
f 466 485 486
f 466 486 487
f 466 487 467
f 467 487 468
f 468 487 488
f 468 488 489
f 468 489 469
f 469 489 490
f 469 490 470
f 470 490 471
f 471 490 491
f 471 491 472
f 472 491 492
f 472 492 493
f 472 493 494
f 472 494 473
f 474 495 475
f 475 495 496
f 475 496 497
f 475 497 476
f 476 497 477
f 477 497 498
f 477 498 499
f 477 499 478
f 478 499 479
f 479 499 500
f 479 500 501
f 479 501 480
f 480 501 481
f 481 502 483
f 481 501 503
f 481 503 504
f 481 504 502
f 485 505 486
f 486 505 506
f 486 506 507
f 486 507 487
f 487 507 508
f 487 508 509
f 487 509 488
f 488 509 489
f 489 509 510
f 489 510 490
f 490 510 511
f 490 511 512
f 490 512 491
f 491 512 492
f 492 512 513
f 492 513 493
f 493 513 514
f 495 515 496
f 496 515 516
f 496 516 497
f 497 516 517
f 497 517 518
f 497 518 498
f 498 518 499
f 499 518 519
f 499 519 520
f 499 520 500
f 500 520 521
f 500 521 501
f 501 521 503
f 503 521 522
f 503 522 523
f 503 523 504
f 506 524 507
f 507 524 525
f 507 525 526
f 507 526 527
f 507 527 508
f 508 527 528
f 508 528 509
f 509 528 510
f 510 528 529
f 510 529 530
f 510 530 511
f 511 530 512
f 512 530 531
f 512 531 513
f 513 531 532
f 513 532 533
f 513 533 514
f 515 534 516
f 516 534 535
f 516 535 536
f 516 536 537
f 516 537 538
f 516 538 517
f 517 538 539
f 517 539 518
f 518 539 519
f 519 539 540
f 519 540 541
f 519 541 520
f 520 541 542
f 520 542 521
f 521 542 522
f 522 542 543
f 522 543 544
f 522 544 523
f 525 545 526
f 526 545 546
f 526 546 527
f 527 546 547
f 527 547 548
f 527 548 528
f 528 548 549
f 528 549 529
f 529 549 530
f 530 549 550
f 530 550 551
f 530 551 531
f 531 551 532
f 532 551 552
f 532 552 533
f 533 552 553
f 536 554 537
f 537 554 555
f 537 555 556
f 537 556 557
f 537 557 558
f 537 558 538
f 538 558 559
f 538 559 539
f 539 559 560
f 539 560 540
f 540 560 541
f 541 560 561
f 541 561 542
f 542 561 562
f 542 562 563
f 542 563 543
f 543 563 564
f 543 564 565
f 543 565 544
f 545 566 546
f 546 566 567
f 546 567 568
f 546 568 569
f 546 569 547
f 547 569 570
f 547 570 548
f 548 570 549
f 549 570 571
f 549 571 572
f 549 572 550
f 550 572 551
f 551 572 573
f 551 573 552
f 552 573 574
f 552 574 553
f 553 574 575
f 556 576 557
f 557 576 577
f 557 577 578
f 557 578 558
f 558 578 559
f 559 578 579
f 559 579 560
f 560 579 580
f 560 580 581
f 560 581 561
f 561 581 582
f 561 582 562
f 562 582 563
f 563 583 564
f 563 582 584
f 563 584 583
f 567 585 586
f 567 586 568
f 568 586 587
f 568 587 569
f 569 587 570
f 570 587 588
f 570 588 571
f 571 588 589
f 571 589 590
f 571 590 572
f 572 590 573
f 573 590 591
f 573 591 574
f 574 591 592
f 574 592 593
f 574 593 575
f 576 594 577
f 577 594 595
f 577 595 578
f 578 595 596
f 578 596 597
f 578 597 579
f 579 597 598
f 579 598 580
f 580 598 581
f 581 598 599
f 581 599 582
f 582 599 600
f 582 600 601
f 582 601 584
f 583 584 602
f 584 601 603
f 584 603 602
f 585 604 605
f 585 605 586
f 586 605 587
f 587 605 606
f 587 606 588
f 588 606 607
f 588 607 608
f 588 608 589
f 589 608 590
f 590 608 609
f 590 609 591
f 591 609 610
f 591 610 611
f 591 611 592
f 592 612 613
f 592 613 593
f 592 611 612
f 594 614 595
f 595 614 615
f 595 615 616
f 595 616 617
f 595 617 596
f 596 617 618
f 596 618 597
f 597 618 619
f 597 619 598
f 598 619 620
f 598 620 599
f 599 620 600
f 600 620 621
f 600 621 601
f 601 622 623
f 601 623 603
f 601 621 624
f 601 624 622
f 604 625 605
f 605 625 626
f 605 626 606
f 606 626 627
f 606 627 628
f 606 628 607
f 607 628 608
f 608 628 629
f 608 629 609
f 609 629 630
f 609 630 631
f 609 631 610
f 610 631 611
f 611 631 632
f 611 632 633
f 611 633 634
f 611 634 612
f 615 635 616
f 616 635 655
f 616 655 636
f 616 636 637
f 616 637 617
f 617 637 638
f 617 638 618
f 618 638 639
f 618 639 619
f 619 639 620
f 620 639 640
f 620 640 641
f 620 641 621
f 621 641 643
f 621 643 624
f 622 624 642
f 624 643 642
f 625 644 626
f 626 644 645
f 626 645 646
f 626 646 647
f 626 647 627
f 627 647 628
f 628 647 648
f 628 648 649
f 628 649 629
f 629 649 650
f 629 650 630
f 630 650 631
f 631 650 651
f 631 651 632
f 632 652 633
f 632 651 653
f 632 653 654
f 632 654 652
f 636 655 656
f 636 656 657
f 636 657 658
f 636 658 637
f 637 658 638
f 638 658 659
f 638 659 639
f 639 659 660
f 639 660 661
f 639 661 640
f 640 661 662
f 640 662 641
f 641 662 643
f 642 643 663
f 643 662 664
f 643 664 665
f 643 665 666
f 643 666 663
f 645 667 668
f 645 668 646
f 646 668 647
f 647 668 669
f 647 669 670
f 647 670 648
f 648 670 649
f 649 670 671
f 649 671 650
f 650 671 672
f 650 672 651
f 651 672 673
f 651 673 674
f 651 674 653
f 653 674 675
f 653 675 654
f 656 676 657
f 657 676 677
f 657 677 678
f 657 678 658
f 658 678 659
f 659 678 679
f 659 679 680
f 659 680 660
f 660 680 681
f 660 681 661
f 661 681 662
f 662 681 682
f 662 682 683
f 662 683 664
f 664 683 684
f 664 684 665
f 667 685 668
f 668 685 686
f 668 686 687
f 668 687 669
f 669 687 688
f 669 688 689
f 669 689 670
f 670 689 671
f 671 689 690
f 671 690 691
f 671 691 672
f 672 691 673
f 673 691 692
f 673 692 674
f 674 692 693
f 674 693 694
f 674 694 675
f 676 695 677
f 677 695 714
f 677 714 696
f 677 696 697
f 677 697 678
f 678 697 698
f 678 698 679
f 679 698 699
f 679 699 680
f 680 699 700
f 680 700 681
f 681 700 701
f 681 701 682
f 682 701 702
f 682 702 683
f 683 702 703
f 683 703 684
f 686 704 687
f 687 704 705
f 687 705 706
f 687 706 707
f 687 707 688
f 688 707 689
f 689 707 708
f 689 708 709
f 689 709 690
f 690 709 691
f 691 709 710
f 691 710 711
f 691 711 692
f 692 711 693
f 693 711 712
f 693 712 715
f 693 715 713
f 693 713 694
f 696 714 715
f 696 715 712
f 696 712 711
f 696 711 697
f 697 711 710
f 697 710 698
f 698 710 699
f 699 710 709
f 699 709 700
f 700 709 708
f 700 708 707
f 700 707 701
f 701 707 706
f 701 706 702
f 702 706 703
f 703 706 705

