# https://github.com/mikedh/trimesh
v -28.88554156 8.10232684 20.00000006
v -29.40018743 8.10232684 20.00000006
v -29.71288234 4.09718351 20.00000006
v -28.88554156 8.10232684 -0.00000006
v -29.75305662 8.10232684 19.99021204
v -29.87465903 7.65378233 19.99021204
v -29.73242447 6.80335034 20.00000006
v -30.21775454 4.09718351 20.00000006
v -29.71288234 4.09718351 -0.00000006
v -29.40018743 8.10232684 -0.00000006
v -30.10375097 8.10232684 19.96671924
v -30.20146683 7.73729598 19.96671924
v -30.39147452 6.95430310 19.96671924
v -30.06249189 6.87863082 19.99021204
v -30.21666974 6.16738955 19.99021204
v -30.03535092 5.30950865 20.00000006
v -30.46204939 4.80999299 19.99021204
v -30.56302488 4.09718351 19.99021204
v -30.21775454 4.09718351 -0.00000006
v -29.73242447 6.80335034 -0.00000006
v -29.78454202 7.63064940 0.00587314
v -29.65751037 8.10232684 0.00587314
v -30.45227572 8.10232684 19.92560750
v -30.52719504 7.82080963 19.92560750
v -30.71937233 7.02919113 19.92560750
v -30.54782197 6.23522047 19.96671924
v -30.36867276 5.36832148 19.99021204
v -30.79537123 4.86292448 19.96671924
v -30.90394557 4.09718351 19.96671924
v -30.03535092 5.30950865 -0.00000006
v -30.46856344 4.09718351 0.00587314
v -30.36975756 4.79548601 0.00587314
v -30.12546793 6.14896156 0.00587314
v -29.97129008 6.85785068 0.00587314
v -30.21015570 6.91274218 0.01761889
v -30.02123281 7.69142192 0.01761889
v -29.91157368 8.10232684 0.01761889
v -30.79754606 8.10232684 19.86883324
v -30.85074842 7.90393213 19.86883324
v -31.04509532 7.10368734 19.86883324
v -30.87680459 6.30226647 19.92560750
v -31.03206724 5.48594650 19.92560750
v -30.70091501 5.42713399 19.96671924
v -31.12761348 4.91546383 19.92560750
v -31.24378666 4.09718351 19.92560750
v -30.27638614 5.35224597 0.00587314
v -30.71611270 4.09718351 0.01761889
v -30.61188281 4.83391020 0.01761889
v -30.51850617 5.39498329 0.01761889
v -30.36541834 6.19797204 0.01761889
v -30.53913832 6.98802266 0.05090035
v -30.34804583 7.77493622 0.05090035
v -30.26009843 8.10232684 0.05090035
v -31.07984036 8.10232684 19.80814416
v -31.17104217 7.98587725 19.79444068
v -31.36756390 7.17739929 19.79444068
v -31.52825058 6.43518306 19.79444068
v -31.20361239 6.36931313 19.86883324
v -31.36104986 5.54397507 19.86883324
v -31.45768091 4.96761105 19.86883324
v -31.53585464 4.09718351 19.87666417
v -31.05703861 4.09718351 0.05090035
v -30.94520465 4.88644955 0.05090035
v -30.85074842 5.45340367 0.05090035
v -30.69548577 6.26541050 0.05090035
v -31.02446839 6.33245716 0.09788530
v -30.86594611 7.06291068 0.09788530
v -30.67376882 7.85844987 0.09788530
v -30.39907336 8.10232684 0.06851995
v -31.14064157 8.10232684 19.79444068
v -31.18732989 8.10232684 19.78269428
v -31.48808151 8.06703940 19.70634334
v -31.68568805 7.25032697 19.70634334
v -31.84854954 6.50066119 19.70634334
v -31.68677285 5.60161183 19.79444068
v -32.00924143 5.65846367 19.70634334
v -31.78448871 5.01897400 19.79444068
v -31.58145294 4.09718351 19.86883324
v -31.88546419 4.09718351 19.80227096
v -31.34150252 4.09718351 0.09005437
v -31.27635688 4.93898890 0.09788530
v -31.18081585 5.51182404 0.09788530
v -31.50870845 5.56985261 0.16248984
v -31.35019138 6.39911136 0.16248984
v -31.19058430 7.13701444 0.16248984
v -30.60753837 8.10232684 0.09788530
v -30.99515259 7.94078745 0.16248984
v -30.95171869 8.10232684 0.16248984
v -31.47830784 8.10232684 19.70634334
v -31.62705645 8.10232684 19.65935839
v -31.79426238 8.10232684 19.60649960
v -32.00055256 7.32207857 19.60062705
v -32.16449887 6.56535570 19.60062705
v -32.10695729 5.06994515 19.70634334
v -32.32627556 5.71453189 19.60062705
v -32.42508143 5.12013203 19.60062705
v -31.94192097 4.09718351 19.78856748
v -31.39578968 4.09718351 0.09788530
v -31.60533950 4.99074399 0.16248984
v -31.92997769 5.04210694 0.24275625
v -31.83226183 5.62709691 0.24275625
v -31.67265996 6.46498194 0.24275625
v -31.51088327 7.21033458 0.24275625
v -31.31436154 8.02273322 0.24275625
v -31.29264459 8.10232684 0.24275625
v -31.81055009 8.10232684 19.60062705
v -32.13735789 8.10232684 19.48120598
v -32.30890825 7.39304591 19.48120598
v -32.47393936 6.62848102 19.48120598
v -32.63788566 5.76942405 19.48120598
v -32.24484742 4.09718351 19.70634334
v -32.57165521 4.09718351 19.60062705
v -32.73886114 5.16953464 19.48120598
v -32.61399910 4.09718351 19.58496518
v -31.73128635 4.09718351 0.16248984
v -32.04072684 4.09718351 0.23688305
v -32.08524033 4.09718351 0.24862945
v -32.25136146 5.09268595 0.33868387
v -32.06461340 4.09718351 0.24275625
v -32.15255558 5.68355760 0.33868387
v -31.99078411 6.52967580 0.33868387
v -31.82791740 7.28286980 0.33868387
v -31.62705645 8.10232684 0.33868387
v -32.45656684 8.10232684 19.34612369
v -32.61182949 7.46205291 19.34612369
v -32.77903542 6.69043027 19.34612369
v -32.94406652 5.82353128 19.34612369
v -33.04504201 5.21815298 19.34612369
v -33.19379061 4.17011119 19.34612369
v -32.88544014 4.13168669 19.48120598
v -32.88869455 4.09718351 19.48120598
v -32.39250600 4.09718351 0.33868387
v -32.71388978 4.10973015 0.45027401
v -32.56731600 5.14248069 0.45027401
v -32.46742532 5.73923336 0.45027401
v -32.30456382 6.59397785 0.45027401
v -32.13952750 7.35422960 0.45027401
v -31.95820868 8.10232684 0.45027401
v -32.76926175 8.10232684 19.19538019
v -32.90715188 7.52988318 19.19538019
v -33.07652742 6.75120344 19.19538019
v -33.24264854 5.87646309 19.19538019
v -33.34470883 5.26559525 19.19538019
v -33.20138946 4.09718351 19.34612369
v -33.49454224 4.20814324 19.19538019
v -33.50648552 4.09718351 19.19538019
v -32.71714941 4.09718351 0.45223175
v -33.02984431 4.09718351 0.57752537
v -33.02549988 4.14893860 0.57752537
v -32.87675127 5.19149117 0.57752537
v -32.77686059 5.79412486 0.57752537
v -32.61182949 6.65671136 0.57752537
v -32.44570836 7.42402021 0.57752537
v -32.28176206 8.10232684 0.57752537
v -33.07327300 8.10232684 19.02897418
v -33.19596022 7.59575311 19.02897418
v -33.36642578 6.81040809 19.02897418
v -33.53471652 5.92821818 19.02897418
v -33.63786161 5.31146899 19.02897418
v -33.78877982 4.24499922 19.02897418
v -33.80289271 4.09718351 19.02897418
v -33.32299188 4.09718351 0.71260765
v -33.33059594 4.18736278 0.72043793
v -33.18076253 5.23971771 0.72043793
v -33.07870224 5.84744848 0.72043793
v -32.91366592 6.71826815 0.72043793
v -32.74537519 7.49263540 0.72043793
v -32.51628324 8.10232684 0.68324165
v -33.36968020 8.10232684 18.85082241
v -33.47608492 7.66005516 18.85082241
v -33.64763528 6.86804485 18.85082241
v -33.81809562 5.97801292 18.85082241
v -33.92124072 5.35655878 18.85082241
v -34.07433376 4.28067911 18.85082241
v -34.09279108 4.09718351 18.85082241
v -33.82895410 4.09718351 19.01331296
v -33.35556731 4.09718351 0.72826887
v -33.62808794 4.22461089 0.87705528
v -33.47716972 5.28637571 0.87705528
v -33.37510943 5.89998784 0.87705528
v -33.20790350 6.77825706 0.87705528
v -33.03852797 7.55968206 0.87705528
v -32.69108802 8.10232684 0.76742353
v -32.59771660 8.10232684 0.72043793
v -33.65631893 8.10232684 18.65896652
v -33.74860555 7.72239687 18.65896652
v -33.92124072 6.92372061 18.65896652
v -34.09170628 6.02663159 18.65896652
v -34.19702098 5.40008005 18.65896652
v -34.35011402 4.31557442 18.65896652
v -34.37291056 4.09718351 18.65896652
v -33.64111602 4.09718351 0.87705528
v -33.91798630 4.26107473 1.04933385
v -33.76597807 5.33185764 1.04933385
v -33.66283298 5.95056685 1.04933385
v -33.49454224 6.83667809 1.04933385
v -33.32299188 7.62516018 1.04933385
v -33.20790350 8.10232684 1.04933385
v -32.90715188 8.10232684 0.87705528
v -33.93318400 8.10232684 18.45144875
v -34.01027292 7.78238578 18.45144875
v -34.18507770 6.97743604 18.45144875
v -34.35662806 6.07328927 18.45144875
v -34.46194276 5.44203343 18.45144875
v -34.61612061 4.34890185 18.45144875
v -34.64109197 4.09718351 18.45144875
v -33.93426880 4.09718351 1.04933385
v -34.21982273 4.09718351 1.23335946
v -34.19919059 4.29675430 1.23335946
v -34.04610276 5.37616317 1.23335946
v -33.94187286 5.99996978 1.23335946
v -33.77249211 6.89352993 1.23335946
v -33.59986216 7.68828550 1.23335946
v -33.35773692 8.10232684 1.14330439
v -34.19919059 8.10232684 18.23414298
v -34.26216662 7.84002189 18.23414298
v -34.43697140 7.02919113 18.23414298
v -34.61069137 6.11798726 18.23414298
v -34.71709609 5.48241828 18.23414298
v -34.87344354 4.38144468 18.23414298
v -34.90167454 4.09718351 18.23414298
v -34.45760354 4.09718351 1.40563803
v -34.47063163 4.33086567 1.43304564
v -34.31753859 5.41890017 1.43304564
v -34.21222389 6.04780354 1.43304564
v -34.04067352 6.94842208 1.43304564
v -33.86695355 7.74945049 1.43304564
v -33.62483352 8.10232684 1.32145615
v -33.49997148 8.10232684 1.23335946
v -34.45325911 8.10232684 18.00313242
v -34.50320184 7.89530585 18.00313242
v -34.68018144 7.07898587 18.00313242
v -34.85498622 6.16111606 18.00313242
v -34.96138573 5.52084213 18.00313242
v -35.11882320 4.41241930 18.00313242
v -35.10687992 4.09718351 18.04424481
v -34.49451819 4.09718351 1.43304564
v -34.73337859 4.36380096 1.64447887
v -34.57812116 5.46046142 1.64447887
v -34.47171643 6.09407006 1.64447887
v -34.30016607 7.00096143 1.64447887
v -34.12536129 7.80865513 1.64447887
v -33.78226578 8.10232684 1.43304564
v -34.69646394 8.10232684 17.76037611
v -39.97537315 7.49969315 12.99921692
v -35.15030861 4.09718351 18.00313242
v -34.75943998 4.09718351 1.64447887
v -34.97224420 4.09718351 1.83046157
v -34.98527229 4.39555952 1.86961623
v -34.82892483 5.50006200 1.86961623
v -34.72143531 6.13759132 1.86961623
v -34.54772055 7.05193225 1.86961623
v -34.37291056 7.86511581 1.86961623
v -34.31536898 8.10232684 1.86961623
v -34.05370161 8.10232684 1.64447887
v -34.92664590 8.10232684 17.50587340
v -39.97537315 4.09718351 12.99921692
v -35.38808942 4.09718351 17.76037611
v -35.14487937 8.10232684 17.24158203
v -35.35225958 8.10232684 16.96358653
v -35.53900763 8.10232684 16.68363394
v -35.71489722 8.10232684 16.38997657
v -35.85604697 8.10232684 16.12568520
v -35.87450430 8.10232684 16.09044665
v -36.02107808 8.10232684 15.78308580
v -36.15028456 8.10232684 15.46985110
v -36.26537293 8.10232684 15.14878645
v -36.34028703 8.10232684 14.90211435
v -36.36308879 8.10232684 14.82380600
v -36.42497480 8.10232684 14.57909163
v -36.44560695 8.10232684 14.49491008
v -36.51183739 8.10232684 14.16209870
v -36.56069532 8.10232684 13.82732991
v -36.59326553 8.10232684 13.49060306
v -36.60738364 8.10232684 13.24393129
v -36.60846844 8.10232684 13.16953808
v -39.97537315 7.49969315 7.00078308
v -35.01458809 4.09718351 1.86961623
v -35.21436945 4.09718351 2.06147213
v -35.22631273 4.42575021 2.10454160
v -34.37833980 8.10232684 1.92834757
v -39.97537315 4.09718351 7.00078308
v -36.60520881 8.10232684 6.76389964
v -36.60303921 8.10232684 6.66209850
v -36.57806784 8.10232684 6.32341424
v -36.56612456 8.10232684 6.22552856
v -36.53572395 8.10232684 5.98864513
v -36.49338007 8.10232684 5.74588882
v -36.47709236 8.10232684 5.65387601
v -36.45755023 8.10232684 5.56577899
v -36.40217304 8.10232684 5.32302269
v -36.38046131 8.10232684 5.24275628
v -36.31097123 8.10232684 4.99608451
v -36.20457172 8.10232684 4.67501952
v -36.08079448 8.10232684 4.35786968
v -36.05799273 8.10232684 4.30501154
v -35.94290435 8.10232684 4.04659336
v -35.78872651 8.10232684 3.74314798
v -35.62912464 8.10232684 3.46319474
v -35.61066732 8.10232684 3.43187166
v -35.43694735 8.10232684 3.15974936
v -35.24585485 8.10232684 2.89154252
v -35.22956714 8.10232684 2.87000746
v -35.02653137 8.10232684 2.61158928
v -34.80178386 8.10232684 2.35317111
v -34.56400305 8.10232684 2.10454160
v -35.25888294 4.09718351 2.10454160
f 1 2 7
f 1 7 16
f 1 16 8
f 1 8 3
f 1 3 9
f 1 9 4
f 1 4 10
f 1 10 22
f 1 22 37
f 1 37 53
f 1 53 69
f 1 69 86
f 1 86 88
f 1 88 105
f 1 105 123
f 1 123 138
f 1 138 154
f 1 154 168
f 1 168 184
f 1 184 183
f 1 183 199
f 1 199 198
f 1 198 214
f 1 214 229
f 1 229 228
f 1 228 243
f 1 243 255
f 1 255 254
f 1 254 281
f 1 281 306
f 1 306 305
f 1 305 304
f 1 304 303
f 1 303 302
f 1 302 301
f 1 301 300
f 1 300 299
f 1 299 298
f 1 298 297
f 1 297 296
f 1 296 295
f 1 295 294
f 1 294 293
f 1 293 292
f 1 292 291
f 1 291 290
f 1 290 289
f 1 289 288
f 1 288 287
f 1 287 286
f 1 286 285
f 1 285 284
f 1 284 283
f 1 283 276
f 1 276 275
f 1 275 274
f 1 274 273
f 1 273 272
f 1 272 271
f 1 271 270
f 1 270 269
f 1 269 268
f 1 268 267
f 1 267 266
f 1 266 265
f 1 265 264
f 1 264 263
f 1 263 262
f 1 262 261
f 1 261 260
f 1 260 259
f 1 259 256
f 1 256 244
f 1 244 230
f 1 230 215
f 1 215 200
f 1 200 185
f 1 185 169
f 1 169 155
f 1 155 139
f 1 139 124
f 1 124 107
f 1 107 106
f 1 106 91
f 1 91 90
f 1 90 89
f 1 89 71
f 1 71 70
f 1 70 54
f 1 54 38
f 1 38 23
f 1 23 11
f 1 11 5
f 1 5 2
f 2 5 6
f 2 6 7
f 3 8 18
f 3 18 29
f 3 29 45
f 3 45 61
f 3 61 78
f 3 78 79
f 3 79 97
f 3 97 111
f 3 111 112
f 3 112 114
f 3 114 131
f 3 131 144
f 3 144 146
f 3 146 161
f 3 161 176
f 3 176 175
f 3 175 191
f 3 191 206
f 3 206 221
f 3 221 236
f 3 236 246
f 3 246 258
f 3 258 257
f 3 257 282
f 3 282 307
f 3 307 279
f 3 279 278
f 3 278 248
f 3 248 247
f 3 247 237
f 3 237 222
f 3 222 208
f 3 208 207
f 3 207 192
f 3 192 177
f 3 177 162
f 3 162 148
f 3 148 147
f 3 147 132
f 3 132 117
f 3 117 119
f 3 119 116
f 3 116 115
f 3 115 98
f 3 98 80
f 3 80 62
f 3 62 47
f 3 47 31
f 3 31 19
f 3 19 9
f 4 9 19
f 4 19 30
f 4 30 20
f 4 20 10
f 5 11 6
f 6 11 12
f 6 12 13
f 6 13 14
f 6 14 7
f 7 14 15
f 7 15 16
f 8 16 17
f 8 17 18
f 10 20 21
f 10 21 22
f 11 23 12
f 12 23 24
f 12 24 25
f 12 25 13
f 13 25 26
f 13 26 14
f 14 26 15
f 15 26 27
f 15 27 16
f 16 27 17
f 17 27 28
f 17 28 29
f 17 29 18
f 19 31 32
f 19 32 30
f 20 30 33
f 20 33 34
f 20 34 21
f 21 34 35
f 21 35 36
f 21 36 37
f 21 37 22
f 23 38 39
f 23 39 24
f 24 39 40
f 24 40 25
f 25 41 26
f 25 40 41
f 26 41 42
f 26 42 43
f 26 43 27
f 27 43 28
f 28 43 44
f 28 44 45
f 28 45 29
f 30 32 46
f 30 46 33
f 31 47 48
f 31 48 32
f 32 48 49
f 32 49 46
f 33 46 49
f 33 49 50
f 33 50 35
f 33 35 34
f 35 50 51
f 35 51 36
f 36 51 52
f 36 52 37
f 37 52 53
f 38 54 39
f 39 54 55
f 39 55 56
f 39 56 40
f 40 56 57
f 40 57 58
f 40 58 41
f 41 58 59
f 41 59 42
f 42 44 43
f 42 59 60
f 42 60 44
f 44 60 61
f 44 61 45
f 47 62 48
f 48 62 63
f 48 63 49
f 49 63 64
f 49 64 50
f 50 64 65
f 50 65 51
f 51 65 66
f 51 66 67
f 51 67 68
f 51 68 69
f 51 69 52
f 52 69 53
f 54 70 55
f 55 70 71
f 55 71 72
f 55 72 56
f 56 72 73
f 56 73 74
f 56 74 57
f 57 75 59
f 57 59 58
f 57 74 76
f 57 76 75
f 59 75 77
f 59 77 60
f 60 78 61
f 60 77 79
f 60 79 78
f 62 80 63
f 63 80 81
f 63 81 64
f 64 81 82
f 64 82 66
f 64 66 65
f 66 82 83
f 66 83 84
f 66 84 85
f 66 85 67
f 67 85 68
f 68 86 69
f 68 85 87
f 68 87 88
f 68 88 86
f 71 89 72
f 72 89 90
f 72 90 91
f 72 91 73
f 73 91 92
f 73 92 74
f 74 92 93
f 74 93 76
f 75 76 77
f 76 94 77
f 76 93 95
f 76 95 96
f 76 96 94
f 77 94 97
f 77 97 79
f 80 98 81
f 81 98 99
f 81 99 82
f 82 99 83
f 83 99 100
f 83 100 101
f 83 101 102
f 83 102 84
f 84 102 85
f 85 102 103
f 85 103 104
f 85 104 87
f 87 104 88
f 88 104 105
f 91 106 92
f 92 106 107
f 92 107 108
f 92 108 93
f 93 108 109
f 93 109 110
f 93 110 95
f 94 111 97
f 94 96 112
f 94 112 111
f 95 110 113
f 95 113 96
f 96 113 114
f 96 114 112
f 98 115 99
f 99 115 116
f 99 116 100
f 100 117 118
f 100 118 101
f 100 116 119
f 100 119 117
f 101 118 120
f 101 120 102
f 102 120 121
f 102 121 122
f 102 122 103
f 103 122 104
f 104 122 123
f 104 123 105
f 107 124 125
f 107 125 108
f 108 125 126
f 108 126 109
f 109 126 110
f 110 126 127
f 110 127 113
f 113 127 128
f 113 128 129
f 113 129 130
f 113 130 114
f 114 130 131
f 117 132 118
f 118 132 133
f 118 133 134
f 118 134 120
f 120 134 135
f 120 135 136
f 120 136 121
f 121 136 122
f 122 136 137
f 122 137 138
f 122 138 123
f 124 139 125
f 125 139 140
f 125 140 141
f 125 141 126
f 126 141 127
f 127 141 142
f 127 142 143
f 127 143 128
f 128 143 129
f 129 144 130
f 129 143 145
f 129 145 146
f 129 146 144
f 130 144 131
f 132 147 133
f 133 148 149
f 133 149 134
f 133 147 148
f 134 149 150
f 134 150 151
f 134 151 135
f 135 151 136
f 136 151 152
f 136 152 153
f 136 153 137
f 137 153 154
f 137 154 138
f 139 155 156
f 139 156 140
f 140 156 141
f 141 156 157
f 141 157 158
f 141 158 142
f 142 158 159
f 142 159 143
f 143 159 145
f 145 159 160
f 145 160 146
f 146 160 161
f 148 162 149
f 149 162 163
f 149 163 164
f 149 164 150
f 150 164 151
f 151 164 165
f 151 165 166
f 151 166 152
f 152 166 153
f 153 166 167
f 153 167 168
f 153 168 154
f 155 169 156
f 156 169 170
f 156 170 157
f 157 170 171
f 157 171 172
f 157 172 158
f 158 172 159
f 159 172 173
f 159 173 174
f 159 174 160
f 160 174 175
f 160 175 176
f 160 176 161
f 162 177 163
f 163 177 178
f 163 178 179
f 163 179 164
f 164 179 180
f 164 180 165
f 165 180 166
f 166 180 181
f 166 181 182
f 166 182 167
f 167 182 183
f 167 183 184
f 167 184 168
f 169 185 186
f 169 186 170
f 170 186 171
f 171 186 187
f 171 187 172
f 172 187 188
f 172 188 189
f 172 189 173
f 173 189 174
f 174 189 190
f 174 190 191
f 174 191 175
f 177 192 178
f 178 192 193
f 178 193 194
f 178 194 179
f 179 194 180
f 180 194 195
f 180 195 196
f 180 196 181
f 181 196 182
f 182 196 197
f 182 197 198
f 182 198 199
f 182 199 183
f 185 200 186
f 186 200 201
f 186 201 202
f 186 202 187
f 187 202 188
f 188 202 203
f 188 203 189
f 189 203 204
f 189 204 190
f 190 204 205
f 190 205 191
f 191 205 206
f 192 207 193
f 193 207 208
f 193 208 209
f 193 209 210
f 193 210 194
f 194 210 195
f 195 210 211
f 195 211 212
f 195 212 196
f 196 212 213
f 196 213 197
f 197 213 214
f 197 214 198
f 200 215 201
f 201 215 216
f 201 216 202
f 202 216 217
f 202 217 218
f 202 218 203
f 203 218 219
f 203 219 204
f 204 219 220
f 204 220 205
f 205 220 221
f 205 221 206
f 208 222 209
f 209 222 223
f 209 223 224
f 209 224 210
f 210 224 211
f 211 224 225
f 211 225 212
f 212 225 226
f 212 226 227
f 212 227 213
f 213 227 228
f 213 228 229
f 213 229 214
f 215 230 231
f 215 231 216
f 216 231 232
f 216 232 217
f 217 232 218
f 218 232 233
f 218 233 219
f 219 233 234
f 219 234 235
f 219 235 220
f 220 235 236
f 220 236 221
f 222 237 223
f 223 237 238
f 223 238 224
f 224 238 239
f 224 239 225
f 225 239 240
f 225 240 241
f 225 241 226
f 226 241 242
f 226 242 227
f 227 243 228
f 227 242 243
f 230 244 245
f 230 245 231
f 231 245 232
f 232 245 233
f 233 245 234
f 234 245 235
f 235 246 236
f 235 245 246
f 237 247 238
f 238 247 248
f 238 248 249
f 238 249 250
f 238 250 239
f 239 250 240
f 240 250 251
f 240 251 241
f 241 251 252
f 241 252 253
f 241 253 242
f 242 253 254
f 242 254 255
f 242 255 243
f 244 256 245
f 245 257 258
f 245 258 246
f 245 256 259
f 245 259 260
f 245 260 261
f 245 261 262
f 245 262 263
f 245 263 264
f 245 264 265
f 245 265 266
f 245 266 267
f 245 267 268
f 245 268 269
f 245 269 270
f 245 270 271
f 245 271 272
f 245 272 273
f 245 273 274
f 245 274 275
f 245 275 276
f 245 276 277
f 245 277 282
f 245 282 257
f 248 278 249
f 249 278 279
f 249 279 280
f 249 280 277
f 249 277 250
f 250 277 251
f 251 277 252
f 252 277 253
f 253 277 254
f 254 277 281
f 276 283 277
f 277 283 284
f 277 284 285
f 277 285 286
f 277 286 287
f 277 287 288
f 277 288 289
f 277 289 290
f 277 290 291
f 277 291 292
f 277 292 293
f 277 293 294
f 277 294 295
f 277 295 296
f 277 296 297
f 277 297 298
f 277 298 299
f 277 299 300
f 277 300 301
f 277 301 302
f 277 302 303
f 277 303 304
f 277 304 305
f 277 305 306
f 277 306 281
f 277 280 307
f 277 307 282
f 279 307 280

