# https://github.com/mikedh/trimesh
v -24.78657112 16.88194200 -0.00000006
v -24.78657112 17.76858456 -0.00000006
v -11.02579951 27.88893990 -0.00000006
v -24.78657112 16.88194200 20.00000006
v -24.78657112 18.18779372 0.00587314
v -24.73538190 17.84278154 -0.00000006
v -11.02579951 28.42686214 -0.00000006
v -11.02579951 27.88893990 20.00000006
v -24.78657112 17.76858456 20.00000006
v -24.54140007 18.51982083 0.00587314
v -24.78657112 18.59958135 0.01761889
v -24.73807827 18.66821349 0.01761889
v -23.81395519 19.05774307 -0.00000006
v -11.76671579 28.13749574 -0.00000006
v -11.41646475 28.54742929 0.00587314
v -11.02579951 28.59936692 0.00391541
v -11.02579951 28.42686214 20.00000006
v -24.73538190 17.84278154 20.00000006
v -24.78657112 18.34360529 19.99021204
v -24.00524586 19.20984518 0.00587314
v -24.78657112 18.70531067 0.02349209
v -24.19653654 19.36380267 0.01761889
v -23.59707251 19.71066892 0.00587314
v -22.83190981 20.22262365 -0.00000006
v -13.15828532 27.51610354 -0.00000006
v -12.81342179 27.94829644 0.00587314
v -12.91580021 28.17088477 0.01761889
v -11.50806814 28.77372839 0.01761889
v -11.02579951 28.74033935 0.01174569
v -11.76671579 28.13749574 20.00000006
v -11.02579951 28.65501530 19.99412686
v -23.81395519 19.05774307 20.00000006
v -24.61683571 18.57546791 19.99021204
v -24.78657112 18.90749633 19.96671924
v -24.78657112 19.15419810 0.05090035
v -24.46057171 19.57526132 0.05090035
v -23.78432125 19.86833587 0.01761889
v -23.19832340 20.54908592 0.01761889
v -23.01511660 20.38585413 0.00587314
v -22.59347185 20.85329015 0.00587314
v -21.79193690 21.33927476 -0.00000006
v -14.51617375 26.82422511 -0.00000006
v -14.17939410 27.28053145 0.00587314
v -14.29255277 27.49755494 0.01761889
v -13.05725247 28.47694308 0.05090035
v -11.63335264 29.08720821 0.05090035
v -11.02579951 29.31350470 0.05090035
v -13.15828532 27.51610354 20.00000006
v -11.45149142 28.63275595 19.99021204
v -12.85249040 28.03176641 19.99021204
v -11.02579951 29.15212959 19.96671924
v -22.83190981 20.22262365 20.00000006
v -23.66846621 19.77002546 19.99021204
v -24.07799035 19.26920302 19.99021204
v -24.34202552 19.48066168 19.96671924
v -24.60470989 19.69026625 19.92560750
v -24.78657112 19.45469286 19.92560750
v -24.78657112 19.69953924 0.09788530
v -24.72191051 19.78486590 0.09788530
v -24.30161133 20.29867340 0.09788530
v -24.04296368 20.08350529 0.05090035
v -23.45158353 20.77167425 0.05090035
v -22.77398229 21.01837602 0.01761889
v -23.02185491 21.24838457 0.05090035
v -22.14353353 21.68243155 0.01761889
v -21.96841061 21.50992546 0.00587314
v -20.69942921 22.40028009 -0.00000006
v -21.53464004 21.94397375 0.00587314
v -15.83904073 26.06556863 -0.00000006
v -15.51034495 26.54598840 0.00587314
v -15.63427866 26.75744705 0.01761889
v -15.80536485 27.04866752 0.05090035
v -14.44881678 27.79619433 0.05090035
v -14.60238963 28.09483372 0.09788530
v -13.19600314 28.78114730 0.09788530
v -11.75728634 29.39883135 0.09788530
v -11.02579951 29.67150062 0.09788530
v -14.51617375 26.82422511 20.00000006
v -14.22250465 27.36214735 19.99021204
v -11.57677069 28.94623578 19.96671924
v -12.99393743 28.33968140 19.96671924
v -11.02579951 29.51012552 19.92560750
v -11.70205519 29.25971299 19.92560750
v -21.79193690 21.33927476 20.00000006
v -22.66217440 20.91635615 19.99021204
v -23.08516473 20.44706605 19.99021204
v -23.33842486 20.67150846 19.96671924
v -23.92711386 19.98704895 19.96671924
v -24.18576151 20.20221837 19.92560750
v -24.44171280 20.41738778 19.86883324
v -24.78657112 19.99447048 19.86883324
v -24.78657112 20.23004256 0.16248984
v -24.55621704 20.51198743 0.16248984
v -23.95136029 21.21499553 0.16248984
v -23.70214731 20.99426258 0.09788530
v -23.26837674 21.47468235 0.09788530
v -22.62445658 22.15357833 0.09788530
v -22.38466784 21.91800363 0.05090035
v -21.70707181 22.11833522 0.01761889
v -21.94281340 22.35947214 0.05090035
v -19.55438152 23.40749241 -0.00000006
v -20.86512268 22.58206047 0.00587314
v -20.42461902 22.98271842 0.00587314
v -21.03216693 22.76198678 0.01761889
v -17.12149352 25.24199076 -0.00000006
v -16.80357277 25.74838065 0.00587314
v -16.93828672 25.95427446 0.01761889
v -17.12283909 26.23621933 0.05090035
v -15.97374946 27.33803391 0.09788530
v -16.14213929 27.62554362 0.16248984
v -14.75596249 28.38976234 0.16248984
v -13.33475381 29.08349745 0.16248984
v -11.88122004 29.70860042 0.16248984
v -11.02579951 30.02578840 0.16248984
v -15.83904073 26.06556863 20.00000006
v -15.55749223 26.62575021 19.99021204
v -14.37876865 27.66264081 19.96671924
v -15.72857842 26.91882476 19.96671924
v -13.13403368 28.64573970 19.92560750
v -11.02579951 29.86626737 19.86883324
v -11.82598889 29.56948206 19.86883324
v -20.69942921 22.40028009 20.00000006
v -21.60064623 22.01074921 19.99021204
v -22.03441679 21.57670222 19.99021204
v -22.27555111 21.81227431 19.96671924
v -22.91004181 21.14450932 19.96671924
v -23.15790921 21.37266248 19.92560750
v -23.59033421 20.89409810 19.92560750
v -24.08741981 21.33556530 19.79444068
v -24.69496772 20.62884644 19.79444068
v -24.78657112 20.25786676 19.83163696
v -23.83955240 21.11668643 19.86883324
v -24.78657112 20.74755952 0.24275625
v -24.19788212 21.43387441 0.24275625
v -23.51220220 21.70098014 0.16248984
v -22.86154896 22.38543965 0.16248984
v -22.41161063 22.83618115 0.16248984
v -22.17856020 22.59875499 0.09788530
v -21.26117542 23.00868854 0.05090035
v -18.35949019 24.35534820 -0.00000006
v -19.71199110 23.59669171 0.00587314
v -19.26340356 23.96396324 0.00587314
v -20.58627054 23.16449881 0.01761889
v -19.86826032 23.78403693 0.01761889
v -20.81123710 23.41676801 0.05090035
v -18.05504084 24.88585152 0.00587314
v -17.25889862 25.44603050 0.00587314
v -17.39630371 25.64821616 0.01761889
v -17.58624882 25.92830695 0.05090035
v -17.77484313 26.20468698 0.09788530
v -17.30604589 26.51445605 0.09788530
v -17.48790711 26.79454684 0.16248984
v -16.30783796 27.90934257 0.24275625
v -14.90818456 28.68098281 0.24275625
v -13.47215891 29.38399091 0.24275625
v -12.00380817 30.01280464 0.24275625
v -11.02579951 30.37636541 0.24275625
v -17.12149352 25.24199076 20.00000006
v -16.85476720 25.82628578 19.99021204
v -14.53368708 27.96128020 19.92560750
v -17.03931957 26.11008734 19.96671924
v -15.89831382 27.20819116 19.92560750
v -13.27278957 28.94808985 19.86883324
v -14.68725994 28.25806551 19.86883324
v -11.02579951 30.07216118 19.82576376
v -11.94857702 29.87554036 19.79444068
v -13.41019467 29.24858332 19.79444068
v -19.55438152 23.40749241 20.00000006
v -20.48523769 23.05135056 19.99021204
v -20.92843771 22.65069261 19.99021204
v -21.15879178 22.89739437 19.96671924
v -21.83639303 22.25188613 19.96671924
v -22.51668543 22.04784900 19.92560750
v -22.75512338 22.28156701 19.86883324
v -23.40308547 21.59896158 19.86883324
v -24.78657112 20.70489749 19.76311695
v -23.64556536 21.82340398 19.79444068
v -24.33259606 21.55258879 19.70634334
v -24.78657112 20.51569819 19.79444068
v -24.78657112 21.24652918 0.33868387
v -24.44171280 21.64904382 0.33868387
v -23.75468209 21.92356847 0.24275625
v -23.09729055 22.61544950 0.24275625
v -22.64196470 23.07175584 0.24275625
v -21.71380490 23.50023799 0.16248984
v -21.48883834 23.25539030 0.09788530
v -18.50767553 24.55196902 0.00587314
v -19.41697642 24.15501922 0.01761889
v -20.08514300 24.04372506 0.05090035
v -21.03351250 23.66717793 0.09788530
v -18.19918424 25.08432642 0.01761889
v -18.39720801 25.35699569 0.05090035
v -18.59389141 25.62966757 0.09788530
v -18.78921881 25.89862868 0.16248984
v -17.95940071 26.47921294 0.16248984
v -18.14395308 26.75188482 0.24275625
v -17.66707197 27.06907280 0.24275625
v -17.84489125 27.34174207 0.33868387
v -16.47218585 28.18943337 0.33868387
v -15.05771548 28.97034921 0.33868387
v -13.60821843 29.67892215 0.33868387
v -12.12369993 30.31515479 0.33868387
v -11.02579951 30.72323166 0.33868387
v -18.35949019 24.35534820 20.00000006
v -17.31143862 25.52208155 19.99021204
v -18.11027721 24.96190257 19.99021204
v -16.06670365 27.49755494 19.86883324
v -17.50137851 25.80217235 19.96671924
v -17.22387195 26.38832144 19.92560750
v -17.68997282 26.08040906 19.92560750
v -14.84082758 28.55114006 19.79444068
v -16.23374268 27.78321058 19.79444068
v -11.02579951 30.21869846 19.79444068
v -12.06981435 30.17974459 19.70634334
v -13.54625419 29.54722270 19.70634334
v -19.32133108 24.03630354 19.99021204
v -19.77126420 23.66717793 19.99021204
v -19.98815209 23.92686605 19.96671924
v -20.71020424 23.30361716 19.96671924
v -20.93382522 23.55588377 19.92560750
v -21.38645470 23.14595021 19.92560750
v -22.07213983 22.49116898 19.92560750
v -22.30653584 22.73045182 19.86883324
v -22.99087018 22.51342833 19.79444068
v -24.78657112 21.02394085 19.70634334
v -23.88535410 22.04599231 19.70634334
v -24.12244648 22.26487249 19.60062705
v -24.57373038 21.76590282 19.60062705
v -24.78657112 21.73622325 0.45027401
v -24.68015075 21.86050247 0.45027401
v -24.22752127 22.36132622 0.45027401
v -23.99312004 22.14430273 0.33868387
v -23.32899541 22.84360267 0.33868387
v -22.86962762 23.30361716 0.33868387
v -22.15835050 23.98065776 0.33868387
v -21.93742588 23.74137491 0.24275625
v -21.47402138 24.16243814 0.24275625
v -21.25443712 23.91573638 0.16248984
v -18.65585566 24.74673316 0.01761889
v -19.62847158 24.41655882 0.05090035
v -18.85792136 25.01754835 0.05090035
v -20.29933453 24.29969981 0.09788530
v -19.83862117 24.67810102 0.09788530
v -20.51352605 24.55567718 0.16248984
v -19.05999228 25.28465539 0.09788530
v -19.26071241 25.54990575 0.16248984
v -18.98320585 26.16573311 0.24275625
v -18.32715988 27.02084333 0.33868387
v -18.01866859 27.60884911 0.45027401
v -16.63249180 28.46581340 0.45027401
v -15.20589560 29.25414816 0.45027401
v -13.74023601 29.97014001 0.45027401
v -12.24224612 30.61193749 0.45027401
v -11.02579951 31.06453568 0.45027401
v -18.56425226 24.62616339 19.99021204
v -18.30830097 25.23457184 19.96671924
v -18.76766875 24.89512451 19.96671924
v -17.58624882 26.94664896 19.79444068
v -17.40573317 26.66841224 19.86883324
v -18.50497916 25.50724372 19.92560750
v -17.87722677 26.35678910 19.86883324
v -18.70165735 25.77805892 19.86883324
v -14.99035850 28.84050384 19.70634334
v -16.39809057 28.06515545 19.70634334
v -11.02579951 30.56742139 19.70634334
v -12.18971133 30.47838397 19.60062705
v -13.68096292 29.83844317 19.60062705
v -15.13988942 29.12615947 19.60062705
v -19.53282624 24.29969981 19.96671924
v -19.74432662 24.56124201 19.92560750
v -20.20368919 24.18469749 19.92560750
v -20.41788071 24.44067225 19.86883324
v -21.15610063 23.80444221 19.86883324
v -21.61277205 23.39079790 19.86883324
v -21.83773860 23.63379151 19.79444068
v -22.53824070 22.96602651 19.79444068
v -22.76724920 23.19974452 19.70634334
v -23.22526619 22.74158150 19.70634334
v -24.78657112 21.51734568 19.60062705
v -23.45562547 22.96602651 19.60062705
v -23.68193761 23.18861485 19.48120598
v -24.35549691 22.48003930 19.48120598
v -24.78657112 21.95510343 19.49295238
v -24.78657112 22.21108079 0.57752537
v -24.45922613 22.57464156 0.57752537
v -23.55800390 23.06619100 0.45027401
v -23.09324861 23.53177033 0.45027401
v -22.37523839 24.21437576 0.45027401
v -21.90105364 24.64471199 0.45027401
v -21.68955848 24.40543175 0.33868387
v -20.93247965 25.05835630 0.33868387
v -20.72367564 24.80794378 0.24275625
v -20.04607961 24.93778914 0.16248984
v -20.25218725 25.19376390 0.24275625
v -19.45873618 25.81330203 0.24275625
v -19.65406880 26.07299015 0.33868387
v -19.17314574 26.42542124 0.33868387
v -19.36174527 26.68510675 0.45027401
v -18.50632474 27.28424221 0.45027401
v -18.18975478 27.87224539 0.57752537
v -16.79145217 28.73663120 0.57752537
v -15.35003901 29.53238487 0.57752537
v -13.87225360 30.25579564 0.57752537
v -12.35944673 30.90315796 0.57752537
v -11.02579951 31.39841817 0.57752537
v -18.96973446 25.16408563 19.92560750
v -17.76541367 27.21931823 19.70634334
v -18.24498594 26.90027617 19.70634334
v -18.06177914 26.62946098 19.79444068
v -18.89564440 26.04516596 19.79444068
v -19.36982915 25.69458894 19.79444068
v -19.17045459 25.43119267 19.86883324
v -16.56109288 28.34339216 19.60062705
v -17.94053659 27.49013603 19.60062705
v -11.02579951 30.91057688 19.60062705
v -11.02579951 31.18881360 19.50274104
v -12.30690673 30.77331521 19.48120598
v -13.81298050 30.12780696 19.48120598
v -15.28537840 29.40810695 19.48120598
v -19.95312542 24.82092753 19.86883324
v -20.16058385 25.07876158 19.79444068
v -20.62937587 24.69479553 19.79444068
v -21.37567967 24.05299805 19.79444068
v -22.06001401 23.87307435 19.70634334
v -22.27824748 24.11050051 19.60062705
v -22.99221575 23.42975177 19.60062705
v -23.21449116 23.65604825 19.48120598
v -23.43272462 23.87678251 19.34612369
v -23.90286744 23.40563834 19.34612369
v -24.78657112 22.04970308 19.46750250
v -24.78657112 22.00147621 19.48120598
v -24.58315983 22.68964387 19.34612369
v -24.78657112 22.46520147 19.34612369
v -24.78657112 22.66924120 0.72043793
v -24.68419269 22.78238945 0.72043793
v -24.00120392 23.50209206 0.72043793
v -23.78162488 23.28692265 0.57752537
v -23.31282765 23.75621535 0.57752537
v -22.58808434 24.44623709 0.57752537
v -22.10985765 24.87842999 0.57752537
v -21.33930743 25.54434091 0.57752537
v -21.13724172 25.30320399 0.45027401
v -20.45694932 25.44788718 0.33868387
v -19.84670505 26.32711083 0.45027401
v -19.54629764 26.93923004 0.57752537
v -18.68279845 27.54392773 0.57752537
v -18.85523021 27.79990509 0.72043793
v -18.35814461 28.13007683 0.72043793
v -16.94637060 29.00373563 0.72043793
v -15.49283162 29.80505414 0.72043793
v -14.00022924 30.53403236 0.72043793
v -12.47395098 31.18881360 0.72043793
v -11.02579951 31.72673583 0.72043793
v -18.42550159 27.16552652 19.60062705
v -19.08828065 26.31041631 19.70634334
v -19.56650734 25.95613115 19.70634334
v -20.36534593 25.33473633 19.70634334
v -16.72005326 28.61606143 19.48120598
v -18.11296836 27.75538638 19.48120598
v -18.60332087 27.42892280 19.48120598
v -11.02579951 31.24817014 19.48120598
v -11.02579951 31.58019856 19.34612369
v -12.42275655 31.06082492 19.34612369
v -13.94230172 30.40975444 19.34612369
v -15.42817101 29.68263030 19.34612369
v -16.87766805 28.88502255 19.34612369
v -20.83952546 24.94520806 19.70634334
v -21.59256756 24.29599166 19.70634334
v -21.80675387 24.53712858 19.60062705
v -22.01690346 24.77455735 19.48120598
v -22.49378458 24.34236445 19.48120598
v -22.70393416 24.57051761 19.34612369
v -22.91004181 24.79310594 19.19538019
v -23.64421979 24.09380600 19.19538019
v -24.11975011 23.61709699 19.19538019
v -24.78657112 22.91594297 19.19538019
v -24.78657112 22.87698910 0.79287341
v -24.21539545 23.71169664 0.87705528
v -23.73851955 24.19026233 0.87705528
v -23.52836996 23.97509292 0.72043793
v -22.79688314 24.67253618 0.72043793
v -22.31461972 25.10843985 0.72043793
v -21.53598562 25.77991299 0.72043793
v -21.04563832 26.18057355 0.72043793
v -20.85299686 25.94129071 0.57752537
v -20.65631866 25.69644302 0.45027401
v -20.03529936 26.57752335 0.57752537
v -20.22120252 26.82237104 0.72043793
v -19.72681329 27.18778588 0.72043793
v -19.90328178 27.43077949 0.87705528
v -19.02362004 28.04846093 0.87705528
v -18.52249250 28.38048935 0.87705528
v -17.09859267 29.26156968 0.87705528
v -15.63023672 30.07216118 0.87705528
v -14.12551373 30.80670163 0.87705528
v -12.58441329 31.46890439 0.87705528
v -11.02579951 31.74713850 0.73022660
v -19.46277812 26.82607919 19.48120598
v -19.27687496 26.56824775 19.60062705
v -19.76048917 26.21396258 19.60062705
v -20.56741163 25.58514886 19.60062705
v -21.04563832 25.19376390 19.60062705
v -18.28270376 28.01507190 19.34612369
v -18.77844378 27.68490016 19.34612369
v -19.64598492 27.07649171 19.34612369
v -11.02579951 31.89182170 19.20125339
v -12.53456965 31.34276979 19.19538019
v -14.06893179 30.68613447 19.19538019
v -15.56827247 29.95344810 19.19538019
v -17.02989012 29.14656475 19.19538019
v -18.44840243 28.26919518 19.19538019
v -22.22301632 25.00641868 19.34612369
v -21.24904960 25.43675750 19.48120598
v -22.42508203 25.23271777 19.19538019
v -22.62176022 25.45530610 19.02897418
v -23.11076194 25.01198351 19.02897418
v -23.85167301 24.30526465 19.02897418
v -24.33125049 23.82484488 19.02897418
v -24.78657112 23.23313095 19.07400204
v -24.78657112 23.11070710 0.87705528
v -24.42554504 23.91573638 1.04933385
v -23.94327641 24.39801022 1.04933385
v -23.19967419 25.10658316 1.04933385
v -23.00164521 24.89141636 0.87705528
v -22.51398906 25.33288226 0.87705528
v -21.72862187 26.00992285 0.87705528
v -21.23423263 26.41429156 0.87705528
v -20.40171817 27.06165127 0.87705528
v -20.57818666 27.29536928 1.04933385
v -20.07436797 27.66820565 1.04933385
v -19.18796793 28.28959785 1.04933385
v -18.68145287 28.62533703 1.04933385
v -17.24542722 29.51383367 1.04933385
v -15.76495066 30.33184670 1.04933385
v -14.24675107 31.07380867 1.04933385
v -11.02579951 32.04763457 0.87705528
v -12.69353002 31.73971958 1.04933385
v -20.13768300 26.71293095 19.34612369
v -19.95177984 26.46437250 19.48120598
v -20.76543540 25.83185062 19.48120598
v -18.94817919 27.93716677 19.19538019
v -19.82380420 27.32319348 19.19538019
v -11.02579951 32.08843991 19.09945192
v -12.64503196 31.61914982 19.02897418
v -14.19286549 30.95509559 19.02897418
v -15.70567757 30.21498770 19.02897418
v -17.17942104 29.40254211 19.02897418
v -18.61139953 28.51775102 19.02897418
v -21.44842416 25.67418367 19.34612369
v -21.64240599 25.90790167 19.19538019
v -20.95942244 26.07484423 19.34612369
v -21.83235109 26.13420077 19.02897418
v -22.81305090 25.67047551 18.85082241
v -23.30609456 25.22158809 18.85082241
v -24.05374393 24.51116107 18.85082241
v -24.53735813 24.02703054 18.85082241
v -24.78657112 23.34628180 19.02897418
v -24.78657112 23.53548110 1.04933385
v -24.78657112 23.94726872 1.23335946
v -24.62761074 24.11421128 1.23335946
v -24.14265096 24.60019588 1.23335946
v -23.39231044 25.31618774 1.23335946
v -22.70797610 25.55175982 1.04933385
v -21.91587061 26.23436525 1.04933385
v -21.41743943 26.64058805 1.04933385
v -21.59525871 26.86317898 1.23335946
v -20.74792206 27.52166837 1.23335946
v -20.24140701 27.89635882 1.23335946
v -19.34692830 28.52517255 1.23335946
v -18.83771688 28.86461988 1.23335946
v -17.38821983 29.76053804 1.23335946
v -15.89561746 30.58225922 1.23335946
v -14.36529726 31.33164011 1.23335946
v -11.10932425 32.32772276 1.04933385
v -11.02579951 32.35369287 1.04933385
v -12.79860482 32.00311586 1.23335946
v -11.20092764 32.59668648 1.23335946
v -20.32088980 26.95406787 19.19538019
v -21.15071312 26.31041631 19.19538019
v -19.11522344 28.18201445 19.02897418
v -19.99758154 27.56247632 19.02897418
v -20.49870908 27.19149664 19.02897418
v -11.02579951 32.22570419 19.02505871
v -11.06621370 32.20530152 19.02897418
v -12.75145233 31.88625686 18.85082241
v -14.31276247 31.21663779 18.85082241
v -15.83769515 30.47096506 18.85082241
v -17.32490480 29.65109795 18.85082241
v -18.76766875 28.75703387 18.85082241
v -19.27552938 28.41944322 18.85082241
v -21.33526549 26.54042356 19.02897418
v -21.51578113 26.76486857 18.85082241
v -22.01690346 26.35493502 18.85082241
v -22.99760327 25.87822340 18.65896652
v -23.49468887 25.42748190 18.65896652
v -24.24907655 24.70963597 18.65896652
v -24.73672748 24.22179468 18.65896652
v -24.78657112 23.76363426 18.85082241
v -24.78657112 23.54846485 18.94283522
v -24.78657112 24.27187823 1.39584936
v -24.33394164 24.79681410 1.43304564
v -23.57820839 25.51651672 1.43304564
v -23.07843164 25.96911490 1.43304564
v -22.89657041 25.76322109 1.23335946
v -22.09773183 26.45138875 1.23335946
v -21.76769048 27.07649171 1.43304564
v -20.91362074 27.74054855 1.43304564
v -20.40171817 28.11894715 1.43304564
v -19.50184152 28.75146903 1.43304564
v -18.98724779 29.09277305 1.43304564
v -17.52697572 29.99611013 1.43304564
v -16.02224752 30.82710691 1.43304564
v -14.47980151 31.58019856 1.43304564
v -12.90098324 32.25723654 1.43304564
v -11.02579951 32.37038739 1.05912251
v -11.28983468 32.85637200 1.43304564
v -11.02579951 32.65233226 1.23335946
v -20.16597137 27.79434025 18.85082241
v -20.67248642 27.42150389 18.85082241
v -11.02579951 32.51877874 18.85082241
v -11.16051346 32.47611672 18.85082241
v -11.25077128 32.73951299 18.65896652
v -12.85518155 32.14408830 18.65896652
v -14.42861229 31.46890439 18.65896652
v -15.96701637 30.71766682 18.65896652
v -17.46500626 29.89038080 18.65896652
v -18.91989082 28.99075188 18.65896652
v -19.43313897 28.64945047 18.65896652
v -20.33031926 28.02063674 18.65896652
v -21.69090405 26.98189206 18.65896652
v -22.19472274 26.56824775 18.65896652
v -23.17677334 26.07855238 18.45144875
v -23.67789567 25.62410273 18.45144875
v -24.43767086 24.90068935 18.45144875
v -24.78657112 24.47220720 18.49451888
v -24.78657112 24.27187823 18.60415064
v -24.78657112 24.16800298 18.65896652
v -24.78657112 24.12719503 18.67854385
v -24.78657112 24.34236445 1.43304564
v -24.78657112 24.38873723 1.45849617
v -24.51984480 24.98601601 1.64447887
v -23.75737846 25.71128346 1.64447887
v -23.25490534 26.16758980 1.64447887
v -22.27420554 26.66099332 1.43304564
v -22.44259536 26.86503306 1.64447887
v -21.93338394 27.28238553 1.64447887
v -21.07258111 27.95200720 1.64447887
v -20.55798218 28.33411656 1.64447887
v -19.65002686 28.97034921 1.64447887
v -19.13138598 29.31536138 1.64447887
v -17.66033888 30.22426330 1.64447887
v -16.14483565 31.06082492 1.64447887
v -14.59026381 31.82133548 1.64447887
v -12.99932495 32.50394091 1.64447887
v -11.02579951 32.98621476 1.46828484
v -11.02579951 32.93984197 1.43304564
v -11.37605056 33.10678452 1.64447887
v -20.83952546 27.64409222 18.65896652
v -11.02579951 32.54474625 18.83516055
v -11.02579951 32.81185329 18.65896652
v -11.33833274 32.99548775 18.45144875
v -12.95486882 32.39450082 18.45144875
v -14.54042017 31.71374947 18.45144875
v -16.09095007 30.95694967 18.45144875
v -17.60106578 30.12409881 18.45144875
v -19.06672537 29.21705097 18.45144875
v -19.58401546 28.87203880 18.45144875
v -20.48792884 28.23766023 18.45144875
v -21.00252777 27.85740495 18.45144875
v -21.85929388 27.19149664 18.45144875
v -22.36715451 26.77414156 18.45144875
v -22.53419876 26.97261646 18.23414298
v -23.34785432 26.27146244 18.23414298
v -23.85302380 25.81515610 18.23414298
v -24.78657112 24.55011234 18.45144875
v -24.61818129 25.08618049 18.23414298
v -24.78657112 24.91738386 18.23414298
v -24.78657112 24.71705489 1.64447887
v -24.78657112 24.97488633 1.80501169
v -24.69766408 25.16593970 1.86961623
v -23.92981023 25.89677200 1.86961623
v -23.42329517 26.35678910 1.86961623
v -22.60559246 27.05979720 1.86961623
v -22.09234431 27.48086043 1.86961623
v -21.22614875 28.15419026 1.86961623
v -20.70616230 28.53815630 1.86961623
v -19.79281947 29.17995378 1.86961623
v -19.27014187 29.52682003 1.86961623
v -17.78831452 30.44499755 1.86961623
v -16.26203626 31.28526732 1.86961623
v -14.69533861 32.05134273 1.86961623
v -13.09362471 32.73951299 1.86961623
v -11.02579951 33.21622200 1.64447887
v -11.45822451 33.34606737 1.86961623
v -11.02579951 33.41655359 1.81284262
v -11.02579951 33.09379816 18.45144875
v -11.02579951 33.14758986 18.40837928
v -11.02579951 33.36461596 18.23414298
v -11.42185226 33.23848136 18.23414298
v -13.05051416 32.63378367 18.23414298
v -14.64819133 31.94932416 18.23414298
v -16.20949626 31.18510284 18.23414298
v -17.73173779 30.34668714 18.23414298
v -19.20817241 29.43222038 18.23414298
v -19.72950444 29.08720821 18.23414298
v -20.64015612 28.44726481 18.23414298
v -21.15744621 28.06515545 18.23414298
v -22.02094540 27.39182562 18.23414298
v -22.17586383 27.58473568 18.00313242
v -22.69315913 27.16181837 18.00313242
v -23.51354778 26.45509951 18.00313242
v -24.02141362 25.99693909 18.00313242
v -24.78657112 25.25868528 18.00900562
v -24.78657112 25.07690489 1.86961623
v -24.78657112 25.12327768 1.90093931
v -24.78657112 25.25868528 1.99295212
v -24.09415811 26.07669830 2.10454160
v -23.58494669 26.53671540 2.10454160
v -22.76186168 27.24528834 2.10454160
v -22.24456638 27.67005973 2.10454160
v -21.37163773 28.34895700 2.10454160
v -20.84896013 28.73477452 2.10454160
v -19.92887899 29.38213684 2.10454160
v -19.40350503 29.73085977 2.10454160
v -17.90955707 30.65459952 2.10454160
v -16.37384415 31.50229082 2.10454160
v -14.79637668 32.27207698 2.10454160
v -13.18387732 32.96395540 2.10454160
v -11.53770730 33.57607462 2.10454160
v -11.02579951 33.55196118 1.93226304
v -11.02579951 33.48332904 1.86961623
v -11.02579951 33.62430148 18.00313242
v -11.50268063 33.47405344 18.00313242
v -13.14346313 32.86379091 18.00313242
v -14.75192055 32.17376657 18.00313242
v -16.32400051 31.40583709 18.00313242
v -17.85701707 30.55999987 18.00313242
v -19.34423193 29.63996828 18.00313242
v -19.86826032 29.29124534 18.00313242
v -20.78564510 28.64759639 18.00313242
v -21.30697712 28.26363035 18.00313242
v -22.32404917 27.77022682 17.76037611
v -22.84403563 27.34359875 17.76037611
v -23.66981700 26.63316913 17.76037611
v -24.18171957 26.16944388 17.76037611
v -24.78657112 25.59442446 17.76037611
v -24.78657112 25.26981495 18.00117468
v -24.78657112 25.41635223 2.10454160
v -24.25176769 26.24549493 2.35317111
v -23.73851955 26.70922019 2.35317111
v -22.91004181 27.42335796 2.35317111
v -22.38870978 27.84998603 2.35317111
v -21.51039362 28.53259146 2.35317111
v -20.98501444 28.92211974 2.35317111
v -20.05820021 29.57319282 2.35317111
v -19.52878430 29.92376983 2.35317111
v -18.02675247 30.85307702 2.35317111
v -16.48026451 31.70633055 2.35317111
v -14.89336759 32.48168156 2.35317111
v -13.26874763 33.17912482 2.35317111
v -11.61314294 33.79495218 2.35317111
v -11.02579951 33.73745233 2.10454160
v -11.02579951 33.69849846 17.93069694
v -11.02579951 33.87285993 17.76037611
v -11.57946706 33.69664177 17.76037611
v -13.23102981 33.08452517 17.76037611
v -14.85025704 32.38893598 17.76037611
v -16.43311724 31.61544167 17.76037611
v -17.97421768 30.76403961 17.76037611
v -19.47355315 29.83844317 17.76037611
v -20.00027791 29.48786616 17.76037611
v -20.92439577 28.83864976 17.76037611
v -21.44976974 28.45097557 17.76037611
v -21.58448368 28.63090187 17.50587340
v -22.46549621 27.94458568 17.50587340
v -22.98817381 27.51610354 17.50587340
v -23.81934270 26.80011168 17.50587340
v -24.33394164 26.33452974 17.50587340
v -24.78657112 25.90419352 17.50587340
v -24.78657112 25.73539689 2.35317111
v -24.78657112 25.85225590 2.45301485
v -24.78657112 26.03774443 2.61158928
v -24.39994782 26.40501596 2.61158928
v -23.88400853 26.87245198 2.61158928
v -23.05014327 27.59030052 2.61158928
v -22.52611488 28.02063674 2.61158928
v -21.64240599 28.70880701 2.61158928
v -21.11299008 29.10019197 2.61158928
v -20.18078834 29.75311652 2.61158928
v -19.64868128 30.10740429 2.61158928
v -18.13721478 31.04227632 2.61158928
v -16.58130258 31.90109730 2.61158928
v -14.98362541 32.68201053 2.61158928
v -13.34957600 33.38130787 2.61158928
v -11.68319106 34.00084600 2.61158928
v -11.02579951 34.20859650 2.61158928
v -11.02579951 34.12326984 2.51566166
v -11.02579951 33.97858664 2.35317111
v -11.02579951 34.10657793 17.50587340
v -11.65221155 33.90995711 17.50587340
v -13.31454933 33.29227306 17.50587340
v -14.94321123 32.59297572 17.50587340
v -16.53684646 31.81391656 17.50587340
v -18.08737636 30.95880374 17.50587340
v -19.59614128 30.02578840 17.50587340
v -20.12690276 29.67335731 17.50587340
v -21.05641335 29.02043015 17.50587340
v -21.18034706 29.19293754 17.24158203
v -21.71110854 28.79969850 17.24158203
v -22.59751379 28.10967416 17.24158203
v -23.12423334 27.67933533 17.24158203
v -23.95944417 26.95777863 17.24158203
v -24.47808504 26.48848854 17.24158203
v -24.78657112 26.19541138 17.24158203
v -24.78657112 26.32154599 2.88175385
v -24.54004928 26.55526400 2.88175385
v -24.02006283 27.02640817 2.88175385
v -23.18216085 27.74796747 2.88175385
v -22.65543610 28.18016037 2.88175385
v -21.76634490 28.87203880 2.88175385
v -21.23423263 29.26527783 2.88175385
v -20.29664338 29.92376983 2.88175385
v -19.76183474 30.27990907 2.88175385
v -18.24094400 31.22034594 2.88175385
v -16.67559713 32.08287768 2.88175385
v -15.06983608 32.86935575 2.88175385
v -13.42635721 33.57236385 2.88175385
v -11.75054803 34.19561274 2.88175385
v -11.02579951 34.29577723 2.71926396
v -11.02579951 34.32916626 17.24158203
v -11.72091410 34.11028609 17.24158203
v -13.39268133 33.48889388 17.24158203
v -15.03211826 32.78588578 17.24158203
v -16.63383737 32.00311586 17.24158203
v -18.19514230 31.14058673 17.24158203
v -19.71199110 30.20385802 17.24158203
v -20.24544895 29.84957285 17.24158203
v -21.29754767 29.35245857 16.96750199
v -21.83100551 28.95921953 16.96750199
v -22.72279307 28.26548442 16.96750199
v -23.25086340 27.83143744 16.96750199
v -24.09146175 27.10616998 16.96750199
v -24.61279377 26.63502581 16.96750199
v -24.78657112 26.46808326 16.96750199
v -24.78657112 26.58679634 3.15974936
v -24.67072129 26.69623643 3.15974936
v -24.14803848 27.17109136 3.15974936
v -23.30609456 27.89635882 3.15974936
v -22.77533308 28.33040580 3.15974936
v -21.88219473 29.02599499 3.15974936
v -21.34739131 29.42294478 3.15974936
v -20.40440932 30.08329086 3.15974936
v -19.86690953 30.44128679 3.15974936
v -18.33793491 31.38543181 3.15974936
v -16.76450938 32.25352839 3.15974936
v -15.15066445 33.04371722 3.15974936
v -13.49775612 33.75229016 3.15974936
v -11.02579951 34.42561999 2.88175385
v -11.81386307 34.37739313 3.15974936
v -11.02579951 34.62780565 3.15974936
v -11.02579951 34.53691415 16.96750199
v -11.78557470 34.29763131 16.96750199
v -13.46677139 33.67252834 16.96750199
v -15.11429220 32.96581209 16.96750199
v -16.72544077 32.17933141 16.96750199
v -18.29482958 31.31309152 16.96750199
v -19.81976226 30.37080057 16.96750199
v -20.35726205 30.01280464 16.96750199
v -21.40666440 29.50270660 16.68363394
v -21.94281340 29.10575680 16.68363394
v -22.83864290 28.40831354 16.68363394
v -23.36940959 27.97426395 16.68363394
v -24.21539545 27.24528834 16.68363394
v -24.73807827 26.77043341 16.68363394
v -24.78657112 26.72406062 16.68363394
v -24.78657112 26.82422511 3.43578713
v -24.26658466 27.30464488 3.44753288
v -23.42059880 28.03362310 3.44753288
v -22.88714096 28.47137824 3.44753288
v -21.98996589 29.16882411 3.44753288
v -21.45246610 29.56762798 3.44753288
v -20.50544217 30.23168221 3.44753288
v -19.96525124 30.59153482 3.44753288
v -18.42819273 31.54124469 3.44753288
v -16.84802890 32.41304941 3.44753288
v -15.22475451 33.20694901 3.44753288
v -13.56511310 33.91923010 3.44753288
v -11.87179059 34.54804383 3.44753288
v -11.02579951 34.81514826 3.44753288
v -11.02579951 34.73167829 16.68363394
v -11.84619337 34.47199278 16.68363394
v -13.53547394 33.84503573 16.68363394
v -15.19242421 33.13460872 16.68363394
v -16.81165665 32.34256320 16.68363394
v -18.38777855 31.47261254 16.68363394
v -19.92214590 30.52475676 16.68363394
v -20.46099126 30.16676083 16.68363394
v -21.50635168 29.64182235 16.38997657
v -22.04654261 29.24301848 16.38997657
v -22.94641405 28.54186445 16.38997657
v -23.47987190 28.10410932 16.38997657
v -24.32855412 27.37327702 16.38997657
v -24.78657112 26.82422511 16.56029806
v -24.78657112 26.83349811 3.44753288
v -24.78657112 27.01528110 3.68833210
v -24.37705219 27.42706873 3.74314798
v -23.52567360 28.15975510 3.74314798
v -22.99087018 28.59936692 3.74314798
v -22.08964795 29.30052094 3.74314798
v -21.54945701 29.70118150 3.74314798
v -20.59839636 30.36894649 3.74314798
v -20.05415827 30.72879650 3.74314798
v -18.51171747 31.68407381 3.74314798
v -16.92346975 32.55958669 3.74314798
v -15.29345706 33.35719705 3.74314798
v -13.62573177 34.07133222 3.74314798
v -11.92567617 34.70385671 3.74314798
v -11.02579951 34.90232900 3.59631930
v -11.02579951 34.82071310 16.54072072
v -11.90142453 34.63522457 16.38997657
v -13.59878898 34.00455676 16.38997657
v -15.26382312 33.29041898 16.38997657
v -16.88978866 32.49466531 16.38997657
v -18.47534522 31.62100650 16.38997657
v -20.01509488 30.66943996 16.38997657
v -20.55663660 30.30773327 16.38997657
v -21.59930065 29.76981103 16.09044665
v -22.14084238 29.36915308 16.09044665
v -23.04475576 28.66428830 16.09044665
v -23.58090475 28.22467647 16.09044665
v -24.43228334 27.49013603 16.09044665
v -24.78657112 27.16923729 16.09044665
v -24.78657112 26.99116506 16.34299163
v -24.78657112 26.95777863 16.38997657
v -24.78657112 27.05608904 3.74314798
v -24.78657112 27.11173482 3.82537147
v -24.47673425 27.54021697 4.04659336
v -23.62266451 28.27661410 4.04659336
v -23.08516473 28.71622592 4.04659336
v -22.17990577 29.42109071 4.04659336
v -21.63701847 29.82174866 4.04659336
v -20.68191588 30.49322441 4.04659336
v -20.13633221 30.85493110 4.04659336
v -18.58715311 31.81391656 4.04659336
v -16.99351788 32.69314021 4.04659336
v -15.35677209 33.49260464 4.04659336
v -13.68230850 34.21045057 4.04659336
v -11.02579951 34.98765565 3.74314798
v -11.97416902 34.84482914 4.04659336
v -11.02579951 35.14532261 4.04659336
v -11.02579951 34.91160460 16.38997657
v -11.02579951 34.99693125 16.23531761
v -11.02579951 35.07669047 16.09044665
v -11.95261896 34.78361592 16.09044665
v -13.65671650 34.14923996 16.09044665
v -15.32848373 33.43324810 16.09044665
v -16.96253315 32.63378367 16.09044665
v -18.55347723 31.75641410 16.09044665
v -20.10131076 30.80113940 16.09044665
v -20.64554363 30.43757603 16.09044665
v -20.72502121 30.55629171 15.78308580
v -21.68282017 29.88481596 15.78308580
v -22.22570747 29.48230132 15.78308580
v -23.13366279 28.77558246 15.78308580
v -23.67116258 28.33411656 15.78308580
v -24.52792868 27.59771943 15.78308580
v -24.78657112 27.24714242 15.96711077
v -24.78657112 27.25827210 4.04659336
v -24.78657112 27.44190656 4.35786968
v -24.56699207 27.64038146 4.35786968
v -23.70888039 28.38048935 4.35786968
v -23.17003503 28.82195525 4.35786968
v -22.26207972 29.52867411 4.35786968
v -21.71784684 29.93118875 4.35786968
v -20.75870231 30.60451858 4.35786968
v -20.21042749 30.96807934 4.35786968
v -18.65585566 31.93077557 4.35786968
v -17.05548212 32.81370997 4.35786968
v -15.41335404 33.61688256 4.35786968
v -13.73215213 34.33658518 4.35786968
v -12.01862514 34.97281522 4.35786968
v -11.02579951 35.22508442 4.22082966
v -11.02579951 35.15830636 15.92208290
v -11.99842066 34.91716944 15.78308580
v -13.71060207 34.28279087 15.78308580
v -15.38775682 33.56309086 15.78308580
v -17.02854455 32.75991566 15.78308580
v -18.62622172 31.87883794 15.78308580
v -20.17809719 30.91985248 15.78308580
v -20.79642013 30.66202104 15.46985110
v -21.75691545 29.98683453 15.46985110
v -22.30249390 29.58432250 15.46985110
v -23.21314558 28.87574956 15.46985110
v -23.75333652 28.43242697 15.46985110
v -24.61144820 27.69231908 15.46985110
v -24.78657112 27.46602260 15.59318764
v -24.78657112 27.36214735 15.78308580
v -24.78657112 27.55320072 4.57517611
v -24.64647487 27.73127295 4.67501952
v -23.78701240 28.47137824 4.67501952
v -23.24547589 28.91470082 4.67501952
v -22.33347863 29.62513044 4.67501952
v -21.78789496 30.02949916 4.67501952
v -20.82605928 30.70468307 4.67501952
v -20.27643368 31.07010052 4.67501952
v -18.71647432 32.03464821 4.67501952
v -17.11071849 32.91943669 4.67501952
v -15.46319768 33.72632265 4.67501952
v -13.77660826 34.44787934 4.67501952
v -12.05768853 35.08782014 4.67501952
v -11.02579951 35.28629504 4.35786968
v -11.02579951 35.41428372 4.67501952
v -11.02579951 35.22508442 15.78308580
v -12.04018041 35.03773920 15.46985110
v -13.75774935 34.39965248 15.46985110
v -15.44164240 33.67809318 15.46985110
v -17.08646685 32.87306651 15.46985110
v -18.68953153 31.98827803 15.46985110
v -20.24814531 31.02558181 15.46985110
v -20.30876398 31.12018146 15.14878645
v -20.85973516 30.75290993 15.14878645
v -21.82292163 30.07772602 15.14878645
v -22.36985087 29.67335731 15.14878645
v -23.28319371 28.96292768 15.14878645
v -23.82473022 28.51775102 15.14878645
v -24.68553826 27.77578905 15.14878645
v -24.78657112 27.53279805 15.46985110
v -24.78657112 27.68490016 15.14878645
v -24.78657112 27.60328427 4.67501952
v -24.78657112 27.74611078 4.99608451
v -24.71652299 27.80917808 4.99608451
v -23.85436937 28.55299413 4.99608451
v -23.31148207 28.99817079 4.99608451
v -22.39679366 29.70860042 4.99608451
v -21.84986442 30.11482321 4.99608451
v -20.88533238 30.79186380 4.99608451
v -20.33436120 31.15728125 4.99608451
v -18.76901433 32.12368563 4.99608451
v -17.15921134 33.01218227 4.99608451
v -15.50630301 33.82092230 4.99608451
v -13.81567687 34.54618976 4.99608451
v -12.09136963 35.18613055 4.99608451
v -11.02579951 35.52372381 4.99608451
v -11.02579951 35.30113548 15.60493339
v -11.02579951 35.35863534 15.46985110
v -12.07655266 35.14346853 15.14878645
v -13.79950911 34.50352512 15.14878645
v -15.48744410 33.78011435 15.14878645
v -17.13900685 32.97323100 15.14878645
v -18.74611348 32.08473176 15.14878645
v -18.79460633 32.16820173 14.82380600
v -20.36130399 31.19994327 14.82380600
v -20.91362074 30.83267175 14.82380600
v -21.87949836 30.15563115 14.82380600
v -22.42777318 29.74940836 14.82380600
v -23.34381238 29.03712466 14.82380600
v -23.88669968 28.59194800 14.82380600
v -24.75019887 27.84813195 14.82380600
v -24.78657112 27.81474292 14.82380600
v -24.78657112 27.86296979 5.31519176
v -24.77579609 27.87595615 5.32302269
v -23.91094610 28.62162627 5.32302269
v -23.36671323 29.06680293 5.32302269
v -22.45067924 29.78094071 5.32302269
v -21.90239921 30.18716611 5.32302269
v -20.93517080 30.86420409 5.32302269
v -20.38285404 31.23147562 5.32302269
v -18.81347045 32.20159076 5.32302269
v -17.20097110 33.09194408 5.32302269
v -15.54402083 33.90253559 5.32302269
v -13.84935275 34.62965973 5.32302269
v -12.11965799 35.27145460 5.32302269
v -11.02579951 35.58122367 5.19772907
v -11.02579951 35.47549695 15.14878645
v -11.02579951 35.57751551 14.82380600
v -12.10753739 35.23435742 14.82380600
v -13.83453578 34.59255993 14.82380600
v -15.52785829 33.86729509 14.82380600
v -17.18346298 33.05855766 14.82380600
v -18.83502051 32.23868795 14.49491008
v -20.40575489 31.26671873 14.49491008
v -20.95807165 30.89944720 14.49491008
v -21.92665085 30.22055253 14.49491008
v -22.47627124 29.81432974 14.49491008
v -23.39365602 29.10019197 14.49491008
v -23.93788889 28.65315862 14.49491008
v -24.78657112 27.92232893 14.49491008
v -24.78657112 27.95942612 5.64017220
v -23.95809859 28.67727466 5.65387601
v -23.41251493 29.12430540 5.65387601
v -22.49513015 29.83844317 5.65387601
v -21.94415897 30.24652265 5.65387601
v -20.97558498 30.92541732 5.65387601
v -20.42326823 31.29268885 5.65387601
v -18.85118827 32.26465806 5.65387601
v -17.23465219 33.15686546 5.65387601
v -15.57365999 33.96931365 5.65387601
v -13.87629554 34.69643518 5.65387601
v -12.14390442 35.34008674 5.65387601
v -11.02579951 35.61646938 5.32302269
v -11.02579951 35.69437452 5.65387601
v -11.02579951 35.66098548 14.49491008
v -12.13447496 35.31040847 14.49491008
v -13.86416972 34.66861099 14.49491008
v -15.56153417 33.93963538 14.49491008
v -17.21983001 33.12904388 14.49491008
v -17.24946916 33.18654373 14.16209870
v -18.86735082 32.29433633 14.16209870
v -20.44078156 31.32051043 14.16209870
v -20.99444389 30.95324151 14.16209870
v -21.96436867 30.27249016 14.16209870
v -22.51533985 29.86626737 14.16209870
v -23.43407020 29.15027291 14.16209870
v -23.97964865 28.70324217 14.16209870
v -24.78657112 28.00765298 14.16209870
v -24.78657112 27.96313688 5.65387601
v -24.78657112 27.96684504 5.66953788
v -23.99447083 28.72179076 5.98864513
v -23.44888717 29.16882411 5.98864513
v -22.52881125 29.88481596 5.98864513
v -21.97784007 30.29103875 5.98864513
v -21.00791529 30.97364418 5.98864513
v -20.45425296 31.34091571 5.98864513
v -18.87947664 32.31473900 5.98864513
v -17.26024419 33.20694901 5.98864513
v -15.59790641 34.02125128 5.98864513
v -13.89785081 34.75022689 5.98864513
v -12.16276854 35.39388105 5.98864513
v -11.02579951 35.75373106 5.98864513
v -11.02579951 35.70365012 14.28347718
v -12.15468466 35.37162170 14.16209870
v -13.88842136 34.72797014 14.16209870
v -15.58847696 33.99899192 14.16209870
v -15.60868144 34.04351063 13.82732991
v -17.27237001 33.22920576 13.82732991
v -18.89160246 32.33514428 13.82732991
v -20.46772435 31.36131838 13.82732991
v -21.02138668 30.99219278 13.82732991
v -21.99265704 30.31144403 13.82732991
v -22.54362822 29.90336455 13.82732991
v -23.46370414 29.18737270 13.82732991
v -24.01063338 28.74033935 13.82732991
v -24.78657112 28.07072029 13.82732991
v -24.78657112 28.03733125 5.98864513
v -24.78657112 28.04289609 6.01801080
v -24.02141362 28.75332572 6.32341424
v -23.47448438 29.20035645 6.32341424
v -22.55440325 29.91634831 6.32341424
v -22.00208649 30.32442778 6.32341424
v -21.03081614 31.00703321 6.32341424
v -20.47580823 31.37615882 6.32341424
v -18.90103191 32.34998211 6.32341424
v -17.27910310 33.24404620 6.32341424
v -15.61541975 34.05834846 6.32341424
v -13.91266778 34.78732668 6.32341424
v -12.17623472 35.43283232 6.32341424
v -11.02579951 35.78155525 6.20595123
v -11.02579951 35.72776094 14.16209870
v -11.02579951 35.77970117 13.82732991
v -12.17084721 35.41799448 13.82732991
v -13.90592948 34.77248624 13.82732991
v -13.91805530 34.80216712 13.49060306
v -15.62215284 34.07133222 13.49060306
v -17.28718698 33.25702995 13.49060306
v -18.90776500 32.36296847 13.49060306
v -20.48523769 31.38914257 13.49060306
v -21.04024559 31.02001697 13.49060306
v -22.01151595 30.33741154 13.49060306
v -22.56383270 29.92933467 13.49060306
v -23.48391384 29.21148613 13.49060306
v -24.03084308 28.76445279 13.49060306
v -24.78657112 28.11338231 13.49060306
v -24.78657112 28.09112296 6.32341424
v -24.78657112 28.09668779 6.36452598
v -24.78657112 28.12451199 6.66209850
v -24.03623059 28.77187431 6.66209850
v -23.48930135 29.21890505 6.66209850
v -22.56922022 29.93675359 6.66209850
v -22.01690346 30.34483306 6.66209850
v -21.04428753 31.02743588 6.66209850
v -20.48927963 31.39656149 6.66209850
v -18.91315252 32.37038739 6.66209850
v -17.29122892 33.26630555 6.66209850
v -15.62484920 34.08060782 6.66209850
v -13.92209724 34.81144011 6.66209850
v -11.02579951 35.79639308 6.32341424
v -12.18431860 35.45694575 6.66209850
v -11.02579951 35.81308760 13.49060306
v -12.18027666 35.44767275 13.49060306
v -13.92344281 34.81514826 13.24393129
v -15.62754557 34.08431858 13.24393129
v -17.29257450 33.27001631 13.24393129
v -18.91450331 32.37409815 13.24393129
v -20.49197078 31.40027225 13.24393129
v -21.04698390 31.02929257 13.24393129
v -22.01959983 30.34854122 13.24393129
v -22.57057101 29.94046435 13.24393129
v -23.49199772 29.22261581 13.24393129
v -24.03892696 28.77372839 13.24393129
v -24.78657112 28.13007683 13.24393129
v -24.78657112 28.13378759 6.95379781
v -23.49468887 29.22632396 7.00078308
v -22.02094540 30.35225198 7.00078308
v -20.49466714 31.40212633 7.00078308
v -18.91719446 32.37780631 7.00078308
v -17.29527086 33.27372447 7.00078308
v -15.62889114 34.08802673 7.00078308
v -13.92479360 34.81885903 7.00078308
v -11.02579951 35.82236320 6.66209850
v -12.18701497 35.46436727 7.00078308
v -11.02579951 35.82236320 13.33007057
v -12.18566418 35.46065651 13.24393129
v -13.92479360 34.81885903 12.99921692
v -15.62889114 34.08802673 12.99921692
v -17.29527086 33.27372447 12.99921692
v -18.91719446 32.37780631 12.99921692
v -20.49466714 31.40212633 12.99921692
v -22.02094540 30.35225198 12.99921692
v -23.49468887 29.22632396 12.99921692
v -24.78657112 28.13378759 13.03445579
v -11.02579951 35.82978211 7.00078308
v -12.18701497 35.46436727 12.99921692
v -11.02579951 35.82607135 13.24393129
v -11.02579951 35.82978211 13.08339880
f 1 2 6
f 1 6 13
f 1 13 24
f 1 24 41
f 1 41 67
f 1 67 101
f 1 101 140
f 1 140 105
f 1 105 69
f 1 69 42
f 1 42 25
f 1 25 14
f 1 14 7
f 1 7 3
f 1 3 8
f 1 8 4
f 1 4 9
f 1 9 19
f 1 19 34
f 1 34 57
f 1 57 91
f 1 91 131
f 1 131 179
f 1 179 176
f 1 176 225
f 1 225 279
f 1 279 283
f 1 283 331
f 1 331 330
f 1 330 333
f 1 333 376
f 1 376 419
f 1 419 457
f 1 457 499
f 1 499 498
f 1 498 538
f 1 538 537
f 1 537 536
f 1 536 535
f 1 535 575
f 1 575 577
f 1 577 613
f 1 613 647
f 1 647 646
f 1 646 679
f 1 679 714
f 1 714 744
f 1 744 775
f 1 775 803
f 1 803 834
f 1 834 833
f 1 833 832
f 1 832 867
f 1 867 897
f 1 897 896
f 1 896 927
f 1 927 928
f 1 928 959
f 1 959 987
f 1 987 1015
f 1 1015 1043
f 1 1043 1072
f 1 1072 1100
f 1 1100 1120
f 1 1120 1101
f 1 1101 1075
f 1 1075 1074
f 1 1074 1073
f 1 1073 1045
f 1 1045 1044
f 1 1044 1017
f 1 1017 1016
f 1 1016 988
f 1 988 960
f 1 960 930
f 1 930 929
f 1 929 898
f 1 898 869
f 1 869 868
f 1 868 836
f 1 836 835
f 1 835 805
f 1 805 804
f 1 804 776
f 1 776 745
f 1 745 715
f 1 715 682
f 1 682 681
f 1 681 680
f 1 680 648
f 1 648 616
f 1 616 615
f 1 615 614
f 1 614 579
f 1 579 578
f 1 578 540
f 1 540 539
f 1 539 500
f 1 500 459
f 1 459 458
f 1 458 420
f 1 420 377
f 1 377 334
f 1 334 284
f 1 284 229
f 1 229 180
f 1 180 133
f 1 133 92
f 1 92 58
f 1 58 35
f 1 35 21
f 1 21 11
f 1 11 5
f 1 5 2
f 2 5 6
f 3 7 16
f 3 16 29
f 3 29 47
f 3 47 77
f 3 77 114
f 3 114 157
f 3 157 203
f 3 203 254
f 3 254 305
f 3 305 353
f 3 353 397
f 3 397 436
f 3 436 475
f 3 475 515
f 3 515 517
f 3 517 556
f 3 556 555
f 3 555 593
f 3 593 595
f 3 595 631
f 3 631 630
f 3 630 662
f 3 662 698
f 3 698 697
f 3 697 696
f 3 696 729
f 3 729 758
f 3 758 760
f 3 760 789
f 3 789 818
f 3 818 848
f 3 848 850
f 3 850 882
f 3 882 911
f 3 911 912
f 3 912 943
f 3 943 973
f 3 973 1000
f 3 1000 1001
f 3 1001 1029
f 3 1029 1057
f 3 1057 1086
f 3 1086 1109
f 3 1109 1121
f 3 1121 1124
f 3 1124 1123
f 3 1123 1111
f 3 1111 1088
f 3 1088 1059
f 3 1059 1058
f 3 1058 1030
f 3 1030 1002
f 3 1002 975
f 3 975 974
f 3 974 945
f 3 945 944
f 3 944 913
f 3 913 883
f 3 883 853
f 3 853 852
f 3 852 851
f 3 851 819
f 3 819 790
f 3 790 761
f 3 761 730
f 3 730 699
f 3 699 664
f 3 664 663
f 3 663 632
f 3 632 598
f 3 598 597
f 3 597 596
f 3 596 560
f 3 560 559
f 3 559 520
f 3 520 483
f 3 483 443
f 3 443 406
f 3 406 362
f 3 362 361
f 3 361 316
f 3 316 315
f 3 315 265
f 3 265 213
f 3 213 165
f 3 165 120
f 3 120 82
f 3 82 51
f 3 51 31
f 3 31 17
f 3 17 8
f 4 8 17
f 4 17 30
f 4 30 48
f 4 48 78
f 4 78 115
f 4 115 158
f 4 158 204
f 4 204 168
f 4 168 122
f 4 122 84
f 4 84 52
f 4 52 32
f 4 32 18
f 4 18 9
f 5 10 6
f 5 11 12
f 5 12 10
f 6 10 13
f 7 14 15
f 7 15 16
f 9 18 19
f 10 12 20
f 10 20 13
f 11 21 12
f 12 21 22
f 12 22 20
f 13 20 23
f 13 23 24
f 14 25 26
f 14 26 15
f 15 26 27
f 15 27 28
f 15 28 16
f 16 28 29
f 17 31 30
f 18 32 33
f 18 33 19
f 19 33 34
f 20 22 23
f 21 35 36
f 21 36 22
f 22 36 37
f 22 37 23
f 23 37 38
f 23 38 39
f 23 39 24
f 24 39 40
f 24 40 41
f 25 42 43
f 25 43 26
f 26 43 27
f 27 43 44
f 27 44 45
f 27 45 46
f 27 46 28
f 28 46 47
f 28 47 29
f 30 31 49
f 30 49 50
f 30 50 48
f 31 51 49
f 32 52 53
f 32 53 54
f 32 54 33
f 33 54 55
f 33 55 34
f 34 55 56
f 34 56 57
f 35 58 59
f 35 59 36
f 36 59 60
f 36 60 61
f 36 61 37
f 37 61 62
f 37 62 38
f 38 63 40
f 38 40 39
f 38 62 64
f 38 64 63
f 40 63 65
f 40 65 66
f 40 66 41
f 41 66 68
f 41 68 67
f 42 69 70
f 42 70 43
f 43 70 71
f 43 71 44
f 44 71 72
f 44 72 73
f 44 73 45
f 45 73 74
f 45 74 75
f 45 75 76
f 45 76 46
f 46 76 77
f 46 77 47
f 48 50 79
f 48 79 78
f 49 51 80
f 49 80 81
f 49 81 50
f 50 81 79
f 51 82 83
f 51 83 80
f 52 84 85
f 52 85 86
f 52 86 53
f 53 86 87
f 53 87 88
f 53 88 55
f 53 55 54
f 55 88 89
f 55 89 56
f 56 89 90
f 56 90 91
f 56 91 57
f 58 92 59
f 59 92 93
f 59 93 60
f 60 93 94
f 60 94 95
f 60 95 62
f 60 62 61
f 62 95 64
f 63 64 65
f 64 95 96
f 64 96 97
f 64 97 98
f 64 98 65
f 65 99 68
f 65 68 66
f 65 98 100
f 65 100 99
f 67 68 102
f 67 102 103
f 67 103 101
f 68 99 104
f 68 104 102
f 69 105 106
f 69 106 70
f 70 106 107
f 70 107 71
f 71 107 72
f 72 108 109
f 72 109 74
f 72 74 73
f 72 107 108
f 74 109 110
f 74 110 111
f 74 111 112
f 74 112 75
f 75 112 113
f 75 113 76
f 76 113 77
f 77 113 114
f 78 79 116
f 78 116 115
f 79 81 117
f 79 117 118
f 79 118 116
f 80 83 81
f 81 83 119
f 81 119 117
f 82 120 83
f 83 120 121
f 83 121 119
f 84 122 123
f 84 123 124
f 84 124 85
f 85 124 125
f 85 125 126
f 85 126 87
f 85 87 86
f 87 126 127
f 87 127 128
f 87 128 89
f 87 89 88
f 89 128 90
f 90 129 130
f 90 130 131
f 90 131 91
f 90 128 132
f 90 132 129
f 92 133 93
f 93 133 134
f 93 134 94
f 94 134 135
f 94 135 96
f 94 96 95
f 96 135 97
f 97 135 136
f 97 136 137
f 97 137 138
f 97 138 100
f 97 100 98
f 99 100 104
f 100 138 139
f 100 139 104
f 101 103 141
f 101 141 142
f 101 142 140
f 102 104 103
f 103 104 143
f 103 143 144
f 103 144 141
f 104 139 145
f 104 145 143
f 105 140 146
f 105 146 147
f 105 147 106
f 106 147 107
f 107 147 148
f 107 148 149
f 107 149 108
f 108 149 150
f 108 150 151
f 108 151 109
f 109 151 152
f 109 152 110
f 110 152 153
f 110 153 111
f 111 153 154
f 111 154 155
f 111 155 112
f 112 155 113
f 113 155 156
f 113 156 157
f 113 157 114
f 115 116 159
f 115 159 158
f 116 118 159
f 117 119 160
f 117 160 118
f 118 161 159
f 118 160 162
f 118 162 161
f 119 121 163
f 119 163 164
f 119 164 160
f 120 165 121
f 121 165 166
f 121 166 167
f 121 167 163
f 122 168 169
f 122 169 170
f 122 170 123
f 123 170 171
f 123 171 172
f 123 172 124
f 124 172 125
f 125 172 173
f 125 173 126
f 126 173 127
f 127 173 174
f 127 174 175
f 127 175 132
f 127 132 128
f 129 176 130
f 129 132 175
f 129 175 177
f 129 177 178
f 129 178 176
f 130 176 179
f 130 179 131
f 133 180 181
f 133 181 134
f 134 181 182
f 134 182 135
f 135 182 183
f 135 183 136
f 136 183 184
f 136 184 137
f 137 184 185
f 137 185 186
f 137 186 138
f 138 186 139
f 139 186 145
f 140 142 187
f 140 187 146
f 141 144 188
f 141 188 142
f 142 188 187
f 143 145 189
f 143 189 144
f 144 189 188
f 145 186 190
f 145 190 189
f 146 187 191
f 146 191 147
f 147 191 148
f 148 191 149
f 149 192 193
f 149 193 150
f 149 191 192
f 150 193 194
f 150 194 195
f 150 195 152
f 150 152 151
f 152 195 196
f 152 196 197
f 152 197 153
f 153 198 199
f 153 199 200
f 153 200 154
f 153 197 198
f 154 200 155
f 155 200 201
f 155 201 202
f 155 202 156
f 156 202 157
f 157 202 203
f 158 159 205
f 158 205 206
f 158 206 204
f 159 161 205
f 160 164 207
f 160 207 162
f 161 208 205
f 161 162 209
f 161 209 210
f 161 210 208
f 162 207 209
f 163 167 211
f 163 211 164
f 164 211 212
f 164 212 207
f 165 213 166
f 166 213 214
f 166 214 215
f 166 215 167
f 167 215 211
f 168 204 216
f 168 216 217
f 168 217 169
f 169 217 218
f 169 218 219
f 169 219 170
f 170 219 171
f 171 219 220
f 171 220 221
f 171 221 172
f 172 221 222
f 172 222 173
f 173 222 223
f 173 223 174
f 174 223 224
f 174 224 175
f 175 224 177
f 176 178 225
f 177 224 226
f 177 226 178
f 178 226 227
f 178 227 228
f 178 228 225
f 180 229 230
f 180 230 181
f 181 230 231
f 181 231 232
f 181 232 182
f 182 232 233
f 182 233 183
f 183 233 184
f 184 233 234
f 184 234 235
f 184 235 236
f 184 236 185
f 185 236 237
f 185 237 238
f 185 238 186
f 186 238 190
f 187 188 239
f 187 239 191
f 188 189 240
f 188 240 241
f 188 241 239
f 189 190 242
f 189 242 243
f 189 243 240
f 190 238 244
f 190 244 242
f 191 239 241
f 191 241 192
f 192 241 193
f 193 245 246
f 193 246 194
f 193 241 245
f 194 246 247
f 194 247 195
f 195 247 196
f 196 247 248
f 196 248 198
f 196 198 197
f 198 248 249
f 198 249 250
f 198 250 199
f 199 250 251
f 199 251 200
f 200 251 201
f 201 251 252
f 201 252 202
f 202 252 253
f 202 253 254
f 202 254 203
f 204 206 255
f 204 255 216
f 205 208 206
f 206 208 256
f 206 256 257
f 206 257 255
f 207 212 258
f 207 258 259
f 207 259 209
f 208 210 260
f 208 260 256
f 209 259 210
f 210 259 261
f 210 261 262
f 210 262 260
f 211 215 263
f 211 263 264
f 211 264 212
f 212 264 258
f 213 265 214
f 214 265 266
f 214 266 215
f 215 266 267
f 215 267 268
f 215 268 263
f 216 255 269
f 216 269 218
f 216 218 217
f 218 269 270
f 218 270 271
f 218 271 220
f 218 220 219
f 220 271 272
f 220 272 273
f 220 273 221
f 221 273 274
f 221 274 223
f 221 223 222
f 223 274 275
f 223 275 276
f 223 276 224
f 224 276 277
f 224 277 278
f 224 278 226
f 225 228 279
f 226 278 227
f 227 278 280
f 227 280 281
f 227 281 282
f 227 282 228
f 228 282 283
f 228 283 279
f 229 284 230
f 230 284 285
f 230 285 231
f 231 285 286
f 231 286 233
f 231 233 232
f 233 286 287
f 233 287 234
f 234 287 235
f 235 287 288
f 235 288 289
f 235 289 290
f 235 290 237
f 235 237 236
f 237 290 291
f 237 291 292
f 237 292 244
f 237 244 238
f 240 243 241
f 241 243 245
f 242 244 243
f 243 244 293
f 243 293 246
f 243 246 245
f 244 292 294
f 244 294 293
f 246 293 295
f 246 295 247
f 247 295 296
f 247 296 297
f 247 297 248
f 248 297 298
f 248 298 299
f 248 299 249
f 249 299 300
f 249 300 250
f 250 300 301
f 250 301 251
f 251 301 302
f 251 302 303
f 251 303 252
f 252 303 253
f 253 303 304
f 253 304 254
f 254 304 305
f 255 257 269
f 256 260 306
f 256 306 257
f 257 306 269
f 258 264 307
f 258 307 308
f 258 308 309
f 258 309 261
f 258 261 259
f 260 262 306
f 261 309 310
f 261 310 262
f 262 310 311
f 262 311 312
f 262 312 306
f 263 268 313
f 263 313 264
f 264 313 314
f 264 314 307
f 265 315 266
f 266 315 316
f 266 316 317
f 266 317 318
f 266 318 267
f 267 318 268
f 268 318 319
f 268 319 313
f 269 306 270
f 270 306 312
f 270 312 320
f 270 320 272
f 270 272 271
f 272 320 321
f 272 321 322
f 272 322 323
f 272 323 273
f 273 323 274
f 274 323 275
f 275 323 324
f 275 324 277
f 275 277 276
f 277 325 326
f 277 326 278
f 277 324 325
f 278 326 280
f 280 326 281
f 281 326 327
f 281 327 328
f 281 328 329
f 281 329 282
f 282 330 331
f 282 331 283
f 282 329 332
f 282 332 333
f 282 333 330
f 284 334 285
f 285 334 335
f 285 335 336
f 285 336 337
f 285 337 286
f 286 337 287
f 287 337 338
f 287 338 339
f 287 339 288
f 288 339 289
f 289 339 340
f 289 340 341
f 289 341 342
f 289 342 291
f 289 291 290
f 291 342 343
f 291 343 292
f 292 343 294
f 293 294 295
f 294 343 295
f 295 343 296
f 296 343 344
f 296 344 298
f 296 298 297
f 298 344 345
f 298 345 299
f 299 345 346
f 299 346 300
f 300 346 347
f 300 347 348
f 300 348 349
f 300 349 301
f 301 349 302
f 302 349 350
f 302 350 303
f 303 350 351
f 303 351 352
f 303 352 304
f 304 352 353
f 304 353 305
f 307 314 308
f 308 314 354
f 308 354 355
f 308 355 309
f 309 355 310
f 310 355 311
f 311 355 356
f 311 356 357
f 311 357 321
f 311 321 312
f 312 321 320
f 313 319 358
f 313 358 359
f 313 359 314
f 314 359 360
f 314 360 354
f 316 361 317
f 317 361 362
f 317 362 363
f 317 363 364
f 317 364 318
f 318 364 319
f 319 364 365
f 319 365 366
f 319 366 358
f 321 357 322
f 322 357 367
f 322 367 323
f 323 367 368
f 323 368 324
f 324 368 369
f 324 369 325
f 325 369 370
f 325 370 371
f 325 371 327
f 325 327 326
f 327 371 328
f 328 371 372
f 328 372 373
f 328 373 374
f 328 374 329
f 329 374 375
f 329 375 376
f 329 376 332
f 332 376 333
f 334 377 335
f 335 377 336
f 336 377 378
f 336 378 379
f 336 379 380
f 336 380 338
f 336 338 337
f 338 380 381
f 338 381 339
f 339 381 382
f 339 382 340
f 340 382 341
f 341 382 383
f 341 383 384
f 341 384 385
f 341 385 386
f 341 386 342
f 342 386 343
f 343 386 344
f 344 386 385
f 344 385 387
f 344 387 345
f 345 388 389
f 345 389 347
f 345 347 346
f 345 387 388
f 347 390 391
f 347 391 348
f 347 389 390
f 348 391 392
f 348 392 349
f 349 392 393
f 349 393 394
f 349 394 350
f 350 394 351
f 351 394 395
f 351 395 396
f 351 396 352
f 352 397 353
f 352 396 397
f 354 360 398
f 354 398 399
f 354 399 355
f 355 399 400
f 355 400 356
f 356 400 357
f 357 400 401
f 357 401 402
f 357 402 367
f 358 366 359
f 359 366 403
f 359 403 360
f 360 403 404
f 360 404 405
f 360 405 398
f 362 406 363
f 363 406 407
f 363 407 408
f 363 408 364
f 364 408 409
f 364 409 365
f 365 409 366
f 366 409 410
f 366 410 411
f 366 411 403
f 367 402 368
f 368 402 369
f 369 402 370
f 370 412 371
f 370 402 413
f 370 413 412
f 371 412 372
f 372 412 414
f 372 414 373
f 373 414 415
f 373 415 416
f 373 416 374
f 374 416 417
f 374 417 418
f 374 418 375
f 375 418 419
f 375 419 376
f 377 420 378
f 378 420 421
f 378 421 379
f 379 421 422
f 379 422 423
f 379 423 424
f 379 424 381
f 379 381 380
f 381 424 425
f 381 425 382
f 382 425 383
f 383 425 426
f 383 426 427
f 383 427 384
f 384 427 388
f 384 388 385
f 385 388 387
f 388 427 428
f 388 428 390
f 388 390 389
f 390 428 429
f 390 429 430
f 390 430 391
f 391 430 431
f 391 431 432
f 391 432 392
f 392 432 393
f 393 432 433
f 393 433 434
f 393 434 394
f 394 434 435
f 394 435 395
f 395 435 396
f 396 436 397
f 396 435 437
f 396 437 436
f 398 405 438
f 398 438 439
f 398 439 400
f 398 400 399
f 400 439 440
f 400 440 401
f 401 440 413
f 401 413 402
f 403 411 441
f 403 441 404
f 404 441 442
f 404 442 405
f 405 442 438
f 406 443 407
f 407 443 444
f 407 444 408
f 408 444 445
f 408 445 409
f 409 445 446
f 409 446 447
f 409 447 410
f 410 447 448
f 410 448 411
f 411 448 441
f 412 413 449
f 412 449 450
f 412 450 414
f 413 440 451
f 413 451 449
f 414 450 415
f 415 450 452
f 415 452 453
f 415 453 416
f 416 453 454
f 416 454 455
f 416 455 417
f 417 455 456
f 417 456 418
f 418 457 419
f 418 456 457
f 420 458 421
f 421 458 459
f 421 459 460
f 421 460 461
f 421 461 422
f 422 461 462
f 422 462 423
f 423 462 463
f 423 463 424
f 424 463 425
f 425 463 426
f 426 463 464
f 426 464 427
f 427 464 465
f 427 465 429
f 427 429 428
f 429 465 466
f 429 466 467
f 429 467 430
f 430 467 468
f 430 468 469
f 430 469 431
f 431 469 470
f 431 470 432
f 432 470 433
f 433 470 471
f 433 471 434
f 434 471 472
f 434 472 473
f 434 473 435
f 435 473 437
f 436 437 474
f 436 474 475
f 437 473 476
f 437 476 477
f 437 477 474
f 438 442 478
f 438 478 479
f 438 479 451
f 438 451 439
f 439 451 440
f 441 448 480
f 441 480 442
f 442 480 481
f 442 481 482
f 442 482 478
f 443 483 484
f 443 484 444
f 444 484 485
f 444 485 486
f 444 486 445
f 445 486 487
f 445 487 446
f 446 487 488
f 446 488 447
f 447 488 448
f 448 488 489
f 448 489 490
f 448 490 480
f 449 451 450
f 450 451 479
f 450 479 452
f 452 491 492
f 452 492 493
f 452 493 453
f 452 479 491
f 453 493 494
f 453 494 495
f 453 495 454
f 454 495 455
f 455 495 496
f 455 496 497
f 455 497 456
f 456 498 499
f 456 499 457
f 456 497 498
f 459 500 460
f 460 500 461
f 461 500 501
f 461 501 462
f 462 501 502
f 462 502 503
f 462 503 504
f 462 504 463
f 463 504 464
f 464 504 505
f 464 505 466
f 464 466 465
f 466 505 506
f 466 506 507
f 466 507 467
f 467 507 468
f 468 507 508
f 468 508 469
f 469 508 509
f 469 509 470
f 470 509 510
f 470 510 511
f 470 511 471
f 471 511 512
f 471 512 472
f 472 512 473
f 473 512 513
f 473 513 514
f 473 514 476
f 474 477 515
f 474 515 475
f 476 514 516
f 476 516 477
f 477 517 515
f 477 516 517
f 478 482 479
f 479 482 491
f 480 490 518
f 480 518 481
f 481 518 519
f 481 519 482
f 482 519 491
f 483 520 521
f 483 521 484
f 484 521 485
f 485 521 522
f 485 522 523
f 485 523 486
f 486 523 524
f 486 524 525
f 486 525 487
f 487 525 488
f 488 525 526
f 488 526 527
f 488 527 489
f 489 527 490
f 490 527 528
f 490 528 529
f 490 529 518
f 491 519 492
f 492 519 530
f 492 530 493
f 493 530 531
f 493 531 494
f 494 531 532
f 494 532 495
f 495 532 533
f 495 533 496
f 496 533 534
f 496 534 497
f 497 534 535
f 497 535 536
f 497 536 537
f 497 537 538
f 497 538 498
f 500 539 501
f 501 539 540
f 501 540 541
f 501 541 502
f 502 541 542
f 502 542 543
f 502 543 503
f 503 543 544
f 503 544 505
f 503 505 504
f 505 544 506
f 506 544 545
f 506 545 546
f 506 546 547
f 506 547 507
f 507 547 548
f 507 548 508
f 508 548 509
f 509 548 549
f 509 549 550
f 509 550 510
f 510 550 511
f 511 550 551
f 511 551 512
f 512 551 552
f 512 552 553
f 512 553 513
f 513 553 554
f 513 554 514
f 514 554 516
f 516 555 556
f 516 556 517
f 516 554 557
f 516 557 555
f 518 529 519
f 519 529 558
f 519 558 530
f 520 559 521
f 521 559 522
f 522 560 561
f 522 561 523
f 522 559 560
f 523 561 562
f 523 562 524
f 524 562 563
f 524 563 564
f 524 564 525
f 525 564 565
f 525 565 526
f 526 565 527
f 527 565 566
f 527 566 528
f 528 566 567
f 528 567 529
f 529 567 568
f 529 568 569
f 529 569 558
f 530 558 570
f 530 570 531
f 531 570 571
f 531 571 532
f 532 572 573
f 532 573 574
f 532 574 533
f 532 571 572
f 533 574 534
f 534 575 535
f 534 574 576
f 534 576 577
f 534 577 575
f 540 578 541
f 541 578 579
f 541 579 580
f 541 580 581
f 541 581 542
f 542 581 582
f 542 582 543
f 543 582 583
f 543 583 545
f 543 545 544
f 545 583 584
f 545 584 546
f 546 584 547
f 547 584 585
f 547 585 548
f 548 585 586
f 548 586 587
f 548 587 549
f 549 587 550
f 550 587 588
f 550 588 589
f 550 589 551
f 551 589 552
f 552 589 590
f 552 590 553
f 553 590 591
f 553 591 592
f 553 592 554
f 554 592 557
f 555 557 593
f 557 592 594
f 557 594 595
f 557 595 593
f 558 569 570
f 560 596 561
f 561 596 597
f 561 597 598
f 561 598 599
f 561 599 600
f 561 600 562
f 562 600 601
f 562 601 563
f 563 601 564
f 564 601 602
f 564 602 603
f 564 603 565
f 565 603 566
f 566 603 604
f 566 604 605
f 566 605 567
f 567 605 568
f 568 605 606
f 568 606 607
f 568 607 569
f 569 607 570
f 570 607 608
f 570 608 572
f 570 572 571
f 572 608 609
f 572 609 610
f 572 610 611
f 572 611 573
f 573 611 612
f 573 612 574
f 574 612 576
f 576 612 613
f 576 613 577
f 579 614 580
f 580 614 615
f 580 615 616
f 580 616 581
f 581 616 617
f 581 617 582
f 582 617 618
f 582 618 619
f 582 619 583
f 583 619 620
f 583 620 584
f 584 620 621
f 584 621 585
f 585 621 586
f 586 621 622
f 586 622 623
f 586 623 587
f 587 623 624
f 587 624 588
f 588 624 589
f 589 624 625
f 589 625 626
f 589 626 590
f 590 626 591
f 591 626 627
f 591 627 592
f 592 627 628
f 592 628 629
f 592 629 594
f 594 629 630
f 594 630 631
f 594 631 595
f 598 632 633
f 598 633 599
f 599 633 600
f 600 633 634
f 600 634 601
f 601 634 635
f 601 635 636
f 601 636 602
f 602 636 603
f 603 636 637
f 603 637 638
f 603 638 604
f 604 638 605
f 605 638 639
f 605 639 640
f 605 640 606
f 606 640 641
f 606 641 607
f 607 641 608
f 608 641 609
f 609 641 642
f 609 642 610
f 610 642 643
f 610 643 644
f 610 644 611
f 611 644 612
f 612 644 645
f 612 645 646
f 612 646 647
f 612 647 613
f 616 648 617
f 617 648 649
f 617 649 650
f 617 650 618
f 618 650 651
f 618 651 619
f 619 651 620
f 620 651 652
f 620 652 621
f 621 652 653
f 621 653 654
f 621 654 622
f 622 654 623
f 623 654 655
f 623 655 624
f 624 655 656
f 624 656 657
f 624 657 625
f 625 657 626
f 626 657 658
f 626 658 659
f 626 659 627
f 627 659 660
f 627 660 628
f 628 660 661
f 628 661 629
f 629 661 662
f 629 662 630
f 632 663 633
f 633 663 664
f 633 664 665
f 633 665 666
f 633 666 634
f 634 666 635
f 635 666 667
f 635 667 636
f 636 667 668
f 636 668 637
f 637 668 669
f 637 669 670
f 637 670 638
f 638 670 639
f 639 670 671
f 639 671 640
f 640 671 672
f 640 672 641
f 641 672 673
f 641 673 642
f 642 673 674
f 642 674 675
f 642 675 676
f 642 676 643
f 643 676 644
f 644 676 677
f 644 677 678
f 644 678 645
f 645 678 646
f 646 678 679
f 648 680 649
f 649 680 681
f 649 681 682
f 649 682 683
f 649 683 684
f 649 684 650
f 650 684 651
f 651 684 685
f 651 685 686
f 651 686 652
f 652 686 687
f 652 687 653
f 653 687 654
f 654 687 688
f 654 688 655
f 655 688 689
f 655 689 690
f 655 690 656
f 656 690 657
f 657 690 691
f 657 691 692
f 657 692 658
f 658 692 693
f 658 693 659
f 659 693 660
f 660 693 694
f 660 694 661
f 661 694 695
f 661 695 696
f 661 696 697
f 661 697 698
f 661 698 662
f 664 699 700
f 664 700 665
f 665 700 666
f 666 700 701
f 666 701 702
f 666 702 667
f 667 702 668
f 668 702 703
f 668 703 704
f 668 704 669
f 669 704 670
f 670 704 705
f 670 705 706
f 670 706 671
f 671 706 707
f 671 707 672
f 672 707 674
f 672 674 673
f 674 707 708
f 674 708 709
f 674 709 710
f 674 710 675
f 675 710 711
f 675 711 676
f 676 711 677
f 677 711 712
f 677 712 678
f 678 712 713
f 678 713 714
f 678 714 679
f 682 715 683
f 683 715 716
f 683 716 717
f 683 717 684
f 684 717 718
f 684 718 685
f 685 718 686
f 686 718 719
f 686 719 687
f 687 719 720
f 687 720 688
f 688 720 721
f 688 721 722
f 688 722 689
f 689 722 723
f 689 723 690
f 690 723 691
f 691 723 724
f 691 724 692
f 692 724 725
f 692 725 726
f 692 726 693
f 693 726 694
f 694 726 727
f 694 727 728
f 694 728 695
f 695 728 729
f 695 729 696
f 699 730 700
f 700 730 731
f 700 731 701
f 701 731 732
f 701 732 733
f 701 733 702
f 702 733 734
f 702 734 703
f 703 734 704
f 704 734 735
f 704 735 736
f 704 736 705
f 705 736 706
f 706 736 737
f 706 737 708
f 706 708 707
f 708 737 738
f 708 738 739
f 708 739 709
f 709 739 740
f 709 740 710
f 710 740 711
f 711 740 741
f 711 741 742
f 711 742 712
f 712 742 743
f 712 743 713
f 713 743 714
f 714 743 744
f 715 745 716
f 716 745 746
f 716 746 747
f 716 747 717
f 717 747 748
f 717 748 718
f 718 748 719
f 719 748 749
f 719 749 750
f 719 750 720
f 720 750 751
f 720 751 721
f 721 751 722
f 722 751 752
f 722 752 753
f 722 753 723
f 723 753 724
f 724 753 754
f 724 754 755
f 724 755 725
f 725 755 726
f 726 755 756
f 726 756 757
f 726 757 727
f 727 757 728
f 728 758 729
f 728 757 759
f 728 759 760
f 728 760 758
f 730 761 731
f 731 761 762
f 731 762 732
f 732 762 763
f 732 763 733
f 733 763 764
f 733 764 765
f 733 765 734
f 734 765 766
f 734 766 735
f 735 766 736
f 736 766 767
f 736 767 737
f 737 767 768
f 737 768 738
f 738 768 769
f 738 769 739
f 739 769 770
f 739 770 740
f 740 770 771
f 740 771 772
f 740 772 741
f 741 772 773
f 741 773 742
f 742 773 743
f 743 773 774
f 743 774 775
f 743 775 744
f 745 776 746
f 746 776 747
f 747 776 777
f 747 777 778
f 747 778 748
f 748 778 779
f 748 779 749
f 749 779 750
f 750 779 780
f 750 780 751
f 751 780 781
f 751 781 782
f 751 782 752
f 752 782 783
f 752 783 753
f 753 783 784
f 753 784 754
f 754 784 755
f 755 784 785
f 755 785 756
f 756 785 786
f 756 786 787
f 756 787 757
f 757 787 788
f 757 788 759
f 759 788 760
f 760 788 789
f 761 790 762
f 762 790 791
f 762 791 792
f 762 792 763
f 763 792 793
f 763 793 764
f 764 793 765
f 765 793 794
f 765 794 795
f 765 795 766
f 766 795 796
f 766 796 767
f 767 796 797
f 767 797 768
f 768 797 769
f 769 797 798
f 769 798 799
f 769 799 770
f 770 799 771
f 771 799 800
f 771 800 772
f 772 800 801
f 772 801 802
f 772 802 773
f 773 803 774
f 773 802 803
f 774 803 775
f 776 804 777
f 777 804 805
f 777 805 806
f 777 806 778
f 778 806 807
f 778 807 808
f 778 808 779
f 779 808 809
f 779 809 780
f 780 809 781
f 781 809 810
f 781 810 811
f 781 811 782
f 782 811 783
f 783 811 812
f 783 812 813
f 783 813 784
f 784 813 785
f 785 813 814
f 785 814 815
f 785 815 786
f 786 815 787
f 787 815 816
f 787 816 817
f 787 817 788
f 788 817 818
f 788 818 789
f 790 819 791
f 791 819 820
f 791 820 792
f 792 820 821
f 792 821 793
f 793 821 822
f 793 822 794
f 794 822 823
f 794 823 824
f 794 824 795
f 795 824 796
f 796 824 825
f 796 825 797
f 797 825 826
f 797 826 798
f 798 826 827
f 798 827 799
f 799 827 828
f 799 828 800
f 800 828 829
f 800 829 830
f 800 830 801
f 801 830 802
f 802 830 831
f 802 831 832
f 802 832 833
f 802 833 834
f 802 834 803
f 805 835 806
f 806 835 836
f 806 836 837
f 806 837 838
f 806 838 807
f 807 838 808
f 808 838 839
f 808 839 840
f 808 840 809
f 809 840 810
f 810 840 841
f 810 841 842
f 810 842 811
f 811 842 843
f 811 843 812
f 812 843 813
f 813 843 844
f 813 844 845
f 813 845 814
f 814 845 815
f 815 845 846
f 815 846 847
f 815 847 816
f 816 847 817
f 817 848 818
f 817 847 849
f 817 849 850
f 817 850 848
f 819 851 820
f 820 851 852
f 820 852 853
f 820 853 854
f 820 854 821
f 821 854 855
f 821 855 856
f 821 856 822
f 822 856 857
f 822 857 823
f 823 857 824
f 824 857 858
f 824 858 859
f 824 859 825
f 825 859 826
f 826 859 860
f 826 860 827
f 827 860 861
f 827 861 862
f 827 862 828
f 828 862 863
f 828 863 864
f 828 864 829
f 829 864 830
f 830 864 865
f 830 865 866
f 830 866 831
f 831 866 832
f 832 866 867
f 836 868 837
f 837 868 869
f 837 869 870
f 837 870 871
f 837 871 838
f 838 871 872
f 838 872 839
f 839 872 840
f 840 872 873
f 840 873 874
f 840 874 841
f 841 874 842
f 842 874 875
f 842 875 876
f 842 876 843
f 843 876 877
f 843 877 844
f 844 877 845
f 845 877 878
f 845 878 879
f 845 879 846
f 846 879 847
f 847 879 880
f 847 880 849
f 849 880 881
f 849 881 882
f 849 882 850
f 853 883 854
f 854 883 884
f 854 884 885
f 854 885 855
f 855 885 856
f 856 885 886
f 856 886 857
f 857 886 887
f 857 887 888
f 857 888 858
f 858 888 859
f 859 888 889
f 859 889 861
f 859 861 860
f 861 889 890
f 861 890 862
f 862 890 891
f 862 891 892
f 862 892 863
f 863 892 893
f 863 893 864
f 864 893 894
f 864 894 865
f 865 894 866
f 866 894 895
f 866 895 896
f 866 896 897
f 866 897 867
f 869 898 899
f 869 899 870
f 870 899 871
f 871 899 900
f 871 900 872
f 872 900 901
f 872 901 902
f 872 902 873
f 873 902 903
f 873 903 874
f 874 903 875
f 875 903 904
f 875 904 905
f 875 905 876
f 876 905 877
f 877 905 906
f 877 906 878
f 878 906 907
f 878 907 908
f 878 908 879
f 879 908 880
f 880 908 909
f 880 909 910
f 880 910 881
f 881 911 882
f 881 910 912
f 881 912 911
f 883 913 884
f 884 913 914
f 884 914 885
f 885 914 915
f 885 915 916
f 885 916 886
f 886 916 917
f 886 917 887
f 887 917 888
f 888 917 918
f 888 918 919
f 888 919 889
f 889 919 890
f 890 919 920
f 890 920 921
f 890 921 922
f 890 922 891
f 891 922 892
f 892 922 923
f 892 923 924
f 892 924 893
f 893 924 894
f 894 924 925
f 894 925 926
f 894 926 895
f 895 927 896
f 895 926 928
f 895 928 927
f 898 929 899
f 899 930 931
f 899 931 932
f 899 932 900
f 899 929 930
f 900 932 933
f 900 933 901
f 901 933 902
f 902 933 934
f 902 934 935
f 902 935 903
f 903 935 904
f 904 935 936
f 904 936 905
f 905 936 937
f 905 937 906
f 906 937 938
f 906 938 939
f 906 939 907
f 907 939 908
f 908 939 940
f 908 940 941
f 908 941 909
f 909 941 910
f 910 941 942
f 910 942 943
f 910 943 912
f 913 944 914
f 914 944 945
f 914 945 946
f 914 946 947
f 914 947 915
f 915 947 916
f 916 947 948
f 916 948 949
f 916 949 917
f 917 949 918
f 918 949 950
f 918 950 920
f 918 920 919
f 920 951 952
f 920 952 953
f 920 953 921
f 920 950 951
f 921 953 954
f 921 954 922
f 922 954 923
f 923 954 955
f 923 955 956
f 923 956 924
f 924 956 957
f 924 957 925
f 925 957 958
f 925 958 926
f 926 958 928
f 928 958 959
f 930 960 961
f 930 961 931
f 931 961 932
f 932 961 962
f 932 962 933
f 933 962 963
f 933 963 964
f 933 964 934
f 934 964 935
f 935 964 965
f 935 965 936
f 936 965 966
f 936 966 967
f 936 967 937
f 937 967 968
f 937 968 938
f 938 968 969
f 938 969 939
f 939 969 940
f 940 969 970
f 940 970 971
f 940 971 941
f 941 971 942
f 942 971 972
f 942 972 943
f 943 972 973
f 945 974 946
f 946 974 975
f 946 975 976
f 946 976 947
f 947 976 977
f 947 977 978
f 947 978 948
f 948 978 979
f 948 979 949
f 949 979 951
f 949 951 950
f 951 979 980
f 951 980 952
f 952 980 981
f 952 981 982
f 952 982 953
f 953 982 983
f 953 983 954
f 954 983 984
f 954 984 955
f 955 984 956
f 956 984 985
f 956 985 957
f 957 985 986
f 957 986 987
f 957 987 958
f 958 987 959
f 960 988 961
f 961 988 962
f 962 988 989
f 962 989 990
f 962 990 963
f 963 990 964
f 964 990 991
f 964 991 965
f 965 991 992
f 965 992 993
f 965 993 966
f 966 993 994
f 966 994 967
f 967 994 995
f 967 995 968
f 968 995 969
f 969 995 996
f 969 996 970
f 970 996 997
f 970 997 971
f 971 997 998
f 971 998 999
f 971 999 972
f 972 1000 973
f 972 999 1001
f 972 1001 1000
f 975 1002 1003
f 975 1003 976
f 976 1003 1004
f 976 1004 977
f 977 1004 978
f 978 1004 1005
f 978 1005 979
f 979 1005 1006
f 979 1006 980
f 980 1006 1007
f 980 1007 1008
f 980 1008 981
f 981 1008 1009
f 981 1009 1010
f 981 1010 982
f 982 1010 983
f 983 1010 1011
f 983 1011 1012
f 983 1012 984
f 984 1012 985
f 985 1012 1013
f 985 1013 1014
f 985 1014 986
f 986 1014 987
f 987 1014 1015
f 988 1016 989
f 989 1016 1017
f 989 1017 1018
f 989 1018 1019
f 989 1019 990
f 990 1019 991
f 991 1019 1020
f 991 1020 992
f 992 1020 1021
f 992 1021 1022
f 992 1022 993
f 993 1022 994
f 994 1022 1023
f 994 1023 1024
f 994 1024 995
f 995 1024 996
f 996 1024 1025
f 996 1025 1026
f 996 1026 997
f 997 1026 1027
f 997 1027 998
f 998 1027 999
f 999 1027 1028
f 999 1028 1001
f 1001 1028 1029
f 1002 1030 1031
f 1002 1031 1003
f 1003 1031 1004
f 1004 1031 1032
f 1004 1032 1033
f 1004 1033 1005
f 1005 1033 1006
f 1006 1033 1007
f 1007 1033 1034
f 1007 1034 1035
f 1007 1035 1008
f 1008 1035 1036
f 1008 1036 1037
f 1008 1037 1009
f 1009 1037 1010
f 1010 1037 1038
f 1010 1038 1039
f 1010 1039 1011
f 1011 1039 1012
f 1012 1039 1040
f 1012 1040 1041
f 1012 1041 1013
f 1013 1041 1042
f 1013 1042 1014
f 1014 1042 1015
f 1015 1042 1043
f 1017 1044 1018
f 1018 1044 1045
f 1018 1045 1046
f 1018 1046 1019
f 1019 1046 1047
f 1019 1047 1048
f 1019 1048 1020
f 1020 1048 1049
f 1020 1049 1021
f 1021 1049 1022
f 1022 1049 1050
f 1022 1050 1051
f 1022 1051 1023
f 1023 1051 1052
f 1023 1052 1024
f 1024 1052 1053
f 1024 1053 1025
f 1025 1053 1026
f 1026 1053 1054
f 1026 1054 1027
f 1027 1054 1055
f 1027 1055 1056
f 1027 1056 1028
f 1028 1056 1029
f 1029 1056 1057
f 1030 1058 1031
f 1031 1058 1059
f 1031 1059 1060
f 1031 1060 1032
f 1032 1060 1061
f 1032 1061 1034
f 1032 1034 1033
f 1034 1062 1063
f 1034 1063 1064
f 1034 1064 1035
f 1034 1061 1062
f 1035 1064 1065
f 1035 1065 1036
f 1036 1065 1066
f 1036 1066 1037
f 1037 1066 1067
f 1037 1067 1038
f 1038 1067 1039
f 1039 1067 1068
f 1039 1068 1069
f 1039 1069 1040
f 1040 1069 1041
f 1041 1069 1070
f 1041 1070 1071
f 1041 1071 1042
f 1042 1071 1072
f 1042 1072 1043
f 1045 1073 1046
f 1046 1073 1074
f 1046 1074 1075
f 1046 1075 1076
f 1046 1076 1077
f 1046 1077 1047
f 1047 1077 1078
f 1047 1078 1048
f 1048 1078 1079
f 1048 1079 1049
f 1049 1079 1050
f 1050 1079 1080
f 1050 1080 1081
f 1050 1081 1051
f 1051 1081 1052
f 1052 1081 1082
f 1052 1082 1083
f 1052 1083 1053
f 1053 1083 1054
f 1054 1083 1084
f 1054 1084 1085
f 1054 1085 1055
f 1055 1085 1056
f 1056 1086 1057
f 1056 1085 1087
f 1056 1087 1086
f 1059 1088 1060
f 1060 1088 1089
f 1060 1089 1062
f 1060 1062 1061
f 1062 1089 1112
f 1062 1112 1090
f 1062 1090 1091
f 1062 1091 1063
f 1063 1091 1092
f 1063 1092 1064
f 1064 1092 1065
f 1065 1092 1093
f 1065 1093 1094
f 1065 1094 1066
f 1066 1094 1067
f 1067 1094 1095
f 1067 1095 1096
f 1067 1096 1068
f 1068 1096 1069
f 1069 1096 1097
f 1069 1097 1098
f 1069 1098 1070
f 1070 1098 1071
f 1071 1098 1099
f 1071 1099 1100
f 1071 1100 1072
f 1075 1101 1076
f 1076 1102 1077
f 1076 1101 1099
f 1076 1099 1102
f 1077 1102 1078
f 1078 1102 1097
f 1078 1097 1103
f 1078 1103 1079
f 1079 1103 1080
f 1080 1103 1095
f 1080 1095 1104
f 1080 1104 1081
f 1081 1104 1105
f 1081 1105 1082
f 1082 1105 1106
f 1082 1106 1083
f 1083 1106 1107
f 1083 1107 1084
f 1084 1107 1085
f 1085 1107 1108
f 1085 1108 1110
f 1085 1110 1087
f 1086 1087 1109
f 1087 1110 1109
f 1088 1111 1112
f 1088 1112 1089
f 1090 1112 1122
f 1090 1122 1113
f 1090 1113 1114
f 1090 1114 1091
f 1091 1114 1115
f 1091 1115 1092
f 1092 1115 1116
f 1092 1116 1093
f 1093 1116 1094
f 1094 1116 1117
f 1094 1117 1095
f 1095 1117 1104
f 1095 1103 1118
f 1095 1118 1096
f 1096 1118 1097
f 1097 1119 1098
f 1097 1118 1103
f 1097 1102 1119
f 1098 1119 1099
f 1099 1120 1100
f 1099 1119 1102
f 1099 1101 1120
f 1104 1117 1116
f 1104 1116 1105
f 1105 1116 1115
f 1105 1115 1106
f 1106 1115 1114
f 1106 1114 1107
f 1107 1114 1113
f 1107 1113 1108
f 1108 1113 1122
f 1108 1122 1110
f 1109 1110 1121
f 1110 1122 1124
f 1110 1124 1121
f 1111 1123 1112
f 1112 1123 1124
f 1112 1124 1122

