# https://github.com/mikedh/trimesh
v -28.96115974 -9.55505939 -0.00000006
v -28.43991116 -9.55505939 -0.00000006
v -29.22122076 -9.55505939 0.00587314
v -29.37047005 -9.09267906 0.00587314
v -29.35464129 -8.28017285 -0.00000006
v -28.43877941 -9.55372294 -0.00000006
v -28.43877941 -9.55505939 20.00000006
v -29.32524204 -9.55505939 0.00978796
v -29.59095657 -8.34699068 0.00587314
v -29.78430212 -7.62936641 0.00587314
v -29.73228887 -6.80215992 -0.00000006
v -29.71193835 4.09718351 -0.00000006
v -28.43877941 -9.55372294 20.00000006
v -28.96115974 -9.55505939 20.00000006
v -29.47901309 -9.55505939 0.01761889
v -29.60452184 -9.16484268 0.01761889
v -29.82726663 -8.41380851 0.01761889
v -30.02174914 -7.69083910 0.01761889
v -29.97199416 -6.85695102 0.00587314
v -30.12463868 -6.14868058 0.00587314
v -30.03531441 -5.30811092 -0.00000006
v -30.21848470 4.09718351 -0.00000006
v -29.71193835 4.09718351 20.00000006
v -29.35464129 -8.28017285 20.00000006
v -29.45979431 -9.12074251 19.99021204
v -29.31958854 -9.55505939 19.99021204
v -29.67010036 -9.55505939 0.03523849
v -29.92677137 -9.26506976 0.05090035
v -30.15177444 -8.50468110 0.05090035
v -30.34851521 -7.77502945 0.05090035
v -30.53960249 -6.98791379 0.05090035
v -30.21057293 -6.91174148 0.01761889
v -30.36547571 -6.19812589 0.01761889
v -30.27728319 -5.35087432 0.00587314
v -30.36999747 -4.79494883 0.00587314
v -30.26258618 -3.80069809 -0.00000006
v -30.26258618 3.80051164 -0.00000006
v -30.46837047 4.09718351 0.00587314
v -30.21848470 4.09718351 20.00000006
v -29.73228887 -6.80215992 20.00000006
v -29.87475812 -7.65342051 19.99021204
v -29.68140736 -8.37238189 19.99021204
v -29.78203863 -9.22096958 19.96671924
v -29.67462733 -9.55505939 19.96671924
v -29.83405188 -9.55505939 0.05090035
v -30.24788395 -9.36395973 0.09788530
v -30.47515571 -8.59555369 0.09788530
v -30.67302302 -7.85788335 0.09788530
v -30.86637378 -7.06275031 0.09788530
v -31.02466658 -6.33176155 0.09788530
v -30.69563702 -6.26494372 0.05090035
v -30.51812023 -5.39363772 0.01761889
v -30.85054502 -5.45243751 0.05090035
v -30.61196625 -4.83370321 0.01761889
v -30.55429950 -3.43186292 0.00587314
v -30.41522548 -2.28526690 -0.00000006
v -30.41522548 2.28374416 -0.00000006
v -30.50681323 3.83124799 0.00587314
v -30.71599275 4.09718351 0.01761889
v -30.56334823 4.09718351 19.99021204
v -30.26258618 3.80051164 20.00000006
v -30.03531441 -5.30811092 20.00000006
v -30.21622643 -6.16738955 19.99021204
v -30.06245017 -6.87833223 19.99021204
v -30.20152420 -7.73761151 19.96671924
v -30.00591516 -8.46325383 19.96671924
v -30.33042297 -8.55546286 19.92560750
v -30.10315642 -9.31986021 19.92560750
v -29.89624038 -9.55505939 19.94126871
v -30.18569544 -9.55505939 0.09788530
v -30.48646271 -9.55505939 0.15270118
v -30.79513654 -8.68642628 0.16248984
v -30.99527255 -7.94073790 0.16248984
v -31.19088158 -7.13624973 0.16248984
v -31.18070632 -5.51123731 0.09788530
v -31.35030612 -6.39857939 0.16248984
v -31.50860414 -5.56870066 0.16248984
v -30.94552279 -4.88582142 0.05090035
v -31.27681062 -4.93793963 0.09788530
v -30.79740003 -3.45859025 0.01761889
v -31.13321483 -3.49600818 0.05090035
v -30.67641824 -2.06209510 0.00587314
v -30.92177704 -2.07946762 0.01761889
v -30.49098447 -0.76315412 -0.00000006
v -30.49098447 0.76163139 -0.00000006
v -30.73634326 0.76831330 0.00587314
v -30.65945774 2.30245313 0.00587314
v -30.90481654 2.32116242 0.01761889
v -30.74991375 3.86198433 0.01761889
v -31.05746105 4.09718351 0.05090035
v -30.90368479 4.09718351 19.96671924
v -30.93421578 3.88603844 19.96671924
v -30.59840098 3.84327536 19.99021204
v -30.41522548 2.28374416 20.00000006
v -30.26258618 -3.80069809 20.00000006
v -30.46158522 -4.80964910 19.99021204
v -30.36887094 -5.36691071 19.99021204
v -30.54751948 -6.23420738 19.96671924
v -30.39148495 -6.95316875 19.96671924
v -30.71938276 -7.02934107 19.92560750
v -30.52716374 -7.82046542 19.92560750
v -30.85054502 -7.90331997 19.86883324
v -30.65154076 -8.64499900 19.86883324
v -30.42314246 -9.41875083 19.86883324
v -30.02740264 -9.55505939 19.92560750
v -30.53508073 -9.55505939 0.16248984
v -30.56560650 -9.46285035 0.16248984
v -31.11173257 -8.77596177 0.24275625
v -31.31412685 -8.02225601 0.24275625
v -31.51086763 -7.20974980 0.24275625
v -31.67255566 -6.46406142 0.24275625
v -31.60471365 -4.99005718 0.16248984
v -31.83198020 -5.62616400 0.24275625
v -31.93035319 -5.04083894 0.24275625
v -31.46563962 -3.53342611 0.09788530
v -31.79693267 -3.57084405 0.16248984
v -31.25872359 -2.10218576 0.05090035
v -30.73860675 -0.68831809 0.00587314
v -30.98396555 -0.69366340 0.01761889
v -30.98170206 0.77365877 0.01761889
v -31.31864861 0.78167680 0.05090035
v -31.24063134 2.34655298 0.05090035
v -31.08459681 3.90474806 0.05090035
v -31.34126261 4.09718351 0.09005437
v -31.24402136 4.09718351 19.92560750
v -31.26776710 3.92746571 19.92560750
v -31.42493337 2.35991681 19.92560750
v -31.08911857 2.33452593 19.96671924
v -30.75217202 2.30913504 19.99021204
v -30.49098447 0.76163139 20.00000006
v -30.83018929 0.76964942 19.99021204
v -30.41522548 -2.28526690 20.00000006
v -30.64701900 -3.44255385 19.99021204
v -30.98283380 -3.47997178 19.96671924
v -30.79513654 -4.86176698 19.96671924
v -30.70129052 -5.42571051 19.96671924
v -31.03258356 -5.48451031 19.92560750
v -30.87654904 -6.30236166 19.92560750
v -31.20444685 -6.36917949 19.86883324
v -31.04502231 -7.10284114 19.86883324
v -31.17165759 -7.98483742 19.79444068
v -30.96926332 -8.73587159 19.79444068
v -30.37904620 -9.55505939 19.86883324
v -30.73860675 -9.51630501 19.79444068
v -30.72616801 -9.55505939 19.79444068
v -30.88107079 -9.55505939 0.24275625
v -31.42493337 -8.86416147 0.33868387
v -31.62958592 -8.10243702 0.33868387
v -31.82859018 -7.28191277 0.33868387
v -31.99140996 -6.52954280 0.33868387
v -32.15196624 -5.68229156 0.33868387
v -32.25146577 -5.09162070 0.33868387
v -32.12369874 -3.60826231 0.24275625
v -32.44707480 -3.64434412 0.33868387
v -31.59227490 -2.12490391 0.09788530
v -31.92469969 -2.14628561 0.16248984
v -31.32091209 -0.70168159 0.05090035
v -31.65672690 -0.70836334 0.09788530
v -31.65446341 0.79103129 0.09788530
v -31.57531440 2.37194386 0.09788530
v -31.41701639 3.94617468 0.09788530
v -31.39553413 4.09718351 0.09788530
v -31.53573990 4.09718351 19.87666417
v -31.59906015 3.96889299 19.86883324
v -31.75848469 2.38530736 19.86883324
v -31.50408238 0.78702227 19.92560750
v -31.16713583 0.77900423 19.96671924
v -30.49098447 -0.76315412 20.00000006
v -30.83132103 -0.69099066 19.99021204
v -31.16939932 -0.69767258 19.96671924
v -30.77026427 -2.06877685 19.99021204
v -31.10721081 -2.09149499 19.96671924
v -31.44302562 -2.11421298 19.92560750
v -31.31638512 -3.51739004 19.92560750
v -31.12756133 -4.91388487 19.92560750
v -31.45772263 -4.96600308 19.86883324
v -31.36161312 -5.54331010 19.86883324
v -31.68725267 -5.60077345 19.79444068
v -31.52782813 -6.43466152 19.79444068
v -31.36726663 -7.17634056 19.79444068
v -31.68612093 -7.24984063 19.70634334
v -31.48825362 -8.06635553 19.70634334
v -31.28472760 -8.82407129 19.70634334
v -31.06876805 -9.55505939 19.70634334
v -31.22028083 -9.55505939 0.33868387
v -31.55383214 -9.55505939 0.45027401
v -31.73248067 -8.95102536 0.45027401
v -31.93939671 -8.18261867 0.45027401
v -32.13952750 -7.35407639 0.45027401
v -32.30461076 -6.59368839 0.45027401
v -32.46743053 -5.73841846 0.45027401
v -32.56693006 -5.14240246 0.45027401
v -32.76480258 -3.68042560 0.45027401
v -32.25259751 -2.16900376 0.24275625
v -32.57710531 -2.19038546 0.33868387
v -31.98914647 -0.71638154 0.16248984
v -32.31817603 -0.72439974 0.24275625
v -31.98688820 0.79904932 0.16248984
v -31.90660745 2.39599829 0.16248984
v -31.74717769 3.98760196 0.16248984
v -31.73134893 4.09718351 0.16248984
v -31.58096790 4.09718351 19.86883324
v -31.88512519 4.09718351 19.80227096
v -32.08751947 2.40936212 19.79444068
v -32.16779500 0.80305866 19.79444068
v -31.83763370 0.79504030 19.86883324
v -31.83989719 -0.71370881 19.86883324
v -31.50521412 -0.70569061 19.92560750
v -31.77544519 -2.13693113 19.86883324
v -31.64880991 -3.55480798 19.86883324
v -31.78449392 -5.01812096 19.79444068
v -32.10786998 -5.06890239 19.70634334
v -32.00837046 -5.65690035 19.70634334
v -31.84894070 -6.50014291 19.70634334
v -32.00045347 -7.32200360 19.60062705
v -31.80032268 -8.14653719 19.60062705
v -31.59453839 -8.91093453 19.60062705
v -31.40458286 -9.55505939 19.60062705
v -31.88060343 -9.55505939 0.57752537
v -32.03437448 -9.03521571 0.57752537
v -32.24355400 -8.26012744 0.57752537
v -32.44594827 -7.42356712 0.57752537
v -32.61215806 -6.65649688 0.57752537
v -32.77610958 -5.79320891 0.57752537
v -32.87674084 -5.19051133 0.57752537
v -33.07687163 -3.71517097 0.57752537
v -32.89595962 -2.21176716 0.45027401
v -32.64268905 -0.73108149 0.33868387
v -32.96266988 -0.73776324 0.45027401
v -32.31591776 0.80706768 0.24275625
v -32.64042556 0.81508572 0.33868387
v -32.23450527 2.42138917 0.24275625
v -32.07394898 4.02902924 0.24275625
v -32.04115972 4.09718351 0.23688305
v -31.94166020 4.09718351 19.78856748
v -31.92695796 4.01032027 19.79444068
v -32.41428554 2.43475267 19.70634334
v -32.49456629 0.81107670 19.70634334
v -32.17005849 -0.72039056 19.79444068
v -32.10560650 -2.15831283 19.79444068
v -31.97670773 -3.59088946 19.79444068
v -32.30234727 -3.62830772 19.70634334
v -32.62233332 -3.66438953 19.60062705
v -32.42559254 -5.11968415 19.60062705
v -32.32609302 -5.71302790 19.60062705
v -32.16440499 -6.56428849 19.60062705
v -32.30913252 -7.39283077 19.48120598
v -32.10673824 -8.22538240 19.48120598
v -31.47581488 -9.55505939 19.57517652
v -31.89869046 -8.99779778 19.48120598
v -32.00950220 -9.55505939 0.63429898
v -32.33061478 -9.11940606 0.72043793
v -32.54092604 -8.33629975 0.72043793
v -32.74557859 -7.49172140 0.72043793
v -32.91292012 -6.71796957 0.72043793
v -33.07913512 -5.84666356 0.72043793
v -33.18089291 -5.23862019 0.72043793
v -33.20916042 -2.23314902 0.57752537
v -33.38215545 -3.74857988 0.72043793
v -33.51670772 -2.25319427 0.72043793
v -32.96041161 0.82310408 0.45027401
v -33.27587068 -0.74578144 0.57752537
v -33.27474415 0.83112211 0.57752537
v -32.55901307 2.44544360 0.33868387
v -32.39619851 4.06912006 0.33868387
v -32.08525598 4.09718351 0.24862945
v -32.06377372 4.09718351 0.24275625
v -32.24468574 4.09718351 19.70634334
v -32.25146577 4.05041110 19.70634334
v -32.57258356 4.09718351 19.60062705
v -32.73540333 2.45880710 19.60062705
v -32.81681061 0.81909474 19.60062705
v -32.49682978 -0.72840876 19.70634334
v -32.43237779 -2.18103097 19.70634334
v -32.75349557 -2.20241267 19.60062705
v -32.93666586 -3.69913457 19.48120598
v -32.73879334 -5.16912946 19.48120598
v -32.63816208 -5.76915480 19.48120598
v -32.47421578 -6.62843343 19.48120598
v -32.61215806 -7.46232150 19.34612369
v -32.40750551 -8.30289116 19.34612369
v -32.19832599 -9.08198813 19.34612369
v -31.73474416 -9.55505939 19.48120598
v -32.20171601 -9.55505939 0.72043793
v -32.51491681 -9.55505939 0.87705528
v -32.61894330 -9.20092417 0.87705528
v -32.83151284 -8.41113627 0.87705528
v -33.03842887 -7.55987568 0.87705528
v -33.20803389 -6.77810581 0.87705528
v -33.37537542 -5.89878177 0.87705528
v -33.47713321 -5.28539261 0.87705528
v -33.68065923 -3.78332525 0.87705528
v -33.58341798 -0.75246319 0.72043793
v -33.81634325 -2.27323968 0.87705528
v -33.88418525 -0.75914511 0.87705528
v -32.87786737 2.46949804 0.45027401
v -33.19107339 2.49221635 0.57752537
v -33.58115971 0.83914015 0.72043793
v -33.49748895 2.51627078 0.72043793
v -32.39167154 4.09718351 0.33868387
v -32.71731108 4.09718351 0.45223175
v -32.88917437 4.09718351 19.48120598
v -33.05086762 2.48286154 19.48120598
v -33.13340664 0.82711310 19.48120598
v -32.81907409 -0.73509051 19.60062705
v -33.13566491 -0.74177242 19.48120598
v -33.06895465 -2.22379437 19.48120598
v -33.24534491 -3.73387993 19.34612369
v -33.04521412 -5.21723833 19.34612369
v -32.94345111 -5.82260881 19.34612369
v -32.77836785 -6.68990612 19.34612369
v -33.07573989 -6.75137816 19.19538019
v -32.90726662 -7.52913933 19.19538019
v -32.70148233 -8.37772703 19.19538019
v -32.05812022 -9.55505939 19.34612369
v -32.49004453 -9.16484268 19.19538019
v -32.37471104 -9.55505939 19.19538019
v -32.20623776 -9.55505939 19.27564660
v -32.70713583 -9.55505939 0.98472930
v -32.90048137 -9.27976938 1.04933385
v -33.11531439 -8.48329924 1.04933385
v -33.32336217 -7.62402061 1.04933385
v -33.49409372 -6.83556916 1.04933385
v -33.66256699 -5.94956288 1.04933385
v -33.76659349 -5.33082890 1.04933385
v -33.97124603 -3.81539771 1.04933385
v -34.10806179 -2.29328510 1.04933385
v -33.88192177 0.84582206 0.87705528
v -34.17590380 -0.76582686 1.04933385
v -34.17364031 0.85384010 1.04933385
v -33.03051189 4.09718351 0.57752537
v -33.35615143 4.09718351 0.72826887
v -33.79711926 2.53898876 0.87705528
v -33.20124865 4.09718351 19.34612369
v -33.36067319 2.50557985 19.34612369
v -33.44434395 0.83513113 19.34612369
v -33.44660744 -0.74845417 19.34612369
v -33.37876543 -2.24383979 19.34612369
v -33.68179098 -2.26522149 19.19538019
v -33.54723871 -3.76728885 19.19538019
v -33.34484443 -5.26401075 19.19538019
v -33.24308142 -5.87606346 19.19538019
v -33.36632669 -6.81017796 19.02897418
v -33.19672689 -7.59595716 19.02897418
v -32.98867911 -8.45122710 19.02897418
v -32.77497783 -9.24502434 19.02897418
v -32.55449131 -9.55505939 19.09945192
v -32.81907409 -9.55505939 1.04933385
v -33.17411289 -9.35727814 1.23335946
v -33.39007244 -8.55412642 1.23335946
v -33.60037848 -7.68816620 1.23335946
v -33.77224699 -6.89303251 1.23335946
v -33.94184679 -5.99900819 1.23335946
v -34.04700503 -5.37492875 1.23335946
v -34.25165758 -3.84747051 1.23335946
v -34.38959986 -2.31199407 1.23335946
v -34.45857361 -0.77117232 1.23335946
v -34.08883780 2.56037062 1.04933385
v -34.45631534 0.86052201 1.23335946
v -33.64108473 4.09718351 0.87705528
v -33.93506676 4.09718351 1.04933385
v -33.50653246 4.09718351 19.19538019
v -33.66369873 2.52829783 19.19538019
v -33.74736950 0.84314917 19.19538019
v -33.74963298 -0.75647237 19.19538019
v -33.97803128 -2.28526690 19.02897418
v -33.84121552 -3.80069809 19.02897418
v -33.63769472 -5.31078349 19.02897418
v -33.53479996 -5.92684522 19.02897418
v -33.64786997 -6.86764196 18.85082241
v -33.47713321 -7.66010275 18.85082241
v -33.26795891 -8.52205362 18.85082241
v -32.68339008 -9.55505939 19.02897418
v -33.05199414 -9.32253310 18.85082241
v -33.11531439 -9.55505939 1.23335946
v -33.40137944 -9.55505939 1.43304564
v -33.43756393 -9.43211401 1.43304564
v -33.65578696 -8.62228069 1.43304564
v -33.86722475 -7.74963889 1.43304564
v -34.04135153 -6.94782296 1.43304564
v -34.21208307 -6.04711706 1.43304564
v -34.31610957 -5.41769248 1.43304564
v -34.52415213 -3.87820685 1.43304564
v -34.66323137 -2.33070320 1.43304564
v -34.73333165 -0.77785407 1.43304564
v -34.73107338 0.86720360 1.43304564
v -34.37038109 2.58175216 1.23335946
v -34.21886832 4.09718351 1.23335946
v -33.80390450 4.09718351 19.02897418
v -33.95880729 2.55101614 19.02897418
v -34.04360980 0.84983108 19.02897418
v -34.04587328 -0.76315412 19.02897418
v -34.33193833 -0.76849959 18.85082241
v -34.26296458 -2.30397587 18.85082241
v -34.12728056 -3.83277056 18.85082241
v -33.92149627 -5.35621978 18.85082241
v -33.81747499 -5.97762633 18.85082241
v -33.92149627 -6.92376886 18.65896652
v -33.74850124 -7.72157479 18.65896652
v -33.53706345 -8.59154435 18.65896652
v -33.31997216 -9.39870542 18.65896652
v -32.98302561 -9.55505939 18.85082241
v -33.21481392 -9.55505939 18.69812053
v -33.67726922 -9.55505939 1.64447887
v -33.69196624 -9.50294118 1.64447887
v -33.91245276 -8.68776208 1.64447887
v -34.12502229 -7.80843869 1.64447887
v -34.29914907 -7.00127762 1.64447887
v -34.47214410 -6.09255368 1.64447887
v -34.57729712 -5.45911943 1.64447887
v -34.78760317 -3.90760675 1.64447887
v -34.92780894 -2.34807571 1.64447887
v -34.99791443 -0.78319954 1.64447887
v -34.99565095 0.87388551 1.64447887
v -34.64400738 2.60179758 1.43304564
v -34.45744187 4.09718351 1.40563803
v -34.09223303 4.09718351 18.85082241
v -34.24374580 2.57239768 18.85082241
v -34.32967484 0.85784912 18.85082241
v -34.60895464 0.86453103 18.65896652
v -34.61121812 -0.77518134 18.65896652
v -34.54111263 -2.32268500 18.65896652
v -34.40317035 -3.86350690 18.65896652
v -34.19738606 -5.39898318 18.65896652
v -34.09223303 -6.02573585 18.65896652
v -34.18494731 -6.97722286 18.45144875
v -34.01082054 -7.78171103 18.45144875
v -33.79825100 -8.65836218 18.45144875
v -33.27361241 -9.55505939 18.65896652
v -33.57889622 -9.47086839 18.45144875
v -33.55515569 -9.55505939 18.45144875
v -33.69196624 -9.55505939 1.65622527
v -33.94184679 -9.55505939 1.86961623
v -34.15781155 -8.75057122 1.86961623
v -34.37151283 -7.86456559 1.86961623
v -34.54789788 -7.05205938 1.86961623
v -34.72202465 -6.13665320 1.86961623
v -34.82830942 -5.49920993 1.86961623
v -35.03974721 -3.93567020 1.86961623
v -35.18108472 -2.36544856 1.86961623
v -35.25119022 -0.78988129 1.86961623
v -35.24892673 0.88056743 1.86961623
v -35.16073421 2.64055196 1.86961623
v -34.90745842 2.62184299 1.64447887
v -34.75933567 4.09718351 1.64447887
v -34.49362636 4.09718351 1.43304564
v -34.37151283 4.09718351 18.65896652
v -34.52189386 2.59244309 18.65896652
v -34.87805918 0.87121294 18.45144875
v -34.87919092 -0.78052680 18.45144875
v -34.81021717 -2.34005768 18.45144875
v -34.67001140 -3.89424292 18.45144875
v -34.46196884 -5.44041013 18.45144875
v -34.35568407 -6.07250826 18.45144875
v -34.61008638 -6.11794423 18.23414298
v -34.43709135 -7.02934107 18.23414298
v -34.26183283 -7.83917438 18.23414298
v -34.04813156 -8.72250777 18.23414298
v -33.82765025 -9.54169556 18.23414298
v -33.82765025 -9.55505939 18.23022751
v -34.19286430 -9.55505939 2.10454160
v -39.98877674 -7.49973943 7.00078308
v -35.28058425 -3.96239720 2.10454160
v -35.42305350 -2.38148479 2.10454160
v -35.49428552 -0.79522675 2.10454160
v -35.49202725 0.88724901 2.10454160
v -35.01487494 4.09718351 1.86961623
v -34.97191042 4.09718351 1.83046157
v -35.40270299 2.65926092 2.10454160
v -35.25910199 4.09718351 2.10454160
v -34.64174390 4.09718351 18.45144875
v -34.78986666 2.61248851 18.45144875
v -35.04879594 2.63253392 18.23414298
v -35.13585672 0.87789453 18.23414298
v -35.13812020 -0.78720856 18.23414298
v -35.06801471 -2.35743036 18.23414298
v -34.92780894 -3.92230670 18.23414298
v -34.71750289 -5.48183741 18.23414298
v -34.85431343 -6.16070796 18.00313242
v -34.68019187 -7.07878638 18.00313242
v -34.50266987 -7.89530193 18.00313242
v -34.28784207 -8.78398046 18.00313242
v -34.08092603 -9.55505939 18.00313242
v -34.43143785 -9.55505939 2.35317111
v -39.98877674 4.09718351 7.00078308
v -35.72494730 -0.80057222 2.35317111
v -34.65757787 -9.55505939 2.61158928
v -34.87127393 -9.55505939 2.88175385
v -35.07027820 -9.55505939 3.15974936
v -35.18108472 -9.55505939 3.33007019
v -35.25571197 -9.55505939 3.44753288
v -35.42644352 -9.55505939 3.74314798
v -35.50446078 -9.55505939 3.89389148
v -35.58247805 -9.55505939 4.04659336
v -35.72268382 -9.55505939 4.35786968
v -35.79504758 -9.55505939 4.54189497
v -35.84706083 -9.55505939 4.67501952
v -35.95560908 -9.55505939 4.99608451
v -36.04832336 -9.55505939 5.32302269
v -36.09920487 -9.55505939 5.54424426
v -36.12408236 -9.55505939 5.65387601
v -36.16478339 -9.55505939 5.88488624
v -36.18287563 -9.55505939 5.98864513
v -36.22584537 -9.55505939 6.32341424
v -36.24393240 -9.55505939 6.56421281
v -36.25071764 -9.55505939 6.66209850
v -36.25750288 -9.55505939 6.90485513
v -36.25863463 -9.55505939 13.06969467
v -39.98877674 -7.49973943 12.99921692
v -35.72268382 0.89259448 2.35317111
v -34.85996693 4.09718351 18.26938152
v -34.90180492 4.09718351 18.23414298
v -35.10645747 4.09718351 18.04424481
v -35.29528648 2.65124289 18.00313242
v -35.38347900 0.88457644 18.00313242
v -35.38574249 -0.79255402 18.00313242
v -35.31563699 -2.37480304 18.00313242
v -35.17429948 -3.95037015 18.00313242
v -34.96172994 -5.52059179 18.00313242
v -34.09901306 -9.55505939 17.98551347
v -39.98877674 4.09718351 12.99921692
v -36.25523940 -9.55505939 13.24393129
v -36.24167413 -9.55505939 13.49060306
v -36.20888487 -9.55505939 13.82732991
v -36.15800336 -9.55505939 14.16209870
v -36.13764763 -9.55505939 14.26781531
v -36.09241962 -9.55505939 14.49491008
v -36.06415212 -9.55505939 14.60649990
v -36.00874886 -9.55505939 14.82380600
v -35.97256958 -9.55505939 14.94322642
v -35.90924934 -9.55505939 15.14878645
v -35.79278931 -9.55505939 15.46985110
v -35.73625430 -9.55505939 15.60493339
v -35.66162705 -9.55505939 15.78308580
v -35.59152678 -9.55505939 15.92991384
v -35.51464126 -9.55505939 16.09044665
v -35.35182148 -9.55505939 16.38997657
v -35.24892673 -9.55505939 16.56029806
v -35.17429948 -9.55505939 16.68363394
v -34.98208568 -9.55505939 16.96750199
v -34.83848467 -9.55505939 17.15935789
v -34.77629617 -9.55505939 17.24158203
v -34.60782811 -9.55505939 17.44518433
v -34.55694661 -9.55505939 17.50587340
v -34.32515308 -9.55505939 17.76037611
v -35.62205255 -0.79789949 17.76037611
v -35.15055895 4.09718351 18.00313242
v -35.53160176 2.66861573 17.76037611
v -35.61979428 0.88992191 17.76037611
v -35.38800076 4.09718351 17.76037611
f 1 2 7
f 1 7 14
f 1 14 26
f 1 26 44
f 1 44 69
f 1 69 105
f 1 105 143
f 1 143 145
f 1 145 184
f 1 184 218
f 1 218 249
f 1 249 283
f 1 283 315
f 1 315 318
f 1 318 317
f 1 317 347
f 1 347 373
f 1 373 402
f 1 402 403
f 1 403 429
f 1 429 431
f 1 431 460
f 1 460 483
f 1 483 520
f 1 520 545
f 1 545 544
f 1 544 543
f 1 543 542
f 1 542 541
f 1 541 540
f 1 540 539
f 1 539 538
f 1 538 537
f 1 537 536
f 1 536 535
f 1 535 534
f 1 534 533
f 1 533 532
f 1 532 531
f 1 531 530
f 1 530 529
f 1 529 528
f 1 528 527
f 1 527 526
f 1 526 525
f 1 525 524
f 1 524 523
f 1 523 522
f 1 522 508
f 1 508 507
f 1 507 506
f 1 506 505
f 1 505 504
f 1 504 503
f 1 503 502
f 1 502 501
f 1 501 500
f 1 500 499
f 1 499 498
f 1 498 497
f 1 497 496
f 1 496 495
f 1 495 494
f 1 494 493
f 1 493 492
f 1 492 491
f 1 491 490
f 1 490 489
f 1 489 488
f 1 488 487
f 1 487 484
f 1 484 461
f 1 461 433
f 1 433 432
f 1 432 404
f 1 404 376
f 1 376 375
f 1 375 348
f 1 348 319
f 1 319 285
f 1 285 284
f 1 284 251
f 1 251 219
f 1 219 186
f 1 186 185
f 1 185 146
f 1 146 106
f 1 106 71
f 1 71 70
f 1 70 45
f 1 45 27
f 1 27 15
f 1 15 8
f 1 8 3
f 1 3 4
f 1 4 5
f 1 5 11
f 1 11 21
f 1 21 36
f 1 36 56
f 1 56 84
f 1 84 85
f 1 85 57
f 1 57 37
f 1 37 22
f 1 22 12
f 1 12 6
f 1 6 2
f 2 6 7
f 3 8 4
f 4 8 9
f 4 9 5
f 5 9 10
f 5 10 11
f 6 12 23
f 6 23 13
f 6 13 7
f 7 13 23
f 7 23 39
f 7 39 61
f 7 61 94
f 7 94 130
f 7 130 168
f 7 168 132
f 7 132 95
f 7 95 62
f 7 62 40
f 7 40 24
f 7 24 14
f 8 15 16
f 8 16 17
f 8 17 9
f 9 17 10
f 10 17 18
f 10 18 19
f 10 19 11
f 11 19 20
f 11 20 21
f 12 22 38
f 12 38 59
f 12 59 90
f 12 90 124
f 12 124 162
f 12 162 201
f 12 201 234
f 12 234 267
f 12 267 266
f 12 266 300
f 12 300 301
f 12 301 331
f 12 331 332
f 12 332 360
f 12 360 361
f 12 361 388
f 12 388 416
f 12 416 446
f 12 446 445
f 12 445 468
f 12 468 467
f 12 467 470
f 12 470 485
f 12 485 521
f 12 521 550
f 12 550 547
f 12 547 513
f 12 513 512
f 12 512 511
f 12 511 471
f 12 471 447
f 12 447 417
f 12 417 389
f 12 389 362
f 12 362 334
f 12 334 302
f 12 302 270
f 12 270 268
f 12 268 235
f 12 235 203
f 12 203 202
f 12 202 163
f 12 163 125
f 12 125 91
f 12 91 60
f 12 60 39
f 12 39 23
f 14 24 25
f 14 25 26
f 15 27 16
f 16 27 28
f 16 28 17
f 17 28 29
f 17 29 30
f 17 30 18
f 18 30 31
f 18 31 32
f 18 32 19
f 19 32 33
f 19 33 20
f 20 33 34
f 20 34 21
f 21 34 35
f 21 35 36
f 22 37 38
f 24 40 41
f 24 41 42
f 24 42 25
f 25 42 43
f 25 43 44
f 25 44 26
f 27 45 28
f 28 45 46
f 28 46 29
f 29 46 47
f 29 47 30
f 30 47 48
f 30 48 49
f 30 49 31
f 31 49 50
f 31 50 51
f 31 51 33
f 31 33 32
f 33 52 34
f 33 51 53
f 33 53 52
f 34 52 54
f 34 54 35
f 35 55 36
f 35 54 55
f 36 55 56
f 37 57 58
f 37 58 38
f 38 58 59
f 39 60 61
f 40 62 63
f 40 63 64
f 40 64 41
f 41 64 65
f 41 65 42
f 42 65 66
f 42 66 43
f 43 66 67
f 43 67 68
f 43 68 69
f 43 69 44
f 45 70 46
f 46 70 71
f 46 71 47
f 47 71 72
f 47 72 73
f 47 73 48
f 48 73 49
f 49 73 74
f 49 74 50
f 50 75 53
f 50 53 51
f 50 74 76
f 50 76 77
f 50 77 75
f 52 53 78
f 52 78 54
f 53 75 79
f 53 79 78
f 54 80 55
f 54 78 81
f 54 81 80
f 55 82 56
f 55 80 83
f 55 83 82
f 56 82 84
f 57 85 86
f 57 86 87
f 57 87 58
f 58 87 88
f 58 88 89
f 58 89 59
f 59 89 90
f 60 91 92
f 60 92 93
f 60 93 61
f 61 93 94
f 62 95 96
f 62 96 97
f 62 97 63
f 63 97 98
f 63 98 64
f 64 98 99
f 64 99 65
f 65 99 100
f 65 100 101
f 65 101 67
f 65 67 66
f 67 101 102
f 67 102 103
f 67 103 104
f 67 104 68
f 68 105 69
f 68 104 105
f 71 106 107
f 71 107 72
f 72 108 109
f 72 109 73
f 72 107 108
f 73 109 74
f 74 109 110
f 74 110 111
f 74 111 76
f 75 77 79
f 76 111 77
f 77 112 79
f 77 111 113
f 77 113 114
f 77 114 112
f 78 79 81
f 79 115 81
f 79 112 116
f 79 116 115
f 80 81 83
f 81 117 83
f 81 115 117
f 82 118 84
f 82 83 118
f 83 119 118
f 83 117 119
f 84 118 85
f 85 118 86
f 86 118 120
f 86 120 88
f 86 88 87
f 88 120 121
f 88 121 122
f 88 122 123
f 88 123 89
f 89 123 90
f 90 123 124
f 91 125 92
f 92 125 126
f 92 126 127
f 92 127 128
f 92 128 129
f 92 129 93
f 93 129 94
f 94 129 131
f 94 131 130
f 95 132 133
f 95 133 96
f 96 134 135
f 96 135 97
f 96 133 134
f 97 135 136
f 97 136 98
f 98 136 137
f 98 137 138
f 98 138 100
f 98 100 99
f 100 138 139
f 100 139 140
f 100 140 102
f 100 102 101
f 102 140 141
f 102 141 103
f 103 141 142
f 103 142 104
f 104 143 105
f 104 142 144
f 104 144 145
f 104 145 143
f 106 146 107
f 107 146 108
f 108 147 148
f 108 148 109
f 108 146 147
f 109 148 149
f 109 149 110
f 110 149 111
f 111 149 150
f 111 150 113
f 112 114 116
f 113 150 151
f 113 151 152
f 113 152 114
f 114 153 116
f 114 152 154
f 114 154 153
f 115 155 117
f 115 116 155
f 116 156 155
f 116 153 156
f 117 157 119
f 117 155 158
f 117 158 157
f 118 119 120
f 119 157 121
f 119 121 120
f 121 157 159
f 121 159 122
f 122 159 160
f 122 160 123
f 123 160 161
f 123 161 124
f 124 161 162
f 125 163 126
f 126 163 164
f 126 164 165
f 126 165 127
f 127 165 166
f 127 166 128
f 128 166 167
f 128 167 131
f 128 131 129
f 130 131 169
f 130 169 168
f 131 167 170
f 131 170 169
f 132 168 171
f 132 171 133
f 133 171 134
f 134 171 172
f 134 172 173
f 134 173 174
f 134 174 175
f 134 175 135
f 135 175 136
f 136 175 137
f 137 175 176
f 137 176 177
f 137 177 139
f 137 139 138
f 139 177 178
f 139 178 179
f 139 179 180
f 139 180 140
f 140 180 141
f 141 180 181
f 141 181 182
f 141 182 183
f 141 183 142
f 142 183 184
f 142 184 144
f 144 184 145
f 146 185 147
f 147 185 186
f 147 186 187
f 147 187 188
f 147 188 148
f 148 188 149
f 149 188 189
f 149 189 190
f 149 190 150
f 150 190 191
f 150 191 151
f 151 191 152
f 152 191 192
f 152 192 193
f 152 193 154
f 153 194 156
f 153 154 194
f 154 195 194
f 154 193 195
f 155 156 158
f 156 196 158
f 156 194 197
f 156 197 196
f 157 158 159
f 158 196 198
f 158 198 159
f 159 198 160
f 160 198 199
f 160 199 200
f 160 200 161
f 161 200 162
f 162 200 201
f 163 202 164
f 164 202 203
f 164 203 165
f 165 203 204
f 165 204 205
f 165 205 206
f 165 206 166
f 166 206 207
f 166 207 208
f 166 208 170
f 166 170 167
f 168 169 171
f 169 170 171
f 170 208 173
f 170 173 172
f 170 172 171
f 173 207 209
f 173 209 210
f 173 210 174
f 173 208 207
f 174 210 175
f 175 210 176
f 176 210 211
f 176 211 177
f 177 211 178
f 178 211 212
f 178 212 213
f 178 213 214
f 178 214 179
f 179 214 180
f 180 214 181
f 181 214 215
f 181 215 182
f 182 215 216
f 182 216 183
f 183 216 217
f 183 217 218
f 183 218 184
f 186 219 220
f 186 220 187
f 187 220 221
f 187 221 188
f 188 221 222
f 188 222 189
f 189 222 190
f 190 222 223
f 190 223 191
f 191 223 224
f 191 224 225
f 191 225 192
f 192 225 226
f 192 226 193
f 193 227 195
f 193 226 227
f 194 195 197
f 195 228 197
f 195 227 229
f 195 229 228
f 196 197 230
f 196 230 198
f 197 228 231
f 197 231 230
f 198 230 199
f 199 230 232
f 199 232 233
f 199 233 200
f 200 233 234
f 200 234 201
f 203 235 236
f 203 236 204
f 204 236 235
f 204 235 237
f 204 237 205
f 205 207 206
f 205 237 238
f 205 238 239
f 205 239 207
f 207 239 240
f 207 240 209
f 209 240 210
f 210 240 241
f 210 241 211
f 211 241 242
f 211 242 212
f 212 242 243
f 212 243 244
f 212 244 245
f 212 245 213
f 213 245 214
f 214 245 246
f 214 246 215
f 215 246 247
f 215 247 216
f 216 247 248
f 216 248 217
f 217 249 218
f 217 248 250
f 217 250 249
f 219 251 220
f 220 251 252
f 220 252 221
f 221 252 253
f 221 253 254
f 221 254 222
f 222 254 223
f 223 254 255
f 223 255 256
f 223 256 224
f 224 256 257
f 224 257 225
f 225 257 226
f 226 258 227
f 226 257 259
f 226 259 260
f 226 260 258
f 227 258 229
f 228 229 261
f 228 261 231
f 229 258 262
f 229 262 263
f 229 263 261
f 230 231 264
f 230 264 232
f 231 261 264
f 232 264 233
f 233 264 265
f 233 265 266
f 233 266 267
f 233 267 234
f 235 268 269
f 235 269 237
f 237 269 270
f 237 270 271
f 237 271 272
f 237 272 238
f 238 273 239
f 238 272 273
f 239 273 274
f 239 274 240
f 240 274 242
f 240 242 241
f 242 274 243
f 243 274 275
f 243 275 276
f 243 276 277
f 243 277 244
f 244 277 245
f 245 277 278
f 245 278 246
f 246 278 279
f 246 279 247
f 247 279 280
f 247 280 248
f 248 280 281
f 248 281 282
f 248 282 250
f 249 250 283
f 250 282 283
f 251 284 252
f 252 284 285
f 252 285 286
f 252 286 287
f 252 287 253
f 253 287 288
f 253 288 254
f 254 288 289
f 254 289 255
f 255 289 256
f 256 289 290
f 256 290 257
f 257 290 291
f 257 291 292
f 257 292 259
f 258 260 262
f 259 292 260
f 260 293 262
f 260 292 294
f 260 294 295
f 260 295 293
f 261 296 264
f 261 263 296
f 262 293 263
f 263 297 296
f 263 293 298
f 263 298 299
f 263 299 297
f 264 296 265
f 265 300 266
f 265 296 301
f 265 301 300
f 268 270 269
f 270 302 303
f 270 303 271
f 271 303 304
f 271 304 272
f 272 304 305
f 272 305 273
f 273 305 274
f 274 305 275
f 275 305 306
f 275 306 307
f 275 307 276
f 276 307 308
f 276 308 277
f 277 308 309
f 277 309 278
f 278 309 310
f 278 310 311
f 278 311 279
f 279 311 280
f 280 311 312
f 280 312 313
f 280 313 314
f 280 314 281
f 281 314 282
f 282 315 283
f 282 314 316
f 282 316 317
f 282 317 318
f 282 318 315
f 285 319 286
f 286 319 320
f 286 320 321
f 286 321 287
f 287 321 288
f 288 321 322
f 288 322 289
f 289 322 323
f 289 323 290
f 290 323 324
f 290 324 325
f 290 325 291
f 291 325 292
f 292 325 326
f 292 326 327
f 292 327 294
f 293 295 328
f 293 328 298
f 294 327 295
f 295 327 329
f 295 329 330
f 295 330 328
f 296 297 331
f 296 331 301
f 297 299 331
f 298 328 299
f 299 332 331
f 299 328 333
f 299 333 332
f 302 334 335
f 302 335 303
f 303 335 336
f 303 336 304
f 304 336 306
f 304 306 305
f 306 336 337
f 306 337 307
f 307 337 338
f 307 338 308
f 308 339 340
f 308 340 309
f 308 338 339
f 309 340 341
f 309 341 342
f 309 342 310
f 310 342 311
f 311 342 312
f 312 342 343
f 312 343 344
f 312 344 313
f 313 344 314
f 314 344 345
f 314 345 316
f 316 345 346
f 316 346 347
f 316 347 317
f 319 348 320
f 320 348 349
f 320 349 321
f 321 349 350
f 321 350 351
f 321 351 322
f 322 351 323
f 323 351 352
f 323 352 324
f 324 352 353
f 324 353 354
f 324 354 325
f 325 354 326
f 326 354 355
f 326 355 327
f 327 355 356
f 327 356 357
f 327 357 329
f 328 330 358
f 328 358 333
f 329 357 359
f 329 359 330
f 330 359 358
f 332 333 360
f 333 358 361
f 333 361 360
f 334 362 363
f 334 363 335
f 335 363 336
f 336 363 364
f 336 364 337
f 337 364 365
f 337 365 339
f 337 339 338
f 339 365 366
f 339 366 340
f 340 366 367
f 340 367 368
f 340 368 341
f 341 368 342
f 342 368 369
f 342 369 343
f 343 369 370
f 343 370 371
f 343 371 344
f 344 371 372
f 344 372 345
f 345 372 346
f 346 373 347
f 346 372 374
f 346 374 373
f 348 375 349
f 349 375 376
f 349 376 377
f 349 377 378
f 349 378 350
f 350 378 351
f 351 378 379
f 351 379 380
f 351 380 352
f 352 380 353
f 353 380 381
f 353 381 354
f 354 381 382
f 354 382 383
f 354 383 355
f 355 383 384
f 355 384 356
f 356 384 385
f 356 385 357
f 357 385 386
f 357 386 359
f 358 359 387
f 358 387 388
f 358 388 361
f 359 386 387
f 362 389 390
f 362 390 363
f 363 390 391
f 363 391 364
f 364 391 365
f 365 391 392
f 365 392 366
f 366 392 393
f 366 393 394
f 366 394 395
f 366 395 367
f 367 395 368
f 368 395 396
f 368 396 369
f 369 396 397
f 369 397 370
f 370 397 398
f 370 398 371
f 371 398 399
f 371 399 372
f 372 399 400
f 372 400 401
f 372 401 374
f 373 374 402
f 374 401 403
f 374 403 402
f 376 404 377
f 377 404 405
f 377 405 406
f 377 406 378
f 378 406 379
f 379 406 407
f 379 407 380
f 380 407 408
f 380 408 409
f 380 409 381
f 381 409 410
f 381 410 382
f 382 410 411
f 382 411 383
f 383 411 412
f 383 412 384
f 384 412 385
f 385 412 413
f 385 413 414
f 385 414 386
f 386 414 415
f 386 415 387
f 387 415 416
f 387 416 388
f 389 417 390
f 390 417 418
f 390 418 419
f 390 419 391
f 391 419 392
f 392 419 393
f 393 419 420
f 393 420 421
f 393 421 394
f 394 421 422
f 394 422 395
f 395 422 423
f 395 423 424
f 395 424 396
f 396 424 397
f 397 424 425
f 397 425 398
f 398 425 426
f 398 426 427
f 398 427 399
f 399 427 428
f 399 428 400
f 400 428 401
f 401 429 403
f 401 428 430
f 401 430 431
f 401 431 429
f 404 432 405
f 405 432 406
f 406 432 433
f 406 433 434
f 406 434 407
f 407 434 435
f 407 435 436
f 407 436 408
f 408 436 409
f 409 436 437
f 409 437 438
f 409 438 410
f 410 438 411
f 411 438 439
f 411 439 440
f 411 440 412
f 412 440 413
f 413 440 441
f 413 441 442
f 413 442 414
f 414 442 443
f 414 443 444
f 414 444 415
f 415 444 445
f 415 445 446
f 415 446 416
f 417 447 448
f 417 448 418
f 418 448 420
f 418 420 419
f 420 448 449
f 420 449 421
f 421 449 450
f 421 450 451
f 421 451 422
f 422 451 423
f 423 451 452
f 423 452 424
f 424 452 453
f 424 453 425
f 425 453 454
f 425 454 426
f 426 454 455
f 426 455 456
f 426 456 457
f 426 457 427
f 427 457 458
f 427 458 428
f 428 458 459
f 428 459 430
f 430 459 431
f 431 459 460
f 433 461 462
f 433 462 434
f 434 462 435
f 435 462 436
f 436 462 437
f 437 462 438
f 438 462 439
f 439 462 463
f 439 463 464
f 439 464 440
f 440 464 465
f 440 465 441
f 441 465 466
f 441 466 442
f 442 466 443
f 443 467 468
f 443 468 444
f 443 466 469
f 443 469 470
f 443 470 467
f 444 468 445
f 447 471 448
f 448 471 472
f 448 472 449
f 449 472 473
f 449 473 474
f 449 474 475
f 449 475 450
f 450 475 451
f 451 475 476
f 451 476 477
f 451 477 452
f 452 477 453
f 453 477 478
f 453 478 454
f 454 478 455
f 455 478 479
f 455 479 480
f 455 480 456
f 456 480 457
f 457 480 481
f 457 481 482
f 457 482 458
f 458 482 483
f 458 483 459
f 459 483 460
f 461 484 462
f 462 485 486
f 462 486 465
f 462 465 464
f 462 464 463
f 462 484 487
f 462 487 488
f 462 488 489
f 462 489 490
f 462 490 491
f 462 491 492
f 462 492 493
f 462 493 494
f 462 494 495
f 462 495 496
f 462 496 497
f 462 497 498
f 462 498 499
f 462 499 500
f 462 500 501
f 462 501 502
f 462 502 503
f 462 503 504
f 462 504 505
f 462 505 506
f 462 506 507
f 462 507 508
f 462 508 509
f 462 509 521
f 462 521 485
f 465 486 510
f 465 510 466
f 466 510 485
f 466 485 469
f 469 485 470
f 471 511 473
f 471 473 472
f 473 512 513
f 473 513 514
f 473 514 515
f 473 515 474
f 473 511 512
f 474 515 475
f 475 515 516
f 475 516 517
f 475 517 476
f 476 517 477
f 477 517 518
f 477 518 478
f 478 518 519
f 478 519 479
f 479 519 509
f 479 509 480
f 480 509 481
f 481 509 482
f 482 509 483
f 483 509 520
f 485 510 486
f 508 522 509
f 509 522 523
f 509 523 524
f 509 524 525
f 509 525 526
f 509 526 527
f 509 527 528
f 509 528 529
f 509 529 530
f 509 530 531
f 509 531 532
f 509 532 533
f 509 533 534
f 509 534 535
f 509 535 536
f 509 536 537
f 509 537 538
f 509 538 539
f 509 539 540
f 509 540 541
f 509 541 542
f 509 542 543
f 509 543 544
f 509 544 545
f 509 545 520
f 509 519 518
f 509 518 517
f 509 517 516
f 509 516 546
f 509 546 521
f 513 547 514
f 514 547 548
f 514 548 515
f 515 548 549
f 515 549 516
f 516 549 546
f 521 546 549
f 521 549 548
f 521 548 550
f 547 550 548

