# https://github.com/mikedh/trimesh
v 0.29751539 -29.99269143 20.00000006
v -13.79286468 -26.63104907 20.00000006
v 0.29751539 -30.49465083 20.00000006
v 0.29751539 -29.99269143 -0.00000006
v -13.79286468 -27.19256319 20.00000006
v -13.79286468 -26.63104907 -0.00000006
v 0.11819668 -30.49996793 20.00000006
v 0.11957616 -30.83921708 19.99021204
v 0.29751539 -30.83389997 19.99021204
v 0.29751539 -30.49465083 -0.00000006
v -13.15697104 -27.51692235 20.00000006
v -13.79286468 -27.57328786 19.99021204
v -13.79286468 -27.19256319 -0.00000006
v -1.40601888 -30.46806529 20.00000006
v -1.42257258 -30.80624789 19.99021204
v -1.43774420 -31.14443310 19.96671924
v 0.12095302 -31.17740229 19.96671924
v 0.29751539 -31.17208518 19.96671924
v 0.11819668 -30.49996793 -0.00000006
v 0.29751539 -30.76902814 0.00587314
v -11.76517725 -28.14011909 20.00000006
v -13.30318496 -27.82214098 19.99021204
v -11.89621955 -28.45278010 19.99021204
v -13.79286468 -27.95188464 19.96671924
v -13.44802201 -28.12735699 19.96671924
v -13.15697104 -27.51692235 -0.00000006
v -13.79286468 -27.46800184 0.00587314
v -2.92747810 -30.35959005 20.00000006
v -2.95920342 -30.69671132 19.99021204
v -2.99231082 -31.03383258 19.96671924
v -1.45292103 -31.48049042 19.92560750
v 0.12233511 -31.51345961 19.92560750
v 0.29751539 -31.50814250 19.92560750
v -1.40601888 -30.46806529 -0.00000006
v 0.29751539 -30.98597601 0.01761889
v 0.11957616 -30.99129312 0.01761889
v -1.42947257 -30.95832653 0.01761889
v -1.41705468 -30.71372658 0.00587314
v -10.34441188 -28.69206294 20.00000006
v -12.02587977 -28.76437977 19.96671924
v -10.57338908 -29.32908311 19.96671924
v -10.45890048 -29.01110500 19.99021204
v -13.79286468 -28.32941748 19.92560750
v -13.59285906 -28.43044773 19.92560750
v -11.76517725 -28.14011909 -0.00000006
v -11.86035320 -28.36663984 0.00587314
v -13.26180592 -27.73812599 0.00587314
v -13.79286468 -27.74344310 0.01761889
v -4.44066048 -30.17560877 20.00000006
v -4.49031636 -30.51060215 19.99021204
v -4.53859538 -30.84559813 19.96671924
v -4.58825648 -31.17740229 19.92560750
v -3.02403614 -31.36776462 19.92560750
v -3.05576146 -31.70063011 19.86883324
v -1.46809265 -31.81335852 19.86883324
v 0.12371197 -31.84738904 19.86883324
v 0.29751539 -31.54536486 19.91973430
v -2.92747810 -30.35959005 -0.00000006
v 0.29751539 -31.32309727 0.05090035
v 0.12095302 -31.32841438 0.05090035
v -1.44464418 -31.29544780 0.05090035
v -2.97438025 -30.84878735 0.01761889
v -2.95092657 -30.60419001 0.00587314
v -8.89744431 -29.17381525 20.00000006
v -12.15553999 -29.07384895 19.92560750
v -10.68787768 -29.64599729 19.92560750
v -9.09469098 -29.82040830 19.96671924
v -8.99675608 -29.49711308 19.99021204
v -13.79286468 -28.70376110 19.86883324
v -13.73769090 -28.73141058 19.86883324
v -12.28520542 -29.38225679 19.86883324
v -10.34441188 -28.69206294 -0.00000006
v -10.42717516 -28.92389819 0.00587314
v -10.51132053 -29.15467471 0.01761889
v -11.95415229 -28.59315798 0.01761889
v -13.36801767 -27.95932963 0.01761889
v -13.79286468 -28.12203988 0.05090035
v -5.94280705 -29.91612144 20.00000006
v -6.00901663 -30.24792559 19.99021204
v -6.07522622 -30.57972975 19.96671924
v -6.14005893 -30.90940602 19.92560750
v -4.63653028 -31.50814250 19.86883324
v -3.08748677 -32.03030899 19.79444068
v -1.48326427 -32.14303739 19.79444068
v 0.12371197 -32.17706792 19.79444068
v 0.29751539 -31.84207194 19.86883324
v -4.44066048 -30.17560877 -0.00000006
v -4.47652161 -30.41914478 0.00587314
v 0.29751539 -31.62087090 0.09201210
v 0.12233511 -31.66341037 0.09788530
v -1.45981580 -31.63044117 0.09788530
v -3.00610557 -31.18378334 0.05090035
v -3.03920776 -31.51771277 0.09788530
v -4.51238796 -30.66161685 0.01761889
v -7.42839992 -29.58218940 20.00000006
v -7.51116320 -29.91080433 19.99021204
v -10.80098942 -29.95972484 19.86883324
v -9.29056600 -30.46168424 19.86883324
v -9.19263110 -30.14264219 19.92560750
v -7.59392649 -30.23835272 19.96671924
v -13.79286468 -29.06959578 19.79444068
v -12.41210669 -29.68747541 19.79444068
v -10.91271907 -30.27132191 19.79444068
v -8.89744431 -29.17381525 -0.00000006
v -8.96917179 -29.40884493 0.00587314
v -9.04089928 -29.64280806 0.01761889
v -9.13883418 -29.96610329 0.05090035
v -10.62580913 -29.47158888 0.05090035
v -12.08519459 -28.90369371 0.05090035
v -13.51423159 -28.26348171 0.05090035
v -13.79286468 -28.18903960 0.05873129
v -7.67530769 -30.56377582 19.92560750
v -7.75669411 -30.88813759 19.86883324
v -6.20489165 -31.23695701 19.86883324
v -4.68480930 -31.83569089 19.79444068
v -4.73171145 -32.15792477 19.70634334
v -3.11921209 -32.35360421 19.70634334
v -1.49844110 -32.46952184 19.70634334
v 0.12509406 -32.50355497 19.70634334
v 0.29751539 -32.46420473 19.71613200
v 0.29751539 -32.17175081 19.79444068
v -5.94280705 -29.91612144 -0.00000006
v -5.99108607 -30.15646562 0.00587314
v -6.03798300 -30.39787374 0.01761889
v 0.29751539 -31.65915459 0.09788530
v 0.12371197 -31.99627586 0.16248984
v -1.47498742 -31.96224533 0.16248984
v -3.07093307 -31.84951693 0.16248984
v -4.56066698 -30.99448495 0.05090035
v -4.61032286 -31.32628910 0.09788530
v -6.10419258 -30.72861657 0.05090035
v -9.38712403 -30.77859841 19.79444068
v -7.83807531 -31.20930493 19.79444068
v -13.79286468 -29.42798547 19.70634334
v -12.53900796 -29.98949960 19.70634334
v -11.02444872 -30.57866581 19.70634334
v -7.42839992 -29.58218940 -0.00000006
v -7.48909160 -29.82040830 0.00587314
v -7.54840642 -30.05756326 0.01761889
v -7.63116971 -30.38511425 0.05090035
v -7.71255091 -30.71053736 0.09788530
v -9.23676908 -30.28620929 0.09788530
v -10.73891565 -29.78744172 0.09788530
v -12.21347272 -29.21316549 0.09788530
v -13.65906864 -28.56657244 0.09788530
v -13.79286468 -28.49850878 0.09788530
v -6.26971915 -31.56131618 19.79444068
v -6.33316979 -31.88248612 19.70634334
v -4.77860838 -32.47696683 19.60062705
v -3.15093741 -32.67477416 19.60062705
v -1.51361272 -32.79175572 19.60062705
v 0.29751539 -32.49929920 19.70634334
v 0.12647092 -32.82578625 19.60062705
v 0.29751539 -32.78750256 19.61237280
v 0.29751539 -31.99095875 0.16248984
v 0.12509406 -32.32489079 0.24275625
v -1.49016425 -32.29086027 0.24275625
v -4.65860188 -31.65596537 0.16248984
v -3.10265839 -32.17600398 0.24275625
v -4.70549881 -31.98138848 0.24275625
v -6.16902530 -31.05722889 0.09788530
v -9.48229998 -31.09125942 19.70634334
v -7.91670278 -31.52622171 19.70634334
v -13.79286468 -29.78106067 19.60062705
v -12.66315550 -30.28620929 19.60062705
v -11.13341942 -30.88175654 19.60062705
v -9.57609907 -31.39966726 19.60062705
v -6.23385802 -31.38371594 0.16248984
v -7.79255524 -31.03276864 0.16248984
v -9.33470398 -30.60419001 0.16248984
v -10.85202739 -30.10010272 0.16248984
v -12.34175608 -29.52050939 0.16248984
v -13.79286468 -28.87072712 0.16248984
v -7.99532503 -31.83888271 19.60062705
v -6.39662564 -32.19727241 19.60062705
v -6.45731732 -32.50780813 19.48120598
v -4.82550532 -32.78962784 19.48120598
v -3.18128586 -32.98956044 19.48120598
v -1.52878433 -33.10760856 19.48120598
v 0.12785301 -33.14270303 19.48120598
v 0.29751539 -32.82153308 19.60062705
v 0.29751539 -32.85343572 19.58888065
v 0.29751539 -32.31957369 0.24275625
v 0.12647092 -32.64924996 0.33868387
v -1.50533587 -32.61521943 0.33868387
v -3.13300684 -32.49929920 0.33868387
v -6.29868552 -31.70594722 0.24275625
v -4.75377783 -32.30149448 0.33868387
v -6.36214137 -32.02498928 0.33868387
v -13.79286468 -30.02034090 19.51840291
v -12.78453887 -30.57866581 19.48120598
v -11.24101326 -31.17952757 19.48120598
v -9.66851607 -31.70169406 19.48120598
v -8.07257041 -32.14516267 19.48120598
v -7.87394166 -31.35181069 0.24275625
v -9.42988515 -30.92004023 0.24275625
v -10.96375704 -30.40957190 0.24275625
v -13.79286468 -29.19721156 0.23492532
v -12.46866256 -29.82359752 0.24275625
v -6.51800901 -32.81302415 19.34612369
v -4.87102538 -33.09697174 19.34612369
v -3.21025223 -33.29903223 19.34612369
v -1.54257908 -33.41814168 19.34612369
v 0.12922987 -33.45323615 19.34612369
v 0.29751539 -33.16928856 19.46750250
v 0.29751539 -33.13738331 19.48120598
v 0.29751539 -32.64393285 0.33868387
v 0.12785301 -32.96935596 0.45027401
v -1.52050748 -32.93426149 0.45027401
v -3.16473216 -32.81727992 0.45027401
v -4.79929790 -32.61840865 0.45027401
v -7.95256391 -31.66766353 0.33868387
v -6.42420992 -32.33765289 0.45027401
v -8.02980930 -31.97713532 0.45027401
v -13.79286468 -30.12775220 19.48120598
v -13.79286468 -30.46806529 19.34612369
v -12.90454537 -30.86474128 19.34612369
v -11.34584293 -31.47198409 19.34612369
v -9.75955620 -31.99946769 19.34612369
v -8.14843893 -32.44612552 19.34612369
v -9.52506110 -31.23057596 0.33868387
v -11.07410461 -30.71479052 0.33868387
v -12.59418696 -30.12349904 0.33868387
v -13.79286468 -29.23124470 0.24275625
v -13.79286468 -29.52263467 0.32106493
v -8.22292536 -32.74070993 19.19538019
v -6.57732382 -33.11079778 19.19538019
v -4.91516858 -33.39793459 19.19538019
v -3.23921859 -33.60105902 19.19538019
v -1.55637383 -33.72123241 19.19538019
v 0.13060935 -33.75739083 19.19538019
v 0.29751539 -33.44791904 19.34612369
v 0.29751539 -32.96403885 0.45027401
v 0.29751539 -33.27882774 0.57752537
v 0.12922987 -33.28308091 0.57752537
v -1.53430223 -33.24798644 0.57752537
v -3.19369853 -33.12994093 0.57752537
v -4.84620005 -32.92894438 0.57752537
v -6.48490161 -32.64606073 0.57752537
v -9.61886019 -31.53579198 0.45027401
v -8.10705468 -32.28128739 0.57752537
v -9.70990032 -31.83675483 0.57752537
v -13.79286468 -30.79986945 19.19538019
v -13.02179292 -31.14549704 19.19538019
v -11.44929573 -31.75699562 19.19538019
v -9.84783739 -32.28873238 19.19538019
v -11.18169844 -31.01575337 0.45027401
v -12.71832928 -30.41808084 0.45027401
v -13.79286468 -29.58750650 0.33868387
v -8.29465285 -33.02784674 19.02897418
v -6.63525656 -33.40112641 19.02897418
v -4.95792970 -33.69039111 19.02897418
v -3.26818496 -33.89564082 19.02897418
v -1.57016858 -34.01687816 19.02897418
v 0.13198882 -34.05303657 19.02897418
v 0.29751539 -34.01900604 19.04659377
v 0.29751539 -33.75207372 19.19538019
v 0.29751539 -33.58617164 0.72043793
v 0.12922987 -33.59042481 0.72043793
v -1.54947907 -33.55533034 0.72043793
v -3.22404698 -33.43622088 0.72043793
v -4.89033803 -33.23309645 0.72043793
v -6.54559851 -32.94702359 0.72043793
v -8.18154112 -32.57906102 0.72043793
v -9.79955837 -32.12921135 0.72043793
v -11.39274508 -31.60066381 0.72043793
v -11.28791019 -31.31139912 0.57752537
v -13.79286468 -30.94981760 19.11902925
v -13.13628152 -31.41881041 19.02897418
v -11.54999480 -32.03562610 19.02897418
v -9.93473649 -32.57161602 19.02897418
v -12.83971265 -30.70840947 0.57752537
v -13.79286468 -29.93738987 0.45027401
v -10.01888186 -32.84705728 18.85082241
v -8.36500347 -33.30647722 18.85082241
v -6.69043034 -33.68294612 18.85082241
v -4.99930874 -33.97540264 18.85082241
v -3.29577446 -34.18278024 18.85082241
v -1.58396333 -34.30401497 18.85082241
v 0.13336830 -34.34017338 18.85082241
v 0.29751539 -34.07643288 19.01331296
v 0.29751539 -33.85629319 0.86139342
v 0.13060935 -33.89138766 0.87705528
v -1.56326860 -33.85522924 0.87705528
v -3.25301334 -33.73505846 0.87705528
v -4.93448123 -33.52980614 0.87705528
v -6.60353124 -33.24160539 0.87705528
v -8.25465068 -32.87045360 0.87705528
v -9.88783956 -32.41634816 0.87705528
v -11.49481580 -31.88354746 0.87705528
v -12.95834228 -30.99235706 0.72043793
v -13.79286468 -31.12422861 19.02897418
v -13.79286468 -31.24759123 18.96045417
v -13.24663430 -31.68361485 18.85082241
v -11.64654762 -32.30468370 18.85082241
v -13.79286468 -30.28195612 0.57752537
v -11.74172878 -32.56736286 18.65896652
v -10.10026306 -33.11292566 18.65896652
v -8.43258992 -33.57659876 18.65896652
v -6.74560934 -33.95625949 18.65896652
v -5.04069299 -34.25084129 18.65896652
v -3.32198188 -34.45928283 18.65896652
v -1.59637600 -34.58264545 18.65896652
v 0.13336830 -34.61880386 18.65896652
v 0.29751539 -34.36250575 18.83320281
v 0.29751539 -34.33592021 18.85082241
v 0.29751539 -33.88607055 0.87705528
v 0.29751539 -34.14981104 1.03171490
v 0.13198882 -34.18384418 1.04933385
v -1.57568648 -34.14768577 1.04933385
v -3.28059763 -34.02538449 1.04933385
v -4.97723714 -33.81907083 1.04933385
v -6.66008711 -33.52874219 1.04933385
v -8.32637817 -33.15440118 1.04933385
v -9.97197971 -32.69604258 1.04933385
v -11.59413278 -32.15686083 1.04933385
v -13.18593740 -31.53898381 1.04933385
v -13.07283089 -31.26885965 0.87705528
v -13.79286468 -30.78391552 0.79874661
v -13.79286468 -30.61801344 0.72043793
v -13.79286468 -30.47550768 0.65974886
v -13.79286468 -31.44007884 18.85082241
v -13.35422292 -31.94097690 18.65896652
v -11.83276370 -32.82046914 18.45144875
v -10.17750844 -33.37028511 18.45144875
v -8.49742264 -33.83715004 18.45144875
v -6.79664209 -34.22000259 18.45144875
v -5.07931307 -34.51670967 18.45144875
v -3.34818929 -34.72727910 18.45144875
v -1.60878867 -34.85170566 18.45144875
v 0.29751539 -34.61455069 18.65896652
v 0.13474777 -34.88786407 18.45144875
v 0.29751539 -34.64007489 18.63938918
v 0.29751539 -34.17852707 1.04933385
v 0.29751539 -34.46247466 1.23335946
v 0.13336830 -34.46672782 1.23335946
v -1.58948123 -34.43056941 1.23335946
v -3.30818713 -34.30827074 1.23335946
v -5.01862139 -34.09982920 1.23335946
v -6.71526089 -33.80737267 1.23335946
v -8.39534670 -33.42877589 1.23335946
v -10.05474299 -32.96829201 1.23335946
v -11.69069082 -32.42379315 1.23335946
v -13.29629019 -31.80059642 1.23335946
v -13.79286468 -31.26779571 1.04933385
v -13.79286468 -30.94769232 0.87705528
v -13.79286468 -31.74529746 18.65896652
v -13.79286468 -32.03987926 18.45144875
v -13.45767573 -32.18770213 18.45144875
v -13.55836958 -32.42698498 18.23414298
v -11.92104489 -33.06400515 18.23414298
v -10.25337175 -33.61807428 18.23414298
v -8.56087327 -34.08813104 18.23414298
v -6.84630319 -34.47417282 18.23414298
v -5.11655629 -34.77300778 18.23414298
v -3.37301984 -34.98463854 18.23414298
v -1.62120655 -35.11012904 18.23414298
v 0.13612725 -35.14735140 18.23414298
v 0.29751539 -34.88360830 18.45144875
v 0.29751539 -34.73684937 1.43304564
v 0.13474777 -34.74110514 1.43304564
v -1.60189390 -34.70494673 1.43304564
v -3.33439454 -34.58158150 1.43304564
v -5.05862355 -34.37207863 1.43304564
v -6.76767573 -34.07643288 1.43304564
v -8.46155629 -33.69570822 1.43304564
v -10.13474733 -33.22990723 1.43304564
v -11.78310782 -32.68221654 1.43304564
v -13.40112507 -32.05370530 1.43304564
v -13.79286468 -31.66659959 1.29209081
v -13.79286468 -31.57833144 1.23335946
v -13.79286468 -32.32169896 18.23414298
v -13.65355074 -32.65563101 18.00313242
v -12.00519025 -33.29690695 18.00313242
v -10.32648131 -33.85522924 18.00313242
v -8.62156495 -34.32847522 18.00313242
v -6.89458221 -34.71664488 18.00313242
v -5.15242264 -35.01760773 18.00313242
v -3.39646831 -35.23136638 18.00313242
v -1.63223714 -35.35791822 18.00313242
v 0.13750672 -35.39514057 18.00313242
v 0.29751539 -35.14203429 18.23414298
v 0.29751539 -35.00165641 1.64447887
v 0.13474777 -35.00590958 1.64447887
v -1.61430657 -34.96868722 1.64447887
v -3.35922509 -34.84426066 1.64447887
v -5.09586677 -34.63369384 1.64447887
v -6.81871369 -34.33592021 1.64447887
v -8.52638900 -33.95200633 1.64447887
v -10.21199271 -33.48301351 1.64447887
v -11.87276587 -32.93106966 1.64447887
v -13.50319579 -32.29617737 1.64447887
v -13.79286468 -32.16749504 1.64447887
v -13.79286468 -31.87823035 1.43304564
v -13.79286468 -32.59288445 18.00313242
v -13.74459088 -32.87364282 17.76037611
v -12.08519459 -33.51917192 17.76037611
v -10.39544985 -34.08174999 17.76037611
v -8.67949769 -34.55818519 17.76037611
v -6.94147915 -34.94848013 17.76037611
v -5.18690690 -35.25157087 17.76037611
v -3.41991678 -35.46745740 17.76037611
v -1.64327294 -35.59400924 17.76037611
v 0.13750672 -35.63123159 17.76037611
v 0.29751539 -35.62697843 17.76037611
v 0.29751539 -35.38982347 18.00313242
v 0.29751539 -35.23136638 1.84808116
v 0.13612725 -35.26007980 1.86961623
v -1.62534237 -35.22285745 1.86961623
v -3.38405564 -35.09736694 1.86961623
v -5.13310999 -34.88467224 1.86961623
v -6.86836958 -34.58477333 1.86961623
v -8.58846277 -34.19766761 1.86961623
v -10.28647915 -33.72654952 1.86961623
v -11.95828810 -33.17035250 1.86961623
v -13.60113591 -32.53120445 1.86961623
v -13.79286468 -32.21428767 1.68167580
v -13.79286468 -32.85875544 17.75254518
v -13.79286468 -32.98637122 17.62137836
v -13.79286468 -33.09059069 17.51174660
v -12.16105789 -33.72973874 17.50587340
v -10.46028256 -34.29550864 17.50587340
v -8.73329461 -34.77619961 17.50587340
v -6.98424026 -35.16861983 17.50587340
v -5.22000909 -35.47383845 17.50587340
v -3.44060630 -35.69078632 17.50587340
v -1.65293187 -35.81734076 17.50587340
v 0.13888620 -35.85562445 17.50587340
v 0.29751539 -35.85137129 17.50587340
v 0.29751539 -35.25476269 1.86961623
v 0.13750672 -35.50255187 2.10454160
v -1.63637817 -35.46532951 2.10454160
v 0.29751539 -35.49829870 2.10454160
v -3.40750411 -35.33877507 2.10454160
v -5.16897112 -35.12501903 2.10454160
v -6.91664860 -34.82299224 2.10454160
v -8.64777237 -34.43375863 2.10454160
v -10.35682976 -33.95838737 2.10454160
v -12.04105139 -33.39793459 2.10454160
v -13.69492978 -32.75453337 2.10454160
v -13.79286468 -32.44506158 1.86961623
v -13.79286468 -32.71093257 2.10454160
v -13.79286468 -33.10122751 17.50000020
v -12.23278537 -33.92967395 17.24158203
v -10.52235633 -34.49863046 17.24158203
v -8.78571466 -34.98144932 17.24158203
v -7.02561930 -35.37599742 17.24158203
v -5.25035754 -35.68334132 17.24158203
v -3.46130103 -35.90135314 17.24158203
v -1.66258559 -36.02897152 17.24158203
v 0.13888620 -36.06725521 17.24158203
v 0.29751539 -36.06300205 17.24158203
v 0.13750672 -35.73332578 2.35317111
v -1.64741397 -35.69610342 2.35317111
v 0.29751539 -35.72907001 2.35317111
v -3.42957571 -35.56848764 2.35317111
v -5.20207852 -35.35366505 2.35317111
v -6.96079180 -35.04951037 2.35317111
v -8.70432824 -34.65709016 2.35317111
v -10.42441621 -34.17958841 2.35317111
v -12.11967885 -33.61594900 2.35317111
v -13.78459305 -32.96829201 2.35317111
v -13.79286468 -32.96403885 2.35317111
v -13.79286468 -33.32242854 17.24158203
v -13.79286468 -33.53618719 16.96750199
v -12.30037704 -34.11684446 16.96750199
v -10.58028907 -34.68899280 16.96750199
v -8.83398846 -35.17393693 16.96750199
v -7.06424460 -35.57167687 16.96750199
v -5.27932391 -35.88008471 16.96750199
v -3.48060846 -36.09916046 16.96750199
v -1.67223930 -36.22784019 16.96750199
v 0.14026567 -36.26612648 16.96750199
v 0.29751539 -36.26187071 16.96750199
v 0.13888620 -35.95240153 2.61158928
v -1.65706769 -35.91411524 2.61158928
v -3.45026523 -35.78649946 2.61158928
v 0.29751539 -35.94814837 2.61158928
v -5.23380384 -35.56955159 2.61158928
v -7.00355291 -35.26326902 2.61158928
v -8.75674307 -34.86978486 2.61158928
v -10.48924893 -34.38802995 2.61158928
v -12.19416529 -33.82119872 2.61158928
v -13.79286468 -33.18949565 2.59984288
v -13.79286468 -32.98637122 2.37666391
v -13.79286468 -33.73505846 16.68363394
v -12.36245081 -34.29019153 16.68363394
v -10.63408077 -34.86552909 16.68363394
v -8.87813166 -35.35366505 16.68363394
v -7.10148782 -35.75353026 16.68363394
v -5.30691341 -36.06300205 16.68363394
v -3.49854425 -36.28314175 16.68363394
v -1.68051615 -36.41288541 16.68363394
v 0.14026567 -36.45116910 16.68363394
v 0.29751539 -36.44691594 16.68363394
v 0.29751539 -36.13531888 2.85630332
v 0.14026567 -36.15871519 2.88175385
v -1.66672140 -36.12042889 2.88175385
v -3.46957788 -35.99174917 2.88175385
v -5.26415229 -35.77373736 2.88175385
v -7.04355508 -35.46532951 2.88175385
v -8.80778104 -35.06971747 2.88175385
v -10.54856375 -34.58583727 2.88175385
v -12.26313382 -34.01475027 2.88175385
v -13.79286468 -33.40112641 2.85630332
v -13.79286468 -33.88394266 16.44675018
v -12.42176041 -34.45183784 16.38997657
v -10.68374187 -35.02930589 16.38997657
v -8.92089278 -35.51956713 16.38997657
v -7.13459000 -35.92156023 16.38997657
v -5.33173874 -36.23315729 16.38997657
v -3.51509273 -36.45436093 16.38997657
v -1.68879300 -36.58410460 16.38997657
v 0.14164515 -36.62239090 16.38997657
v 0.29751539 -36.61813512 16.38997657
v 0.29751539 -36.15339808 2.88175385
v 0.29751539 -36.34694964 3.15974936
v 0.14026567 -36.35120280 3.15974936
v -1.67638034 -36.31291911 3.15974936
v -3.48888531 -36.18317544 3.15974936
v -5.29173657 -35.96409969 3.15974936
v -7.08079830 -35.65462790 3.15974936
v -8.85468319 -35.25582403 3.15974936
v -10.60511440 -34.76981856 3.15974936
v -12.32934341 -34.19660628 3.15974936
v -13.79286468 -33.44047405 2.90720439
v -13.79286468 -33.91797580 16.38997657
v -13.79286468 -34.08706710 16.09044665
v -12.47418046 -34.59966071 16.09044665
v -10.72926193 -35.17925404 16.09044665
v -8.95813599 -35.67164317 16.09044665
v -7.16493845 -36.07470021 16.09044665
v -5.35519242 -36.38842516 16.09044665
v -3.53026956 -36.60962880 16.09044665
v -1.69569299 -36.74043640 16.09044665
v 0.14164515 -36.77978404 16.09044665
v 0.29751539 -36.76170483 16.11589653
v 0.29751539 -36.52561381 3.44753288
v 0.14164515 -36.52986698 3.44753288
v -1.68465719 -36.49158329 3.44753288
v -3.50543901 -36.36183962 3.44753288
v -5.31794921 -36.14169993 3.44753288
v -7.11665943 -35.83010286 3.44753288
v -8.89744431 -35.43023504 3.44753288
v -10.65753445 -34.94103774 3.44753288
v -12.39003509 -34.36463363 3.44753288
v -13.79286468 -33.62764716 3.15974936
v -13.79286468 -34.20085944 15.86139383
v -12.52245426 -34.73366015 15.78308580
v -10.77202305 -35.31537876 15.78308580
v -8.99262026 -35.80989577 15.78308580
v -7.19252795 -36.21401414 15.78308580
v -5.37588194 -36.52880304 15.78308580
v -3.54268223 -36.75213456 15.78308580
v -1.70258775 -36.88294217 15.78308580
v 0.14302462 -36.92122586 15.78308580
v 0.29751539 -36.90527454 15.80853568
v 0.29751539 -36.77446693 16.09044665
v 0.29751539 -36.67662591 3.71769745
v 0.14164515 -36.69470511 3.74314798
v -1.69155195 -36.65642142 3.74314798
v -3.52199271 -36.52561381 3.74314798
v -5.34277454 -36.30441017 3.74314798
v -7.14838475 -35.99174917 3.74314798
v -8.93744648 -35.58975607 3.74314798
v -10.70581347 -35.09843089 3.74314798
v -12.44521409 -34.51990150 3.74314798
v -13.79286468 -33.81907083 3.44753288
v -13.79286468 -34.23914313 15.78308580
v -13.79286468 -34.37633179 15.46985110
v -12.56522059 -34.85276960 15.46985110
v -10.80788419 -35.43768004 15.46985110
v -9.02434558 -35.93325838 15.46985110
v -7.21735328 -36.33950464 15.46985110
v -5.39381251 -36.65429354 15.46985110
v -3.55509490 -36.87868640 15.46985110
v -1.70810565 -37.00949401 15.46985110
v 0.14302462 -37.04884425 15.46985110
v 0.29751539 -36.91697270 15.78308580
v 0.29751539 -36.69045195 3.74314798
v 0.29751539 -36.70321405 3.76859786
v 0.14302462 -36.84571981 4.04659336
v -1.69845194 -36.80636957 4.04659336
v -3.53578746 -36.67556457 4.04659336
v -5.36484614 -36.45329699 4.04659336
v -7.17735112 -36.13957204 4.04659336
v -8.97468969 -35.73545106 4.04659336
v -10.74857458 -35.24306454 4.04659336
v -12.49624684 -34.66134332 4.04659336
v -13.79286468 -34.11897235 3.97415789
v -13.79286468 -33.99560712 3.74314798
v -13.79286468 -33.95945132 3.68245890
v -13.79286468 -34.45928283 15.24667213
v -12.60384068 -34.95805301 15.14878645
v -9.05193508 -36.04173362 15.14878645
v -10.84099159 -35.54402739 15.14878645
v -7.23942488 -36.44904383 15.14878645
v -5.41036621 -36.76489666 15.14878645
v -3.56613070 -36.98928952 15.14878645
v -1.71362355 -37.12115847 15.14878645
v 0.14302462 -37.16050871 15.14878645
v 0.29751539 -37.04458848 15.46985110
v 0.29751539 -36.84040271 4.04659336
v 0.29751539 -36.96482927 4.33046207
v 0.14302462 -36.98078059 4.35786968
v -1.70534670 -36.94143295 4.35786968
v -3.54957700 -36.81062534 4.35786968
v -5.38415879 -36.58729643 4.35786968
v -7.20356375 -36.27250753 4.35786968
v -9.00779188 -35.86732261 4.35786968
v -10.78857154 -35.37174426 4.35786968
v -12.54314899 -34.78895910 4.35786968
v -13.79286468 -34.15725604 4.04659336
v -13.79286468 -34.49544124 15.14878645
v -13.79286468 -34.56563018 14.93148002
v -12.63694286 -35.04844904 14.82380600
v -10.86857587 -35.63654870 14.82380600
v -9.07538354 -36.13531888 14.82380600
v -7.25735545 -36.54369302 14.82380600
v -5.42416096 -36.86060719 14.82380600
v -3.57578963 -37.08500005 14.82380600
v -1.71775937 -37.21793555 14.82380600
v 0.14440410 -37.25728318 14.82380600
v 0.29751539 -37.15625294 15.14878645
v 0.29751539 -36.97652742 4.35786968
v 0.29751539 -37.08712794 4.64761158
v 0.14302462 -37.10095398 4.67501952
v -1.71086460 -37.06160374 4.67501952
v -3.56061280 -36.92973480 4.67501952
v -5.40208936 -36.70640327 4.67501952
v -7.22701222 -36.39055304 4.67501952
v -9.03675824 -35.98430417 4.67501952
v -10.82306102 -35.48766188 4.67501952
v -12.58315116 -34.90168750 4.67501952
v -13.79286468 -34.33910944 4.44596702
v -13.79286468 -34.30295363 4.35786968
v -13.79286468 -34.26360339 4.27368846
v -13.79286468 -34.59859937 14.82380600
v -13.79286468 -34.68580358 14.49491008
v -12.66315550 -35.12395509 14.49491008
v -10.89202955 -35.71311869 14.49491008
v -9.09469098 -36.21295281 14.49491008
v -7.27390915 -36.62239090 14.49491008
v -5.43519676 -36.94036901 14.49491008
v -3.58268440 -37.16582581 14.49491008
v -1.72190040 -37.29769476 14.49491008
v 0.14440410 -37.33704500 14.49491008
v 0.29751539 -37.32641079 14.52231802
v 0.29751539 -37.25303002 14.82380600
v 0.29751539 -37.09669821 4.67501952
v 0.14440410 -37.20623739 4.99608451
v -1.71500042 -37.16688976 4.99608451
v -3.57027173 -37.03501821 4.99608451
v -5.41726097 -36.80956140 4.99608451
v -7.24770173 -36.49370857 4.99608451
v -9.06296566 -36.08533442 4.99608451
v -10.85478634 -35.58762819 4.99608451
v -12.61901230 -35.00059247 4.99608451
v -13.79286468 -34.43163335 4.67501952
v -13.79286468 -34.75386463 14.16209870
v -12.68522188 -35.18457115 14.16209870
v -10.91133699 -35.77480130 14.16209870
v -9.10986781 -36.27569675 14.16209870
v -7.28632182 -36.68513484 14.16209870
v -5.44485047 -37.00417690 14.16209870
v -3.58957916 -37.22963370 14.16209870
v -1.72465935 -37.36256659 14.16209870
v 0.29751539 -37.33279184 14.49491008
v 0.14440410 -37.40191683 14.16209870
v 0.29751539 -37.39234395 14.18950664
v 0.29751539 -37.20198423 4.99608451
v 0.14440410 -37.29556948 5.32302269
v -1.71914145 -37.25621924 5.32302269
v -3.57854858 -37.12328635 5.32302269
v -5.42967886 -36.89782955 5.32302269
v -7.26563230 -36.58091277 5.32302269
v -9.08366039 -36.17254123 5.32302269
v -10.88099375 -35.67270711 5.32302269
v -12.64936075 -35.08460484 5.32302269
v -13.79286468 -34.60816965 5.21339061
v -13.79286468 -34.54436176 4.99608451
v -13.79286468 -34.78683382 13.95262353
v -12.70177558 -35.23030244 13.82732991
v -10.92513174 -35.82052998 13.82732991
v -9.12228048 -36.32248938 13.82732991
v -7.29598075 -36.73299141 13.82732991
v -5.45174524 -37.05096953 13.82732991
v -3.59372020 -37.27749027 13.82732991
v -1.72741830 -37.41042316 13.82732991
v 0.29751539 -37.39766106 14.16209870
v 0.14440410 -37.44977340 13.82732991
v 0.29751539 -37.29025237 5.32302269
v 0.29751539 -37.29663342 5.35043063
v 0.29751539 -37.36363053 5.65387601
v 0.14440410 -37.36788630 5.65387601
v -1.72327727 -37.32853606 5.65387601
v -3.58682543 -37.19666451 5.65387601
v -5.44070944 -36.97014637 5.65387601
v -7.27942705 -36.65216565 5.65387601
v -9.10159096 -36.24273017 5.65387601
v -10.90168327 -35.74289605 5.65387601
v -12.67419130 -35.15373245 5.65387601
v -13.79286468 -34.69112068 5.53641332
v -13.79286468 -34.64007489 5.32302269
v -13.79286468 -34.80597436 13.82732991
v -12.71281138 -35.26007980 13.49060306
v -10.93479067 -35.85137129 13.49060306
v -9.12918046 -36.35333069 13.49060306
v -7.30149865 -36.76383272 13.49060306
v -5.45726314 -37.08287477 13.49060306
v -3.59647915 -37.30939552 13.49060306
v -1.72879517 -37.44232841 13.49060306
v 0.29751539 -37.44551763 13.82732991
v 0.14440410 -37.48167604 13.49060306
v 0.29751539 -37.36894764 5.68128427
v 0.14440410 -37.42531314 5.98864513
v -1.72603622 -37.38596290 5.98864513
v -3.59096125 -37.25303002 5.98864513
v -5.44898629 -37.02757321 5.98864513
v -7.29046285 -36.70853116 5.98864513
v -9.11538571 -36.29802912 5.98864513
v -10.91823697 -35.79713367 5.98864513
v -12.69349873 -35.20690612 5.98864513
v -13.79286468 -34.74110514 5.77525449
v -13.79286468 -34.71877016 5.65387601
v -13.79286468 -34.86659303 13.05207539
v -12.71694720 -35.27284190 13.24393129
v -12.18450636 -35.46426557 12.99921692
v -10.93892649 -35.86413339 13.24393129
v -10.41752145 -36.02365442 12.99921692
v -9.13331628 -36.36609279 13.24393129
v -8.62432390 -36.49477251 12.99921692
v -7.30425760 -36.77659482 13.24393129
v -6.80905998 -36.87549718 12.99921692
v -5.45864522 -37.09563687 13.24393129
v -4.97999609 -37.16795109 12.99921692
v -3.59785601 -37.32215501 13.24393129
v -3.13576579 -37.36788630 12.99921692
v -1.72879517 -37.45509051 13.24393129
v -1.28463551 -37.47742288 12.99921692
v 0.29751539 -37.48699576 13.31245130
v 0.14440410 -37.49443814 13.24393129
v 0.29751539 -37.49550208 13.15583395
v 0.29751539 -37.42105998 5.98864513
v 0.14440410 -37.46678866 6.32341424
v -1.72741830 -37.42637709 6.32341424
v -3.59509706 -37.29344159 6.32341424
v -5.45450419 -37.06798479 6.32341424
v -7.29873970 -36.74894273 6.32341424
v -9.12642151 -36.33844331 6.32341424
v -10.93064964 -35.83648130 6.32341424
v -13.79286468 -34.77938883 5.98864513
v -12.70729348 -35.24518982 6.32341424
v -13.79286468 -34.82405618 6.32341424
v -13.79286468 -34.86765698 13.02662486
v -13.79286468 -34.86765698 6.96358647
v -12.71557033 -35.26858613 6.66209850
v -12.18450636 -35.46426557 7.00078308
v -10.93754962 -35.85987762 6.66209850
v -10.41752145 -36.02365442 7.00078308
v -9.13193941 -36.36183962 6.66209850
v -8.62432390 -36.49477251 7.00078308
v -7.30287552 -36.77340299 6.66209850
v -6.80905998 -36.87549718 7.00078308
v -5.45864522 -37.09244505 6.66209850
v -4.97999609 -37.16795109 7.00078308
v -3.59785601 -37.31790185 6.66209850
v -3.13576579 -37.36788630 7.00078308
v -1.72879517 -37.45189868 6.66209850
v -1.28463551 -37.47742288 7.00078308
v 0.14440410 -37.49124892 6.66209850
v 0.29751539 -37.49231026 6.78543438
v 0.29751539 -37.45827973 6.29600630
v 0.29751539 -37.46147156 6.32341424
f 1 2 5
f 1 5 11
f 1 11 21
f 1 21 39
f 1 39 64
f 1 64 95
f 1 95 78
f 1 78 49
f 1 49 28
f 1 28 14
f 1 14 7
f 1 7 3
f 1 3 9
f 1 9 18
f 1 18 33
f 1 33 57
f 1 57 86
f 1 86 121
f 1 121 120
f 1 120 152
f 1 152 154
f 1 154 181
f 1 181 182
f 1 182 206
f 1 206 205
f 1 205 232
f 1 232 257
f 1 257 256
f 1 256 281
f 1 281 306
f 1 306 305
f 1 305 331
f 1 331 333
f 1 333 359
f 1 359 382
f 1 382 406
f 1 406 405
f 1 405 429
f 1 429 452
f 1 452 474
f 1 474 495
f 1 495 515
f 1 515 537
f 1 537 558
f 1 558 557
f 1 557 579
f 1 579 602
f 1 602 624
f 1 624 649
f 1 649 648
f 1 648 668
f 1 668 670
f 1 670 690
f 1 690 713
f 1 713 741
f 1 741 743
f 1 743 772
f 1 772 774
f 1 774 773
f 1 773 744
f 1 744 715
f 1 715 694
f 1 694 693
f 1 693 692
f 1 692 671
f 1 671 650
f 1 650 626
f 1 626 625
f 1 625 604
f 1 604 603
f 1 603 581
f 1 581 580
f 1 580 559
f 1 559 538
f 1 538 517
f 1 517 516
f 1 516 496
f 1 496 478
f 1 478 455
f 1 455 433
f 1 433 430
f 1 430 407
f 1 407 383
f 1 383 360
f 1 360 335
f 1 335 334
f 1 334 308
f 1 308 307
f 1 307 282
f 1 282 258
f 1 258 234
f 1 234 233
f 1 233 207
f 1 207 183
f 1 183 155
f 1 155 125
f 1 125 89
f 1 89 59
f 1 59 35
f 1 35 20
f 1 20 10
f 1 10 4
f 1 4 6
f 1 6 2
f 2 6 13
f 2 13 27
f 2 27 48
f 2 48 77
f 2 77 111
f 2 111 146
f 2 146 173
f 2 173 198
f 2 198 224
f 2 224 225
f 2 225 249
f 2 249 273
f 2 273 296
f 2 296 321
f 2 321 320
f 2 320 319
f 2 319 346
f 2 346 345
f 2 345 371
f 2 371 370
f 2 370 394
f 2 394 393
f 2 393 417
f 2 417 441
f 2 441 442
f 2 442 463
f 2 463 485
f 2 485 484
f 2 484 505
f 2 505 526
f 2 526 547
f 2 547 568
f 2 568 592
f 2 592 591
f 2 591 590
f 2 590 613
f 2 613 637
f 2 637 636
f 2 636 635
f 2 635 659
f 2 659 681
f 2 681 680
f 2 680 704
f 2 704 703
f 2 703 725
f 2 725 724
f 2 724 752
f 2 752 754
f 2 754 756
f 2 756 755
f 2 755 726
f 2 726 705
f 2 705 682
f 2 682 660
f 2 660 639
f 2 639 638
f 2 638 615
f 2 615 614
f 2 614 593
f 2 593 570
f 2 570 569
f 2 569 548
f 2 548 528
f 2 528 527
f 2 527 506
f 2 506 486
f 2 486 465
f 2 465 464
f 2 464 443
f 2 443 420
f 2 420 419
f 2 419 418
f 2 418 395
f 2 395 372
f 2 372 348
f 2 348 347
f 2 347 322
f 2 322 293
f 2 293 292
f 2 292 268
f 2 268 243
f 2 243 216
f 2 216 215
f 2 215 190
f 2 190 164
f 2 164 134
f 2 134 101
f 2 101 69
f 2 69 43
f 2 43 24
f 2 24 12
f 2 12 5
f 3 7 8
f 3 8 9
f 4 10 19
f 4 19 34
f 4 34 58
f 4 58 87
f 4 87 122
f 4 122 137
f 4 137 104
f 4 104 72
f 4 72 45
f 4 45 26
f 4 26 13
f 4 13 6
f 5 12 11
f 7 14 8
f 8 15 16
f 8 16 17
f 8 17 9
f 8 14 15
f 9 17 18
f 10 20 19
f 11 12 22
f 11 22 23
f 11 23 21
f 12 24 25
f 12 25 22
f 13 26 27
f 14 28 29
f 14 29 15
f 15 29 30
f 15 30 16
f 16 30 31
f 16 31 17
f 17 31 32
f 17 32 18
f 18 32 33
f 19 20 34
f 20 35 36
f 20 36 37
f 20 37 38
f 20 38 34
f 21 23 39
f 22 25 23
f 23 25 40
f 23 40 41
f 23 41 42
f 23 42 39
f 24 43 25
f 25 43 44
f 25 44 40
f 26 45 46
f 26 46 47
f 26 47 27
f 27 47 48
f 28 49 50
f 28 50 29
f 29 50 30
f 30 50 51
f 30 51 52
f 30 52 53
f 30 53 31
f 31 53 54
f 31 54 55
f 31 55 56
f 31 56 32
f 32 56 57
f 32 57 33
f 34 38 58
f 35 59 60
f 35 60 36
f 36 60 61
f 36 61 37
f 37 62 38
f 37 61 62
f 38 63 58
f 38 62 63
f 39 42 64
f 40 44 65
f 40 65 66
f 40 66 41
f 41 67 68
f 41 68 42
f 41 66 67
f 42 68 64
f 43 69 44
f 44 69 70
f 44 70 71
f 44 71 65
f 45 72 73
f 45 73 46
f 46 73 74
f 46 74 75
f 46 75 76
f 46 76 47
f 47 76 48
f 48 76 77
f 49 78 50
f 50 79 51
f 50 78 79
f 51 79 80
f 51 80 81
f 51 81 52
f 52 81 82
f 52 82 54
f 52 54 53
f 54 82 83
f 54 83 55
f 55 83 84
f 55 84 56
f 56 84 85
f 56 85 121
f 56 121 86
f 56 86 57
f 58 63 88
f 58 88 87
f 59 89 60
f 60 89 90
f 60 90 91
f 60 91 61
f 61 92 62
f 61 91 93
f 61 93 92
f 62 94 88
f 62 88 63
f 62 92 94
f 64 68 96
f 64 96 95
f 65 71 66
f 66 71 97
f 66 97 98
f 66 98 99
f 66 99 67
f 67 100 68
f 67 99 100
f 68 100 96
f 69 101 70
f 70 101 71
f 71 101 102
f 71 102 103
f 71 103 97
f 72 104 73
f 73 104 105
f 73 105 74
f 74 105 106
f 74 106 107
f 74 107 108
f 74 108 109
f 74 109 75
f 75 109 110
f 75 110 76
f 76 110 77
f 77 110 111
f 78 95 96
f 78 96 79
f 79 96 80
f 80 96 100
f 80 100 81
f 81 112 113
f 81 113 114
f 81 114 82
f 81 100 112
f 82 114 115
f 82 115 83
f 83 115 116
f 83 116 117
f 83 117 118
f 83 118 84
f 84 118 85
f 85 118 119
f 85 119 120
f 85 120 121
f 87 88 122
f 88 123 122
f 88 94 124
f 88 124 123
f 89 125 90
f 90 125 126
f 90 126 91
f 91 126 127
f 91 127 128
f 91 128 93
f 92 129 94
f 92 93 129
f 93 130 129
f 93 128 130
f 94 129 131
f 94 131 124
f 97 103 132
f 97 132 98
f 98 132 133
f 98 133 113
f 98 113 99
f 99 113 112
f 99 112 100
f 101 134 135
f 101 135 102
f 102 135 103
f 103 135 136
f 103 136 132
f 104 137 138
f 104 138 105
f 105 138 106
f 106 138 139
f 106 139 140
f 106 140 107
f 107 140 141
f 107 141 142
f 107 142 143
f 107 143 108
f 108 143 109
f 109 143 144
f 109 144 145
f 109 145 110
f 110 145 111
f 111 145 146
f 113 133 114
f 114 133 147
f 114 147 115
f 115 147 148
f 115 148 116
f 116 148 149
f 116 149 150
f 116 150 117
f 117 150 118
f 118 150 151
f 118 151 119
f 119 152 120
f 119 151 153
f 119 153 154
f 119 154 152
f 122 123 138
f 122 138 137
f 123 124 138
f 124 139 138
f 124 131 140
f 124 140 139
f 125 155 126
f 126 155 156
f 126 156 157
f 126 157 127
f 127 157 128
f 128 158 130
f 128 157 159
f 128 159 160
f 128 160 158
f 129 130 131
f 130 161 131
f 130 158 161
f 131 161 141
f 131 141 140
f 132 136 162
f 132 162 133
f 133 162 163
f 133 163 148
f 133 148 147
f 134 164 135
f 135 164 165
f 135 165 166
f 135 166 136
f 136 166 167
f 136 167 162
f 141 161 168
f 141 168 169
f 141 169 170
f 141 170 142
f 142 170 143
f 143 170 171
f 143 171 172
f 143 172 144
f 144 172 145
f 145 172 173
f 145 173 146
f 148 163 174
f 148 174 175
f 148 175 149
f 149 175 176
f 149 176 177
f 149 177 178
f 149 178 150
f 150 178 151
f 151 178 179
f 151 179 180
f 151 180 153
f 153 181 154
f 153 180 182
f 153 182 181
f 155 183 156
f 156 183 184
f 156 184 185
f 156 185 157
f 157 185 186
f 157 186 159
f 158 168 161
f 158 160 168
f 159 186 160
f 160 187 168
f 160 186 188
f 160 188 189
f 160 189 187
f 162 167 174
f 162 174 163
f 164 190 165
f 165 190 191
f 165 191 166
f 166 191 192
f 166 192 167
f 167 192 193
f 167 193 194
f 167 194 174
f 168 187 195
f 168 195 169
f 169 195 196
f 169 196 170
f 170 196 171
f 171 196 197
f 171 197 172
f 172 198 173
f 172 197 199
f 172 199 198
f 174 194 176
f 174 176 175
f 176 194 200
f 176 200 177
f 177 200 201
f 177 201 202
f 177 202 178
f 178 202 179
f 179 202 203
f 179 203 180
f 180 203 204
f 180 204 205
f 180 205 206
f 180 206 182
f 183 207 184
f 184 207 208
f 184 208 185
f 185 208 209
f 185 209 210
f 185 210 186
f 186 210 211
f 186 211 188
f 187 189 212
f 187 212 195
f 188 211 189
f 189 211 213
f 189 213 214
f 189 214 212
f 190 215 191
f 191 215 216
f 191 216 217
f 191 217 218
f 191 218 192
f 192 218 219
f 192 219 193
f 193 219 194
f 194 219 220
f 194 220 200
f 195 212 196
f 196 212 221
f 196 221 197
f 197 221 222
f 197 222 223
f 197 223 199
f 198 199 224
f 199 225 224
f 199 223 225
f 200 220 226
f 200 226 227
f 200 227 228
f 200 228 201
f 201 228 202
f 202 228 229
f 202 229 203
f 203 229 230
f 203 230 231
f 203 231 204
f 204 232 205
f 204 231 232
f 207 233 208
f 208 233 234
f 208 234 235
f 208 235 236
f 208 236 209
f 209 236 237
f 209 237 210
f 210 237 238
f 210 238 211
f 211 238 239
f 211 239 213
f 212 214 240
f 212 240 221
f 213 239 214
f 214 239 241
f 214 241 242
f 214 242 240
f 216 243 244
f 216 244 217
f 217 244 218
f 218 244 245
f 218 245 219
f 219 245 246
f 219 246 226
f 219 226 220
f 221 240 247
f 221 247 222
f 222 247 248
f 222 248 223
f 223 248 249
f 223 249 225
f 226 246 250
f 226 250 251
f 226 251 227
f 227 251 228
f 228 251 252
f 228 252 253
f 228 253 229
f 229 253 230
f 230 253 254
f 230 254 231
f 231 254 255
f 231 255 256
f 231 256 257
f 231 257 232
f 234 258 259
f 234 259 235
f 235 259 260
f 235 260 236
f 236 260 261
f 236 261 237
f 237 261 238
f 238 261 262
f 238 262 239
f 239 262 263
f 239 263 241
f 240 242 247
f 241 263 264
f 241 264 242
f 242 264 265
f 242 265 266
f 242 266 267
f 242 267 247
f 243 268 244
f 244 268 269
f 244 269 245
f 245 269 270
f 245 270 246
f 246 270 271
f 246 271 250
f 247 267 272
f 247 272 248
f 248 273 249
f 248 272 273
f 250 271 274
f 250 274 275
f 250 275 251
f 251 275 276
f 251 276 277
f 251 277 252
f 252 277 278
f 252 278 253
f 253 278 254
f 254 278 279
f 254 279 255
f 255 279 280
f 255 280 281
f 255 281 256
f 258 282 283
f 258 283 259
f 259 283 260
f 260 283 284
f 260 284 285
f 260 285 261
f 261 285 262
f 262 285 286
f 262 286 287
f 262 287 263
f 263 287 288
f 263 288 264
f 264 288 265
f 265 288 289
f 265 289 290
f 265 290 266
f 266 290 291
f 266 291 267
f 267 291 272
f 268 292 269
f 269 292 293
f 269 293 294
f 269 294 270
f 270 294 295
f 270 295 274
f 270 274 271
f 272 291 296
f 272 296 273
f 274 295 297
f 274 297 298
f 274 298 299
f 274 299 275
f 275 299 300
f 275 300 276
f 276 300 277
f 277 300 301
f 277 301 278
f 278 301 302
f 278 302 303
f 278 303 279
f 279 303 280
f 280 303 304
f 280 304 305
f 280 305 306
f 280 306 281
f 282 307 283
f 283 307 308
f 283 308 309
f 283 309 310
f 283 310 284
f 284 310 285
f 285 310 311
f 285 311 312
f 285 312 286
f 286 312 313
f 286 313 287
f 287 313 314
f 287 314 288
f 288 314 289
f 289 314 315
f 289 315 290
f 290 315 316
f 290 316 317
f 290 317 318
f 290 318 291
f 291 318 319
f 291 319 320
f 291 320 321
f 291 321 296
f 293 322 294
f 294 322 323
f 294 323 297
f 294 297 295
f 297 323 324
f 297 324 298
f 298 324 325
f 298 325 299
f 299 325 326
f 299 326 327
f 299 327 300
f 300 327 301
f 301 327 328
f 301 328 329
f 301 329 302
f 302 329 330
f 302 330 303
f 303 330 304
f 304 331 305
f 304 330 332
f 304 332 333
f 304 333 331
f 308 334 309
f 309 334 335
f 309 335 336
f 309 336 337
f 309 337 310
f 310 337 338
f 310 338 311
f 311 338 312
f 312 338 339
f 312 339 340
f 312 340 313
f 313 340 314
f 314 340 341
f 314 341 342
f 314 342 315
f 315 342 316
f 316 342 343
f 316 343 344
f 316 344 317
f 317 344 345
f 317 345 346
f 317 346 318
f 318 346 319
f 322 347 323
f 323 347 348
f 323 348 349
f 323 349 324
f 324 349 350
f 324 350 351
f 324 351 352
f 324 352 325
f 325 352 326
f 326 352 353
f 326 353 354
f 326 354 327
f 327 354 328
f 328 354 355
f 328 355 329
f 329 355 356
f 329 356 357
f 329 357 330
f 330 357 358
f 330 358 332
f 332 358 359
f 332 359 333
f 335 360 361
f 335 361 336
f 336 361 362
f 336 362 337
f 337 362 338
f 338 362 363
f 338 363 364
f 338 364 339
f 339 364 340
f 340 364 365
f 340 365 366
f 340 366 341
f 341 366 342
f 342 366 367
f 342 367 368
f 342 368 343
f 343 368 344
f 344 368 369
f 344 369 370
f 344 370 371
f 344 371 345
f 348 372 350
f 348 350 349
f 350 372 373
f 350 373 351
f 351 373 374
f 351 374 375
f 351 375 352
f 352 375 353
f 353 375 376
f 353 376 354
f 354 376 377
f 354 377 355
f 355 377 378
f 355 378 379
f 355 379 356
f 356 379 380
f 356 380 357
f 357 380 358
f 358 380 381
f 358 381 382
f 358 382 359
f 360 383 384
f 360 384 361
f 361 384 362
f 362 384 385
f 362 385 363
f 363 385 386
f 363 386 387
f 363 387 364
f 364 387 388
f 364 388 365
f 365 388 366
f 366 388 389
f 366 389 390
f 366 390 367
f 367 390 368
f 368 390 391
f 368 391 369
f 369 391 392
f 369 392 393
f 369 393 394
f 369 394 370
f 372 395 373
f 373 395 396
f 373 396 374
f 374 396 397
f 374 397 398
f 374 398 375
f 375 398 399
f 375 399 376
f 376 399 377
f 377 399 400
f 377 400 378
f 378 400 401
f 378 401 402
f 378 402 379
f 379 402 380
f 380 402 403
f 380 403 381
f 381 403 404
f 381 404 405
f 381 405 406
f 381 406 382
f 383 407 408
f 383 408 384
f 384 409 385
f 384 408 409
f 385 409 386
f 386 409 410
f 386 410 387
f 387 410 411
f 387 411 412
f 387 412 388
f 388 412 389
f 389 412 413
f 389 413 414
f 389 414 390
f 390 414 391
f 391 414 415
f 391 415 416
f 391 416 392
f 392 416 417
f 392 417 393
f 395 418 396
f 396 418 419
f 396 419 420
f 396 420 397
f 397 420 421
f 397 421 398
f 398 421 422
f 398 422 423
f 398 423 399
f 399 423 400
f 400 423 424
f 400 424 425
f 400 425 401
f 401 425 402
f 402 425 426
f 402 426 403
f 403 426 427
f 403 427 428
f 403 428 404
f 404 428 405
f 405 428 429
f 407 430 408
f 408 431 432
f 408 432 409
f 408 430 433
f 408 433 431
f 409 432 410
f 410 432 434
f 410 434 435
f 410 435 411
f 411 435 436
f 411 436 412
f 412 436 437
f 412 437 413
f 413 437 414
f 414 437 438
f 414 438 415
f 415 438 439
f 415 439 440
f 415 440 416
f 416 441 417
f 416 440 442
f 416 442 441
f 420 443 421
f 421 443 444
f 421 444 422
f 422 444 445
f 422 445 423
f 423 445 446
f 423 446 424
f 424 446 447
f 424 447 448
f 424 448 425
f 425 448 426
f 426 448 449
f 426 449 450
f 426 450 427
f 427 450 428
f 428 450 451
f 428 451 452
f 428 452 429
f 431 433 455
f 431 455 453
f 431 453 454
f 431 454 432
f 432 454 434
f 434 454 456
f 434 456 457
f 434 457 435
f 435 457 436
f 436 457 458
f 436 458 437
f 437 458 459
f 437 459 460
f 437 460 438
f 438 460 461
f 438 461 439
f 439 461 462
f 439 462 440
f 440 462 442
f 442 462 463
f 443 464 444
f 444 464 465
f 444 465 466
f 444 466 445
f 445 466 467
f 445 467 446
f 446 467 468
f 446 468 469
f 446 469 447
f 447 469 448
f 448 469 470
f 448 470 449
f 449 470 471
f 449 471 472
f 449 472 450
f 450 472 451
f 451 472 473
f 451 473 452
f 452 473 474
f 453 455 475
f 453 475 454
f 454 475 476
f 454 476 477
f 454 477 456
f 455 478 475
f 456 477 457
f 457 477 479
f 457 479 458
f 458 479 480
f 458 480 481
f 458 481 459
f 459 481 460
f 460 481 482
f 460 482 483
f 460 483 461
f 461 483 484
f 461 484 462
f 462 484 485
f 462 485 463
f 465 486 466
f 466 486 487
f 466 487 488
f 466 488 467
f 467 488 489
f 467 489 468
f 468 489 490
f 468 490 469
f 469 490 470
f 470 490 491
f 470 491 471
f 471 491 492
f 471 492 493
f 471 493 472
f 472 493 473
f 473 493 494
f 473 494 495
f 473 495 474
f 475 478 496
f 475 496 497
f 475 497 498
f 475 498 476
f 476 498 477
f 477 498 499
f 477 499 500
f 477 500 479
f 479 500 480
f 480 500 501
f 480 501 502
f 480 502 481
f 481 502 503
f 481 503 482
f 482 503 483
f 483 503 504
f 483 504 505
f 483 505 484
f 486 506 507
f 486 507 487
f 487 507 488
f 488 507 508
f 488 508 509
f 488 509 489
f 489 509 490
f 490 509 510
f 490 510 511
f 490 511 491
f 491 511 512
f 491 512 492
f 492 512 493
f 493 512 513
f 493 513 494
f 494 513 514
f 494 514 495
f 495 514 515
f 496 516 497
f 497 516 517
f 497 517 518
f 497 518 519
f 497 519 498
f 498 519 499
f 499 519 520
f 499 520 500
f 500 520 521
f 500 521 522
f 500 522 501
f 501 522 502
f 502 522 523
f 502 523 524
f 502 524 503
f 503 524 525
f 503 525 504
f 504 525 526
f 504 526 505
f 506 527 507
f 507 527 528
f 507 528 529
f 507 529 508
f 508 529 530
f 508 530 509
f 509 530 531
f 509 531 510
f 510 531 532
f 510 532 533
f 510 533 511
f 511 533 512
f 512 533 534
f 512 534 535
f 512 535 513
f 513 535 536
f 513 536 514
f 514 536 515
f 515 536 537
f 517 538 539
f 517 539 518
f 518 539 540
f 518 540 519
f 519 540 541
f 519 541 520
f 520 541 542
f 520 542 521
f 521 542 522
f 522 542 543
f 522 543 544
f 522 544 523
f 523 544 524
f 524 544 545
f 524 545 525
f 525 545 546
f 525 546 547
f 525 547 526
f 528 548 549
f 528 549 529
f 529 549 550
f 529 550 530
f 530 550 531
f 531 550 551
f 531 551 532
f 532 551 552
f 532 552 533
f 533 552 553
f 533 553 554
f 533 554 534
f 534 554 535
f 535 554 555
f 535 555 536
f 536 555 556
f 536 556 557
f 536 557 558
f 536 558 537
f 538 559 539
f 539 559 560
f 539 560 561
f 539 561 540
f 540 561 541
f 541 561 562
f 541 562 542
f 542 562 563
f 542 563 564
f 542 564 543
f 543 564 544
f 544 564 565
f 544 565 566
f 544 566 545
f 545 566 567
f 545 567 546
f 546 567 568
f 546 568 547
f 548 569 549
f 549 569 570
f 549 570 571
f 549 571 572
f 549 572 550
f 550 572 551
f 551 572 573
f 551 573 574
f 551 574 552
f 552 574 553
f 553 574 575
f 553 575 576
f 553 576 554
f 554 576 555
f 555 576 577
f 555 577 578
f 555 578 556
f 556 579 557
f 556 578 602
f 556 602 579
f 559 580 560
f 560 580 581
f 560 581 582
f 560 582 561
f 561 582 583
f 561 583 584
f 561 584 562
f 562 584 563
f 563 584 585
f 563 585 586
f 563 586 564
f 564 586 565
f 565 586 587
f 565 587 588
f 565 588 566
f 566 588 567
f 567 588 589
f 567 589 590
f 567 590 591
f 567 591 592
f 567 592 568
f 570 593 594
f 570 594 571
f 571 594 572
f 572 595 573
f 572 594 596
f 572 596 595
f 573 595 574
f 574 595 597
f 574 597 598
f 574 598 575
f 575 598 576
f 576 598 599
f 576 599 600
f 576 600 577
f 577 600 578
f 578 600 601
f 578 601 624
f 578 624 602
f 581 603 582
f 582 603 604
f 582 604 605
f 582 605 606
f 582 606 583
f 583 606 607
f 583 607 584
f 584 607 585
f 585 607 608
f 585 608 609
f 585 609 586
f 586 609 610
f 586 610 587
f 587 610 588
f 588 610 611
f 588 611 612
f 588 612 589
f 589 613 590
f 589 612 613
f 593 614 594
f 594 614 615
f 594 615 616
f 594 616 617
f 594 617 596
f 595 596 617
f 595 617 618
f 595 618 597
f 597 618 619
f 597 619 620
f 597 620 598
f 598 620 599
f 599 620 621
f 599 621 622
f 599 622 600
f 600 622 601
f 601 622 623
f 601 623 624
f 604 625 605
f 605 625 626
f 605 626 627
f 605 627 628
f 605 628 606
f 606 628 607
f 607 628 629
f 607 629 630
f 607 630 608
f 608 630 609
f 609 630 631
f 609 631 632
f 609 632 610
f 610 632 633
f 610 633 611
f 611 633 612
f 612 633 634
f 612 634 635
f 612 635 636
f 612 636 637
f 612 637 613
f 615 638 616
f 616 638 639
f 616 639 640
f 616 640 641
f 616 641 617
f 617 641 618
f 618 641 642
f 618 642 643
f 618 643 619
f 619 643 644
f 619 644 620
f 620 644 645
f 620 645 621
f 621 645 622
f 622 645 646
f 622 646 623
f 623 646 647
f 623 647 648
f 623 648 649
f 623 649 624
f 626 650 627
f 627 650 651
f 627 651 652
f 627 652 628
f 628 652 653
f 628 653 629
f 629 653 630
f 630 653 654
f 630 654 655
f 630 655 631
f 631 655 632
f 632 655 656
f 632 656 657
f 632 657 633
f 633 657 658
f 633 658 634
f 634 659 635
f 634 658 659
f 639 660 661
f 639 661 640
f 640 661 662
f 640 662 641
f 641 662 642
f 642 662 663
f 642 663 643
f 643 663 664
f 643 664 665
f 643 665 644
f 644 665 645
f 645 665 666
f 645 666 667
f 645 667 646
f 646 667 647
f 647 668 648
f 647 667 669
f 647 669 670
f 647 670 668
f 650 671 651
f 651 671 672
f 651 672 673
f 651 673 652
f 652 673 653
f 653 673 674
f 653 674 675
f 653 675 654
f 654 675 655
f 655 675 676
f 655 676 677
f 655 677 656
f 656 677 657
f 657 677 678
f 657 678 679
f 657 679 658
f 658 679 680
f 658 680 681
f 658 681 659
f 660 682 661
f 661 682 683
f 661 683 662
f 662 683 684
f 662 684 685
f 662 685 663
f 663 685 686
f 663 686 664
f 664 686 665
f 665 686 687
f 665 687 688
f 665 688 666
f 666 688 667
f 667 688 689
f 667 689 669
f 669 690 670
f 669 689 691
f 669 691 713
f 669 713 690
f 671 692 672
f 672 692 693
f 672 693 694
f 672 694 695
f 672 695 696
f 672 696 673
f 673 696 697
f 673 697 674
f 674 697 675
f 675 697 698
f 675 698 676
f 676 698 699
f 676 699 677
f 677 699 700
f 677 700 701
f 677 701 678
f 678 701 702
f 678 702 679
f 679 703 704
f 679 704 680
f 679 702 703
f 682 705 683
f 683 705 706
f 683 706 707
f 683 707 684
f 684 707 685
f 685 707 708
f 685 708 686
f 686 708 709
f 686 709 710
f 686 710 687
f 687 710 688
f 688 710 711
f 688 711 689
f 689 711 712
f 689 712 691
f 691 712 714
f 691 714 713
f 694 715 695
f 695 715 716
f 695 716 717
f 695 717 696
f 696 717 697
f 697 717 718
f 697 718 719
f 697 719 698
f 698 719 699
f 699 719 720
f 699 720 700
f 700 720 721
f 700 721 701
f 701 721 722
f 701 722 702
f 702 722 723
f 702 723 724
f 702 724 725
f 702 725 703
f 705 726 706
f 706 726 727
f 706 727 728
f 706 728 707
f 707 728 729
f 707 729 730
f 707 730 708
f 708 730 731
f 708 731 732
f 708 732 709
f 709 732 733
f 709 733 734
f 709 734 710
f 710 734 735
f 710 735 736
f 710 736 711
f 711 736 737
f 711 737 738
f 711 738 712
f 712 738 739
f 712 739 740
f 712 740 714
f 713 714 741
f 714 740 742
f 714 742 743
f 714 743 741
f 715 744 716
f 716 744 745
f 716 745 717
f 717 745 746
f 717 746 747
f 717 747 718
f 718 747 748
f 718 748 719
f 719 748 749
f 719 749 720
f 720 749 750
f 720 750 721
f 721 750 722
f 722 750 751
f 722 751 723
f 723 752 724
f 723 751 753
f 723 753 754
f 723 754 752
f 726 755 727
f 727 755 756
f 727 756 757
f 727 757 758
f 727 758 728
f 728 758 729
f 729 758 759
f 729 759 760
f 729 760 730
f 730 760 731
f 731 760 761
f 731 761 762
f 731 762 732
f 732 762 733
f 733 762 763
f 733 763 764
f 733 764 734
f 734 764 735
f 735 764 765
f 735 765 766
f 735 766 736
f 736 766 737
f 737 766 767
f 737 767 768
f 737 768 738
f 738 768 739
f 739 768 769
f 739 769 770
f 739 770 740
f 740 770 742
f 742 770 771
f 742 771 743
f 743 771 772
f 744 773 745
f 745 773 774
f 745 774 771
f 745 771 769
f 745 769 746
f 746 769 747
f 747 769 767
f 747 767 765
f 747 765 748
f 748 765 763
f 748 763 749
f 749 763 750
f 750 763 761
f 750 761 759
f 750 759 751
f 751 759 757
f 751 757 753
f 753 757 754
f 754 757 756
f 757 759 758
f 759 761 760
f 761 763 762
f 763 765 764
f 765 767 766
f 767 769 768
f 769 771 770
f 771 774 772

