# https://github.com/mikedh/trimesh
v 15.08908078 26.49763897 20.00000006
v 14.72254202 26.71169490 20.00000006
v 15.08908078 25.91856718 20.00000006
v 15.08908078 26.87730491 19.99021204
v 15.04640050 26.91898905 19.99021204
v 13.36937353 27.41356865 20.00000006
v 13.69699493 27.62987763 19.99021204
v 2.26659209 29.90561500 20.00000006
v 15.08908078 25.91856718 -0.00000006
v 15.08908078 26.99447162 19.98433884
v 11.98356442 28.04784551 20.00000006
v 12.31495395 28.27316672 19.99021204
v 13.84762630 27.93293446 19.96671924
v 2.26659209 30.40695377 20.00000006
v 2.26659209 29.90561500 -0.00000006
v 15.08908078 26.49763897 -0.00000006
v 15.08908078 27.27837488 19.96671924
v 10.56637421 28.61114852 20.00000006
v 10.90278618 28.84773500 19.99021204
v 12.44926631 28.58298272 19.96671924
v 11.02203384 29.16431017 19.96671924
v 15.08908078 27.31780857 19.96280378
v 13.99700336 28.23373564 19.92560750
v 12.58357868 28.89167219 19.92560750
v 3.16284925 30.33597730 20.00000006
v 2.26659209 30.67283258 19.99216912
v 2.26659209 30.40695377 -0.00000006
v 14.72254202 26.71169490 -0.00000006
v 15.00121161 26.83787383 0.00587314
v 15.08908078 26.76239125 0.00587314
v 9.12407964 29.10347506 20.00000006
v 9.46300022 29.35132682 19.99021204
v 9.56718840 29.67240810 19.96671924
v 11.14002980 29.47863229 19.92560750
v 9.67011966 29.99349199 19.92560750
v 15.08908078 27.65916735 19.92560750
v 14.14512351 28.53341289 19.86883324
v 12.71789104 29.19810861 19.86883324
v 4.67418276 30.13994843 20.00000006
v 3.51180948 30.63903414 19.99021204
v 2.26659209 31.08967654 19.96671924
v 3.16284925 30.33597730 -0.00000006
v 2.26659209 30.59960306 0.00391541
v 13.36937353 27.41356865 -0.00000006
v 13.65557157 27.54650936 0.00587314
v 15.08908078 27.06882767 0.01761889
v 7.65919194 29.52369601 20.00000006
v 8.00187804 29.78281565 19.99021204
v 8.08974721 30.10953218 19.96671924
v 11.25802316 29.79070134 19.86883324
v 8.17635946 30.43399304 19.92560750
v 9.77179661 30.31119369 19.86883324
v 8.26297171 30.75732738 19.86883324
v 15.08908078 28.03658023 19.86883324
v 15.08908078 28.26302797 19.82380603
v 15.08908078 28.41061354 19.79444068
v 14.29198936 28.82971056 19.79444068
v 12.84969479 29.50116545 19.79444068
v 11.37601912 30.10051735 19.79444068
v 6.17547400 29.86956351 20.00000006
v 5.02188869 30.42723387 19.99021204
v 5.07711984 30.76070696 19.96671924
v 3.55072424 30.97476289 19.96671924
v 2.26659209 31.42765835 19.92560750
v 4.67418276 30.13994843 -0.00000006
v 3.50051291 30.54665364 0.00587314
v 2.26659209 30.79225235 0.01370342
v 3.52938280 30.78999929 0.01761889
v 11.98356442 28.04784551 -0.00000006
v 12.27729611 28.18754539 0.00587314
v 12.37520494 28.41286659 0.01761889
v 13.76477957 27.76619531 0.01761889
v 15.08908078 27.44962014 0.05090035
v 6.51941441 30.14220148 19.99021204
v 6.59096457 30.47229759 19.96671924
v 6.66251473 30.80126718 19.92560750
v 9.87347096 30.62551580 19.79444068
v 8.34958397 31.07615821 19.79444068
v 6.73280798 31.12798110 19.86883324
v 6.80310383 31.45131543 19.79444068
v 15.08908078 28.77901159 19.70634334
v 14.43759829 29.12262604 19.70634334
v 12.98024163 29.80084270 19.70634334
v 11.49150386 30.40582724 19.70634334
v 9.97389361 30.93645833 19.70634334
v 5.13109669 31.09305613 19.92560750
v 3.58838208 31.30823858 19.92560750
v 2.26659209 31.47497512 19.91777657
v 6.17547400 29.86956351 -0.00000006
v 5.00682659 30.33597730 0.00587314
v 5.04699305 30.57819903 0.01761889
v 2.26659209 31.24176823 0.05090035
v 3.56704064 31.12460151 0.05090035
v 5.10096990 30.91054559 0.05090035
v 10.56637421 28.61114852 -0.00000006
v 10.86889386 28.76098715 0.00587314
v 10.95550612 28.98968793 0.01761889
v 12.51077421 28.72268260 0.05090035
v 13.91415663 28.06812562 0.05090035
v 15.08908078 27.74028257 0.08613890
v 8.43368761 31.39160685 19.70634334
v 5.18632784 31.42202571 19.86883324
v 5.24030469 31.74761310 19.79444068
v 6.87214278 31.76901713 19.70634334
v 5.29302463 32.06982091 19.70634334
v 15.08908078 28.92997675 19.66327386
v 14.58069861 29.41103801 19.60062705
v 13.10827725 30.09601124 19.60062705
v 11.60447478 30.70775755 19.60062705
v 10.07305674 31.24402128 19.60062705
v 3.62603992 31.64058514 19.86883324
v 2.26659209 31.76113144 19.86883324
v 7.65919194 29.52369601 -0.00000006
v 6.50058679 30.05094752 0.00587314
v 6.62360258 30.62100969 0.05090035
v 6.55205242 30.29091358 0.01761889
v 2.26659209 31.29359111 0.05677355
v 3.60595539 31.45807460 0.09788530
v 5.15620105 31.24176823 0.09788530
v 9.12407964 29.10347506 -0.00000006
v 9.43413034 29.26232591 0.00587314
v 9.50944602 29.49665934 0.01761889
v 11.07475638 29.30513658 0.05090035
v 11.19400665 29.61945869 0.09788530
v 12.64383227 29.02911901 0.09788530
v 14.06353109 28.36892940 0.09788530
v 15.08908078 27.82928608 0.09788530
v 8.51778865 31.70254938 19.60062705
v 6.93992741 32.08446838 19.60062705
v 3.66369776 31.96842819 19.79444068
v 3.70135561 32.29288906 19.70634334
v 5.34574717 32.38864914 19.60062705
v 15.08908078 29.14403267 19.60062705
v 14.72128771 29.69494127 19.48120598
v 13.23505856 30.38667627 19.48120598
v 11.71744831 31.00405522 19.48120598
v 10.16971387 31.54482506 19.48120598
v 8.59938107 32.00785927 19.48120598
v 2.26659209 32.09348060 19.79444068
v 7.97802798 29.69381474 0.00587314
v 6.69389583 30.94885014 0.09788530
v 8.12865935 30.25598861 0.05090035
v 8.04079019 29.93040122 0.01761889
v 2.26659209 31.57862350 0.09788530
v 3.64361323 31.78704418 0.16248984
v 5.21017790 31.56960867 0.16248984
v 9.61363159 29.81661409 0.05090035
v 9.71656285 30.13656884 0.09788530
v 9.81823981 30.45314401 0.16248984
v 11.31074570 29.93040122 0.16248984
v 12.77689032 29.33442891 0.16248984
v 14.21165124 28.66747752 0.16248984
v 15.08908078 28.20444331 0.16248984
v 7.00645514 32.39428438 19.48120598
v 2.26659209 32.38639608 19.71613200
v 2.26659209 32.42132105 19.70634334
v 3.73775654 32.61284381 19.60062705
v 2.26659209 32.74465799 19.60062705
v 5.39721280 32.70072080 19.48120598
v 3.77416007 32.92716593 19.48120598
v 15.08908078 29.50116545 19.48120598
v 15.08908078 29.85266559 19.34612369
v 14.85936821 29.97321188 19.34612369
v 13.35933127 30.67170605 19.34612369
v 11.82665631 31.29359111 19.34612369
v 10.26511148 31.83886707 19.34612369
v 8.67846228 32.30753392 19.34612369
v 7.07298547 32.69733861 19.34612369
v 6.76419169 31.27331361 0.16248984
v 8.30188386 30.90153337 0.16248984
v 8.21527161 30.57932556 0.09788530
v 2.26659209 31.91097006 0.16248984
v 2.26659209 31.95152767 0.17227851
v 3.68127108 32.11488463 0.24275625
v 5.26415475 31.89294562 0.24275625
v 6.83448493 31.59552142 0.24275625
v 8.38724181 31.21923506 0.24275625
v 9.91865985 30.76634221 0.24275625
v 11.42748475 30.23796417 0.24275625
v 12.90869147 29.63635661 0.24275625
v 14.35726278 28.96152213 0.24275625
v 15.08908078 28.57735008 0.24275625
v 15.08908078 28.41399312 0.20751705
v 5.44742152 33.00715461 19.34612369
v 2.26659209 32.77282119 19.59083838
v 3.80930670 33.23585540 19.34612369
v 2.26659209 33.06235969 19.48120598
v 2.26659209 33.37442875 19.34612369
v 15.08908078 30.19515350 19.19538019
v 14.99368057 30.24584986 19.19538019
v 13.47983584 30.94997667 19.19538019
v 11.93461001 31.57862350 19.19538019
v 10.35925739 32.12840557 19.19538019
v 8.75754349 32.60157853 19.19538019
v 7.13700198 32.99476281 19.19538019
v 2.26659209 32.24106617 0.24275625
v 2.26659209 32.56778009 0.33868387
v 3.71767201 32.43709505 0.33868387
v 5.31687468 32.21402690 0.33868387
v 6.90226957 31.91209659 0.33868387
v 8.47134545 31.53243065 0.33868387
v 10.01908250 31.07503168 0.33868387
v 11.54296950 30.54214753 0.33868387
v 13.03798400 29.93378080 0.33868387
v 14.50161740 29.25331369 0.33868387
v 15.08908078 28.94349769 0.33868387
v 5.49763285 33.30683187 19.19538019
v 3.84445332 33.53778571 19.19538019
v 2.26659209 33.67861211 19.19538019
v 15.08908078 30.21543100 19.18559153
v 15.08908078 30.43624610 19.07595977
v 13.59908611 31.22148812 19.02897418
v 12.03879558 31.85351454 19.02897418
v 10.44963516 32.41005577 19.02897418
v 8.83411609 32.88660832 19.02897418
v 7.19976678 33.28317478 19.02897418
v 5.54533295 33.59862342 19.02897418
v 2.26659209 32.88886137 0.45027401
v 3.75407554 32.75479674 0.45027401
v 5.36834031 32.52947554 0.45027401
v 6.97005421 32.22416565 0.45027401
v 8.55419219 31.83999360 0.45027401
v 10.11699133 31.38033897 0.45027401
v 11.65594041 30.84182478 0.45027401
v 13.16601962 30.22782542 0.45027401
v 14.64346081 29.53947000 0.45027401
v 15.08908078 29.30513658 0.45027401
v 3.87709133 33.83183032 19.02897418
v 2.26659209 33.69438350 19.18754926
v 15.08908078 30.52750006 19.02897418
v 15.08908078 30.84520437 18.85082241
v 13.71331394 31.48511387 18.85082241
v 12.14047253 32.12277293 18.85082241
v 10.53750433 32.68382028 18.85082241
v 8.90943177 33.16487893 18.85082241
v 7.26001777 33.56482498 18.85082241
v 5.59177615 33.88252668 18.85082241
v 3.91098365 34.11798663 18.85082241
v 2.26659209 33.20318609 0.57752537
v 3.79047908 33.06686580 0.57752537
v 5.41980594 32.83929154 0.57752537
v 7.03658193 32.53172860 0.57752537
v 8.63578461 32.14417696 0.57752537
v 10.21364585 31.67776316 0.57752537
v 11.76640533 31.13474026 0.57752537
v 13.29154663 30.51510826 0.57752537
v 14.78405252 29.82112020 0.57752537
v 15.08908078 29.66001630 0.57752537
v 2.26659209 33.98730159 19.02310098
v 15.08908078 30.88012934 18.82928735
v 15.08908078 31.15164079 18.65896652
v 13.82503316 31.73860088 18.65896652
v 12.23838136 32.38414302 18.65896652
v 10.62286228 32.94857256 18.65896652
v 8.98098193 33.43413733 18.65896652
v 7.31901705 33.83746296 18.65896652
v 5.63696764 34.15741771 18.65896652
v 3.94236475 34.39400420 18.65896652
v 2.26659209 34.54947546 18.65505105
v 2.26659209 34.27233137 18.84494921
v 2.26659209 33.51187296 0.72043793
v 3.82562570 33.37217569 0.72043793
v 5.47001727 33.14234838 0.72043793
v 7.10185535 32.83140585 0.72043793
v 8.71486582 32.44047463 0.72043793
v 10.30779175 31.97068125 0.72043793
v 11.87561333 31.42315224 0.72043793
v 13.41456242 30.79675846 0.72043793
v 14.91961919 30.09601124 0.72043793
v 15.08908078 30.00813685 0.72043793
v 15.08908078 31.44906238 18.45144875
v 13.93172994 31.98532611 18.45144875
v 12.33378157 32.63537697 18.45144875
v 10.70570901 33.20543915 18.45144875
v 9.05127518 33.69325697 18.45144875
v 7.37550251 34.09996219 18.45144875
v 5.68089962 34.42329653 18.45144875
v 3.97249155 34.66100954 18.45144875
v 2.26659209 34.81422774 18.45144875
v 2.26659209 33.81380327 0.87705528
v 3.85951802 33.67072642 0.87705528
v 5.51897168 33.43864605 0.87705528
v 7.16462016 33.12545046 0.87705528
v 8.79269272 32.73113705 0.87705528
v 10.39942645 32.25571103 0.87705528
v 11.98105320 31.70254938 0.87705528
v 13.53381269 31.07277602 0.87705528
v 15.05393155 30.36526963 0.87705528
v 15.08908078 30.34724519 0.87705528
v 15.08908078 31.73296824 18.23414298
v 14.03591551 32.22303912 18.23414298
v 12.42541626 32.87759610 18.23414298
v 10.78479022 33.45103785 18.23414298
v 9.11905982 33.94336440 18.23414298
v 7.43073367 34.35232006 18.23414298
v 5.72357990 34.67791006 18.23414298
v 4.00261834 34.91900265 18.23414298
v 2.26659209 35.07447392 18.23414298
v 2.26659209 34.11686011 1.05520705
v 3.89215343 33.96138884 1.04933385
v 5.56667179 33.72705542 1.04933385
v 7.22738236 33.41160677 1.04933385
v 8.86800840 33.01278986 1.04933385
v 10.48980422 32.53398165 1.04933385
v 12.08524138 31.97631389 1.04933385
v 13.65055174 31.34090789 1.04933385
v 15.08908078 30.67170605 1.04933385
v 15.08908078 30.43624610 0.92404023
v 15.08908078 32.00560622 18.00313242
v 14.13508125 32.44948685 18.00313242
v 12.51328543 33.10854994 18.00313242
v 10.86136281 33.68762434 18.00313242
v 9.18307893 34.18333046 18.00313242
v 7.48345621 34.59453918 18.00313242
v 5.76374896 34.92238224 18.00313242
v 4.03023392 35.16460136 18.00313242
v 2.28667662 35.32119915 18.00313242
v 2.26659209 35.32232568 18.00313242
v 2.26659209 34.39851031 1.23923201
v 3.92479144 34.24303904 1.23335946
v 5.61311759 34.00757909 1.23335946
v 7.28637904 33.68875086 1.23335946
v 8.94206718 33.28655437 1.23335946
v 10.57641648 32.80436657 1.23335946
v 12.18566142 32.24106617 1.23335946
v 13.76352526 31.60115406 1.23335946
v 15.08908078 30.98490164 1.23335946
v 15.08908078 32.15318918 17.86609240
v 15.08908078 32.26697631 17.76037611
v 14.22922716 32.66692236 17.76037611
v 12.59613216 33.33049156 17.76037611
v 10.93416728 33.91181901 17.76037611
v 9.24458683 34.41090472 17.76037611
v 7.53241062 34.82661955 17.76037611
v 5.80266111 35.15558913 17.76037611
v 4.05784950 35.40006131 17.76037611
v 2.30299562 35.55665910 17.76037611
v 2.26659209 35.55891216 17.76037611
v 2.26659209 34.66776870 1.43304564
v 3.95617254 34.51567702 1.43304564
v 5.65704957 34.27796401 1.43304564
v 7.34537572 33.95688273 1.43304564
v 9.01361734 33.55243057 1.43304564
v 10.66052012 33.06573927 1.43304564
v 12.28231594 32.49793015 1.43304564
v 13.87398757 31.85126148 1.43304564
v 15.08908078 31.22486770 1.39193390
v 15.08908078 32.51370415 17.50587340
v 14.31834802 32.87196346 17.50587340
v 12.67646767 33.54003876 17.50587340
v 11.00320622 34.12587233 17.50587340
v 9.30232659 34.62833762 17.50587340
v 7.58011073 35.04518159 17.50587340
v 5.83906464 35.37753075 17.50587340
v 4.08295386 35.62200293 17.50587340
v 2.31680080 35.78085378 17.50587340
v 2.26659209 35.78310683 17.50587340
v 2.26659209 34.93252099 1.64447887
v 3.98629934 34.77817625 1.64447887
v 5.70098415 34.53933671 1.64447887
v 7.40060687 34.21487585 1.64447887
v 9.08140197 33.80704410 1.64447887
v 10.74211255 33.31697062 1.64447887
v 12.37520494 32.74578452 1.64447887
v 15.08908078 31.28683195 1.43304564
v 13.97943005 32.09348060 1.64447887
v 15.08908078 31.49863221 1.58574753
v 15.08908078 32.74803758 17.24158203
v 14.40370858 33.06686580 17.24158203
v 12.75052905 33.73832069 17.24158203
v 11.06722534 34.32753384 17.24158203
v 9.35756035 34.83225480 17.24158203
v 7.62529962 35.25247574 17.24158203
v 5.87295696 35.58595143 17.24158203
v 4.10680391 35.83267666 17.24158203
v 2.33061120 35.99265665 17.24158203
v 2.26659209 35.99490970 17.24158203
v 2.26659209 35.18713452 1.86961623
v 4.01516922 35.03053673 1.86961623
v 5.74240752 34.78944153 1.86961623
v 7.45458372 34.46272761 1.86961623
v 9.14792970 34.05264281 1.86961623
v 10.81993684 33.55919234 1.86961623
v 12.46558532 32.98237100 1.86961623
v 14.08110440 32.32668750 1.86961623
v 15.08908078 31.66649789 1.71495661
v 15.08908078 31.57862350 1.64447887
v 15.08908078 32.83591196 17.13195028
v 14.48278978 33.24937634 16.96750199
v 12.82082230 33.92421082 16.96750199
v 11.12873323 34.51680355 16.96750199
v 9.40902598 35.02490148 16.96750199
v 7.66672298 35.44625156 16.96750199
v 5.90559237 35.78198031 16.96750199
v 4.12939966 36.03095859 16.96750199
v 2.34316207 36.19093858 16.96750199
v 2.26659209 36.18530333 16.97924839
v 2.26659209 35.43385975 2.10845707
v 2.29420766 35.42822711 2.10454160
v 4.04278480 35.27162932 2.10454160
v 5.78132227 35.02941020 2.10454160
v 7.50604935 34.70044062 2.10454160
v 9.21069451 34.28697884 2.10454160
v 10.89399822 33.79014619 2.10454160
v 12.55094327 33.20994526 2.10454160
v 15.08908078 31.85689412 1.86961623
v 14.17776152 32.54862912 2.10454160
v 15.08908078 32.12502599 2.10454160
v 15.08908078 32.96659701 16.96750199
v 15.08908078 33.17164071 16.68363394
v 14.55684856 33.41836594 16.68363394
v 12.88609833 34.09770913 16.68363394
v 11.18521869 34.69255492 16.68363394
v 9.45672609 35.20290591 16.68363394
v 7.70689204 35.62763557 16.68363394
v 5.93571916 35.96449085 16.68363394
v 4.15073849 36.21459566 16.68363394
v 2.35571556 36.37569956 16.68363394
v 2.26659209 36.19319163 16.96750199
v 2.26659209 36.37908176 16.68363394
v 2.26659209 35.66143401 2.35317111
v 2.30926976 35.65918095 2.35317111
v 4.06914607 35.50145663 2.35317111
v 5.81898011 35.25698185 2.35317111
v 7.55500376 34.92576182 2.35317111
v 9.27094549 34.51004438 2.35317111
v 10.96554838 34.00983214 2.35317111
v 12.63253570 33.42625163 2.35317111
v 14.26939361 32.76042938 2.35317111
v 15.08908078 32.37963691 2.35317111
v 15.08908078 33.35978389 16.38997657
v 14.62463319 33.57609026 16.38997657
v 12.94760361 34.25768651 16.38997657
v 11.23793863 34.85591188 16.38997657
v 9.50191498 35.36851592 16.38997657
v 7.74203867 35.79549864 16.38997657
v 5.96333474 36.13460697 16.38997657
v 4.17082302 36.38471439 16.38997657
v 2.36701213 36.54581830 16.38997657
v 2.26659209 36.54131219 16.40759617
v 2.26659209 35.87999605 2.61158928
v 2.32307754 35.87774038 2.61158928
v 4.09425043 35.71888953 2.61158928
v 5.85412674 35.47329083 2.61158928
v 7.60144956 35.13981774 2.61158928
v 9.32743356 34.72184725 2.61158928
v 11.03207611 34.21825543 2.61158928
v 12.71035999 33.63016620 2.61158928
v 14.35726278 32.96096437 2.61158928
v 15.08908078 32.62072951 2.61158928
v 15.08908078 33.40710066 16.30971016
v 15.08908078 33.53327960 16.09044665
v 14.68739539 33.71916972 16.09044665
v 13.00283737 34.40414295 16.09044665
v 11.28563873 35.00462398 16.09044665
v 9.54208143 35.52060761 16.09044665
v 7.77593099 35.94871685 16.09044665
v 5.98969601 36.28895171 16.09044665
v 4.18839633 36.54018566 16.09044665
v 2.37705439 36.70241609 16.09044665
v 2.26659209 36.55933663 16.37431471
v 2.26659209 36.08616367 2.88175385
v 2.33688533 36.08278409 2.88175385
v 4.11684617 35.92393324 2.88175385
v 5.88801906 35.67607887 2.88175385
v 7.64412723 35.34147926 2.88175385
v 9.38141041 34.92012918 2.88175385
v 11.09609522 34.41428430 2.88175385
v 12.78316706 33.82281810 2.88175385
v 14.43885520 33.15023407 2.88175385
v 15.08908078 32.71874525 2.72709424
v 15.08908078 33.65607895 15.84964808
v 14.74388346 33.84985477 15.78308580
v 13.05304609 34.53708366 15.78308580
v 11.32957332 35.14094427 15.78308580
v 9.57848497 35.65805443 15.78308580
v 7.80605778 36.08729020 15.78308580
v 6.01228915 36.42977811 15.78308580
v 4.20471534 36.68213598 15.78308580
v 2.26659209 36.70692220 16.09044665
v 2.38584235 36.84436902 15.78308580
v 2.26659209 36.85000166 15.78308580
v 2.26659209 36.27881296 3.15974936
v 2.34943882 36.27543338 3.15974936
v 4.13943931 36.11545600 3.15974936
v 5.91940016 35.86647511 3.15974936
v 7.68555321 35.52962244 3.15974936
v 9.43036482 35.10601930 3.15974936
v 11.15509190 34.59679484 3.15974936
v 12.85094909 34.00307298 3.15974936
v 14.51667950 33.32711197 3.15974936
v 15.08908078 32.92941898 2.98747014
v 15.08908078 32.84830377 2.88175385
v 15.08908078 33.68987739 15.78308580
v 14.79534909 33.96702148 15.46985110
v 13.09823498 34.65650342 15.46985110
v 11.36848807 35.26149057 15.46985110
v 9.61237729 35.78085378 15.46985110
v 7.83241645 36.21234260 15.46985110
v 6.03362799 36.55483052 15.46985110
v 4.21852313 36.80831492 15.46985110
v 2.39462771 36.97167449 15.46985110
v 2.26659209 36.97730713 15.46985110
v 2.26659209 36.45794392 3.44753288
v 2.36073539 36.45343520 3.44753288
v 4.15952384 36.29233129 3.44753288
v 5.94827004 36.04335301 3.44753288
v 7.72321105 35.70424467 3.44753288
v 9.47680801 35.27951501 3.44753288
v 11.20906875 34.76803750 3.44753288
v 12.91496821 34.17093605 3.44753288
v 14.58822966 33.49046893 3.44753288
v 15.08908078 33.25838856 3.44753288
v 15.08908078 33.12657699 3.25567698
v 15.08908078 33.06010664 3.15974936
v 15.08908078 33.80479105 15.52662537
v 15.08908078 33.82957727 15.46985110
v 15.08908078 33.85098130 15.41503555
v 15.08908078 33.95350315 15.14878645
v 14.83928367 34.06954333 15.14878645
v 13.13714974 34.76127833 15.14878645
v 11.40363470 35.36851592 15.14878645
v 9.64124717 35.88900827 15.14878645
v 7.85626650 36.32162362 15.14878645
v 6.05120391 36.66523807 15.14878645
v 4.23107401 36.91985160 15.14878645
v 2.40090445 37.08320856 15.14878645
v 2.26659209 37.08884120 15.14878645
v 2.26659209 36.61341518 3.72552838
v 2.37077765 36.61904782 3.74314798
v 4.17835407 36.45681739 3.74314798
v 5.97588822 36.20558344 3.74314798
v 7.75835767 35.86534858 3.74314798
v 9.51948829 35.43836586 3.74314798
v 11.26053438 34.92463529 3.74314798
v 12.97271058 34.32528079 3.74314798
v 14.65350568 33.64256062 3.74314798
v 15.08908078 33.31133798 3.53367249
v 15.08908078 33.96927454 15.10180118
v 14.87819582 34.15741771 14.82380600
v 13.17104205 34.85140577 14.82380600
v 11.43250458 35.45977250 14.82380600
v 9.66635413 35.98138876 14.82380600
v 7.87635103 36.41513065 14.82380600
v 6.06752031 36.75987162 14.82380600
v 4.24237058 37.01448515 14.82380600
v 2.40718119 37.17896864 14.82380600
v 2.26659209 37.17784211 14.84925620
v 2.26659209 36.63143963 3.76076693
v 2.26659209 36.77339256 4.04659336
v 2.38081992 36.76888645 4.04659336
v 4.19592738 36.60552688 4.04659336
v 5.99973828 36.35429554 4.04659336
v 7.78973877 36.01293415 4.04659336
v 9.55965735 35.58369838 4.04659336
v 11.30698018 35.06771475 4.04659336
v 13.02543052 34.46610719 4.04659336
v 15.08908078 33.43977258 3.74314798
v 14.71375667 33.78000483 4.04659336
v 15.08908078 33.60538259 4.04659336
v 15.08908078 33.48145671 3.81949892
v 15.08908078 34.05940458 14.82380600
v 15.08908078 34.14840549 14.49491008
v 14.91083384 34.23064724 14.49491008
v 13.19991194 34.92576182 14.49491008
v 11.45761155 35.53638160 14.49491008
v 9.68643866 36.05912440 14.49491008
v 7.89392434 36.49399281 14.49491008
v 6.08007379 36.83986031 14.49491008
v 4.25115854 37.09447384 14.49491008
v 2.41220102 37.26008385 14.49491008
v 2.26659209 37.18460128 14.82380600
v 2.26659209 36.89957149 4.33633527
v 2.38960788 36.90407760 4.35786968
v 4.21098948 36.74072064 4.35786968
v 6.02233142 36.48723364 4.35786968
v 7.81860866 36.14587486 4.35786968
v 9.59480397 35.71438342 4.35786968
v 11.34840354 35.19727327 4.35786968
v 13.07438493 34.59228612 4.35786968
v 14.76773351 33.90393332 4.35786968
v 15.08908078 33.75522122 4.35786968
v 15.08908078 34.21938196 14.16209870
v 14.93593819 34.29035842 14.16209870
v 13.22250769 34.98659953 14.16209870
v 11.47769347 35.59721671 14.16209870
v 9.70401198 36.12108864 14.16209870
v 7.90773213 36.55708358 14.16209870
v 6.09011605 36.90295108 14.16209870
v 4.25868958 37.15869114 14.16209870
v 2.26659209 37.26571649 14.49491008
v 2.41722345 37.32430115 14.16209870
v 2.26659209 36.90858372 4.35786968
v 2.26659209 37.02913001 4.67501952
v 2.39713892 37.02349737 4.67501952
v 4.22479726 36.86014041 4.67501952
v 6.04116164 36.60665341 4.67501952
v 7.84371562 36.26303896 4.67501952
v 9.62493077 35.83042361 4.67501952
v 11.38480447 35.31106040 4.67501952
v 13.11706521 34.70494673 4.67501952
v 14.81543362 34.01433825 4.67501952
v 15.08908078 33.88815932 4.67501952
v 15.08908078 33.78000483 4.41660102
v 15.08908078 34.27233137 13.82732991
v 14.95476581 34.33429562 13.82732991
v 13.24008100 35.03166325 13.82732991
v 11.49150386 35.64340696 13.82732991
v 9.71656285 36.16727889 13.82732991
v 7.91777439 36.60440035 13.82732991
v 6.09890141 36.95026785 13.82732991
v 4.26496632 37.20713444 13.82732991
v 2.26659209 37.32993379 14.16209870
v 2.41973206 37.37161793 13.82732991
v 2.26659209 37.37837709 13.82732991
v 2.26659209 37.03701571 4.69655426
v 2.40466997 37.12827228 4.99608451
v 4.23609644 36.96378879 4.99608451
v 6.05873495 36.71030179 4.99608451
v 7.86630876 36.36556081 4.99608451
v 9.65254635 35.93181893 4.99608451
v 11.41744249 35.41132659 4.99608451
v 13.15346614 34.80296247 4.99608451
v 14.85811129 34.11010094 4.99608451
v 15.08908078 34.00307298 4.99608451
v 15.08908078 34.30500329 13.51409554
v 14.96857360 34.36358534 13.49060306
v 13.25137757 35.06095558 13.49060306
v 11.50154352 35.67382582 13.49060306
v 9.72409651 36.19882427 13.49060306
v 7.92405114 36.63481921 13.49060306
v 6.10392384 36.98181324 13.49060306
v 4.26747754 37.23867983 13.49060306
v 2.42224328 37.40428984 13.49060306
v 2.26659209 37.40766943 13.51801100
v 2.26659209 37.13390492 4.99608451
v 2.40969241 37.21727319 5.32302269
v 4.24739301 37.05278970 5.32302269
v 6.07379705 36.79817617 5.32302269
v 7.88513899 36.45230867 5.32302269
v 9.67639640 36.01856679 5.32302269
v 11.44505806 35.49582399 5.32302269
v 13.18484984 34.88633074 5.32302269
v 14.89325792 34.19234268 5.32302269
v 15.08908078 34.01659131 5.04111172
v 15.08908078 34.30725634 13.49060306
v 14.97359604 34.37597975 13.24393129
v 13.25514309 35.07334739 13.24393129
v 11.50530905 35.68622023 13.24393129
v 9.72786203 36.21121608 13.24393129
v 7.92656235 36.64721102 13.24393129
v 6.10517815 36.99420504 13.24393129
v 4.26998876 37.25107163 13.24393129
v 2.42349759 37.41668165 13.24393129
v 2.26659209 37.42344081 13.24393129
v 2.26659209 37.42231429 13.26546603
v 2.26659209 37.40992248 13.49060306
v 2.26659209 37.21614666 5.29757216
v 2.26659209 37.22290583 5.32302269
v 2.41471224 37.29050271 5.65387601
v 4.25492406 37.12601922 5.65387601
v 6.08509362 36.87027916 5.65387601
v 7.90020108 36.52441166 5.65387601
v 9.69522402 36.08841673 5.65387601
v 11.46639690 35.56567132 5.65387601
v 13.21120851 34.95505415 5.65387601
v 14.92213041 34.25993957 5.65387601
v 15.08908078 34.11122747 5.36021897
v 15.08908078 34.10108872 5.32302269
v 15.08908078 34.32190120 13.24393129
v 15.08908078 34.32640731 12.99921692
v 14.97485034 34.37935933 12.99921692
v 13.25765431 35.07785350 12.99921692
v 11.50656596 35.68959981 12.99921692
v 9.72911634 36.21572219 12.99921692
v 7.92781666 36.65171713 12.99921692
v 6.10643506 36.99871376 12.99921692
v 4.26998876 37.25557774 12.99921692
v 2.42349759 37.42118776 12.99921692
v 2.26659209 37.42682040 13.02075199
v 2.26659209 37.29613535 5.65387601
v 2.26659209 37.34908476 5.96123719
v 2.41847776 37.34795824 5.98864513
v 4.26120080 37.18234822 5.98864513
v 6.09388158 36.92661077 5.98864513
v 7.91275457 36.57961674 5.98864513
v 9.70903181 36.14361919 5.98864513
v 11.48397021 35.61974987 5.98864513
v 13.23129304 35.00913009 5.98864513
v 14.94598046 34.31176245 5.98864513
v 15.08908078 34.18896310 5.68715715
v 15.08908078 34.18220393 5.65387601
v 15.08908078 34.32640731 6.97729028
v 14.97485034 34.37935933 7.00078308
v 13.25765431 35.07785350 7.00078308
v 11.50656596 35.68959981 7.00078308
v 9.72911634 36.21572219 7.00078308
v 7.92781666 36.65171713 7.00078308
v 6.10643506 36.99871376 7.00078308
v 4.26998876 37.25557774 7.00078308
v 2.42349759 37.42118776 7.00078308
v 2.26659209 37.42682040 6.97141740
v 2.26659209 37.35359348 5.98864513
v 2.26659209 37.35697307 6.01605306
v 2.42098898 37.38851845 6.32341424
v 4.26622063 37.22290583 6.32341424
v 6.10141262 36.96716838 6.32341424
v 7.92153992 36.62017435 6.32341424
v 9.72032838 36.18417680 6.32341424
v 11.49652369 35.65918095 6.32341424
v 13.24510083 35.04743464 6.32341424
v 15.08908078 34.24529210 5.98864513
v 14.96229947 34.34894048 6.32341424
v 15.08908078 34.28697884 6.29796371
v 15.08908078 34.31739509 6.66209850
v 14.97108482 34.37147364 6.66209850
v 13.25388879 35.06996781 6.66209850
v 11.50405474 35.68284065 6.66209850
v 9.72660512 36.20783649 6.66209850
v 7.92656235 36.64383143 6.66209850
v 6.10517815 36.99082546 6.66209850
v 4.26873185 37.24769205 6.66209850
v 2.42224328 37.41330206 6.66209850
v 2.26659209 37.41893470 6.66209850
v 2.26659209 37.39415109 6.32341424
v 2.26659209 37.39640415 6.35277991
v 15.08908078 34.29261148 6.34886445
v 15.08908078 34.29035842 6.32341424
f 1 2 6
f 1 6 11
f 1 11 18
f 1 18 31
f 1 31 47
f 1 47 60
f 1 60 39
f 1 39 25
f 1 25 14
f 1 14 8
f 1 8 3
f 1 3 9
f 1 9 16
f 1 16 30
f 1 30 46
f 1 46 73
f 1 73 100
f 1 100 127
f 1 127 153
f 1 153 183
f 1 183 182
f 1 182 206
f 1 206 227
f 1 227 248
f 1 248 270
f 1 270 289
f 1 289 308
f 1 308 307
f 1 307 327
f 1 327 347
f 1 347 365
f 1 365 367
f 1 367 387
f 1 387 386
f 1 386 406
f 1 406 408
f 1 408 430
f 1 430 450
f 1 450 471
f 1 471 493
f 1 493 492
f 1 492 515
f 1 515 514
f 1 514 513
f 1 513 538
f 1 538 558
f 1 558 561
f 1 561 560
f 1 560 582
f 1 582 604
f 1 604 603
f 1 603 625
f 1 625 645
f 1 645 669
f 1 669 668
f 1 668 692
f 1 692 691
f 1 691 712
f 1 712 714
f 1 714 728
f 1 728 727
f 1 727 715
f 1 715 693
f 1 693 671
f 1 671 670
f 1 670 646
f 1 646 626
f 1 626 605
f 1 605 583
f 1 583 563
f 1 563 562
f 1 562 539
f 1 539 519
f 1 519 518
f 1 518 517
f 1 517 516
f 1 516 494
f 1 494 472
f 1 472 452
f 1 452 451
f 1 451 431
f 1 431 410
f 1 410 409
f 1 409 388
f 1 388 368
f 1 368 348
f 1 348 329
f 1 329 328
f 1 328 309
f 1 309 290
f 1 290 271
f 1 271 251
f 1 251 250
f 1 250 231
f 1 231 230
f 1 230 211
f 1 211 210
f 1 210 189
f 1 189 162
f 1 162 161
f 1 161 133
f 1 133 106
f 1 106 81
f 1 81 56
f 1 56 55
f 1 55 54
f 1 54 36
f 1 36 22
f 1 22 17
f 1 17 10
f 1 10 4
f 1 4 5
f 1 5 2
f 2 5 7
f 2 7 6
f 3 8 15
f 3 15 9
f 4 10 5
f 5 10 7
f 6 7 12
f 6 12 11
f 7 10 13
f 7 13 12
f 8 14 26
f 8 26 41
f 8 41 64
f 8 64 88
f 8 88 112
f 8 112 139
f 8 139 155
f 8 155 156
f 8 156 158
f 8 158 185
f 8 185 187
f 8 187 188
f 8 188 209
f 8 209 229
f 8 229 249
f 8 249 260
f 8 260 259
f 8 259 279
f 8 279 298
f 8 298 318
f 8 318 338
f 8 338 357
f 8 357 377
f 8 377 397
f 8 397 419
f 8 419 420
f 8 420 440
f 8 440 461
f 8 461 480
f 8 480 482
f 8 482 503
f 8 503 528
f 8 528 548
f 8 548 572
f 8 572 591
f 8 591 613
f 8 613 615
f 8 615 635
f 8 635 657
f 8 657 656
f 8 656 655
f 8 655 680
f 8 680 702
f 8 702 724
f 8 724 726
f 8 726 725
f 8 725 704
f 8 704 703
f 8 703 682
f 8 682 681
f 8 681 659
f 8 659 658
f 8 658 636
f 8 636 616
f 8 616 594
f 8 594 593
f 8 593 573
f 8 573 550
f 8 550 549
f 8 549 529
f 8 529 504
f 8 504 483
f 8 483 462
f 8 462 441
f 8 441 421
f 8 421 398
f 8 398 378
f 8 378 358
f 8 358 339
f 8 339 319
f 8 319 299
f 8 299 280
f 8 280 261
f 8 261 239
f 8 239 218
f 8 218 197
f 8 197 196
f 8 196 173
f 8 173 172
f 8 172 144
f 8 144 117
f 8 117 92
f 8 92 67
f 8 67 43
f 8 43 27
f 8 27 15
f 9 15 27
f 9 27 42
f 9 42 65
f 9 65 89
f 9 89 113
f 9 113 120
f 9 120 95
f 9 95 69
f 9 69 44
f 9 44 28
f 9 28 16
f 10 17 13
f 11 12 19
f 11 19 18
f 12 13 20
f 12 20 21
f 12 21 19
f 13 17 22
f 13 22 23
f 13 23 24
f 13 24 20
f 14 25 26
f 16 28 29
f 16 29 30
f 18 19 32
f 18 32 31
f 19 21 32
f 20 24 21
f 21 33 32
f 21 24 34
f 21 34 35
f 21 35 33
f 22 36 23
f 23 37 38
f 23 38 24
f 23 36 37
f 24 38 34
f 25 39 40
f 25 40 26
f 26 40 41
f 27 43 42
f 28 44 45
f 28 45 29
f 29 45 46
f 29 46 30
f 31 32 48
f 31 48 47
f 32 33 49
f 32 49 48
f 33 35 49
f 34 38 50
f 34 50 35
f 35 51 49
f 35 50 52
f 35 52 53
f 35 53 51
f 36 54 37
f 37 54 55
f 37 55 56
f 37 56 57
f 37 57 38
f 38 57 58
f 38 58 59
f 38 59 50
f 39 60 61
f 39 61 40
f 40 61 62
f 40 62 63
f 40 63 41
f 41 63 64
f 42 43 66
f 42 66 65
f 43 67 68
f 43 68 66
f 44 69 70
f 44 70 45
f 45 70 71
f 45 71 72
f 45 72 46
f 46 72 73
f 47 48 74
f 47 74 60
f 48 49 74
f 49 75 74
f 49 51 76
f 49 76 75
f 50 59 52
f 51 53 76
f 52 59 77
f 52 77 78
f 52 78 53
f 53 79 76
f 53 78 80
f 53 80 79
f 56 81 82
f 56 82 57
f 57 82 58
f 58 82 83
f 58 83 59
f 59 83 84
f 59 84 85
f 59 85 77
f 60 74 61
f 61 74 62
f 62 74 75
f 62 75 86
f 62 86 63
f 63 86 87
f 63 87 64
f 64 87 88
f 65 66 90
f 65 90 89
f 66 68 91
f 66 91 90
f 67 92 68
f 68 92 93
f 68 93 94
f 68 94 91
f 69 95 96
f 69 96 70
f 70 96 71
f 71 96 97
f 71 97 98
f 71 98 72
f 72 98 99
f 72 99 73
f 73 99 100
f 75 76 86
f 76 79 86
f 77 85 78
f 78 85 101
f 78 101 80
f 79 102 86
f 79 80 102
f 80 103 102
f 80 101 104
f 80 104 105
f 80 105 103
f 81 106 82
f 82 106 107
f 82 107 83
f 83 107 108
f 83 108 109
f 83 109 84
f 84 109 110
f 84 110 85
f 85 110 101
f 86 102 111
f 86 111 87
f 87 111 88
f 88 111 112
f 89 90 114
f 89 114 113
f 90 91 114
f 91 94 115
f 91 115 116
f 91 116 114
f 92 117 93
f 93 117 118
f 93 118 119
f 93 119 94
f 94 119 115
f 95 120 121
f 95 121 96
f 96 121 122
f 96 122 97
f 97 122 123
f 97 123 98
f 98 123 124
f 98 124 125
f 98 125 126
f 98 126 99
f 99 126 100
f 100 126 127
f 101 110 128
f 101 128 129
f 101 129 104
f 102 103 111
f 103 130 111
f 103 105 131
f 103 131 130
f 104 129 132
f 104 132 105
f 105 132 131
f 106 133 107
f 107 133 134
f 107 134 135
f 107 135 108
f 108 135 136
f 108 136 109
f 109 136 110
f 110 136 137
f 110 137 138
f 110 138 128
f 111 130 139
f 111 139 112
f 113 114 140
f 113 140 120
f 114 116 140
f 115 119 141
f 115 141 142
f 115 142 143
f 115 143 116
f 116 143 140
f 117 144 118
f 118 144 145
f 118 145 146
f 118 146 119
f 119 146 141
f 120 140 121
f 121 140 122
f 122 140 143
f 122 143 142
f 122 142 147
f 122 147 123
f 123 147 124
f 124 147 148
f 124 148 149
f 124 149 150
f 124 150 151
f 124 151 125
f 125 151 152
f 125 152 126
f 126 152 127
f 127 152 153
f 128 138 154
f 128 154 129
f 129 154 132
f 130 131 155
f 130 155 139
f 131 156 155
f 131 132 157
f 131 157 158
f 131 158 156
f 132 154 159
f 132 159 160
f 132 160 157
f 133 161 134
f 134 161 162
f 134 162 163
f 134 163 164
f 134 164 135
f 135 164 136
f 136 164 165
f 136 165 137
f 137 165 166
f 137 166 167
f 137 167 138
f 138 167 168
f 138 168 154
f 141 146 169
f 141 169 170
f 141 170 171
f 141 171 142
f 142 171 148
f 142 148 147
f 144 172 145
f 145 172 173
f 145 173 174
f 145 174 146
f 146 174 175
f 146 175 176
f 146 176 169
f 148 171 170
f 148 170 149
f 149 177 178
f 149 178 179
f 149 179 150
f 149 170 177
f 150 179 180
f 150 180 151
f 151 180 152
f 152 180 181
f 152 181 182
f 152 182 183
f 152 183 153
f 154 168 184
f 154 184 159
f 157 185 158
f 157 160 185
f 159 184 186
f 159 186 160
f 160 187 185
f 160 186 188
f 160 188 187
f 162 189 190
f 162 190 163
f 163 190 164
f 164 190 191
f 164 191 192
f 164 192 165
f 165 192 166
f 166 192 193
f 166 193 194
f 166 194 167
f 167 194 168
f 168 194 195
f 168 195 184
f 169 176 170
f 170 176 177
f 173 196 174
f 174 196 197
f 174 197 198
f 174 198 199
f 174 199 175
f 175 199 176
f 176 199 200
f 176 200 201
f 176 201 177
f 177 201 202
f 177 202 178
f 178 202 203
f 178 203 179
f 179 203 180
f 180 203 204
f 180 204 205
f 180 205 181
f 181 205 182
f 182 205 206
f 184 195 207
f 184 207 208
f 184 208 186
f 186 208 188
f 188 208 209
f 189 210 190
f 190 210 211
f 190 211 191
f 191 211 212
f 191 212 192
f 192 212 213
f 192 213 214
f 192 214 193
f 193 214 194
f 194 214 215
f 194 215 216
f 194 216 195
f 195 216 217
f 195 217 207
f 197 218 198
f 198 218 219
f 198 219 199
f 199 219 220
f 199 220 200
f 200 220 221
f 200 221 201
f 201 221 222
f 201 222 223
f 201 223 202
f 202 223 203
f 203 223 224
f 203 224 225
f 203 225 204
f 204 225 205
f 205 225 226
f 205 226 227
f 205 227 206
f 207 217 228
f 207 228 208
f 208 229 209
f 208 228 229
f 211 230 212
f 212 230 231
f 212 231 232
f 212 232 233
f 212 233 213
f 213 233 214
f 214 233 234
f 214 234 235
f 214 235 215
f 215 235 216
f 216 235 236
f 216 236 217
f 217 236 237
f 217 237 238
f 217 238 228
f 218 239 240
f 218 240 219
f 219 240 220
f 220 240 241
f 220 241 242
f 220 242 221
f 221 242 243
f 221 243 222
f 222 243 223
f 223 243 244
f 223 244 245
f 223 245 224
f 224 245 246
f 224 246 225
f 225 246 247
f 225 247 226
f 226 247 227
f 227 247 248
f 228 238 249
f 228 249 229
f 231 250 232
f 232 250 251
f 232 251 252
f 232 252 253
f 232 253 233
f 233 253 234
f 234 253 254
f 234 254 255
f 234 255 235
f 235 255 256
f 235 256 236
f 236 256 237
f 237 256 257
f 237 257 238
f 238 257 258
f 238 258 259
f 238 259 260
f 238 260 249
f 239 261 240
f 240 261 262
f 240 262 241
f 241 262 263
f 241 263 242
f 242 263 264
f 242 264 243
f 243 264 265
f 243 265 266
f 243 266 244
f 244 266 267
f 244 267 245
f 245 267 246
f 246 267 268
f 246 268 247
f 247 268 269
f 247 269 270
f 247 270 248
f 251 271 252
f 252 271 272
f 252 272 253
f 253 272 273
f 253 273 274
f 253 274 254
f 254 274 255
f 255 274 275
f 255 275 276
f 255 276 256
f 256 276 277
f 256 277 257
f 257 277 258
f 258 277 278
f 258 278 279
f 258 279 259
f 261 280 262
f 262 280 281
f 262 281 263
f 263 281 282
f 263 282 283
f 263 283 264
f 264 283 284
f 264 284 265
f 265 284 266
f 266 284 285
f 266 285 267
f 267 285 286
f 267 286 287
f 267 287 268
f 268 287 288
f 268 288 269
f 269 288 289
f 269 289 270
f 271 290 291
f 271 291 272
f 272 291 273
f 273 291 292
f 273 292 274
f 274 292 293
f 274 293 294
f 274 294 275
f 275 294 276
f 276 294 295
f 276 295 277
f 277 295 296
f 277 296 297
f 277 297 278
f 278 297 279
f 279 297 298
f 280 299 300
f 280 300 281
f 281 300 282
f 282 300 301
f 282 301 302
f 282 302 283
f 283 302 284
f 284 302 303
f 284 303 304
f 284 304 285
f 285 304 305
f 285 305 286
f 286 305 287
f 287 305 306
f 287 306 307
f 287 307 288
f 288 307 308
f 288 308 289
f 290 309 291
f 291 309 310
f 291 310 292
f 292 310 311
f 292 311 312
f 292 312 293
f 293 312 294
f 294 312 313
f 294 313 295
f 295 313 314
f 295 314 296
f 296 314 315
f 296 315 297
f 297 315 316
f 297 316 317
f 297 317 298
f 298 317 318
f 299 319 320
f 299 320 300
f 300 320 321
f 300 321 301
f 301 321 302
f 302 321 322
f 302 322 323
f 302 323 303
f 303 323 324
f 303 324 304
f 304 324 305
f 305 324 325
f 305 325 326
f 305 326 306
f 306 326 327
f 306 327 307
f 309 328 310
f 310 328 329
f 310 329 330
f 310 330 311
f 311 330 331
f 311 331 312
f 312 331 332
f 312 332 333
f 312 333 313
f 313 333 334
f 313 334 314
f 314 334 315
f 315 334 335
f 315 335 336
f 315 336 316
f 316 336 317
f 317 336 337
f 317 337 338
f 317 338 318
f 319 339 320
f 320 339 340
f 320 340 321
f 321 340 341
f 321 341 342
f 321 342 322
f 322 342 343
f 322 343 323
f 323 343 324
f 324 343 344
f 324 344 325
f 325 344 345
f 325 345 326
f 326 345 346
f 326 346 347
f 326 347 327
f 329 348 330
f 330 348 349
f 330 349 350
f 330 350 331
f 331 350 351
f 331 351 332
f 332 351 352
f 332 352 333
f 333 352 334
f 334 352 353
f 334 353 354
f 334 354 335
f 335 354 336
f 336 354 355
f 336 355 356
f 336 356 337
f 337 356 338
f 338 356 357
f 339 358 359
f 339 359 340
f 340 359 360
f 340 360 341
f 341 360 342
f 342 360 361
f 342 361 343
f 343 361 362
f 343 362 363
f 343 363 344
f 344 363 364
f 344 364 345
f 345 364 346
f 346 365 347
f 346 364 366
f 346 366 367
f 346 367 365
f 348 368 369
f 348 369 349
f 349 369 350
f 350 369 370
f 350 370 351
f 351 370 371
f 351 371 352
f 352 371 372
f 352 372 373
f 352 373 353
f 353 373 354
f 354 373 374
f 354 374 375
f 354 375 355
f 355 375 376
f 355 376 356
f 356 376 357
f 357 376 377
f 358 378 379
f 358 379 359
f 359 379 360
f 360 379 380
f 360 380 381
f 360 381 361
f 361 381 382
f 361 382 362
f 362 382 363
f 363 382 383
f 363 383 364
f 364 383 384
f 364 384 385
f 364 385 366
f 366 386 387
f 366 387 367
f 366 385 386
f 368 388 369
f 369 388 389
f 369 389 370
f 370 389 390
f 370 390 391
f 370 391 371
f 371 391 392
f 371 392 372
f 372 392 373
f 373 392 393
f 373 393 394
f 373 394 374
f 374 394 395
f 374 395 375
f 375 395 376
f 376 395 396
f 376 396 397
f 376 397 377
f 378 398 399
f 378 399 400
f 378 400 379
f 379 400 401
f 379 401 380
f 380 401 402
f 380 402 381
f 381 402 382
f 382 402 403
f 382 403 383
f 383 403 404
f 383 404 405
f 383 405 384
f 384 405 385
f 385 406 386
f 385 405 407
f 385 407 408
f 385 408 406
f 388 409 389
f 389 409 410
f 389 410 411
f 389 411 412
f 389 412 390
f 390 412 391
f 391 412 413
f 391 413 392
f 392 413 414
f 392 414 415
f 392 415 393
f 393 415 394
f 394 415 416
f 394 416 395
f 395 416 417
f 395 417 418
f 395 418 396
f 396 419 397
f 396 418 420
f 396 420 419
f 398 421 422
f 398 422 399
f 399 422 400
f 400 422 423
f 400 423 401
f 401 423 424
f 401 424 402
f 402 424 425
f 402 425 426
f 402 426 403
f 403 426 404
f 404 426 427
f 404 427 428
f 404 428 405
f 405 428 407
f 407 428 429
f 407 429 430
f 407 430 408
f 410 431 432
f 410 432 411
f 411 432 412
f 412 432 433
f 412 433 434
f 412 434 413
f 413 434 435
f 413 435 414
f 414 435 415
f 415 435 436
f 415 436 437
f 415 437 416
f 416 437 417
f 417 437 438
f 417 438 418
f 418 438 439
f 418 439 440
f 418 440 420
f 421 441 442
f 421 442 422
f 422 442 423
f 423 442 443
f 423 443 444
f 423 444 424
f 424 444 425
f 425 444 445
f 425 445 446
f 425 446 426
f 426 446 427
f 427 446 447
f 427 447 428
f 428 447 448
f 428 448 449
f 428 449 429
f 429 449 430
f 430 449 450
f 431 451 432
f 432 451 452
f 432 452 453
f 432 453 454
f 432 454 433
f 433 454 434
f 434 454 455
f 434 455 456
f 434 456 435
f 435 456 436
f 436 456 457
f 436 457 437
f 437 457 458
f 437 458 438
f 438 458 459
f 438 459 460
f 438 460 439
f 439 460 461
f 439 461 440
f 441 462 442
f 442 462 463
f 442 463 464
f 442 464 443
f 443 464 444
f 444 464 465
f 444 465 466
f 444 466 445
f 445 466 446
f 446 466 467
f 446 467 468
f 446 468 447
f 447 468 448
f 448 468 469
f 448 469 470
f 448 470 449
f 449 470 471
f 449 471 450
f 452 472 473
f 452 473 453
f 453 473 454
f 454 473 474
f 454 474 475
f 454 475 455
f 455 475 456
f 456 475 476
f 456 476 457
f 457 476 477
f 457 477 478
f 457 478 458
f 458 478 479
f 458 479 459
f 459 479 460
f 460 480 461
f 460 479 481
f 460 481 482
f 460 482 480
f 462 483 484
f 462 484 463
f 463 484 464
f 464 484 485
f 464 485 486
f 464 486 465
f 465 486 466
f 466 486 487
f 466 487 467
f 467 487 488
f 467 488 468
f 468 488 489
f 468 489 490
f 468 490 469
f 469 490 491
f 469 491 470
f 470 492 493
f 470 493 471
f 470 491 492
f 472 494 473
f 473 494 495
f 473 495 474
f 474 495 496
f 474 496 475
f 475 496 497
f 475 497 498
f 475 498 476
f 476 498 499
f 476 499 477
f 477 499 478
f 478 499 500
f 478 500 501
f 478 501 479
f 479 501 502
f 479 502 481
f 481 502 482
f 482 502 503
f 483 504 484
f 484 504 505
f 484 505 485
f 485 505 506
f 485 506 507
f 485 507 486
f 486 507 487
f 487 507 508
f 487 508 509
f 487 509 488
f 488 509 489
f 489 509 510
f 489 510 511
f 489 511 490
f 490 511 491
f 491 511 512
f 491 512 513
f 491 513 514
f 491 514 515
f 491 515 492
f 494 516 495
f 495 517 518
f 495 518 519
f 495 519 520
f 495 520 521
f 495 521 496
f 495 516 517
f 496 521 522
f 496 522 497
f 497 522 498
f 498 522 523
f 498 523 499
f 499 523 524
f 499 524 500
f 500 524 525
f 500 525 526
f 500 526 501
f 501 526 502
f 502 526 527
f 502 527 503
f 503 527 528
f 504 529 530
f 504 530 505
f 505 530 506
f 506 530 531
f 506 531 507
f 507 531 532
f 507 532 533
f 507 533 508
f 508 533 509
f 509 533 534
f 509 534 535
f 509 535 510
f 510 535 511
f 511 535 536
f 511 536 537
f 511 537 512
f 512 537 513
f 513 537 538
f 519 539 520
f 520 539 540
f 520 540 541
f 520 541 521
f 521 541 522
f 522 541 542
f 522 542 543
f 522 543 523
f 523 543 524
f 524 543 544
f 524 544 545
f 524 545 525
f 525 545 526
f 526 545 546
f 526 546 547
f 526 547 527
f 527 547 548
f 527 548 528
f 529 549 530
f 530 549 550
f 530 550 551
f 530 551 531
f 531 551 552
f 531 552 553
f 531 553 532
f 532 553 554
f 532 554 533
f 533 554 534
f 534 554 555
f 534 555 535
f 535 555 556
f 535 556 536
f 536 556 557
f 536 557 537
f 537 558 538
f 537 557 559
f 537 559 560
f 537 560 561
f 537 561 558
f 539 562 540
f 540 562 563
f 540 563 564
f 540 564 541
f 541 564 565
f 541 565 566
f 541 566 542
f 542 566 543
f 543 566 567
f 543 567 568
f 543 568 544
f 544 568 569
f 544 569 545
f 545 569 546
f 546 569 570
f 546 570 571
f 546 571 547
f 547 572 548
f 547 571 572
f 550 573 551
f 551 573 574
f 551 574 575
f 551 575 552
f 552 575 553
f 553 575 576
f 553 576 577
f 553 577 554
f 554 577 555
f 555 577 578
f 555 578 579
f 555 579 556
f 556 579 557
f 557 579 580
f 557 580 559
f 559 580 581
f 559 581 582
f 559 582 560
f 563 583 584
f 563 584 564
f 564 584 585
f 564 585 565
f 565 585 566
f 566 585 586
f 566 586 587
f 566 587 567
f 567 587 588
f 567 588 568
f 568 588 569
f 569 588 589
f 569 589 590
f 569 590 570
f 570 590 571
f 571 591 572
f 571 590 592
f 571 592 591
f 573 593 574
f 574 593 594
f 574 594 595
f 574 595 596
f 574 596 575
f 575 596 597
f 575 597 576
f 576 597 577
f 577 597 598
f 577 598 599
f 577 599 578
f 578 599 579
f 579 599 600
f 579 600 601
f 579 601 580
f 580 601 581
f 581 601 602
f 581 602 603
f 581 603 604
f 581 604 582
f 583 605 584
f 584 605 606
f 584 606 607
f 584 607 585
f 585 607 586
f 586 607 608
f 586 608 587
f 587 608 609
f 587 609 610
f 587 610 588
f 588 610 589
f 589 610 611
f 589 611 612
f 589 612 590
f 590 612 592
f 591 592 613
f 592 612 614
f 592 614 615
f 592 615 613
f 594 616 595
f 595 616 617
f 595 617 596
f 596 617 618
f 596 618 619
f 596 619 597
f 597 619 598
f 598 619 620
f 598 620 621
f 598 621 599
f 599 621 622
f 599 622 600
f 600 622 601
f 601 622 623
f 601 623 624
f 601 624 602
f 602 624 603
f 603 624 625
f 605 626 627
f 605 627 606
f 606 627 607
f 607 627 628
f 607 628 629
f 607 629 608
f 608 629 630
f 608 630 609
f 609 630 610
f 610 630 631
f 610 631 632
f 610 632 611
f 611 632 612
f 612 632 633
f 612 633 634
f 612 634 614
f 614 634 615
f 615 634 635
f 616 636 617
f 617 636 637
f 617 637 638
f 617 638 618
f 618 638 619
f 619 638 639
f 619 639 620
f 620 639 640
f 620 640 641
f 620 641 621
f 621 641 622
f 622 641 642
f 622 642 643
f 622 643 623
f 623 643 644
f 623 644 624
f 624 644 625
f 625 644 645
f 626 646 627
f 627 646 647
f 627 647 628
f 628 647 648
f 628 648 649
f 628 649 629
f 629 649 650
f 629 650 630
f 630 650 631
f 631 650 651
f 631 651 632
f 632 651 652
f 632 652 653
f 632 653 633
f 633 653 634
f 634 653 654
f 634 654 655
f 634 655 656
f 634 656 657
f 634 657 635
f 636 658 637
f 637 659 660
f 637 660 661
f 637 661 638
f 637 658 659
f 638 661 639
f 639 661 662
f 639 662 663
f 639 663 640
f 640 663 641
f 641 663 664
f 641 664 665
f 641 665 642
f 642 665 666
f 642 666 643
f 643 666 644
f 644 666 667
f 644 667 668
f 644 668 669
f 644 669 645
f 646 670 647
f 647 670 671
f 647 671 672
f 647 672 673
f 647 673 648
f 648 673 649
f 649 673 674
f 649 674 675
f 649 675 650
f 650 675 676
f 650 676 651
f 651 676 677
f 651 677 652
f 652 677 653
f 653 677 678
f 653 678 679
f 653 679 654
f 654 679 655
f 655 679 680
f 659 681 660
f 660 681 682
f 660 682 683
f 660 683 661
f 661 683 684
f 661 684 685
f 661 685 662
f 662 685 663
f 663 685 686
f 663 686 687
f 663 687 664
f 664 687 665
f 665 687 688
f 665 688 689
f 665 689 666
f 666 689 667
f 667 689 690
f 667 690 691
f 667 691 692
f 667 692 668
f 671 693 694
f 671 694 672
f 672 694 695
f 672 695 673
f 673 695 696
f 673 696 674
f 674 696 697
f 674 697 675
f 675 697 698
f 675 698 676
f 676 698 699
f 676 699 677
f 677 699 700
f 677 700 678
f 678 700 701
f 678 701 679
f 679 701 702
f 679 702 680
f 682 703 683
f 683 703 704
f 683 704 705
f 683 705 706
f 683 706 684
f 684 706 707
f 684 707 685
f 685 707 708
f 685 708 686
f 686 708 709
f 686 709 687
f 687 709 688
f 688 709 710
f 688 710 689
f 689 710 711
f 689 711 690
f 690 712 691
f 690 711 713
f 690 713 714
f 690 714 712
f 693 715 716
f 693 716 694
f 694 716 717
f 694 717 695
f 695 717 718
f 695 718 696
f 696 718 697
f 697 718 719
f 697 719 720
f 697 720 698
f 698 720 721
f 698 721 699
f 699 721 722
f 699 722 700
f 700 722 723
f 700 723 701
f 701 723 702
f 702 723 724
f 704 725 705
f 705 725 726
f 705 726 723
f 705 723 722
f 705 722 706
f 706 722 707
f 707 722 721
f 707 721 720
f 707 720 708
f 708 720 719
f 708 719 709
f 709 719 718
f 709 718 710
f 710 718 711
f 711 718 717
f 711 717 716
f 711 716 713
f 713 716 715
f 713 715 727
f 713 727 728
f 713 728 714
f 723 726 724

