# https://github.com/mikedh/trimesh
v -40.00055313 30.49403019 20.00000006
v -39.97645795 7.49960840 12.99921692
v -40.00055313 30.49403019 -0.00000006
v -45.00000000 30.49403019 20.00000006
v -40.00055313 -30.49403019 20.00000006
v -39.97645795 7.49960840 7.00078308
v -39.97645795 4.09612381 12.99921692
v -40.00055313 -30.49403019 -0.00000006
v -45.00000000 30.49403019 -0.00000006
v -45.00000000 4.09612381 20.00000006
v -44.99950975 -30.49403019 20.00000006
v -39.97645795 4.09612381 7.00078308
v -44.99950975 -30.49403019 -0.00000006
v -45.00000000 4.09612381 -0.00000006
f 1 2 6
f 1 6 3
f 1 3 9
f 1 9 4
f 1 4 10
f 1 10 11
f 1 11 5
f 1 5 7
f 1 7 2
f 2 7 12
f 2 12 6
f 3 6 12
f 3 12 8
f 3 8 13
f 3 13 14
f 3 14 9
f 4 9 14
f 4 14 10
f 5 11 13
f 5 13 8
f 5 8 12
f 5 12 7
f 10 14 13
f 10 13 11

