# https://github.com/mikedh/trimesh
v 38.77939751 14.99897037 20.00000006
v 38.77939751 14.99897037 -0.00000006
v 33.56758190 17.22078826 12.99921692
v 33.56758190 17.19718855 13.35552078
v 33.56758190 17.08592828 14.23061871
v 33.56758190 17.07244255 14.29913872
v 33.56758190 16.96455535 14.60258443
v 34.36955690 14.99897037 20.00000006
v 38.77939751 -14.99725841 20.00000006
v 34.36955690 14.99897037 -0.00000006
v 33.56758190 16.96455535 5.39741557
v 33.56758190 17.07244255 5.70086128
v 33.56758190 17.08592828 5.76938129
v 33.56758190 17.19718855 6.64447922
v 33.56758190 17.22078826 7.00078308
v 38.77939751 -14.99725841 -0.00000006
v 33.56758190 16.81283787 15.01370416
v 34.23946511 14.99559991 20.00000006
v 38.68093618 -14.99725841 20.00000006
v 33.56758190 -16.20088294 17.68010970
v 33.56758190 -16.50431789 16.99882573
v 33.56758190 -16.63917787 16.68754941
v 33.56758190 -16.64929185 16.65818341
v 33.56758190 -16.95272680 15.77525487
v 33.56758190 -17.00667106 15.56969484
v 33.56758190 -17.11455956 15.14878645
v 33.56758190 -17.14490280 14.98629622
v 33.56758190 -17.22244676 14.55559916
v 34.23946511 14.99559991 -0.00000006
v 33.56758190 16.81283787 4.98629584
v 33.56758190 -17.21907631 7.00078308
v 33.56758190 -17.19884705 6.64447922
v 33.56758190 -17.08758678 5.76938129
v 33.56758190 -17.07072929 5.70086128
v 33.56758190 -16.96284208 5.39741557
v 33.56758190 -16.81449637 4.98629584
v 34.23946511 -14.99725841 -0.00000006
v 33.56758190 14.92479816 20.00000006
v 33.66196185 14.94165566 20.00000006
v 33.89663624 14.97199889 20.00000006
v 34.10937397 14.98885639 20.00000006
v 37.55398823 -14.97028563 20.00000006
v 37.71162845 -14.98377137 19.99804232
v 37.76264458 -14.98714313 19.99608459
v 33.56758190 -15.76933153 18.46515289
v 34.10937397 14.98885639 -0.00000006
v 33.89663624 14.97199889 -0.00000006
v 33.66196185 14.94165566 -0.00000006
v 33.56758190 14.92479816 -0.00000006
v 33.56758190 -14.92308490 -0.00000006
v 33.66196185 -14.93994240 -0.00000006
v 33.89663624 -14.97365739 -0.00000006
v 34.10937397 -14.99051489 -0.00000006
v 33.56758190 -14.48816173 20.00000006
v 36.91628549 -14.93994240 19.99804232
v 37.41114281 -14.97028563 19.99804232
v 37.54174441 -14.97702915 19.99804232
v 36.42908113 -14.88936990 20.00000006
v 37.57337455 -14.98040091 19.99608459
v 37.66775450 -14.98377137 19.99608459
v 37.71877063 -14.98714313 19.99412686
v 33.56758190 -15.40183835 19.01331296
v 37.47848414 -14.97702915 19.99412686
v 37.23513686 -14.96354342 19.99412686
v 37.01627722 -14.95005637 19.99608459
v 36.75813546 -14.93994240 19.98825431
v 33.56758190 -14.51850496 19.99804232
v 34.83839586 -14.70056567 20.00000006
v 36.77854205 -14.92982842 19.99804232
v 36.69334512 -14.92645666 19.99608459
v 35.90667473 -14.84891139 19.99804232
v 36.10257713 -14.86914065 19.99804232
v 36.39490001 -14.89611343 19.99804232
v 33.56758190 -15.19954838 19.27760433
v 36.47856686 -14.91971314 19.98629658
v 36.28011348 -14.89948388 19.99021204
v 36.79537738 -14.93657064 19.99412686
v 33.56758190 -14.54210598 19.99216912
v 34.03540060 -14.61290643 19.99412686
v 34.18895911 -14.61964995 19.99804232
v 34.77105454 -14.70393743 19.99804232
v 34.96491576 -14.73090891 19.99804232
v 34.67463341 -14.69045170 19.99804232
v 36.40561376 -14.90285564 19.99608459
v 36.45816028 -14.90959916 19.99412686
v 35.86688248 -14.84891139 19.99608459
v 35.28376680 -14.78148140 19.99608459
v 35.47762867 -14.80508242 19.99608459
v 36.05666265 -14.87588417 19.99216912
v 33.56758190 -15.03097340 19.49099464
v 35.93728460 -14.87925593 19.97455018
v 35.96942520 -14.86914065 19.99021204
v 33.56758190 -14.56907745 19.98042338
v 33.57880546 -14.57244921 19.98042338
v 33.74409799 -14.58593495 19.98629658
v 34.36037388 -14.67359420 19.98825431
v 34.54913378 -14.70056567 19.98825431
v 34.89757443 -14.73428067 19.99412686
v 35.49956532 -14.81519639 19.99216912
v 35.02205379 -14.76125345 19.99021204
v 35.54394973 -14.83542565 19.97846564
v 35.01644202 -14.79159668 19.96280378
v 33.56758190 -14.85902667 19.69459694
v 35.85463867 -14.85902667 19.98825431
v 35.52150263 -14.82531168 19.98629658
v 33.56758190 -14.59942069 19.96280378
v 33.60278329 -14.60616421 19.96280378
v 34.58331425 -14.71742317 19.98042338
v 35.14449263 -14.78485316 19.98433884
v 35.07919183 -14.78822492 19.97455018
v 33.56758190 -14.76462390 19.80422869
v 33.56758190 -14.65336494 19.91777657
v 34.46954863 -14.73090891 19.95693058
v 34.83278409 -14.75450993 19.97650791
v 34.83380435 -14.77136742 19.96084604
v 33.65532981 -14.67359420 19.90994563
v 33.56758190 -14.67359420 19.89819923
f 1 2 15
f 1 15 3
f 1 3 4
f 1 4 5
f 1 5 6
f 1 6 7
f 1 7 8
f 1 8 18
f 1 18 41
f 1 41 40
f 1 40 39
f 1 39 38
f 1 38 54
f 1 54 68
f 1 68 58
f 1 58 42
f 1 42 19
f 1 19 9
f 1 9 16
f 1 16 2
f 2 10 11
f 2 11 12
f 2 12 13
f 2 13 14
f 2 14 15
f 2 16 37
f 2 37 53
f 2 53 52
f 2 52 51
f 2 51 50
f 2 50 49
f 2 49 48
f 2 48 47
f 2 47 46
f 2 46 29
f 2 29 10
f 3 15 14
f 3 14 13
f 3 13 12
f 3 12 11
f 3 11 30
f 3 30 49
f 3 49 50
f 3 50 36
f 3 36 35
f 3 35 34
f 3 34 33
f 3 33 32
f 3 32 31
f 3 31 28
f 3 28 27
f 3 27 26
f 3 26 25
f 3 25 24
f 3 24 23
f 3 23 22
f 3 22 21
f 3 21 20
f 3 20 45
f 3 45 62
f 3 62 74
f 3 74 90
f 3 90 103
f 3 103 111
f 3 111 117
f 3 117 112
f 3 112 106
f 3 106 93
f 3 93 78
f 3 78 67
f 3 67 54
f 3 54 38
f 3 38 17
f 3 17 7
f 3 7 6
f 3 6 5
f 3 5 4
f 7 17 18
f 7 18 8
f 9 19 20
f 9 20 21
f 9 21 22
f 9 22 23
f 9 23 24
f 9 24 25
f 9 25 26
f 9 26 27
f 9 27 28
f 9 28 16
f 10 29 11
f 11 29 30
f 16 28 31
f 16 31 32
f 16 32 33
f 16 33 34
f 16 34 35
f 16 35 36
f 16 36 37
f 17 38 39
f 17 39 40
f 17 40 41
f 17 41 18
f 19 42 43
f 19 43 44
f 19 44 20
f 20 44 45
f 29 46 30
f 30 46 47
f 30 47 48
f 30 48 49
f 36 50 51
f 36 51 52
f 36 52 53
f 36 53 37
f 42 55 56
f 42 56 57
f 42 57 43
f 42 58 55
f 43 57 59
f 43 59 60
f 43 60 61
f 43 61 44
f 44 61 45
f 45 61 59
f 45 59 63
f 45 63 64
f 45 64 65
f 45 65 66
f 45 66 62
f 54 67 68
f 55 69 70
f 55 70 65
f 55 65 56
f 55 58 69
f 56 63 59
f 56 59 57
f 56 65 63
f 58 68 71
f 58 71 72
f 58 72 73
f 58 73 69
f 59 61 60
f 62 66 75
f 62 75 76
f 62 76 74
f 63 65 64
f 65 70 77
f 65 77 66
f 66 77 70
f 66 70 75
f 67 78 79
f 67 79 80
f 67 80 68
f 68 81 82
f 68 82 71
f 68 80 83
f 68 83 81
f 69 73 84
f 69 84 70
f 70 85 76
f 70 76 75
f 70 84 85
f 71 86 72
f 71 82 87
f 71 87 88
f 71 88 86
f 72 86 89
f 72 89 84
f 72 84 73
f 74 76 91
f 74 91 90
f 76 84 89
f 76 89 92
f 76 92 91
f 76 85 84
f 78 93 94
f 78 94 95
f 78 95 79
f 79 83 80
f 79 95 96
f 79 96 97
f 79 97 98
f 79 98 83
f 81 98 82
f 81 83 98
f 82 98 87
f 86 88 99
f 86 99 89
f 87 98 100
f 87 100 88
f 88 100 99
f 89 99 92
f 90 91 101
f 90 101 102
f 90 102 103
f 91 92 104
f 91 104 101
f 92 99 105
f 92 105 104
f 93 106 94
f 94 106 107
f 94 107 96
f 94 96 95
f 96 107 97
f 97 108 100
f 97 100 98
f 97 107 108
f 99 100 109
f 99 109 105
f 100 108 109
f 101 104 105
f 101 105 110
f 101 110 102
f 102 110 111
f 102 111 103
f 105 109 110
f 106 112 107
f 107 112 113
f 107 113 108
f 108 113 114
f 108 114 109
f 109 114 110
f 110 115 111
f 110 114 113
f 110 113 115
f 111 115 113
f 111 113 116
f 111 116 117
f 112 117 116
f 112 116 113

