# https://github.com/mikedh/trimesh
v 29.71097466 4.13285494 -0.00000006
v 24.90986448 16.70307834 -0.00000006
v 29.71097466 13.81276399 -0.00000006
v 29.71097466 4.13285494 20.00000006
v 25.51141337 16.70307834 -0.00000006
v 24.90986448 16.70307834 20.00000006
v 25.80701739 16.70307834 0.00587314
v 26.10215332 16.70307834 0.01761889
v 26.50067817 16.70307834 0.05090035
v 26.53827604 16.70307834 0.05481582
v 26.89215571 16.70307834 0.09788530
v 27.28034232 16.70307834 0.16248984
v 27.43119925 16.70307834 0.19381357
v 27.66382985 16.70307834 0.24275625
v 28.04261699 16.70307834 0.33868387
v 28.41576498 16.70307834 0.45027401
v 28.78233373 16.70307834 0.57752537
v 29.14138317 16.70307834 0.72043793
v 29.48915299 16.70307834 0.87509755
v 29.71097466 16.70307834 0.98472930
v 29.71097466 13.81276399 20.00000006
v 25.51141337 16.70307834 20.00000006
v 29.71097466 16.70307834 19.01527070
v 26.74599785 16.70307834 19.92169203
v 26.68443259 16.70307834 19.92952231
v 26.32820338 16.70307834 19.96671924
v 25.96116524 16.70307834 19.98825431
v 25.91933899 16.70307834 19.99021204
v 25.60211580 16.70307834 19.99804232
v 29.48915299 16.70307834 19.12490245
v 29.15360287 16.70307834 19.27368887
v 29.12963416 16.70307834 19.28347688
v 28.81523121 16.70307834 19.40877115
v 28.75178710 16.70307834 19.43226330
v 28.47075101 16.70307834 19.53014931
v 28.36500995 16.70307834 19.56538785
v 28.12110104 16.70307834 19.63782333
v 27.96977341 16.70307834 19.68089281
v 27.76675068 16.70307834 19.73179387
v 27.56748825 16.70307834 19.77877881
v 27.40864132 16.70307834 19.81205963
v 27.15956263 16.70307834 19.85904522
v 27.04818241 16.70307834 19.87666417
f 1 2 5
f 1 5 3
f 1 3 20
f 1 20 23
f 1 23 21
f 1 21 4
f 1 4 6
f 1 6 2
f 2 6 22
f 2 22 29
f 2 29 28
f 2 28 27
f 2 27 26
f 2 26 25
f 2 25 24
f 2 24 43
f 2 43 42
f 2 42 41
f 2 41 40
f 2 40 39
f 2 39 38
f 2 38 37
f 2 37 36
f 2 36 35
f 2 35 34
f 2 34 33
f 2 33 32
f 2 32 31
f 2 31 30
f 2 30 23
f 2 23 20
f 2 20 19
f 2 19 18
f 2 18 17
f 2 17 16
f 2 16 15
f 2 15 14
f 2 14 13
f 2 13 12
f 2 12 11
f 2 11 10
f 2 10 9
f 2 9 8
f 2 8 7
f 2 7 5
f 3 5 7
f 3 7 8
f 3 8 9
f 3 9 10
f 3 10 11
f 3 11 12
f 3 12 13
f 3 13 14
f 3 14 15
f 3 15 16
f 3 16 17
f 3 17 18
f 3 18 19
f 3 19 20
f 4 21 22
f 4 22 6
f 21 24 25
f 21 25 26
f 21 26 27
f 21 27 28
f 21 28 29
f 21 29 22
f 21 23 30
f 21 30 31
f 21 31 32
f 21 32 33
f 21 33 34
f 21 34 35
f 21 35 36
f 21 36 37
f 21 37 38
f 21 38 39
f 21 39 40
f 21 40 41
f 21 41 42
f 21 42 43
f 21 43 24

